<svg width="40" height="40" viewBox="0 0 40 40" fill="none" xmlns="http://www.w3.org/2000/svg">
<path fill-rule="evenodd" clip-rule="evenodd" d="M8.37492 8.29151L8.30909 8.29151C7.4226 8.29146 6.65879 8.29141 6.04713 8.37365C5.39161 8.46178 4.76326 8.66053 4.2536 9.17019C3.74394 9.67985 3.54519 10.3082 3.45706 10.9637C3.37482 11.5754 3.37487 12.3392 3.37492 13.2257L3.37492 13.2915V25.7915H1.94436C1.12361 25.7915 0.458252 26.4569 0.458252 27.2776C0.458252 29.9777 2.64708 32.1665 5.34714 32.1665H27.7083C28.2605 32.1665 28.7083 31.7188 28.7083 31.1665C28.7083 30.6142 28.2605 30.1665 27.7083 30.1665H5.34714C3.92704 30.1665 2.74626 29.1418 2.50382 27.7915H4.37492H21.8749C22.4272 27.7915 22.8749 27.3438 22.8749 26.7915C22.8749 26.2392 22.4272 25.7915 21.8749 25.7915H5.37492V13.2915C5.37492 12.3204 5.37704 11.6927 5.43922 11.2302C5.49754 10.7965 5.59169 10.6605 5.66781 10.5844C5.74394 10.5083 5.87988 10.4141 6.31362 10.3558C6.77613 10.2936 7.40384 10.2915 8.37492 10.2915H26.6249C27.596 10.2915 28.2237 10.2936 28.6862 10.3558C29.12 10.4141 29.2559 10.5083 29.332 10.5844C29.4082 10.6605 29.5023 10.7965 29.5606 11.2302C29.6228 11.6927 29.6249 12.3204 29.6249 13.2915V13.6665C29.6249 14.2188 30.0726 14.6665 30.6249 14.6665C31.1772 14.6665 31.6249 14.2188 31.6249 13.6665V13.2915L31.6249 13.2256C31.625 12.3392 31.625 11.5754 31.5428 10.9637C31.4546 10.3082 31.2559 9.67985 30.7462 9.17019C30.2366 8.66053 29.6082 8.46178 28.9527 8.37365C28.341 8.29141 27.5772 8.29146 26.6908 8.29151L26.6249 8.29151H8.37492Z" fill="white"/>
<rect x="23" y="14" width="12" height="17" rx="2" stroke="#C54647" stroke-width="1.5" stroke-linecap="round" stroke-linejoin="round"/>
<circle cx="29" cy="17" r="1" fill="#C54647"/>
<path d="M8 23.9711V16.6187" stroke="#C54647" stroke-width="2" stroke-linecap="round" stroke-linejoin="round"/>
<path d="M12.9243 23.9098L12.9243 14" stroke="#21B3FF" stroke-width="2" stroke-linecap="round" stroke-linejoin="round"/>
<path d="M17.9097 23.9709L17.9097 19.1758" stroke="#BBAE50" stroke-width="2" stroke-linecap="round" stroke-linejoin="round"/>
<g clip-path="url(#clip0_827_10424)">
<path fill-rule="evenodd" clip-rule="evenodd" d="M27.4268 22.6768L26.6768 23.4268C26.5791 23.5244 26.4209 23.5244 26.3232 23.4268C26.2256 23.3291 26.2256 23.1709 26.3232 23.0732L27.0732 22.3232C27.1709 22.2256 27.3291 22.2256 27.4268 22.3232C27.5244 22.4209 27.5244 22.5791 27.4268 22.6768ZM29 23C27.8954 23 27 23.8954 27 25C27 26.1046 27.8954 27 29 27C30.1046 27 31 26.1046 31 25C31 23.8954 30.1046 23 29 23ZM26.5 25C26.5 23.6193 27.6193 22.5 29 22.5C30.3807 22.5 31.5 23.6193 31.5 25C31.5 26.3807 30.3807 27.5 29 27.5C27.6193 27.5 26.5 26.3807 26.5 25ZM31.3232 23.4268L30.5732 22.6768C30.4756 22.5791 30.4756 22.4209 30.5732 22.3232C30.6709 22.2256 30.8291 22.2256 30.9268 22.3232L31.6768 23.0732C31.7744 23.1709 31.7744 23.3291 31.6768 23.4268C31.5791 23.5244 31.4209 23.5244 31.3232 23.4268Z" fill="#21B3FF"/>
</g>
<path d="M28 24.75L28.5 25.25L29.75 24" stroke="#BBAE50" stroke-width="0.5" stroke-linecap="round" stroke-linejoin="round"/>
<defs>
<clipPath id="clip0_827_10424">
<rect width="6" height="6" fill="white" transform="translate(26 22)"/>
</clipPath>
</defs>
</svg>
