<svg width="40" height="40" viewBox="0 0 40 40" fill="none" xmlns="http://www.w3.org/2000/svg">
<path fill-rule="evenodd" clip-rule="evenodd" d="M12.8334 7.25L12.7628 7.25H12.7628C11.4087 7.24997 10.2921 7.24994 9.40831 7.36875C8.48048 7.4935 7.66106 7.76547 7.00495 8.42158C6.34884 9.07768 6.07687 9.89711 5.95213 10.8249C5.83331 11.7087 5.83334 12.8253 5.83338 14.1794V14.1794L5.83338 14.25V22.0833L5.83338 22.1539C5.83334 23.508 5.83331 24.6246 5.95213 25.5084C6.07687 26.4362 6.34884 27.2557 7.00495 27.9118C7.66106 28.5679 8.48048 28.8398 9.40831 28.9646C10.2921 29.0834 11.4087 29.0834 12.7628 29.0833H12.8334H20V32.75H16.75C16.1978 32.75 15.75 33.1977 15.75 33.75C15.75 34.3023 16.1978 34.75 16.75 34.75H21H25.25C25.8023 34.75 26.25 34.3023 26.25 33.75C26.25 33.1977 25.8023 32.75 25.25 32.75H22V29.0833H29.1667H29.2373C30.5914 29.0834 31.708 29.0834 32.5918 28.9646C33.5196 28.8398 34.339 28.5679 34.9951 27.9118C35.6512 27.2557 35.9232 26.4362 36.048 25.5084C36.1668 24.6246 36.1667 23.508 36.1667 22.1539V22.1539V22.0833V14.25V14.1795V14.1794C36.1667 12.8253 36.1668 11.7087 36.048 10.8249C35.9232 9.89711 35.6512 9.07768 34.9951 8.42158C34.339 7.76547 33.5196 7.4935 32.5918 7.36875C31.708 7.24994 30.5914 7.24997 29.2373 7.25L29.1667 7.25H12.8334ZM21 27.0833H29.1667C30.6092 27.0833 31.5905 27.0812 32.3253 26.9824C33.0313 26.8875 33.3584 26.7201 33.5809 26.4976C33.8035 26.275 33.9709 25.948 34.0658 25.2419C34.1646 24.5071 34.1667 23.5258 34.1667 22.0833V14.25C34.1667 12.8075 34.1646 11.8263 34.0658 11.0914C33.9709 10.3854 33.8035 10.0584 33.5809 9.83579C33.3584 9.61322 33.0313 9.44585 32.3253 9.35092C31.5905 9.25213 30.6092 9.25 29.1667 9.25H12.8334C11.3909 9.25 10.4096 9.25213 9.67481 9.35092C8.96876 9.44585 8.64173 9.61322 8.41916 9.83579C8.19659 10.0584 8.02922 10.3854 7.93429 11.0914C7.8355 11.8263 7.83338 12.8075 7.83338 14.25V22.0833C7.83338 23.5258 7.8355 24.5071 7.93429 25.2419C8.02922 25.948 8.19659 26.275 8.41916 26.4976C8.64173 26.7201 8.96876 26.8875 9.67481 26.9824C10.4096 27.0812 11.3909 27.0833 12.8334 27.0833H21Z" fill="white"/>
<path d="M11 25V18" stroke="#C54647" stroke-width="2" stroke-linecap="round" stroke-linejoin="round"/>
<path d="M15 25L15 16" stroke="#21B3FF" stroke-width="2" stroke-linecap="round" stroke-linejoin="round"/>
<path d="M20 25L20 21" stroke="#E4D256" stroke-width="2" stroke-linecap="round" stroke-linejoin="round"/>
<path fill-rule="evenodd" clip-rule="evenodd" d="M27.4548 11.3045C27.1589 11.2104 26.8411 11.2104 26.5452 11.3045C26.3754 11.3585 26.2332 11.4459 26.0996 11.5447C25.9739 11.6378 25.8318 11.7596 25.6684 11.8996L25.6559 11.9103L25.6036 11.9552C25.4885 12.0538 25.4651 12.0726 25.4434 12.0866C25.3816 12.1266 25.3117 12.1524 25.2387 12.1623C25.2132 12.1658 25.1827 12.1668 25.0296 12.1668L24.9663 12.1668C24.6804 12.1664 24.434 12.1661 24.2205 12.2303C23.7383 12.3754 23.361 12.7526 23.216 13.2349C23.1518 13.4484 23.152 13.693 23.1524 13.9763L23.1524 14.0387C23.1524 14.1862 23.1514 14.2153 23.1482 14.2403C23.1385 14.3135 23.1128 14.3837 23.0728 14.4459C23.0591 14.467 23.041 14.4899 22.9457 14.6024L22.8977 14.6591L22.887 14.6717L22.887 14.6717C22.7471 14.8367 22.6254 14.9804 22.5325 15.1076C22.4339 15.2427 22.347 15.3865 22.294 15.5581C22.2052 15.8461 22.2052 16.1542 22.294 16.4422C22.347 16.6138 22.4339 16.7576 22.5325 16.8927C22.6254 17.0199 22.7471 17.1635 22.887 17.3286L22.8977 17.3412L22.9457 17.3979C23.041 17.5104 23.0591 17.5333 23.0728 17.5544C23.1128 17.6165 23.1385 17.6868 23.1482 17.76C23.1514 17.7849 23.1524 17.8141 23.1524 17.9616L23.1524 18.024C23.152 18.3072 23.1518 18.5519 23.216 18.7654C23.361 19.2476 23.7383 19.6249 24.2205 19.7699C24.434 19.8342 24.6804 19.8339 24.9663 19.8335L24.9663 19.8335L25.0296 19.8335C25.1827 19.8335 25.2132 19.8345 25.2387 19.838C25.3117 19.8478 25.3816 19.8737 25.4434 19.9137C25.4651 19.9277 25.4885 19.9465 25.6036 20.0451L25.6559 20.0899L25.6684 20.1006L25.6684 20.1006C25.8318 20.2407 25.9739 20.3625 26.0996 20.4555C26.2332 20.5544 26.3754 20.6418 26.5452 20.6958C26.8411 20.7899 27.1589 20.7899 27.4548 20.6958C27.6246 20.6418 27.7668 20.5544 27.9004 20.4555C28.0261 20.3625 28.1683 20.2407 28.3316 20.1006L28.3441 20.0899L28.3993 20.0426C28.5113 19.9467 28.534 19.9284 28.5551 19.9147C28.6178 19.8738 28.6889 19.8475 28.7631 19.8377C28.7881 19.8345 28.8172 19.8335 28.9647 19.8335L29.0265 19.8335C29.3073 19.8339 29.5498 19.8341 29.7617 19.771C30.2468 19.6265 30.6263 19.2469 30.7709 18.7618C30.834 18.55 30.8337 18.3075 30.8334 18.0266L30.8333 17.9648C30.8333 17.8174 30.8343 17.7882 30.8376 17.7633C30.8474 17.689 30.8737 17.6179 30.9146 17.5552C30.9283 17.5342 30.9465 17.5114 31.0425 17.3995L31.0898 17.3442L31.1006 17.3317C31.2406 17.1684 31.3624 17.0262 31.4554 16.9005C31.5543 16.7669 31.6416 16.6248 31.6957 16.4549C31.7898 16.159 31.7898 15.8412 31.6957 15.5454C31.6416 15.3755 31.5543 15.2334 31.4554 15.0998C31.3624 14.974 31.2406 14.8319 31.1006 14.6686L31.1006 14.6686L31.0898 14.6561L31.0425 14.6008C30.9465 14.4889 30.9283 14.4661 30.9146 14.4451C30.8737 14.3823 30.8474 14.3112 30.8376 14.237C30.8343 14.2121 30.8333 14.1829 30.8333 14.0355L30.8334 13.9736C30.8337 13.6928 30.834 13.4503 30.7709 13.2385C30.6263 12.7533 30.2468 12.3738 29.7617 12.2293C29.5498 12.1662 29.3073 12.1664 29.0265 12.1668L28.9647 12.1668C28.8172 12.1668 28.7881 12.1658 28.7631 12.1625C28.6889 12.1528 28.6178 12.1265 28.5551 12.0856C28.534 12.0719 28.5113 12.0536 28.3993 11.9577L28.3441 11.9103L28.3316 11.8996L28.3316 11.8996C28.1682 11.7596 28.0261 11.6378 27.9004 11.5447C27.7668 11.4459 27.6246 11.3585 27.4548 11.3045ZM26.8484 12.2574C26.947 12.226 27.053 12.226 27.1516 12.2574C27.1752 12.2649 27.2168 12.2829 27.3056 12.3486C27.399 12.4178 27.5139 12.5158 27.6933 12.6696L27.7485 12.7169L27.7659 12.7318C27.8509 12.8048 27.9258 12.8691 28.0088 12.9231C28.1969 13.0459 28.4102 13.1248 28.6329 13.154C28.731 13.1669 28.8297 13.1669 28.9418 13.1668L28.9647 13.1668C29.3434 13.1668 29.4239 13.1721 29.4761 13.1876C29.6378 13.2358 29.7643 13.3623 29.8125 13.524C29.8281 13.5763 29.8333 13.6568 29.8333 14.0355L29.8333 14.0584C29.8333 14.1704 29.8332 14.2691 29.8461 14.3673C29.8754 14.59 29.9543 14.8033 30.077 14.9914C30.1311 15.0743 30.1954 15.1492 30.2683 15.2343L30.2832 15.2516L30.3306 15.3068C30.4843 15.4863 30.5824 15.6011 30.6515 15.6946C30.7172 15.7834 30.7352 15.8249 30.7427 15.8485C30.7741 15.9472 30.7741 16.0531 30.7427 16.1517C30.7352 16.1754 30.7172 16.2169 30.6515 16.3057C30.5824 16.3992 30.4843 16.514 30.3306 16.6934L30.2832 16.7487L30.2683 16.766L30.2683 16.766C30.1954 16.8511 30.1311 16.926 30.077 17.0089C29.9543 17.197 29.8754 17.4103 29.8461 17.633C29.8332 17.7312 29.8333 17.8298 29.8333 17.9419L29.8333 17.9648C29.8333 18.3435 29.8281 18.424 29.8125 18.4762C29.7643 18.638 29.6378 18.7645 29.4761 18.8127C29.4239 18.8282 29.3434 18.8335 28.9647 18.8335L28.9418 18.8335C28.8297 18.8334 28.731 18.8334 28.6329 18.8463C28.4102 18.8755 28.1969 18.9544 28.0088 19.0771C27.9258 19.1312 27.8509 19.1955 27.7659 19.2685L27.7659 19.2685L27.7485 19.2833L27.6933 19.3307C27.5139 19.4845 27.399 19.5825 27.3056 19.6517C27.2168 19.7174 27.1752 19.7353 27.1516 19.7429C27.053 19.7742 26.947 19.7742 26.8484 19.7429C26.8248 19.7353 26.7832 19.7174 26.6944 19.6517C26.601 19.5825 26.4861 19.4845 26.3067 19.3307L26.2544 19.2859L26.2366 19.2706C26.1491 19.1955 26.0721 19.1294 25.9866 19.0741C25.8012 18.9541 25.5915 18.8766 25.3726 18.847C25.2717 18.8333 25.1696 18.8334 25.0534 18.8335L25.0296 18.8335C24.6435 18.8335 24.561 18.8281 24.5084 18.8123C24.3477 18.764 24.2219 18.6382 24.1736 18.4775C24.1578 18.4248 24.1524 18.3436 24.1524 17.9616L24.1524 17.9387C24.1525 17.8266 24.1525 17.7279 24.1396 17.6297C24.1107 17.4099 24.0335 17.1993 23.9135 17.0129C23.8598 16.9296 23.796 16.8543 23.7234 16.7688L23.7086 16.7514L23.6606 16.6947C23.507 16.5134 23.4091 16.3974 23.3402 16.3031C23.2748 16.2135 23.257 16.1715 23.2496 16.1475C23.22 16.0515 23.22 15.9488 23.2496 15.8528C23.257 15.8288 23.2748 15.7868 23.3402 15.6972C23.4091 15.6029 23.507 15.4869 23.6606 15.3055L23.7086 15.2489L23.7234 15.2314L23.7234 15.2314C23.796 15.1459 23.8598 15.0707 23.9135 14.9874C24.0335 14.801 24.1107 14.5904 24.1396 14.3706C24.1525 14.2724 24.1525 14.1737 24.1524 14.0616L24.1524 14.0387C24.1524 13.6567 24.1578 13.5755 24.1736 13.5228C24.2219 13.3621 24.3477 13.2363 24.5084 13.188C24.561 13.1722 24.6435 13.1668 25.0296 13.1668L25.0534 13.1668C25.1696 13.1669 25.2717 13.1669 25.3726 13.1533C25.5915 13.1237 25.8012 13.0462 25.9866 12.9262C26.0721 12.8709 26.1491 12.8048 26.2366 12.7297L26.2544 12.7144L26.3067 12.6696C26.4861 12.5158 26.601 12.4178 26.6944 12.3486C26.7832 12.2829 26.8248 12.2649 26.8484 12.2574ZM29.0203 15.1037C29.2156 14.9084 29.2156 14.5919 29.0203 14.3966C28.8251 14.2013 28.5085 14.2013 28.3132 14.3966L26.5834 16.1264L26.1036 15.6466C25.9084 15.4513 25.5918 15.4513 25.3965 15.6466C25.2013 15.8418 25.2013 16.1584 25.3965 16.3537L26.2299 17.187C26.3236 17.2808 26.4508 17.3335 26.5834 17.3335C26.716 17.3335 26.8432 17.2808 26.937 17.187L29.0203 15.1037Z" fill="#21B3FF"/>
</svg>
