<svg width="40" height="40" viewBox="0 0 40 40" fill="none" xmlns="http://www.w3.org/2000/svg">
<g clip-path="url(#clip0_827_10384)">
<path fill-rule="evenodd" clip-rule="evenodd" d="M11.0592 6.54151C11.081 6.54151 11.103 6.54151 11.125 6.54151H27.875L27.9408 6.54151C28.8273 6.54146 29.5911 6.54141 30.2028 6.62365C30.8583 6.71178 31.4867 6.91053 31.9963 7.42019C32.506 7.92985 32.7047 8.5582 32.7929 9.21372C32.8751 9.82538 32.8751 10.5892 32.875 11.4757L32.875 11.5415V12.6665C32.875 13.2188 32.4273 13.6665 31.875 13.6665C31.3227 13.6665 30.875 13.2188 30.875 12.6665V11.5415C30.875 10.5704 30.8729 9.94272 30.8107 9.48021C30.7524 9.04647 30.6582 8.91053 30.5821 8.8344C30.506 8.75828 30.37 8.66413 29.9363 8.60581C29.4738 8.54363 28.8461 8.54151 27.875 8.54151H11.125C10.1539 8.54151 9.52622 8.54363 9.06371 8.60581C8.62997 8.66413 8.49402 8.75828 8.4179 8.8344C8.34177 8.91053 8.24763 9.04647 8.18931 9.48021C8.12713 9.94272 8.125 10.5704 8.125 11.5415V28.0415C8.125 28.5938 7.67729 29.0415 7.125 29.0415C6.57272 29.0415 6.125 28.5938 6.125 28.0415V11.5415C6.125 11.5195 6.125 11.4975 6.125 11.4757C6.12495 10.5892 6.12491 9.82538 6.20715 9.21372C6.29528 8.5582 6.49402 7.92985 7.00368 7.42019C7.51335 6.91053 8.1417 6.71178 8.79721 6.62365C9.40887 6.54141 10.1727 6.54146 11.0592 6.54151Z" fill="white"/>
<path d="M17.1666 19.1665H21.25V23.2498H17.1666V19.1665Z" fill="white"/>
<path d="M10.75 19.1665H14.8333V23.2498H10.75V19.1665Z" fill="#E4D256"/>
<path d="M17.1666 12.75H21.25V16.8333H19.2083H17.1666V12.75Z" fill="#21B3FF"/>
<path d="M10.75 12.75H14.8333V16.8333H10.75V12.75Z" fill="#C54647"/>
<path d="M24.2 32H5.55555C3.59187 32 2 30.4081 2 28.4444V28.4444C2 28.199 2.19898 28 2.44444 28H22.8" stroke="white" stroke-width="2" stroke-linecap="round" stroke-linejoin="round"/>
<path d="M25.5121 13.042C24.8509 13.1538 24.3593 13.4242 23.8677 13.965C23.4608 14.4033 23.2404 14.8135 23.0963 15.3916L23.0116 15.7273L23.0031 21.993C22.9946 28.9021 22.9861 28.6037 23.232 29.1632C23.4608 29.676 23.9779 30.1608 24.4695 30.3193L24.6729 30.3846L24.6814 32.2028C24.6899 34.0117 24.6899 34.021 24.7831 34.2168C24.9103 34.4965 25.1476 34.7576 25.4019 34.8881L25.6223 35H29.6486H33.6748L33.8868 34.8881C34.175 34.7389 34.353 34.5618 34.4971 34.2821L34.6073 34.0583L34.6157 32.2214L34.6242 30.3846L34.7853 30.3287C35.4718 30.1329 36.0737 29.4336 36.2432 28.6503C36.328 28.2494 36.328 16.0909 36.2432 15.6061C36.0059 14.2634 34.9887 13.2098 33.7511 13.042C33.3782 12.986 25.8512 12.986 25.5121 13.042ZM33.8952 13.9557C34.2343 14.049 34.5564 14.2354 34.8192 14.5058C35.1074 14.7855 35.2769 15.0839 35.404 15.5035L35.5057 15.8298L35.4973 22.1888L35.4888 28.5478L35.3956 28.7343C35.2684 29.0047 35.065 29.2284 34.8361 29.3683L34.6327 29.4895L29.7333 29.4988C24.8509 29.5082 24.834 29.5082 24.6221 29.4149C24.3593 29.303 24.0626 29.014 23.9355 28.7063L23.8338 28.4918V22.1329C23.8338 16.0256 23.8338 15.7552 23.9101 15.5315C24.1644 14.7016 24.7747 14.1049 25.5206 13.9371C25.6053 13.9184 27.4701 13.8998 29.6655 13.8998C33.0476 13.8904 33.6833 13.9091 33.8952 13.9557ZM27.1735 32.2681V34.1142H26.4615H25.7494L25.6138 33.965L25.4782 33.8159V32.1096V30.4033H26.3174H27.1565L27.1735 32.2681ZM33.8613 32.0536C33.8613 33.4802 33.8529 33.7133 33.802 33.8438C33.6748 34.1329 33.802 34.1235 30.7505 34.1235H27.9957V32.2774V30.4312H30.9285H33.8613V32.0536Z" fill="#C54647"/>
<path d="M25.5035 14.9253C25.122 15.0651 24.8423 15.4008 24.7236 15.8204C24.6728 16.0069 24.6643 16.2679 24.6728 17.219C24.6897 18.3099 24.6897 18.4031 24.766 18.5896C24.8847 18.8787 25.1051 19.1211 25.3594 19.2609L25.5798 19.3821H29.6484H33.7171L33.8951 19.2889C34.1494 19.1584 34.3867 18.9066 34.5054 18.6549L34.6071 18.4311L34.6156 17.191C34.6325 15.7085 34.6156 15.6525 34.2765 15.2609C34.1155 15.0838 33.9968 14.9905 33.8273 14.9253C33.6069 14.832 33.5815 14.832 29.6399 14.832C25.9697 14.8414 25.6899 14.8507 25.5035 14.9253ZM33.6577 15.8111C33.8357 15.9509 33.8612 16.1001 33.8612 17.1164C33.8612 18.1327 33.8357 18.2912 33.6577 18.4218C33.573 18.487 33.2085 18.487 29.6823 18.487C26.758 18.487 25.7747 18.4777 25.6984 18.4311C25.495 18.3285 25.4865 18.2353 25.4865 17.0978C25.4865 15.9789 25.5035 15.9043 25.69 15.7924C25.7662 15.7458 26.5206 15.7365 29.6738 15.7365C33.217 15.7458 33.5815 15.7458 33.6577 15.8111Z" fill="#21B3FF"/>
<path d="M25.7325 21.3126C25.4697 21.4431 25.4358 21.8627 25.6732 22.0678C25.7664 22.1424 25.8257 22.1517 26.3004 22.1517C26.9955 22.1517 27.1311 22.0771 27.1311 21.7042C27.1311 21.5923 27.0972 21.5084 27.0209 21.4151L26.9107 21.2753L26.3852 21.2659C25.9868 21.2566 25.8257 21.2659 25.7325 21.3126Z" fill="#BBAE50"/>
<path d="M29.1062 21.2936C28.9028 21.3869 28.7926 21.7225 28.8943 21.9463C28.979 22.1142 29.1316 22.1608 29.6911 22.1608C30.1996 22.1608 30.2251 22.1608 30.3353 22.0489C30.4878 21.909 30.5217 21.7412 30.4455 21.5361C30.3607 21.303 30.2081 21.2563 29.6487 21.2563C29.3944 21.2563 29.1486 21.275 29.1062 21.2936Z" fill="#BBAE50"/>
<path d="M32.4286 21.2943C32.293 21.3502 32.1743 21.546 32.1743 21.7139C32.1743 21.8258 32.2082 21.9004 32.3099 22.0122L32.4456 22.1614H33.005H33.5644L33.7001 22.0122C33.912 21.7791 33.8696 21.4715 33.5983 21.3223C33.4627 21.2477 32.5727 21.229 32.4286 21.2943Z" fill="#BBAE50"/>
<path d="M25.7325 24.0719C25.58 24.1465 25.4782 24.3889 25.5121 24.5754C25.5291 24.6407 25.5884 24.7433 25.6562 24.8085C25.7664 24.9111 25.7919 24.9204 26.3005 24.9204C26.9955 24.9204 27.1396 24.8458 27.1396 24.4729C27.1396 24.361 27.1057 24.2771 27.0294 24.1838L26.9192 24.044L26.3937 24.0346C25.9868 24.0067 25.8258 24.0253 25.7325 24.0719Z" fill="#BBAE50"/>
<path d="M29.0635 24.0716C28.9278 24.1462 28.8516 24.2861 28.8516 24.4819C28.8516 24.8269 29.0041 24.9108 29.6653 24.9108C30.2332 24.9108 30.3265 24.8735 30.4366 24.6404C30.496 24.4912 30.5045 24.4632 30.4536 24.314C30.3688 24.0623 30.2163 24.0063 29.6568 24.0063C29.3178 24.0063 29.1567 24.025 29.0635 24.0716Z" fill="#BBAE50"/>
<path d="M32.4286 24.0531C32.293 24.109 32.1743 24.3048 32.1743 24.4727C32.1743 24.5845 32.2082 24.6591 32.3099 24.771L32.4456 24.9202H33.005H33.5644L33.7001 24.771C33.912 24.5379 33.8696 24.2302 33.5983 24.081C33.4627 23.9971 32.5727 23.9785 32.4286 24.0531Z" fill="#BBAE50"/>
<path d="M25.7327 26.8225C25.5801 26.8971 25.4699 27.1396 25.5123 27.3074C25.5208 27.3633 25.5886 27.4659 25.6479 27.5312L25.7581 27.6524H26.2921C26.9957 27.6524 27.1313 27.5778 27.1313 27.2048C27.1313 27.0929 27.0974 27.009 27.0211 26.9158L26.9109 26.7759L26.3854 26.7666C25.987 26.7666 25.8259 26.7759 25.7327 26.8225Z" fill="#BBAE50"/>
<path d="M29.0719 26.8226C28.9109 26.9158 28.86 27.0091 28.8516 27.2049C28.8516 27.5872 28.9872 27.6618 29.6653 27.6618C30.2332 27.6618 30.3265 27.6245 30.4366 27.3914C30.496 27.2422 30.5045 27.2142 30.4536 27.065C30.3688 26.8133 30.2163 26.7573 29.6568 26.7573C29.3093 26.7573 29.1567 26.776 29.0719 26.8226Z" fill="#BBAE50"/>
<path d="M32.4291 26.8041C32.2172 26.8973 32.1239 27.205 32.2341 27.4474C32.3274 27.6339 32.446 27.6712 33.0224 27.6712H33.5564L33.692 27.522C33.904 27.2889 33.8616 26.9812 33.5903 26.832C33.4632 26.7481 32.5732 26.7295 32.4291 26.8041Z" fill="#BBAE50"/>
<path d="M37.3876 17.6573C37.1841 17.7785 37.1926 17.5454 37.1841 23.0746C37.1841 28.6224 37.1757 28.4079 37.3791 28.5291C37.5317 28.613 37.7266 28.5851 37.8622 28.4452L37.9894 28.324V23.0839V17.8438L37.8622 17.7226C37.7181 17.5827 37.5486 17.5548 37.3876 17.6573Z" fill="#21B3FF"/>
</g>
<defs>
<clipPath id="clip0_827_10384">
<rect width="40" height="40" fill="white"/>
</clipPath>
</defs>
</svg>
