<svg width="40" height="40" viewBox="0 0 40 40" fill="none" xmlns="http://www.w3.org/2000/svg">
<g clip-path="url(#clip0_827_10467)">
<path fill-rule="evenodd" clip-rule="evenodd" d="M31.75 27.6001L31.7225 27.6001C31.2745 27.6001 30.8985 27.6001 30.5994 27.6403C30.2827 27.6829 29.9932 27.777 29.76 28.0101C29.5269 28.2433 29.4327 28.5329 29.3902 28.8495C29.3499 29.1486 29.35 29.5247 29.35 29.9727V29.9727L29.35 30.0001V30.7918L29.35 30.8156C29.35 31.2062 29.35 31.5343 29.3811 31.7979C29.414 32.0757 29.4861 32.3335 29.6678 32.5549C29.7259 32.6258 29.7909 32.6908 29.8618 32.749C30.0832 32.9307 30.341 33.0028 30.6188 33.0356C30.8825 33.0668 31.2105 33.0668 31.6012 33.0668H31.6012L31.625 33.0668C31.8459 33.0668 32.025 32.8877 32.025 32.6668C32.025 32.4459 31.8459 32.2668 31.625 32.2668C31.2042 32.2668 30.9239 32.2661 30.7128 32.2412C30.5105 32.2172 30.4246 32.1759 30.3693 32.1306C30.339 32.1056 30.3111 32.0778 30.2862 32.0474C30.2409 31.9922 30.1995 31.9063 30.1756 31.704C30.1506 31.4929 30.15 31.2125 30.15 30.7918V30.0001C30.15 29.5174 30.1508 29.1956 30.183 28.9561C30.2137 28.7282 30.266 28.6356 30.3257 28.5758C30.3855 28.5161 30.478 28.4638 30.706 28.4331C30.9455 28.4009 31.2673 28.4001 31.75 28.4001H35.25C35.7327 28.4001 36.0545 28.4009 36.2939 28.4331C36.5219 28.4638 36.6145 28.5161 36.6742 28.5758C36.734 28.6356 36.7863 28.7282 36.8169 28.9561C36.8491 29.1956 36.85 29.5174 36.85 30.0001V30.7918C36.85 31.2125 36.8493 31.4929 36.8244 31.704C36.8005 31.9063 36.7591 31.9922 36.7138 32.0474C36.6889 32.0778 36.661 32.1056 36.6306 32.1306C36.5754 32.1759 36.4895 32.2172 36.2872 32.2412C36.0761 32.2661 35.7957 32.2668 35.375 32.2668V33.0668L35.3988 33.0668H35.3988C35.7894 33.0668 36.1175 33.0668 36.3811 33.0356C36.6589 33.0028 36.9168 32.9307 37.1381 32.749C37.209 32.6908 37.274 32.6258 37.3322 32.5549C37.5139 32.3335 37.586 32.0757 37.6188 31.7979C37.65 31.5343 37.65 31.2062 37.65 30.8156V30.8155L37.65 30.7918V30.0001L37.65 29.9727C37.65 29.5247 37.65 29.1486 37.6098 28.8495C37.5672 28.5329 37.4731 28.2433 37.2399 28.0101C37.0068 27.777 36.7172 27.6829 36.4005 27.6403C36.1015 27.6001 35.7254 27.6001 35.2774 27.6001L35.25 27.6001H31.75ZM31.625 34.0001L33.5 32.3334L35.375 34.0001H31.625Z" fill="#C54647"/>
<path d="M28.56 26.08C28.3253 26.08 28.0907 26.0613 27.856 26.024C27.6213 25.992 27.4 25.9413 27.192 25.872C26.984 25.7973 26.7973 25.7067 26.632 25.6C26.536 25.536 26.4693 25.4587 26.432 25.368C26.3947 25.2773 26.3813 25.1893 26.392 25.104C26.408 25.0133 26.4427 24.936 26.496 24.872C26.5547 24.8027 26.6267 24.76 26.712 24.744C26.7973 24.728 26.8907 24.752 26.992 24.816C27.2267 24.9547 27.4747 25.056 27.736 25.12C27.9973 25.184 28.272 25.216 28.56 25.216C28.9813 25.216 29.288 25.1467 29.48 25.008C29.672 24.864 29.768 24.68 29.768 24.456C29.768 24.2693 29.6987 24.1227 29.56 24.016C29.4267 23.9093 29.1947 23.8213 28.864 23.752L27.984 23.568C27.4773 23.4613 27.0987 23.2827 26.848 23.032C26.6027 22.776 26.48 22.44 26.48 22.024C26.48 21.7627 26.5333 21.5253 26.64 21.312C26.7467 21.0987 26.896 20.9147 27.088 20.76C27.2853 20.6053 27.5173 20.488 27.784 20.408C28.056 20.3227 28.3547 20.28 28.68 20.28C29 20.28 29.304 20.32 29.592 20.4C29.88 20.48 30.1387 20.5973 30.368 20.752C30.4533 20.8107 30.5093 20.8827 30.536 20.968C30.568 21.0533 30.576 21.1387 30.56 21.224C30.544 21.304 30.5067 21.3733 30.448 21.432C30.3893 21.4907 30.3147 21.5253 30.224 21.536C30.1387 21.5467 30.04 21.52 29.928 21.456C29.7307 21.344 29.5307 21.264 29.328 21.216C29.1253 21.168 28.9067 21.144 28.672 21.144C28.4267 21.144 28.216 21.1787 28.04 21.248C27.864 21.3173 27.728 21.416 27.632 21.544C27.5413 21.6667 27.496 21.8133 27.496 21.984C27.496 22.176 27.56 22.3307 27.688 22.448C27.816 22.56 28.0347 22.648 28.344 22.712L29.216 22.896C29.744 23.008 30.136 23.184 30.392 23.424C30.6533 23.664 30.784 23.984 30.784 24.384C30.784 24.64 30.7307 24.872 30.624 25.08C30.5227 25.288 30.3733 25.4667 30.176 25.616C29.984 25.7653 29.752 25.88 29.48 25.96C29.208 26.04 28.9013 26.08 28.56 26.08Z" fill="#C54647"/>
<path d="M32.1749 26.064C32.0095 26.064 31.8815 26.0187 31.7909 25.928C31.7055 25.832 31.6629 25.7013 31.6629 25.536V20.824C31.6629 20.6533 31.7055 20.5227 31.7909 20.432C31.8815 20.3413 32.0095 20.296 32.1749 20.296C32.3402 20.296 32.4655 20.3413 32.5509 20.432C32.6415 20.5227 32.6869 20.6533 32.6869 20.824V25.536C32.6869 25.7013 32.6442 25.832 32.5589 25.928C32.4735 26.0187 32.3455 26.064 32.1749 26.064Z" fill="#21B3FF"/>
<path d="M35.8647 26.08C35.63 26.08 35.3954 26.0613 35.1607 26.024C34.926 25.992 34.7047 25.9413 34.4967 25.872C34.2887 25.7973 34.102 25.7067 33.9367 25.6C33.8407 25.536 33.774 25.4587 33.7367 25.368C33.6994 25.2773 33.686 25.1893 33.6967 25.104C33.7127 25.0133 33.7474 24.936 33.8007 24.872C33.8594 24.8027 33.9314 24.76 34.0167 24.744C34.102 24.728 34.1954 24.752 34.2967 24.816C34.5314 24.9547 34.7794 25.056 35.0407 25.12C35.302 25.184 35.5767 25.216 35.8647 25.216C36.286 25.216 36.5927 25.1467 36.7847 25.008C36.9767 24.864 37.0727 24.68 37.0727 24.456C37.0727 24.2693 37.0034 24.1227 36.8647 24.016C36.7314 23.9093 36.4994 23.8213 36.1687 23.752L35.2887 23.568C34.782 23.4613 34.4034 23.2827 34.1527 23.032C33.9074 22.776 33.7847 22.44 33.7847 22.024C33.7847 21.7627 33.838 21.5253 33.9447 21.312C34.0514 21.0987 34.2007 20.9147 34.3927 20.76C34.59 20.6053 34.822 20.488 35.0887 20.408C35.3607 20.3227 35.6594 20.28 35.9847 20.28C36.3047 20.28 36.6087 20.32 36.8967 20.4C37.1847 20.48 37.4434 20.5973 37.6727 20.752C37.758 20.8107 37.814 20.8827 37.8407 20.968C37.8727 21.0533 37.8807 21.1387 37.8647 21.224C37.8487 21.304 37.8114 21.3733 37.7527 21.432C37.694 21.4907 37.6194 21.5253 37.5287 21.536C37.4434 21.5467 37.3447 21.52 37.2327 21.456C37.0354 21.344 36.8354 21.264 36.6327 21.216C36.43 21.168 36.2114 21.144 35.9767 21.144C35.7314 21.144 35.5207 21.1787 35.3447 21.248C35.1687 21.3173 35.0327 21.416 34.9367 21.544C34.846 21.6667 34.8007 21.8133 34.8007 21.984C34.8007 22.176 34.8647 22.3307 34.9927 22.448C35.1207 22.56 35.3394 22.648 35.6487 22.712L36.5207 22.896C37.0487 23.008 37.4407 23.184 37.6967 23.424C37.958 23.664 38.0887 23.984 38.0887 24.384C38.0887 24.64 38.0354 24.872 37.9287 25.08C37.8274 25.288 37.678 25.4667 37.4807 25.616C37.2887 25.7653 37.0567 25.88 36.7847 25.96C36.5127 26.04 36.206 26.08 35.8647 26.08Z" fill="#E4D256"/>
<path d="M16.2471 5.03331C15.9084 5.08348 15.4318 5.234 15.0304 5.44723C14.6541 5.63538 14.1649 6.11201 8.63344 11.6435L2.63787 17.6391L2.39955 18.1283C2.08597 18.768 1.96054 19.3324 2.01071 19.9846C2.11106 21.5023 3.08942 22.8319 4.46915 23.2834C5.17156 23.5092 5.49768 23.7475 5.63566 24.0987C5.67329 24.2116 5.69837 25.4283 5.69837 27.7362C5.69837 30.4832 5.71091 31.2985 5.77363 31.5995C6.02449 32.7911 6.73944 33.7193 7.8056 34.2335C8.48293 34.5597 8.88431 34.6098 10.7407 34.6098C11.6438 34.6098 12.5218 34.5847 12.6974 34.5471C13.6381 34.3715 14.3907 33.7193 14.7921 32.7409C14.9175 32.4399 14.9175 32.3521 14.9426 29.1912C14.9677 26.0178 14.9802 25.9426 15.0931 25.7795C15.3941 25.3907 15.3941 25.3781 16.799 25.3781C18.1912 25.3781 18.2038 25.3781 18.5048 25.7795C18.6177 25.93 18.6303 26.0178 18.6553 29.1536C18.6804 31.5619 18.7055 32.4273 18.7557 32.6029C19.0693 33.5813 19.9222 34.359 20.9005 34.5346C21.4148 34.6349 24.4126 34.6098 24.9394 34.4969C26.0307 34.2712 27.009 33.5311 27.4731 32.5653C27.887 31.7249 27.8996 30.2115 27.8996 30.2115C27.8996 30.2115 27.8996 29.6761 27.8996 28.6895C27.8996 27.7029 26.0432 27.5775 26.0432 28.6895C26.0432 29.8015 26.0432 29.7098 26.0432 29.7098V31.3737L25.9052 31.6622C25.7171 32.026 25.3659 32.3772 25.0021 32.5653C24.7136 32.7033 24.7011 32.7033 22.9074 32.7033C21.1765 32.7033 21.1012 32.7033 20.9507 32.5778C20.8629 32.5151 20.7375 32.3897 20.6748 32.3019C20.5493 32.1514 20.5493 32.0636 20.5243 28.6895L20.4992 25.2402L20.2859 24.8012C20.0225 24.2744 19.6964 23.9482 19.1571 23.6974L18.7682 23.5092H16.799H14.8673L14.4785 23.6974C13.8764 23.9859 13.4249 24.4876 13.1991 25.1273C13.1615 25.2402 13.1239 26.507 13.0988 28.7271C13.0737 32.0761 13.0737 32.1514 12.9483 32.3019C12.8855 32.3897 12.7601 32.5151 12.6723 32.5778C12.5218 32.6907 12.4465 32.7033 10.7156 32.7033C8.90939 32.7033 8.90939 32.7033 8.6209 32.5528C8.24461 32.3772 7.90595 32.026 7.73034 31.6622L7.57983 31.3737L7.55474 27.5857L7.51711 23.8228L7.3666 23.4465C7.19099 22.9824 6.76453 22.3803 6.45095 22.1295C6.12483 21.8661 5.63566 21.6654 5.37225 21.6654C5.07122 21.6654 4.59458 21.4271 4.35626 21.1511C4.25592 21.0382 4.1054 20.7999 4.0176 20.6243C3.89217 20.3609 3.86709 20.2229 3.86709 19.7839C3.86709 19.3449 3.89217 19.2195 4.00506 19.0063C4.19321 18.63 15.5447 7.27852 15.946 7.05274C16.2094 6.90223 16.2972 6.88968 16.7864 6.88968C17.2505 6.88968 17.3759 6.91477 17.6017 7.02766C17.7648 7.11546 18.4923 7.78024 19.571 8.87148C21.4023 10.7028 21.465 10.7404 21.8789 10.6024C22.1799 10.5021 22.3054 10.2888 22.343 9.7495C22.3806 9.26032 22.4559 9.08472 22.7695 8.85894C22.92 8.74605 23.0078 8.73351 24.1868 8.73351C25.5791 8.73351 25.5916 8.73351 25.8927 9.13489C26.0056 9.28541 26.0181 9.38575 26.0432 11.8818C26.0808 14.6162 26.0808 14.6664 26.3693 15.3186C26.6703 15.9959 27.3477 16.736 28.765 17.9276C29.618 18.6551 29.7058 18.7554 29.7559 19.069C29.781 19.2446 29.8563 19.37 30.0068 19.5331C30.6089 20.1226 31.5747 19.7087 31.5747 18.8558C31.5747 18.3666 31.374 18.1032 29.7309 16.4475C28.5894 15.2935 28.1504 14.8043 28.0375 14.5911L27.8996 14.3026L27.8745 11.4679L27.8494 8.63317L27.6613 8.24433C27.448 7.79278 27.0341 7.34123 26.6202 7.14054C26.131 6.88968 25.7923 6.85205 23.9736 6.87714C22.0545 6.90223 21.9918 6.91477 21.3521 7.39141L20.9758 7.6799L19.9598 6.67645C19.0316 5.76081 18.8937 5.64792 18.4547 5.42215C17.7648 5.0584 17.0122 4.93297 16.2471 5.03331Z" fill="white"/>
</g>
<defs>
<clipPath id="clip0_827_10467">
<rect width="40" height="40" fill="white"/>
</clipPath>
</defs>
</svg>
