<svg width="24" height="24" viewBox="0 0 24 24" fill="none" xmlns="http://www.w3.org/2000/svg">
<path fill-rule="evenodd" clip-rule="evenodd" d="M7 2.25H6.96421C6.05997 2.24999 5.33069 2.24998 4.7424 2.3033C4.13605 2.35826 3.60625 2.47455 3.125 2.75241C2.55493 3.08154 2.08154 3.55493 1.75241 4.125C1.47456 4.60625 1.35826 5.13605 1.3033 5.7424C1.24998 6.33069 1.24999 7.05996 1.25 7.96419V7.96421V8C1.25 8.41421 1.58579 8.75 2 8.75C2.41421 8.75 2.75 8.41421 2.75 8C2.75 7.05158 2.75072 6.39041 2.79718 5.87779C2.84271 5.37549 2.92737 5.0899 3.05144 4.875C3.24892 4.53296 3.53296 4.24892 3.875 4.05144C4.0899 3.92737 4.37549 3.84271 4.87779 3.79718C5.39041 3.75072 6.05158 3.75 7 3.75V2.25ZM17 3.75C17.9484 3.75 18.6096 3.75072 19.1222 3.79718C19.6245 3.84271 19.9101 3.92737 20.125 4.05144C20.467 4.24892 20.7511 4.53296 20.9486 4.875C21.0726 5.0899 21.1573 5.37549 21.2028 5.87779C21.2493 6.39041 21.25 7.05158 21.25 8H22.75V7.96418C22.75 7.05995 22.75 6.33069 22.6967 5.7424C22.6417 5.13605 22.5254 4.60625 22.2476 4.125C21.9185 3.55493 21.4451 3.08154 20.875 2.75241C20.3937 2.47455 19.8639 2.35826 19.2576 2.3033C18.6693 2.24998 17.94 2.24999 17.0358 2.25H17C16.5858 2.25 16.25 2.58579 16.25 3C16.25 3.41421 16.5858 3.75 17 3.75ZM22.75 16C22.75 15.5858 22.4142 15.25 22 15.25C21.5858 15.25 21.25 15.5858 21.25 16C21.25 16.9484 21.2493 17.6096 21.2028 18.1222C21.1573 18.6245 21.0726 18.9101 20.9486 19.125C20.7511 19.467 20.467 19.7511 20.125 19.9486C19.9101 20.0726 19.6245 20.1573 19.1222 20.2028C18.6096 20.2493 17.9484 20.25 17 20.25V21.75H17.0358C17.94 21.75 18.6693 21.75 19.2576 21.6967C19.8639 21.6417 20.3937 21.5254 20.875 21.2476C21.4451 20.9185 21.9185 20.4451 22.2476 19.875C22.5254 19.3937 22.6417 18.8639 22.6967 18.2576C22.75 17.6693 22.75 16.94 22.75 16.0358V16ZM1.25 16V16.0358V16.0358C1.24999 16.94 1.24998 17.6693 1.3033 18.2576C1.35826 18.8639 1.47456 19.3937 1.75241 19.875C2.08154 20.4451 2.55493 20.9185 3.125 21.2476C3.60625 21.5254 4.13605 21.6417 4.7424 21.6967C5.33069 21.75 6.05995 21.75 6.96418 21.75H7C7.41421 21.75 7.75 21.4142 7.75 21C7.75 20.5858 7.41421 20.25 7 20.25C6.05158 20.25 5.39041 20.2493 4.87779 20.2028C4.37549 20.1573 4.0899 20.0726 3.875 19.9486C3.53296 19.7511 3.24892 19.467 3.05144 19.125C2.92737 18.9101 2.84271 18.6245 2.79718 18.1222C2.75072 17.6096 2.75 16.9484 2.75 16H1.25ZM10 6.25L9.948 6.25C9.04952 6.24997 8.3003 6.24995 7.70552 6.32991C7.07773 6.41432 6.51093 6.59999 6.05546 7.05546C5.59999 7.51093 5.41432 8.07773 5.32991 8.70552C5.24995 9.3003 5.24997 10.0495 5.25 10.948L5.25 11V13L5.25 13.052C5.24997 13.9505 5.24995 14.6997 5.32991 15.2945C5.41432 15.9223 5.59999 16.4891 6.05546 16.9445C6.51093 17.4 7.07773 17.5857 7.70552 17.6701C8.3003 17.7501 9.04951 17.75 9.94797 17.75H9.94801L10 17.75H14L14.052 17.75H14.052C14.9505 17.75 15.6997 17.7501 16.2945 17.6701C16.9223 17.5857 17.4891 17.4 17.9445 16.9445C18.4 16.4891 18.5857 15.9223 18.6701 15.2945C18.7501 14.6997 18.75 13.9505 18.75 13.0521V13.0521V13.052V13.052L18.75 13V11L18.75 10.948V10.948V10.9479V10.9479C18.75 10.0495 18.7501 9.30028 18.6701 8.70552C18.5857 8.07773 18.4 7.51093 17.9445 7.05546C17.4891 6.59999 16.9223 6.41432 16.2945 6.32991C15.6997 6.24995 14.9505 6.24997 14.052 6.25L14 6.25H10ZM6.75181 10.25H17.2482C17.244 9.68056 17.2299 9.25089 17.1835 8.90539C17.1214 8.44393 17.0142 8.24643 16.8839 8.11612C16.7536 7.9858 16.5561 7.87858 16.0946 7.81654C15.6116 7.75159 14.964 7.75 14 7.75H10C9.03599 7.75 8.38843 7.75159 7.90539 7.81654C7.44393 7.87858 7.24643 7.9858 7.11612 8.11612C6.9858 8.24643 6.87858 8.44393 6.81654 8.90539C6.77008 9.25089 6.75604 9.68056 6.75181 10.25Z" fill="white"/>
</svg>
