<svg width="24" height="24" viewBox="0 0 24 24" fill="none" xmlns="http://www.w3.org/2000/svg">
<path fill-rule="evenodd" clip-rule="evenodd" d="M8 2.25H7.94513H7.94511C6.57753 2.24998 5.47521 2.24996 4.60825 2.36652C3.70814 2.48754 2.95027 2.74644 2.34835 3.34835C1.74643 3.95027 1.48754 4.70814 1.36652 5.60825C1.24996 6.47522 1.24998 7.57754 1.25 8.94513V9V15V15.0549V15.0549C1.24998 16.4225 1.24997 17.5248 1.36653 18.3918C1.48754 19.2919 1.74644 20.0497 2.34835 20.6517C2.95027 21.2536 3.70814 21.5125 4.60825 21.6335C5.47522 21.75 6.57754 21.75 7.94513 21.75H8L10 21.75H10.0549C11.4225 21.75 12.5248 21.75 13.3918 21.6335C14.2919 21.5125 15.0497 21.2536 15.6517 20.6517C16.2536 20.0497 16.5125 19.2919 16.6335 18.3918C16.6605 18.1906 16.6813 17.9768 16.6972 17.75L18 17.75L18.052 17.75H18.052C18.9505 17.75 19.6997 17.7501 20.2945 17.6701C20.9223 17.5857 21.4891 17.4 21.9445 16.9445C22.4 16.4891 22.5857 15.9223 22.6701 15.2945C22.7501 14.6997 22.75 13.9505 22.75 13.0521V13.0521V13.052V13.052L22.75 13V11V10.948C22.75 10.0495 22.7501 9.3003 22.6701 8.70552C22.5857 8.07773 22.4 7.51093 21.9445 7.05546C21.4891 6.59999 20.9223 6.41432 20.2945 6.32991C19.6997 6.24994 18.9505 6.24997 18.052 6.25L18 6.25L16.6972 6.25C16.6813 6.02317 16.6605 5.80938 16.6335 5.60825C16.5125 4.70814 16.2536 3.95027 15.6517 3.34835C15.0497 2.74643 14.2919 2.48754 13.3918 2.36652C12.5248 2.24996 11.4225 2.24998 10.0549 2.25H10H8ZM16.7466 7.75C16.75 8.12352 16.75 8.52159 16.75 8.9451V8.94513V9V9.25L21.2178 9.25C21.209 9.12607 21.1978 9.01174 21.1835 8.90539C21.1214 8.44393 21.0142 8.24643 20.8839 8.11612C20.7536 7.9858 20.5561 7.87858 20.0946 7.81653C19.6116 7.75159 18.964 7.75 18 7.75L16.7466 7.75ZM21.2499 10.75L16.75 10.75L16.75 15V15.0549V15.0549C16.75 15.4784 16.75 15.8765 16.7466 16.25L18 16.25C18.964 16.25 19.6116 16.2484 20.0946 16.1835C20.5561 16.1214 20.7536 16.0142 20.8839 15.8839C21.0142 15.7536 21.1214 15.5561 21.1835 15.0946C21.2484 14.6116 21.25 13.964 21.25 13V11L21.2499 10.75ZM5 8C5 7.53501 5 7.30252 5.05111 7.11177C5.18981 6.59413 5.59413 6.18981 6.11177 6.05111C6.30252 6 6.53501 6 7 6L11 6C11.465 6 11.6975 6 11.8882 6.05111C12.4059 6.18981 12.8102 6.59413 12.9489 7.11177C13 7.30252 13 7.53501 13 8C13 8.46498 13 8.69747 12.9489 8.88822C12.8102 9.40586 12.4059 9.81018 11.8882 9.94888C11.6975 10 11.465 10 11 10L7 10H6.99998C6.53501 10 6.30252 10 6.11177 9.94889C5.59413 9.81019 5.18981 9.40586 5.05111 8.88823C5 8.69748 5 8.46499 5 8V8ZM6 15C6.55228 15 7 14.5523 7 14C7 13.4477 6.55228 13 6 13C5.44771 13 5 13.4477 5 14C5 14.5523 5.44771 15 6 15ZM7 17C7 17.5523 6.55228 18 6 18C5.44771 18 5 17.5523 5 17C5 16.4477 5.44771 16 6 16C6.55228 16 7 16.4477 7 17ZM9 15C9.55228 15 10 14.5523 10 14C10 13.4477 9.55228 13 9 13C8.44771 13 8 13.4477 8 14C8 14.5523 8.44771 15 9 15ZM10 17C10 17.5523 9.55228 18 9 18C8.44771 18 8 17.5523 8 17C8 16.4477 8.44771 16 9 16C9.55228 16 10 16.4477 10 17ZM12 15C12.5523 15 13 14.5523 13 14C13 13.4477 12.5523 13 12 13C11.4477 13 11 13.4477 11 14C11 14.5523 11.4477 15 12 15ZM13 17C13 17.5523 12.5523 18 12 18C11.4477 18 11 17.5523 11 17C11 16.4477 11.4477 16 12 16C12.5523 16 13 16.4477 13 17Z" fill="#103067"/>
</svg>
