<svg width="24" height="24" viewBox="0 0 24 24" fill="none" xmlns="http://www.w3.org/2000/svg">
<path fill-rule="evenodd" clip-rule="evenodd" d="M6.00002 11.1413C6.00002 8.91243 6.00002 7.79798 6.3817 6.77967C6.39852 6.73478 6.41588 6.69009 6.43378 6.64562C6.83975 5.63674 7.59218 4.81464 9.09703 3.17045L9.09704 3.17044C10.4309 1.7131 11.0978 0.98443 11.9464 0.961657C11.9821 0.960698 12.0179 0.960698 12.0537 0.961657C12.9022 0.98443 13.5692 1.7131 14.903 3.17044L14.903 3.17044L14.903 3.17045C16.4079 4.81464 17.1603 5.63674 17.5663 6.64561C17.5842 6.69009 17.6015 6.73477 17.6183 6.77966C18 7.79798 18 8.91243 18 11.1413V12.4776C18.4506 12.5943 18.8408 12.7035 19.1758 12.8206C19.7115 13.0078 20.1658 13.234 20.5533 13.5943C20.8449 13.8654 21.0915 14.1812 21.2837 14.5298C21.5393 14.9932 21.6486 15.4887 21.7003 16.0539C21.75 16.5982 21.75 17.2651 21.75 18.0863V18.0864V18.1216V19.9984C21.75 20.2294 21.6436 20.4475 21.4616 20.5896C21.2795 20.7317 21.0422 20.7821 20.8181 20.7261L17.7591 19.9613C17.6292 20.4385 17.4292 20.8121 17.1213 21.12C16.324 21.9173 15.0858 21.9911 12.75 21.998L12.75 17.9984C12.75 17.5842 12.4142 17.2484 12 17.2484C11.5858 17.2484 11.25 17.5842 11.25 17.9984L11.25 21.998C8.9143 21.9911 7.67602 21.9173 6.8787 21.12C6.57082 20.8121 6.37082 20.4385 6.2409 19.9613L3.1819 20.7261C2.95785 20.7821 2.72048 20.7317 2.53844 20.5896C2.3564 20.4475 2.25 20.2294 2.25 19.9984V18.1216V18.0864C2.24999 17.2652 2.24998 16.5982 2.29974 16.0539C2.3514 15.4887 2.46074 14.9932 2.71625 14.5298C2.90853 14.1812 3.1551 13.8654 3.44671 13.5943C3.83422 13.234 4.28849 13.0078 4.8242 12.8206C5.15921 12.7035 5.54945 12.5943 6.00002 12.4776V11.1413ZM6.00002 14.0296C5.73909 14.101 5.51562 14.1679 5.31896 14.2366C4.8876 14.3874 4.64621 14.5272 4.46802 14.6929C4.29306 14.8555 4.14512 15.045 4.02975 15.2542C3.91226 15.4673 3.83511 15.7354 3.79351 16.1904C3.75073 16.6585 3.75 17.2568 3.75 18.1216L3.75 19.0379L6.03659 18.4662C6.00002 17.7892 6.00002 16.9788 6.00002 15.9987V14.0296ZM17.9635 18.4662L20.25 19.0379V18.1216C20.25 17.2568 20.2493 16.6585 20.2065 16.1904C20.1649 15.7354 20.0877 15.4673 19.9702 15.2542C19.8549 15.045 19.7069 14.8555 19.532 14.6929C19.3538 14.5272 19.1124 14.3874 18.681 14.2366C18.4844 14.1679 18.2609 14.101 18 14.0296V15.9987C18 16.9788 18 17.7892 17.9635 18.4662Z" fill="#103067"/>
</svg>
