<svg width="24" height="24" viewBox="0 0 24 24" fill="none" xmlns="http://www.w3.org/2000/svg">
<path fill-rule="evenodd" clip-rule="evenodd" d="M6.00002 11.1423C6.00002 8.91341 6.00002 7.79896 6.3817 6.78064C6.39852 6.73575 6.41588 6.69107 6.43378 6.64659C6.83975 5.63772 7.59218 4.81562 9.09703 3.17143L9.09704 3.17142C10.4309 1.71408 11.0978 0.985406 11.9464 0.962634C11.9821 0.961674 12.0179 0.961674 12.0537 0.962634C12.9022 0.985406 13.5692 1.71407 14.903 3.17141L14.903 3.17142L14.903 3.17143C16.4079 4.81562 17.1603 5.63772 17.5663 6.64659C17.5842 6.69106 17.6015 6.73575 17.6183 6.78064C18 7.79896 18 8.91341 18 11.1423V12.4785C18.4506 12.5953 18.8408 12.7045 19.1758 12.8216C19.7115 13.0087 20.1658 13.235 20.5533 13.5953C20.8449 13.8664 21.0915 14.1822 21.2837 14.5308C21.5393 14.9941 21.6486 15.4897 21.7003 16.0548C21.75 16.5992 21.75 17.2661 21.75 18.0873V18.0874V18.1225V19.9994C21.75 20.2304 21.6436 20.4484 21.4616 20.5906C21.2795 20.7327 21.0422 20.783 20.8181 20.727L17.7591 19.9623C17.6292 20.4395 17.4292 20.8131 17.1213 21.121C16.324 21.9183 15.0858 21.9921 12.75 21.9989L12.75 17.9994C12.75 17.5852 12.4142 17.2494 12 17.2494C11.5858 17.2494 11.25 17.5852 11.25 17.9994L11.25 21.9989C8.9143 21.9921 7.67602 21.9183 6.8787 21.121C6.57082 20.8131 6.37082 20.4395 6.2409 19.9623L3.1819 20.727C2.95785 20.783 2.72048 20.7327 2.53844 20.5906C2.3564 20.4484 2.25 20.2304 2.25 19.9994V18.1225V18.0874C2.24999 17.2662 2.24998 16.5992 2.29974 16.0548C2.3514 15.4897 2.46074 14.9941 2.71625 14.5308C2.90853 14.1822 3.1551 13.8664 3.44671 13.5953C3.83422 13.235 4.28849 13.0087 4.8242 12.8216C5.15921 12.7045 5.54945 12.5953 6.00002 12.4785V11.1423ZM6.00002 14.0306C5.73909 14.102 5.51562 14.1689 5.31896 14.2376C4.8876 14.3883 4.64621 14.5282 4.46802 14.6939C4.29306 14.8565 4.14512 15.046 4.02975 15.2552C3.91226 15.4682 3.83511 15.7363 3.79351 16.1914C3.75073 16.6595 3.75 17.2578 3.75 18.1225L3.75 19.0388L6.03659 18.4672C6.00002 17.7901 6.00002 16.9798 6.00002 15.9996V14.0306ZM17.9635 18.4672L20.25 19.0388V18.1225C20.25 17.2578 20.2493 16.6594 20.2065 16.1914C20.1649 15.7363 20.0877 15.4682 19.9702 15.2552C19.8549 15.046 19.7069 14.8565 19.532 14.6939C19.3538 14.5282 19.1124 14.3883 18.681 14.2376C18.4844 14.1689 18.2609 14.102 18 14.0306V15.9996C18 16.9798 18 17.7901 17.9635 18.4672Z" fill="white"/>
</svg>
