<svg width="512" height="512" viewBox="0 0 512 512" fill="none" xmlns="http://www.w3.org/2000/svg">
<path d="M61.793 476.69H414.896V79.4483L335.448 0H61.793V476.69Z" fill="#EAF2FF"/>
<path d="M414.897 79.4483H335.448V0L414.897 79.4483Z" fill="#C2E5FA"/>
<path d="M236.512 64.476L140.181 64.8723C139.295 64.8759 138.416 64.7049 137.595 64.3689C136.775 64.0329 136.028 63.5385 135.399 62.9141C134.769 62.2896 134.269 61.5473 133.926 60.7294C133.583 59.9116 133.405 59.0343 133.401 58.1475C133.398 57.2608 133.569 56.382 133.905 55.5614C134.241 54.7408 134.735 53.9944 135.36 53.3648C135.984 52.7353 136.726 52.2349 137.544 51.8922C138.362 51.5495 139.239 51.3713 140.126 51.3677L236.457 50.9713C238.247 50.964 239.968 51.6684 241.239 52.9296C242.511 54.1907 243.229 55.9053 243.236 57.6961C243.244 59.487 242.539 61.2073 241.278 62.4788C240.017 63.7503 238.303 64.4687 236.512 64.476ZM236.687 107.09L140.357 107.486C139.47 107.489 138.591 107.318 137.771 106.982C136.95 106.646 136.204 106.152 135.574 105.527C134.944 104.903 134.444 104.16 134.101 103.343C133.759 102.525 133.58 101.647 133.577 100.761C133.573 99.874 133.744 98.9952 134.08 98.1746C134.416 97.354 134.911 96.6076 135.535 95.978C136.16 95.3485 136.902 94.8481 137.72 94.5054C138.538 94.1627 139.415 93.9845 140.302 93.9809L236.632 93.5845C237.519 93.5809 238.398 93.752 239.218 94.0881C240.039 94.4241 240.785 94.9185 241.415 95.543C242.045 96.1675 242.545 96.9099 242.888 97.7278C243.23 98.5457 243.409 99.4231 243.412 100.31C243.416 101.197 243.245 102.075 242.909 102.896C242.573 103.717 242.078 104.463 241.454 105.093C240.829 105.722 240.087 106.223 239.269 106.566C238.451 106.908 237.574 107.086 236.687 107.09Z" fill="#76BEFF"/>
<path d="M219.997 347.7H257.314C261.746 347.7 265.311 351.265 265.311 355.697V429.913C265.311 434.346 261.746 437.91 257.314 437.91H219.997C218.946 437.912 217.905 437.707 216.934 437.305C215.963 436.904 215.081 436.315 214.338 435.572C213.595 434.829 213.006 433.947 212.605 432.976C212.203 432.005 211.998 430.964 212 429.913V355.681C212 351.265 215.564 347.7 219.997 347.7Z" fill="#549AD4"/>
<path d="M400.618 351.808L342.968 347.701C342.968 347.701 333.422 343.594 330.678 347.701C325.952 354.737 317.506 369.149 317.506 369.149C313.988 374.961 307.588 378.184 301.358 375.456C299.878 374.812 298.54 373.881 297.42 372.719C296.301 371.556 295.421 370.184 294.833 368.682C294.244 367.179 293.957 365.575 293.989 363.961C294.021 362.347 294.371 360.756 295.019 359.277L307.123 331.568C326.804 288.377 359.612 283.836 376.024 269.796L429.334 323.107L411.202 347.701C409.73 349.158 409.87 351.994 400.618 351.808Z" fill="#FFBD8D"/>
<path d="M419.214 312.986C400.99 338.107 367.81 343.593 367.81 343.593V349.482L400.618 351.807C409.869 351.993 409.885 348.444 411.187 347.7L429.319 323.106L419.214 312.986ZM358.635 334.078C355.78 336.608 352.443 338.537 348.826 339.75C343.65 341.486 346.253 349.265 351.429 347.53C356.163 345.976 360.518 343.447 364.214 340.107C367.825 336.759 371.963 332.404 371.948 327.244L371.917 323.168L366.446 323.106C365.365 323.135 364.339 323.588 363.59 324.369C362.842 325.149 362.431 326.193 362.448 327.275C362.463 329.227 361.208 331.707 358.635 334.094V334.078Z" fill="#FFA465"/>
<path d="M302.21 339.502C293.996 339.502 277.6 355.898 261.204 355.898V432.424C261.204 432.424 277.6 437.91 281.707 437.91H380.115C386.934 437.91 392.42 432.424 392.42 425.605C392.424 423.988 392.108 422.386 391.491 420.891C390.874 419.397 389.968 418.038 388.825 416.895C387.681 415.752 386.323 414.845 384.829 414.228C383.334 413.612 381.732 413.296 380.115 413.3H388.328C395.132 413.3 400.618 407.814 400.618 401.011C400.622 399.394 400.306 397.792 399.689 396.297C399.073 394.802 398.166 393.444 397.023 392.301C395.879 391.157 394.521 390.251 393.027 389.634C391.532 389.017 389.93 388.702 388.313 388.706H392.42C399.238 388.706 404.725 383.22 404.725 376.401C404.729 374.784 404.413 373.182 403.796 371.687C403.179 370.193 402.273 368.835 401.13 367.691C399.986 366.548 398.628 365.641 397.133 365.025C395.639 364.408 394.037 364.092 392.42 364.096H400.618C407.437 364.096 412.923 358.61 412.923 351.807C412.927 350.19 412.611 348.588 411.994 347.093C411.377 345.598 410.471 344.24 409.328 343.097C408.184 341.953 406.826 341.047 405.331 340.43C403.837 339.813 402.235 339.498 400.618 339.502H302.21Z" fill="#FFD1B5"/>
<path d="M396.883 339.502C396.883 380.508 373.823 425.605 314.515 425.605H261.204V432.424C268.038 434.252 268.1 435.709 281.707 437.91H380.115C386.934 437.91 392.42 432.424 392.42 425.605C392.424 423.988 392.108 422.386 391.491 420.891C390.874 419.397 389.968 418.038 388.825 416.895C387.681 415.752 386.323 414.845 384.829 414.228C383.334 413.612 381.732 413.296 380.115 413.3H388.328C395.132 413.3 400.618 407.814 400.618 401.011C400.622 399.394 400.306 397.792 399.689 396.297C399.073 394.802 398.166 393.444 397.023 392.301C395.879 391.157 394.521 390.251 393.027 389.634C391.532 389.017 389.93 388.702 388.313 388.706H392.42C399.238 388.706 404.725 383.22 404.725 376.401C404.729 374.784 404.413 373.182 403.796 371.687C403.179 370.193 402.273 368.835 401.13 367.691C399.986 366.548 398.628 365.641 397.133 365.025C395.639 364.408 394.037 364.092 392.42 364.096H400.618C407.437 364.096 412.923 358.61 412.923 351.807C412.927 350.19 412.611 348.588 411.994 347.093C411.377 345.598 410.471 344.24 409.328 343.097C408.184 341.953 406.826 341.047 405.331 340.43C403.837 339.813 402.235 339.498 400.618 339.502H396.883Z" fill="#FFB98D"/>
<path d="M306.317 433.803V413.3C306.317 406.481 300.831 401.011 294.012 401.011C287.193 401.011 281.707 406.497 281.707 413.3V433.803C281.707 440.622 287.193 446.108 294.012 446.108C300.831 446.108 306.317 440.622 306.317 433.803Z" fill="#FFBD8D"/>
<path d="M298.103 413.3V433.803C298.104 436.343 297.316 438.819 295.847 440.891C294.378 442.962 292.301 444.525 289.905 445.364C291.757 446.025 293.741 446.231 295.689 445.964C297.637 445.698 299.493 444.968 301.1 443.834C302.707 442.701 304.018 441.199 304.923 439.453C305.828 437.707 306.301 435.77 306.301 433.803V413.3C306.298 411.335 305.824 409.4 304.918 407.656C304.012 405.912 302.7 404.412 301.094 403.28C299.487 402.149 297.632 401.42 295.685 401.154C293.738 400.889 291.756 401.095 289.905 401.755C294.678 403.444 298.103 407.938 298.103 413.3Z" fill="#FFA465"/>
<path d="M330.911 442.001V421.498C330.911 414.68 325.425 409.209 318.606 409.209C311.787 409.209 306.316 414.695 306.316 421.498V442.001C306.316 445.265 307.613 448.394 309.92 450.702C312.228 453.01 315.358 454.306 318.621 454.306C321.885 454.306 325.014 453.01 327.322 450.702C329.63 448.394 330.926 445.265 330.926 442.001H330.911Z" fill="#FFBD8D"/>
<path d="M261.204 355.898V429.805L268.844 432.827C269.211 431.899 269.4 430.911 269.402 429.913V355.681C269.402 355.34 269.34 355.015 269.309 354.674C266.628 355.418 263.916 355.914 261.204 355.914V355.898Z" fill="#FFB98D"/>
<path d="M253.006 347.7V364.096C253.006 396.904 244.792 429.712 220.09 429.712H212V429.913C212 434.346 215.564 437.91 219.997 437.91H257.314C261.746 437.91 265.311 434.346 265.311 429.913V355.681C265.313 354.631 265.107 353.591 264.706 352.621C264.305 351.651 263.715 350.77 262.972 350.028C262.229 349.286 261.347 348.699 260.376 348.299C259.404 347.9 258.364 347.696 257.314 347.7H253.006Z" fill="#3588CB"/>
<path d="M355.52 442.002V425.606C355.524 423.989 355.209 422.387 354.592 420.892C353.975 419.397 353.069 418.039 351.926 416.896C350.782 415.752 349.424 414.846 347.929 414.229C346.434 413.612 344.833 413.297 343.216 413.301C341.599 413.297 339.997 413.612 338.502 414.229C337.007 414.846 335.649 415.752 334.506 416.896C333.362 418.039 332.456 419.397 331.839 420.892C331.222 422.387 330.907 423.989 330.911 425.606V442.002C330.911 448.821 336.397 454.307 343.216 454.307C350.034 454.307 355.52 448.821 355.52 442.002Z" fill="#FFBD8D"/>
<path d="M380.115 433.804V425.606C380.119 423.989 379.803 422.387 379.186 420.892C378.57 419.397 377.663 418.039 376.52 416.896C375.376 415.752 374.018 414.846 372.524 414.229C371.029 413.612 369.427 413.297 367.81 413.301C366.194 413.299 364.594 413.616 363.101 414.234C361.608 414.851 360.252 415.758 359.11 416.901C357.968 418.044 357.063 419.402 356.447 420.896C355.831 422.389 355.516 423.99 355.521 425.606V433.819C355.521 440.623 361.007 446.109 367.81 446.109C374.629 446.109 380.115 440.623 380.115 433.804Z" fill="#FFBD8D"/>
<path d="M371.916 425.606V433.819C371.913 436.358 371.121 438.833 369.65 440.901C368.178 442.97 366.1 444.529 363.703 445.365C365.555 446.025 367.539 446.231 369.487 445.965C371.435 445.699 373.291 444.968 374.898 443.835C376.505 442.702 377.816 441.199 378.722 439.454C379.627 437.708 380.099 435.77 380.099 433.804V425.606C380.098 423.641 379.626 421.706 378.722 419.962C377.817 418.218 376.508 416.716 374.903 415.583C373.298 414.451 371.444 413.72 369.498 413.452C367.552 413.184 365.57 413.388 363.718 414.045C368.492 415.75 371.916 420.244 371.916 425.606ZM314.515 409.954C319.288 411.643 322.713 416.152 322.713 421.499V442.002C322.713 444.543 321.922 447.021 320.45 449.093C318.978 451.164 316.899 452.727 314.499 453.563C316.351 454.223 318.335 454.429 320.283 454.163C322.231 453.897 324.087 453.166 325.694 452.033C327.301 450.9 328.613 449.397 329.518 447.652C330.423 445.906 330.895 443.968 330.895 442.002V421.499C330.892 419.536 330.418 417.602 329.512 415.86C328.607 414.118 327.297 412.619 325.692 411.488C324.088 410.357 322.235 409.627 320.29 409.36C318.345 409.093 316.365 409.297 314.515 409.954ZM355.52 442.002C355.521 443.97 355.049 445.91 354.143 447.657C353.237 449.404 351.924 450.908 350.315 452.042C348.706 453.175 346.848 453.905 344.897 454.17C342.947 454.435 340.962 454.226 339.109 453.563C341.508 452.727 343.588 451.164 345.06 449.093C346.532 447.021 347.322 444.543 347.322 442.002V425.606C347.322 423.065 346.532 420.587 345.06 418.515C343.588 416.443 341.508 414.881 339.109 414.045C340.961 413.384 342.945 413.179 344.893 413.445C346.841 413.711 348.697 414.442 350.304 415.575C351.911 416.708 353.222 418.211 354.127 419.956C355.032 421.702 355.505 423.639 355.505 425.606L355.52 442.002Z" fill="#FFA465"/>
<path d="M303.667 339.503L295.019 359.277C294.372 360.757 294.022 362.349 293.992 363.963C293.961 365.578 294.248 367.183 294.839 368.685C295.429 370.188 296.31 371.56 297.431 372.722C298.552 373.884 299.892 374.813 301.373 375.457C307.587 378.184 313.988 374.961 317.521 369.134C317.521 369.134 325.952 354.737 330.678 347.701C333.421 343.594 334.77 339.487 342.983 339.487L303.667 339.503Z" fill="#FFBD8D"/>
<path d="M331.778 339.503C323.565 339.503 322.217 343.594 319.474 347.701C314.747 354.737 306.301 369.134 306.301 369.134C304.798 371.644 302.721 373.628 300.381 374.899C300.706 375.085 301.001 375.302 301.357 375.457C307.587 378.184 313.987 374.961 317.521 369.134C317.521 369.134 325.951 354.737 330.678 347.701C333.421 343.594 334.769 339.487 342.983 339.487L331.778 339.503Z" fill="#FFA465"/>
<path d="M371.281 260.947L391.862 240.351C392.603 239.606 393.485 239.014 394.455 238.611C395.426 238.208 396.467 238 397.518 238C398.569 238 399.61 238.208 400.581 238.611C401.552 239.014 402.433 239.606 403.175 240.351L455.633 292.825C456.378 293.566 456.969 294.448 457.373 295.418C457.776 296.389 457.984 297.43 457.984 298.481C457.984 299.532 457.776 300.573 457.373 301.544C456.969 302.514 456.378 303.396 455.633 304.138L435.053 324.718C434.311 325.463 433.43 326.054 432.459 326.458C431.488 326.861 430.447 327.069 429.396 327.069C428.345 327.069 427.304 326.861 426.333 326.458C425.363 326.054 424.481 325.463 423.74 324.718L371.281 272.244C370.536 271.503 369.945 270.621 369.542 269.65C369.138 268.68 368.931 267.639 368.931 266.588C368.931 265.536 369.138 264.496 369.542 263.525C369.945 262.554 370.536 261.688 371.281 260.947Z" fill="#549AD4"/>
<path d="M397.534 238.011C396.484 238.013 395.446 238.222 394.478 238.626C393.51 239.03 392.631 239.622 391.893 240.366L389.335 242.908L426.467 280.039C437.826 290.299 441.592 301.844 433.394 310.027L421.229 322.192L423.77 324.734C424.512 325.479 425.393 326.07 426.364 326.473C427.335 326.877 428.376 327.084 429.427 327.084C430.478 327.084 431.519 326.877 432.49 326.473C433.46 326.07 434.342 325.479 435.083 324.734L455.679 304.153C456.424 303.412 457.016 302.53 457.419 301.559C457.822 300.589 458.03 299.548 458.03 298.497C458.03 297.445 457.822 296.405 457.419 295.434C457.016 294.463 456.424 293.582 455.679 292.84L403.19 240.382C402.449 239.635 401.568 239.043 400.597 238.638C399.626 238.234 398.585 238.011 397.534 238.011Z" fill="#3588CB"/>
<path d="M136.376 165C135.324 164.996 134.281 165.199 133.307 165.598C132.334 165.997 131.448 166.584 130.701 167.326C129.954 168.067 129.361 168.948 128.955 169.919C128.548 170.889 128.337 171.93 128.333 172.983C128.333 177.397 131.961 180.965 136.376 180.935H303.979C308.363 180.935 311.931 177.458 311.931 172.983C311.931 168.508 308.363 165.03 303.979 165H136.376ZM136.376 196.93C134.251 196.93 132.213 197.774 130.71 199.277C129.207 200.78 128.363 202.818 128.363 204.943C128.363 207.068 129.207 209.106 130.71 210.609C132.213 212.111 134.251 212.956 136.376 212.956H303.979C305.026 212.968 306.066 212.77 307.036 212.375C308.007 211.98 308.888 211.394 309.629 210.654C310.37 209.913 310.955 209.031 311.35 208.061C311.746 207.091 311.943 206.051 311.931 205.003C311.951 203.948 311.76 202.899 311.369 201.918C310.978 200.938 310.395 200.045 309.654 199.293C308.913 198.541 308.03 197.944 307.055 197.538C306.08 197.133 305.034 196.926 303.979 196.93H136.376ZM136.406 228.951C134.281 228.951 132.243 229.795 130.74 231.298C129.238 232.8 128.393 234.839 128.393 236.964C128.393 239.089 129.238 241.127 130.74 242.63C132.243 244.132 134.281 244.976 136.406 244.976H264.006C266.131 244.976 268.169 244.132 269.671 242.63C271.174 241.127 272.018 239.089 272.018 236.964C272.018 234.839 271.174 232.8 269.671 231.298C268.169 229.795 266.131 228.951 264.006 228.951H136.406ZM164.345 260.972C157.874 260.972 151.283 262.998 145.538 266.807C140.562 269.974 136.388 274.251 133.345 279.304C130.302 284.357 128.472 290.046 128 295.925C127.98 297.965 128.74 299.934 130.126 301.431C131.512 302.927 133.418 303.836 135.453 303.971C137.487 304.107 139.497 303.458 141.069 302.159C142.64 300.859 143.655 299.008 143.905 296.984C144.359 289.999 148.017 284.405 154.367 280.172C160.233 276.241 166.431 276.06 170.997 278.66C175.23 281.14 178.435 285.433 177.982 292.509C177.892 294.169 178.321 295.817 179.21 297.223C180.098 298.628 181.402 299.723 182.941 300.354C184.48 300.986 186.176 301.123 187.796 300.746C189.416 300.37 190.879 299.499 191.982 298.254C194.133 295.717 197.034 293.928 200.266 293.144C201.597 292.962 204.348 292.841 207.463 297.468C208.975 299.675 211.454 301.005 214.115 301.005H223.942C225.033 301.072 226.127 300.915 227.156 300.544C228.185 300.172 229.126 299.594 229.923 298.845C230.72 298.096 231.355 297.191 231.789 296.187C232.223 295.183 232.447 294.101 232.447 293.008C232.447 291.914 232.223 290.832 231.789 289.828C231.355 288.824 230.72 287.92 229.923 287.17C229.126 286.421 228.185 285.843 227.156 285.471C226.127 285.1 225.033 284.943 223.942 285.01H217.985C212.543 278.963 205.437 276.181 198.15 277.269C193.705 277.935 192.072 278.932 191.74 279.144C189.235 273.048 184.722 267.992 178.949 264.812C174.513 262.274 169.486 260.949 164.375 260.972H164.345Z" fill="#76BEFF"/>
</svg>
