<svg width="512" height="512" viewBox="0 0 512 512" fill="none" xmlns="http://www.w3.org/2000/svg">
<path d="M61.793 476.69H414.896V79.4483L335.448 0H61.793V476.69Z" fill="#EAF2FF"/>
<path d="M151.436 206.413H107.564C106.571 206.413 105.587 206.223 104.669 205.853C103.751 205.483 102.918 204.941 102.215 204.257C101.513 203.574 100.955 202.762 100.575 201.869C100.195 200.976 99.9998 200.019 100 199.052V156.361C99.9998 155.394 100.195 154.437 100.575 153.544C100.955 152.651 101.513 151.839 102.215 151.155C102.918 150.472 103.751 149.93 104.669 149.56C105.587 149.19 106.571 149 107.564 149H151.436C152.429 149 153.413 149.19 154.331 149.56C155.249 149.93 156.082 150.472 156.785 151.155C157.487 151.839 158.045 152.651 158.425 153.544C158.805 154.437 159 155.394 159 156.361V199.052C159 200.019 158.804 200.976 158.424 201.869C158.044 202.762 157.487 203.573 156.784 204.257C156.082 204.94 155.248 205.482 154.33 205.852C153.413 206.222 152.429 206.413 151.436 206.413Z" fill="#76BEFF"/>
<path d="M107.564 321H151.436C152.429 321 153.413 320.81 154.331 320.44C155.249 320.07 156.082 319.528 156.785 318.845C157.487 318.161 158.045 317.349 158.425 316.456C158.805 315.563 159 314.606 159 313.639V270.948C159 269.981 158.805 269.024 158.425 268.131C158.045 267.238 157.487 266.426 156.785 265.743C156.082 265.059 155.249 264.517 154.331 264.147C153.413 263.777 152.429 263.587 151.436 263.587H107.564C106.571 263.587 105.587 263.777 104.669 264.147C103.751 264.517 102.918 265.059 102.215 265.743C101.513 266.426 100.955 267.238 100.575 268.131C100.195 269.024 99.9998 269.981 100 270.948V313.639C99.9998 314.606 100.195 315.563 100.575 316.456C100.955 317.349 101.513 318.161 102.215 318.845C102.918 319.528 103.751 320.07 104.669 320.44C105.587 320.81 106.571 321 107.564 321Z" fill="#76BEFF"/>
<path d="M382.34 114.02H102.66C100.363 114.02 98.1606 113.124 96.5365 111.528C94.9124 109.932 94 107.767 94 105.51C94 103.253 94.9124 101.088 96.5365 99.4925C98.1606 97.8966 100.363 97 102.66 97H382.34C384.637 97 386.839 97.8966 388.463 99.4925C390.088 101.088 391 103.253 391 105.51C391 107.767 390.088 109.932 388.463 111.528C386.839 113.124 384.637 114.02 382.34 114.02ZM109.94 443C107.682 443.001 105.512 442.134 103.894 440.585C102.276 439.036 101.339 436.927 101.281 434.708C101.223 432.489 102.05 430.335 103.585 428.707C105.12 427.078 107.242 426.104 109.498 425.991C115.793 425.668 121.991 424.205 127.812 421.812C127.587 419.517 127.657 417.204 128.018 414.927C130.195 400.98 137.154 387.866 147.612 378C157.563 368.614 166.936 370.336 172.39 375.081C177.402 379.442 179.301 386.377 177.227 392.749C173.15 405.276 165.407 416.332 155.391 424.866C157.941 423.916 160.165 422.541 160.955 422.028C165.357 419.165 171.933 415.634 178.202 418.013C179.912 418.662 182.73 420.228 184.411 423.807C185.063 423.63 185.848 423.347 186.661 422.931C191.493 420.453 196.079 417.537 200.359 414.22C204.356 411.124 209.656 410.594 214.191 412.839C217.938 414.695 220.461 418.077 221.172 422.015C225.186 419.945 228.938 417.418 232.351 414.486C236.981 410.508 243.865 410.254 248.717 413.882C262.904 424.484 285.139 422.543 304.864 419.892C309.609 419.253 313.97 422.514 314.618 427.171C315.266 431.828 311.951 436.119 307.211 436.756C285.177 439.72 260.265 441.769 241.134 429.446C236.31 433.227 231.03 436.408 225.412 438.917C223.785 439.645 219.973 441.35 215.511 440.505C210.819 439.62 207.151 436.314 205.321 431.744C201.899 434.043 198.34 436.14 194.664 438.024C192.261 439.255 183.838 443.019 176.372 439.773C174.328 438.893 172.536 437.533 171.153 435.813C170.95 435.94 170.736 436.075 170.512 436.221C157.295 444.816 143.988 445.05 135.405 437.197C127.542 440.521 119.084 442.544 110.397 442.989C110.245 442.997 110.092 443 109.94 443ZM159.836 390.065L159.605 390.279C154.13 395.451 149.946 401.797 147.381 408.822C152.804 403.438 157.128 397.056 159.836 390.065ZM195.489 227.897H194.317C192.021 227.897 189.818 227 188.194 225.404C186.57 223.808 185.657 221.644 185.657 219.387C185.657 217.13 186.57 214.965 188.194 213.369C189.818 211.773 192.021 210.877 194.317 210.877H195.489C197.786 210.877 199.988 211.773 201.612 213.369C203.236 214.965 204.149 217.13 204.149 219.387C204.149 221.644 203.236 223.808 201.612 225.404C199.988 227 197.786 227.897 195.489 227.897ZM222.903 227.897H221.731C219.435 227.897 217.232 227 215.608 225.404C213.984 223.808 213.071 221.644 213.071 219.387C213.071 217.13 213.984 214.965 215.608 213.369C217.232 211.773 219.435 210.877 221.731 210.877H222.903C225.199 210.877 227.402 211.773 229.026 213.369C230.65 214.965 231.563 217.13 231.563 219.387C231.563 221.644 230.65 223.808 229.026 225.404C227.402 227 225.199 227.897 222.903 227.897ZM250.315 227.897H249.144C246.847 227.897 244.645 227 243.021 225.404C241.396 223.808 240.484 221.644 240.484 219.387C240.484 217.13 241.396 214.965 243.021 213.369C244.645 211.773 246.847 210.877 249.144 210.877H250.315C252.612 210.877 254.815 211.773 256.439 213.369C258.063 214.965 258.976 217.13 258.976 219.387C258.976 221.644 258.063 223.808 256.439 225.404C254.815 227 252.612 227.897 250.315 227.897ZM277.729 227.897H276.558C274.261 227.897 272.059 227 270.434 225.404C268.81 223.808 267.898 221.644 267.898 219.387C267.898 217.13 268.81 214.965 270.434 213.369C272.059 211.773 274.261 210.877 276.558 210.877H277.729C280.026 210.877 282.229 211.773 283.853 213.369C285.477 214.965 286.39 217.13 286.39 219.387C286.39 221.644 285.477 223.808 283.853 225.404C282.229 227 280.026 227.897 277.729 227.897ZM379.789 194.519H191.179C188.882 194.519 186.679 193.622 185.055 192.026C183.431 190.43 182.519 188.266 182.519 186.009C182.519 183.752 183.431 181.587 185.055 179.991C186.679 178.395 188.882 177.499 191.179 177.499H379.789C382.086 177.499 384.288 178.395 385.912 179.991C387.536 181.587 388.449 183.752 388.449 186.009C388.449 188.266 387.536 190.43 385.912 192.026C384.288 193.622 382.086 194.519 379.789 194.519ZM242.015 162.561H191.179C188.882 162.561 186.679 161.665 185.055 160.069C183.431 158.473 182.519 156.308 182.519 154.051C182.519 151.794 183.431 149.63 185.055 148.034C186.679 146.438 188.882 145.541 191.179 145.541H242.015C244.312 145.541 246.515 146.438 248.139 148.034C249.763 149.63 250.675 151.794 250.675 154.051C250.675 156.308 249.763 158.473 248.139 160.069C246.515 161.665 244.312 162.561 242.015 162.561ZM195.489 341.609H194.317C192.021 341.609 189.818 340.712 188.194 339.116C186.57 337.52 185.657 335.355 185.657 333.098C185.657 330.841 186.57 328.677 188.194 327.081C189.818 325.485 192.021 324.588 194.317 324.588H195.489C197.786 324.588 199.988 325.485 201.612 327.081C203.236 328.677 204.149 330.841 204.149 333.098C204.149 335.355 203.236 337.52 201.612 339.116C199.988 340.712 197.786 341.609 195.489 341.609ZM222.903 341.609H221.731C219.435 341.609 217.232 340.712 215.608 339.116C213.984 337.52 213.071 335.355 213.071 333.098C213.071 330.841 213.984 328.677 215.608 327.081C217.232 325.485 219.435 324.588 221.731 324.588H222.903C225.199 324.588 227.402 325.485 229.026 327.081C230.65 328.677 231.563 330.841 231.563 333.098C231.563 335.355 230.65 337.52 229.026 339.116C227.402 340.712 225.199 341.609 222.903 341.609ZM250.315 341.609H249.144C246.847 341.609 244.645 340.712 243.021 339.116C241.396 337.52 240.484 335.355 240.484 333.098C240.484 330.841 241.396 328.677 243.021 327.081C244.645 325.485 246.847 324.588 249.144 324.588H250.315C252.612 324.588 254.815 325.485 256.439 327.081C258.063 328.677 258.976 330.841 258.976 333.098C258.976 335.355 258.063 337.52 256.439 339.116C254.815 340.712 252.612 341.609 250.315 341.609ZM277.729 341.609H276.558C274.261 341.609 272.059 340.712 270.434 339.116C268.81 337.52 267.898 335.355 267.898 333.098C267.898 330.841 268.81 328.677 270.434 327.081C272.059 325.485 274.261 324.588 276.558 324.588H277.729C280.026 324.588 282.229 325.485 283.853 327.081C285.477 328.677 286.39 330.841 286.39 333.098C286.39 335.355 285.477 337.52 283.853 339.116C282.229 340.712 280.026 341.609 277.729 341.609ZM379.789 308.23H191.179C188.882 308.23 186.679 307.334 185.055 305.738C183.431 304.142 182.519 301.977 182.519 299.72C182.519 297.463 183.431 295.299 185.055 293.703C186.679 292.107 188.882 291.21 191.179 291.21H379.789C382.086 291.21 384.288 292.107 385.912 293.703C387.536 295.299 388.449 297.463 388.449 299.72C388.449 301.977 387.536 304.142 385.912 305.738C384.288 307.334 382.086 308.23 379.789 308.23ZM242.015 276.273H191.179C188.882 276.273 186.679 275.376 185.055 273.78C183.431 272.184 182.519 270.02 182.519 267.763C182.519 265.506 183.431 263.341 185.055 261.745C186.679 260.149 188.882 259.253 191.179 259.253H242.015C244.312 259.253 246.515 260.149 248.139 261.745C249.763 263.341 250.675 265.506 250.675 267.763C250.675 270.02 249.763 272.184 248.139 273.78C246.515 275.376 244.312 276.273 242.015 276.273Z" fill="#76BEFF"/>
<path d="M414.897 79.4483H335.448V0L414.897 79.4483Z" fill="#C2E5FA"/>
</svg>
