<svg width="512" height="512" viewBox="0 0 512 512" fill="none" xmlns="http://www.w3.org/2000/svg">
<path d="M61.793 476.69H414.896V79.4483L335.448 0H61.793V476.69Z" fill="#EAF2FF"/>
<path d="M414.897 79.4483H335.448V0L414.897 79.4483Z" fill="#C2E5FA"/>
<path d="M329.618 101.65L118.362 104.002C116.572 104.022 114.846 103.33 113.566 102.078C112.286 100.825 111.555 99.1159 111.536 97.3252C111.516 95.5344 112.208 93.8091 113.46 92.5288C114.712 91.2486 116.422 90.5181 118.213 90.4982L329.468 88.1463C330.355 88.1365 331.235 88.3014 332.058 88.6316C332.88 88.9619 333.63 89.4509 334.264 90.071C334.898 90.691 335.404 91.4298 335.752 92.2452C336.101 93.0606 336.285 93.9367 336.295 94.8234C336.305 95.7101 336.14 96.59 335.81 97.4129C335.479 98.2359 334.99 98.9857 334.37 99.6197C333.75 100.254 333.011 100.759 332.196 101.108C331.381 101.456 330.504 101.64 329.618 101.65ZM330.189 152.964L118.934 155.316C117.143 155.336 115.418 154.644 114.138 153.392C113.504 152.771 112.998 152.033 112.65 151.217C112.301 150.402 112.117 149.526 112.107 148.639C112.097 147.752 112.262 146.872 112.592 146.05C112.923 145.227 113.412 144.477 114.032 143.843C115.284 142.563 116.993 141.832 118.784 141.812L330.039 139.46C330.926 139.45 331.806 139.615 332.629 139.946C333.452 140.276 334.202 140.765 334.836 141.385C335.47 142.005 335.975 142.744 336.324 143.559C336.672 144.375 336.857 145.251 336.866 146.137C336.876 147.024 336.711 147.904 336.381 148.727C336.051 149.55 335.562 150.3 334.942 150.934C334.322 151.568 333.583 152.073 332.767 152.422C331.952 152.77 331.076 152.954 330.189 152.964ZM330.788 206.754L119.532 209.106C117.742 209.126 116.016 208.433 114.736 207.181C113.456 205.929 112.725 204.219 112.706 202.429C112.686 200.638 113.378 198.913 114.63 197.632C115.882 196.352 117.592 195.622 119.383 195.602L330.638 193.25C331.525 193.24 332.405 193.405 333.228 193.735C334.05 194.065 334.8 194.554 335.434 195.174C336.068 195.794 336.574 196.533 336.922 197.349C337.271 198.164 337.455 199.04 337.465 199.927C337.475 200.814 337.31 201.693 336.98 202.516C336.649 203.339 336.16 204.089 335.54 204.723C334.92 205.357 334.181 205.863 333.366 206.211C332.551 206.559 331.674 206.744 330.788 206.754ZM331.286 251.54L120.03 253.892C118.24 253.912 116.514 253.22 115.234 251.967C113.954 250.715 113.223 249.006 113.204 247.215C113.184 245.424 113.876 243.699 115.128 242.419C116.38 241.138 118.09 240.408 119.881 240.388L331.136 238.036C332.927 238.016 334.652 238.709 335.932 239.961C337.213 241.213 337.943 242.923 337.963 244.713C337.983 246.504 337.29 248.229 336.038 249.51C334.786 250.79 333.077 251.52 331.286 251.54Z" fill="#76BEFF"/>
<path d="M205.504 348.319C204.788 382.315 176.547 409.393 142.55 408.677C108.554 407.961 81.4755 379.719 82.1916 345.722C82.9077 311.725 111.15 284.648 145.146 285.364C179.142 286.08 206.22 314.322 205.504 348.319Z" fill="#76BEFF"/>
<path d="M131.493 377.827C130.606 377.81 129.732 377.617 128.92 377.26C128.108 376.904 127.374 376.391 126.761 375.75L102.089 350.016C100.85 348.724 100.175 346.992 100.212 345.201C100.25 343.411 100.997 341.708 102.29 340.469C103.583 339.23 105.315 338.555 107.105 338.593C108.895 338.631 110.597 339.378 111.836 340.67L131.835 361.53L176.59 318.621C177.888 317.409 179.611 316.757 181.386 316.806C183.161 316.856 184.845 317.602 186.074 318.884C187.302 320.165 187.977 321.88 187.951 323.655C187.925 325.43 187.201 327.124 185.936 328.37L136.307 375.952C135.668 376.566 134.913 377.048 134.087 377.37C133.261 377.691 132.379 377.847 131.493 377.827Z" fill="white"/>
<path d="M332.822 294.098L236.491 294.494C235.605 294.498 234.726 294.327 233.905 293.991C233.085 293.655 232.338 293.161 231.709 292.536C231.079 291.912 230.579 291.169 230.236 290.351C229.893 289.534 229.715 288.656 229.711 287.77C229.708 286.883 229.879 286.004 230.215 285.184C230.551 284.363 231.045 283.616 231.67 282.987C232.294 282.357 233.037 281.857 233.854 281.514C234.672 281.172 235.55 280.993 236.436 280.99L332.767 280.593C334.558 280.586 336.278 281.291 337.549 282.552C338.821 283.813 339.539 285.527 339.547 287.318C339.554 289.109 338.849 290.829 337.588 292.101C336.327 293.372 334.613 294.091 332.822 294.098ZM332.997 336.712L236.667 337.108C235.78 337.111 234.901 336.94 234.081 336.604C233.26 336.268 232.514 335.774 231.884 335.149C231.255 334.525 230.754 333.783 230.411 332.965C230.069 332.147 229.891 331.27 229.887 330.383C229.883 329.496 230.054 328.617 230.39 327.797C230.726 326.976 231.221 326.23 231.845 325.6C232.47 324.971 233.212 324.47 234.03 324.127C234.848 323.785 235.725 323.607 236.612 323.603L332.942 323.207C333.829 323.203 334.708 323.374 335.528 323.71C336.349 324.046 337.096 324.541 337.725 325.165C338.355 325.79 338.855 326.532 339.198 327.35C339.541 328.168 339.719 329.045 339.722 329.932C339.726 330.819 339.555 331.698 339.219 332.518C338.883 333.339 338.388 334.085 337.764 334.715C337.139 335.344 336.397 335.845 335.579 336.188C334.761 336.53 333.884 336.708 332.997 336.712Z" fill="#76BEFF"/>
</svg>
