<svg width="1172" height="336" viewBox="0 0 1172 336" fill="none" xmlns="http://www.w3.org/2000/svg">
<path fill-rule="evenodd" clip-rule="evenodd" d="M503.697 267.885C505.216 275.7 506.218 283.719 506.703 291.941C515.721 291.941 524.738 291.941 533.756 291.941C524.581 293.101 515.229 293.268 505.701 292.442C503.554 284.351 502.886 276.165 503.697 267.885Z" fill="white"/>
<path fill-rule="evenodd" clip-rule="evenodd" d="M1141.94 258.863C1141.94 273.898 1141.94 288.933 1141.94 303.968C1134.74 304.294 1127.73 303.959 1120.9 302.966C1127.59 302.966 1134.26 302.966 1140.94 302.966C1140.61 288.088 1140.94 273.387 1141.94 258.863Z" fill="white"/>
<path fill-rule="evenodd" clip-rule="evenodd" d="M1139.94 223.784C1133.6 223.784 1127.25 223.784 1120.9 223.784C1120.9 250.178 1120.9 276.573 1120.9 302.968C1119.9 276.411 1119.57 249.683 1119.9 222.781C1126.76 222.456 1133.45 222.79 1139.94 223.784Z" fill="white"/>
<path fill-rule="evenodd" clip-rule="evenodd" d="M1141.94 258.863C1140.94 273.387 1140.61 288.088 1140.94 302.966C1134.26 302.966 1127.59 302.966 1120.9 302.966C1120.9 276.572 1120.9 250.176 1120.9 223.782C1127.24 223.782 1133.6 223.782 1139.94 223.782C1139.77 227.14 1139.94 230.48 1140.44 233.805C1148.44 220.656 1158.96 218.15 1172 226.288C1169.76 231.842 1167.42 237.354 1164.99 242.826C1155.03 237.095 1147.85 239.433 1143.45 249.842C1142.74 252.827 1142.24 255.834 1141.94 258.863Z" fill="white"/>
<path fill-rule="evenodd" clip-rule="evenodd" d="M1080.32 234.808C1071.9 223.709 1060.72 219.365 1046.76 221.778C1040.91 223.958 1035.73 227.299 1031.23 231.801C1021.78 245.167 1019.11 259.869 1023.21 275.904C1025.87 289.468 1033.73 298.322 1046.76 302.466C1059.61 304.753 1070.13 300.911 1078.32 290.939C1084.24 313.064 1076.05 322.586 1053.77 319.505C1050.47 318.092 1048.8 315.586 1048.76 311.988C1041.01 311.35 1033.34 310.348 1025.71 308.981C1024.24 321.413 1029.59 329.599 1041.75 333.538C1051.98 335.887 1062.34 336.555 1072.81 335.543C1090.25 332.793 1099.1 322.603 1099.36 304.972C1099.86 277.911 1100.03 250.848 1099.86 223.783H1080.82C1080.99 227.473 1080.82 231.148 1080.32 234.808ZM1079.32 254.855C1076.47 241.487 1068.3 235.807 1054.77 237.815C1049.39 240.536 1045.88 244.879 1044.25 250.846C1043.58 257.528 1043.58 264.21 1044.25 270.892C1045.02 275.116 1046.87 278.792 1049.76 281.918C1056.34 287.913 1063.36 288.414 1070.8 283.422C1078.52 275.448 1081.35 265.926 1079.32 254.855Z" fill="white"/>
<path fill-rule="evenodd" clip-rule="evenodd" d="M692.066 23.3154C692.066 112.857 692.066 202.399 692.066 291.94C700.75 291.94 709.433 291.94 718.117 291.94C709.282 292.936 700.264 293.271 691.064 292.943C690.731 202.898 691.065 113.022 692.066 23.3154Z" fill="white"/>
<path fill-rule="evenodd" clip-rule="evenodd" d="M953.576 32.3369C962.263 32.3369 970.94 32.3369 979.627 32.3369C979.516 42.3693 979.186 52.3926 978.625 62.4069C926.373 58.7233 891.134 81.4432 872.919 130.565C864.76 152.252 862.088 174.638 864.903 197.722C866.323 217.104 871.333 235.481 879.932 252.85C883.95 258.789 889.461 262.631 896.465 264.377C916.924 266.91 934.459 261.063 949.067 246.836C953.606 241.092 957.113 234.744 959.588 227.792C966.872 232.905 973.715 238.585 980.128 244.831C969.637 264.003 954.447 278.537 934.539 288.433C895.002 299.982 866.45 287.119 848.872 249.843C827.858 191.366 833.87 135.904 866.907 83.4559C888.319 53.6214 917.205 36.5818 953.576 32.3369Z" fill="white"/>
<path fill-rule="evenodd" clip-rule="evenodd" d="M645.975 33.3398C656.996 33.3398 668.018 33.3398 679.039 33.3398C678.83 43.0344 678.496 52.7239 678.037 62.4075C625.532 59.178 590.296 82.2316 572.331 131.568C561.241 166.548 561.241 201.629 572.331 236.813C574.571 243.54 577.577 249.888 581.349 255.858C587.772 263.012 595.787 266.019 605.396 264.879C631.896 264.748 649.931 252.386 659.501 227.792C666.819 233.275 673.666 239.289 680.041 245.834C670.251 262.265 657.226 275.463 640.965 285.426C600.171 302.363 569.611 291.171 549.287 251.848C526.098 189.717 533.446 131.581 571.33 77.4425C590.83 53.5739 615.711 38.8737 645.975 33.3398Z" fill="white"/>
<path fill-rule="evenodd" clip-rule="evenodd" d="M125.965 244.831C126.633 244.163 127.3 243.495 127.969 242.826C164.294 233.388 190.512 211.672 206.622 177.675C210.765 168.035 212.101 158.012 210.63 147.605C207.725 140.208 202.214 136.365 194.098 136.078C188.754 135.41 183.41 135.41 178.066 136.078C165.518 147.63 153.327 159.491 141.495 171.661C132.006 189.306 121.485 206.346 109.934 222.78C103.211 227.387 97.3662 226.384 92.3995 219.773C91.0238 217.573 90.6902 215.233 91.3975 212.756C101.581 195.555 112.936 179.184 125.464 163.642C127.742 159.418 129.746 155.075 131.476 150.612C134.866 138.379 138.874 126.351 143.499 114.528C141.504 92.1609 129.982 84.9782 108.932 92.9778C96.4063 101.844 86.5541 113.037 79.3741 126.556C69.4157 143.076 63.905 160.951 62.8419 180.181C63.2768 188.57 64.446 196.756 66.3487 204.738C44.6525 167.908 44.3188 130.822 65.3468 93.479C79.309 69.4881 98.5124 50.945 122.959 37.8495C134.098 32.901 145.454 32.2325 157.025 35.8449C167.725 40.7142 171.899 48.8992 169.55 60.402C166.41 66.3468 163.571 72.3608 161.033 78.444C161.007 82.5656 163.011 85.0714 167.045 85.9615C169.853 86.7182 172.526 86.3845 175.061 84.9591C180.622 79.3461 184.797 72.8309 187.585 65.4137C191.426 60.0161 196.269 59.0138 202.113 62.4067C207.521 59.2894 212.363 59.958 216.642 64.4113C217.125 65.3615 217.292 66.3639 217.143 67.4183C214.317 67.1657 211.646 67.6669 209.127 68.9218C199.441 78.1102 193.93 89.3022 192.595 102.5C195.159 105.356 198.332 106.192 202.113 105.006C206.087 100.027 210.428 95.3493 215.139 90.9731C238.896 82.7299 253.759 90.915 259.725 115.53C261.498 129.352 259.829 142.717 254.716 155.624C245.412 180.773 231.217 202.657 212.133 221.276C186.891 241.624 158.169 249.475 125.965 244.831Z" fill="white"/>
<path fill-rule="evenodd" clip-rule="evenodd" d="M533.756 291.94C524.738 291.94 515.72 291.94 506.703 291.94C506.218 283.718 505.216 275.699 503.697 267.884C499.144 222.382 493.967 176.943 488.167 131.567C475.395 184.597 463.037 237.721 451.095 290.938C441.994 291.925 432.81 292.259 423.541 291.94C413.12 239.416 402.265 186.961 390.977 134.574C383.402 186.977 376.221 239.432 369.436 291.94C359.75 291.94 350.065 291.94 340.379 291.94C351.588 205.391 362.943 118.855 374.445 32.336C383.564 31.7146 392.414 32.3821 400.997 34.3407C413.545 95.2193 426.403 156.028 439.572 216.765C454.582 155.697 469.445 94.5548 484.159 33.3383C492.59 32.353 501.107 32.0183 509.709 32.336C517.363 118.902 525.378 205.437 533.756 291.94Z" fill="white"/>
<path fill-rule="evenodd" clip-rule="evenodd" d="M718.111 23.3145H692.061V291.939H718.111V170.657C736.057 168.945 753.424 164.769 770.213 158.128C814.567 141.453 833.438 109.546 826.823 62.4053C820.729 38.0466 805.199 27.856 780.232 31.8343C756.336 39.3748 735.796 52.2388 718.612 70.4241C718.111 54.7245 717.944 39.021 718.111 23.3145ZM803.779 69.4225C801.294 57.9187 794.113 53.2418 782.237 55.3898C754.142 67.9541 732.935 88.0007 718.613 115.53C718.112 125.882 717.946 136.239 718.112 146.602C741.064 145.687 761.77 138.504 780.233 125.052C798.769 111.225 806.617 92.6816 803.779 69.4225Z" fill="white"/>
<path fill-rule="evenodd" clip-rule="evenodd" d="M151.011 0.262463C163.682 -0.65868 176.04 0.844818 188.084 4.77296C200.946 11.9837 204.62 22.5082 199.105 36.3464C196.967 32.3692 193.961 29.1948 190.087 26.8243C129.654 14.2029 82.061 33.4146 47.3093 84.4584C19.7256 130.383 18.7236 176.825 44.3035 223.783C71.809 262.036 109.049 277.905 156.021 271.393C215.714 257.451 252.286 220.531 265.735 160.636C271.795 125.063 264.446 92.6544 243.692 63.4094C241.855 61.5721 240.018 59.7338 238.181 57.8966C235.344 57.6841 232.672 57.5167 230.166 57.3954C240.764 44.7961 252.119 44.1275 264.232 55.3907C277.081 74.0983 284.596 94.8135 286.776 117.535C289.805 188.491 261.916 243.452 203.113 282.419C165.182 304.784 125.104 309.796 82.8786 297.454C33.5625 276.52 6.00885 239.268 0.217568 185.694C-2.7412 116.27 24.4778 62.3118 81.8766 23.8173C103.217 10.6326 126.262 2.78032 151.011 0.262463Z" fill="white"/>
<path fill-rule="evenodd" clip-rule="evenodd" d="M127.965 242.828C127.297 243.497 126.629 244.164 125.961 244.833C124.784 245.052 123.782 244.719 122.955 243.831C124.503 242.876 126.173 242.543 127.965 242.828Z" fill="white"/>
</svg>
