<svg width="500" height="500" viewBox="0 0 500 500" fill="none" xmlns="http://www.w3.org/2000/svg">
<path d="M258.065 37.4831C248.656 38.2254 237.265 40.081 227.218 42.5438C220.431 44.197 210.014 47.3009 205.814 48.9204C191.936 54.2847 189.517 55.3644 180.276 60.054C139.92 80.6005 105.881 112.955 81.9225 153.509C71.3714 171.356 63.3741 189.575 57.6282 208.839C52.9239 224.561 50.1685 238.9 48.4548 256.579C47.7491 264.17 47.6483 285.83 48.3204 292.847C50.9077 319.703 56.2169 340.317 66.0623 361.538C79.9064 391.43 100.236 415.52 127.017 433.704C135.686 439.609 148.455 446.39 157.931 450.135C165.357 453.104 174.564 456.107 179.94 457.389C190.491 459.885 198.992 461.302 208.838 462.281C214.651 462.82 233.804 462.82 239.416 462.281C259.308 460.29 272.312 457.456 291.667 450.81C313.542 443.286 338.71 429.049 358.233 413.124C380.007 395.378 398.253 374.426 413.777 349.426C418.784 341.363 426.21 327.159 429.604 319.163C430.108 317.949 430.78 316.363 431.116 315.621C439.181 296.997 445.968 271.457 448.253 251.181C449.362 241.397 449.53 238.934 449.799 228.745C450.605 199.696 444.927 169.298 433.871 143.387C429.671 133.468 423.488 121.896 419.557 116.397C413.912 108.569 404.873 103.239 396.304 102.665C388.71 102.159 381.956 104.69 375.068 110.594C373.052 112.348 367.608 118.691 367.608 119.332C367.608 119.636 367.978 119.602 368.885 119.197C372.581 117.611 377.42 117.038 379.94 117.881C382.359 118.691 383.3 119.534 386.459 123.482C395.632 135.02 402.621 146.795 408.468 160.493C411.627 167.881 413.609 173.819 416.533 184.548C418.65 192.308 420.666 205.061 421.405 215.587C421.842 221.66 421.607 239.98 421.069 244.939C419.12 262.045 416.6 273.819 411.728 288.462C409.342 295.648 405.31 305.229 401.647 312.584C391.667 332.591 379.033 349.966 363.206 365.553C348.253 380.263 333.569 390.756 315.357 399.798C307.527 403.711 304.839 404.892 297.548 407.625C292.608 409.48 290.457 410.189 284.107 412.011C259.678 419.062 232.628 420.277 208.166 415.452C201.916 414.238 189.785 410.762 185.148 408.907C184.308 408.569 182.191 407.726 180.444 407.051C173.22 404.217 160.888 397.638 153.562 392.713C140.289 383.772 126.916 371.053 117.238 358.097C106.25 343.387 97.6819 326.215 92.272 308.097C88.8446 296.559 87.1309 287.517 85.6188 273.448C85.0475 268.05 85.0475 247.132 85.6188 241.734C88.4413 215.52 94.3553 194.737 105.31 172.841C122.178 139.035 147.615 111.336 179.1 92.4426C183.703 89.6761 195.061 83.7382 198.757 82.1525C212.366 76.3495 223.018 72.9757 235.216 70.5465C260.182 65.6208 283.3 66.0931 306.956 72.0648C309.544 72.7395 312.4 73.6505 313.341 74.1565C320.767 78.1039 325.068 83.1309 325.505 88.4278C325.605 89.7098 325.807 90.7557 325.941 90.7557C326.244 90.7557 327.05 88.6302 328.092 84.9527C329.638 79.5546 329.94 77.1255 329.839 71.3563C329.772 66.2955 329.671 65.7557 328.663 62.753C325.706 53.9811 320.128 47.7733 310.82 42.915C304.201 39.4737 301.076 38.6977 289.55 37.6181C283.603 37.0783 264.349 36.977 258.065 37.4831Z" fill="#272C6E"/>
<path d="M244.457 82.861C234.477 83.9406 224.867 86.8421 214.887 91.8354C209.107 94.7369 201.681 99.1903 201.345 99.9326C201.278 100.101 201.076 100.202 200.908 100.202C200.337 100.202 193.717 105.094 188.845 109.109C179.201 117.105 167.239 129.42 158.771 140.148C153.932 146.255 150.707 150.675 145.465 158.502C130.176 181.242 120.969 207.153 118.953 233.097C118.516 238.934 118.516 251.586 118.953 257.456C120.297 275 125.27 292.982 133.166 308.873C137.165 316.937 142.474 325.607 142.474 324.055C142.474 323.988 142.239 323.313 141.97 322.638C140.794 319.568 139.114 312.078 138.24 306.005C137.635 301.552 137.064 291.431 137.266 288.293C137.333 287.011 137.501 284.177 137.602 282.051C138.139 271.93 140.424 260.526 144.49 247.638C147.346 238.664 153.932 224.292 160.35 213.057C173.791 189.609 188.98 172.908 203.126 166.026C209.074 163.124 212.199 162.314 218.146 162.045C222.178 161.876 223.153 161.943 226.009 162.618C237.736 165.317 241.869 170.209 248.187 188.731C250.001 194.028 250.035 192.949 247.682 198.684C246.137 202.362 243.213 210.695 241.937 215.081C241.6 216.194 240.727 219.062 239.988 221.491C239.248 223.887 238.173 227.53 237.568 229.588C230.142 255.094 223.254 268.657 211.93 280.196C208.57 283.603 208.469 283.738 197.044 301.113C196.07 302.598 193.549 306.478 191.466 309.717C189.349 312.955 186.493 317.375 185.082 319.501C178.227 330.027 177.252 331.579 176.715 332.996C174.967 337.652 175.975 342.982 179.336 346.727C181.184 348.752 186.459 352.092 188.61 352.564C191.399 353.205 195.398 352.868 197.615 351.822C201.312 350.135 201.211 350.236 213.744 330.972C215.727 327.902 219.389 322.301 221.876 318.489C224.363 314.676 228.126 308.907 230.243 305.668C232.864 301.619 234.376 298.92 235.048 297.065C237.199 291.059 240.324 285.324 244.894 279.015C250.807 270.884 259.51 262.011 280.747 242.544C283.704 239.811 288.778 234.987 292.004 231.781L297.884 225.978L302.588 226.046C308.738 226.08 319.692 226.923 323.086 227.564C328.294 228.576 332.797 230.398 335.552 232.659C338.341 234.953 341.13 240.014 342.441 245.074C343.348 248.549 343.684 256.343 343.113 261.032C340.928 278.812 330.277 301.35 314.887 320.682C311.392 325.067 305.478 331.579 302.017 334.784C279.235 355.972 254.033 370.614 232.192 375.337C230.814 375.641 227.017 376.215 223.791 376.653C220.566 377.058 218.113 377.53 218.348 377.665C219.322 378.273 229.336 380.061 235.552 380.769C251.076 382.49 269.121 381.208 284.275 377.328C314.349 369.568 341.096 352.868 361.661 328.947C375.27 313.09 392.205 284.346 401.379 261.471C403.361 256.579 405.445 250.81 406.285 247.976C406.621 246.761 407.158 245.108 407.427 244.265C409.074 239.17 411.023 229.858 411.829 223.111C412.635 216.363 412.568 206.815 411.661 201.417C410.72 195.513 410.451 194.433 409.107 190.351C407.528 185.661 404.806 180.061 402.286 176.282C394.053 164.035 386.191 159.784 369.524 158.536C363.509 158.063 360.72 158.333 356.352 159.717C350.068 161.707 343.381 167.341 336.627 176.282C331.654 182.861 329.806 184.211 325.606 184.211C323.388 184.211 320.532 182.962 318.449 181.073C317.273 179.96 317.205 179.791 317.205 177.935C317.205 173.448 320.364 163.597 324.43 155.499C328.697 146.93 332.36 141.599 337.501 136.437C342.172 131.748 344.087 130.567 347.111 130.567C348.691 130.567 349.598 130.736 350.404 131.242C351.009 131.613 351.648 131.916 351.816 131.916C352.32 131.916 352.219 129.858 351.58 128.003C350.875 125.911 348.019 123.043 345.23 121.626C343.449 120.715 342.945 120.614 340.055 120.614C337.4 120.614 336.392 120.783 334.174 121.592C332.696 122.132 331.318 122.706 331.083 122.875C330.814 123.111 330.344 122.976 329.672 122.503C328.16 121.424 326.043 120.783 323.22 120.547C316.769 120.04 313.005 122.537 309.746 129.555C308.805 131.511 307.427 134.48 306.621 136.201C303.899 141.937 298.959 148.617 293.583 153.745C290.256 156.916 289.383 157.355 286.997 157.085C284.947 156.883 281.587 156.073 280.243 155.499C276.48 153.846 275.371 152.935 274.329 150.641C272.481 146.66 273.556 143.252 280.411 131.242C284.712 123.718 285.653 121.221 285.888 116.565C286.056 112.483 285.216 104.69 284.309 102.092C281.889 95.2092 271.876 87.1795 261.56 83.9069C258.738 82.996 253.664 82.2875 250.606 82.355C249.631 82.3887 246.876 82.5911 244.457 82.861Z" fill="#272C6E"/>
</svg>
