<svg width="20" height="20" viewBox="0 0 20 20" fill="none" xmlns="http://www.w3.org/2000/svg">
<path fill-rule="evenodd" clip-rule="evenodd" d="M7.6667 1.75C7.6667 1.33579 7.33091 1 6.9167 1C6.50248 1 6.1667 1.33579 6.1667 1.75V2.71351C5.95161 2.73554 5.75607 2.76788 5.57076 2.81538C3.89096 3.24589 2.57926 4.5576 2.14874 6.23739C1.99968 6.81901 1.99981 7.50136 2.00001 8.57266L2.00003 8.69444V10.9167V10.9656C2.00002 12.5678 2.00001 13.8372 2.11871 14.8414C2.24057 15.8724 2.49641 16.7211 3.07823 17.43C3.27561 17.6705 3.49615 17.8911 3.73666 18.0885C4.44561 18.6703 5.29431 18.9261 6.32528 19.048C7.32947 19.1667 8.59878 19.1667 10.201 19.1667H10.25H10.2989C11.9011 19.1667 13.1706 19.1667 14.1748 19.048C15.2058 18.9261 16.0545 18.6703 16.7634 18.0885C17.0039 17.8911 17.2244 17.6705 17.4218 17.43C18.0036 16.7211 18.2595 15.8724 18.3813 14.8414C18.5001 13.8372 18.5 12.5679 18.5 10.9657V10.9167V10.8678C18.5 9.26555 18.5001 7.9961 18.3813 6.99191C18.2595 5.96094 18.0036 5.11224 17.4218 4.40329C17.2244 4.16278 17.0039 3.94225 16.7634 3.74486C16.0911 3.19315 15.2932 2.93456 14.3334 2.80536V1.75C14.3334 1.33579 13.9976 1 13.5834 1C13.1691 1 12.8334 1.33579 12.8334 1.75V2.69212C12.0982 2.66665 11.2582 2.66666 10.299 2.66666H10.25H8.02781L7.90603 2.66665L7.6667 2.66667V1.75ZM12.8334 4.25V4.19293C12.1242 4.16713 11.2795 4.16666 10.25 4.16666H8.02781C7.89949 4.16666 7.77937 4.16673 7.6667 4.16695V4.25C7.6667 4.66421 7.33091 5 6.9167 5C6.50248 5 6.1667 4.66421 6.1667 4.25V4.22373C6.08583 4.23587 6.01272 4.25059 5.94316 4.26842C4.79383 4.56298 3.89635 5.46046 3.60178 6.6098C3.50595 6.98372 3.50003 7.46009 3.50003 8.69444V10.9167C3.50003 12.5788 3.50126 13.7594 3.60834 14.6653C3.71346 15.5547 3.91161 16.081 4.23775 16.4784C4.3728 16.643 4.52369 16.7939 4.68825 16.9289C5.08566 17.2551 5.612 17.4532 6.50136 17.5584C7.40727 17.6654 8.58792 17.6667 10.25 17.6667C11.9121 17.6667 13.0928 17.6654 13.9987 17.5584C14.8881 17.4532 15.4144 17.2551 15.8118 16.9289C15.9764 16.7939 16.1273 16.643 16.2623 16.4784C16.5885 16.081 16.7866 15.5547 16.8917 14.6653C16.9988 13.7594 17 12.5788 17 10.9167C17 9.25455 16.9988 8.0739 16.8917 7.16799C16.7866 6.27863 16.5885 5.75229 16.2623 5.35488C16.1273 5.19032 15.9764 5.03943 15.8118 4.90438C15.4665 4.62096 15.0237 4.4342 14.33 4.32115C14.2942 4.70199 13.9736 5 13.5834 5C13.1691 5 12.8334 4.66421 12.8334 4.25ZM6.08336 6.83333C5.66915 6.83333 5.33336 7.16912 5.33336 7.58333C5.33336 7.99754 5.66915 8.33333 6.08336 8.33333H14.4167C14.8309 8.33333 15.1667 7.99754 15.1667 7.58333C15.1667 7.16912 14.8309 6.83333 14.4167 6.83333H6.08336Z" fill="#6B7280"/>
</svg>
