<svg width="24" height="24" viewBox="0 0 24 24" fill="none" xmlns="http://www.w3.org/2000/svg">
<path fill-rule="evenodd" clip-rule="evenodd" d="M18.8407 3.90351C18.3639 3.47011 17.6358 3.4701 17.1591 3.90349C17.1404 3.92048 17.116 3.94458 17.0302 4.03032L16.7233 4.33722C16.699 5.41338 17.5863 6.30082 18.6624 6.27668L18.9695 5.96961C19.0552 5.88387 19.0793 5.85947 19.0963 5.84077C19.5297 5.36402 19.5297 4.63596 19.0964 4.15919C19.0794 4.14049 19.0553 4.11609 18.9695 4.03035C18.8838 3.94461 18.8594 3.92051 18.8407 3.90351ZM19.5421 7.5183L20.0302 7.03027L20.0427 7.01775L20.0428 7.01763L20.0429 7.01754C20.1102 6.9503 20.162 6.8985 20.2063 6.84974C21.1597 5.80087 21.1597 4.19914 20.2063 3.15025C20.162 3.10144 20.1101 3.04959 20.0428 2.98225L20.0427 2.98224L20.0302 2.96971L20.0176 2.95714L20.0176 2.95712C19.9503 2.88979 19.8985 2.83794 19.8497 2.79358C18.8008 1.8401 17.199 1.84008 16.1501 2.79352C16.1013 2.83789 16.0495 2.88975 15.9821 2.95708L15.9696 2.96965L9.03634 9.9028L8.96279 9.97633L8.96278 9.97634C8.25442 10.6844 7.79694 11.1417 7.47819 11.7047C7.15943 12.2677 7.00267 12.8952 6.75995 13.8669L6.73474 13.9678L6.27217 15.8181C6.20827 16.0737 6.28316 16.344 6.46945 16.5303C6.65573 16.7166 6.9261 16.7915 7.18168 16.7276L9.03197 16.265L9.13286 16.2398L9.13287 16.2398C10.1046 15.9971 10.7321 15.8403 11.2951 15.5216C11.8581 15.2028 12.3154 14.7454 13.0234 14.037L13.097 13.9635L19.5175 7.54296C19.5259 7.53493 19.5341 7.5267 19.5421 7.5183ZM17.3916 7.54755C16.5063 7.20187 15.798 6.49353 15.4524 5.60818L10.097 10.9635C9.29022 11.7702 8.98963 12.0796 8.78348 12.4437C8.57734 12.8078 8.46667 13.2248 8.18995 14.3316L8.03055 14.9692L8.66816 14.8098C9.77503 14.5331 10.192 14.4224 10.556 14.2163C10.9201 14.0102 11.2295 13.7096 12.0363 12.9028L17.3916 7.54755ZM3.25 21C3.25 20.5858 3.58579 20.25 4 20.25H20C20.4142 20.25 20.75 20.5858 20.75 21C20.75 21.4142 20.4142 21.75 20 21.75H4C3.58579 21.75 3.25 21.4142 3.25 21Z" fill="#1F1F1F" fill-opacity="0.88"/>
</svg>
