<svg width="20" height="20" viewBox="0 0 20 20" fill="none" xmlns="http://www.w3.org/2000/svg">
<path fill-rule="evenodd" clip-rule="evenodd" d="M2.41602 9.99984C2.41602 9.74476 2.52054 9.29318 2.81297 8.7317C3.09841 8.18367 3.54019 7.57577 4.15389 7.00927C5.37232 5.88457 7.275 4.9165 9.99935 4.9165C12.7237 4.9165 14.6264 5.88457 15.8448 7.00927C16.4585 7.57577 16.9003 8.18367 17.1857 8.7317C17.4782 9.29318 17.5827 9.74476 17.5827 9.99984C17.5827 10.2549 17.4782 10.7065 17.1857 11.268C16.9003 11.816 16.4585 12.4239 15.8448 12.9904C14.6264 14.1151 12.7237 15.0832 9.99935 15.0832C7.275 15.0832 5.37232 14.1151 4.15389 12.9904C3.54019 12.4239 3.09841 11.816 2.81297 11.268C2.52054 10.7065 2.41602 10.2549 2.41602 9.99984ZM9.99935 3.4165C6.89036 3.4165 4.62638 4.53177 3.13647 5.90707C2.39601 6.59057 1.84821 7.33684 1.4826 8.0388C1.12399 8.72733 0.916016 9.42158 0.916016 9.99984C0.916016 10.5781 1.12399 11.2723 1.4826 11.9609C1.84821 12.6628 2.39601 13.4091 3.13647 14.0926C4.62638 15.4679 6.89036 16.5832 9.99935 16.5832C13.1083 16.5832 15.3723 15.4679 16.8622 14.0926C17.6027 13.4091 18.1505 12.6628 18.5161 11.9609C18.8747 11.2723 19.0827 10.5781 19.0827 9.99984C19.0827 9.42158 18.8747 8.72733 18.5161 8.0388C18.1505 7.33684 17.6027 6.59057 16.8622 5.90707C15.3723 4.53177 13.1083 3.4165 9.99935 3.4165ZM8.24927 9.99986C8.24927 9.03336 9.03277 8.24986 9.99927 8.24986C10.9658 8.24986 11.7493 9.03336 11.7493 9.99986C11.7493 10.9664 10.9658 11.7499 9.99927 11.7499C9.03277 11.7499 8.24927 10.9664 8.24927 9.99986ZM9.99927 6.74986C8.20434 6.74986 6.74927 8.20493 6.74927 9.99986C6.74927 11.7948 8.20434 13.2499 9.99927 13.2499C11.7942 13.2499 13.2493 11.7948 13.2493 9.99986C13.2493 8.20493 11.7942 6.74986 9.99927 6.74986Z" fill="#6B7280"/>
</svg>
