<svg width="24" height="24" viewBox="0 0 24 24" fill="none" xmlns="http://www.w3.org/2000/svg">
<path fill-rule="evenodd" clip-rule="evenodd" d="M8.94631 8.94658C8.81957 9.90115 8.75003 10.9277 8.75003 12.0003C8.75003 13.0728 8.81957 14.0994 8.94631 15.054C9.90089 15.1807 10.9275 15.2503 12 15.2503C13.0726 15.2503 14.0992 15.1807 15.0537 15.054C15.1805 14.0994 15.25 13.0728 15.25 12.0003C15.25 10.9277 15.1805 9.90115 15.0537 8.94658C14.0992 8.81983 13.0726 8.75029 12 8.75029C10.9275 8.75029 9.90089 8.81983 8.94631 8.94658ZM7.40253 9.21384C7.3028 10.1041 7.25003 11.0387 7.25003 12.0003C7.25003 12.9619 7.3028 13.8965 7.40253 14.7867C6.58634 14.6099 5.84737 14.3883 5.20751 14.1324C4.35498 13.7914 3.7154 13.4041 3.30121 13.0124C2.88861 12.6222 2.75003 12.2799 2.75003 12.0003C2.75003 11.7207 2.88861 11.3784 3.30121 10.9882C3.7154 10.5965 4.35498 10.2092 5.20751 9.86822C5.84737 9.61228 6.58634 9.39069 7.40253 9.21384ZM9.21357 7.4028C10.1038 7.30306 11.0385 7.25029 12 7.25029C12.9616 7.25029 13.8962 7.30306 14.7865 7.40279C14.6096 6.5866 14.388 5.84763 14.1321 5.20777C13.7911 4.35524 13.4038 3.71566 13.0121 3.30147C12.6219 2.88887 12.2796 2.75029 12 2.75029C11.7204 2.75029 11.3782 2.88887 10.988 3.30147C10.5963 3.71566 10.209 4.35524 9.86796 5.20777C9.61201 5.84763 9.39043 6.5866 9.21357 7.4028ZM16.5975 9.21383C16.6973 10.1041 16.75 11.0387 16.75 12.0003C16.75 12.9619 16.6973 13.8965 16.5975 14.7867C17.4137 14.6099 18.1527 14.3883 18.7926 14.1324C19.6451 13.7913 20.2847 13.4041 20.6989 13.0124C21.1115 12.6222 21.25 12.2799 21.25 12.0003C21.25 11.7207 21.1115 11.3784 20.6989 10.9882C20.2847 10.5965 19.6451 10.2092 18.7926 9.86822C18.1527 9.61228 17.4137 9.39069 16.5975 9.21383ZM14.7865 16.5978C13.8962 16.6975 12.9616 16.7503 12 16.7503C11.0385 16.7503 10.1038 16.6975 9.21357 16.5978C9.39043 17.414 9.61201 18.153 9.86796 18.7928C10.209 19.6453 10.5963 20.2849 10.988 20.6991C11.3782 21.1117 11.7204 21.2503 12 21.2503C12.2796 21.2503 12.6219 21.1117 13.0121 20.6991C13.4038 20.2849 13.7911 19.6453 14.1321 18.7928C14.388 18.153 14.6096 17.414 14.7865 16.5978ZM7.63644 16.3639C6.52907 16.1571 5.51987 15.8729 4.65042 15.5251C3.69331 15.1422 2.86842 14.6676 2.27055 14.1022C2.24974 14.0825 2.22913 14.0626 2.20875 14.0426C3.01476 17.9266 6.07364 20.9855 9.95768 21.7915C9.93766 21.7712 9.91781 21.7506 9.89813 21.7298C9.33272 21.1319 8.85809 20.307 8.47524 19.3499C8.12746 18.4805 7.84326 17.4713 7.63644 16.3639ZM16.3636 16.3639C17.471 16.1571 18.4802 15.8729 19.3496 15.5251C20.3068 15.1422 21.1316 14.6676 21.7295 14.1022C21.7503 14.0825 21.7709 14.0626 21.7913 14.0426C20.9853 17.9267 17.9264 20.9855 14.0424 21.7915C14.0624 21.7712 14.0822 21.7506 14.1019 21.7298C14.6673 21.1319 15.142 20.307 15.5248 19.3499C15.8726 18.4805 16.1568 17.4713 16.3636 16.3639ZM21.7913 9.95797C21.7709 9.93794 21.7503 9.91808 21.7295 9.89839C21.1316 9.33298 20.3068 8.85835 19.3496 8.47551C18.4802 8.12773 17.471 7.84352 16.3636 7.6367C16.1568 6.52933 15.8726 5.52013 15.5248 4.65068C15.142 3.69356 14.6673 2.86868 14.1019 2.27081C14.0822 2.24998 14.0624 2.22937 14.0423 2.20898C17.9264 3.01498 20.9853 6.07389 21.7913 9.95797ZM7.63644 7.6367C6.52907 7.84353 5.51987 8.12773 4.65042 8.47551C3.69331 8.85835 2.86842 9.33298 2.27055 9.8984C2.24973 9.91809 2.22912 9.93795 2.20874 9.95799C3.01473 6.0739 6.07365 3.01498 9.95774 2.20898C9.9377 2.22937 9.91783 2.24998 9.89813 2.27081C9.33272 2.86868 8.85809 3.69356 8.47524 4.65068C8.12746 5.52013 7.84326 6.52933 7.63644 7.6367Z" fill="#1F1F1F" fill-opacity="0.88"/>
</svg>
