<svg width="84" height="73" viewBox="0 0 84 73" fill="none" xmlns="http://www.w3.org/2000/svg">
<mask id="path-1-inside-1_853_20814" fill="white">
<path d="M44 73C52.7762 73 61.2502 69.7941 67.8288 63.985C74.4073 58.1759 78.6372 50.1638 79.7233 41.455C80.8093 32.7462 78.6767 23.9407 73.7264 16.6938C68.7761 9.44699 61.349 4.25807 52.8416 2.10263C44.3341 -0.0528115 35.3323 0.973706 27.5286 4.98918C19.7248 9.00466 13.6567 15.7325 10.465 23.9078C7.27335 32.0831 7.178 41.1428 10.1969 49.3834C13.2158 57.6241 19.141 64.4782 26.8585 68.657L44 37V73Z"/>
</mask>
<path d="M44 73C52.7762 73 61.2502 69.7941 67.8288 63.985C74.4073 58.1759 78.6372 50.1638 79.7233 41.455C80.8093 32.7462 78.6767 23.9407 73.7264 16.6938C68.7761 9.44699 61.349 4.25807 52.8416 2.10263C44.3341 -0.0528115 35.3323 0.973706 27.5286 4.98918C19.7248 9.00466 13.6567 15.7325 10.465 23.9078C7.27335 32.0831 7.178 41.1428 10.1969 49.3834C13.2158 57.6241 19.141 64.4782 26.8585 68.657L44 37V73Z" stroke="white" stroke-width="2" stroke-dasharray="6 6" mask="url(#path-1-inside-1_853_20814)"/>
<ellipse cx="44" cy="37.5" rx="27" ry="26.5" fill="white"/>
<path d="M22.642 15.4192L22.6455 15.416C22.4542 14.9512 22.2292 14.5032 21.9737 14.0687L21.753 13.7101C21.7527 13.7096 21.7524 13.7091 21.7521 13.7086C21.4449 13.2262 21.1004 12.7697 20.7228 12.3391C20.5134 12.1017 20.1515 12.007 19.8148 12.108L19.8146 12.108L17.9225 12.6742L17.9209 12.6746C17.3703 12.8355 16.7791 12.7304 16.3062 12.442C16.0786 12.3064 15.8469 12.1797 15.6064 12.062C15.1046 11.8201 14.7011 11.3879 14.576 10.8419C14.5759 10.8417 14.5759 10.8416 14.5759 10.8415L14.1519 9.01378C14.0794 8.70249 13.8256 8.45594 13.49 8.40436L13.4892 8.40423C12.8443 8.3029 12.1805 8.25 11.5024 8.25C10.8243 8.25 10.1611 8.3029 9.51724 8.40846L9.51478 8.40886L9.51477 8.40885C9.17916 8.46043 8.92544 8.70695 8.85285 9.01823C8.85284 9.01824 8.85284 9.01826 8.85284 9.01828L8.42872 10.8467L8.42833 10.8484C8.29816 11.3925 7.89593 11.8244 7.39854 12.0664L7.39576 12.0677L7.39575 12.0677C7.15878 12.1794 6.9286 12.3094 6.69807 12.4469C6.22306 12.7334 5.63592 12.8456 5.0819 12.6785C5.08185 12.6785 5.0818 12.6785 5.08174 12.6785L3.19015 12.1125L3.18998 12.1125C2.85132 12.0109 2.49086 12.1032 2.2828 12.3426L2.2821 12.3434C1.9045 12.774 1.55989 13.2306 1.25271 13.7131L1.03102 14.0732C0.747079 14.5562 0.500841 15.0558 0.29658 15.5765C0.186845 15.858 0.274672 16.1834 0.530377 16.4L0.531841 16.4012L0.531836 16.4012L2.00298 17.6669C2.00325 17.6672 2.00351 17.6674 2.00378 17.6676C2.44152 18.0384 2.63749 18.5838 2.61079 19.1222C2.60602 19.2525 2.60148 19.3778 2.60148 19.5067C2.60148 19.6357 2.60602 19.7609 2.61079 19.8913C2.63762 20.4279 2.43491 20.9711 2.00552 21.3444L2.00423 21.3455L0.531503 22.608L0.53038 22.609C0.274665 22.8256 0.186839 23.151 0.296589 23.4325C0.50085 23.9532 0.747088 24.4528 1.03103 24.9358L1.25171 25.2944C1.25204 25.2949 1.25237 25.2954 1.2527 25.2959C1.55978 25.7782 1.90427 26.2346 2.28172 26.6652C2.49115 26.9027 2.85319 26.9975 3.18998 26.8965L5.07683 26.326L5.07698 26.326C5.63034 26.1591 6.22251 26.2705 6.69389 26.558C6.92155 26.6937 7.15331 26.8204 7.39391 26.9382C7.88942 27.1793 8.29869 27.6109 8.42404 28.1582C8.42406 28.1583 8.42409 28.1584 8.42412 28.1585L8.84807 29.9862C8.84808 29.9863 8.84808 29.9863 8.84809 29.9863C8.9207 30.2976 9.17441 30.5441 9.51001 30.5956L9.51083 30.5958C10.1557 30.6971 10.8195 30.75 11.4976 30.75C12.1757 30.75 12.8395 30.6971 13.4844 30.5958L13.4852 30.5956C13.8209 30.5441 14.0746 30.2975 14.1472 29.9862L14.5713 28.1578L14.5717 28.1561C14.7018 27.612 15.1041 27.1801 15.6015 26.9381L15.6042 26.9368L15.6043 26.9368C15.8412 26.8251 16.0713 26.6951 16.3018 26.5577C16.7768 26.2711 17.3638 26.1589 17.9177 26.3258L22.642 15.4192ZM22.642 15.4192L22.7033 15.5763C22.8132 15.8579 22.7254 16.1833 22.4696 16.4L22.4685 16.4009L20.9958 17.6635L20.9945 17.6646C20.5651 18.0379 20.3624 18.5811 20.3892 19.1178C20.394 19.2481 20.3985 19.3733 20.3985 19.5022C20.3985 19.6312 20.394 19.7565 20.3892 19.8868C20.3625 20.4253 20.5585 20.9708 20.9965 21.3416C20.9967 21.3418 20.9968 21.3419 20.997 21.3421L22.4685 22.6036L22.4696 22.6045C22.7253 22.8211 22.8131 23.1464 22.7034 23.4279C22.4992 23.9487 22.2529 24.4483 21.969 24.9313L21.7483 25.2899C21.748 25.2904 21.7476 25.2909 21.7473 25.2914C21.4401 25.7739 21.0955 26.2305 20.7179 26.6611L20.7172 26.6619C20.5091 26.9013 20.1487 26.9936 19.81 26.892L19.8099 26.892L17.9183 26.326L22.642 15.4192ZM11.5024 23.3467C12.5753 23.3467 13.6071 22.945 14.37 22.2258C15.1334 21.5061 15.5653 20.5268 15.5653 19.5022C15.5653 18.4777 15.1334 17.4984 14.37 16.7787C13.6071 16.0595 12.5753 15.6578 11.5024 15.6578C10.4294 15.6578 9.3977 16.0595 8.63478 16.7787C7.87137 17.4984 7.43951 18.4777 7.43951 19.5022C7.43951 20.5268 7.87137 21.5061 8.63478 22.2258C9.3977 22.945 10.4294 23.3467 11.5024 23.3467Z" fill="white" stroke="white" stroke-width="0.5"/>
<path d="M22.642 15.4192L22.6455 15.416C22.4542 14.9512 22.2292 14.5032 21.9737 14.0687L21.753 13.7101C21.7527 13.7096 21.7524 13.7091 21.7521 13.7086C21.4449 13.2262 21.1004 12.7697 20.7228 12.3391C20.5134 12.1017 20.1515 12.007 19.8148 12.108L19.8146 12.108L17.9225 12.6742L17.9209 12.6746C17.3703 12.8355 16.7791 12.7304 16.3062 12.442C16.0786 12.3064 15.8469 12.1797 15.6064 12.062C15.1046 11.8201 14.7011 11.3879 14.576 10.8419C14.5759 10.8417 14.5759 10.8416 14.5759 10.8415L14.1519 9.01378C14.0794 8.70249 13.8256 8.45594 13.49 8.40436L13.4892 8.40423C12.8443 8.3029 12.1805 8.25 11.5024 8.25C10.8243 8.25 10.1611 8.3029 9.51724 8.40846L9.51478 8.40886L9.51477 8.40885C9.17916 8.46043 8.92544 8.70695 8.85285 9.01823C8.85284 9.01824 8.85284 9.01826 8.85284 9.01828L8.42872 10.8467L8.42833 10.8484C8.29816 11.3925 7.89593 11.8244 7.39854 12.0664L7.39576 12.0677L7.39575 12.0677C7.15878 12.1794 6.9286 12.3094 6.69807 12.4469C6.22306 12.7334 5.63592 12.8456 5.0819 12.6785C5.08185 12.6785 5.0818 12.6785 5.08174 12.6785L3.19015 12.1125L3.18998 12.1125C2.85132 12.0109 2.49086 12.1032 2.2828 12.3426L2.2821 12.3434C1.9045 12.774 1.55989 13.2306 1.25271 13.7131L1.03102 14.0732C0.747079 14.5562 0.500841 15.0558 0.29658 15.5765C0.186845 15.858 0.274672 16.1834 0.530377 16.4L0.531841 16.4012L0.531836 16.4012L2.00298 17.6669C2.00325 17.6672 2.00351 17.6674 2.00378 17.6676C2.44152 18.0384 2.63749 18.5838 2.61079 19.1222C2.60602 19.2525 2.60148 19.3778 2.60148 19.5067C2.60148 19.6357 2.60602 19.7609 2.61079 19.8913C2.63762 20.4279 2.43491 20.9711 2.00552 21.3444L2.00423 21.3455L0.531503 22.608L0.53038 22.609C0.274665 22.8256 0.186839 23.151 0.296589 23.4325C0.50085 23.9532 0.747088 24.4528 1.03103 24.9358L1.25171 25.2944C1.25204 25.2949 1.25237 25.2954 1.2527 25.2959C1.55978 25.7782 1.90427 26.2346 2.28172 26.6652C2.49115 26.9027 2.85319 26.9975 3.18998 26.8965L5.07683 26.326L5.07698 26.326C5.63034 26.1591 6.22251 26.2705 6.69389 26.558C6.92155 26.6937 7.15331 26.8204 7.39391 26.9382C7.88942 27.1793 8.29869 27.6109 8.42404 28.1582C8.42406 28.1583 8.42409 28.1584 8.42412 28.1585L8.84807 29.9862C8.84808 29.9863 8.84808 29.9863 8.84809 29.9863C8.9207 30.2976 9.17441 30.5441 9.51001 30.5956L9.51083 30.5958C10.1557 30.6971 10.8195 30.75 11.4976 30.75C12.1757 30.75 12.8395 30.6971 13.4844 30.5958L13.4852 30.5956C13.8209 30.5441 14.0746 30.2975 14.1472 29.9862L14.5713 28.1578L14.5717 28.1561C14.7018 27.612 15.1041 27.1801 15.6015 26.9381L15.6042 26.9368L15.6043 26.9368C15.8412 26.8251 16.0713 26.6951 16.3018 26.5577C16.7768 26.2711 17.3638 26.1589 17.9177 26.3258L22.642 15.4192ZM22.642 15.4192L22.7033 15.5763C22.8132 15.8579 22.7254 16.1833 22.4696 16.4L22.4685 16.4009L20.9958 17.6635L20.9945 17.6646C20.5651 18.0379 20.3624 18.5811 20.3892 19.1178C20.394 19.2481 20.3985 19.3733 20.3985 19.5022C20.3985 19.6312 20.394 19.7565 20.3892 19.8868C20.3625 20.4253 20.5585 20.9708 20.9965 21.3416C20.9967 21.3418 20.9968 21.3419 20.997 21.3421L22.4685 22.6036L22.4696 22.6045C22.7253 22.8211 22.8131 23.1464 22.7034 23.4279C22.4992 23.9487 22.2529 24.4483 21.969 24.9313L21.7483 25.2899C21.748 25.2904 21.7476 25.2909 21.7473 25.2914C21.4401 25.7739 21.0955 26.2305 20.7179 26.6611L20.7172 26.6619C20.5091 26.9013 20.1487 26.9936 19.81 26.892L19.8099 26.892L17.9183 26.326L22.642 15.4192ZM11.5024 23.3467C12.5753 23.3467 13.6071 22.945 14.37 22.2258C15.1334 21.5061 15.5653 20.5268 15.5653 19.5022C15.5653 18.4777 15.1334 17.4984 14.37 16.7787C13.6071 16.0595 12.5753 15.6578 11.5024 15.6578C10.4294 15.6578 9.3977 16.0595 8.63478 16.7787C7.87137 17.4984 7.43951 18.4777 7.43951 19.5022C7.43951 20.5268 7.87137 21.5061 8.63478 22.2258C9.3977 22.945 10.4294 23.3467 11.5024 23.3467Z" fill="#E2D3F8" stroke="white" stroke-width="0.5"/>
<path d="M31.9004 63.0996V67.2246H28.6004" stroke="#E4D256"/>
<path d="M36.0254 63.0996V71.3496H32.7254" stroke="#E4D256"/>
<path d="M44.2754 63.0996V67.2246H47.5754" stroke="#E4D256"/>
<path d="M40.1504 63.0996V71.3496H42.6254" stroke="#E4D256"/>
<path d="M27.1262 49.1393L27.4736 49.0171L27.46 48.6492C27.4548 48.5084 27.45 48.3784 27.45 48.25C27.45 43.968 30.918 40.5 35.2 40.5C38.0717 40.5 40.576 42.0585 41.9187 44.3852L42.1861 44.8486L42.6303 44.5505C43.3345 44.078 44.1867 43.8 45.1 43.8C47.5567 43.8 49.55 45.7933 49.55 48.25C49.55 48.8153 49.4436 49.3534 49.2526 49.8566L49.0434 50.4075L49.621 50.5242C52.4033 51.0863 54.5 53.5506 54.5 56.5C54.5 59.8693 51.7693 62.6 48.4 62.6H29.425C25.6019 62.6 22.5 59.4981 22.5 55.675C22.5 52.6557 24.4326 50.0869 27.1262 49.1393Z" fill="#461E80" stroke="#E4D256"/>
<circle cx="38.5" cy="57.3252" r="8.25" fill="#21B3FF"/>
<path d="M43.187 55.9564L43.1311 55.8132C43.0513 55.6282 42.9595 55.4486 42.8567 55.2736L42.7546 55.1077C42.6153 54.8891 42.4589 54.6819 42.2874 54.4862L42.4753 54.3214M43.187 55.9564L32.9871 55.9568C33.0794 55.7213 33.1909 55.495 33.3197 55.2757L33.4218 55.1098C33.5611 54.8911 33.7175 54.684 33.8891 54.4883L33.8898 54.4875C33.9478 54.4208 34.059 54.386 34.1738 54.4205L34.1739 54.4205L35.0557 54.6843C35.0558 54.6844 35.0559 54.6844 35.0561 54.6844C35.3559 54.7748 35.6685 54.7128 35.9172 54.5626L35.788 54.3486M43.187 55.9564C43.2154 56.0293 43.1963 56.1222 43.1161 56.1901L43.1149 56.1911M43.187 55.9564L43.1149 56.1911M42.4753 54.3214L42.2878 54.4867C42.2285 54.4194 42.1157 54.3845 42.0027 54.4184L42.0025 54.4184L41.1202 54.6824L41.1187 54.6829C40.8224 54.7694 40.5084 54.7123 40.2594 54.5606C40.1564 54.4993 40.0519 54.4422 39.9437 54.3891C39.6809 54.2624 39.4606 54.0316 39.3914 53.7302C39.3914 53.73 39.3914 53.7299 39.3913 53.7297L39.1938 52.878C39.1721 52.7849 39.0964 52.711 38.9948 52.6954L38.994 52.6953C38.7001 52.6491 38.3975 52.625 38.0882 52.625C37.779 52.625 37.4769 52.6491 37.1841 52.6971L37.1817 52.6975L37.1817 52.6975C37.0801 52.7131 37.0045 52.7869 36.9827 52.8799C36.9827 52.88 36.9827 52.88 36.9827 52.8801L36.7849 53.7326L36.7845 53.7342C36.7129 54.0338 36.4938 54.2642 36.233 54.3911L36.2302 54.3925L36.2302 54.3925C36.1253 54.4419 36.0221 54.5001 35.916 54.5633L35.788 54.3486M42.4753 54.3214C42.3442 54.1726 42.1264 54.1202 41.9308 54.1789L42.9665 54.9751C42.8198 54.7446 42.6554 54.5267 42.4753 54.3214ZM35.788 54.3486C35.5902 54.468 35.3502 54.512 35.1279 54.445L34.2456 54.181C34.05 54.1223 33.8322 54.1726 33.7011 54.3235L37.1437 52.4504C36.9392 52.4819 36.7836 52.6327 36.7392 52.8234L36.5414 53.6761C36.4903 53.8898 36.3303 54.0658 36.1236 54.1663C36.008 54.2208 35.8969 54.2837 35.788 54.3486ZM43.1149 56.1911L42.4282 56.7798L42.4269 56.781L43.1149 56.1911ZM43.1161 59.287L43.1149 59.286L42.4294 58.6983C42.4292 58.6981 42.429 58.698 42.4288 58.6978C42.1894 58.4949 42.0849 58.1988 42.0989 57.9122C42.1011 57.8514 42.1031 57.7956 42.1031 57.7385C42.1031 57.6815 42.1011 57.6257 42.0989 57.565C42.0989 57.5644 42.0988 57.5639 42.0988 57.5633L42.3487 57.5542L43.1161 59.287ZM43.1161 59.287C43.1963 59.3549 43.2154 59.4477 43.187 59.5206C43.0947 59.756 42.9833 59.9822 42.8545 60.2013L42.7524 60.3673C42.6131 60.586 42.4567 60.7931 42.2851 60.9888L42.2844 60.9896M43.1161 59.287L42.2844 60.9896M42.2844 60.9896C42.2264 61.0563 42.1153 61.0911 42.0004 61.0566L42.0003 61.0566M42.2844 60.9896L42.0003 61.0566M42.0003 61.0566L41.1185 60.7928L42.0003 61.0566ZM36.1214 61.3108L36.2307 61.086C36.4897 61.212 36.7134 61.4422 36.7828 61.7449C36.7828 61.745 36.7828 61.7451 36.7829 61.7453L36.9804 62.597C36.9805 62.5971 36.9805 62.5971 36.9805 62.5972C37.0023 62.6902 37.0779 62.764 37.1794 62.7796L37.1803 62.7797C37.4741 62.8259 37.7768 62.85 38.086 62.85C38.3952 62.85 38.6979 62.8259 38.9917 62.7797L38.9926 62.7796C39.0941 62.764 39.1697 62.6902 39.1915 62.5972C39.1915 62.5971 39.1915 62.5971 39.1916 62.597L39.3893 61.7445L39.3897 61.7429C39.4613 61.4433 39.6804 61.2129 39.9413 61.086L39.944 61.0846L39.9441 61.0846C40.0489 61.0352 40.1521 60.977 40.2582 60.9138L40.3862 61.1285C40.2773 61.1934 40.1662 61.2563 40.0506 61.3108C39.844 61.4113 39.6839 61.5873 39.6328 61.801L39.435 62.6537C39.3906 62.8444 39.235 62.9952 39.0305 63.0267C38.7238 63.0749 38.4083 63.1 38.086 63.1C37.7637 63.1 37.4482 63.0749 37.1415 63.0267C36.937 62.9952 36.7814 62.8444 36.737 62.6537L36.5392 61.801C36.4903 61.5873 36.328 61.4113 36.1214 61.3108ZM36.1214 61.3108C36.0058 61.2542 35.8947 61.1934 35.7858 61.1285L35.916 60.9151C35.9157 60.9149 35.9153 60.9146 35.9149 60.9144M36.1214 61.3108L36.2313 61.0862C36.1228 61.0331 36.018 60.9759 35.9149 60.9144M35.9149 60.9144C35.6673 60.7637 35.3524 60.7026 35.0535 60.7928L35.0533 60.7928L34.1738 61.0587L34.2456 61.2982M35.9149 60.9144L35.1257 61.0321L34.2456 61.2982M34.2456 61.2982L34.1733 61.0589L34.1733 61.0589M34.2456 61.2982C34.05 61.3568 33.8322 61.3045 33.7011 61.1557M34.1733 61.0589L33.7456 56.7816C33.9849 56.9845 34.0893 57.2805 34.0753 57.567C34.0731 57.6278 34.0711 57.6836 34.0711 57.7406C34.0711 57.7977 34.0731 57.8534 34.0753 57.9142C34.0894 58.2015 33.9808 58.4953 33.7473 58.6982L33.746 58.6994L33.746 58.6994L33.0593 59.2881L33.0582 59.2891L33.0582 59.2891C32.978 59.357 32.9588 59.4497 32.9872 59.5227C33.0795 59.758 33.1909 59.9843 33.3197 60.2034L33.4218 60.3694C33.5611 60.588 33.7175 60.7952 33.8891 60.9909L33.7011 61.1557M34.1733 61.0589C34.0605 61.0925 33.9479 61.0576 33.8886 60.9904L33.7011 61.1557M34.1733 61.0589L33.7011 61.1557M38.0882 59.6647C38.6215 59.6647 39.1356 59.4651 39.5169 59.1056C39.8987 58.7457 40.1162 58.2543 40.1162 57.7385C40.1162 57.2228 39.8987 56.7314 39.5169 56.3715C39.1356 56.012 38.6215 55.8124 38.0882 55.8124C37.555 55.8124 37.0408 56.012 36.6595 56.3715C36.2777 56.7314 36.0603 57.2228 36.0603 57.7385C36.0603 58.2543 36.2777 58.7457 36.6595 59.1056C37.0408 59.4651 37.555 59.6647 38.0882 59.6647Z" fill="white" stroke="white" stroke-width="0.5"/>
<circle cx="26.9508" cy="67.2252" r="1.15" fill="#C54647" stroke="#E4D256"/>
<circle cx="31.0758" cy="71.3502" r="1.15" fill="#21B3FF" stroke="#E4D256"/>
<circle cx="44.275" cy="71.3502" r="1.15" fill="#E4D256" stroke="#E4D256"/>
<circle cx="49.2242" cy="67.2252" r="1.15" fill="white" stroke="#E4D256"/>
<path d="M52.7132 12.3923L52.8412 12.607C52.9704 12.5299 53.0971 12.4585 53.2265 12.3975L53.2266 12.3975L53.2293 12.3961C53.534 12.2479 53.7871 11.9801 53.8696 11.6352L53.8699 11.6336L54.1096 10.6002C54.1097 10.6001 54.1097 10.6 54.1097 10.6C54.1409 10.4666 54.2495 10.3608 54.3944 10.3385L54.3944 10.3385L54.3969 10.3381C54.7548 10.2795 55.1237 10.25 55.5013 10.25C55.8789 10.25 56.2485 10.2795 56.6074 10.3359L56.6083 10.336C56.7532 10.3583 56.8618 10.464 56.893 10.5974C56.893 10.5974 56.893 10.5974 56.893 10.5974C56.893 10.5975 56.893 10.5976 56.8931 10.5977L57.1326 11.6303C57.1326 11.6304 57.1326 11.6306 57.1327 11.6307C57.2122 11.9775 57.4665 12.2456 57.7735 12.3937C57.9063 12.4587 58.0344 12.5287 58.1604 12.6038C58.4509 12.7808 58.8163 12.8469 59.1597 12.7465L59.1613 12.7461L60.2307 12.4261L60.2309 12.426C60.3853 12.3797 60.5441 12.4256 60.6313 12.5244C60.841 12.7635 61.0322 13.0168 61.2025 13.2843L61.3268 13.4862C61.4559 13.7058 61.5707 13.9313 61.6702 14.1642L61.6698 14.1647L60.6655 16.2778L60.4157 16.2869C60.4157 16.2875 60.4157 16.2881 60.4157 16.2886C60.4184 16.3623 60.4209 16.4309 60.4209 16.5013C60.4209 16.5717 60.4184 16.6403 60.4157 16.714C60.3994 17.0473 60.5208 17.3895 60.797 17.6236C60.7972 17.6238 60.7974 17.624 60.7977 17.6241L61.6288 18.3367L61.63 18.3377C61.7426 18.4331 61.7745 18.5688 61.7312 18.6804C61.6181 18.9687 61.4817 19.2457 61.3241 19.5138L61.1998 19.7158C61.0294 19.9833 60.8381 20.2367 60.6284 20.4759L60.6277 20.4767C60.5419 20.5754 60.3845 20.6209 60.2282 20.574L60.228 20.5739L59.1591 20.2541C59.159 20.2541 59.1588 20.254 59.1587 20.254C58.8119 20.1495 58.4487 20.2207 58.1581 20.3959C58.0292 20.4728 57.9026 20.5442 57.7734 20.6051L57.7734 20.6051L57.7707 20.6064C57.466 20.7547 57.2129 21.0224 57.1304 21.3673L57.1301 21.369L56.8904 22.4023C56.8904 22.4023 56.8904 22.4024 56.8903 22.4024C56.8592 22.5359 56.7505 22.6417 56.6056 22.664L56.6047 22.6641C56.2458 22.7205 55.8763 22.75 55.4987 22.75C55.1211 22.75 54.7515 22.7205 54.3926 22.6641L54.3917 22.664C54.2467 22.6417 54.1381 22.5358 54.1069 22.4023L53.8674 21.3697C53.8674 21.3696 53.8674 21.3695 53.8673 21.3693C53.7876 21.0215 53.5298 20.7541 53.2272 20.6067C53.0942 20.5416 52.9659 20.4715 52.8396 20.3962C52.5506 20.2201 52.1843 20.1497 51.8382 20.2541L51.8381 20.2542L50.7718 20.5765C50.7717 20.5765 50.7717 20.5766 50.7716 20.5766C50.6173 20.6228 50.4586 20.5769 50.3714 20.4782C50.1617 20.2391 49.9705 19.9858 49.8002 19.7183L49.6759 19.5163C49.5184 19.2483 49.3819 18.9714 49.2689 18.6831C49.2254 18.5715 49.2573 18.4357 49.37 18.3402L49.3712 18.3392L50.2036 17.6256L50.2036 17.6256L50.2049 17.6245C50.4747 17.39 50.6007 17.05 50.5843 16.7165C50.5816 16.6428 50.5791 16.5742 50.5791 16.5038C50.5791 16.4334 50.5816 16.3648 50.5843 16.2911C50.6006 15.9579 50.4792 15.6157 50.2032 15.3816L49.3715 14.6661L49.3715 14.6661L49.37 14.6649C49.2573 14.5693 49.2254 14.4334 49.2689 14.3218L49.036 14.2309M52.7132 12.3923L52.8424 12.6063C52.5517 12.7818 52.1882 12.8531 51.8412 12.7485C51.8411 12.7485 51.841 12.7485 51.8409 12.7484L50.772 12.4286L50.7718 12.4286C50.6155 12.3817 50.4581 12.4271 50.3723 12.5258L50.3716 12.5266C50.1619 12.7658 49.9706 13.0192 49.8002 13.2868L49.6759 13.4887C49.5183 13.7568 49.3819 14.0338 49.2688 14.3222L49.036 14.2309M52.7132 12.3923C52.4734 12.537 52.1825 12.5903 51.9131 12.5091L54.3564 10.0914C54.1086 10.1295 53.92 10.3124 53.8662 10.5435L53.6264 11.5771C53.5644 11.8361 53.3705 12.0494 53.12 12.1713C52.9799 12.2374 52.8452 12.3135 52.7132 12.3923ZM49.036 14.2309C48.9498 14.4518 49.0226 14.6982 49.2084 14.8556L49.4617 13.3598C49.2973 13.6392 49.1546 13.9287 49.036 14.2309ZM55.5013 18.7829C56.1346 18.7829 56.7447 18.5459 57.1967 18.1198C57.6492 17.6932 57.9065 17.1113 57.9065 16.5013C57.9065 15.8912 57.6492 15.3094 57.1967 14.8828C56.7447 14.4566 56.1346 14.2196 55.5013 14.2196C54.8681 14.2196 54.258 14.4566 53.806 14.8828C53.3534 15.3094 53.0962 15.8912 53.0962 16.5013C53.0962 17.1113 53.3534 17.6932 53.806 18.1198C54.258 18.5459 54.8681 18.7829 55.5013 18.7829Z" fill="white" stroke="#461E80" stroke-width="0.5"/>
<path d="M47.7366 13.6709L47.6793 13.524C47.5973 13.3338 47.503 13.1494 47.3974 12.9697L47.2926 12.7994C47.1496 12.575 46.9891 12.3623 46.8131 12.1615C46.7504 12.0904 46.6321 12.0542 46.5141 12.0896L46.5139 12.0897L45.609 12.3604L45.6075 12.3609C45.3056 12.4491 44.9853 12.3909 44.7313 12.2362C44.6255 12.1731 44.5182 12.1145 44.4069 12.06C44.1388 11.9307 43.9144 11.6954 43.844 11.3884C43.844 11.3883 43.844 11.3882 43.8439 11.388L43.6413 10.5145C43.6413 10.5144 43.6413 10.5143 43.6412 10.5143C43.6183 10.4164 43.5387 10.3387 43.4319 10.3223L43.4311 10.3222C43.1294 10.2748 42.8186 10.25 42.5011 10.25C42.1836 10.25 41.8735 10.2748 41.5728 10.3241L41.5704 10.3245L41.5704 10.3245C41.4636 10.3409 41.384 10.4185 41.3611 10.5163C41.3611 10.5164 41.3611 10.5164 41.3611 10.5164C41.361 10.5164 41.361 10.5165 41.361 10.5166L41.1582 11.3909L41.1578 11.3926C41.0848 11.6976 40.8616 11.9326 40.5955 12.0621L40.5927 12.0634L40.5927 12.0634C40.4849 12.1142 40.3788 12.174 40.27 12.2389L40.1419 12.0242M47.7366 13.6709L37.2632 13.6713C37.3581 13.4294 37.4726 13.197 37.6049 12.9718L37.7097 12.8015C37.8527 12.577 38.0133 12.3642 38.1895 12.1633L38.1902 12.1624C38.2516 12.0919 38.3683 12.0558 38.4882 12.0918L38.4883 12.0918L39.3927 12.3624C39.3928 12.3624 39.3929 12.3625 39.393 12.3625C39.6986 12.4546 40.0174 12.3915 40.2711 12.2382L40.1419 12.0242M47.7366 13.6709C47.7669 13.7485 47.7462 13.8465 47.662 13.9179L47.6609 13.9188M47.7366 13.6709L47.6609 13.9188M40.1419 12.0242C40.2536 11.9576 40.3676 11.8931 40.4861 11.8373M40.1419 12.0242C39.9391 12.1467 39.6929 12.1918 39.4649 12.1231L38.56 11.8523C38.3594 11.7921 38.136 11.8437 38.0015 11.9984L40.4861 11.8373M40.4861 11.8373C40.6981 11.7341 40.8622 11.5536 40.9147 11.3344L41.1175 10.4599C41.1631 10.2643 41.3227 10.1096 41.5324 10.0774M40.4861 11.8373L41.5324 10.0774M41.5324 10.0774C41.8469 10.0258 42.1706 10 42.5011 10C42.8317 10 43.1553 10.0258 43.4699 10.0752L41.5324 10.0774ZM47.6609 13.9188L46.9566 14.5226L46.9553 14.5238L47.6609 13.9188ZM47.662 17.0843L47.6609 17.0833L46.9578 16.4806C46.9576 16.4804 46.9574 16.4802 46.9572 16.48C46.7133 16.2734 46.6068 15.9717 46.621 15.6794C46.6233 15.6171 46.6254 15.5597 46.6254 15.5011C46.6254 15.4424 46.6233 15.3851 46.621 15.3228C46.621 15.3222 46.621 15.3217 46.621 15.3211L46.8708 15.312L47.662 17.0843ZM47.662 17.0843C47.7462 17.1556 47.7669 17.2536 47.7366 17.3312C47.6418 17.5729 47.5274 17.8053 47.3951 18.0303L47.2903 18.2006C47.1473 18.4252 46.9867 18.638 46.8105 18.8389L46.8098 18.8397M47.662 17.0843L46.8098 18.8397M46.8098 18.8397C46.7484 18.9103 46.6317 18.9463 46.5118 18.9104L46.5117 18.9103M46.8098 18.8397L46.5117 18.9103M46.5117 18.9103L45.6073 18.6397L46.5117 18.9103ZM40.4838 19.1649L40.5932 18.9401C40.8575 19.0687 41.0853 19.3034 41.156 19.6116C41.156 19.6117 41.156 19.6118 41.1561 19.612L41.3587 20.4855C41.3587 20.4856 41.3587 20.4857 41.3588 20.4858C41.3817 20.5836 41.4613 20.6613 41.5681 20.6777L41.5689 20.6778C41.8706 20.7252 42.1814 20.75 42.4989 20.75C42.8164 20.75 43.1271 20.7252 43.4288 20.6778L43.4296 20.6777C43.5365 20.6613 43.6162 20.5835 43.639 20.4855L43.8418 19.6112L43.8422 19.6096C43.9152 19.3045 44.1384 19.0696 44.4045 18.9401L44.4073 18.9387L44.4073 18.9387C44.5151 18.8879 44.6212 18.8281 44.73 18.7632L44.8581 18.9779C44.7464 19.0445 44.6324 19.109 44.5139 19.1649C44.3019 19.268 44.1378 19.4485 44.0853 19.6677L43.8825 20.5423C43.8369 20.7378 43.6773 20.8926 43.4676 20.9248C43.1531 20.9742 42.8294 21 42.4989 21C42.1683 21 41.8447 20.9742 41.5301 20.9248C41.3204 20.8926 41.1608 20.7378 41.1152 20.5423L40.9124 19.6677C40.8622 19.4485 40.6958 19.268 40.4838 19.1649ZM40.4838 19.1649C40.3653 19.1069 40.2513 19.0445 40.1396 18.9779L40.2699 18.7646C40.2695 18.7643 40.2691 18.7641 40.2687 18.7638M40.4838 19.1649L40.5937 18.9403C40.4823 18.8858 40.3747 18.827 40.2687 18.7638M40.2687 18.7638C40.0161 18.61 39.6951 18.5478 39.3904 18.6397L39.3903 18.6398L38.4882 18.9125L38.56 19.152M40.2687 18.7638L39.4627 18.8791L38.56 19.152M38.56 19.152L38.4876 18.9127L38.4877 18.9127C38.3699 18.9478 38.2519 18.9116 38.1892 18.8407M38.56 19.152C38.3594 19.2122 38.136 19.1584 38.0015 19.0059M38.0015 19.0059L38.1895 18.841C38.1894 18.8409 38.1893 18.8408 38.1892 18.8407M38.0015 19.0059L38.1891 18.8405C38.1891 18.8406 38.1892 18.8407 38.1892 18.8407M38.0015 19.0059L38.1892 18.8407M38.1892 18.8407C38.0132 18.6399 37.8527 18.4272 37.7097 18.2028L37.6049 18.0325C37.4726 17.8074 37.3582 17.575 37.2633 17.3333C37.2331 17.2557 37.2538 17.1577 37.338 17.0864L37.338 17.0864L37.3391 17.0855L38.0434 16.4817L38.0434 16.4817L38.0447 16.4805C38.2826 16.2737 38.3933 15.9744 38.379 15.6815C38.3767 15.6192 38.3746 15.5619 38.3746 15.5032C38.3746 15.4446 38.3767 15.3872 38.379 15.3249C38.3932 15.0327 38.2867 14.7311 38.043 14.5244L38.1892 18.8407ZM42.5011 17.4702C43.0465 17.4702 43.5722 17.2661 43.9621 16.8986C44.3524 16.5306 44.5747 16.0282 44.5747 15.5011C44.5747 14.9739 44.3524 14.4716 43.9621 14.1036C43.5722 13.7361 43.0465 13.532 42.5011 13.532C41.9558 13.532 41.4301 13.7361 41.0402 14.1036C40.6499 14.4716 40.4276 14.9739 40.4276 15.5011C40.4276 16.0282 40.6499 16.5306 41.0402 16.8986C41.4301 17.2661 41.9558 17.4702 42.5011 17.4702Z" fill="#C54647" stroke="#461E80" stroke-width="0.5"/>
<path d="M42.7857 26.75C42.7857 25.7554 43.177 24.8016 43.8736 24.0983C44.5702 23.3951 45.5149 23 46.5 23C47.4851 23 48.4298 23.3951 49.1264 24.0983C49.823 24.8016 50.2143 25.7554 50.2143 26.75C50.2143 27.7446 49.823 28.6984 49.1264 29.4017C48.4298 30.1049 47.4851 30.5 46.5 30.5C45.5149 30.5 44.5702 30.1049 43.8736 29.4017C43.177 28.6984 42.7857 27.7446 42.7857 26.75ZM40 37.1299C40 34.2441 42.3156 31.9062 45.1739 31.9062H47.8261C50.6844 31.9062 53 34.2441 53 37.1299C53 37.6104 52.6141 38 52.1382 38H40.8618C40.3859 38 40 37.6104 40 37.1299Z" fill="#E2D3F8"/>
<path d="M57.7857 26.75C57.7857 25.7554 58.177 24.8016 58.8736 24.0983C59.5702 23.3951 60.5149 23 61.5 23C62.4851 23 63.4298 23.3951 64.1264 24.0983C64.823 24.8016 65.2143 25.7554 65.2143 26.75C65.2143 27.7446 64.823 28.6984 64.1264 29.4017C63.4298 30.1049 62.4851 30.5 61.5 30.5C60.5149 30.5 59.5702 30.1049 58.8736 29.4017C58.177 28.6984 57.7857 27.7446 57.7857 26.75ZM55 37.1299C55 34.2441 57.3156 31.9062 60.1739 31.9062H62.8261C65.6844 31.9062 68 34.2441 68 37.1299C68 37.6104 67.6141 38 67.1382 38H55.8618C55.3859 38 55 37.6104 55 37.1299Z" fill="#E2D3F8"/>
<path d="M50.7857 29.75C50.7857 28.7554 51.177 27.8016 51.8736 27.0983C52.5702 26.3951 53.5149 26 54.5 26C55.4851 26 56.4298 26.3951 57.1264 27.0983C57.823 27.8016 58.2143 28.7554 58.2143 29.75C58.2143 30.7446 57.823 31.6984 57.1264 32.4017C56.4298 33.1049 55.4851 33.5 54.5 33.5C53.5149 33.5 52.5702 33.1049 51.8736 32.4017C51.177 31.6984 50.7857 30.7446 50.7857 29.75ZM48 40.1299C48 37.2441 50.3156 34.9062 53.1739 34.9062H55.8261C58.6844 34.9062 61 37.2441 61 40.1299C61 40.6104 60.6141 41 60.1382 41H48.8618C48.3859 41 48 40.6104 48 40.1299Z" fill="#461E80"/>
</svg>
