<svg width="73" height="72" viewBox="0 0 73 72" fill="none" xmlns="http://www.w3.org/2000/svg">
<path d="M71.9858 27.5372C72.4308 29.3591 72.7354 31.235 72.8876 33.1532L72.3891 33.1927C72.4626 34.1188 72.5 35.0551 72.5 36C72.5 36.9449 72.4626 37.8811 72.3891 38.8073L72.8876 38.8468C72.7354 40.765 72.4308 42.6409 71.9858 44.4628L71.5001 44.3442C71.0521 46.178 70.4598 47.9563 69.7356 49.6669L70.196 49.8618C69.4523 51.6183 68.5716 53.3043 67.567 54.9067L67.1433 54.6411C66.1474 56.2298 65.0278 57.7354 63.7978 59.1447L64.1745 59.4735C62.9273 60.9026 61.5682 62.2341 60.1107 63.4546L59.7897 63.0713C58.3585 64.2698 56.831 65.3599 55.2203 66.3288L55.478 66.7573C53.8605 67.7302 52.1603 68.5826 50.3901 69.3016L50.2019 68.8383C48.4826 69.5367 46.6963 70.1076 44.8553 70.5391L44.9693 71.0259C43.1445 71.4535 41.2666 71.746 39.3471 71.8921L39.3092 71.3935C38.3823 71.4641 37.4454 71.5 36.5 71.5C35.5546 71.5 34.6177 71.4641 33.6908 71.3935L33.6529 71.8921C31.7334 71.746 29.8555 71.4535 28.0307 71.0259L28.1447 70.5391C26.3037 70.1076 24.5174 69.5367 22.7981 68.8383L22.6099 69.3016C20.8397 68.5826 19.1395 67.7302 17.522 66.7573L17.7797 66.3288C16.169 65.3599 14.6415 64.2698 13.2103 63.0713L12.8893 63.4546C11.4318 62.2341 10.0727 60.9026 8.82546 59.4735L9.20217 59.1447C7.97222 57.7354 6.85265 56.2298 5.85665 54.6411L5.43302 54.9067C4.4284 53.3043 3.54767 51.6183 2.804 49.8618L3.26444 49.6669C2.54022 47.9563 1.94789 46.178 1.49994 44.3442L1.01422 44.4628C0.569162 42.6409 0.264594 40.765 0.112452 38.8468L0.610887 38.8073C0.537428 37.8812 0.5 36.9449 0.5 36C0.5 35.0551 0.537428 34.1189 0.610887 33.1927L0.112452 33.1532C0.264594 31.235 0.569162 29.3591 1.01422 27.5372L1.49994 27.6558C1.94789 25.822 2.54022 24.0437 3.26444 22.3331L2.804 22.1382C3.54767 20.3817 4.4284 18.6957 5.43302 17.0933L5.85665 17.3589C6.85265 15.7702 7.97222 14.2646 9.20218 12.8553L8.82546 12.5265C10.0727 11.0974 11.4318 9.76595 12.8893 8.54538L13.2103 8.92872C14.6415 7.73019 16.169 6.64006 17.7797 5.6712L17.522 5.24274C19.1395 4.26977 20.8397 3.41744 22.6099 2.69842L22.7981 3.16166C24.5174 2.46328 26.3037 1.89239 28.1447 1.46094L28.0307 0.974125C29.8555 0.546483 31.7334 0.253973 33.6529 0.107906L33.6908 0.606465C34.6177 0.535929 35.5546 0.5 36.5 0.5C37.4454 0.5 38.3823 0.535929 39.3092 0.606465L39.3471 0.107906C41.2666 0.253973 43.1445 0.546484 44.9693 0.974126L44.8553 1.46094C46.6963 1.89239 48.4826 2.46328 50.2019 3.16166L50.3901 2.69842C52.1603 3.41745 53.8605 4.26978 55.478 5.24274L55.2203 5.6712C56.831 6.64006 58.3585 7.73019 59.7897 8.92873L60.1107 8.54539C61.5682 9.76595 62.9273 11.0974 64.1745 12.5265L63.7978 12.8553C65.0278 14.2646 66.1474 15.7702 67.1433 17.3589L67.567 17.0933C68.5716 18.6957 69.4523 20.3817 70.196 22.1382L69.7356 22.3331C70.4598 24.0437 71.0521 25.822 71.5001 27.6558L71.9858 27.5372Z" stroke="#461E80" stroke-dasharray="6 6"/>
<ellipse cx="36" cy="36.5" rx="27" ry="26.5" fill="#E2D3F8"/>
<path d="M28 45V50H24" stroke="#461E80"/>
<path d="M33 45V55H29" stroke="#461E80"/>
<path d="M43 45V50H47" stroke="#461E80"/>
<path d="M38 45V55H41" stroke="#461E80"/>
<path d="M22.1784 27.9779L22.5258 27.8557L22.5122 27.4877C22.5058 27.3174 22.5 27.1579 22.5 27C22.5 21.7511 26.7511 17.5 32 17.5C35.5203 17.5 38.59 19.4107 40.2357 22.2624L40.5031 22.7258L40.9474 22.4277C41.8177 21.8436 42.8713 21.5 44 21.5C47.0364 21.5 49.5 23.9636 49.5 27C49.5 27.6987 49.3684 28.3637 49.1325 28.985L48.9234 29.5359L49.501 29.6526C52.922 30.3438 55.5 33.3736 55.5 37C55.5 41.1426 52.1426 44.5 48 44.5H25C20.3074 44.5 16.5 40.6926 16.5 36C16.5 32.2938 18.8723 29.141 22.1784 27.9779Z" fill="#461E80" stroke="#461E80"/>
<circle cx="36" cy="38" r="10" fill="#21B3FF"/>
<circle cx="22" cy="50" r="1.5" fill="#C54647" stroke="#461E80"/>
<circle cx="27" cy="55" r="1.5" fill="#21B3FF" stroke="#461E80"/>
<circle cx="43" cy="55" r="1.5" fill="#E4D256" stroke="#461E80"/>
<circle cx="49" cy="50" r="1.5" fill="#461E80" stroke="#461E80"/>
<path d="M41.6725 35.8392L41.6726 35.8391C41.5824 35.6294 41.4785 35.426 41.3621 35.2279L41.2476 35.0418C41.0909 34.7959 40.915 34.5629 40.7222 34.3428C40.6472 34.258 40.5086 34.217 40.3725 34.2578L40.3723 34.2579L39.3851 34.5532L39.3836 34.5537C39.061 34.648 38.7181 34.5858 38.4458 34.42C38.3299 34.3509 38.2122 34.2866 38.0902 34.2268C37.8026 34.0881 37.5633 33.8364 37.4883 33.5096C37.4883 33.5094 37.4883 33.5093 37.4883 33.5092L37.2672 32.5561C37.2402 32.4403 37.146 32.3485 37.0201 32.3291L37.0193 32.329C36.6889 32.2771 36.3488 32.25 36.0012 32.25C35.6537 32.25 35.3141 32.2771 34.9849 32.3311L34.9824 32.3315L34.9824 32.3315C34.8565 32.3508 34.7623 32.4427 34.7353 32.5584C34.7353 32.5584 34.7353 32.5584 34.7353 32.5584L34.5141 33.5122L34.5137 33.5139C34.4359 33.8389 34.1978 34.0902 33.9124 34.2291L33.9096 34.2305L33.9096 34.2304C33.791 34.2863 33.6746 34.352 33.5556 34.423L33.4276 34.2082M41.6725 35.8392L40.7682 38.2075M41.6725 35.8392L41.7338 35.9963C41.7707 36.0909 41.7445 36.2079 41.646 36.2914L41.6449 36.2923L40.8765 36.951L40.8752 36.9522C40.6213 37.1728 40.503 37.4925 40.5184 37.8057M41.6725 35.8392L40.7682 37.7949M33.4276 34.2082L33.5568 34.4223C33.2845 34.5866 32.9434 34.6538 32.6171 34.5555C32.617 34.5555 32.6169 34.5555 32.6168 34.5554L31.6302 34.2602L31.63 34.2602C31.4919 34.2188 31.3548 34.2595 31.2813 34.3441L31.2806 34.3449C31.0876 34.565 30.9117 34.7981 30.7549 35.0442L30.6404 35.2303C30.4954 35.4769 30.37 35.7316 30.266 35.9967L30.0333 35.9055M33.4276 34.2082C33.2062 34.3419 32.9377 34.3911 32.689 34.3161M33.4276 34.2082C33.5494 34.1356 33.6737 34.0652 33.803 34.0043C34.0343 33.8918 34.2133 33.6949 34.2705 33.4558L34.4918 32.5017C34.5416 32.2883 34.7156 32.1196 34.9444 32.0844C35.2876 32.0281 35.6407 32 36.0012 32C36.3618 32 36.7149 32.0281 37.0581 32.082C37.2868 32.1172 37.4609 32.286 37.5106 32.4993L32.689 34.3161M30.0333 35.9055L30.2662 35.9963C30.2293 36.0909 30.2555 36.2079 30.354 36.2914L30.3555 36.2926L30.3555 36.2926L31.1231 36.953C31.383 37.1734 31.4969 37.4953 31.4816 37.808C31.4791 37.876 31.4769 37.939 31.4769 38.0035C31.4769 38.068 31.4791 38.131 31.4816 38.199C31.497 38.5122 31.3787 38.8319 31.1248 39.0525L31.1235 39.0536L31.1235 39.0536L30.3551 39.7124L30.354 39.7133L30.354 39.7133C30.2556 39.7967 30.2293 39.9136 30.2661 40.0082C30.3701 40.2732 30.4955 40.5279 30.6404 40.7744L30.7549 40.9605C30.9116 41.2065 31.0874 41.4394 31.2803 41.6594C31.3552 41.7442 31.4935 41.7853 31.6295 41.7447C31.6297 41.7446 31.6298 41.7446 31.63 41.7445L32.6142 41.447L32.6143 41.4469C32.9397 41.3488 33.2833 41.4151 33.5541 41.58C33.6703 41.6492 33.7882 41.7137 33.9105 41.7735L33.8006 41.998M30.0333 35.9055C30.1427 35.6265 30.2745 35.3593 30.4262 35.1014L30.543 34.9115C30.7071 34.6536 30.8912 34.4098 31.0926 34.1801M30.0333 35.9055C29.9537 36.1094 30.0208 36.3368 30.1924 36.4821L30.9608 37.1432C31.1547 37.3073 31.2443 37.5511 31.2318 37.7972L31.2318 37.7972C31.2293 37.8652 31.2269 37.9332 31.2269 38.0035C31.2269 38.0738 31.2293 38.1418 31.2318 38.2098L31.2318 38.2098C31.2443 38.4536 31.1523 38.6974 30.9608 38.8638L31.0926 34.1801M33.8006 41.998L33.9099 41.7732C34.1935 41.9112 34.4364 42.1623 34.5116 42.4904C34.5117 42.4905 34.5117 42.4907 34.5117 42.4908L34.7328 43.4439C34.7598 43.5597 34.854 43.6515 34.9799 43.6709L34.9807 43.671C35.3111 43.7229 35.6512 43.75 35.9988 43.75C36.3463 43.75 36.6864 43.7229 37.0168 43.671L37.0176 43.6709C37.1435 43.6515 37.2377 43.5597 37.2647 43.4439L37.4859 42.4901L37.4863 42.4884C37.5641 42.1635 37.8022 41.9121 38.0876 41.7732L38.0904 41.7719L38.0904 41.7719C38.209 41.716 38.3254 41.6504 38.4444 41.5794L38.5724 41.7941M33.8006 41.998C34.0318 42.1106 34.2133 42.3075 34.268 42.5466L32.6865 41.6863C32.9352 41.6113 33.2062 41.6605 33.4251 41.7941C33.5469 41.8668 33.6712 41.9348 33.8006 41.998ZM38.5724 41.7941L38.4432 41.5801C38.7154 41.4158 39.0565 41.3485 39.3827 41.4468C39.3829 41.4468 39.383 41.4469 39.3832 41.4469L40.3698 41.7421L40.37 41.7422C40.5081 41.7836 40.6452 41.7429 40.7187 41.6582L40.7194 41.6574C40.9124 41.4373 41.0883 41.2042 41.2451 40.9582L41.3596 40.7721C41.5045 40.5255 41.6299 40.2709 41.7339 40.0059C41.7707 39.9113 41.7445 39.7944 41.646 39.711L41.6449 39.71L40.8777 39.0524C40.8775 39.0522 40.8773 39.052 40.8771 39.0518C40.6171 38.8314 40.5031 38.5095 40.5184 38.1967M38.5724 41.7941C38.7938 41.6605 39.0623 41.6113 39.311 41.6863L37.0556 43.918C37.2844 43.8828 37.4584 43.714 37.5082 43.5007L37.7295 42.5466C37.7867 42.3075 37.9657 42.1106 38.197 41.998C38.3263 41.9371 38.4506 41.8668 38.5724 41.7941ZM40.5184 38.1967C40.5184 38.1961 40.5185 38.1955 40.5185 38.1949L40.7682 38.2075M40.5184 38.1967C40.5184 38.1973 40.5184 38.1978 40.5183 38.1983L40.7682 38.2075M40.5184 38.1967C40.5209 38.1287 40.5231 38.0657 40.5231 38.0012C40.5231 37.9367 40.5209 37.8737 40.5184 37.8057M40.7682 38.2075C40.7707 38.1395 40.7731 38.0715 40.7731 38.0012C40.7731 37.9308 40.7707 37.8629 40.7682 37.7949M40.5184 37.8057C40.5184 37.8063 40.5185 37.807 40.5185 37.8076L40.7682 37.7949M40.5184 37.8057C40.5184 37.8051 40.5184 37.8046 40.5183 37.804L40.7682 37.7949M31.0926 34.1801C31.2393 34.0113 31.483 33.9551 31.7018 34.0207L32.689 34.3161M31.0926 34.1801L32.689 34.3161M36.0012 40.1265C36.5905 40.1265 37.1585 39.906 37.5794 39.5092C38.0008 39.1119 38.2406 38.5698 38.2406 38.0012C38.2406 37.4326 38.0008 36.8905 37.5794 36.4932C37.1585 36.0964 36.5905 35.8758 36.0012 35.8758C35.4119 35.8758 34.844 36.0964 34.4231 36.4932C34.0017 36.8905 33.7619 37.4326 33.7619 38.0012C33.7619 38.5698 34.0017 39.1119 34.4231 39.5092C34.844 39.906 35.4119 40.1265 36.0012 40.1265Z" fill="white" stroke="#461E80" stroke-width="0.5"/>
</svg>
