<svg width="73" height="72" viewBox="0 0 73 72" fill="none" xmlns="http://www.w3.org/2000/svg">
<path d="M71.9858 27.5372C72.4308 29.3591 72.7354 31.235 72.8876 33.1532L72.3891 33.1927C72.4626 34.1188 72.5 35.0551 72.5 36C72.5 36.9449 72.4626 37.8811 72.3891 38.8073L72.8876 38.8468C72.7354 40.765 72.4308 42.6409 71.9858 44.4628L71.5001 44.3442C71.0521 46.178 70.4598 47.9563 69.7356 49.6669L70.196 49.8618C69.4523 51.6183 68.5716 53.3043 67.567 54.9067L67.1433 54.6411C66.1474 56.2298 65.0278 57.7354 63.7978 59.1447L64.1745 59.4735C62.9273 60.9026 61.5682 62.2341 60.1107 63.4546L59.7897 63.0713C58.3585 64.2698 56.831 65.3599 55.2203 66.3288L55.478 66.7573C53.8605 67.7302 52.1603 68.5826 50.3901 69.3016L50.2019 68.8383C48.4826 69.5367 46.6963 70.1076 44.8553 70.5391L44.9693 71.0259C43.1445 71.4535 41.2666 71.746 39.3471 71.8921L39.3092 71.3935C38.3823 71.4641 37.4454 71.5 36.5 71.5C35.5546 71.5 34.6177 71.4641 33.6908 71.3935L33.6529 71.8921C31.7334 71.746 29.8555 71.4535 28.0307 71.0259L28.1447 70.5391C26.3037 70.1076 24.5174 69.5367 22.7981 68.8383L22.6099 69.3016C20.8397 68.5826 19.1395 67.7302 17.522 66.7573L17.7797 66.3288C16.169 65.3599 14.6415 64.2698 13.2103 63.0713L12.8893 63.4546C11.4318 62.2341 10.0727 60.9026 8.82546 59.4735L9.20217 59.1447C7.97222 57.7354 6.85265 56.2298 5.85665 54.6411L5.43302 54.9067C4.4284 53.3043 3.54767 51.6183 2.804 49.8618L3.26444 49.6669C2.54022 47.9563 1.94789 46.178 1.49994 44.3442L1.01422 44.4628C0.569162 42.6409 0.264594 40.765 0.112452 38.8468L0.610887 38.8073C0.537428 37.8812 0.5 36.9449 0.5 36C0.5 35.0551 0.537428 34.1189 0.610887 33.1927L0.112452 33.1532C0.264594 31.235 0.569162 29.3591 1.01422 27.5372L1.49994 27.6558C1.94789 25.822 2.54022 24.0437 3.26444 22.3331L2.804 22.1382C3.54767 20.3817 4.4284 18.6957 5.43302 17.0933L5.85665 17.3589C6.85265 15.7702 7.97222 14.2646 9.20218 12.8553L8.82546 12.5265C10.0727 11.0974 11.4318 9.76595 12.8893 8.54538L13.2103 8.92872C14.6415 7.73019 16.169 6.64006 17.7797 5.6712L17.522 5.24274C19.1395 4.26977 20.8397 3.41744 22.6099 2.69842L22.7981 3.16166C24.5174 2.46328 26.3037 1.89239 28.1447 1.46094L28.0307 0.974125C29.8555 0.546483 31.7334 0.253973 33.6529 0.107906L33.6908 0.606465C34.6177 0.535929 35.5546 0.5 36.5 0.5C37.4454 0.5 38.3823 0.535929 39.3092 0.606465L39.3471 0.107906C41.2666 0.253973 43.1445 0.546484 44.9693 0.974126L44.8553 1.46094C46.6963 1.89239 48.4826 2.46328 50.2019 3.16166L50.3901 2.69842C52.1603 3.41745 53.8605 4.26978 55.478 5.24274L55.2203 5.6712C56.831 6.64006 58.3585 7.73019 59.7897 8.92873L60.1107 8.54539C61.5682 9.76595 62.9273 11.0974 64.1745 12.5265L63.7978 12.8553C65.0278 14.2646 66.1474 15.7702 67.1433 17.3589L67.567 17.0933C68.5716 18.6957 69.4523 20.3817 70.196 22.1382L69.7356 22.3331C70.4598 24.0437 71.0521 25.822 71.5001 27.6558L71.9858 27.5372Z" stroke="white" stroke-dasharray="6 6"/>
<ellipse cx="36" cy="36.5" rx="27" ry="26.5" fill="white"/>
<path d="M16 54V59H12" stroke="#C54647"/>
<path d="M21 54V64H17" stroke="#C54647"/>
<path d="M31 54V59H35" stroke="#C54647"/>
<path d="M26 54V64H29" stroke="#C54647"/>
<path d="M10.1784 36.9779L10.5258 36.8557L10.5122 36.4877C10.5058 36.3174 10.5 36.158 10.5 36C10.5 30.7511 14.7511 26.5 20 26.5C23.5203 26.5 26.59 28.4107 28.2357 31.2624L28.5031 31.7258L28.9474 31.4277C29.8177 30.8436 30.8713 30.5 32 30.5C35.0364 30.5 37.5 32.9636 37.5 36C37.5 36.6987 37.3684 37.3637 37.1325 37.985L36.9234 38.5359L37.501 38.6526C40.922 39.3438 43.5 42.3736 43.5 46C43.5 50.1426 40.1426 53.5 36 53.5H13C8.30739 53.5 4.5 49.6926 4.5 45C4.5 41.2938 6.87229 38.141 10.1784 36.9779Z" fill="#461E80" stroke="#C54647"/>
<path d="M22.1126 41.3559L22.4754 41.2399L22.4599 40.8593C22.4547 40.7311 22.45 40.6147 22.45 40.5C22.45 36.6762 25.8721 33.5 30.2 33.5C33.0942 33.5 35.5971 34.9282 36.9296 37.0273L37.1928 37.442L37.6121 37.1862C38.3177 36.7558 39.1764 36.5 40.1 36.5C42.6026 36.5 44.55 38.3355 44.55 40.5C44.55 41.0014 44.4463 41.4799 44.2586 41.9292L44.0196 42.5016L44.6297 42.6136C47.4416 43.1302 49.5 45.3764 49.5 48C49.5 50.9941 46.8152 53.5 43.4 53.5H24.425C20.556 53.5 17.5 50.6566 17.5 47.25C17.5 44.5555 19.4003 42.2233 22.1126 41.3559Z" fill="#21B3FF" stroke="#461E80"/>
<circle cx="10" cy="59" r="1.5" fill="white" stroke="#C54647"/>
<circle cx="15" cy="64" r="1.5" fill="#21B3FF" stroke="#C54647"/>
<circle cx="31" cy="64" r="1.5" fill="#E4D256" stroke="#C54647"/>
<circle cx="37" cy="59" r="1.5" fill="#C54647" stroke="#C54647"/>
<path d="M53 17.5V19C53 20.3812 49.8656 21.5 46 21.5C42.1344 21.5 39 20.3812 39 19V17.5C39 16.1187 42.1344 15 46 15C49.8656 15 53 16.1187 53 17.5ZM51.2875 21.7094C51.9375 21.4781 52.5344 21.1813 53 20.8156V24C53 25.3813 49.8656 26.5 46 26.5C42.1344 26.5 39 25.3813 39 24V20.8156C39.4656 21.1844 40.0625 21.4781 40.7125 21.7094C42.1156 22.2094 43.9844 22.5 46 22.5C48.0156 22.5 49.8844 22.2094 51.2875 21.7094ZM39 25.8156C39.4656 26.1844 40.0625 26.4781 40.7125 26.7094C42.1156 27.2094 43.9844 27.5 46 27.5C48.0156 27.5 49.8844 27.2094 51.2875 26.7094C51.9375 26.4781 52.5344 26.1813 53 25.8156V28.5C53 29.8813 49.8656 31 46 31C42.1344 31 39 29.8813 39 28.5V25.8156Z" fill="#461E80"/>
<path d="M63.75 33.0215C63.2687 33.3258 62.712 33.5786 62.1255 33.784C60.489 34.358 58.3241 34.6875 56 34.6875C53.6759 34.6875 51.511 34.358 49.8745 33.784L63.75 33.0215ZM63.75 33.0215V36.125C63.75 36.4097 63.5865 36.716 63.2115 37.0278C62.8379 37.3383 62.2823 37.6291 61.5738 37.8781C60.1591 38.3754 58.1884 38.6875 56 38.6875C53.8116 38.6875 51.8409 38.3754 50.4262 37.8781C49.7177 37.6291 49.1621 37.3383 48.7885 37.0278C48.4135 36.716 48.25 36.4097 48.25 36.125V33.0229C48.7318 33.3282 49.2887 33.5788 49.8744 33.784L63.75 33.0215ZM63.75 38.6465C63.2687 38.9508 62.712 39.2036 62.1255 39.409C60.489 39.983 58.3241 40.3125 56 40.3125C53.6759 40.3125 51.511 39.983 49.8745 39.409L63.75 38.6465ZM63.75 38.6465V41.1875C63.75 41.4722 63.5865 41.7785 63.2115 42.0903C62.8379 42.4008 62.2823 42.6916 61.5738 42.9406C60.1591 43.4379 58.1884 43.75 56 43.75C53.8116 43.75 51.8409 43.4379 50.4262 42.9406C49.7177 42.6916 49.1621 42.4008 48.7885 42.0903C48.4135 41.7785 48.25 41.4722 48.25 41.1875V38.6479C48.7318 38.9532 49.2887 39.2038 49.8744 39.409L63.75 38.6465ZM63.75 28.8125V30.5C63.75 30.7847 63.5865 31.091 63.2115 31.4027C62.8379 31.7133 62.2823 32.0041 61.5738 32.2531C60.1591 32.7504 58.1884 33.0625 56 33.0625C53.8116 33.0625 51.8409 32.7504 50.4262 32.2531C49.7177 32.0041 49.1621 31.7133 48.7885 31.4027C48.4135 31.091 48.25 30.7847 48.25 30.5V28.8125C48.25 28.5278 48.4135 28.2215 48.7885 27.9098C49.1621 27.5992 49.7177 27.3084 50.4262 27.0594C51.8409 26.5621 53.8116 26.25 56 26.25C58.1884 26.25 60.1591 26.5621 61.5738 27.0594C62.2823 27.3084 62.8379 27.5992 63.2115 27.9098C63.5865 28.2215 63.75 28.5278 63.75 28.8125Z" fill="white" stroke="#461E80" stroke-width="0.5"/>
<path d="M37 41.5625V42.5C37 43.3633 34.985 44.0625 32.5 44.0625C30.015 44.0625 28 43.3633 28 42.5V41.5625C28 40.6992 30.015 40 32.5 40C34.985 40 37 40.6992 37 41.5625ZM35.8991 44.1934C36.317 44.0488 36.7007 43.8633 37 43.6348V45.625C37 46.4883 34.985 47.1875 32.5 47.1875C30.015 47.1875 28 46.4883 28 45.625V43.6348C28.2993 43.8652 28.683 44.0488 29.1009 44.1934C30.0029 44.5059 31.2042 44.6875 32.5 44.6875C33.7958 44.6875 34.9971 44.5059 35.8991 44.1934ZM28 46.7598C28.2993 46.9902 28.683 47.1738 29.1009 47.3184C30.0029 47.6309 31.2042 47.8125 32.5 47.8125C33.7958 47.8125 34.9971 47.6309 35.8991 47.3184C36.317 47.1738 36.7007 46.9883 37 46.7598V48.4375C37 49.3008 34.985 50 32.5 50C30.015 50 28 49.3008 28 48.4375V46.7598Z" fill="white"/>
<path d="M33.6559 5.79192L33.658 5.78997C33.5125 5.44125 33.3425 5.10453 33.1503 4.77748L32.9783 4.49798C32.978 4.49746 32.9776 4.49695 32.9773 4.49644C32.7386 4.12154 32.4707 3.76664 32.1771 3.43177C32.0288 3.26368 31.7684 3.19335 31.5228 3.267L31.5227 3.26705L30.0419 3.71011L30.0403 3.71057C29.5934 3.84119 29.115 3.7556 28.7333 3.52294C28.5565 3.41752 28.3766 3.3192 28.19 3.22782C27.7855 3.03288 27.4566 2.68272 27.3543 2.23627C27.3543 2.23614 27.3543 2.236 27.3542 2.23587L27.0225 0.805736C26.9706 0.583323 26.7894 0.407105 26.5491 0.370169L26.5483 0.370043C26.0464 0.291179 25.5297 0.25 25.0019 0.25C24.474 0.25 23.9579 0.291181 23.4571 0.373294L23.4546 0.373698L23.4546 0.373685C23.2143 0.41062 23.0331 0.586824 22.9812 0.809224C22.9812 0.809234 22.9812 0.809243 22.9812 0.809253L22.6493 2.24012L22.6489 2.24179C22.5426 2.68632 22.215 3.03612 21.8139 3.23125L21.8112 3.2326L21.8111 3.23258C21.6279 3.31897 21.4493 3.41976 21.2694 3.52708L21.1413 3.31237M33.6559 5.79192L31.4473 14.9725C31.7755 15.0709 32.1411 14.9865 32.3611 14.7333C32.6633 14.3888 32.9393 14.0231 33.1855 13.6363M33.6559 5.79192L33.7172 5.94905C33.7939 6.14563 33.7341 6.37633 33.5498 6.53243L33.5487 6.53339L32.3961 7.52147L32.3948 7.52259C32.0452 7.82649 31.8808 8.2681 31.9025 8.70318M33.6559 5.79192L31.9025 8.70318M21.1413 3.31237L21.2705 3.52638C20.8877 3.75755 20.4122 3.84939 19.9616 3.71354C19.9615 3.71352 19.9614 3.71349 19.9613 3.71346L18.4811 3.27057L18.4809 3.27052C18.2334 3.19629 17.9745 3.26515 17.8276 3.43418L17.8269 3.43498C17.5332 3.76993 17.2652 4.12492 17.0264 4.49993L16.8535 4.78098C16.6327 5.15647 16.4414 5.54473 16.2827 5.94924C16.2061 6.14579 16.266 6.37639 16.4502 6.53243L16.4517 6.53367L16.4517 6.53367L17.6034 7.5246C17.9604 7.82702 18.119 8.27083 18.0975 8.70663C18.0938 8.80865 18.0903 8.90562 18.0903 9.00528C18.0903 9.10491 18.0938 9.20186 18.0975 9.30385C18.1192 9.73894 17.9548 10.1805 17.6052 10.4844L17.6039 10.4856L16.4513 11.4736L16.4502 11.4746C16.266 11.6307 16.2061 11.8613 16.2827 12.0578C16.4414 12.4623 16.6327 12.8506 16.8535 13.2261L17.0265 13.5071C17.2652 13.882 17.533 14.2369 17.8266 14.5718C17.975 14.7398 18.2354 14.8102 18.4809 14.7365L19.9574 14.2901L19.9576 14.2901C20.4073 14.1544 20.8865 14.2453 21.2667 14.4771C21.4437 14.5826 21.6238 14.681 21.8107 14.7725L21.7008 14.9971M21.1413 3.31237C20.8094 3.5128 20.4065 3.58664 20.0335 3.47412L18.5527 3.03106C18.2245 2.9326 17.8589 3.017 17.6389 3.27017L21.7046 3.00645C21.5106 3.09787 21.3241 3.20336 21.1413 3.31237ZM21.7008 14.9971L21.8102 14.7723C22.2094 14.9665 22.5431 15.316 22.6457 15.7637C22.6457 15.7638 22.6457 15.764 22.6458 15.7641L22.9775 17.1943C22.9775 17.1943 22.9775 17.1943 22.9775 17.1944C23.0294 17.4167 23.2106 17.5929 23.4509 17.6298L23.4517 17.63C23.9536 17.7088 24.4703 17.75 24.9981 17.75C25.526 17.75 26.0427 17.7088 26.5446 17.63L26.5454 17.6298C26.7857 17.5929 26.9669 17.4167 27.0187 17.1944C27.0188 17.1943 27.0188 17.1943 27.0188 17.1943L27.3507 15.7634L27.3511 15.7617C27.4574 15.3172 27.785 14.9674 28.1861 14.7723L28.1888 14.7709L28.1889 14.7709C28.3721 14.6845 28.5507 14.5838 28.7306 14.4764L28.8587 14.6912M21.7008 14.9971C22.0477 15.1659 22.32 15.4612 22.4021 15.8199L20.0298 14.5294C20.4028 14.4169 20.8094 14.4907 21.1376 14.6912C21.3204 14.8002 21.5069 14.9021 21.7008 14.9971ZM28.8587 14.6912L28.7295 14.4771C29.1123 14.246 29.5877 14.1542 30.0382 14.2899L30.0381 14.2899L29.9665 14.5294L30.0387 14.2901L31.5189 14.7329L31.5191 14.733C31.7666 14.8072 32.0255 14.7384 32.1724 14.5693L32.1731 14.5685C32.4668 14.2336 32.7348 13.8786 32.9736 13.5036L32.9726 13.5052L33.1855 13.6363M28.8587 14.6912C28.6759 14.8002 28.4894 14.9056 28.2954 14.9971M28.8587 14.6912L28.2954 14.9971M33.1855 13.6363L32.9745 13.502M33.1855 13.6363L33.3608 13.3514M28.2954 14.9971C27.9486 15.1659 27.68 15.4612 27.5942 15.8199M28.2954 14.9971L27.5942 15.8199M27.5942 15.8199L27.2622 17.251C27.1876 17.571 26.9265 17.8242 26.5834 17.8769M27.5942 15.8199L26.5834 17.8769M26.5834 17.8769C26.0686 17.9578 25.539 18 24.9981 18C24.4573 18 23.9276 17.9578 23.4129 17.8769H26.5834ZM33.7114 6.72319C33.9688 6.50518 34.0695 6.1641 33.9501 5.85818L33.9538 5.85466L33.7114 6.72319ZM33.7114 6.72319L32.5588 7.71127M33.7114 6.72319L32.5588 7.71127M32.5588 7.71127C32.2716 7.96093 32.1336 8.32663 32.1523 8.69232M32.5588 7.71127L33.7114 11.2803M33.7114 11.2803L32.5588 10.2922C32.2679 10.0461 32.1336 9.68041 32.1523 9.31119C32.156 9.20922 32.1597 9.10725 32.1597 9.00176C32.1597 8.89627 32.156 8.7943 32.1523 8.69232M33.7114 11.2803C33.9688 11.4983 34.0695 11.8394 33.9501 12.1453M33.7114 11.2803L32.9745 13.502M32.1523 8.69232L31.9024 8.70146C31.9024 8.70203 31.9025 8.70261 31.9025 8.70318M32.1523 8.69232L31.9026 8.70506C31.9025 8.70443 31.9025 8.70381 31.9025 8.70318M31.9025 8.70318C31.9062 8.80516 31.9097 8.90212 31.9097 9.00176C31.9097 9.10143 31.9062 9.19841 31.9025 9.30043C31.881 9.73628 32.0397 10.1801 32.3967 10.4826C32.3969 10.4827 32.3971 10.4829 32.3973 10.4831L33.5487 11.4701L33.5498 11.4711C33.7339 11.6271 33.7938 11.8576 33.7174 12.0541L31.9025 8.70318ZM32.9745 13.502L33.1465 13.2226M32.9745 13.502L33.7172 12.0545M33.3608 13.3514C33.5883 12.9646 33.786 12.5638 33.9501 12.1453M33.3608 13.3514L33.1479 13.2204L33.1465 13.2226M33.3608 13.3514L33.1453 13.2247C33.1457 13.224 33.1461 13.2233 33.1465 13.2226M33.9501 12.1453L33.7172 12.0545M33.9501 12.1453L33.7172 12.0545M33.7172 12.0545C33.5585 12.4589 33.3672 12.8471 33.1465 13.2226M25.0019 12.0648C25.855 12.0648 26.6759 11.7455 27.2834 11.1728C27.8913 10.5997 28.2359 9.81905 28.2359 9.00176C28.2359 8.18447 27.8913 7.40386 27.2834 6.83072C26.6759 6.25805 25.855 5.93871 25.0019 5.93871C24.1488 5.93871 23.3278 6.25805 22.7204 6.83072C22.1124 7.40386 21.7679 8.18447 21.7679 9.00176C21.7679 9.81905 22.1124 10.5997 22.7204 11.1728C23.3278 11.7455 24.1488 12.0648 25.0019 12.0648Z" fill="#E4D256" stroke="#461E80" stroke-width="0.5"/>
</svg>
