<svg width="24" height="24" viewBox="0 0 24 24" fill="none" xmlns="http://www.w3.org/2000/svg">
<circle cx="14.002" cy="8.99951" r="2" stroke="#67C70B" stroke-width="1.5" stroke-linecap="round" stroke-linejoin="round"/>
<path d="M5.5 10.5L2 7.9999L2.45966 7.54025C3.6389 6.36105 4.22852 5.77145 4.93925 5.55212C5.35532 5.42373 5.79436 5.38744 6.22586 5.44579C6.96296 5.54547 7.64137 6.03028 8.99819 6.9999V6.9999L5.5 10.5Z" stroke="#217BF4" stroke-width="1.5" stroke-linecap="round" stroke-linejoin="round"/>
<path d="M15.458 20.542C16.6387 19.3613 17.229 18.771 17.4482 18.0592C17.576 17.6441 17.6122 17.2062 17.5542 16.7758C17.4548 16.0377 16.9694 15.3585 15.9984 14V14L12.5 17.5L15 21L15.458 20.542Z" stroke="#217BF4" stroke-width="1.5" stroke-linecap="round" stroke-linejoin="round"/>
<path d="M12.2407 3.75736C13.1078 2.89027 13.5413 2.45672 14.0926 2.22836C14.644 2 15.2571 2 16.4833 2H17.998C19.4123 2 20.1194 2 20.5587 2.43934C20.998 2.87868 20.998 3.58579 20.998 5V6.51472C20.998 7.74097 20.998 8.3541 20.7697 8.90541C20.5413 9.45672 20.1078 9.89027 19.2407 10.7574L13.3265 16.6716C11.9931 18.0049 11.3265 18.6716 10.498 18.6716C9.66962 18.6716 9.00295 18.0049 7.66962 16.6716L6.32647 15.3284C4.99314 13.9951 4.32647 13.3284 4.32647 12.5C4.32647 11.6716 4.99314 11.0049 6.32647 9.67157L12.2407 3.75736Z" stroke="#E80614" stroke-width="1.5" stroke-linecap="round" stroke-linejoin="round"/>
<path d="M7 15.9998L8.99985 14" stroke="#E80614" stroke-width="1.5" stroke-linecap="round" stroke-linejoin="round"/>
</svg>
