<svg width="24" height="24" viewBox="0 0 24 24" fill="none" xmlns="http://www.w3.org/2000/svg">
<path d="M6.70976 4.13999L6.77976 7.92997C6.78976 8.44997 6.45971 9.13999 6.03971 9.44999L3.55973 11.33C1.96973 12.53 2.22974 14 4.12974 14.6L7.35972 15.61C7.89972 15.78 8.46972 16.37 8.60972 16.92L9.37974 19.86C9.98974 22.18 11.5098 22.41 12.7698 20.37L14.5298 17.52C14.8498 17 15.6098 16.61 16.2098 16.64L19.5497 16.81C21.9397 16.93 22.6197 15.55 21.0597 13.73L19.0798 11.43C18.7098 11 18.5398 10.2 18.7098 9.65998L19.7197 6.42997C20.3097 4.52997 19.2497 3.47999 17.3597 4.09999L14.4097 5.06999C13.9097 5.22999 13.1597 5.11998 12.7397 4.80998L9.65971 2.58998C7.99971 1.38998 6.66976 2.08999 6.70976 4.13999Z" stroke="#FFC600" stroke-width="1.5" stroke-linecap="round" stroke-linejoin="round"/>
<path d="M2.08917 21.9997L5.11914 18.9697" stroke="#E80614" stroke-width="1.5" stroke-linecap="round" stroke-linejoin="round"/>
</svg>
