<svg width="56" height="56" viewBox="0 0 56 56" fill="none" xmlns="http://www.w3.org/2000/svg">
<circle cx="28" cy="28" r="28" fill="#0ABF53"/>
<path d="M27.9999 13.3335C25.0991 13.3335 22.2635 14.1937 19.8516 15.8053C17.4396 17.4169 15.5598 19.7075 14.4497 22.3875C13.3396 25.0675 13.0492 28.0164 13.6151 30.8615C14.181 33.7065 15.5779 36.3199 17.629 38.3711C19.6802 40.4222 22.2935 41.8191 25.1386 42.385C27.9837 42.9509 30.9326 42.6605 33.6126 41.5504C36.2926 40.4403 38.5832 38.5605 40.1948 36.1485C41.8064 33.7366 42.6666 30.901 42.6666 28.0002C42.662 24.1117 41.1153 20.3839 38.3658 17.6343C35.6162 14.8848 31.8884 13.3381 27.9999 13.3335V13.3335ZM34.2759 25.6095L27.6093 32.2762C27.3592 32.5261 27.0201 32.6665 26.6666 32.6665C26.313 32.6665 25.974 32.5261 25.7239 32.2762L21.7239 28.2762C21.5966 28.1532 21.495 28.006 21.4251 27.8434C21.3552 27.6807 21.3185 27.5057 21.3169 27.3287C21.3154 27.1517 21.3491 26.9761 21.4162 26.8122C21.4832 26.6484 21.5822 26.4995 21.7074 26.3743C21.8326 26.2491 21.9815 26.1501 22.1453 26.0831C22.3092 26.016 22.4848 25.9823 22.6618 25.9838C22.8388 25.9854 23.0138 26.0221 23.1765 26.092C23.3391 26.1619 23.4863 26.2635 23.6093 26.3908L26.6666 29.4482L32.3906 23.7242C32.6421 23.4813 32.9789 23.3469 33.3285 23.3499C33.6781 23.353 34.0125 23.4932 34.2597 23.7404C34.5069 23.9876 34.6471 24.322 34.6502 24.6716C34.6532 25.0212 34.5188 25.358 34.2759 25.6095V25.6095Z" fill="white"/>
</svg>
