<svg width="56" height="56" viewBox="0 0 56 56" fill="none" xmlns="http://www.w3.org/2000/svg">
<circle cx="28" cy="28" r="28" fill="#FF1E2B"/>
<path d="M27.9999 13.3335C25.0991 13.3335 22.2635 14.1937 19.8516 15.8053C17.4396 17.4169 15.5598 19.7075 14.4497 22.3875C13.3396 25.0675 13.0492 28.0164 13.6151 30.8615C14.181 33.7065 15.5779 36.3199 17.629 38.3711C19.6802 40.4222 22.2935 41.8191 25.1386 42.385C27.9837 42.9509 30.9326 42.6605 33.6126 41.5504C36.2926 40.4403 38.5832 38.5604 40.1948 36.1485C41.8064 33.7366 42.6666 30.901 42.6666 28.0002C42.662 24.1117 41.1153 20.3839 38.3658 17.6343C35.6162 14.8848 31.8884 13.3381 27.9999 13.3335V13.3335ZM33.6559 31.7722C33.7833 31.8952 33.8848 32.0423 33.9547 32.205C34.0246 32.3676 34.0614 32.5426 34.0629 32.7196C34.0645 32.8967 34.0307 33.0722 33.9637 33.2361C33.8966 33.4 33.7976 33.5488 33.6725 33.674C33.5473 33.7992 33.3984 33.8982 33.2345 33.9653C33.0707 34.0323 32.8951 34.066 32.7181 34.0645C32.541 34.063 32.3661 34.0262 32.2034 33.9563C32.0407 33.8864 31.8936 33.7848 31.7706 33.6575L27.9999 29.8855L24.2293 33.6575C23.9778 33.9004 23.641 34.0348 23.2914 34.0317C22.9418 34.0287 22.6074 33.8885 22.3602 33.6413C22.113 33.394 21.9727 33.0596 21.9697 32.71C21.9667 32.3604 22.101 32.0236 22.3439 31.7722L26.1146 28.0002L22.3439 24.2282C22.2166 24.1052 22.115 23.958 22.0451 23.7954C21.9752 23.6327 21.9385 23.4577 21.9369 23.2807C21.9354 23.1037 21.9691 22.9281 22.0362 22.7642C22.1032 22.6004 22.2022 22.4515 22.3274 22.3263C22.4526 22.2011 22.6015 22.1021 22.7653 22.0351C22.9292 21.968 23.1048 21.9343 23.2818 21.9358C23.4588 21.9374 23.6338 21.9741 23.7965 22.044C23.9591 22.1139 24.1063 22.2155 24.2293 22.3428L27.9999 26.1148L31.7706 22.3428C31.8936 22.2155 32.0407 22.1139 32.2034 22.044C32.3661 21.9741 32.541 21.9374 32.7181 21.9358C32.8951 21.9343 33.0707 21.968 33.2345 22.0351C33.3984 22.1021 33.5473 22.2011 33.6725 22.3263C33.7976 22.4515 33.8966 22.6004 33.9637 22.7642C34.0307 22.9281 34.0645 23.1037 34.0629 23.2807C34.0614 23.4577 34.0246 23.6327 33.9547 23.7954C33.8848 23.958 33.7833 24.1052 33.6559 24.2282L29.8853 28.0002L33.6559 31.7722Z" fill="white"/>
</svg>
