<svg width="40" height="40" viewBox="0 0 40 40" fill="none" xmlns="http://www.w3.org/2000/svg">
<circle cx="20" cy="20" r="20" fill="#F3F6FA"/>
<g clip-path="url(#clip0_3638_4815)">
<path d="M21.1559 21.97C22.8579 22.328 24.3479 21.936 25.5579 20.674C26.4319 19.762 26.8339 18.644 26.7639 17.38C26.6199 14.81 24.3719 12.874 21.8699 13.128C19.0999 13.41 17.1599 16.108 17.9639 18.89C17.4219 18.748 16.8699 18.604 16.2499 18.442C16.2459 18.04 16.2239 17.59 16.2439 17.142C16.2539 16.928 16.1959 16.814 16.0119 16.714C15.6799 16.532 15.3619 16.326 15.0399 16.124C14.7519 15.944 14.6719 15.708 14.7939 15.394C14.9579 14.974 15.1259 14.554 15.2979 14.136C15.4299 13.816 15.6579 13.698 15.9959 13.768C16.3959 13.852 16.7939 13.936 17.1919 14.028C17.3159 14.058 17.3859 14.024 17.4719 13.93C17.7819 13.592 18.1079 13.27 18.4179 12.932C18.4739 12.87 18.5159 12.754 18.4999 12.676C18.4119 12.256 18.3019 11.84 18.2039 11.422C18.1339 11.12 18.2439 10.888 18.5279 10.762C18.9599 10.57 19.3959 10.382 19.8339 10.202C20.1219 10.084 20.3619 10.162 20.5359 10.426C20.7659 10.772 20.9919 11.122 21.2099 11.474C21.2759 11.582 21.3459 11.608 21.4739 11.602C21.9459 11.58 22.4199 11.586 22.8919 11.57C22.9599 11.568 23.0479 11.506 23.0879 11.446C23.3119 11.096 23.5239 10.738 23.7419 10.384C23.9439 10.058 24.1579 9.99003 24.5219 10.132C24.9279 10.294 25.3339 10.456 25.7379 10.62C26.0739 10.758 26.1839 10.976 26.1079 11.334C26.0239 11.726 25.9459 12.12 25.8539 12.51C25.8239 12.634 25.8499 12.702 25.9439 12.79C26.2939 13.11 26.6359 13.436 26.9639 13.776C27.0579 13.874 27.1359 13.886 27.2479 13.856C27.6299 13.76 28.0119 13.666 28.3939 13.574C28.7919 13.478 29.0079 13.588 29.1719 13.97C29.3319 14.346 29.4959 14.72 29.6559 15.094C29.8199 15.48 29.7539 15.706 29.4079 15.932C29.0839 16.144 28.7619 16.358 28.4339 16.56C28.3119 16.634 28.2759 16.716 28.2819 16.86C28.2979 17.326 28.2879 17.792 28.3019 18.256C28.3039 18.324 28.3639 18.414 28.4239 18.452C28.7739 18.674 29.1339 18.884 29.4879 19.1C29.8039 19.294 29.8759 19.514 29.7399 19.86C29.5799 20.266 29.4159 20.672 29.2499 21.076C29.1139 21.41 28.8879 21.528 28.5379 21.454C28.1319 21.368 27.7279 21.272 27.3179 21.198C27.2459 21.184 27.1379 21.226 27.0839 21.28C26.7519 21.606 26.4359 21.95 26.1019 22.276C26.0079 22.368 25.9899 22.444 26.0199 22.562C26.1239 22.972 26.2239 23.382 26.3159 23.794C26.3839 24.098 26.2679 24.326 25.9839 24.45C25.5579 24.638 25.1279 24.822 24.6979 25C24.3959 25.124 24.1599 25.048 23.9779 24.774C23.7439 24.422 23.5239 24.06 23.2819 23.712C23.2359 23.646 23.1219 23.594 23.0399 23.594C22.6259 23.594 22.2099 23.61 21.7939 23.622C21.6899 23.624 21.6219 23.604 21.5879 23.482C21.4519 23 21.2999 22.522 21.1559 22.042C21.1519 22.03 21.1559 22.008 21.1559 21.97Z" fill="#0A093D"/>
<path d="M19.926 21.3219C19.874 21.4299 19.844 21.5219 19.792 21.5979C19.642 21.8219 19.488 22.0439 19.324 22.2579C19.25 22.3539 19.258 22.4279 19.308 22.5339C19.432 22.7979 19.546 23.0659 19.642 23.3399C19.682 23.4539 19.734 23.4999 19.852 23.5159C20.112 23.5499 20.37 23.5999 20.628 23.6439C20.898 23.6899 21.01 23.8179 21.014 24.0859C21.018 24.3859 21.018 24.6839 21.014 24.9839C21.012 25.2559 20.902 25.3779 20.628 25.4239C20.362 25.4679 20.094 25.5059 19.832 25.5619C19.764 25.5759 19.688 25.6479 19.658 25.7119C19.532 25.9899 19.414 26.2719 19.308 26.5579C19.284 26.6259 19.286 26.7299 19.324 26.7879C19.474 27.0219 19.644 27.2399 19.802 27.4679C19.952 27.6859 19.94 27.8439 19.756 28.0339C19.548 28.2479 19.336 28.4599 19.122 28.6679C18.932 28.8519 18.758 28.8619 18.536 28.7059C18.316 28.5499 18.1 28.3859 17.874 28.2419C17.816 28.2059 17.712 28.2019 17.644 28.2259C17.358 28.3319 17.074 28.4479 16.798 28.5779C16.728 28.6099 16.656 28.6959 16.64 28.7699C16.582 29.0319 16.548 29.2999 16.5 29.5659C16.456 29.8179 16.326 29.9319 16.068 29.9359C15.768 29.9399 15.47 29.9379 15.17 29.9359C14.886 29.9339 14.762 29.8239 14.716 29.5399C14.672 29.2819 14.638 29.0199 14.58 28.7659C14.564 28.6939 14.49 28.6099 14.422 28.5779C14.16 28.4539 13.89 28.3419 13.616 28.2419C13.544 28.2159 13.432 28.2239 13.37 28.2639C13.142 28.4079 12.928 28.5739 12.706 28.7259C12.472 28.8879 12.322 28.8779 12.124 28.6839C11.91 28.4759 11.698 28.2639 11.488 28.0499C11.306 27.8639 11.294 27.7039 11.446 27.4839C11.6 27.2619 11.766 27.0479 11.91 26.8199C11.95 26.7579 11.954 26.6459 11.926 26.5739C11.822 26.2939 11.708 26.0179 11.58 25.7499C11.548 25.6799 11.464 25.6079 11.39 25.5899C11.128 25.5299 10.86 25.4959 10.594 25.4459C10.312 25.3919 10.206 25.2679 10.204 24.9839C10.2 24.6919 10.202 24.3999 10.204 24.1079C10.206 23.8459 10.31 23.7179 10.564 23.6679C10.82 23.6199 11.08 23.5799 11.338 23.5399C11.464 23.5199 11.532 23.4699 11.576 23.3339C11.658 23.0719 11.766 22.8139 11.888 22.5659C11.95 22.4419 11.942 22.3579 11.862 22.2539C11.702 22.0459 11.552 21.8299 11.404 21.6139C11.246 21.3839 11.262 21.2319 11.458 21.0319C11.662 20.8239 11.868 20.6179 12.078 20.4119C12.276 20.2179 12.432 20.2059 12.66 20.3679C12.874 20.5199 13.088 20.6719 13.296 20.8319C13.388 20.9019 13.456 20.9099 13.568 20.8559C13.828 20.7279 14.1 20.6199 14.372 20.5179C14.48 20.4779 14.536 20.4299 14.55 20.3079C14.582 20.0559 14.63 19.8039 14.674 19.5539C14.73 19.2359 14.858 19.1299 15.176 19.1279C15.438 19.1279 15.702 19.1279 15.964 19.1279C16.302 19.1279 16.418 19.2239 16.478 19.5619C16.52 19.7979 16.558 20.0359 16.594 20.2739C16.612 20.3899 16.654 20.4559 16.784 20.4979C17.06 20.5859 17.33 20.6999 17.592 20.8259C17.716 20.8859 17.798 20.8819 17.904 20.7999C18.106 20.6439 18.318 20.5019 18.528 20.3559C18.752 20.1999 18.926 20.2119 19.114 20.3959C19.328 20.6059 19.542 20.8139 19.746 21.0339C19.822 21.1159 19.866 21.2259 19.926 21.3219ZM18.738 24.5299C18.736 22.8119 17.332 21.3979 15.626 21.3979C13.872 21.3979 12.47 22.7999 12.472 24.5539C12.474 26.2579 13.89 27.6639 15.606 27.6639C17.328 27.6659 18.74 26.2519 18.738 24.5299Z" fill="#0A093D"/>
<g opacity="0.4" filter="url(#filter0_d_3638_4815)">
<path d="M25.36 17.6021C25.366 19.2961 23.99 20.6841 22.296 20.6921C20.606 20.7001 19.212 19.3161 19.21 17.6261C19.208 15.9101 20.57 14.5361 22.284 14.5281C23.974 14.5221 25.354 15.9001 25.36 17.6021Z" fill="#0A093D"/>
</g>
</g>
<defs>
<filter id="filter0_d_3638_4815" x="15.21" y="14.5281" width="14.1499" height="14.1641" filterUnits="userSpaceOnUse" color-interpolation-filters="sRGB">
<feFlood flood-opacity="0" result="BackgroundImageFix"/>
<feColorMatrix in="SourceAlpha" type="matrix" values="0 0 0 0 0 0 0 0 0 0 0 0 0 0 0 0 0 0 127 0" result="hardAlpha"/>
<feOffset dy="4"/>
<feGaussianBlur stdDeviation="2"/>
<feComposite in2="hardAlpha" operator="out"/>
<feColorMatrix type="matrix" values="0 0 0 0 0 0 0 0 0 0 0 0 0 0 0 0 0 0 0.25 0"/>
<feBlend mode="normal" in2="BackgroundImageFix" result="effect1_dropShadow_3638_4815"/>
<feBlend mode="normal" in="SourceGraphic" in2="effect1_dropShadow_3638_4815" result="shape"/>
</filter>
<clipPath id="clip0_3638_4815">
<rect width="20" height="20" fill="white" transform="translate(10 10)"/>
</clipPath>
</defs>
</svg>
