<svg width="25" height="25" viewBox="0 0 25 25" fill="none" xmlns="http://www.w3.org/2000/svg">
<path d="M12.5 0C7.32969 0 3.125 4.20469 3.125 9.375C3.125 15.8734 11.5875 24.4109 11.9469 24.7719C12.1 24.9234 12.3 25 12.5 25C12.7 25 12.9 24.9234 13.0531 24.7719C13.4125 24.4109 21.875 15.8734 21.875 9.375C21.875 4.20469 17.6703 0 12.5 0Z" fill="#5753F1"/>
<path d="M18.2156 8.5975C18.1104 8.61505 15.7036 9.01869 12.8681 9.49459C8.92794 10.1552 7.68337 10.3722 7.58947 10.4146C7.25208 10.5661 7.11693 10.9271 7.28383 11.2386C7.31318 11.2968 7.37373 11.3721 7.41824 11.4082C7.53637 11.5034 8.53903 12.0622 8.6432 12.0903C8.69082 12.1031 8.76589 12.1081 8.80839 12.0999C8.85243 12.0942 10.4741 11.6186 12.4121 11.0448C14.3503 10.4711 15.9555 9.99976 15.977 9.99462C15.9986 9.98949 15.8179 10.0893 15.5764 10.2142C11.3622 12.3998 10.6165 12.7928 10.5011 12.8971C10.246 13.1254 10.2572 13.1 9.87465 14.1742C9.48866 15.2583 9.49188 15.2417 9.63073 15.3272C9.68567 15.3617 9.7151 15.3697 9.77255 15.3611C9.81957 15.3542 10.1772 15.123 10.8594 14.6561C11.4181 14.2739 11.8857 13.9543 11.8975 13.9488C11.9182 13.9391 12.9603 14.5129 13.8796 15.0404C14.2117 15.2326 14.3516 15.2725 14.5738 15.2386C14.7537 15.2128 14.9184 15.1305 15.0128 15.0228C15.0803 14.9427 18.636 8.97087 18.6658 8.88496C18.7087 8.76113 18.6209 8.62168 18.4758 8.58256C18.4397 8.5728 18.3236 8.5786 18.2156 8.5975Z" fill="white"/>
</svg>
