<svg width="40" height="40" viewBox="0 0 40 40" fill="none" xmlns="http://www.w3.org/2000/svg">
<path d="M20.8215 32.4836C20.8178 32.5647 20.7829 32.6412 20.7242 32.6972C20.6655 32.7532 20.5875 32.7845 20.5063 32.7844C20.3235 32.7844 20.1848 32.652 20.1785 32.4836C19.2391 29.632 19.0714 29.1945 17.1322 28.6081C10.7472 27.09 6 21.3496 6 14.5008C6 6.49194 12.4916 0 20.5 0C28.5084 0 35 6.49194 35 14.5008C35 21.3496 30.2528 27.09 23.8678 28.6081C21.9286 29.1945 21.7596 29.632 20.8215 32.4836Z" fill="#4C28DD"/>
<path d="M20.5 40C19.1187 40 18 38.8813 18 37.5C18 36.1187 19.1187 35 20.5 35C21.8813 35 23 36.1187 23 37.5C23 38.8813 21.8813 40 20.5 40Z" fill="white"/>
<path fill-rule="evenodd" clip-rule="evenodd" d="M20.4661 38.9996C20.6658 39.0041 20.8645 38.9687 21.0504 38.8954C21.2362 38.8221 21.4056 38.7124 21.5485 38.5727C21.6914 38.4331 21.8049 38.2663 21.8824 38.0821C21.96 37.898 22 37.7002 22 37.5004C22 37.3006 21.9602 37.1028 21.8827 36.9186C21.8053 36.7344 21.6918 36.5675 21.549 36.4278C21.4062 36.2881 21.2369 36.1783 21.0511 36.1049C20.8652 36.0315 20.6666 35.9959 20.4668 36.0004C20.0749 36.009 19.702 36.1708 19.4278 36.451C19.1537 36.7312 19.0001 37.1076 19 37.4996C18.9999 37.8916 19.1533 38.2681 19.4273 38.5485C19.7013 38.8288 20.0742 38.9908 20.4661 38.9996Z" fill="#4C28DD"/>
<path d="M20.5007 23.9579C25.5493 23.9579 29.642 19.865 29.642 14.8161C29.642 9.76722 25.5493 5.6743 20.5007 5.6743C15.4521 5.6743 11.3594 9.76722 11.3594 14.8161C11.3594 19.865 15.4521 23.9579 20.5007 23.9579Z" fill="white"/>
<path d="M24.8945 13.4578H16.1172C15.4023 13.4578 14.8984 13.9719 14.8984 14.6063V20.8625C14.8984 21.4969 15.4609 22 16.1289 22H24.9062C25.5742 22 26.125 21.5297 26.125 20.8625V14.6063C26.1133 13.9719 25.5742 13.4578 24.8945 13.4578ZM24.8359 20.8078H16.1641V14.6609H24.8359V20.8078ZM21.25 11.0516C20.7344 10.5047 21.5664 9.82656 22.0352 10.3187L22.7148 11.1063L22.6914 8.62344C22.6797 7.80312 23.9453 7.80312 23.957 8.62344L23.9336 11.1063L24.6133 10.3297C25.082 9.84844 25.9141 10.5156 25.3984 11.0625L23.7344 12.9C23.4648 13.1406 23.125 13.1406 22.8672 12.9L21.25 11.0516ZM15.5898 10.0344L17.2305 8.18594C17.5 7.94531 17.8398 7.94531 18.0977 8.18594L19.75 10.0234C20.2656 10.5703 19.4336 11.2375 18.9648 10.7562L18.2852 9.97969L18.3086 12.4625C18.2969 13.2938 17.0195 13.2828 17.0312 12.4625L17.0547 9.97969L16.375 10.7672C15.918 11.2594 15.0742 10.5812 15.5898 10.0344ZM22.1289 18.1828V16.6734C22.1289 16.4984 22.2812 16.3781 22.4453 16.3781H23.7461C23.9336 16.3781 24.0625 16.5094 24.0625 16.6734V18.1828C24.0625 18.3031 23.957 18.3906 23.8398 18.3906H23.6992V20.3812C23.6992 20.7422 23.1367 20.7422 23.1367 20.3812V18.3906H23.0547V20.3812C23.0547 20.7422 22.4922 20.7422 22.4922 20.3812V18.3906H22.3516C22.2344 18.3906 22.1289 18.3031 22.1289 18.1828ZM22.6797 15.875C22.6797 15.6563 22.8672 15.4812 23.1016 15.4812C23.3359 15.4812 23.5234 15.6563 23.5234 15.875C23.5234 16.0938 23.3359 16.2688 23.1016 16.2688C22.8672 16.2688 22.6797 16.0828 22.6797 15.875ZM19.5273 18.1828V16.6734C19.5273 16.4984 19.6797 16.3781 19.8437 16.3781H21.1445C21.332 16.3781 21.4609 16.5094 21.4609 16.6734V18.1828C21.4609 18.3031 21.3555 18.3906 21.2383 18.3906H21.0977V20.3812C21.0977 20.7422 20.5352 20.7422 20.5352 20.3812V18.3906H20.4531V20.3812C20.4531 20.7422 19.8906 20.7422 19.8906 20.3812V18.3906H19.7617C19.6328 18.3906 19.5273 18.3031 19.5273 18.1828ZM20.0781 15.875C20.0781 15.6563 20.2656 15.4812 20.5 15.4812C20.7344 15.4812 20.9219 15.6563 20.9219 15.875C20.9219 16.0938 20.7344 16.2688 20.5 16.2688C20.2656 16.2688 20.0781 16.0828 20.0781 15.875ZM16.9258 18.1828V16.6734C16.9258 16.4984 17.0781 16.3781 17.2422 16.3781H18.5547C18.7422 16.3781 18.8711 16.5094 18.8711 16.6734V18.1828C18.8711 18.3031 18.7656 18.3906 18.6484 18.3906H18.5078V20.3812C18.5078 20.7422 17.9453 20.7422 17.9453 20.3812V18.3906V18.3359H17.9336V18.3906H17.8516V20.3812C17.8516 20.7422 17.2891 20.7422 17.2891 20.3812V18.3906H17.1602C17.043 18.3906 16.9258 18.3031 16.9258 18.1828ZM17.4883 15.875C17.4883 15.6563 17.6758 15.4812 17.9102 15.4812C18.1445 15.4812 18.332 15.6563 18.332 15.875C18.332 16.0938 18.1445 16.2688 17.9102 16.2688C17.6758 16.2688 17.4766 16.0828 17.4883 15.875Z" fill="#4C28DD"/>
</svg>
