<svg width="20" height="20" viewBox="0 0 20 20" fill="none" xmlns="http://www.w3.org/2000/svg">
<g clip-path="url(#clip0_2614_5998)">
<mask id="mask0_2614_5998" style="mask-type:luminance" maskUnits="userSpaceOnUse" x="0" y="0" width="20" height="20">
<path d="M20 0H0V20H20V0Z" fill="white"/>
</mask>
<g mask="url(#mask0_2614_5998)">
<path d="M17.0969 3.7H2.88805C2.39887 3.7 2 4.10424 2 4.6C2 5.09576 2.39887 5.5 2.88805 5.5H3.72342C3.72342 5.52288 3.72342 5.55339 3.72342 5.5839L4.70931 18.0237C4.70931 18.0466 4.70931 18.0771 4.70931 18.1C4.70931 18.5958 5.06303 19 5.55974 19H14.4403C14.9294 19 15.2907 18.5958 15.2907 18.1C15.2907 18.0695 15.2907 18.0466 15.2907 18.0237L16.2766 5.5839C16.2766 5.55339 16.2766 5.53051 16.2766 5.5H17.1119C17.6011 5.5 18 5.09576 18 4.6C17.9849 4.10424 17.5861 3.7 17.0969 3.7ZM13.5597 17.2H6.42521L5.49953 5.5H14.4779L13.5597 17.2ZM7.77234 2.8H12.2126C12.7018 2.8 13.1007 2.39576 13.1007 1.9C13.1007 1.40424 12.7018 1 12.2126 1H7.77234C7.28316 1 6.88429 1.40424 6.88429 1.9C6.88429 2.39576 7.28316 2.8 7.77234 2.8ZM7.381 15.339C7.41863 15.8347 7.84008 15.9415 8.32926 15.911C8.81844 15.8805 9.18721 15.8119 9.1571 15.3161L9.05174 7.31525C9.01411 6.81949 8.63782 6.75085 8.14111 6.78898C7.65193 6.82712 7.24553 6.72034 7.27564 7.2161L7.381 15.339ZM11.6557 15.911C12.1449 15.9492 12.5663 15.8347 12.604 15.339L12.7018 7.2161C12.7394 6.72034 12.3631 6.81949 11.8739 6.78898C11.3848 6.75847 10.9633 6.81949 10.9257 7.31525L10.8203 15.3161C10.7977 15.8119 11.1665 15.8805 11.6557 15.911Z" fill="white"/>
</g>
</g>
<defs>
<clipPath id="clip0_2614_5998">
<rect width="20" height="20" fill="white"/>
</clipPath>
</defs>
</svg>
