<svg width="20" height="20" viewBox="0 0 20 20" fill="none" xmlns="http://www.w3.org/2000/svg">
<g clip-path="url(#clip0_3430_32384)">
<path fill-rule="evenodd" clip-rule="evenodd" d="M13.1346 6.17475L18.9593 4.35845C19.034 4.31981 19.0564 4.11112 18.5486 3.58556C17.9139 2.9286 16.9804 1.96248 15.3002 2.00112C13.956 2.03204 9.63721 3.22488 7.64584 3.81743C7.57116 3.83031 7.42928 3.90245 7.45915 4.08795C7.46059 4.09691 7.46242 4.10801 7.46464 4.12106L3.20296 5.51781C2.48108 5.83985 1 6.90902 1 8.76397V18H2.34418V8.76397C2.41731 7.51498 3.02767 6.65891 7.82325 5.54955C7.91686 5.78856 8.02209 5.95544 8.13125 5.94289C9.73678 6.03958 12.9852 6.22133 13.1346 6.17475Z" fill="white"/>
<path d="M18.5873 4.8208L13.584 6.44388C14.032 7.00036 14.8908 7.08796 15.2642 7.06219C18.0123 6.90761 18.6246 5.50352 18.5873 4.8208Z" fill="#ECF0F3"/>
</g>
<defs>
<clipPath id="clip0_3430_32384">
<rect width="20" height="20" fill="white"/>
</clipPath>
</defs>
</svg>
