<svg width="20" height="20" viewBox="0 0 20 20" fill="none" xmlns="http://www.w3.org/2000/svg">
<g clip-path="url(#clip0_1318_6002)">
<path d="M14.96 2H5.03711C4.46582 2 4 2.49959 4 3.11347V15.1004C4 15.5804 4.28711 15.9935 4.68848 16.1502V16.9273C4.68848 17.52 5.13379 18 5.6875 18C6.23828 18 6.68652 17.52 6.68652 16.9273V16.2171H13.3135V16.9273C13.3135 17.52 13.7588 18 14.3125 18C14.8633 18 15.3115 17.52 15.3115 16.9273V16.1502C15.7129 15.9935 16 15.5837 16 15.1037V3.11347C15.9985 2.50286 15.5313 2 14.96 2ZM4.93164 2.85388H15.064V3.84327H4.93164V2.85388ZM4.93164 4.64H15.064V10.2204H4.93164V4.64ZM5.94238 14.5502C5.40332 14.5502 4.96387 14.08 4.96387 13.5004C4.96387 12.9208 5.40039 12.4506 5.94238 12.4506C6.48438 12.4506 6.9209 12.9208 6.9209 13.5004C6.9209 14.08 6.48438 14.5502 5.94238 14.5502ZM14.1016 14.5502C13.5625 14.5502 13.123 14.08 13.123 13.5004C13.123 12.9208 13.5596 12.4506 14.1016 12.4506C14.6436 12.4506 15.0801 12.9208 15.0801 13.5004C15.0801 14.08 14.6436 14.5502 14.1016 14.5502Z" fill="white"/>
</g>
<defs>
<clipPath id="clip0_1318_6002">
<rect width="20" height="20" fill="white"/>
</clipPath>
</defs>
</svg>
