<svg width="20" height="20" viewBox="0 0 20 20" fill="none" xmlns="http://www.w3.org/2000/svg">
<g clip-path="url(#clip0_1874_4788)">
<path fill-rule="evenodd" clip-rule="evenodd" d="M3.23077 2H8.15385C8.83358 2 9.38462 2.63207 9.38462 3.41176V16.5882C9.38462 17.3679 8.83358 18 8.15385 18H3.23077C2.55103 18 2 17.3679 2 16.5882V3.41176C2 2.63207 2.55103 2 3.23077 2ZM7.74359 7.64706C7.29043 7.64706 6.92308 8.06844 6.92308 8.58824V10.4706C6.92308 10.9904 7.29043 11.4118 7.74359 11.4118C8.19675 11.4118 8.5641 10.9904 8.5641 10.4706V8.58824C8.5641 8.06844 8.19675 7.64706 7.74359 7.64706Z" fill="white"/>
<path fill-rule="evenodd" clip-rule="evenodd" d="M16.7692 2H11.8462C11.1664 2 10.6154 2.63207 10.6154 3.41176V16.5882C10.6154 17.3679 11.1664 18 11.8462 18H16.7692C17.449 18 18 17.3679 18 16.5882V3.41176C18 2.63207 17.449 2 16.7692 2ZM12.2564 7.64706C12.7096 7.64706 13.0769 8.06844 13.0769 8.58824V10.4706C13.0769 10.9904 12.7096 11.4118 12.2564 11.4118C11.8033 11.4118 11.4359 10.9904 11.4359 10.4706V8.58824C11.4359 8.06844 11.8033 7.64706 12.2564 7.64706Z" fill="white"/>
</g>
<defs>
<clipPath id="clip0_1874_4788">
<rect width="20" height="20" fill="white"/>
</clipPath>
</defs>
</svg>
