<svg width="40" height="40" viewBox="0 0 40 40" fill="none" xmlns="http://www.w3.org/2000/svg">
<path d="M20.8215 32.4836C20.8178 32.5647 20.7829 32.6412 20.7242 32.6972C20.6655 32.7532 20.5875 32.7845 20.5063 32.7844C20.3235 32.7844 20.1848 32.652 20.1785 32.4836C19.2391 29.632 19.0714 29.1945 17.1322 28.6081C10.7472 27.09 6 21.3496 6 14.5008C6 6.49194 12.4916 0 20.5 0C28.5084 0 35 6.49194 35 14.5008C35 21.3496 30.2528 27.09 23.8678 28.6081C21.9286 29.1945 21.7596 29.632 20.8215 32.4836Z" fill="#4FB92A"/>
<path d="M20.5 40C19.1187 40 18 38.8813 18 37.5C18 36.1187 19.1187 35 20.5 35C21.8813 35 23 36.1187 23 37.5C23 38.8813 21.8813 40 20.5 40Z" fill="white"/>
<path fill-rule="evenodd" clip-rule="evenodd" d="M20.4661 38.9996C20.6658 39.0041 20.8645 38.9687 21.0504 38.8954C21.2362 38.8221 21.4056 38.7124 21.5485 38.5727C21.6914 38.4331 21.8049 38.2663 21.8824 38.0821C21.96 37.898 22 37.7002 22 37.5004C22 37.3006 21.9602 37.1028 21.8827 36.9186C21.8053 36.7344 21.6918 36.5675 21.549 36.4278C21.4062 36.2881 21.2369 36.1783 21.0511 36.1049C20.8652 36.0315 20.6666 35.9959 20.4668 36.0004C20.0749 36.009 19.702 36.1708 19.4278 36.451C19.1537 36.7312 19.0001 37.1076 19 37.4996C18.9999 37.8916 19.1533 38.2681 19.4273 38.5485C19.7013 38.8288 20.0742 38.9908 20.4661 38.9996Z" fill="#4FB92A"/>
<path d="M20.5007 23.9579C25.5493 23.9579 29.642 19.865 29.642 14.8161C29.642 9.76724 25.5493 5.67432 20.5007 5.67432C15.4521 5.67432 11.3594 9.76724 11.3594 14.8161C11.3594 19.865 15.4521 23.9579 20.5007 23.9579Z" fill="white"/>
<path d="M20.2617 16.1079C20.2617 15.8514 20.4571 15.6436 20.6982 15.6436C20.9392 15.6436 21.1347 15.8514 21.1347 16.1079V20.8941C21.1347 21.1505 20.9392 21.3584 20.6982 21.3584C20.4571 21.3584 20.2617 21.1505 20.2617 20.8941V16.1079Z" fill="#4FB92A"/>
<path d="M20.7376 15.0961C20.7376 16.6347 19.5651 17.8821 18.1188 17.8821C16.6725 17.8821 15.5 16.6347 15.5 15.0961C15.5 13.5574 16.6725 12.3101 18.1188 12.3101C19.5651 12.3101 20.7376 13.5574 20.7376 15.0961Z" fill="#4FB92A" fill-opacity="0.8"/>
<path d="M25.4993 15.0961C25.4993 16.6347 24.3268 17.8821 22.8805 17.8821C21.4342 17.8821 20.2617 16.6347 20.2617 15.0961C20.2617 13.5574 21.4342 12.3101 22.8805 12.3101C24.3268 12.3101 25.4993 13.5574 25.4993 15.0961Z" fill="#4FB92A" fill-opacity="0.8"/>
<path d="M24.3559 12.429C24.3559 14.5989 22.6873 16.358 20.6291 16.358C18.5709 16.358 16.9023 14.5989 16.9023 12.429C16.9023 10.2591 18.5709 8.5 20.6291 8.5C22.6873 8.5 24.3559 10.2591 24.3559 12.429Z" fill="#4FB92A"/>
</svg>
