<svg width="40" height="40" viewBox="0 0 40 40" fill="none" xmlns="http://www.w3.org/2000/svg">
<path d="M20.8215 32.4836C20.8178 32.5647 20.7829 32.6412 20.7242 32.6972C20.6655 32.7532 20.5875 32.7845 20.5063 32.7844C20.3235 32.7844 20.1848 32.652 20.1785 32.4836C19.2391 29.632 19.0714 29.1945 17.1322 28.6081C10.7472 27.09 6 21.3496 6 14.5008C6 6.49194 12.4916 0 20.5 0C28.5084 0 35 6.49194 35 14.5008C35 21.3496 30.2528 27.09 23.8678 28.6081C21.9286 29.1945 21.7596 29.632 20.8215 32.4836Z" fill="#1E8CBC"/>
<path d="M20.5 40C19.1187 40 18 38.8813 18 37.5C18 36.1187 19.1187 35 20.5 35C21.8813 35 23 36.1187 23 37.5C23 38.8813 21.8813 40 20.5 40Z" fill="white"/>
<path fill-rule="evenodd" clip-rule="evenodd" d="M20.4661 38.9996C20.6658 39.0041 20.8645 38.9687 21.0504 38.8954C21.2362 38.8221 21.4056 38.7124 21.5485 38.5727C21.6914 38.4331 21.8049 38.2663 21.8824 38.0821C21.96 37.898 22 37.7002 22 37.5004C22 37.3006 21.9602 37.1028 21.8827 36.9186C21.8053 36.7344 21.6918 36.5675 21.549 36.4278C21.4062 36.2881 21.2369 36.1783 21.0511 36.1049C20.8652 36.0315 20.6666 35.9959 20.4668 36.0004C20.0749 36.009 19.702 36.1708 19.4278 36.451C19.1537 36.7312 19.0001 37.1076 19 37.4996C18.9999 37.8916 19.1533 38.2681 19.4273 38.5485C19.7013 38.8288 20.0742 38.9908 20.4661 38.9996Z" fill="#1E8CBC"/>
<path d="M20.5007 23.9579C25.5493 23.9579 29.642 19.865 29.642 14.8161C29.642 9.76724 25.5493 5.67432 20.5007 5.67432C15.4521 5.67432 11.3594 9.76724 11.3594 14.8161C11.3594 19.865 15.4521 23.9579 20.5007 23.9579Z" fill="white"/>
<path d="M16.5172 10.0819C16.4456 10.1584 16.4401 10.1802 16.429 10.6718C16.418 10.9995 16.429 11.2235 16.4566 11.3054C16.5227 11.513 16.5337 11.5184 17.977 11.5184C19.1449 11.5184 19.2495 11.5239 19.2991 11.5731C19.3872 11.6714 19.3817 11.8079 19.2881 11.9008C19.2275 11.9609 19.1834 11.9663 17.999 11.9663H16.7761L16.7596 12.0646C16.7541 12.1193 16.732 12.4251 16.71 12.7365C16.5723 14.9486 16.06 16.9695 15.3328 18.1875L15.1345 18.5207L14.6773 18.5371L14.22 18.5535L14.1099 18.6682C13.9887 18.8047 13.9666 18.9467 14.0493 19.1051C14.1539 19.3018 13.6692 19.2854 20.5 19.2854C27.3308 19.2854 26.8461 19.3018 26.9507 19.0942C27.0334 18.9358 27.0113 18.7938 26.8901 18.6573L26.78 18.5425L26.3778 18.5316L25.9757 18.5207V15.8716V13.2226H24.0476H22.1196L22.1361 13.3209C22.1471 13.3755 22.1691 13.5558 22.1912 13.7142L22.2297 14.0091H22.731H23.2378V14.5171V15.025H22.8412C22.4831 15.025 22.4446 15.0305 22.4446 15.0796C22.4446 15.1124 22.4942 15.2981 22.5437 15.5002L22.6484 15.8662L22.9459 15.8771L23.2378 15.888V16.3905V16.8985H23.1442C23.0946 16.8985 23.0505 16.9149 23.0505 16.9313C23.0505 16.9804 23.348 17.5649 23.5023 17.8052C23.5739 17.9253 23.7226 18.1384 23.8383 18.2804L24.0421 18.5425H23.7116H23.3811L23.1883 18.2476C22.2353 16.822 21.6568 14.6482 21.5026 11.9226L21.4861 11.5403L21.6017 11.5184C21.8386 11.4747 21.8441 11.4474 21.8441 10.7592V10.1311L21.7615 10.0655C21.6734 10 21.6568 10 19.1338 10H16.5888L16.5172 10.0819ZM25.1163 14.5171V15.025H24.604H24.0917V14.5171V14.0091H24.604H25.1163V14.5171ZM25.1163 16.3796V16.8876H24.604H24.0917V16.3796V15.8716H24.604H25.1163V16.3796Z" fill="#1E8CBC"/>
</svg>
