<svg width="20" height="20" viewBox="0 0 20 20" fill="none" xmlns="http://www.w3.org/2000/svg">
<g clip-path="url(#clip0_1877_6154)">
<path fill-rule="evenodd" clip-rule="evenodd" d="M10 15.9856C14.4183 15.9856 18 13.0787 18 9.49279C18 5.90692 14.4183 3 10 3C5.58172 3 2 5.90692 2 9.49279C2 10.9126 2.56153 12.226 3.51419 13.2946C3.48324 13.955 3.19412 14.9968 2.20229 16.1857C2.11895 16.2856 2.00223 16.5952 2.20223 16.835C2.40223 17.0747 3.03557 17.0014 3.30221 16.9349C4.05945 16.7948 5.60958 16.2893 6.72556 15.4186C7.72502 15.7829 8.83335 15.9856 10 15.9856Z" fill="white"/>
</g>
<defs>
<clipPath id="clip0_1877_6154">
<rect width="20" height="20" fill="white"/>
</clipPath>
</defs>
</svg>
