<svg width="40" height="40" viewBox="0 0 40 40" fill="none" xmlns="http://www.w3.org/2000/svg">
<g clip-path="url(#clip0_2069_4442)">
<mask id="mask0_2069_4442" style="mask-type:luminance" maskUnits="userSpaceOnUse" x="0" y="0" width="40" height="40">
<path d="M40 0H0V40H40V0Z" fill="white"/>
</mask>
<g mask="url(#mask0_2069_4442)">
<path d="M19.8215 32.4819C19.8178 32.563 19.7829 32.6395 19.7242 32.6955C19.6655 32.7515 19.5875 32.7827 19.5063 32.7826C19.3235 32.7826 19.1848 32.6502 19.1785 32.4819C18.2391 29.6304 18.0714 29.1929 16.1322 28.6066C9.74717 27.0885 5 21.3484 5 14.5C5 6.49159 11.4916 0 19.5 0C27.5084 0 34 6.49159 34 14.5C34 21.3484 29.2528 27.0885 22.8678 28.6066C20.9286 29.1929 20.7609 29.6304 19.8228 32.4819H19.8215Z" fill="#677B9A"/>
<path d="M19.5 39C18.1187 39 17 37.8812 17 36.5C17 35.1188 18.1187 34 19.5 34C20.8813 34 22 35.1188 22 36.5C22 37.8812 20.8813 39 19.5 39Z" fill="white"/>
<path fill-rule="evenodd" clip-rule="evenodd" d="M19.4662 37.9996C19.6659 38.0041 19.8645 37.9687 20.0504 37.8953C20.2362 37.822 20.4056 37.7123 20.5485 37.5727C20.6914 37.433 20.8049 37.2662 20.8825 37.0821C20.96 36.8979 21 36.7002 21 36.5003C21.0001 36.3006 20.9603 36.1028 20.8828 35.9186C20.8054 35.7345 20.6919 35.5676 20.549 35.4279C20.4062 35.2881 20.2369 35.1783 20.0511 35.1049C19.8653 35.0315 19.6666 34.996 19.4669 35.0004C19.075 35.009 18.702 35.1708 18.4278 35.451C18.1537 35.7313 18.0001 36.1077 18 36.4996C17.9999 36.8916 18.1532 37.2681 18.4273 37.5484C18.7013 37.8288 19.0742 37.9907 19.4662 37.9996Z" fill="#677B9A"/>
<path d="M19.5007 23.9564C24.5493 23.9564 28.642 19.8637 28.642 14.8151C28.642 9.76653 24.5493 5.67383 19.5007 5.67383C14.4521 5.67383 10.3594 9.76653 10.3594 14.8151C10.3594 19.8637 14.4521 23.9564 19.5007 23.9564Z" fill="white"/>
</g>
<path d="M21.0209 11.9777L19.5008 10L17.9806 11.9777C16.3285 14.3175 15.9729 16.0724 16.0016 16.6574C16.0016 18.1059 17.0341 19.1179 17.5504 19.4429C17.8372 19.6286 18.6346 20 19.5295 20C20.4243 20 21.2026 19.6286 21.4798 19.4429C21.9866 19.1643 23 18.2173 23 16.6574C23 15.0975 21.6806 12.8877 21.0209 11.9777Z" fill="#677B9A"/>
<path fill-rule="evenodd" clip-rule="evenodd" d="M24.3536 10.6464C24.5488 10.8417 24.5488 11.1583 24.3536 11.3536L15.3536 20.3536C15.1583 20.5488 14.8417 20.5488 14.6464 20.3536C14.4512 20.1583 14.4512 19.8417 14.6464 19.6464L23.6464 10.6464C23.8417 10.4512 24.1583 10.4512 24.3536 10.6464Z" fill="#FF0000"/>
</g>
<defs>
<clipPath id="clip0_2069_4442">
<rect width="40" height="40" fill="white"/>
</clipPath>
</defs>
</svg>
