<svg width="20" height="20" viewBox="0 0 20 20" fill="none" xmlns="http://www.w3.org/2000/svg">
<g clip-path="url(#clip0_1316_5440)">
<path d="M9.54665 2.03947C8.42603 2.14579 7.34342 2.70787 6.61154 3.56622C6.47426 3.73328 6.34473 3.87762 6.32937 3.89277C6.31417 3.90791 6.16168 3.90034 5.98639 3.86232C5.36124 3.73328 4.57584 3.8852 4.04222 4.24219C3.72204 4.45485 3.30274 4.90303 3.13505 5.22201C2.98257 5.51054 2.83008 6.04233 2.83008 6.29285V6.45234H9.99651H17.1629V6.29285C17.1553 5.58658 16.6293 4.69022 15.9508 4.24219C15.4094 3.87762 14.6242 3.73328 14.0066 3.86232L13.6941 3.93079L13.5645 3.7713C12.9316 2.98899 12.032 2.38889 11.1553 2.16867C10.8503 2.09263 10.126 1.98634 9.96595 2.00145C9.92019 2.00145 9.7373 2.01675 9.54665 2.03947Z" fill="white"/>
<path d="M1.70147 7.4092C1.44986 7.46993 1.24401 7.63715 1.12193 7.89539L1 8.13834L1.4269 11.9361C1.89196 16.068 1.87676 15.9996 2.18934 16.4097L2.34182 16.6224L2.37223 16.3717C2.57808 14.7388 4.01903 13.5388 5.67343 13.6298C6.83981 13.6982 7.80809 14.3362 8.33412 15.3921C8.57053 15.8781 8.6543 16.2578 8.63909 16.7819L8.62389 17.1845H9.98852H11.3456V16.7516C11.3456 15.0729 12.634 13.721 14.3188 13.6298C14.906 13.5995 15.3329 13.6831 15.8971 13.9565C16.263 14.1387 16.3849 14.2223 16.6823 14.511C17.2083 15.0351 17.5361 15.6654 17.62 16.349L17.6506 16.6224L17.8107 16.4097C18.1156 15.992 18.1079 16.0603 18.5729 11.9361L19 8.13077L18.8703 7.88782C18.7788 7.69789 18.7026 7.60671 18.5425 7.51552L18.3367 7.38648L10.0876 7.37891C5.5515 7.37891 1.77764 7.38648 1.70147 7.4092Z" fill="white"/>
<path d="M5.04106 14.5945C4.73624 14.6552 4.26357 14.8983 4.01956 15.1185C3.19616 15.8552 3.03607 17.0857 3.65362 18.0124C4.05772 18.6125 4.7896 18.9998 5.52908 18.9998C5.8187 18.9998 6.36008 18.8479 6.61929 18.6959C7.11476 18.4074 7.51125 17.8833 7.65614 17.344C8.00688 15.9844 7.01579 14.6325 5.61284 14.5718C5.41475 14.564 5.16314 14.5718 5.04106 14.5945Z" fill="white"/>
<path d="M14.1288 14.58C13.4655 14.6863 12.8024 15.1877 12.4898 15.7952C12.2 16.3648 12.2 17.1852 12.4898 17.7548C13.0386 18.8485 14.3652 19.2967 15.4555 18.7726C16.6752 18.1878 17.1023 16.6384 16.3398 15.5294C15.8596 14.8307 14.9522 14.4432 14.1288 14.58Z" fill="white"/>
</g>
<defs>
<clipPath id="clip0_1316_5440">
<rect width="20" height="20" fill="white"/>
</clipPath>
</defs>
</svg>
