<svg width="20" height="20" viewBox="0 0 20 20" fill="none" xmlns="http://www.w3.org/2000/svg">
<g clip-path="url(#clip0_1877_6076)">
<path fill-rule="evenodd" clip-rule="evenodd" d="M16.9993 4.37374H11.999V2.1258C11.999 1.50321 11.5517 1 10.9983 1H2.99908C2.4473 1 2 1.50321 2 2.1258V17.8742C2 18.4968 2.4473 19 3.00071 19H16.9993C17.5527 19 18 18.4968 18 17.8742V5.49954C17.9984 4.87695 17.5511 4.37374 16.9993 4.37374ZM10.9999 17.8724H8.49893V15.0606C8.49893 14.7502 8.27528 14.4986 7.99939 14.4986H5.99959C5.7237 14.4986 5.50005 14.7502 5.50005 15.0606V17.8724H3.50026C3.22436 17.8724 3.00071 17.6208 3.00071 17.3104V2.68779C3.00071 2.37741 3.22436 2.1258 3.50026 2.1258H10.5004C10.7762 2.1258 10.9999 2.37741 10.9999 2.68779V17.8724ZM5.99959 4.37374H9.0001V5.49954H5.99959H5.50005H4.99888L5.00051 4.37374H5.50005H5.99959ZM9.0001 7.74931H5.99959H5.34486H5.00051L4.99888 8.87511H5.34486H5.99959H9.0001V7.74931ZM8.49975 11.123H9.0001V12.2489H8.49975H7.99939H4.99888L5.00051 11.123H7.99939H8.49975Z" fill="white"/>
</g>
<defs>
<clipPath id="clip0_1877_6076">
<rect width="20" height="20" fill="white"/>
</clipPath>
</defs>
</svg>
