<svg width="40" height="40" viewBox="0 0 40 40" fill="none" xmlns="http://www.w3.org/2000/svg">
<g clip-path="url(#clip0_1331_6367)">
<path d="M20.3301 23.75C25.3195 23.75 29.3643 19.6926 29.3643 14.6875C29.3643 9.68242 25.3195 5.625 20.3301 5.625C15.3406 5.625 11.2959 9.68242 11.2959 14.6875C11.2959 19.6926 15.3406 23.75 20.3301 23.75Z" fill="white"/>
<path d="M15.5997 19.4454C15.2229 19.4573 15.1938 19.4611 15.111 19.5587C15.0076 19.6876 15.0076 19.7658 15.1151 19.8985C15.1675 19.9629 15.246 20.0002 15.3288 20.0002H20.3297H25.3307C25.4135 20.0002 25.4918 19.9629 25.5443 19.8985L15.5997 19.4454ZM15.5997 19.4454C15.8235 19.4389 16.0015 19.2551 16.0015 19.0305V14.6877V10.3449C16.0015 10.1203 15.8235 9.93649 15.5997 9.92994V19.4454ZM14.973 9.93441L14.97 9.93076C14.9111 9.85758 14.8514 9.76383 14.8526 9.64641C14.8537 9.53016 14.9142 9.43647 14.9745 9.36205C15.0614 9.25551 15.1916 9.19336 15.3288 9.19336H20.3297H25.3307C25.4679 9.19336 25.5978 9.25518 25.6846 9.36172C25.745 9.43616 25.8055 9.53016 25.8066 9.64634C25.8079 9.76361 25.7483 9.85734 25.6895 9.93063L25.6864 9.93427C25.6643 9.96041 25.6346 9.99416 25.5944 10.0226C25.5509 10.0533 25.5045 10.0715 25.4543 10.0829C25.3687 10.1022 25.2462 10.106 25.0697 10.1115L25.0653 10.1117C24.9395 10.1154 24.8391 10.2187 24.8391 10.3449V14.6877V19.0305C24.8391 19.1567 24.9392 19.26 25.0649 19.2636L25.068 19.2638C25.2456 19.2693 25.3685 19.2731 25.4543 19.2925C25.5047 19.304 25.5509 19.3222 25.5944 19.3529C25.6344 19.3813 25.6642 19.4149 25.6863 19.4409L25.6893 19.4445C25.7483 19.5178 25.8079 19.6114 25.8068 19.7289C25.8057 19.8453 25.7452 19.9389 25.6848 20.0133C25.598 20.1198 25.4679 20.182 25.3307 20.182H20.3297H15.3288C15.1916 20.182 15.0616 20.1202 14.9748 20.0136C14.9145 19.9393 14.8539 19.8453 14.8527 19.7291C14.8516 19.6118 14.911 19.518 14.9699 19.4447L14.9729 19.4411C14.9951 19.4149 15.0248 19.3813 15.0651 19.3527C15.1086 19.322 15.1548 19.304 15.2052 19.2925C15.2906 19.2731 15.4131 19.2693 15.5898 19.2638L15.5941 19.2636C15.7198 19.26 15.8202 19.1567 15.8202 19.0305V14.6877V10.3449C15.8202 10.2187 15.7202 10.1154 15.5944 10.1117L15.5914 10.1116C15.4138 10.106 15.2908 10.1022 15.2051 10.0828C15.1548 10.0713 15.1086 10.0532 15.0651 10.0225C15.0249 9.99416 14.9952 9.96049 14.973 9.93441ZM19.9984 11.1875L20.8752 18.9234C20.8813 19.0954 21.0221 19.2322 21.1937 19.2322H22.3839C23.2079 19.2322 23.876 18.562 23.876 17.7354V14.6877V11.6855C23.876 10.8336 23.1875 10.143 22.3383 10.143H21.1257C20.9462 10.143 20.8007 10.289 20.8007 10.4691C20.8007 10.6972 20.7992 10.8423 20.784 10.9384C20.7757 10.9909 20.7618 11.0411 20.735 11.0883C20.708 11.1356 20.6748 11.1677 20.6492 11.1906L20.6477 11.192C20.4661 11.3512 20.1784 11.3573 19.9984 11.1875Z" fill="#283244"/>
<path d="M15.5997 19.4454C15.2229 19.4573 15.1938 19.4611 15.111 19.5587C15.0076 19.6876 15.0076 19.7658 15.1151 19.8985C15.1675 19.9629 15.246 20.0002 15.3288 20.0002H20.3297H25.3307C25.4135 20.0002 25.4918 19.9629 25.5443 19.8985L15.5997 19.4454ZM15.5997 19.4454C15.8235 19.4389 16.0015 19.2551 16.0015 19.0305V14.6877V10.3449C16.0015 10.1203 15.8235 9.93649 15.5997 9.92994V19.4454ZM25.6846 9.36172C25.5978 9.25518 25.4679 9.19336 25.3307 9.19336H20.3297H15.3288C15.1916 9.19336 15.0614 9.25551 14.9745 9.36205C14.9142 9.43647 14.8537 9.53016 14.8526 9.64641C14.8514 9.76383 14.9111 9.85758 14.97 9.93076L14.973 9.93441C14.9952 9.96049 15.0249 9.99416 15.0651 10.0225C15.1086 10.0532 15.1548 10.0713 15.2051 10.0828C15.2908 10.1022 15.4138 10.106 15.5914 10.1116L15.5944 10.1117C15.7202 10.1154 15.8202 10.2187 15.8202 10.3449V14.6877V19.0305C15.8202 19.1567 15.7198 19.26 15.5941 19.2636L15.5898 19.2638C15.4131 19.2693 15.2906 19.2731 15.2052 19.2925C15.1548 19.304 15.1086 19.322 15.0651 19.3527C15.0248 19.3813 14.9951 19.4149 14.9729 19.4411L14.9699 19.4447C14.911 19.518 14.8516 19.6118 14.8527 19.7291C14.8539 19.8453 14.9145 19.9393 14.9748 20.0136C15.0616 20.1202 15.1916 20.182 15.3288 20.182H20.3297H25.3307C25.4679 20.182 25.598 20.1198 25.6848 20.0133C25.7452 19.9389 25.8057 19.8453 25.8068 19.7289C25.8079 19.6114 25.7483 19.5178 25.6893 19.4445L25.6863 19.4409C25.6642 19.4149 25.6344 19.3813 25.5944 19.3529C25.5509 19.3222 25.5047 19.304 25.4543 19.2925C25.3685 19.2731 25.2456 19.2693 25.068 19.2638L25.0649 19.2636M25.6846 9.36172L25.5443 9.4768M25.6846 9.36172C25.745 9.43616 25.8055 9.53016 25.8066 9.64634C25.8079 9.76361 25.7483 9.85734 25.6895 9.93063L25.6864 9.93427C25.6643 9.96041 25.6346 9.99416 25.5944 10.0226C25.5509 10.0533 25.5045 10.0715 25.4543 10.0829C25.3687 10.1022 25.2462 10.106 25.0697 10.1115L25.0653 10.1117C24.9395 10.1154 24.8391 10.2187 24.8391 10.3449V14.6877V19.0305C24.8391 19.1567 24.9392 19.26 25.0649 19.2636M25.0649 19.2636L25.0597 19.4454M19.9984 11.1875L20.8752 18.9234C20.8813 19.0954 21.0221 19.2322 21.1937 19.2322H22.3839C23.2079 19.2322 23.876 18.562 23.876 17.7354V14.6877V11.6855C23.876 10.8336 23.1875 10.143 22.3383 10.143H21.1257C20.9462 10.143 20.8007 10.289 20.8007 10.4691C20.8007 10.6972 20.7992 10.8423 20.784 10.9384C20.7757 10.9909 20.7618 11.0411 20.735 11.0883C20.708 11.1356 20.6748 11.1677 20.6492 11.1906L20.6477 11.192C20.4661 11.3512 20.1784 11.3573 19.9984 11.1875Z" stroke="#283244" stroke-width="0.2"/>
<path d="M20.1942 11.8926C20.1362 11.9114 19.6516 12.2392 19.1191 12.6197C18.2761 13.2261 18.1497 13.3355 18.1497 13.4372C18.1497 13.5577 18.2868 13.6896 18.4291 13.7009C18.6452 13.7236 18.7558 13.6671 19.3353 13.2602L19.9569 12.8195V14.6727C19.9569 15.6937 19.9411 16.5262 19.92 16.5262C19.8989 16.5262 19.6092 16.3304 19.2718 16.0929C18.6132 15.6295 18.5079 15.5919 18.2654 15.7275C18.1864 15.7766 18.1494 15.8406 18.1494 15.9196C18.1494 16.025 18.2706 16.1268 19.1188 16.7445C19.651 17.1326 20.1411 17.464 20.2095 17.483C20.2834 17.5057 20.3676 17.5057 20.4467 17.483C20.5099 17.4642 21 17.1326 21.5322 16.7445C22.3804 16.1268 22.5016 16.025 22.5016 15.9196C22.5016 15.8404 22.4646 15.7764 22.3856 15.7275C22.1431 15.5919 22.0378 15.6295 21.3792 16.0929C21.0421 16.3302 20.7521 16.5262 20.7313 16.5262C20.7102 16.5262 20.6943 15.6899 20.6943 14.6727V12.8155L21.2897 13.2375C21.6112 13.4673 21.9325 13.6745 22.0011 13.697C22.254 13.7911 22.5965 13.5501 22.4912 13.3543C22.428 13.2412 20.5417 11.9039 20.4046 11.8813C20.3471 11.8701 20.2522 11.8738 20.1942 11.8926Z" fill="#283244"/>
<path d="M20.8215 32.2018C20.8178 32.2822 20.7829 32.358 20.7242 32.4136C20.6655 32.4691 20.5875 32.5 20.5063 32.5C20.3235 32.5 20.1848 32.3687 20.1785 32.2018C19.2391 29.3751 19.0714 28.9413 17.1322 28.36C10.7472 26.8549 6 21.1644 6 14.375C6 6.43562 12.4916 0 20.5 0C28.5083 0 35 6.43562 35 14.375C35 21.1644 30.2529 26.8549 23.8678 28.36C21.9286 28.9413 21.7596 29.3751 20.8215 32.2018Z" fill="#42CB11"/>
<path d="M20.5007 23.75C25.5493 23.75 29.642 19.6926 29.642 14.6875C29.642 9.68242 25.5493 5.625 20.5007 5.625C15.4521 5.625 11.3594 9.68242 11.3594 14.6875C11.3594 19.6926 15.4521 23.75 20.5007 23.75Z" fill="white"/>
<mask id="mask0_1331_6367" style="mask-type:luminance" maskUnits="userSpaceOnUse" x="13" y="7" width="13" height="13">
<path d="M25.9375 7.27295H13.25V20.0002H25.9375V7.27295Z" fill="white"/>
</mask>
<g mask="url(#mask0_1331_6367)">
<path d="M20.7544 12.3642H21.1773C21.2943 12.3642 21.3888 12.2694 21.3888 12.1521C21.3888 12.0348 21.2943 11.9399 21.1773 11.9399H20.7544C20.6375 11.9399 20.543 12.0348 20.543 12.1521C20.543 12.2694 20.6375 12.3642 20.7544 12.3642Z" fill="#42CB11"/>
<path d="M20.0145 13.8483C19.9229 13.848 19.8339 13.8317 19.7497 13.7995C19.6415 13.7581 19.5186 13.8126 19.4767 13.9221C19.4353 14.0315 19.4901 14.1541 19.599 14.1959C19.7313 14.2464 19.8707 14.2723 20.014 14.2725H20.0895C20.2065 14.2725 20.301 14.1777 20.301 14.0604C20.301 13.9431 20.2065 13.8483 20.0895 13.8483H20.0145Z" fill="#42CB11"/>
<path d="M19.5116 12.5071C19.5499 12.5071 19.5884 12.4967 19.6233 12.475C19.7169 12.4165 19.8206 12.3806 19.9307 12.3684C20.0468 12.3554 20.1306 12.2506 20.1179 12.1342C20.1052 12.0177 20.0014 11.9346 19.8844 11.9464C19.7106 11.9657 19.5474 12.0222 19.3993 12.1149C19.3002 12.1768 19.2701 12.3077 19.3319 12.4072C19.3721 12.4716 19.441 12.5071 19.5116 12.5071Z" fill="#42CB11"/>
<path d="M20.8594 15.7573C20.8412 15.7573 20.8233 15.7578 20.8053 15.7586C20.6886 15.7633 20.5981 15.8621 20.6027 15.9792C20.6072 16.0933 20.701 16.1826 20.8137 16.1826L20.8226 16.1824L21.2369 16.1816C21.3538 16.1816 21.4483 16.0868 21.4483 15.9695C21.4483 15.8521 21.3538 15.7573 21.2369 15.7573H20.8594Z" fill="#42CB11"/>
<path d="M22.4449 12.3642C22.5618 12.3642 22.6564 12.2694 22.6564 12.1521C22.6564 12.0348 22.5618 11.9399 22.4449 11.9399H22.022C21.9051 11.9399 21.8105 12.0348 21.8105 12.1521C21.8105 12.2694 21.9051 12.3642 22.022 12.3642H22.4449Z" fill="#42CB11"/>
<path d="M23.3521 15.7573C23.2351 15.7573 23.1406 15.8521 23.1406 15.9695C23.1406 16.0868 23.2351 16.1816 23.3521 16.1816H23.775C23.8919 16.1816 23.9865 16.0868 23.9865 15.9695C23.9865 15.8521 23.8919 15.7573 23.775 15.7573H23.3521Z" fill="#42CB11"/>
<path d="M24.1075 14.0608C24.1075 13.9435 24.013 13.8486 23.8961 13.8486H23.4732C23.3562 13.8486 23.2617 13.9435 23.2617 14.0608C23.2617 14.1781 23.3562 14.2729 23.4732 14.2729H23.8961C24.0128 14.2729 24.1075 14.1781 24.1075 14.0608Z" fill="#42CB11"/>
<path d="M22.0855 16.1816H22.5084C22.6253 16.1816 22.7199 16.0868 22.7199 15.9695C22.7199 15.8521 22.6253 15.7573 22.5084 15.7573H22.0855C21.9685 15.7573 21.874 15.8521 21.874 15.9695C21.874 16.0868 21.9688 16.1816 22.0855 16.1816Z" fill="#42CB11"/>
<path d="M22.84 14.0608C22.84 13.9435 22.7455 13.8486 22.6285 13.8486H22.2056C22.0887 13.8486 21.9941 13.9435 21.9941 14.0608C21.9941 14.1781 22.0887 14.2729 22.2056 14.2729H22.6285C22.7452 14.2729 22.84 14.1781 22.84 14.0608Z" fill="#42CB11"/>
<path d="M20.9351 13.8486C20.8182 13.8486 20.7236 13.9435 20.7236 14.0608C20.7236 14.1781 20.8182 14.2729 20.9351 14.2729H21.358C21.4749 14.2729 21.5695 14.1781 21.5695 14.0608C21.5695 13.9435 21.4749 13.8486 21.358 13.8486H20.9351Z" fill="#42CB11"/>
<path d="M18.3375 19.5757H17.9146C17.7976 19.5757 17.7031 19.6706 17.7031 19.7879C17.7031 19.9051 17.7976 19.9999 17.9146 19.9999H18.3375C18.4544 19.9999 18.549 19.9051 18.549 19.7879C18.549 19.6706 18.4542 19.5757 18.3375 19.5757Z" fill="#42CB11"/>
<path d="M17.0709 19.5757H16.648C16.531 19.5757 16.4365 19.6706 16.4365 19.7879C16.4365 19.9051 16.531 19.9999 16.648 19.9999H17.0709C17.1878 19.9999 17.2824 19.9051 17.2824 19.7879C17.2824 19.6706 17.1876 19.5757 17.0709 19.5757Z" fill="#42CB11"/>
<path d="M24.3718 18.8372C24.2578 18.8116 24.1447 18.8832 24.1191 18.9976C24.0947 19.1058 24.0476 19.2052 23.9789 19.2929C23.9068 19.3849 23.9224 19.5183 24.0144 19.5907C24.0533 19.6212 24.0992 19.6361 24.1449 19.6361C24.2076 19.6361 24.2696 19.6083 24.3113 19.555C24.4178 19.4192 24.494 19.2589 24.5317 19.0909C24.5572 18.9763 24.4858 18.8629 24.3718 18.8372Z" fill="#42CB11"/>
<path d="M24.1455 18.4553C24.1912 18.4553 24.2374 18.4404 24.2759 18.4098C24.3679 18.3373 24.3835 18.204 24.3114 18.1121C24.2052 17.9765 24.0679 17.8645 23.9141 17.7879C23.809 17.7356 23.6826 17.7786 23.6306 17.8834C23.5785 17.9884 23.6213 18.1157 23.7257 18.1679C23.8236 18.2164 23.9112 18.288 23.9788 18.3745C24.0207 18.4275 24.0826 18.4553 24.1455 18.4553Z" fill="#42CB11"/>
<path d="M23.2013 17.8791C23.2013 17.7618 23.1068 17.667 22.9898 17.667H22.5669C22.45 17.667 22.3555 17.7618 22.3555 17.8791C22.3555 17.9964 22.45 18.0912 22.5669 18.0912H22.9898C23.1066 18.0912 23.2013 17.9964 23.2013 17.8791Z" fill="#42CB11"/>
<path d="M23.3959 19.5757H22.9878C22.8709 19.5757 22.7764 19.6706 22.7764 19.7879C22.7764 19.9051 22.8709 19.9999 22.9878 19.9999L23.4046 19.9997L23.4107 19.7877V19.9997C23.5277 19.9997 23.6148 19.905 23.6148 19.7877C23.6148 19.6706 23.5129 19.5757 23.3959 19.5757Z" fill="#42CB11"/>
<path d="M25.8156 14.831C25.7969 14.7152 25.688 14.6361 25.5732 14.6552C25.4578 14.6736 25.3793 14.7827 25.3978 14.8983C25.4038 14.936 25.4072 14.9744 25.4067 15.0154C25.4067 15.0866 25.3965 15.1571 25.3768 15.2249C25.3439 15.3374 25.4079 15.4553 25.5203 15.4882C25.5402 15.4939 25.56 15.4967 25.5798 15.4967C25.6713 15.4967 25.7556 15.4368 25.7828 15.3442C25.8137 15.2375 25.8297 15.1269 25.8297 15.0168C25.8301 14.9558 25.8253 14.8932 25.8156 14.831Z" fill="#42CB11"/>
<path d="M19.1754 13.6057C19.2862 13.5691 19.3467 13.4492 19.3103 13.3378C19.286 13.2634 19.2735 13.1855 19.2735 13.1071C19.2737 13.075 19.2756 13.043 19.2794 13.0118C19.294 12.8956 19.212 12.7893 19.0961 12.7749C18.9766 12.7615 18.8743 12.843 18.8599 12.9588C18.854 13.0067 18.8508 13.0555 18.8506 13.106C18.8506 13.2307 18.8701 13.3533 18.9083 13.4704C18.9377 13.5597 19.0204 13.6164 19.1092 13.6164C19.1312 13.6164 19.1536 13.6132 19.1754 13.6057Z" fill="#42CB11"/>
<path d="M25.2501 14.0053C25.0991 13.9175 24.9342 13.8659 24.7602 13.8521C24.644 13.8436 24.5419 13.93 24.5329 14.0471C24.5238 14.164 24.6106 14.266 24.7272 14.2751C24.8376 14.2838 24.9421 14.3165 25.038 14.3723C25.0714 14.3918 25.108 14.4009 25.1439 14.4009C25.2169 14.4009 25.288 14.3629 25.3271 14.2953C25.3857 14.1941 25.3512 14.0643 25.2501 14.0053Z" fill="#42CB11"/>
<path d="M24.951 15.7002C24.8604 15.7384 24.7644 15.7577 24.6652 15.7577H24.6197C24.5028 15.7577 24.4082 15.8525 24.4082 15.9698C24.4082 16.0871 24.5028 16.1819 24.6197 16.1819H24.6652C24.8209 16.1819 24.9721 16.1514 25.1145 16.0913C25.2224 16.0459 25.2729 15.9217 25.2276 15.8137C25.1827 15.7057 25.058 15.6548 24.951 15.7002Z" fill="#42CB11"/>
<path d="M20.1342 16.7849C20.1551 16.6759 20.1991 16.5751 20.2651 16.4852C20.3342 16.391 20.3141 16.2582 20.22 16.1886C20.1259 16.1195 19.9938 16.1394 19.9244 16.2338C19.821 16.3751 19.7517 16.5335 19.7187 16.7051C19.6967 16.8201 19.7717 16.9312 19.8866 16.9535C19.8999 16.9561 19.9134 16.9573 19.9265 16.9573C20.0259 16.9569 20.1145 16.8863 20.1342 16.7849Z" fill="#42CB11"/>
<path d="M20.4648 18.0054C20.5452 18.0054 20.6217 17.9593 20.6573 17.8815C20.7057 17.7748 20.6592 17.649 20.553 17.6004C20.4538 17.5548 20.364 17.4863 20.2933 17.4019C20.218 17.3121 20.0848 17.3005 19.9954 17.376C19.9059 17.4513 19.8943 17.5851 19.9696 17.6749C20.0804 17.807 20.2212 17.9148 20.3771 17.9861C20.4056 17.999 20.4354 18.0054 20.4648 18.0054Z" fill="#42CB11"/>
<path d="M19.6051 19.5757H19.1822C19.0652 19.5757 18.9707 19.6706 18.9707 19.7879C18.9707 19.9051 19.0652 19.9999 19.1822 19.9999H19.6051C19.722 19.9999 19.8165 19.9051 19.8165 19.7879C19.8165 19.6706 19.7218 19.5757 19.6051 19.5757Z" fill="#42CB11"/>
<path d="M20.8766 19.5757H20.4537C20.3367 19.5757 20.2422 19.6706 20.2422 19.7879C20.2422 19.9051 20.3367 19.9999 20.4537 19.9999H20.8766C20.9935 19.9999 21.088 19.9051 21.088 19.7879C21.088 19.6706 20.9933 19.5757 20.8766 19.5757Z" fill="#42CB11"/>
<path d="M21.9337 17.8791C21.9337 17.7618 21.8392 17.667 21.7223 17.667H21.2994C21.1824 17.667 21.0879 17.7618 21.0879 17.8791C21.0879 17.9964 21.1824 18.0912 21.2994 18.0912H21.7223C21.839 18.0912 21.9337 17.9964 21.9337 17.8791Z" fill="#42CB11"/>
<path d="M22.1432 19.5757H21.7203C21.6033 19.5757 21.5088 19.6706 21.5088 19.7879C21.5088 19.9051 21.6033 19.9999 21.7203 19.9999H22.1432C22.2601 19.9999 22.3546 19.9051 22.3546 19.7879C22.3546 19.6706 22.2599 19.5757 22.1432 19.5757Z" fill="#42CB11"/>
<path d="M17.6943 13.4193C17.2141 12.8752 16.5738 12.5757 15.891 12.5757C15.2082 12.5757 14.5679 12.8752 14.0879 13.4193C13.1126 14.5247 13.1126 16.3228 14.0879 17.4282L15.891 19.4715L17.6941 17.4282C18.6695 16.3228 18.6695 14.5247 17.6943 13.4193ZM15.891 16.3939C15.1913 16.3939 14.6222 15.823 14.6222 15.1211C14.6222 14.4192 15.1913 13.8484 15.891 13.8484C16.5907 13.8484 17.1597 14.4192 17.1597 15.1211C17.1597 15.823 16.5907 16.3939 15.891 16.3939Z" fill="#42CB11"/>
<path d="M23.5582 12.4714L24.925 10.9259C25.6605 10.0944 25.6605 8.7419 24.925 7.91037C24.5614 7.49928 24.0758 7.27295 23.558 7.27295C23.0403 7.27295 22.5548 7.49928 22.1911 7.91037C21.4558 8.7419 21.4558 10.0944 22.1911 10.9259L23.5582 12.4714ZM23.6102 8.12144C24.2513 8.12144 24.7733 8.64495 24.7733 9.28809C24.7733 9.93126 24.2513 10.4548 23.6102 10.4548C22.969 10.4548 22.4472 9.93126 22.4472 9.28809C22.4472 8.64495 22.969 8.12144 23.6102 8.12144Z" fill="#42CB11"/>
</g>
<path d="M20.5 40C19.1187 40 18 38.8813 18 37.5C18 36.1187 19.1187 35 20.5 35C21.8813 35 23 36.1187 23 37.5C23 38.8813 21.8813 40 20.5 40Z" fill="white"/>
<path fill-rule="evenodd" clip-rule="evenodd" d="M20.4661 38.9996C20.6658 39.0041 20.8645 38.9687 21.0504 38.8954C21.2362 38.8221 21.4056 38.7124 21.5485 38.5727C21.6914 38.4331 21.8049 38.2663 21.8824 38.0821C21.96 37.898 22 37.7002 22 37.5004C22 37.3006 21.9602 37.1028 21.8827 36.9186C21.8053 36.7344 21.6918 36.5675 21.549 36.4278C21.4062 36.2881 21.2369 36.1783 21.0511 36.1049C20.8652 36.0315 20.6666 35.9959 20.4668 36.0004C20.0749 36.009 19.702 36.1708 19.4278 36.451C19.1537 36.7312 19.0001 37.1076 19 37.4996C18.9999 37.8916 19.1533 38.2681 19.4273 38.5485C19.7013 38.8288 20.0742 38.9908 20.4661 38.9996Z" fill="#42CB11"/>
</g>
<defs>
<clipPath id="clip0_1331_6367">
<rect width="29" height="40" fill="white" transform="translate(6)"/>
</clipPath>
</defs>
</svg>
