<svg width="40" height="40" viewBox="0 0 40 40" fill="none" xmlns="http://www.w3.org/2000/svg">
<g clip-path="url(#clip0_1331_6367)">
<path d="M20.3301 23.75C25.3195 23.75 29.3643 19.6926 29.3643 14.6875C29.3643 9.68242 25.3195 5.625 20.3301 5.625C15.3406 5.625 11.2959 9.68242 11.2959 14.6875C11.2959 19.6926 15.3406 23.75 20.3301 23.75Z" fill="white"/>
<path d="M15.5997 19.4454C15.2229 19.4573 15.1938 19.4611 15.111 19.5587C15.0076 19.6876 15.0076 19.7658 15.1151 19.8985C15.1675 19.9629 15.246 20.0002 15.3288 20.0002H20.3297H25.3307C25.4135 20.0002 25.4918 19.9629 25.5443 19.8985L15.5997 19.4454ZM15.5997 19.4454C15.8235 19.4389 16.0015 19.2551 16.0015 19.0305V14.6877V10.3449C16.0015 10.1203 15.8235 9.93649 15.5997 9.92994V19.4454ZM14.973 9.93441L14.97 9.93076C14.9111 9.85758 14.8514 9.76383 14.8526 9.64641C14.8537 9.53016 14.9142 9.43647 14.9745 9.36205C15.0614 9.25551 15.1916 9.19336 15.3288 9.19336H20.3297H25.3307C25.4679 9.19336 25.5978 9.25518 25.6846 9.36172C25.745 9.43616 25.8055 9.53016 25.8066 9.64634C25.8079 9.76361 25.7483 9.85734 25.6895 9.93063L25.6864 9.93427C25.6643 9.96041 25.6346 9.99416 25.5944 10.0226C25.5509 10.0533 25.5045 10.0715 25.4543 10.0829C25.3687 10.1022 25.2462 10.106 25.0697 10.1115L25.0653 10.1117C24.9395 10.1154 24.8391 10.2187 24.8391 10.3449V14.6877V19.0305C24.8391 19.1567 24.9392 19.26 25.0649 19.2636L25.068 19.2638C25.2456 19.2693 25.3685 19.2731 25.4543 19.2925C25.5047 19.304 25.5509 19.3222 25.5944 19.3529C25.6344 19.3813 25.6642 19.4149 25.6863 19.4409L25.6893 19.4445C25.7483 19.5178 25.8079 19.6114 25.8068 19.7289C25.8057 19.8453 25.7452 19.9389 25.6848 20.0133C25.598 20.1198 25.4679 20.182 25.3307 20.182H20.3297H15.3288C15.1916 20.182 15.0616 20.1202 14.9748 20.0136C14.9145 19.9393 14.8539 19.8453 14.8527 19.7291C14.8516 19.6118 14.911 19.518 14.9699 19.4447L14.9729 19.4411C14.9951 19.4149 15.0248 19.3813 15.0651 19.3527C15.1086 19.322 15.1548 19.304 15.2052 19.2925C15.2906 19.2731 15.4131 19.2693 15.5898 19.2638L15.5941 19.2636C15.7198 19.26 15.8202 19.1567 15.8202 19.0305V14.6877V10.3449C15.8202 10.2187 15.7202 10.1154 15.5944 10.1117L15.5914 10.1116C15.4138 10.106 15.2908 10.1022 15.2051 10.0828C15.1548 10.0713 15.1086 10.0532 15.0651 10.0225C15.0249 9.99416 14.9952 9.96049 14.973 9.93441ZM19.9984 11.1875L20.8752 18.9234C20.8813 19.0954 21.0221 19.2322 21.1937 19.2322H22.3839C23.2079 19.2322 23.876 18.562 23.876 17.7354V14.6877V11.6855C23.876 10.8336 23.1875 10.143 22.3383 10.143H21.1257C20.9462 10.143 20.8007 10.289 20.8007 10.4691C20.8007 10.6972 20.7992 10.8423 20.784 10.9384C20.7757 10.9909 20.7618 11.0411 20.735 11.0883C20.708 11.1356 20.6748 11.1677 20.6492 11.1906L20.6477 11.192C20.4661 11.3512 20.1784 11.3573 19.9984 11.1875Z" fill="#283244"/>
<path d="M15.5997 19.4454C15.2229 19.4573 15.1938 19.4611 15.111 19.5587C15.0076 19.6876 15.0076 19.7658 15.1151 19.8985C15.1675 19.9629 15.246 20.0002 15.3288 20.0002H20.3297H25.3307C25.4135 20.0002 25.4918 19.9629 25.5443 19.8985L15.5997 19.4454ZM15.5997 19.4454C15.8235 19.4389 16.0015 19.2551 16.0015 19.0305V14.6877V10.3449C16.0015 10.1203 15.8235 9.93649 15.5997 9.92994V19.4454ZM25.6846 9.36172C25.5978 9.25518 25.4679 9.19336 25.3307 9.19336H20.3297H15.3288C15.1916 9.19336 15.0614 9.25551 14.9745 9.36205C14.9142 9.43647 14.8537 9.53016 14.8526 9.64641C14.8514 9.76383 14.9111 9.85758 14.97 9.93076L14.973 9.93441C14.9952 9.96049 15.0249 9.99416 15.0651 10.0225C15.1086 10.0532 15.1548 10.0713 15.2051 10.0828C15.2908 10.1022 15.4138 10.106 15.5914 10.1116L15.5944 10.1117C15.7202 10.1154 15.8202 10.2187 15.8202 10.3449V14.6877V19.0305C15.8202 19.1567 15.7198 19.26 15.5941 19.2636L15.5898 19.2638C15.4131 19.2693 15.2906 19.2731 15.2052 19.2925C15.1548 19.304 15.1086 19.322 15.0651 19.3527C15.0248 19.3813 14.9951 19.4149 14.9729 19.4411L14.9699 19.4447C14.911 19.518 14.8516 19.6118 14.8527 19.7291C14.8539 19.8453 14.9145 19.9393 14.9748 20.0136C15.0616 20.1202 15.1916 20.182 15.3288 20.182H20.3297H25.3307C25.4679 20.182 25.598 20.1198 25.6848 20.0133C25.7452 19.9389 25.8057 19.8453 25.8068 19.7289C25.8079 19.6114 25.7483 19.5178 25.6893 19.4445L25.6863 19.4409C25.6642 19.4149 25.6344 19.3813 25.5944 19.3529C25.5509 19.3222 25.5047 19.304 25.4543 19.2925C25.3685 19.2731 25.2456 19.2693 25.068 19.2638L25.0649 19.2636M25.6846 9.36172L25.5443 9.4768M25.6846 9.36172C25.745 9.43616 25.8055 9.53016 25.8066 9.64634C25.8079 9.76361 25.7483 9.85734 25.6895 9.93063L25.6864 9.93427C25.6643 9.96041 25.6346 9.99416 25.5944 10.0226C25.5509 10.0533 25.5045 10.0715 25.4543 10.0829C25.3687 10.1022 25.2462 10.106 25.0697 10.1115L25.0653 10.1117C24.9395 10.1154 24.8391 10.2187 24.8391 10.3449V14.6877V19.0305C24.8391 19.1567 24.9392 19.26 25.0649 19.2636M25.0649 19.2636L25.0597 19.4454M19.9984 11.1875L20.8752 18.9234C20.8813 19.0954 21.0221 19.2322 21.1937 19.2322H22.3839C23.2079 19.2322 23.876 18.562 23.876 17.7354V14.6877V11.6855C23.876 10.8336 23.1875 10.143 22.3383 10.143H21.1257C20.9462 10.143 20.8007 10.289 20.8007 10.4691C20.8007 10.6972 20.7992 10.8423 20.784 10.9384C20.7757 10.9909 20.7618 11.0411 20.735 11.0883C20.708 11.1356 20.6748 11.1677 20.6492 11.1906L20.6477 11.192C20.4661 11.3512 20.1784 11.3573 19.9984 11.1875Z" stroke="#283244" stroke-width="0.2"/>
<path d="M20.1942 11.8926C20.1362 11.9114 19.6516 12.2392 19.1191 12.6197C18.2761 13.2261 18.1497 13.3355 18.1497 13.4372C18.1497 13.5577 18.2868 13.6896 18.4291 13.7009C18.6452 13.7236 18.7558 13.6671 19.3353 13.2602L19.9569 12.8195V14.6727C19.9569 15.6937 19.9411 16.5262 19.92 16.5262C19.8989 16.5262 19.6092 16.3304 19.2718 16.0929C18.6132 15.6295 18.5079 15.5919 18.2654 15.7275C18.1864 15.7766 18.1494 15.8406 18.1494 15.9196C18.1494 16.025 18.2706 16.1268 19.1188 16.7445C19.651 17.1326 20.1411 17.464 20.2095 17.483C20.2834 17.5057 20.3676 17.5057 20.4467 17.483C20.5099 17.4642 21 17.1326 21.5322 16.7445C22.3804 16.1268 22.5016 16.025 22.5016 15.9196C22.5016 15.8404 22.4646 15.7764 22.3856 15.7275C22.1431 15.5919 22.0378 15.6295 21.3792 16.0929C21.0421 16.3302 20.7521 16.5262 20.7313 16.5262C20.7102 16.5262 20.6943 15.6899 20.6943 14.6727V12.8155L21.2897 13.2375C21.6112 13.4673 21.9325 13.6745 22.0011 13.697C22.254 13.7911 22.5965 13.5501 22.4912 13.3543C22.428 13.2412 20.5417 11.9039 20.4046 11.8813C20.3471 11.8701 20.2522 11.8738 20.1942 11.8926Z" fill="#283244"/>
<path d="M20.8215 32.2018C20.8178 32.2822 20.7829 32.358 20.7242 32.4136C20.6655 32.4691 20.5875 32.5 20.5063 32.5C20.3235 32.5 20.1848 32.3687 20.1785 32.2018C19.2391 29.3751 19.0714 28.9413 17.1322 28.36C10.7472 26.8549 6 21.1644 6 14.375C6 6.43562 12.4916 0 20.5 0C28.5083 0 35 6.43562 35 14.375C35 21.1644 30.2529 26.8549 23.8678 28.36C21.9286 28.9413 21.7596 29.3751 20.8215 32.2018Z" fill="#885508"/>
<path d="M20.5007 23.75C25.5493 23.75 29.642 19.6926 29.642 14.6875C29.642 9.68242 25.5493 5.625 20.5007 5.625C15.4521 5.625 11.3594 9.68242 11.3594 14.6875C11.3594 19.6926 15.4521 23.75 20.5007 23.75Z" fill="white"/>
<path d="M20.5 40C19.1187 40 18 38.8813 18 37.5C18 36.1187 19.1187 35 20.5 35C21.8813 35 23 36.1187 23 37.5C23 38.8813 21.8813 40 20.5 40Z" fill="white"/>
<path fill-rule="evenodd" clip-rule="evenodd" d="M20.4661 38.9996C20.6658 39.0041 20.8645 38.9687 21.0504 38.8954C21.2362 38.8221 21.4056 38.7124 21.5485 38.5727C21.6914 38.4331 21.8049 38.2663 21.8824 38.0821C21.96 37.898 22 37.7002 22 37.5004C22 37.3006 21.9602 37.1028 21.8827 36.9186C21.8053 36.7344 21.6918 36.5675 21.549 36.4278C21.4062 36.2881 21.2369 36.1783 21.0511 36.1049C20.8652 36.0315 20.6666 35.9959 20.4668 36.0004C20.0749 36.009 19.702 36.1708 19.4278 36.451C19.1537 36.7312 19.0001 37.1076 19 37.4996C18.9999 37.8916 19.1533 38.2681 19.4273 38.5485C19.7013 38.8288 20.0742 38.9908 20.4661 38.9996Z" fill="#885508"/>
<path d="M26.8812 11.7769L25.4558 10.5565C25.3749 10.4939 25.261 10.4395 25.1434 10.3986C25.0246 10.3578 24.9022 10.3333 24.803 10.3333H21.0005V13.6014L24.8018 13.6667C24.8998 13.6667 25.0234 13.6422 25.141 13.6014C25.2598 13.5605 25.3737 13.5048 25.4534 13.4435L26.8788 12.2218C26.9595 12.1605 27 12.0803 27 11.9986C27 11.917 26.9607 11.8381 26.8812 11.7769ZM20.1005 9H19.5005C19.3351 9 19.2004 9.14966 19.2004 9.33333V11.6667H17.1982C17.099 11.6667 16.9765 11.6912 16.8577 11.7333C16.739 11.7728 16.6251 11.8286 16.5455 11.8912L15.12 13.1102C15.0392 13.1714 15 13.2517 15 13.3333C15 13.4136 15.0392 13.4952 15.12 13.5565L16.5455 14.7782C16.6263 14.8395 16.739 14.8952 16.8577 14.9347C16.9765 14.9755 17.0978 15 17.1982 15H19.2004V20.6667C19.2004 20.8503 19.3351 21 19.5005 21H20.1005C20.2658 21 20.4005 20.8503 20.4005 20.6667V9.33333C20.4005 9.14966 20.2658 9 20.1005 9Z" fill="#885508"/>
</g>
<defs>
<clipPath id="clip0_1331_6367">
<rect width="29" height="40" fill="white" transform="translate(6)"/>
</clipPath>
</defs>
</svg>
