<svg width="20" height="20" viewBox="0 0 20 20" fill="none" xmlns="http://www.w3.org/2000/svg">
<g clip-path="url(#clip0_1902_8226)">
<path d="M2.10936 12.6168L3.74363 15.3848C3.85213 15.5684 4.03067 15.7023 4.23998 15.7571C4.4493 15.8118 4.67226 15.7829 4.85984 15.6768L6.00056 15.032C6.4745 15.3976 6.99828 15.6976 7.54903 15.9216V17.2C7.54903 17.4122 7.63512 17.6157 7.78836 17.7657C7.94161 17.9157 8.14945 18 8.36617 18H11.6347C11.8514 18 12.0593 17.9157 12.2125 17.7657C12.3658 17.6157 12.4518 17.4122 12.4518 17.2V15.9216C13.0069 15.6954 13.5279 15.3961 14.0003 15.032L15.141 15.6768C15.5308 15.8968 16.0325 15.7648 16.2572 15.3848L17.8915 12.6168C17.9991 12.433 18.0281 12.215 17.9722 12.0103C17.9163 11.8056 17.7801 11.6308 17.5933 11.524L16.4721 10.8896C16.5597 10.2996 16.5592 9.70025 16.4705 9.1104L17.5916 8.476C17.9806 8.256 18.1154 7.764 17.8899 7.3832L16.2556 4.6152C16.1471 4.4316 15.9686 4.2977 15.7593 4.24294C15.5499 4.18818 15.327 4.21705 15.1394 4.3232L13.9987 4.968C13.5268 4.6035 13.0061 4.30417 12.451 4.0784V2.8C12.451 2.58783 12.3649 2.38434 12.2117 2.23431C12.0584 2.08429 11.8506 2 11.6339 2H8.36535C8.14863 2 7.94079 2.08429 7.78755 2.23431C7.63431 2.38434 7.54821 2.58783 7.54821 2.8V4.0784C6.99316 4.30465 6.4722 4.60394 5.99974 4.968L4.85984 4.3232C4.76699 4.27053 4.66444 4.23631 4.55806 4.22248C4.45169 4.20866 4.34357 4.2155 4.2399 4.24262C4.13622 4.26974 4.03903 4.31661 3.95388 4.38054C3.86872 4.44447 3.79728 4.52421 3.74363 4.6152L2.10936 7.3832C2.00182 7.56704 1.97282 7.78504 2.02868 7.98972C2.08454 8.1944 2.22074 8.36918 2.40762 8.476L3.52873 9.1104C3.44059 9.70033 3.44059 10.2997 3.52873 10.8896L2.40762 11.524C2.01866 11.744 1.88383 12.236 2.10936 12.6168V12.6168ZM9.99962 6.8C11.8022 6.8 13.2682 8.2352 13.2682 10C13.2682 11.7648 11.8022 13.2 9.99962 13.2C8.19702 13.2 6.73108 11.7648 6.73108 10C6.73108 8.2352 8.19702 6.8 9.99962 6.8Z" fill="white"/>
</g>
<defs>
<clipPath id="clip0_1902_8226">
<rect width="20" height="20" fill="white"/>
</clipPath>
</defs>
</svg>
