<svg width="20" height="20" viewBox="0 0 20 20" fill="none" xmlns="http://www.w3.org/2000/svg">
<g clip-path="url(#clip0_1930_8293)">
<path fill-rule="evenodd" clip-rule="evenodd" d="M18 10C18 14.4183 14.4183 18 10 18C5.58172 18 2 14.4183 2 10C2 5.58172 5.58172 2 10 2C14.4183 2 18 5.58172 18 10ZM11 13C11 13.5523 10.5523 14 10 14C9.44772 14 9 13.5523 9 13C9 12.4477 9.44772 12 10 12C10.5523 12 11 12.4477 11 13ZM10.05 6C9.63579 6 9.3 6.33579 9.3 6.75V10.25C9.3 10.6642 9.63579 11 10.05 11C10.4642 11 10.8 10.6642 10.8 10.25V6.75C10.8 6.33579 10.4642 6 10.05 6Z" fill="white"/>
</g>
<defs>
<clipPath id="clip0_1930_8293">
<rect width="20" height="20" fill="white"/>
</clipPath>
</defs>
</svg>
