<svg width="20" height="20" viewBox="0 0 20 20" fill="none" xmlns="http://www.w3.org/2000/svg">
<g clip-path="url(#clip0_1592_4506)">
<path d="M9.66602 11.65C9.66602 11.291 9.93957 11 10.277 11C10.6144 11 10.888 11.291 10.888 11.65V18.35C10.888 18.709 10.6144 19 10.277 19C9.93957 19 9.66602 18.709 9.66602 18.35V11.65Z" fill="white"/>
<path d="M10.3319 10.2335C10.3319 12.3874 8.69059 14.1335 6.66594 14.1335C4.6413 14.1335 3 12.3874 3 10.2335C3 8.07959 4.6413 6.3335 6.66594 6.3335C8.69059 6.3335 10.3319 8.07959 10.3319 10.2335Z" fill="white" fill-opacity="0.8"/>
<path d="M16.9979 10.2335C16.9979 12.3874 15.3566 14.1335 13.332 14.1335C11.3073 14.1335 9.66602 12.3874 9.66602 10.2335C9.66602 8.07959 11.3073 6.3335 13.332 6.3335C15.3566 6.3335 16.9979 8.07959 16.9979 10.2335Z" fill="white" fill-opacity="0.8"/>
<path d="M15.3987 6.5C15.3987 9.53757 13.063 12 10.1818 12C7.30054 12 4.96484 9.53757 4.96484 6.5C4.96484 3.46243 7.30054 1 10.1818 1C13.063 1 15.3987 3.46243 15.3987 6.5Z" fill="white"/>
</g>
<defs>
<clipPath id="clip0_1592_4506">
<rect width="20" height="20" fill="white"/>
</clipPath>
</defs>
</svg>
