<svg width="40" height="40" viewBox="0 0 40 40" fill="none" xmlns="http://www.w3.org/2000/svg">
<g clip-path="url(#clip0_2433_8505)">
<path d="M20.3291 23.75C25.3186 23.75 29.3633 19.6926 29.3633 14.6875C29.3633 9.68242 25.3186 5.625 20.3291 5.625C15.3397 5.625 11.2949 9.68242 11.2949 14.6875C11.2949 19.6926 15.3397 23.75 20.3291 23.75Z" fill="white"/>
<path d="M15.6007 19.4454C15.2239 19.4573 15.1948 19.4611 15.112 19.5587C15.0086 19.6876 15.0086 19.7658 15.1161 19.8985C15.1685 19.9629 15.2469 20.0002 15.3297 20.0002H20.3307H25.3316C25.4145 20.0002 25.4928 19.9629 25.5453 19.8985L15.6007 19.4454ZM15.6007 19.4454C15.8244 19.4389 16.0024 19.2551 16.0024 19.0305V14.6877V10.3449C16.0024 10.1203 15.8244 9.93649 15.6007 9.92994V19.4454ZM14.974 9.93441L14.971 9.93076C14.9121 9.85758 14.8524 9.76383 14.8535 9.64641C14.8547 9.53016 14.9152 9.43647 14.9755 9.36205C15.0624 9.25551 15.1926 9.19336 15.3297 9.19336H20.3307H25.3316C25.4688 9.19336 25.5988 9.25518 25.6856 9.36172C25.746 9.43616 25.8065 9.53016 25.8076 9.64634C25.8089 9.76361 25.7492 9.85734 25.6905 9.93063L25.6874 9.93427C25.6653 9.96041 25.6356 9.99416 25.5953 10.0226C25.5518 10.0533 25.5054 10.0715 25.4552 10.0829C25.3697 10.1022 25.2472 10.106 25.0706 10.1115L25.0663 10.1117C24.9405 10.1154 24.8401 10.2187 24.8401 10.3449V14.6877V19.0305C24.8401 19.1567 24.9401 19.26 25.0659 19.2636L25.069 19.2638C25.2466 19.2693 25.3695 19.2731 25.4552 19.2925C25.5056 19.304 25.5518 19.3222 25.5953 19.3529C25.6354 19.3813 25.6651 19.4149 25.6872 19.4409L25.6903 19.4445C25.7492 19.5178 25.8089 19.6114 25.8078 19.7289C25.8067 19.8453 25.7461 19.9389 25.6858 20.0133C25.599 20.1198 25.4688 20.182 25.3316 20.182H20.3307H15.3297C15.1925 20.182 15.0626 20.1202 14.9758 20.0136C14.9154 19.9393 14.8548 19.8453 14.8537 19.7291C14.8526 19.6118 14.912 19.518 14.9709 19.4447L14.9739 19.4411C14.996 19.4149 15.0258 19.3813 15.066 19.3527C15.1095 19.322 15.1558 19.304 15.2062 19.2925C15.2916 19.2731 15.4141 19.2693 15.5908 19.2638L15.595 19.2636C15.7208 19.26 15.8212 19.1567 15.8212 19.0305V14.6877V10.3449C15.8212 10.2187 15.7212 10.1154 15.5954 10.1117L15.5924 10.1116C15.4148 10.106 15.2918 10.1022 15.2061 10.0828C15.1558 10.0713 15.1095 10.0532 15.0661 10.0225C15.0259 9.99416 14.9961 9.96049 14.974 9.93441ZM19.9994 11.1875L20.8762 18.9234C20.8822 19.0954 21.0231 19.2322 21.1947 19.2322H22.3849C23.2089 19.2322 23.8769 18.562 23.8769 17.7354V14.6877V11.6855C23.8769 10.8336 23.1885 10.143 22.3393 10.143H21.1267C20.9472 10.143 20.8016 10.289 20.8016 10.4691C20.8016 10.6972 20.8001 10.8423 20.785 10.9384C20.7767 10.9909 20.7628 11.0411 20.7359 11.0883C20.709 11.1356 20.6758 11.1677 20.6502 11.1906L20.6487 11.192C20.467 11.3512 20.1794 11.3573 19.9994 11.1875Z" fill="#283244"/>
<path d="M15.6007 19.4454C15.2239 19.4573 15.1948 19.4611 15.112 19.5587C15.0086 19.6876 15.0086 19.7658 15.1161 19.8985C15.1685 19.9629 15.2469 20.0002 15.3297 20.0002H20.3307H25.3316C25.4145 20.0002 25.4928 19.9629 25.5453 19.8985L15.6007 19.4454ZM15.6007 19.4454C15.8244 19.4389 16.0024 19.2551 16.0024 19.0305V14.6877V10.3449C16.0024 10.1203 15.8244 9.93649 15.6007 9.92994V19.4454ZM25.6856 9.36172C25.5988 9.25518 25.4688 9.19336 25.3316 9.19336H20.3307H15.3297C15.1926 9.19336 15.0624 9.25551 14.9755 9.36205C14.9152 9.43647 14.8547 9.53016 14.8535 9.64641C14.8524 9.76383 14.9121 9.85758 14.971 9.93076L14.974 9.93441C14.9961 9.96049 15.0259 9.99416 15.0661 10.0225C15.1095 10.0532 15.1558 10.0713 15.2061 10.0828C15.2918 10.1022 15.4148 10.106 15.5924 10.1116L15.5954 10.1117C15.7212 10.1154 15.8212 10.2187 15.8212 10.3449V14.6877V19.0305C15.8212 19.1567 15.7208 19.26 15.595 19.2636L15.5908 19.2638C15.4141 19.2693 15.2916 19.2731 15.2062 19.2925C15.1558 19.304 15.1095 19.322 15.066 19.3527C15.0258 19.3813 14.996 19.4149 14.9739 19.4411L14.9709 19.4447C14.912 19.518 14.8526 19.6118 14.8537 19.7291C14.8548 19.8453 14.9154 19.9393 14.9758 20.0136C15.0626 20.1202 15.1925 20.182 15.3297 20.182H20.3307H25.3316C25.4688 20.182 25.599 20.1198 25.6858 20.0133C25.7461 19.9389 25.8067 19.8453 25.8078 19.7289C25.8089 19.6114 25.7492 19.5178 25.6903 19.4445L25.6872 19.4409C25.6651 19.4149 25.6354 19.3813 25.5953 19.3529C25.5518 19.3222 25.5056 19.304 25.4552 19.2925C25.3695 19.2731 25.2466 19.2693 25.069 19.2638L25.0659 19.2636M25.6856 9.36172L25.5453 9.4768M25.6856 9.36172C25.746 9.43616 25.8065 9.53016 25.8076 9.64634C25.8089 9.76361 25.7492 9.85734 25.6905 9.93063L25.6874 9.93427C25.6653 9.96041 25.6356 9.99416 25.5953 10.0226C25.5518 10.0533 25.5054 10.0715 25.4552 10.0829C25.3697 10.1022 25.2472 10.106 25.0706 10.1115L25.0663 10.1117C24.9405 10.1154 24.8401 10.2187 24.8401 10.3449V14.6877V19.0305C24.8401 19.1567 24.9401 19.26 25.0659 19.2636M25.0659 19.2636L25.0607 19.4454M19.9994 11.1875L20.8762 18.9234C20.8822 19.0954 21.0231 19.2322 21.1947 19.2322H22.3849C23.2089 19.2322 23.8769 18.562 23.8769 17.7354V14.6877V11.6855C23.8769 10.8336 23.1885 10.143 22.3393 10.143H21.1267C20.9472 10.143 20.8016 10.289 20.8016 10.4691C20.8016 10.6972 20.8001 10.8423 20.785 10.9384C20.7767 10.9909 20.7628 11.0411 20.7359 11.0883C20.709 11.1356 20.6758 11.1677 20.6502 11.1906L20.6487 11.192C20.467 11.3512 20.1794 11.3573 19.9994 11.1875Z" stroke="#283244" stroke-width="0.2"/>
<path d="M20.1932 11.8926C20.1352 11.9114 19.6506 12.2392 19.1181 12.6197C18.2751 13.2261 18.1487 13.3355 18.1487 13.4372C18.1487 13.5577 18.2858 13.6896 18.4281 13.7009C18.6442 13.7236 18.7548 13.6671 19.3343 13.2602L19.956 12.8195V14.6727C19.956 15.6937 19.9401 16.5262 19.919 16.5262C19.898 16.5262 19.6082 16.3304 19.2708 16.0929C18.6122 15.6295 18.5069 15.5919 18.2645 15.7275C18.1854 15.7766 18.1484 15.8406 18.1484 15.9196C18.1484 16.025 18.2697 16.1268 19.1179 16.7445C19.6501 17.1326 20.1401 17.464 20.2085 17.483C20.2824 17.5057 20.3667 17.5057 20.4457 17.483C20.5089 17.4642 20.999 17.1326 21.5312 16.7445C22.3794 16.1268 22.5006 16.025 22.5006 15.9196C22.5006 15.8404 22.4637 15.7764 22.3846 15.7275C22.1422 15.5919 22.0368 15.6295 21.3782 16.0929C21.0411 16.3302 20.7511 16.5262 20.7303 16.5262C20.7092 16.5262 20.6934 15.6899 20.6934 14.6727V12.8155L21.2888 13.2375C21.6103 13.4673 21.9315 13.6745 22.0002 13.697C22.253 13.7911 22.5956 13.5501 22.4902 13.3543C22.427 13.2412 20.5407 11.9039 20.4036 11.8813C20.3461 11.8701 20.2512 11.8738 20.1932 11.8926Z" fill="#283244"/>
<path d="M20.8215 32.2018C20.8178 32.2822 20.7829 32.358 20.7242 32.4136C20.6655 32.4691 20.5875 32.5 20.5063 32.5C20.3235 32.5 20.1848 32.3687 20.1785 32.2018C19.2391 29.3751 19.0714 28.9413 17.1322 28.36C10.7472 26.8549 6 21.1644 6 14.375C6 6.43562 12.4916 0 20.5 0C28.5083 0 35 6.43562 35 14.375C35 21.1644 30.2529 26.8549 23.8678 28.36C21.9286 28.9413 21.7596 29.3751 20.8215 32.2018Z" fill="#1174CF"/>
<path d="M20.5007 23.75C25.5493 23.75 29.642 19.6926 29.642 14.6875C29.642 9.68242 25.5493 5.625 20.5007 5.625C15.4521 5.625 11.3594 9.68242 11.3594 14.6875C11.3594 19.6926 15.4521 23.75 20.5007 23.75Z" fill="white"/>
<path d="M20.5 40C19.1187 40 18 38.8813 18 37.5C18 36.1187 19.1187 35 20.5 35C21.8813 35 23 36.1187 23 37.5C23 38.8813 21.8813 40 20.5 40Z" fill="white"/>
<path fill-rule="evenodd" clip-rule="evenodd" d="M20.4661 38.9996C20.6658 39.0041 20.8645 38.9687 21.0504 38.8954C21.2362 38.8221 21.4056 38.7124 21.5485 38.5727C21.6914 38.4331 21.8049 38.2663 21.8824 38.0821C21.96 37.898 22 37.7002 22 37.5004C22 37.3006 21.9602 37.1028 21.8827 36.9186C21.8053 36.7344 21.6918 36.5675 21.549 36.4278C21.4062 36.2881 21.2369 36.1783 21.0511 36.1049C20.8652 36.0315 20.6666 35.9959 20.4668 36.0004C20.0749 36.009 19.702 36.1708 19.4278 36.451C19.1537 36.7312 19.0001 37.1076 19 37.4996C18.9999 37.8916 19.1533 38.2681 19.4273 38.5485C19.7013 38.8288 20.0742 38.9908 20.4661 38.9996Z" fill="#1174CF"/>
<path d="M18 8.5H23V12H18V8.5Z" fill="#FE0000"/>
<rect x="18" y="13" width="5" height="3" fill="#FFFF00"/>
<path d="M18 17H23V20.5H18V17Z" fill="#00FF01"/>
<path fill-rule="evenodd" clip-rule="evenodd" d="M17.525 8C17.235 8 17 8.23921 17 8.53425V20.4658C17 20.7608 17.235 21 17.525 21H23.475C23.765 21 24 20.7608 24 20.4658V14.5V8.53425C24 8.23921 23.765 8 23.475 8H17.525ZM20.4997 11.8288C21.2729 11.8288 21.8997 11.1909 21.8997 10.4041C21.8997 9.6173 21.2729 8.97945 20.4997 8.97945C19.7266 8.97945 19.0997 9.6173 19.0997 10.4041C19.0997 11.1909 19.7266 11.8288 20.4997 11.8288ZM21.8997 14.5C21.8997 15.2868 21.2729 15.9247 20.4997 15.9247C19.7266 15.9247 19.0997 15.2868 19.0997 14.5C19.0997 13.7132 19.7266 13.0753 20.4997 13.0753C21.2729 13.0753 21.8997 13.7132 21.8997 14.5ZM20.4997 20.0205C21.2729 20.0205 21.8997 19.3827 21.8997 18.5959C21.8997 17.8091 21.2729 17.1712 20.4997 17.1712C19.7266 17.1712 19.0997 17.8091 19.0997 18.5959C19.0997 19.3827 19.7266 20.0205 20.4997 20.0205Z" fill="#1174CF"/>
</g>
<defs>
<clipPath id="clip0_2433_8505">
<rect width="29" height="40" fill="white" transform="translate(6)"/>
</clipPath>
</defs>
</svg>
