<svg width="20" height="20" viewBox="0 0 20 20" fill="none" xmlns="http://www.w3.org/2000/svg">
<g clip-path="url(#clip0_1321_6013)">
<path d="M15.4193 1H9.48906C9.4 1 9.33725 1.11741 9.30974 1.17612C7.64475 4.02913 4.27348 9.80561 4.10836 10.0874C3.94324 10.3692 4.14964 10.5101 4.27348 10.5453H8.03003L4.0258 18.6112C3.8937 18.9494 4.301 19.0104 4.52116 18.9987C8.03003 15.4295 15.1799 8.16425 15.7082 7.65704C16.2366 7.14984 15.9284 6.99956 15.7082 6.98782L11.4151 7.02304C12.7498 5.25018 15.4688 1.63401 15.667 1.35223C15.8651 1.07045 15.5844 1 15.4193 1Z" fill="white"/>
</g>
<defs>
<clipPath id="clip0_1321_6013">
<rect width="20" height="20" fill="white"/>
</clipPath>
</defs>
</svg>
