<svg width="20" height="20" viewBox="0 0 20 20" fill="none" xmlns="http://www.w3.org/2000/svg">
<g clip-path="url(#clip0_3475_32475)">
<path d="M1 3.28011L1.41027 3.14506L2.13614 3L2.54641 3.28011L3.10396 3.42016L4.1086 3.56021L4.29796 3.63524L4.52939 3.89034L5.23422 3.74028L5.52877 3.89034L6.34406 3.95036L6.92265 4.0404L7.62221 4.21546L8.26392 4.8257L8.13768 5.21084V5.77606L7.65903 6.58137L8.03248 8.21199L7.92203 8.64216L8.03248 8.92226L7.92203 9.04231L8.13768 9.38244L8.03248 9.56251V9.8026L7.92203 10.0827V10.4378L7.04362 10.5129L6.89109 10.6329V11.2281L6.71751 11.1081H6.37562L5.69709 11.2331L5.52877 11.3332L5.23422 11.2331H4.9081L4.69245 11.6483L3.30384 11.7533L3.02506 11.2682L2.97772 10.858L3.22494 10.4378L2.862 9.68255L3.17234 9.47247L2.54641 8.99729L2.2203 8.27201L2.2992 7.64678L2.54641 7.03654L1.68905 5.84609L1.8784 5.47595L1.62593 4.52558L1.0789 3.56021L1 3.28011Z" fill="#101828"/>
<path fill-rule="evenodd" clip-rule="evenodd" d="M2.54641 3.28011L2.13614 3L1.41027 3.14506L1 3.28011L1.0789 3.56021L1.62593 4.52558L1.8784 5.47595L1.68905 5.84609L2.54641 7.03654L2.2992 7.64678L2.2203 8.27201L2.54641 8.99729L3.17234 9.47247L2.862 9.68255L3.22494 10.4378L2.97772 10.858L3.02506 11.2682L3.30384 11.7533L4.69245 11.6483L4.9081 11.2331H5.23422L5.52877 11.3332L5.69709 11.2331L6.37562 11.1081H6.71751L6.89109 11.2281V10.6329L7.04362 10.5129L7.92203 10.4378V10.0827L8.03248 9.8026V9.56251L8.13768 9.38244L7.92203 9.04231L8.03248 8.92226L7.92203 8.64216L8.03248 8.21199L7.65903 6.58137L8.13768 5.77606V5.21084L8.26392 4.8257L7.62221 4.21546L6.92265 4.0404L6.34406 3.95036L5.52877 3.89034L5.23422 3.74028L4.52939 3.89034L4.29796 3.63524L4.1086 3.56021L3.10396 3.42016L2.54641 3.28011ZM4.0893 3.63514L3.08959 3.49577L2.51507 3.35146L2.11985 3.08163L1.42945 3.2196L1.09313 3.3303L1.14941 3.5301L1.69673 4.49598L1.95942 5.4848L1.77811 5.83922L2.6328 7.02596L2.37328 7.66657L2.29839 8.26007L2.60751 8.94757L3.30367 9.47607L2.95928 9.7092L3.31118 10.4415L3.05616 10.875L3.09868 11.2433L3.3456 11.6731L4.6448 11.5748L4.86222 11.1563H5.24662L5.52014 11.2491L5.67023 11.1599L6.36876 11.0312H6.74099L6.81512 11.0825V10.5953L7.01478 10.4382L7.84606 10.3672V10.0679L7.95652 9.78782V9.54148L8.04847 9.38409L7.82624 9.03359L7.94409 8.90551L7.84223 8.64723L7.95426 8.21094L7.57808 6.56841L8.06172 5.75472V5.19842L8.17654 4.8481L7.58468 4.28528L6.90773 4.11587L6.33552 4.02683L5.50815 3.96591L5.22383 3.82107L4.5027 3.97459L4.25389 3.70035L4.0893 3.63514Z" fill="white"/>
<path d="M2.76172 12.6186L3.30349 11.7533L4.6921 11.6483L4.90776 11.2331H5.23387L5.52843 11.3332L5.69674 11.2331L6.37527 11.1081H6.71716L6.89074 11.2281L7.06432 11.1031L7.33783 11.043L7.53771 10.7979L7.65869 10.7379H7.83226L7.93746 10.5979H8.1689L8.39507 10.6879L8.56339 10.6429L8.75274 10.5479H8.98944L9.12094 10.998L9.36815 11.3281V11.5332L8.97892 11.9484L8.87898 12.2785L9.12094 12.5836L9.21036 12.7637V13.0138V13.619L8.58969 13.8541L8.33195 13.639L7.96902 13.579L6.99594 14.7895L6.95386 14.7194L6.8697 14.3693L6.18065 14.3943L5.90188 14.3493L5.50739 14.1592L5.23387 13.9942L4.7184 13.9091L4.20293 13.8341L4.03461 13.7041H3.9189L3.86104 13.7641L4.08721 14.0392L3.60856 14.5594L2.76172 14.3843V12.6186Z" fill="#101828"/>
<path fill-rule="evenodd" clip-rule="evenodd" d="M4.6921 11.6483L3.30349 11.7533L2.76172 12.6186V14.3843L3.60856 14.5594L4.08721 14.0392L3.86104 13.7641L3.9189 13.7041H4.03461L4.20293 13.8341L4.7184 13.9091L5.23387 13.9942L5.50739 14.1592L5.90188 14.3493L6.18065 14.3943L6.8697 14.3693L6.95386 14.7194L6.99594 14.7895L7.96902 13.579L8.33195 13.639L8.58969 13.8541L9.21036 13.619V12.7637L9.12094 12.5836L8.87898 12.2785L8.97892 11.9484L9.36815 11.5332V11.3281L9.12094 10.998L8.98944 10.5479H8.75274L8.56339 10.6429L8.39507 10.6879L8.1689 10.5979H7.93746L7.83226 10.7379H7.65869L7.53771 10.7979L7.33783 11.043L7.06432 11.1031L6.89074 11.2281L6.71716 11.1081H6.37527L5.69674 11.2331L5.52843 11.3332L5.23387 11.2331H4.90776L4.6921 11.6483ZM4.95364 11.31L4.73975 11.7218L3.34722 11.8271L2.83768 12.641V14.3215L3.58201 14.4754L3.98604 14.0363L3.75885 13.76L3.88688 13.6272H4.0603L4.23331 13.7608L4.73062 13.8332L5.26036 13.9206L5.54324 14.0913L5.92465 14.2751L6.18532 14.3172L6.92887 14.2902L7.01415 14.645L7.93786 13.4959L8.36445 13.5665L8.60416 13.7665L9.13439 13.5657V12.7819L9.05667 12.6254L8.79457 12.2949L8.91152 11.9086L9.29219 11.5026V11.354L9.05202 11.0333L8.93268 10.6247H8.77055L8.59024 10.7152L8.39042 10.7687L8.15449 10.6748H7.97513L7.86994 10.8148H7.6763L7.58586 10.8597L7.37966 11.1125L7.09566 11.1749L6.89163 11.3218L6.69369 11.185H6.38213L5.7236 11.3063L5.53706 11.4172L5.22147 11.31H4.95364Z" fill="white"/>
<path d="M6.89062 10.6332L7.04316 10.5132L7.92157 10.4381V10.083L8.03202 9.8029V9.67285L8.28976 9.83791L8.40022 10.118L8.60535 10.2831L8.47911 10.4431L8.50541 10.6582L8.39496 10.6882L8.16878 10.5982H7.93735L7.83215 10.7383H7.65857L7.53759 10.7983L7.33772 11.0434L7.0642 11.1034L6.89062 11.2284V10.6332Z" fill="#101828"/>
<path fill-rule="evenodd" clip-rule="evenodd" d="M8.40022 10.118L8.28976 9.83791L8.03202 9.67285V9.8029L7.92157 10.083V10.4381L7.04316 10.5132L6.89062 10.6332V11.2284L7.0642 11.1034L7.33772 11.0434L7.53759 10.7983L7.65857 10.7383H7.83215L7.93735 10.5982H8.16878L8.39496 10.6882L8.50541 10.6582L8.47911 10.4431L8.60535 10.2831L8.40022 10.118ZM8.4985 10.2953L8.33714 10.1655L8.22833 9.88956L8.10799 9.81249V9.81768L7.99753 10.0978V10.5088L7.072 10.5879L6.96659 10.6708V11.0793L7.03286 11.0316L7.29589 10.9739L7.48944 10.7365L7.64095 10.6614H7.79447L7.89967 10.5213H8.18318L8.39945 10.6074L8.42191 10.6013L8.3998 10.4205L8.4985 10.2953Z" fill="white"/>
<path d="M7.66016 6.58119L8.13881 5.77588L8.51226 6.03598L8.54908 6.23105L8.51226 6.45114L8.43862 6.6062V6.71624L8.54908 6.86129L8.59642 7.03636V7.38149L8.68058 7.64659L8.88045 7.9317V8.20181L9.06455 8.46191V8.63197L8.99091 8.92208L8.95409 9.15217L8.82785 9.20219L8.77525 9.70738L8.82785 9.86244L8.59642 10.1225L8.80681 10.1475V10.3926H8.52018L8.60694 10.2826L8.4018 10.1175L8.29134 9.83743L8.03361 9.67381V9.56233L8.13881 9.38226L7.92315 9.04213L8.03361 8.92208L7.92315 8.64197L8.03361 8.21181L7.66016 6.58119Z" fill="#101828"/>
<path fill-rule="evenodd" clip-rule="evenodd" d="M8.43862 6.6062L8.51226 6.45114L8.54908 6.23105L8.51226 6.03598L8.13881 5.77588L7.66016 6.58119L8.03361 8.21181L7.92315 8.64197L8.03361 8.92208L7.92315 9.04213L8.13881 9.38226L8.03361 9.56233V9.67381L8.29134 9.83743L8.4018 10.1175L8.60694 10.2826L8.52018 10.3926H8.80681V10.1475L8.59642 10.1225L8.82785 9.86244L8.77525 9.70738L8.82785 9.20219L8.95409 9.15217L8.99091 8.92208L9.06455 8.63197V8.46191L8.88045 8.20181V7.9317L8.68058 7.64659L8.59642 7.38149V7.03636L8.54908 6.86129L8.43862 6.71624V6.6062ZM8.47976 6.89622L8.36266 6.74243V6.58868L8.43915 6.4276L8.47189 6.23187L8.4435 6.08142L8.16227 5.88556L7.74111 6.59415L8.11183 8.21286L8.00294 8.6369L8.12201 8.93883L8.01894 9.05084L8.22802 9.38061L8.10958 9.58336V9.63128L8.35271 9.78563L8.46487 10.0701L8.50917 10.1057L8.74149 9.84461L8.69794 9.71625L8.75715 9.14763L8.88603 9.09656L8.91647 8.90634L8.98858 8.62225V8.4866L8.80449 8.2265V7.95621L8.61184 7.68141L8.52045 7.39354V7.04669L8.47976 6.89622ZM8.63148 10.2041L8.71378 10.2703L8.67799 10.3158H8.73085V10.2159L8.63148 10.2041Z" fill="white"/>
<path d="M8.26491 4.82541L9.53255 4.77539L10.4004 6.6211L10.5845 7.80655L10.0901 8.987L9.49573 9.16207L9.19591 9.31713L9.02234 9.47218L8.99604 9.65726V9.80231L9.06967 10.0074V10.2875L8.99604 10.3425L8.99078 10.5476H8.75408L8.56472 10.6426L8.50686 10.6576L8.48057 10.4426L8.52016 10.3925H8.80668V10.1474L8.59628 10.1224L8.82772 9.86233L8.77512 9.70727L8.82772 9.20208L8.95396 9.15206L8.99078 8.92197L9.06441 8.63186V8.4618L8.88032 8.2017V7.9316L8.68044 7.64649L8.59628 7.38139V7.03625L8.54894 6.86119L8.43849 6.71613V6.60609L8.51212 6.45103L8.54894 6.23095L8.51212 6.03587L8.13867 5.77577V5.21056L8.26491 4.82541Z" fill="#101828"/>
<path fill-rule="evenodd" clip-rule="evenodd" d="M8.75408 10.5476H8.99078L8.99604 10.3425L9.06967 10.2875V10.0074L8.99604 9.80231V9.65726L9.02234 9.47218L9.19591 9.31713L9.49573 9.16207L10.0901 8.987L10.5845 7.80655L10.4004 6.6211L9.53255 4.77539L8.26491 4.82541L8.13867 5.21056V5.77577L8.51212 6.03587L8.54894 6.23095L8.51212 6.45103L8.43849 6.60609V6.71613L8.54894 6.86119L8.59628 7.03625V7.38139L8.68044 7.64649L8.88032 7.9316V8.2017L9.06441 8.4618V8.63186L8.99078 8.92197L8.95396 9.15206L8.82772 9.20208L8.77512 9.70727L8.82772 9.86233L8.59628 10.1224L8.80668 10.1474V10.3925H8.52016L8.48057 10.4426L8.50686 10.6576L8.56472 10.6426L8.75408 10.5476ZM8.57071 10.5538L8.73628 10.4707H8.91676L8.92106 10.303L8.99371 10.2487V10.0209L8.92007 9.81585V9.65175L8.95112 9.43325L9.15282 9.25307L9.46758 9.09028L10.0342 8.92337L10.5061 7.79677L10.3271 6.64406L9.48547 4.8542L8.32044 4.90017L8.21464 5.22298V5.73535L8.58089 5.99043L8.62613 6.23013L8.58524 6.47456L8.51445 6.62361V6.68994L8.61826 6.82626L8.67225 7.02592V7.36934L8.74918 7.61167L8.95628 7.90709V8.177L9.14038 8.4371V8.64158L9.06521 8.93772L9.02201 9.20767L8.89843 9.25664L8.85243 9.69841L8.91409 9.88016L8.75103 10.0634L8.88265 10.0791V10.4694H8.5604L8.57071 10.5538Z" fill="white"/>
<path d="M9.52587 4.77063L9.75731 4.47051H9.98875L10.4884 4.87067H10.8671L11.2196 4.35547L11.7035 5.11076L12.3925 5.30583L12.7081 5.62595L13.313 5.90606L13.96 6.74138L14.2545 7.09652L14.7753 7.49667L15.1119 8.13191L15.4012 8.92722L15.2381 9.48243L16.0481 9.88258L15.5695 10.4778L15.4012 10.7779L15.2381 11.2531L14.628 11.6132L14.2545 12.7437L13.313 12.5036L13.2551 13.569L13.0816 14.3343L12.5398 13.9191L11.835 14.3043H11.4089L11.3774 14.4243H10.5621L10.5147 14.1992L10.4411 14.0942L10.2938 14.0492H10.0256L9.65737 13.9942L9.41542 13.9491L9.21028 13.619V12.7637L9.12086 12.5836L8.87891 12.2785L8.97884 11.9484L9.36808 11.5332V11.3281L9.12086 10.998L8.98936 10.5478L8.99462 10.3428L9.06826 10.2877V10.0076L8.99462 9.80255V9.65749L9.02092 9.47242L9.1945 9.31736L9.48905 9.1623L10.0887 8.98724L10.5884 7.81679L10.399 6.61633L9.52587 4.77063Z" fill="#101828"/>
<path fill-rule="evenodd" clip-rule="evenodd" d="M10.4884 4.87067L9.98875 4.47051H9.75731L9.52587 4.77063L10.399 6.61633L10.5884 7.81679L10.0887 8.98724L9.48905 9.1623L9.1945 9.31736L9.02092 9.47242L8.99462 9.65749V9.80255L9.06826 10.0076V10.2877L8.99462 10.3428L8.98936 10.5478L9.12086 10.998L9.36808 11.3281V11.5332L8.97884 11.9484L8.87891 12.2785L9.12086 12.5836L9.21028 12.7637V13.619L9.41542 13.9491L9.65737 13.9942L10.0256 14.0492H10.2938L10.4411 14.0942L10.5147 14.1992L10.5621 14.4243H11.3774L11.4089 14.3043H11.835L12.5398 13.9191L13.0816 14.3343L13.2551 13.569L13.313 12.5036L14.2545 12.7437L14.628 11.6132L15.2381 11.2531L15.4012 10.7779L15.5695 10.4778L16.0481 9.88258L15.2381 9.48243L15.4012 8.92722L15.1119 8.13191L14.7753 7.49667L14.2545 7.09652L13.96 6.74138L13.313 5.90606L12.7081 5.62595L12.3925 5.30583L11.7035 5.11076L11.2196 4.35547L10.8671 4.87067H10.4884ZM11.2175 4.49356L10.9069 4.94755H10.462L9.96233 4.5474H9.79438L9.61472 4.78039L10.4723 6.59319L10.6669 7.82676L10.1442 9.05105L9.51739 9.23406L9.2378 9.38124L9.09214 9.51136L9.07059 9.663V9.78901L9.14423 9.99409V10.3265L9.0696 10.3823L9.06562 10.5377L9.18978 10.9627L9.44404 11.3023V11.5639L9.04624 11.9882L8.96332 12.2621L9.18513 12.5418L9.28625 12.7454V13.5968L9.46196 13.8796L9.66979 13.9183L10.0311 13.9723H10.305L10.488 14.0282L10.5858 14.1677L10.6236 14.3474H11.319L11.3505 14.2274H11.8158L12.5467 13.828L13.0338 14.2012L13.1796 13.5582L13.2422 12.4062L14.2048 12.6517L14.565 11.5614L15.1756 11.201L15.3317 10.7461L15.5066 10.4343L15.9288 9.90918L15.147 9.52296L15.3212 8.9298L15.0424 8.16352L14.7161 7.54778L14.2018 7.15255L13.901 6.78983L13.2646 5.9682L12.664 5.69009L12.3528 5.37444L11.6554 5.17698L11.2175 4.49356Z" fill="white"/>
<path d="M15.4016 8.92746L16.501 8.80241L16.6956 8.67236L16.7324 8.91246L16.9165 9.04751L16.9323 9.24258L17.0901 9.32761L17.29 9.2876L17.5056 9.32761L17.5582 9.25759L17.7686 9.19256L17.958 9.16755L18.1578 9.19256L18.4734 9.2876L18.5681 9.38764L18.6838 9.36263L18.7154 9.50268V9.57771L18.5944 9.72276V9.90784L18.6838 9.99787V10.1779L18.789 10.453L18.9258 10.4831L18.91 10.6231L18.9994 10.6581L18.91 10.8132L18.9468 10.9332L18.8364 11.1483V11.3084H18.7522V11.3884L18.6365 11.3584L18.2367 11.6885L18 11.8036L18.1052 11.9036V12.2287L17.8107 13.1491L17.7844 13.9794L17.0059 14.5196L16.8849 15.9251L16.2643 16.0002H15.6962L14.7442 15.8901L14.2339 15.9802L14.1919 15.52L13.082 14.3345L13.2556 13.5692L13.3135 12.5038L14.255 12.7439L14.6284 11.6135L15.2386 11.2533L15.4016 10.7782L15.57 10.4781L16.0486 9.88283L15.2386 9.48267L15.4016 8.92746Z" fill="#101828"/>
<path fill-rule="evenodd" clip-rule="evenodd" d="M16.501 8.80241L15.4016 8.92746L15.2386 9.48267L16.0486 9.88283L15.57 10.4781L15.4016 10.7782L15.2386 11.2533L14.6284 11.6135L14.255 12.7439L13.3135 12.5038L13.2556 13.5692L13.082 14.3345L14.1919 15.52L14.2339 15.9802L14.7442 15.8901L15.6962 16.0002H16.2643L16.8849 15.9251L17.0059 14.5196L17.7844 13.9794L17.8107 13.1491L18.1052 12.2287V11.9036L18 11.8036L18.2367 11.6885L18.6365 11.3584L18.7522 11.3884V11.3084H18.8364V11.1483L18.9468 10.9332L18.91 10.8132L18.9994 10.6581L18.91 10.6231L18.9258 10.4831L18.789 10.453L18.6838 10.1779V9.99787L18.5944 9.90784V9.72276L18.7154 9.57771V9.50268L18.6838 9.36263L18.5681 9.38764L18.4734 9.2876L18.1578 9.19256L17.958 9.16755L17.7686 9.19256L17.5582 9.25759L17.5056 9.32761L17.29 9.2876L17.0901 9.32761L16.9323 9.24258L16.9165 9.04751L16.7324 8.91246L16.6956 8.67236L16.501 8.80241ZM16.6387 8.80253L16.5276 8.87676L15.4601 8.99818L15.3297 9.44214L16.168 9.85622L15.6329 10.5216L15.4711 10.81L15.3011 11.3054L14.6914 11.6653L14.3047 12.8359L13.3843 12.6012L13.3311 13.58L13.1652 14.3116L14.2651 15.4864L14.302 15.8901L14.7419 15.8125L15.7005 15.9233H16.2598L16.8146 15.8562L16.9334 14.4767L17.7097 13.938L17.7351 13.1357L18.0293 12.2166V11.9369L17.8673 11.7828L18.1957 11.6232L18.6182 11.2743L18.6762 11.2893V11.2315H18.7604V11.1295L18.865 10.9258L18.8275 10.8037L18.8889 10.6973L18.8279 10.6734L18.8425 10.5435L18.7329 10.5194L18.6079 10.1923V10.0298L18.5184 9.9398V9.69465L18.6394 9.5496V9.51134L18.6264 9.45366L18.5425 9.47178L18.4325 9.35549L18.1422 9.26808L17.9582 9.24506L17.7847 9.26797L17.6038 9.32388L17.5378 9.41176L17.2905 9.36587L17.0783 9.40836L16.86 9.29071L16.8436 9.08902L16.6622 8.95591L16.6387 8.80253Z" fill="white"/>
</g>
<defs>
<clipPath id="clip0_3475_32475">
<rect width="20" height="20" fill="white"/>
</clipPath>
</defs>
</svg>
