<svg width="20" height="20" viewBox="0 0 20 20" fill="none" xmlns="http://www.w3.org/2000/svg">
<g clip-path="url(#clip0_1331_6106)">
<path fill-rule="evenodd" clip-rule="evenodd" d="M7 11V3C7.16667 2.5 7.8 1.5 9 1.5C10.2 1.5 10.8333 2.16667 11 2.5V12C11.6667 12.5 12.9 14 12.5 16C12.1 18 10 18.5 9 18.5C7.83333 18.5 5.5 17.8 5.5 15C5.66667 14.3333 6.2 12.8 7 12V11ZM9.50004 3.3728C9.50004 3.16698 9.27618 3.00013 9.00004 3.00013C8.72389 3.00013 8.50004 3.16698 8.50004 3.3728V13.4822C7.79781 13.7198 7.29321 14.3752 7.29321 15.1465C7.29321 16.1183 8.09414 16.906 9.08213 16.906C10.0701 16.906 10.871 16.1183 10.871 15.1465C10.871 14.3163 10.2864 13.6204 9.50004 13.4353V3.3728Z" fill="white"/>
<path fill-rule="evenodd" clip-rule="evenodd" d="M9.06395 1C9.39426 1 9.77796 1.07255 10.0952 1.22207C10.382 1.35728 10.7174 1.56431 10.9626 1.84329C11.2026 2.11643 11.3586 2.43163 11.476 2.75396C11.5937 3.0776 11.5901 3.42299 11.5872 3.69786C11.5867 3.73864 11.5863 3.77787 11.5863 3.81525H11.5861V12.085V12.1902C12.2639 12.775 12.802 13.5545 12.9506 14.4777C13.0978 15.3928 12.9137 16.3307 12.4304 17.1234C11.947 17.9161 11.1957 18.5122 10.3103 18.8034C9.42474 19.0947 8.46405 19.0616 7.60087 18.7103C6.73779 18.359 6.02957 17.7129 5.60216 16.8891C5.17479 16.0653 5.05569 15.1171 5.26578 14.2141C5.46 13.3793 5.93537 12.6875 6.57809 12.1588V12.1554H6.57739V3.81525H6.57736C6.57736 3.77787 6.57694 3.73864 6.57651 3.69786C6.5736 3.42299 6.56994 3.0776 6.68774 2.75396C6.80506 2.43163 6.96111 2.11643 7.20112 1.84329C7.44899 1.56121 7.80011 1.35447 8.08097 1.22207C8.39064 1.0761 8.72483 1 9.06395 1ZM7.29261 3.70963C7.29256 3.70003 7.29251 3.69052 7.29247 3.68109V3.68109C7.29097 3.39514 7.28988 3.18778 7.36143 2.99118C7.46168 2.71577 7.58052 2.48786 7.74251 2.30351C7.89664 2.12811 8.14585 1.97196 8.39023 1.85676C8.6058 1.75514 8.83455 1.70381 9.06395 1.70381C9.30216 1.70381 9.57786 1.75869 9.7859 1.85676C10.0243 1.96915 10.2643 2.12501 10.4212 2.30351C10.5832 2.48786 10.702 2.71577 10.8023 2.99118C10.8738 3.18778 10.8727 3.39514 10.8712 3.68109L10.8709 3.74463H10.8706V12.0498V12.1904V12.3841C10.8706 12.4148 10.9523 12.5259 11.1157 12.6705L11.114 12.6724C11.7181 13.1861 12.16 13.8419 12.2791 14.5822C12.4016 15.3429 12.2483 16.122 11.8474 16.7795C11.4466 17.4368 10.8248 17.9291 10.0947 18.1693C9.36458 18.4095 8.57275 18.3823 7.86081 18.0925C7.14876 17.8027 6.5623 17.2687 6.20767 16.5851C5.85299 15.9015 5.75384 15.1137 5.92844 14.3633C6.1003 13.6246 6.61355 13.0705 7.15023 12.5779L7.14903 12.5761C7.24545 12.4789 7.29366 12.4079 7.29366 12.3843V12.05L7.29296 12.05V3.70963H7.29261Z" fill="white"/>
<path fill-rule="evenodd" clip-rule="evenodd" d="M17.8117 7.79325C18.0628 7.51759 18.0628 7.07065 17.8117 6.79498L15.4546 4.20675C15.334 4.07437 15.1705 4 15 4C14.8295 4 14.666 4.07437 14.5454 4.20675L12.1883 6.79498C11.9372 7.07065 11.9372 7.51759 12.1883 7.79325C12.4393 8.06892 12.8464 8.06892 13.0974 7.79325L14.3571 6.41003L14.3571 11.2941C14.3571 11.684 14.645 12 15 12C15.355 12 15.6429 11.684 15.6429 11.2941L15.6429 6.41003L16.9026 7.79325C17.1536 8.06892 17.5607 8.06892 17.8117 7.79325Z" fill="white"/>
<path d="M2 3.75C2 3.33579 2.33579 3 2.75 3H5.25C5.66421 3 6 3.33579 6 3.75V3.75C6 4.16421 5.66421 4.5 5.25 4.5H2.75C2.33579 4.5 2 4.16421 2 3.75V3.75Z" fill="white"/>
<path d="M3 6.75C3 6.33579 3.33579 6 3.75 6H5.25C5.66421 6 6 6.33579 6 6.75V6.75C6 7.16421 5.66421 7.5 5.25 7.5H3.75C3.33579 7.5 3 7.16421 3 6.75V6.75Z" fill="white"/>
<path d="M2 9.75C2 9.33579 2.33579 9 2.75 9H5.25C5.66421 9 6 9.33579 6 9.75V9.75C6 10.1642 5.66421 10.5 5.25 10.5H2.75C2.33579 10.5 2 10.1642 2 9.75V9.75Z" fill="white"/>
</g>
<defs>
<clipPath id="clip0_1331_6106">
<rect width="20" height="20" fill="white"/>
</clipPath>
</defs>
</svg>
