<svg width="40" height="40" viewBox="0 0 40 40" fill="none" xmlns="http://www.w3.org/2000/svg">
<mask id="mask0_1009_1016" style="mask-type:luminance" maskUnits="userSpaceOnUse" x="0" y="0" width="40" height="40">
<path d="M40 0H0V40H40V0Z" fill="white"/>
</mask>
<g mask="url(#mask0_1009_1016)">
<path d="M19.8215 32.4819C19.8178 32.563 19.7829 32.6395 19.7242 32.6955C19.6655 32.7515 19.5875 32.7827 19.5063 32.7826C19.3235 32.7826 19.1848 32.6502 19.1785 32.4819C18.2391 29.6304 18.0714 29.1929 16.1322 28.6066C9.74717 27.0885 5 21.3484 5 14.5C5 6.49159 11.4916 0 19.5 0C27.5084 0 34 6.49159 34 14.5C34 21.3484 29.2528 27.0885 22.8678 28.6066C20.9286 29.1929 20.7609 29.6304 19.8228 32.4819H19.8215Z" fill="#35DBFF"/>
<path d="M19.8152 40.3477C18.4219 40.3477 17.2935 39.2192 17.2935 37.8259C17.2935 36.4327 18.4219 35.3042 19.8152 35.3042C21.2085 35.3042 22.3369 36.4327 22.3369 37.8259C22.3369 39.2192 21.2085 40.3477 19.8152 40.3477Z" fill="white"/>
<path fill-rule="evenodd" clip-rule="evenodd" d="M19.7866 39.0864C19.9545 39.0902 20.1214 39.0604 20.2777 38.9987C20.4339 38.9371 20.5763 38.8449 20.6964 38.7275C20.8165 38.6101 20.9119 38.4699 20.9771 38.3151C21.0423 38.1603 21.0759 37.9941 21.0759 37.8261C21.076 37.6582 21.0425 37.4919 20.9774 37.3371C20.9123 37.1823 20.8169 37.042 20.6968 36.9246C20.5768 36.8071 20.4345 36.7148 20.2783 36.6531C20.1221 36.5914 19.9551 36.5615 19.7872 36.5652C19.4578 36.5725 19.1443 36.7085 18.9138 36.944C18.6834 37.1796 18.5543 37.496 18.5542 37.8255C18.5541 38.155 18.683 38.4715 18.9134 38.7071C19.1437 38.9428 19.4571 39.0789 19.7866 39.0864Z" fill="#35DBFF"/>
<path d="M19.5002 23.9564C24.5488 23.9564 28.6415 19.8637 28.6415 14.8151C28.6415 9.76653 24.5488 5.67383 19.5002 5.67383C14.4516 5.67383 10.3589 9.76653 10.3589 14.8151C10.3589 19.8637 14.4516 23.9564 19.5002 23.9564Z" fill="white"/>
</g>
<path d="M21.0209 11.9777L19.5008 10L17.9806 11.9777C16.3285 14.3175 15.9729 16.0724 16.0016 16.6574C16.0016 18.1059 17.0341 19.1179 17.5504 19.4429C17.8372 19.6286 18.6346 20 19.5295 20C20.4243 20 21.2026 19.6286 21.4798 19.4429C21.9866 19.1643 23 18.2173 23 16.6574C23 15.0975 21.6806 12.8877 21.0209 11.9777Z" fill="#35DBFF"/>
</svg>
