<svg width="40" height="40" viewBox="0 0 40 40" fill="none" xmlns="http://www.w3.org/2000/svg">
<path d="M20.8215 32.4836C20.8178 32.5647 20.7829 32.6412 20.7242 32.6972C20.6655 32.7532 20.5875 32.7845 20.5063 32.7844C20.3235 32.7844 20.1848 32.652 20.1785 32.4836C19.2391 29.632 19.0714 29.1945 17.1322 28.6081C10.7472 27.09 6 21.3496 6 14.5008C6 6.49194 12.4916 0 20.5 0C28.5084 0 35 6.49194 35 14.5008C35 21.3496 30.2528 27.09 23.8678 28.6081C21.9286 29.1945 21.7596 29.632 20.8215 32.4836Z" fill="#7E234D"/>
<path d="M20.5 40C19.1187 40 18 38.8813 18 37.5C18 36.1187 19.1187 35 20.5 35C21.8813 35 23 36.1187 23 37.5C23 38.8813 21.8813 40 20.5 40Z" fill="white"/>
<path fill-rule="evenodd" clip-rule="evenodd" d="M20.4661 38.9996C20.6658 39.0041 20.8645 38.9687 21.0504 38.8954C21.2362 38.8221 21.4056 38.7124 21.5485 38.5727C21.6914 38.4331 21.8049 38.2663 21.8824 38.0821C21.96 37.898 22 37.7002 22 37.5004C22 37.3006 21.9602 37.1028 21.8827 36.9186C21.8053 36.7344 21.6918 36.5675 21.549 36.4278C21.4062 36.2881 21.2369 36.1783 21.0511 36.1049C20.8652 36.0315 20.6666 35.9959 20.4668 36.0004C20.0749 36.009 19.702 36.1708 19.4278 36.451C19.1537 36.7312 19.0001 37.1076 19 37.4996C18.9999 37.8916 19.1533 38.2681 19.4273 38.5485C19.7013 38.8288 20.0742 38.9908 20.4661 38.9996V38.9996Z" fill="#7E234D"/>
<ellipse cx="20.5007" cy="14.8161" rx="9.1413" ry="9.1418" fill="white"/>
<path d="M20.5095 10.0255C19.7871 10.0943 19.0892 10.458 18.6174 11.0134C18.5289 11.1215 18.4454 11.2149 18.4355 11.2247C18.4257 11.2345 18.3274 11.2296 18.2144 11.205C17.8114 11.1215 17.3051 11.2198 16.9611 11.4508C16.7547 11.5884 16.4844 11.8784 16.3763 12.0848C16.278 12.2715 16.1797 12.6156 16.1797 12.7777V12.8809H20.7995H25.4193V12.7777C25.4144 12.3207 25.0753 11.7407 24.6379 11.4508C24.2889 11.2149 23.7827 11.1215 23.3846 11.205L23.1831 11.2493L23.0996 11.1461C22.6916 10.6399 22.1117 10.2516 21.5465 10.1091C21.3499 10.0599 20.883 9.99112 20.7798 10.0009C20.7503 10.0009 20.6324 10.0108 20.5095 10.0255Z" fill="#7E234D"/>
<path d="M15.4522 13.5001C15.29 13.5394 15.1573 13.6476 15.0786 13.8147L15 13.9719L15.2752 16.4293C15.575 19.1029 15.5652 19.0586 15.7667 19.324L15.865 19.4616L15.8846 19.2994C16.0173 18.2428 16.9462 17.4663 18.0127 17.5252C18.7646 17.5695 19.3888 17.9823 19.7279 18.6655C19.8803 18.98 19.9343 19.2257 19.9245 19.5648L19.9147 19.8253H20.7944H21.6692V19.5452C21.6692 18.459 22.4998 17.5842 23.5859 17.5252C23.9644 17.5056 24.2396 17.5597 24.6033 17.7366C24.8392 17.8545 24.9178 17.9086 25.1095 18.0954C25.4486 18.4345 25.6599 18.8424 25.714 19.2847L25.7337 19.4616L25.8369 19.324C26.0335 19.0537 26.0285 19.0979 26.3283 16.4293L26.6036 13.967L26.52 13.8098C26.461 13.6869 26.4119 13.6279 26.3087 13.5689L26.176 13.4854L20.8583 13.4805C17.9341 13.4805 15.5013 13.4854 15.4522 13.5001Z" fill="#7E234D"/>
<path d="M17.6051 18.1494C17.4086 18.1887 17.1039 18.346 16.9466 18.4885C16.4158 18.9652 16.3126 19.7614 16.7107 20.361C16.9712 20.7493 17.443 20.9999 17.9197 20.9999C18.1064 20.9999 18.4554 20.9016 18.6225 20.8033C18.9419 20.6166 19.1975 20.2775 19.2909 19.9285C19.517 19.0488 18.8781 18.174 17.9737 18.1347C17.846 18.1297 17.6838 18.1347 17.6051 18.1494Z" fill="#7E234D"/>
<path d="M23.4633 18.1397C23.0357 18.2085 22.6082 18.5329 22.4067 18.926C22.2199 19.2946 22.2199 19.8254 22.4067 20.194C22.7605 20.9017 23.6157 21.1917 24.3185 20.8526C25.1048 20.4742 25.3801 19.4716 24.8886 18.754C24.579 18.3019 23.9941 18.0512 23.4633 18.1397Z" fill="#7E234D"/>
</svg>
