<svg width="772" height="120" viewBox="0 0 772 120" fill="none" xmlns="http://www.w3.org/2000/svg">
<path d="M407 58.0833V119H0V51.7083H20.9524V83.5833H27.7619V55.25H32.4762V46.75H52.381V80.75H61.2857V68H76.4762V80.75H80.1429V92.7917H90.619V51.7083H115.238V92.7917H134.095V42.5H157.143V72.9583H169.714V55.25H174.952V46.75H179.667V10.625H199.571L203.762 17V87.8333H209.524V4.25L237.286 0V87.8333H242V46.75H260.333V80.75H266.619V92.7917H271.857V106.958H279.19V92.7917H284.952V31.875H306.429V92.7917H313.762V106.958H317.952V4.25H342.048V102.708H363.524V42.5H383.429V102.708H388.143V58.0833H407Z" fill="url(#paint0_linear_4266_24394)"/>
<path opacity="0.2" d="M0 101V119H333V45L308.782 71V109H305.522V79L290.618 66L275.715 79V109H269.66V87H255.688V109H250.099V82L230.538 109H223.087V71H188.622V87H176.979V63H156.487V106H150.432V90H145.775V69L118.297 74V101H110.379V65H104.324V53H73.586V115H67.5315V36H62.4084V26H34.9301V80H28.4098V93H23.7524V84H6.98601V101H0Z" fill="#217BF4"/>
<path fill-rule="evenodd" clip-rule="evenodd" d="M536.723 73.2775V66.9516H551.558V73.2775H536.723ZM589.747 73.4376V67.1117H605.132V73.4376H589.747Z" fill="url(#paint1_linear_4266_24394)"/>
<path d="M445.923 118.439V113.715L444.549 112.114V110.752H449.289V110.032L444 110.112V112.434L445.099 113.875V119H693.39V114.276L694.97 113.155V109.872L690.917 109.791V110.592L694.352 110.672V112.514L692.634 113.795V118.439H659.941L615.022 118.359H488.026L445.923 118.439Z" fill="url(#paint2_linear_4266_24394)"/>
<path fill-rule="evenodd" clip-rule="evenodd" d="M449.289 110.032L449.357 83.6871L446.404 81.8454V80.4842H448.258V79.0428L444.275 76.8007V75.1993H448.258V69.9944H452.585V67.7523H455.127C455.127 67.7523 455.066 66.5054 455.264 65.9106C455.407 65.4801 455.499 65.232 455.745 64.8696C456.064 64.3982 456.5 63.8287 457.462 63.5885C458.303 63.3784 460.194 63.2296 461.987 63.0884L461.988 63.0884C462.245 63.0681 462.501 63.048 462.751 63.0279C464.742 62.8678 464.124 58.0633 464.124 58.0633H470.924C470.924 58.0633 470.443 62.4674 471.405 63.0279C472.121 63.4457 472.952 63.4187 474.211 63.3778L474.226 63.3773L474.355 63.3731L474.374 63.3725C474.762 63.3602 475.189 63.3482 475.663 63.3482C475.841 63.3482 476.006 63.3478 476.16 63.3475C477.853 63.3434 478.206 63.3425 478.96 63.9088C479.48 64.2997 479.603 64.5506 479.779 64.909C479.821 64.9953 479.867 65.0878 479.922 65.1899C480.203 65.7165 480.334 67.7523 480.334 67.7523H480.883L480.952 69.9944H483.287V71.5158H533.632V63.3482H551.49V58.784H555.954C555.954 58.784 556.169 56.4809 556.984 55.5009C557.669 54.6777 558 54.4209 558.908 53.9795C559.711 53.5891 560.542 53.5746 561.345 53.5606C562.445 53.5414 563.491 53.5231 564.334 52.5382C565.687 50.9556 565.295 47.0931 565.295 47.0931H569.691V33H570.172V35.2421C570.172 35.2421 571.872 36.3859 573.056 36.8436C574.225 37.2951 575.529 38.1248 575.529 38.1248L574.98 42.2886C574.98 42.2886 573.801 40.5548 572.644 40.2868C571.691 40.0659 570.172 39.9665 570.172 39.9665V47.0931H573.606C573.606 47.0931 573.225 50.8564 574.499 52.4581C575.402 53.5937 576.656 53.5895 577.939 53.5852C578.705 53.5826 579.481 53.58 580.199 53.8194C581.318 54.1921 581.842 54.5503 582.672 55.5009C583.545 56.5006 584.046 58.784 584.046 58.784H587.961V62.5475H605.956V71.1955H655.751V70.0745H658.911V67.5121H661.796C661.796 67.5121 661.656 65.8241 662.002 64.8696C662.364 63.8698 662.56 63.5967 663.307 62.9479C663.666 62.6355 664.921 62.5281 666.165 62.4218C667.504 62.3073 668.829 62.1939 669.007 61.8268C669.668 60.4658 669.007 57.8231 669.007 57.8231H675.052C675.052 57.8231 674.528 60.2495 675.052 61.5866C675.351 62.3508 676.923 62.3199 678.562 62.2877C679.791 62.2636 681.057 62.2387 681.851 62.5475C682.968 62.9817 683.358 63.4374 684.049 64.5493C684.652 65.5199 684.736 67.5121 684.736 67.5121H687.14V70.0745H690.917V75.5996H696L690.917 78.7225V80.324H693.802V82.2458L690.162 83.8473L690.917 109.791V110.592H652.18L646.891 108.03L603.552 108.27V84.9683H601.354V108.27H596.478L596.271 85.1285H594.28V108.27H589.128V85.1285H587.205V108.27H581.985V85.1285H579.993V108.27H580.818V109.471H585.9V113.955H589.815V109.471H592.082V113.955H598.332V111.393L615.022 118.359H488.026L524.36 118.199L530.335 115.877L538.715 112.594L541.531 111.553V113.875H547.575V109.631H549.773V113.875H553.894V109.151H558.702V108.27H559.8V85.0484H557.809V108.27H552.451V85.0484H550.597V108.27H545.308L545.102 85.0484H543.454V108.27H538.165V85.0484H536.242L536.173 108.27H492.628L489.881 109.711L487.751 110.672L449.289 110.752V110.032ZM453.272 68.473V69.9944H479.922V68.473H453.272ZM448.945 71.1155V75.1993H482.463V71.1155H448.945ZM448.945 79.0428V80.4842H482.119V79.0428H448.945ZM449.975 82.0857H480.952V83.2067H449.975V82.0857ZM450.731 86.1695H452.791V109.711H450.731V86.1695ZM457.187 86.1695H459.316V109.711H457.187V86.1695ZM472.16 86.1695H474.358V109.711H472.16V86.1695ZM478.891 86.1695H481.02V109.711H478.891V86.1695ZM483.287 72.1564H533.014V75.1993H483.287V72.1564ZM484.249 78.4823V80.2439L532.052 80.0838V78.4823H484.249ZM530.953 81.365H485.141V82.7263H530.953V81.365ZM533.907 77.3613H553.688V78.4823H533.907V77.3613ZM533.014 80.0838V81.5251H554.855V80.0838H533.014ZM556.916 76.2402V81.5251H560.625V76.2402H556.916ZM561.174 75.1993H534.456V64.149H553.482V63.0279H586.45V63.9888H605.269V75.1993H578.482V73.7579H586.038V66.3911H553.825V73.7579H561.174V75.1993ZM552.451 59.5847V61.987H587.205V59.5847H552.451ZM579.375 76.2402V81.5251H582.672V76.2402H579.375ZM561.93 107.95H577.796V86.2495C577.796 86.2495 576.216 80.7244 569.554 80.7244C562.891 80.7244 561.93 87.3706 561.93 87.3706V107.95ZM554.581 67.0317H584.801V68.5531H554.581V67.0317ZM585.625 77.3613H605.681V78.4823H585.625V77.3613ZM584.527 80.0838H606.917V81.5251H584.527V80.0838ZM605.956 75.8398V72.4767H655.751V75.8398H605.956ZM607.673 78.4823V80.0838H654.996V78.4823H607.673ZM608.36 82.7263V81.1248H654.24V82.7263H608.36ZM659.872 68.3929V70.0745H686.11V68.3929H659.872ZM689.887 75.5996V71.3557H656.919V75.8398L689.887 75.5996ZM656.919 79.2831H689.887V80.4842H656.919V79.2831ZM658.224 83.1266V82.0056H689.063V83.1266H658.224ZM658.224 86.4898H660.559V109.791H658.224V86.4898ZM667.222 109.791V86.4898H664.955V109.791H667.222ZM682.332 86.4898V109.791H680.203V86.4898H682.332ZM688.651 86.4898H686.796V109.791H688.651V86.4898ZM643.938 86.4898V106.829H641.328V86.4898H643.938ZM637.344 86.4898H634.734V106.829H637.344V86.4898ZM630.407 106.829V86.4898H627.729V106.829H630.407ZM622.303 106.829V86.4898H619.761V106.829H622.303ZM613.923 86.4898V106.829H611.107V86.4898H613.923ZM525.665 106.829V86.1695H528.756V106.829H525.665ZM517.972 86.1695V106.829H520.788V86.1695H517.972ZM510.554 106.829V86.1695H513.302L513.508 106.829H510.554ZM503.274 86.1695V106.829H506.021V86.1695H503.274ZM496.131 106.829V86.1695H498.603V106.829H496.131ZM460.415 108.59H470.718V88.4916C470.718 88.4916 470.168 84.3277 465.567 84.3277C460.965 84.3277 460.415 88.4916 460.415 88.4916V108.59ZM679.035 108.67H668.595V89.0521C668.595 89.0521 668.862 84.4078 673.678 84.2477C678.494 84.0875 679.035 89.0521 679.035 89.0521V108.67Z" fill="url(#paint3_linear_4266_24394)"/>
<path d="M445.073 0V60.1623L402.328 67.7253L406.155 103.276L399.138 119H380V99.8575L395.952 105.968C381.914 30.125 419.552 2.09372 445.073 0Z" fill="url(#paint4_linear_4266_24394)"/>
<path d="M447.621 64.9907L406.155 71.1436L408.069 91.6535H410.621L415.086 79.3476H447.621V64.9907Z" fill="url(#paint5_linear_4266_24394)"/>
<path d="M450.81 84.8169H416.362L404.241 119H454L450.81 84.8169Z" fill="url(#paint6_linear_4266_24394)"/>
<path fill-rule="evenodd" clip-rule="evenodd" d="M372.493 85.3998C372.132 83.586 370.326 82.4201 370.326 82.4201C370.482 80.9972 370.084 80.2232 369.751 79.5741C369.569 79.2185 369.406 78.9004 369.363 78.5335C369.363 78.4903 369.362 78.4478 369.359 78.4059V78.149C369.34 78.0978 369.319 78.0462 369.295 77.9943C369.153 77.441 368.815 77.0161 368.531 76.6597L368.531 76.6596C368.439 76.5436 368.352 76.4348 368.28 76.3312C367.919 75.9425 366.835 74.9061 366.835 74.9061C366.474 72.1855 363.946 70.89 363.946 70.89L361.659 64.4124C361.659 64.4124 362.02 64.6715 362.381 64.4124C362.661 64.2114 362.507 63.8545 362.311 63.4022L362.311 63.4022L362.311 63.402C362.255 63.2713 362.195 63.1326 362.141 62.9873C361.9 62.4691 362.02 61.9509 362.02 61.9509H361.9C361.736 62.657 361.907 63.1827 362.033 63.569C362.092 63.7497 362.141 63.8999 362.141 64.0238C362.141 64.4124 361.539 64.0238 361.539 64.0238L360.335 60.3963C360.576 60.2668 360.696 60.0077 360.696 60.0077L360.937 60.2668C361.539 61.8214 362.622 61.4327 362.622 61.4327C362.742 61.9509 363.344 64.2829 363.826 64.8011C364.307 65.1897 364.548 65.7079 364.548 65.967C364.548 66.2261 364.789 66.2261 364.789 66.2261C364.789 66.2261 364.909 65.8375 364.187 64.6715C363.344 63.5056 362.863 61.3032 362.863 61.3032C363.465 60.785 362.983 59.4895 362.983 59.4895V58.9712C363.165 58.9712 363.141 58.602 363.118 58.2538C363.111 58.1408 363.104 58.0301 363.104 57.9348C363.104 57.5585 362.652 57.1822 362.623 57.1587L362.624 57.1587C362.624 57.1445 362.623 57.1308 362.621 57.1174C362.609 56.8851 362.489 56.7689 362.261 56.7689C362.02 56.7689 362.02 56.3802 362.02 56.3802C362.02 56.1196 361.777 55.9572 361.458 55.7448C361.143 55.535 360.754 55.2763 360.455 54.8256C359.853 53.9187 358.89 53.9187 358.89 53.9187C358.89 53.9187 358.65 53.6596 358.409 53.7892C358.048 53.9187 357.807 53.5301 357.807 53.5301C357.687 53.271 357.566 53.4005 357.566 53.4005C357.551 53.3677 357.54 53.3243 357.531 53.2735C357.585 53.2712 357.637 53.2698 357.687 53.2698C357.593 53.0677 357.646 52.4718 357.673 52.1577C357.681 52.069 357.687 52.0028 357.687 51.9743C357.687 51.8447 357.567 51.7152 357.567 51.7152H357.563C357.563 51.7134 357.563 51.7118 357.563 51.7102L357.557 51.6958C357.631 51.578 357.687 51.4573 357.687 51.4573C357.807 51.5868 358.048 51.0686 358.048 50.8095C358.048 50.5504 357.927 50.5504 357.927 50.5504V50.4208C357.927 50.2913 357.988 50.2265 358.048 50.1617C358.101 50.1044 358.154 50.0471 358.166 49.9448C358.17 50.0022 358.17 50.0372 358.17 50.0372C358.17 50.0135 358.174 49.9725 358.179 49.9204L358.179 49.9204C358.191 49.7908 358.211 49.593 358.191 49.425C358.208 49.0355 358.205 48.5624 358.048 48.4776C357.927 48.348 357.807 48.6071 357.807 48.6071C357.687 47.5707 356.603 47.8298 356.603 47.8298V47.5707C356.603 47.1821 356.363 47.3116 356.363 47.3116C356.363 47.3116 356.363 47.1821 356.242 47.0525C356.122 47.0525 356.122 47.4412 356.122 47.4412C355.881 47.4412 356.001 47.9594 356.001 47.9594C355.881 48.2185 355.761 48.2185 355.761 48.2185C354.437 47.8298 354.798 49.9026 354.918 50.0322C354.918 50.1617 355.038 50.0322 355.038 50.0322V50.5504V50.8095C355.159 51.0686 355.4 51.0686 355.4 51.0686C355.4 51.3277 355.64 51.4573 355.64 51.4573V51.8459C355.46 51.8459 355.482 52.0645 355.505 52.2832C355.512 52.356 355.52 52.4289 355.52 52.4937C355.52 52.7528 355.4 52.7528 355.4 52.7528C354.98 52.6775 354.764 52.7771 354.609 52.8485C354.497 52.8999 354.417 52.9366 354.316 52.8823C354.284 52.8482 354.253 52.796 354.214 52.7329L354.214 52.7329L354.214 52.7329L354.214 52.7329C354.107 52.5568 353.948 52.2958 353.594 52.105C353.567 52.0954 353.54 52.0872 353.514 52.0801C353.393 51.9919 353.269 51.9278 353.176 51.8792L353.176 51.8792C353.154 51.8676 353.133 51.857 353.115 51.8471C352.994 51.8471 352.874 51.7175 352.753 51.588C352.513 51.1993 352.152 51.0698 352.152 51.0698C352.152 50.7872 351.961 50.7785 351.856 50.7949C351.834 50.7901 351.812 50.7885 351.79 50.7888C351.788 50.6737 351.764 50.1346 351.55 49.9038C351.352 49.7975 351.074 48.8187 350.913 48.2562C350.878 48.1333 350.849 48.0302 350.827 47.9605C350.734 47.6588 350.568 47.6694 350.498 47.6892C350.491 47.6869 350.484 47.685 350.477 47.6836C350.7 47.3049 350.466 47.0537 350.466 47.0537C350.226 46.665 350.105 46.1468 350.105 46.0173C350.105 45.9463 350.033 45.9531 349.968 45.9737C349.946 45.9525 349.903 45.9563 349.86 45.9681C349.857 45.9442 349.852 45.9174 349.846 45.8877C349.818 45.742 349.776 45.5261 349.864 45.2399C349.864 44.8513 349.503 44.3331 349.503 44.3331V43.2967C349.503 42.7785 349.503 42.6489 349.383 42.5194C349.339 42.5194 349.311 42.5365 349.294 42.5583C349.284 42.5446 349.273 42.5314 349.26 42.5182L349.257 42.5182C349.233 42.2306 349.128 42.1307 349.022 42.1307C348.999 42.1307 348.98 42.1355 348.965 42.1434C348.943 42.1339 348.921 42.1296 348.899 42.1296C348.889 42.1296 348.88 42.1304 348.872 42.132C348.842 42.0668 348.782 42.0012 348.661 42.0012C348.639 42.0012 348.62 42.0033 348.603 42.0073C348.584 42.0026 348.562 42 348.538 42C348.311 42 348.406 42.2315 348.417 42.2569L348.416 42.2576C348.273 42.1053 348.259 42.3688 348.244 42.6322C348.235 42.8084 348.225 42.9846 348.177 43.0364C348.057 43.166 348.177 43.6842 348.177 43.6842C348.177 44.3319 348.297 44.7206 348.659 45.2388C349.02 45.757 349.02 46.4048 349.02 46.4048C349.02 46.4048 348.659 46.5343 348.418 46.6639C348.177 46.7934 348.297 47.1821 348.297 47.1821C348.418 47.7003 348.418 48.7367 348.418 48.9958C348.418 49.0664 348.471 49.0697 348.549 49.037C348.612 49.1383 348.978 48.8503 349.16 48.6971C349.518 50.319 349.983 51.0686 349.983 51.0686C349.862 51.1982 349.983 51.4573 349.983 51.4573C349.742 51.3277 349.622 51.0686 349.501 50.68C349.381 50.2913 349.14 50.4208 349.14 50.4208C348.538 51.1982 348.659 51.9755 348.659 51.9755C348.659 52.105 348.418 52.2346 348.418 52.2346H347.936C347.696 52.2346 347.816 52.8823 347.816 52.8823L347.696 53.0119C347.575 53.0119 347.455 53.0767 347.334 53.1414C347.214 53.2062 347.094 53.271 346.973 53.271C346.843 53.201 346.854 53.3201 346.872 53.5261C346.887 53.7014 346.908 53.9396 346.853 54.1778C346.776 54.5078 346.895 54.5752 347.022 54.6474C347.095 54.6887 347.17 54.7315 347.214 54.8256C347.267 54.9392 347.343 55.0528 347.411 55.1555C347.499 55.287 347.575 55.4006 347.575 55.4734C347.696 55.6029 347.575 55.9916 347.575 55.9916L347.334 56.1211V56.3802C347.334 56.3802 347.094 56.3802 347.094 56.5098C347.094 56.566 347.139 56.5734 347.21 56.585C347.295 56.5988 347.416 56.6185 347.54 56.7338L347.452 56.781V57.0401C347.452 57.0401 347.212 57.0401 347.212 57.1697C347.19 57.1697 347.18 57.1697 347.18 57.1705C347.18 57.1711 347.186 57.1723 347.198 57.1745L347.213 57.1772C346.251 57.3778 346.251 58.5082 346.251 59.8781V59.8781C346.251 60.6823 346.019 61.0372 345.757 61.4386C345.597 61.6839 345.425 61.9465 345.288 62.3396C344.927 63.376 345.89 63.8942 345.89 63.8942C345.815 64.4604 345.833 64.8751 345.858 65.422V65.422V65.422C345.873 65.7511 345.89 66.1281 345.89 66.6148C345.89 67.0114 346.003 67.3716 346.159 67.6805C346.394 68.297 346.839 68.7542 347.067 68.9599C346.899 70.0018 347.17 71.2955 347.48 71.8964C347.548 72.0711 347.62 72.2158 347.692 72.3192C347.838 72.4765 347.962 72.6816 348.064 72.891C348.22 73.2754 348.297 73.6106 348.297 73.6106L348.35 73.6381C348.393 73.7815 348.414 73.8738 348.414 73.8738L348.531 73.9355L347.578 74.128L346.615 75.1644L344.328 77.6259H342.402L341.198 78.4032L339.874 78.9214L337.948 80.0873L337.346 80.8646L336.383 81.2533V82.6784L335.902 83.4557L335.42 85.6581C335.42 85.6581 333.855 86.3058 334.096 87.7309C334.337 89.0264 334.216 90.1924 333.735 92.0061C333.14 93.798 333.72 94.5783 334.199 95.2215L334.216 95.2449C334.698 95.8926 334.577 96.929 334.577 96.929C332.106 99.2566 331.837 103.291 331.735 104.814C331.718 105.071 331.706 105.256 331.688 105.35C331.652 105.545 331.627 105.916 331.596 106.368C331.524 107.417 331.423 108.901 331.087 109.625C330.605 110.661 332.29 112.475 332.29 112.475L331.448 114.807L331.809 116.103L331.448 119.082L384.172 118.823L383.57 105.868L383.209 103.407L382.727 101.593L381.644 100.945L381.283 99.6496L379.959 98.095V96.6699L379.598 95.504L377.912 93.5607V92.2652V91.6174V90.7106L377.431 90.0628L376.588 89.5446L375.627 88.625L375.739 88.3836C375.684 88.3303 375.628 88.2794 375.571 88.2307L375.623 88.1203C375.267 87.8228 374.847 87.6229 374.43 87.4245C373.576 87.0183 372.735 86.6184 372.493 85.3998ZM368.941 86.4593L368.517 85.9221C368.517 85.9221 367.554 85.1448 367.313 84.497C367.313 84.497 366.725 84.919 365.991 85.0014L365.995 85.0103L367.319 85.5285L368.941 86.4593ZM348.656 57.4288C348.869 57.7725 349.365 58.0149 349.476 58.0663C349.433 58.2119 349.381 58.3235 349.381 58.3235C349.05 58.1011 348.833 57.8788 348.647 57.6879L348.647 57.6878C348.564 57.6033 348.488 57.525 348.41 57.4555C348.574 57.3404 348.656 57.4288 348.656 57.4288ZM359.615 58.1951C359.615 58.4077 359.615 58.6202 359.482 58.6897L359.492 58.7121C359.492 58.7121 359.613 58.8417 359.733 58.7121C359.758 58.6857 359.792 58.6594 359.829 58.6308C359.976 58.5191 360.165 58.374 359.974 58.0649C359.946 58.0554 359.615 57.9468 359.615 58.1951ZM353.009 51.972C353.131 51.9876 353.235 52.0147 353.313 52.0404L353.293 52.0373C353.195 52.0217 353.099 52.0066 353.009 51.972ZM359.494 59.8793C359.64 60.2722 359.565 60.0931 359.483 59.8914C359.371 60.0205 359.252 60.1757 359.252 60.2668V60.6554L360.094 60.5259C360.094 60.5259 359.974 59.8781 359.853 59.7486C359.733 59.619 359.613 59.7486 359.613 59.7486C359.58 59.7841 359.537 59.8295 359.494 59.8792L359.494 59.8793ZM354.196 60.785C354.075 60.785 353.955 60.785 353.835 60.0077C353.714 59.2304 353.112 57.9348 352.872 57.5462C352.751 57.2871 352.511 56.3802 352.511 55.6029C352.511 55.6029 352.992 56.2507 353.233 56.5098C353.363 56.6495 353.458 56.9401 353.555 57.239C353.638 57.4943 353.724 57.7558 353.835 57.9348V58.7121C353.835 58.7691 353.829 58.8448 353.822 58.9297L353.822 58.9297C353.799 59.231 353.767 59.6475 353.955 59.7486C353.955 59.7486 353.835 60.2668 354.075 60.3963C354.437 60.3963 354.316 60.785 354.196 60.785ZM360.576 62.8578C360.455 62.5987 360.094 62.0805 359.733 62.0805C359.453 62.0805 359.318 61.6912 359.215 61.3955C359.185 61.3097 359.158 61.2319 359.131 61.1736L360.094 61.0441L360.912 63.0571C360.901 63.0498 360.885 63.0457 360.865 63.0406C360.805 63.0255 360.709 63.001 360.576 62.8578ZM361.057 69.2058C361.057 69.2058 360.816 68.9467 361.057 68.8172C361.211 68.7342 361.217 68.7044 361.233 68.6256C361.242 68.5814 361.255 68.5217 361.298 68.4285C361.298 68.3853 361.325 68.4141 361.369 68.4621C361.458 68.5581 361.619 68.7308 361.779 68.5581C361.9 68.299 361.659 67.133 360.816 67.0034C360.816 67.0034 361.779 66.2261 361.659 65.1897L363.344 70.3718C363.344 70.4224 363.106 70.2753 362.771 70.0696C362.25 69.7486 361.497 69.2848 361.057 69.2058Z" fill="url(#paint7_linear_4266_24394)"/>
<path fill-rule="evenodd" clip-rule="evenodd" d="M696.5 118.718L734 119H771.5L767.374 86.564L772 81.0519H766.878V76.7844H760.104V74.8284C761.206 72.3983 764.268 67.2536 767.704 66.1156V64.8709C766.107 65.5229 761.757 66.8624 757.13 67.0047V65.7574H757.132V65.0462L757.793 64.3349H756.141L756.802 65.0462V65.4044H754.817C754.707 64.0034 754.891 61.6729 755.808 59.2499V63.9734H755.479V64.329H758.453V63.9734H758.121V59.0042H757.473L757.132 58.6377V57.9264H756.802V58.6377L756.461 59.0042H755.903C756.826 56.686 758.43 54.3092 761.096 52.6019V51.535H760.27C759.499 52.839 755.71 55.3402 746.722 54.9134L745.896 48.8678C746.446 48.6307 747.68 47.8365 748.209 46.5562L747.878 46.2006C747.383 46.9711 746.127 48.5122 745.07 48.5122H734.991C734.606 48.1566 734.132 47.2675 735.322 46.5562V45.845H734.826C734.716 45.6079 734.661 45.0626 735.322 44.7781L734 43L732.678 44.7781C733.339 45.0626 733.284 45.6079 733.174 45.845H732.678V46.5562C733.868 47.2675 733.394 48.1566 733.009 48.5122H722.93C721.873 48.5122 720.617 46.9711 720.122 46.2006L719.791 46.5562C720.32 47.8365 721.554 48.6307 722.104 48.8678L721.278 54.9134C712.29 55.3402 708.501 52.839 707.73 51.535H706.904V52.6019C709.57 54.3092 711.174 56.686 712.097 59.0042H711.539L711.198 58.6377V57.9264H710.868V58.6377L710.527 59.0042H709.879V63.9734H709.547V64.329H712.521V63.9734H712.192V59.2499C713.109 61.6729 713.293 64.0034 713.183 65.4044H711.198V65.0462L711.859 64.3349H710.207L710.868 65.0462V65.7574H710.87V67.0047C706.243 66.8624 701.893 65.5229 700.296 64.8709V66.1156C703.732 67.2536 706.794 72.3983 707.896 74.8284V76.7844H701.122V81.0519H696L700.626 86.564L696.5 118.718ZM734 59.009H733.669H732.348H730.695V62.7842H734H737.305V59.009L735.652 59.0132V59.009H734.331V59.0165L734 59.0174V59.009ZM714.508 59.009H714.5V62.7842H720.783V59.009H719.134H717.812H717.478H716.156H715.83H714.508ZM724.091 59.009H722.77V59.017L722.5 59.0174V62.7842H729.044V59.009L727.388 59.0111V59.009H726.066V59.0128L725.74 59.0132V59.009H724.418V59.0149L724.091 59.0153V59.009ZM703.102 76.7829L702.276 76.0717V71.2708L701.945 70.0261H702.276L702.606 71.0929H702.937L703.102 70.7373V69.3148H703.763V70.7373L703.928 71.0929H704.258L704.589 70.0261H704.919L704.589 71.2708V76.0717L703.928 76.7829H703.102ZM753.492 59.009H753.5V62.7842H747.217V59.009H748.874H750.195H750.522H751.844H752.17H753.492ZM743.909 59.009H745.23V59.0174H745.5V62.7842H739V62.5652H738.956V59.009H740.277V59.0174H742.26V59.009H743.582V59.0174H743.909V59.009ZM764.894 76.7829L765.72 76.0717V71.2708L766.051 70.0261H765.72L765.39 71.0929H765.059L764.894 70.7373V69.3148H764.233V70.7373L764.068 71.0929H763.738L763.407 70.0261H763.077L763.407 71.2708V76.0717L764.068 76.7829H764.894Z" fill="url(#paint8_linear_4266_24394)"/>
<path opacity="0.6" d="M185 109.323V119H543V79.2151L516.964 93.1936V113.624H513.459V97.4946L497.436 90.5054L481.414 97.4946V113.624H474.905V101.796H459.884V113.624H453.876V99.1075L432.846 113.624H424.835V93.1936H387.783V101.796H375.266V88.8925H353.235V112.011H346.726V103.409H341.719V92.1183L312.178 94.8065V109.323H303.666V89.9677H297.157V83.5161H264.11V116.849H257.601V74.3763H252.094V69H222.552V98.0323H215.543V105.022H210.536V100.183H192.51V109.323H185Z" fill="#217BF4"/>
<path opacity="0.2" d="M771.992 110.429V119H514V107.75H538.085V113.643H541.328V97.5714H556.15H570.971V113.643H576.993V101.857H590.888V113.643H596.446V99.1786L615.9 113.643H623.311V93.2857H657.586V101.857H669.166V89H689.546V112.036H695.567V103.464H700.199V92.2143L727.527 94.8929V109.357H735.401V101.857H741.422V95.4286H771.992V110.429Z" fill="#217BF4"/>
<path opacity="0.4" d="M490.008 109.286V119H764V106.25H738.421V112.929H734.978V94.7143H719.237H703.496V112.929H697.101V99.5714H682.344V112.929H676.441V101.393H647.91V89.8571H611.509V99.5714H599.211V85H577.567V111.107H571.173V101.393H566.254V88.6429L537.231 91.6786V108.071H528.869V99.5714H522.474V92.2857H490.008V109.286Z" fill="#217BF4"/>
<rect x="77.4688" y="91.9766" width="14.325" height="6.4574" fill="url(#paint9_linear_4266_24394)"/>
<rect x="23.2344" y="108.125" width="15.3482" height="10.7623" fill="url(#paint10_linear_4266_24394)"/>
<rect x="40.6289" y="108.125" width="15.3482" height="10.7623" fill="url(#paint11_linear_4266_24394)"/>
<rect x="58.0273" y="108.125" width="15.3482" height="10.7623" fill="url(#paint12_linear_4266_24394)"/>
<rect x="75.4219" y="108.125" width="15.3482" height="10.7623" fill="url(#paint13_linear_4266_24394)"/>
<rect x="92.8164" y="108.125" width="15.3482" height="10.7623" fill="url(#paint14_linear_4266_24394)"/>
<rect x="110.211" y="108.125" width="15.3482" height="10.7623" fill="url(#paint15_linear_4266_24394)"/>
<rect x="127.602" y="108.125" width="15.3482" height="10.7623" fill="url(#paint16_linear_4266_24394)"/>
<rect x="145" y="108.125" width="15.3482" height="10.7623" fill="url(#paint17_linear_4266_24394)"/>
<rect x="162.398" y="108.125" width="15.3482" height="10.7623" fill="url(#paint18_linear_4266_24394)"/>
<rect x="19.1406" y="108.125" width="2.04643" height="10.7623" fill="url(#paint19_linear_4266_24394)"/>
<rect x="179.793" y="108.125" width="2.04643" height="10.7623" fill="url(#paint20_linear_4266_24394)"/>
<rect x="94.8633" y="91.9766" width="12.2786" height="6.4574" fill="url(#paint21_linear_4266_24394)"/>
<rect x="110.211" y="91.9766" width="14.325" height="6.4574" fill="url(#paint22_linear_4266_24394)"/>
<rect x="127.602" y="91.9766" width="4.09285" height="6.4574" fill="url(#paint23_linear_4266_24394)"/>
<rect x="70.3047" y="91.9766" width="4.09285" height="6.4574" fill="url(#paint24_linear_4266_24394)"/>
<path fill-rule="evenodd" clip-rule="evenodd" d="M99.4665 64H96.9052V67.2287C95.541 67.2287 92.4031 66.7982 90.766 65.0762C90.5954 66.3318 91.3799 68.9507 95.882 69.3812V77.4529H77.4642V84.4484C73.7124 84.6278 64.981 84.4484 60.0696 82.296C60.5812 84.4484 64.0601 88.7534 73.8829 88.7534H99.4665H100.998H101.001H102.533H128.116C137.939 88.7534 141.418 84.4484 141.93 82.296C137.018 84.4484 128.287 84.6278 124.535 84.4484V77.4529H106.117V69.3812C110.62 68.9507 111.404 66.3318 111.233 65.0762C109.596 66.7982 106.458 67.2287 105.094 67.2287V64H102.533H101.001H100.998H99.4665ZM99.4665 69.3812H98.4401V77.4529H99.4665H102.533H103.559V69.3812H102.533H99.4665ZM133.745 102.206H103.556H98.4431H68.2547V93.0583H36.5344V101.13H13C13.6822 102.744 17.0929 105.973 25.2788 105.973H98.4431H103.556H176.721C184.906 105.973 188.317 102.744 188.999 101.13H165.465V93.0583H133.745V102.206Z" fill="url(#paint25_linear_4266_24394)"/>
<defs>
<linearGradient id="paint0_linear_4266_24394" x1="204" y1="0" x2="204" y2="119" gradientUnits="userSpaceOnUse">
<stop stop-color="#217BF4" stop-opacity="0.8"/>
<stop offset="1" stop-color="#217BF4" stop-opacity="0.1"/>
</linearGradient>
<linearGradient id="paint1_linear_4266_24394" x1="570" y1="33" x2="570" y2="119" gradientUnits="userSpaceOnUse">
<stop stop-color="#217BF4"/>
<stop offset="1" stop-color="#217BF4" stop-opacity="0.3"/>
</linearGradient>
<linearGradient id="paint2_linear_4266_24394" x1="570" y1="33" x2="570" y2="119" gradientUnits="userSpaceOnUse">
<stop stop-color="#217BF4"/>
<stop offset="1" stop-color="#217BF4" stop-opacity="0.3"/>
</linearGradient>
<linearGradient id="paint3_linear_4266_24394" x1="570" y1="33" x2="570" y2="119" gradientUnits="userSpaceOnUse">
<stop stop-color="#217BF4"/>
<stop offset="1" stop-color="#217BF4" stop-opacity="0.3"/>
</linearGradient>
<linearGradient id="paint4_linear_4266_24394" x1="417" y1="0" x2="417" y2="119" gradientUnits="userSpaceOnUse">
<stop stop-color="#217BF4"/>
<stop offset="1" stop-color="#217BF4" stop-opacity="0.3"/>
</linearGradient>
<linearGradient id="paint5_linear_4266_24394" x1="417" y1="0" x2="417" y2="119" gradientUnits="userSpaceOnUse">
<stop stop-color="#217BF4"/>
<stop offset="1" stop-color="#217BF4" stop-opacity="0.3"/>
</linearGradient>
<linearGradient id="paint6_linear_4266_24394" x1="417" y1="0" x2="417" y2="119" gradientUnits="userSpaceOnUse">
<stop stop-color="#217BF4"/>
<stop offset="1" stop-color="#217BF4" stop-opacity="0.3"/>
</linearGradient>
<linearGradient id="paint7_linear_4266_24394" x1="357.586" y1="42" x2="357.586" y2="119.082" gradientUnits="userSpaceOnUse">
<stop stop-color="#217BF4"/>
<stop offset="1" stop-color="#217BF4" stop-opacity="0.3"/>
</linearGradient>
<linearGradient id="paint8_linear_4266_24394" x1="734" y1="43" x2="734" y2="119" gradientUnits="userSpaceOnUse">
<stop stop-color="#217BF4"/>
<stop offset="1" stop-color="#217BF4" stop-opacity="0.3"/>
</linearGradient>
<linearGradient id="paint9_linear_4266_24394" x1="84.6312" y1="91.9766" x2="84.6312" y2="98.434" gradientUnits="userSpaceOnUse">
<stop stop-color="#217BF4"/>
<stop offset="1" stop-color="#217BF4" stop-opacity="0.3"/>
</linearGradient>
<linearGradient id="paint10_linear_4266_24394" x1="30.9085" y1="108.125" x2="30.9085" y2="118.887" gradientUnits="userSpaceOnUse">
<stop stop-color="#217BF4"/>
<stop offset="1" stop-color="#217BF4" stop-opacity="0.3"/>
</linearGradient>
<linearGradient id="paint11_linear_4266_24394" x1="48.303" y1="108.125" x2="48.303" y2="118.887" gradientUnits="userSpaceOnUse">
<stop stop-color="#217BF4"/>
<stop offset="1" stop-color="#217BF4" stop-opacity="0.3"/>
</linearGradient>
<linearGradient id="paint12_linear_4266_24394" x1="65.7014" y1="108.125" x2="65.7014" y2="118.887" gradientUnits="userSpaceOnUse">
<stop stop-color="#217BF4"/>
<stop offset="1" stop-color="#217BF4" stop-opacity="0.3"/>
</linearGradient>
<linearGradient id="paint13_linear_4266_24394" x1="83.096" y1="108.125" x2="83.096" y2="118.887" gradientUnits="userSpaceOnUse">
<stop stop-color="#217BF4"/>
<stop offset="1" stop-color="#217BF4" stop-opacity="0.3"/>
</linearGradient>
<linearGradient id="paint14_linear_4266_24394" x1="100.491" y1="108.125" x2="100.491" y2="118.887" gradientUnits="userSpaceOnUse">
<stop stop-color="#217BF4"/>
<stop offset="1" stop-color="#217BF4" stop-opacity="0.3"/>
</linearGradient>
<linearGradient id="paint15_linear_4266_24394" x1="117.885" y1="108.125" x2="117.885" y2="118.887" gradientUnits="userSpaceOnUse">
<stop stop-color="#217BF4"/>
<stop offset="1" stop-color="#217BF4" stop-opacity="0.3"/>
</linearGradient>
<linearGradient id="paint16_linear_4266_24394" x1="135.276" y1="108.125" x2="135.276" y2="118.887" gradientUnits="userSpaceOnUse">
<stop stop-color="#217BF4"/>
<stop offset="1" stop-color="#217BF4" stop-opacity="0.3"/>
</linearGradient>
<linearGradient id="paint17_linear_4266_24394" x1="152.674" y1="108.125" x2="152.674" y2="118.887" gradientUnits="userSpaceOnUse">
<stop stop-color="#217BF4"/>
<stop offset="1" stop-color="#217BF4" stop-opacity="0.3"/>
</linearGradient>
<linearGradient id="paint18_linear_4266_24394" x1="170.073" y1="108.125" x2="170.073" y2="118.887" gradientUnits="userSpaceOnUse">
<stop stop-color="#217BF4"/>
<stop offset="1" stop-color="#217BF4" stop-opacity="0.3"/>
</linearGradient>
<linearGradient id="paint19_linear_4266_24394" x1="20.1638" y1="108.125" x2="20.1638" y2="118.887" gradientUnits="userSpaceOnUse">
<stop stop-color="#217BF4"/>
<stop offset="1" stop-color="#217BF4" stop-opacity="0.3"/>
</linearGradient>
<linearGradient id="paint20_linear_4266_24394" x1="180.816" y1="108.125" x2="180.816" y2="118.887" gradientUnits="userSpaceOnUse">
<stop stop-color="#217BF4"/>
<stop offset="1" stop-color="#217BF4" stop-opacity="0.3"/>
</linearGradient>
<linearGradient id="paint21_linear_4266_24394" x1="101.003" y1="91.9766" x2="101.003" y2="98.434" gradientUnits="userSpaceOnUse">
<stop stop-color="#217BF4"/>
<stop offset="1" stop-color="#217BF4" stop-opacity="0.3"/>
</linearGradient>
<linearGradient id="paint22_linear_4266_24394" x1="117.373" y1="91.9766" x2="117.373" y2="98.434" gradientUnits="userSpaceOnUse">
<stop stop-color="#217BF4"/>
<stop offset="1" stop-color="#217BF4" stop-opacity="0.3"/>
</linearGradient>
<linearGradient id="paint23_linear_4266_24394" x1="129.648" y1="91.9766" x2="129.648" y2="98.434" gradientUnits="userSpaceOnUse">
<stop stop-color="#217BF4"/>
<stop offset="1" stop-color="#217BF4" stop-opacity="0.3"/>
</linearGradient>
<linearGradient id="paint24_linear_4266_24394" x1="72.3511" y1="91.9766" x2="72.3511" y2="98.434" gradientUnits="userSpaceOnUse">
<stop stop-color="#217BF4"/>
<stop offset="1" stop-color="#217BF4" stop-opacity="0.3"/>
</linearGradient>
<linearGradient id="paint25_linear_4266_24394" x1="101" y1="64" x2="101" y2="105.973" gradientUnits="userSpaceOnUse">
<stop stop-color="#217BF4"/>
<stop offset="1" stop-color="#217BF4" stop-opacity="0.3"/>
</linearGradient>
</defs>
</svg>
