<svg width="20" height="20" viewBox="0 0 20 20" fill="none" xmlns="http://www.w3.org/2000/svg">
<path fill-rule="evenodd" clip-rule="evenodd" d="M11.0186 2.59368C11.1171 2.48109 11.2595 2.4165 11.4091 2.4165C11.7816 2.4165 12.0327 2.79736 11.886 3.13972L10.144 7.2044C10.0447 7.43612 10.0684 7.70224 10.2072 7.9127C10.346 8.12317 10.5812 8.24984 10.8333 8.24984H12.263C13.4893 8.24984 14.3262 8.25172 14.9359 8.3403C15.5266 8.42611 15.7468 8.57336 15.8749 8.74109C16.003 8.90883 16.0871 9.15999 16.0145 9.75246C15.9395 10.364 15.7212 11.1718 15.3985 12.355L15.0803 13.5216C14.8823 14.2478 14.7497 14.729 14.6063 15.0842C14.4703 15.4209 14.3537 15.5663 14.2312 15.6599C14.1086 15.7535 13.9377 15.8278 13.5771 15.8704C13.1966 15.9153 12.6975 15.9165 11.9448 15.9165H9C8.03599 15.9165 7.38843 15.9149 6.90539 15.85C6.44393 15.7879 6.24643 15.6807 6.11612 15.5504C5.9858 15.4201 5.87858 15.2226 5.81654 14.7611C5.75159 14.2781 5.75 13.6305 5.75 12.6665V9.83611C5.75 9.03785 5.7611 8.82802 5.82987 8.64498C5.89865 8.46194 6.02847 8.29672 6.55413 7.69597L11.0186 2.59368ZM13.2647 3.7306C13.8356 2.39843 12.8584 0.916504 11.4091 0.916504C10.8269 0.916504 10.2731 1.16781 9.88976 1.60593L5.42526 6.70821L5.35306 6.79064C4.93398 7.26873 4.6025 7.6469 4.42572 8.11739C4.24894 8.58788 4.24938 9.09077 4.24994 9.72654L4.25 9.83611V12.6665L4.25 12.7185C4.24997 13.617 4.24994 14.3662 4.32991 14.961C4.41432 15.5888 4.59999 16.1556 5.05546 16.611C5.51093 17.0665 6.07773 17.2522 6.70552 17.3366C7.30029 17.4166 8.04949 17.4165 8.94794 17.4165H8.94798L9 17.4165H11.9448L11.9883 17.4165H11.9883C12.6859 17.4165 13.2743 17.4165 13.753 17.36C14.2615 17.2999 14.7267 17.1689 15.1416 16.8519C15.5566 16.535 15.8054 16.1207 15.9972 15.6459C16.1777 15.1989 16.3325 14.6313 16.516 13.9582L16.516 13.9582L16.5274 13.9163L16.8456 12.7496L16.8613 12.692C17.1644 11.5809 17.4135 10.6675 17.5033 9.93498C17.597 9.1708 17.5392 8.44888 17.0669 7.8306C16.5947 7.21233 15.9134 6.96657 15.1515 6.85588C14.4212 6.74978 13.4744 6.7498 12.3227 6.74984L12.263 6.74984H11.9707L13.2647 3.7306ZM3.25 8.33317C3.25 7.91896 2.91421 7.58317 2.5 7.58317C2.08579 7.58317 1.75 7.91896 1.75 8.33317L1.75 16.6665C1.75 17.0807 2.08579 17.4165 2.5 17.4165C2.91421 17.4165 3.25 17.0807 3.25 16.6665L3.25 8.33317Z" fill="#475467"/>
</svg>
