<svg width="20" height="20" viewBox="0 0 20 20" fill="none" xmlns="http://www.w3.org/2000/svg">
<path fill-rule="evenodd" clip-rule="evenodd" d="M5.98969 7.20209L10.4542 2.09981C10.6951 1.82445 11.0432 1.6665 11.4091 1.6665C12.32 1.6665 12.9342 2.5979 12.5753 3.43516L10.8333 7.49984H12.263C14.668 7.49984 15.8706 7.49984 16.4709 8.28585C17.0713 9.07186 16.7549 10.232 16.1221 12.5523L15.8039 13.719C15.4173 15.1365 15.224 15.8453 14.6864 16.2559C14.1488 16.6665 13.4142 16.6665 11.9448 16.6665H9C7.11438 16.6665 6.17157 16.6665 5.58579 16.0807C5 15.4949 5 14.5521 5 12.6665V9.83611C5 9.09291 5 8.72131 5.12779 8.38119C5.25559 8.04107 5.50029 7.76141 5.98969 7.20209ZM3.25 8.33317C3.25 7.91896 2.91421 7.58317 2.5 7.58317C2.08579 7.58317 1.75 7.91896 1.75 8.33317V16.6665C1.75 17.0807 2.08579 17.4165 2.5 17.4165C2.91421 17.4165 3.25 17.0807 3.25 16.6665L3.25 8.33317Z" fill="#217BF4"/>
</svg>
