<svg width="16" height="16" viewBox="0 0 16 16" fill="none" xmlns="http://www.w3.org/2000/svg">
<path fill-rule="evenodd" clip-rule="evenodd" d="M4.26786 3.11035C4.2293 3.10661 4.18089 3.10596 4.00615 3.10596L3.99747 3.10598C3.99686 3.10598 3.99639 3.10598 3.99606 3.10599C3.99143 3.1063 3.97682 3.10752 3.93535 3.1124C3.82535 3.12536 3.61929 3.22551 3.41526 3.43759C3.21122 3.64968 3.11913 3.85945 3.11043 3.96988C3.1098 3.97799 3.10882 3.9892 3.10729 4.0021C3.18056 5.10779 3.59017 6.26692 4.0523 7.28643L4.62332 6.80377C5.19749 6.31844 5.34167 6.1806 5.41622 6.0221C5.44986 5.95058 5.47432 5.87508 5.48901 5.79741C5.52158 5.62531 5.48563 5.42911 5.30517 4.69929L5.12843 3.98454C5.08649 3.81491 5.07424 3.76807 5.06135 3.73153C4.94009 3.38784 4.63062 3.14557 4.26786 3.11035ZM4.56649 8.32486L5.34956 7.66295C5.37669 7.64002 5.4035 7.61741 5.42999 7.59506C5.88381 7.21229 6.24159 6.91052 6.43424 6.50091C6.50825 6.34355 6.56206 6.17746 6.5944 6.00659C6.67856 5.56183 6.56573 5.10758 6.42261 4.5314C6.41426 4.49777 6.4058 4.46373 6.39728 4.42925L6.22054 3.7145C6.21851 3.70629 6.21651 3.69819 6.21454 3.6902C6.18143 3.55617 6.15571 3.45204 6.12225 3.35722C5.85547 2.60109 5.17464 2.0681 4.37658 1.99062C4.2765 1.9809 4.16924 1.98093 4.03118 1.98096C4.02295 1.98096 4.01461 1.98096 4.00615 1.98096C3.94539 1.98096 3.90613 1.98307 3.80373 1.99513C3.33546 2.0503 2.90443 2.3459 2.60452 2.65764C2.35768 2.91422 2.12521 3.25913 2.03003 3.63524C2.00918 3.67281 1.99504 3.70354 1.99037 3.71955C1.98545 3.74145 1.97949 3.77622 1.97787 3.78896C1.97698 3.79715 1.97574 3.8111 1.97534 3.81684L1.97455 3.83177L1.97416 3.84737L1.97412 3.85543L1.9742 3.86372L1.97429 3.86804L1.97442 3.87279L1.97462 3.87838L1.97481 3.8836L1.97535 3.89762C2.03903 5.54236 2.74673 7.21477 3.35436 8.43745C4.28728 10.3147 5.72047 11.7643 7.57942 12.7086C7.71457 12.7773 7.83844 12.8421 7.95516 12.9032C8.37832 13.1246 8.70751 13.2969 9.14006 13.4248C9.6862 13.5863 10.4042 13.6838 11.7739 13.8219C12.9559 13.941 13.9787 13.009 13.9787 11.8247C13.9787 10.9041 13.3534 10.1011 12.4609 9.87553L11.5757 9.65179C11.5418 9.64323 11.5084 9.63473 11.4753 9.62634C10.9099 9.4828 10.4645 9.36972 10.0276 9.4463C9.83405 9.48022 9.64637 9.54161 9.47022 9.62862C9.0725 9.82507 8.78001 10.1795 8.40874 10.6295C8.38704 10.6558 8.36507 10.6824 8.34279 10.7093L7.69492 11.4928C6.36988 10.7332 5.31704 9.66753 4.56649 8.32486ZM8.71213 12.0281C8.99931 12.1763 9.19162 12.2669 9.45915 12.346C9.8865 12.4724 10.497 12.5624 11.8867 12.7025C12.4025 12.7545 12.8537 12.3468 12.8537 11.8247C12.8537 11.4192 12.5783 11.0656 12.1852 10.9662L11.3 10.7425C10.5838 10.5614 10.3908 10.5248 10.2218 10.5544C10.1338 10.5698 10.0485 10.5977 9.96844 10.6373C9.81459 10.7133 9.68057 10.8569 9.20978 11.4263L8.71213 12.0281ZM2.64071 3.39166C2.67898 3.40026 2.7161 3.4107 2.75131 3.42243C2.74274 3.41907 2.7339 3.41585 2.72481 3.4128C2.69845 3.40396 2.67035 3.39672 2.64071 3.39166Z" fill="#0A0A0A"/>
</svg>
