<svg width="40" height="40" viewBox="0 0 40 40" fill="none" xmlns="http://www.w3.org/2000/svg">
<circle cx="20" cy="20" r="20" fill="#F3F6FA"/>
<g clip-path="url(#clip0_3630_30)">
<path d="M14.2839 11.2122C12.5211 11.439 11.1899 12.9678 11.1899 14.7596C11.1899 15.7984 11.5922 16.7273 12.3309 17.4003C13.1941 18.1903 13.845 18.3805 15.6956 18.3805H16.9171V20.4942V22.6082L15.4762 22.6374C13.8524 22.6813 13.5306 22.7545 12.7844 23.2445C11.7603 23.9247 11.1899 24.9999 11.1899 26.2434C11.1899 27.2455 11.5337 28.0648 12.2359 28.7668C12.9381 29.4691 13.7572 29.8128 14.7593 29.8128C16.0026 29.8128 17.078 29.2422 17.7582 28.2183C18.2483 27.4722 18.3214 27.1505 18.3653 25.5266L18.3946 24.0856H20.5085H22.6224V25.3071C22.6224 27.1577 22.8126 27.8087 23.6025 28.6718C24.941 30.142 27.289 30.2078 28.7079 28.8107C29.4613 28.0792 29.7978 27.2894 29.8052 26.2653C29.8124 24.678 28.8763 23.3687 27.3329 22.8056C27.0549 22.7032 26.6601 22.6665 25.5336 22.6446L24.0854 22.6082V20.5016V18.3951L25.5336 18.3658C26.7259 18.3366 27.0477 18.3073 27.3914 18.1831C29.5418 17.4295 30.4634 14.8987 29.3076 12.9239C28.8979 12.2216 28.1666 11.6438 27.3181 11.3512C26.806 11.1757 25.8114 11.1538 25.2847 11.3073C24.1143 11.6511 23.2074 12.4996 22.8198 13.6115C22.6956 13.9552 22.6663 14.277 22.6371 15.4693L22.6078 16.9175H20.5011H18.3946L18.3581 15.4693C18.336 14.3428 18.2996 13.948 18.1971 13.67C17.5827 11.9875 16.0028 10.9927 14.2839 11.2122ZM15.7249 12.8653C16.193 13.092 16.5732 13.5163 16.7708 14.043C16.8951 14.3795 16.9171 14.6135 16.9171 15.6813V16.9247L15.5493 16.9027C14.2767 16.8808 14.1522 16.8662 13.845 16.7125C12.6602 16.091 12.2724 14.7085 12.982 13.6041C13.5598 12.7044 14.7228 12.3898 15.7249 12.8653ZM27.1207 12.8507C28.7665 13.5968 28.7665 15.93 27.1207 16.7127C26.6892 16.9101 26.6599 16.9175 25.3871 16.9175H24.0852V15.6156C24.0852 14.3428 24.0927 14.3135 24.2901 13.882C24.8167 12.7776 26.0016 12.3459 27.1207 12.8507ZM22.6224 20.5014V22.6226H20.5011H18.3799V20.5014V18.3803H20.5011H22.6222V20.5014H22.6224ZM16.9025 25.4534C16.8806 26.7773 16.8732 26.8431 16.683 27.2016C16.2954 27.9403 15.6078 28.3574 14.7593 28.3574C14.1302 28.3574 13.6913 28.1744 13.2598 27.7429C12.8283 27.3114 12.6453 26.8725 12.6453 26.2434C12.6453 25.2488 13.2452 24.4514 14.2106 24.1515C14.313 24.1223 14.9639 24.093 15.6587 24.093L16.9316 24.0858L16.9025 25.4534ZM26.9525 24.2319C28.5983 24.8464 28.8689 27.0407 27.4207 28.0061C26.3162 28.7376 24.9192 28.3572 24.2901 27.1577C24.1365 26.8505 24.1219 26.7262 24.0999 25.4534L24.0778 24.0856H25.3212C26.382 24.0856 26.6233 24.1075 26.9525 24.2319Z" fill="#0A093D"/>
</g>
<defs>
<clipPath id="clip0_3630_30">
<rect width="19" height="19" fill="white" transform="translate(11 11)"/>
</clipPath>
</defs>
</svg>
