<svg width="40" height="40" viewBox="0 0 40 40" fill="none" xmlns="http://www.w3.org/2000/svg">
<g clip-path="url(#clip0_1009_970)">
<mask id="mask0_1009_970" style="mask-type:luminance" maskUnits="userSpaceOnUse" x="0" y="0" width="40" height="40">
<path d="M40 0H0V40H40V0Z" fill="white"/>
</mask>
<g mask="url(#mask0_1009_970)">
<path d="M19.8215 32.4819C19.8178 32.563 19.7829 32.6395 19.7242 32.6955C19.6655 32.7515 19.5875 32.7827 19.5063 32.7826C19.3235 32.7826 19.1848 32.6502 19.1785 32.4819C18.2391 29.6304 18.0714 29.1929 16.1322 28.6066C9.74717 27.0885 5 21.3484 5 14.5C5 6.49159 11.4916 0 19.5 0C27.5084 0 34 6.49159 34 14.5C34 21.3484 29.2528 27.0885 22.8678 28.6066C20.9286 29.1929 20.7609 29.6304 19.8228 32.4819H19.8215Z" fill="#217BF4"/>
<path d="M19.5 40C18.1187 40 17 38.8812 17 37.5C17 36.1188 18.1187 35 19.5 35C20.8813 35 22 36.1188 22 37.5C22 38.8812 20.8813 40 19.5 40Z" fill="white"/>
<path fill-rule="evenodd" clip-rule="evenodd" d="M19.4662 38.9996C19.6659 39.0041 19.8645 38.9687 20.0504 38.8953C20.2362 38.822 20.4056 38.7123 20.5485 38.5727C20.6914 38.433 20.8049 38.2662 20.8825 38.0821C20.96 37.8979 21 37.7002 21 37.5003C21.0001 37.3006 20.9603 37.1028 20.8828 36.9186C20.8054 36.7345 20.6919 36.5676 20.549 36.4279C20.4062 36.2881 20.2369 36.1783 20.0511 36.1049C19.8653 36.0315 19.6666 35.996 19.4669 36.0004C19.075 36.009 18.702 36.1708 18.4278 36.451C18.1537 36.7313 18.0001 37.1077 18 37.4996C17.9999 37.8916 18.1532 38.2681 18.4273 38.5484C18.7013 38.8288 19.0742 38.9907 19.4662 38.9996Z" fill="#217BF4"/>
<path d="M19.5002 23.9564C24.5488 23.9564 28.6415 19.8637 28.6415 14.8151C28.6415 9.76653 24.5488 5.67383 19.5002 5.67383C14.4516 5.67383 10.3589 9.76653 10.3589 14.8151C10.3589 19.8637 14.4516 23.9564 19.5002 23.9564Z" fill="white"/>
<mask id="mask1_1009_970" style="mask-type:luminance" maskUnits="userSpaceOnUse" x="15" y="10" width="9" height="10">
<path d="M24 10H15V20H24V10Z" fill="white"/>
</mask>
<g mask="url(#mask1_1009_970)">
<path d="M22.5483 10.1001H16.4517C16.1007 10.1001 15.8145 10.4061 15.8145 10.7821V18.1241C15.8145 18.4181 15.9909 18.6711 16.2375 18.7671V19.2431C16.2375 19.6061 16.5111 19.9001 16.8513 19.9001C17.1897 19.9001 17.4651 19.6061 17.4651 19.2431V18.8081H21.5367V19.2431C21.5367 19.6061 21.8103 19.9001 22.1505 19.9001C22.4889 19.9001 22.7643 19.6061 22.7643 19.2431V18.7671C23.0109 18.6711 23.1873 18.4201 23.1873 18.1261V10.7821C23.1864 10.4081 22.8993 10.1001 22.5483 10.1001ZM16.3869 10.6231H22.6122V11.2291H16.3869V10.6231ZM16.3869 11.7171H22.6122V15.1351H16.3869V11.7171ZM17.0079 17.7871C16.6767 17.7871 16.4067 17.4991 16.4067 17.1441C16.4067 16.7891 16.6749 16.5011 17.0079 16.5011C17.3409 16.5011 17.6091 16.7891 17.6091 17.1441C17.6091 17.4991 17.3409 17.7871 17.0079 17.7871ZM22.0209 17.7871C21.6897 17.7871 21.4197 17.4991 21.4197 17.1441C21.4197 16.7891 21.6879 16.5011 22.0209 16.5011C22.3539 16.5011 22.6221 16.7891 22.6221 17.1441C22.6221 17.4991 22.3539 17.7871 22.0209 17.7871Z" fill="#217BF4"/>
</g>
</g>
</g>
<defs>
<clipPath id="clip0_1009_970">
<rect width="40" height="40" fill="white"/>
</clipPath>
</defs>
</svg>
