<svg width="24" height="24" viewBox="0 0 24 24" fill="none" xmlns="http://www.w3.org/2000/svg">
<path fill-rule="evenodd" clip-rule="evenodd" d="M4.5871 18.9028C6.28444 20.0369 8.27996 20.6422 10.3213 20.6422C11.6767 20.6422 13.0189 20.3753 14.2711 19.8566C15.2059 19.4694 16.0769 18.9476 16.8571 18.3093L22.2464 23.6985C22.3414 23.7946 22.4545 23.8708 22.5793 23.9226C22.704 23.9744 22.8378 24.0007 22.9729 24.0001C23.108 24.0007 23.2418 23.9744 23.3666 23.9226C23.4913 23.8708 23.6045 23.7946 23.6994 23.6985C23.8919 23.5058 24 23.2445 24 22.9721C24 22.6996 23.8919 22.4384 23.6994 22.2456L18.31 16.8563C18.9482 16.0762 19.4699 15.2054 19.857 14.2708C20.3757 13.0186 20.6426 11.6765 20.6426 10.3211C20.6426 8.2798 20.0373 6.28431 18.9032 4.58701C17.7691 2.88972 16.1571 1.56683 14.2711 0.785653C12.3851 0.00447189 10.3099 -0.19992 8.30773 0.198322C6.30559 0.596564 4.46651 1.57956 3.02305 3.02299C1.57959 4.46642 0.596576 6.30547 0.198326 8.30757C-0.199924 10.3097 0.00447198 12.3849 0.785668 14.2708C1.56686 16.1568 2.88977 17.7687 4.5871 18.9028ZM5.75222 3.4557C7.10468 2.55204 8.69474 2.06971 10.3213 2.06971C12.5025 2.06971 14.5943 2.93616 16.1367 4.47846C17.679 6.02076 18.5455 8.11257 18.5455 10.2937C18.5455 11.9203 18.0631 13.5103 17.1595 14.8627C16.2558 16.2151 14.9713 17.2692 13.4686 17.8917C11.9658 18.5141 10.3122 18.677 8.71687 18.3597C7.12154 18.0424 5.65613 17.2591 4.50596 16.1089C3.3558 14.9588 2.57252 13.4934 2.25519 11.8981C1.93786 10.3028 2.10072 8.64926 2.72319 7.14652C3.34566 5.64378 4.39977 4.35937 5.75222 3.4557Z" fill="white"/>
</svg>
