<svg width="40" height="40" viewBox="0 0 40 40" fill="none" xmlns="http://www.w3.org/2000/svg">
<circle cx="20" cy="20" r="20" fill="#F3F6FA"/>
<path d="M24.9655 11.6711C24.9043 11.6979 24.8007 11.7745 24.7433 11.8359C24.6207 11.9701 24.6859 11.6789 23.6973 16.2995C23.3219 18.0657 23.0039 19.5101 22.9923 19.5101C22.9807 19.5101 22.7931 18.6097 22.5747 17.5063C22.3563 16.4067 22.1533 15.4489 22.1187 15.3799C21.9655 15.0389 21.4751 14.9393 21.1991 15.1921C21.0765 15.3071 21.0113 15.4449 20.4635 16.7591L19.9883 17.9009H18.9119C17.8735 17.9009 17.8315 17.9047 17.6667 17.9853C17.2453 18.1999 17.2299 18.7861 17.6361 19.0313C17.7549 19.1041 17.8429 19.1079 19.0729 19.1195C19.9235 19.1271 20.4369 19.1157 20.5365 19.0889C20.7817 19.0237 20.8891 18.8781 21.1343 18.2881C21.2607 17.9893 21.3719 17.7593 21.3871 17.7747C21.3987 17.7939 21.6323 18.9241 21.9043 20.2957C22.2683 22.1195 22.4177 22.8129 22.4751 22.8971C22.6093 23.0925 22.7433 23.1653 22.9731 23.1653C23.2029 23.1653 23.3371 23.0925 23.4711 22.8971C23.5247 22.8129 23.7853 21.6711 24.3907 18.8473C24.8543 16.6825 25.2413 14.9355 25.2565 14.9623C25.2719 14.9853 25.4941 15.8281 25.7507 16.8281C26.0075 17.8281 26.2373 18.6979 26.2641 18.7629C26.3293 18.9161 26.5207 19.0733 26.7009 19.1269C26.9653 19.1997 27.5669 19.2151 28.4327 19.1691C29.1837 19.1269 29.3177 19.1117 29.4671 19.0389C29.9193 18.8205 29.9077 18.1807 29.4479 17.9623C29.3253 17.9049 29.2525 17.9009 28.7353 17.9355C28.1567 17.9777 27.2831 17.9929 27.2831 17.9623C27.2831 17.9507 26.9383 16.6021 26.5169 14.9623C26.0647 13.1999 25.7237 11.9431 25.6817 11.8895C25.5135 11.6597 25.1955 11.5639 24.9655 11.6711Z" fill="#9B91A1"/>
<path d="M13.529 12.4412C12.7282 12.717 12.027 13.1576 11.3796 13.8014C10.7244 14.445 10.395 15.0122 10.2456 15.7324C10.1844 16.035 10.1844 16.0696 10.2494 16.3722C10.4256 17.2152 10.851 18.1998 11.621 19.5484C13.3412 22.5676 14.7818 24.4986 16.7512 26.4258C17.8854 27.5368 18.2838 27.8664 18.7588 28.104C19.23 28.3378 19.4062 28.3798 19.8316 28.3722C21.1496 28.3492 22.6476 27.4796 23.4868 26.2534C23.8124 25.7822 23.9504 25.4756 23.9504 25.238C23.9504 25.0082 23.958 25.0196 23.3412 24.2802C22.5136 23.2956 21.7512 22.5676 21.0308 22.081C20.6554 21.8244 20.5136 21.8014 20.2186 21.9354C19.893 22.0848 19.368 22.4412 19.1152 22.6826C18.9198 22.8704 18.8814 22.8934 18.8432 22.8396C18.8164 22.809 18.4676 22.353 18.0654 21.8282C16.5328 19.8242 15.1804 17.9046 15.28 17.874C15.4562 17.8128 16.05 17.4104 16.2954 17.1768C16.6862 16.809 16.8012 16.6174 16.7782 16.376C16.7322 15.9584 16.077 14.4296 15.5942 13.6174C15.3336 13.1806 14.9084 12.5868 14.7552 12.4412C14.644 12.334 14.6134 12.3262 14.284 12.3148C13.9658 12.307 13.893 12.3186 13.529 12.4412ZM14.326 13.8932C14.6286 14.3492 15.0808 15.2228 15.3068 15.7858C15.4026 16.0272 15.483 16.238 15.483 16.261C15.483 16.3912 14.8624 16.7668 14.3948 16.9124C13.8432 17.0886 13.6936 17.2496 13.7282 17.625C13.7474 17.828 13.9122 18.1078 14.6324 19.1766C15.594 20.6058 18.3526 24.2724 18.5788 24.4218C18.8624 24.6096 19.234 24.51 19.4256 24.1958C19.4908 24.0962 19.5866 23.9468 19.644 23.8664C19.7552 23.7016 20.1612 23.353 20.3644 23.2456L20.4946 23.1728L20.7168 23.3452C20.8394 23.4372 21.1114 23.6786 21.326 23.8816C21.736 24.2762 22.5826 25.2264 22.6018 25.3184C22.6362 25.464 21.9122 26.215 21.441 26.5292C20.851 26.9162 20.2532 27.146 19.8126 27.1498C19.3682 27.1574 19.1 26.9812 18.0118 25.962C16.0348 24.119 14.4372 22.0424 12.8356 19.234C12.0578 17.87 11.6478 16.985 11.4754 16.303C11.4102 16.0386 11.4102 16.0194 11.4754 15.805C11.736 14.9582 12.5904 14.1422 13.7014 13.6786C13.8892 13.602 14.0578 13.533 14.0692 13.533C14.0808 13.5332 14.1956 13.694 14.326 13.8932Z" fill="#0A093D"/>
</svg>
