<svg width="20" height="20" viewBox="0 0 20 20" fill="none" xmlns="http://www.w3.org/2000/svg">
<g clip-path="url(#clip0_1916_8247)">
<path fill-rule="evenodd" clip-rule="evenodd" d="M5.12392 4.47375C5.50264 4.99696 5.4003 5.73923 4.89534 6.13164C4.58681 6.37139 4.28579 6.96058 4.28579 7.47373V7.96743C4.34148 8.17026 4.49322 8.54743 4.92509 9.06123C5.15723 9.25911 5.5011 9.58862 5.80685 10.0329C6.14524 10.5246 6.48128 11.223 6.49496 12.0775C6.49627 12.0977 6.49744 12.1201 6.49832 12.1446C6.50097 12.2185 6.50103 12.3124 6.49443 12.4237C6.48122 12.6467 6.44131 12.9395 6.34243 13.2811C6.14204 13.9732 5.71155 14.8231 4.84323 15.6755C4.38501 16.1253 3.66163 16.105 3.22752 15.6302C2.79342 15.1554 2.81297 14.4059 3.27119 13.9561C3.85055 13.3874 4.06769 12.8953 4.15303 12.6005C4.19701 12.4486 4.20948 12.3369 4.21294 12.2786C4.21413 12.2585 4.21425 12.2446 4.2142 12.2377C4.21113 12.2025 4.2096 12.167 4.2096 12.1316C4.2096 11.9056 4.12088 11.6625 3.94573 11.4079C3.7711 11.1542 3.5564 10.9574 3.4273 10.8522C3.37574 10.8103 3.32776 10.7638 3.2839 10.7133C2.47315 9.77988 2.14208 8.95864 2.02219 8.33755C2.00743 8.26108 2 8.18329 2 8.10531V7.47373C2 6.25006 2.6133 4.94452 3.52386 4.23691C4.02882 3.8445 4.74519 3.95054 5.12392 4.47375Z" fill="white"/>
<path fill-rule="evenodd" clip-rule="evenodd" d="M10.6044 4.47375C10.9831 4.99697 10.8808 5.73923 10.3758 6.13164C10.0673 6.37139 9.76626 6.96058 9.76626 7.47373V7.96743C9.82195 8.17026 9.97369 8.54743 10.4056 9.06123C10.6377 9.25911 10.9816 9.58862 11.2873 10.0329C11.6257 10.5246 11.9617 11.223 11.9754 12.0776C11.9767 12.0977 11.9779 12.1201 11.9788 12.1446C11.9814 12.2185 11.9815 12.3124 11.9749 12.4237C11.9617 12.6467 11.9218 12.9395 11.8229 13.2811C11.6225 13.9732 11.192 14.8231 10.3237 15.6755C9.86548 16.1253 9.1421 16.105 8.70799 15.6302C8.27389 15.1554 8.29344 14.4059 8.75166 13.9561C9.33102 13.3874 9.54816 12.8953 9.6335 12.6005C9.67748 12.4486 9.68995 12.3369 9.69341 12.2786C9.6946 12.2585 9.69472 12.2446 9.69467 12.2377C9.6916 12.2025 9.69007 12.167 9.69007 12.1316C9.69007 11.9056 9.60135 11.6625 9.4262 11.4079C9.25157 11.1542 9.03687 10.9574 8.90777 10.8522C8.85621 10.8103 8.80823 10.7638 8.76437 10.7133C7.95361 9.77988 7.62255 8.95864 7.50266 8.33755C7.4879 8.26108 7.48047 8.18329 7.48047 8.10531V7.47373C7.48047 6.25006 8.09377 4.94452 9.00433 4.23691C9.50929 3.8445 10.2257 3.95054 10.6044 4.47375Z" fill="white"/>
<path fill-rule="evenodd" clip-rule="evenodd" d="M16.0868 4.47375C16.4655 4.99697 16.3632 5.73923 15.8582 6.13164C15.5497 6.37139 15.2487 6.96058 15.2487 7.47373V7.96743C15.3044 8.17026 15.4561 8.54743 15.888 9.06123C16.1201 9.25911 16.464 9.58862 16.7697 10.0329C17.1081 10.5246 17.4442 11.223 17.4578 12.0776C17.4592 12.0977 17.4603 12.1201 17.4612 12.1446C17.4639 12.2185 17.4639 12.3124 17.4573 12.4237C17.4441 12.6467 17.4042 12.9395 17.3053 13.2811C17.1049 13.9732 16.6744 14.8231 15.8061 15.6755C15.3479 16.1253 14.6245 16.105 14.1904 15.6302C13.7563 15.1554 13.7759 14.4059 14.2341 13.9561C14.8134 13.3874 15.0306 12.8953 15.1159 12.6005C15.1599 12.4486 15.1724 12.3369 15.1758 12.2786C15.177 12.2585 15.1771 12.2446 15.1771 12.2377C15.174 12.2025 15.1725 12.167 15.1725 12.1316C15.1725 11.9056 15.0838 11.6625 14.9086 11.4079C14.734 11.1542 14.5193 10.9574 14.3902 10.8522C14.3386 10.8103 14.2907 10.7638 14.2468 10.7133C13.436 9.77988 13.105 8.95864 12.9851 8.33755C12.9703 8.26108 12.9629 8.18329 12.9629 8.10531V7.47373C12.9629 6.25006 13.5762 4.94452 14.4868 4.23691C14.9917 3.8445 15.7081 3.95054 16.0868 4.47375Z" fill="white"/>
</g>
<defs>
<clipPath id="clip0_1916_8247">
<rect width="20" height="20" fill="white"/>
</clipPath>
</defs>
</svg>
