<svg width="18" height="18" viewBox="0 0 18 18" fill="none" xmlns="http://www.w3.org/2000/svg">
<g clip-path="url(#clip0_1918_8261)">
<path fill-rule="evenodd" clip-rule="evenodd" d="M9.36706 1.07693C9.48171 1.12765 9.5845 1.20178 9.66882 1.29455L17.7661 8.29148C17.9181 8.45877 18.0016 8.67719 18 8.90327C18 9.14188 17.9052 9.37072 17.7365 9.53944C17.5677 9.70817 17.3389 9.80296 17.1003 9.80296H15.3009V16.1008C15.3009 16.3394 15.2061 16.5683 15.0374 16.737C14.8687 16.9057 14.6398 17.0005 14.4012 17.0005H3.6049C3.36628 17.0005 3.13744 16.9057 2.96872 16.737C2.79999 16.5683 2.7052 16.3394 2.7052 16.1008V9.80296H0.905819C0.73024 9.80415 0.558148 9.75395 0.410756 9.65853C0.263364 9.56311 0.147114 9.42664 0.0763356 9.26596C0.00555725 9.10527 -0.0166559 8.92739 0.0124342 8.75423C0.0415243 8.58107 0.120646 8.42021 0.240047 8.29148L8.33728 1.29455C8.42161 1.20178 8.52439 1.12765 8.63904 1.07693C8.75369 1.0262 8.87768 1 9.00305 1C9.12842 1 9.25241 1.0262 9.36706 1.07693ZM5.87244 8.37855C6.19901 8.12477 6.26519 7.64475 6.02027 7.30638C5.77534 6.96801 5.31206 6.89944 4.9855 7.15321C4.39663 7.61083 4 8.45513 4 9.2465V9.65494C4 9.70537 4.00481 9.75568 4.01435 9.80513C4.09188 10.2068 4.30599 10.7379 4.83031 11.3415C4.85868 11.3742 4.8897 11.4043 4.92305 11.4314C5.00654 11.4994 5.14539 11.6267 5.25832 11.7908C5.37159 11.9554 5.42897 12.1126 5.42897 12.2588C5.42897 12.2817 5.42996 12.3046 5.43194 12.3274C5.43198 12.3319 5.4319 12.3408 5.43113 12.3538C5.42889 12.3915 5.42083 12.4638 5.39239 12.562C5.3372 12.7527 5.19677 13.0709 4.82209 13.4387C4.52575 13.7296 4.51311 14.2143 4.79385 14.5214C5.07459 14.8284 5.54241 14.8415 5.83875 14.5506C6.40029 13.9994 6.6787 13.4497 6.80829 13.0022C6.87224 12.7813 6.89805 12.5919 6.90659 12.4477C6.91086 12.3757 6.91082 12.315 6.90911 12.2672C6.90854 12.2513 6.90778 12.2368 6.90693 12.2238C6.89808 11.6712 6.68077 11.2196 6.46192 10.9015C6.26419 10.6142 6.04181 10.4011 5.89168 10.2731C5.61239 9.94087 5.51426 9.69695 5.47824 9.56578V9.2465C5.47824 8.91463 5.67292 8.5336 5.87244 8.37855ZM9.56454 7.30638C9.80946 7.64475 9.74328 8.12477 9.41671 8.37855C9.21719 8.5336 9.02252 8.91463 9.02252 9.2465V9.56577C9.05853 9.69695 9.15666 9.94087 9.43595 10.2731C9.58608 10.4011 9.80846 10.6142 10.0062 10.9015C10.225 11.2196 10.4424 11.6712 10.4512 12.2238C10.4521 12.2368 10.4528 12.2513 10.4534 12.2672C10.4551 12.315 10.4551 12.3757 10.4509 12.4477C10.4423 12.5919 10.4165 12.7813 10.3526 13.0022C10.223 13.4497 9.94456 13.9994 9.38302 14.5506C9.08668 14.8415 8.61887 14.8284 8.33812 14.5214C8.05738 14.2143 8.07003 13.7296 8.36636 13.4387C8.74104 13.0709 8.88147 12.7527 8.93666 12.562C8.9651 12.4638 8.97317 12.3915 8.9754 12.3538C8.97617 12.3408 8.97625 12.3319 8.97622 12.3274C8.97423 12.3046 8.97324 12.2817 8.97324 12.2588C8.97324 12.1126 8.91586 11.9554 8.80259 11.7908C8.68966 11.6267 8.55081 11.4994 8.46732 11.4314C8.43398 11.4043 8.40295 11.3742 8.37458 11.3415C7.85026 10.7379 7.63616 10.2068 7.55862 9.80513C7.54908 9.75568 7.54427 9.70537 7.54427 9.65494V9.2465C7.54427 8.45513 7.9409 7.61083 8.52977 7.15321C8.85633 6.89944 9.31961 6.96801 9.56454 7.30638ZM12.9622 8.37855C13.2888 8.12477 13.355 7.64475 13.1101 7.30638C12.8651 6.96801 12.4019 6.89944 12.0753 7.15321C11.4864 7.61083 11.0898 8.45513 11.0898 9.2465V9.65494C11.0898 9.70537 11.0946 9.75568 11.1042 9.80513C11.1817 10.2068 11.3958 10.7379 11.9201 11.3415C11.9485 11.3742 11.9795 11.4043 12.0129 11.4314C12.0963 11.4994 12.2352 11.6267 12.3481 11.7908C12.4614 11.9554 12.5188 12.1126 12.5188 12.2588C12.5188 12.2817 12.5198 12.3046 12.5218 12.3274C12.5218 12.3319 12.5217 12.3408 12.5209 12.3538C12.5187 12.3915 12.5106 12.4638 12.4822 12.562C12.427 12.7527 12.2866 13.0709 11.9119 13.4387C11.6156 13.7296 11.6029 14.2143 11.8837 14.5214C12.1644 14.8284 12.6322 14.8415 12.9286 14.5506C13.4901 13.9994 13.7685 13.4497 13.8981 13.0022C13.962 12.7813 13.9879 12.5919 13.9964 12.4477C14.0007 12.3757 14.0006 12.315 13.9989 12.2672C13.9983 12.2513 13.9976 12.2368 13.9967 12.2238C13.9879 11.6712 13.7706 11.2196 13.5517 10.9015C13.354 10.6142 13.1316 10.4011 12.9815 10.2731C12.7022 9.94087 12.6041 9.69695 12.5681 9.56577V9.2465C12.5681 8.91463 12.7627 8.5336 12.9622 8.37855Z" fill="white"/>
</g>
<defs>
<clipPath id="clip0_1918_8261">
<rect width="18" height="18" fill="white"/>
</clipPath>
</defs>
</svg>
