<svg width="995" height="136" viewBox="0 0 995 136" fill="none" xmlns="http://www.w3.org/2000/svg">
<g clip-path="url(#clip0_4303_15382)">
<path fill-rule="evenodd" clip-rule="evenodd" d="M661.075 38.325L615.85 30V44.4H612.25V118.2H610V136.65H664V118.2H661.975V111H661.075V38.325ZM647.796 36.5234L616.977 30.8984V33.3734H619.227V34.4984H616.977L616.982 36.9734H647.807L647.796 36.5234ZM660.177 38.5469H616.977V40.7969H660.177V38.5469ZM627.653 61.0469L627.999 58.7969H616.977V61.0469H627.653ZM639.398 50.7031L628.898 52.9531H616.977V50.7031H639.398ZM628.622 54.75L628.276 57H616.977V54.75H628.622ZM624.884 79.0469H616.977V81.2969H624.538L624.884 79.0469ZM625.16 77.25H616.977V75H625.507L625.16 77.25ZM625.783 73.2031H616.977V70.9531H626.129L625.783 73.2031ZM626.407 69.1484H616.977V66.8984H626.753L626.407 69.1484ZM627.029 65.1016H616.977V62.8516H627.376L627.029 65.1016ZM624.26 83.1016H616.977V85.3516H623.914L624.26 83.1016ZM623.638 87.1484H616.977V89.3984H623.291L623.638 87.1484ZM623.014 91.2031H616.977V93.4531H622.668L623.014 91.2031ZM622.391 95.25H616.977V97.5H622.045L622.391 95.25ZM621.699 99.75H616.977V102H621.353L621.699 99.75ZM621.076 103.797H616.977V106.047H620.73L621.076 103.797ZM620.453 107.852H616.977V110.102H620.106L620.453 107.852ZM658.32 46.6484H616.977V48.8984H647.82L658.32 46.6484ZM660.177 42.6016H616.977V44.8516H660.177V42.6016Z" fill="url(#paint0_linear_4303_15382)"/>
<path d="M303 103.813C303 98.5658 307.253 94.3125 312.5 94.3125V94.3125C317.747 94.3125 322 98.5658 322 103.813V133.5H303V103.813Z" fill="#217BF4" fill-opacity="0.2"/>
<path d="M309 109C309 107.895 308.105 107 307 107V107C305.895 107 305 107.895 305 109V116.635H309V109Z" fill="#227CF4" fill-opacity="0.5"/>
<path fill-rule="evenodd" clip-rule="evenodd" d="M261 97.9586L312.5 82L363.376 97.9586V98.8619H360.967V102.477H361.398V104.885H362.172V106.09H361.398V108.8H361V135H360.968V136.503H263.41V133.492H264V109.401H263.579V106.691H262.805V105.487H263.579V103.38H263.41V98.8619H261V97.9586ZM357.957 108.8V133.492H349.527V109.097H349.956V106.387H350.73V105.182H349.956V103.677H357.526V104.885H356.752V106.09H357.526V108.8H357.957ZM346.516 109.097V133.492H338.081V109.097H338.515V106.387H339.289V105.182H338.515V103.677H346.085V105.182H345.311V106.387H346.085V109.097H346.516ZM335 109.097V133.492H333.867V124H328.447V133.492H326.64V108.8H327.069V106.09H327.844V104.885H327.069V103.677H334.643V105.182H333.869V106.387H334.643V109.097H335ZM326 133.492H326.038V108.8H326V133.492ZM309 133.492H310.785V124H314.785V133.492H316.785V124H320.785V133.492H323.629V108.8H323.198V106.09H322.424V104.885H323.198V103.677H322.426V98.8594H326.617C325.805 96.1485 321.975 90.5 312.5 90.5C303.358 90.5 299.173 95.7577 298.161 98.5625H301.952V103.38H301.778V105.487H302.553V106.691H301.778V109.401H301.348V133.492H305V124H309V133.492ZM298.939 133.492H299V109.401H298.939V133.492ZM290 133.492H290.998V124H296.418V133.492H298.337L298.337 109.401H297.907V106.691H297.133V105.487H297.907V103.38H290.337V105.784H291.111V106.988H290.337V109.698H290V133.492ZM286.895 109.698V133.492H278.465L278.465 109.698H278.896V106.988H279.67V105.784H278.896V103.38H286.466V105.784H285.691V106.988H286.466V109.698H286.895ZM275.454 109.698L275.454 133.492H267.023L267.023 109.401H267.45V106.691H268.225V105.487H267.45V103.38H275.024V105.784H274.25V106.988H275.024V109.698H275.454ZM293.819 109C292.655 109 291.711 109.944 291.711 111.108V118.635H295.926V111.108C295.926 109.944 294.983 109 293.819 109ZM333.266 111.108C333.266 109.944 332.322 109 331.158 109C329.994 109 329.05 109.944 329.05 111.108V118.635H333.266V111.108Z" fill="url(#paint1_linear_4303_15382)"/>
<path fill-rule="evenodd" clip-rule="evenodd" d="M428.5 42.5H421.5V131.5H418V34.5H413V13H411V34.5H396.5V42.5H386V136.5L472.5 137.5V42.5H469.5V38.5L445.5 34.5V31.5H444V33.5H442.5V32.5H441.5V30H440V33.5H428.5V42.5ZM444.5 125.5H449.5V133.5H444.5V125.5ZM449.5 118.5H444.5V123.5H449.5V118.5ZM444.5 114.5H449.5V116.5H444.5V114.5ZM449.5 98.5H444.5V100.5H449.5V98.5ZM444.5 82.5H449.5V84.5H444.5V82.5ZM449.5 66.5H444.5V68.5H449.5V66.5ZM444.5 106.5H449.5V108.5H444.5V106.5ZM449.5 90.5H444.5V92.5H449.5V90.5ZM444.5 74.5H449.5V76.5H444.5V74.5ZM449.5 58.5H444.5V60.5H449.5V58.5ZM444.5 110.5H449.5V112.5H444.5V110.5ZM449.5 94.5H444.5V96.5H449.5V94.5ZM444.5 78.5H449.5V80.5H444.5V78.5ZM449.5 62.5H444.5V64.5H449.5V62.5ZM444.5 102.5H449.5V104.5H444.5V102.5ZM449.5 86.5H444.5V88.5H449.5V86.5ZM444.5 70.5H449.5V72.5H444.5V70.5ZM449.5 54.5H444.5V56.5H449.5V54.5ZM451.5 125.5H456.5V133.5H451.5V125.5ZM456.5 118.5H451.5V123.5H456.5V118.5ZM451.5 114.5H456.5V116.5H451.5V114.5ZM456.5 98.5H451.5V100.5H456.5V98.5ZM451.5 82.5H456.5V84.5H451.5V82.5ZM456.5 66.5H451.5V68.5H456.5V66.5ZM451.5 106.5H456.5V108.5H451.5V106.5ZM456.5 90.5H451.5V92.5H456.5V90.5ZM451.5 74.5H456.5V76.5H451.5V74.5ZM456.5 58.5H451.5V60.5H456.5V58.5ZM451.5 110.5H456.5V112.5H451.5V110.5ZM456.5 94.5H451.5V96.5H456.5V94.5ZM451.5 78.5H456.5V80.5H451.5V78.5ZM456.5 62.5H451.5V64.5H456.5V62.5ZM451.5 102.5H456.5V104.5H451.5V102.5ZM456.5 86.5H451.5V88.5H456.5V86.5ZM451.5 70.5H456.5V72.5H451.5V70.5ZM456.5 54.5H451.5V56.5H456.5V54.5ZM458.5 125.5H463.5V133.5H458.5V125.5ZM463.5 118.5H458.5V123.5H463.5V118.5ZM458.5 49.5H463.5V53.5H458.5V49.5ZM463.5 114.5H458.5V116.5H463.5V114.5ZM458.5 98.5H463.5V100.5H458.5V98.5ZM463.5 82.5H458.5V84.5H463.5V82.5ZM458.5 66.5H463.5V68.5H458.5V66.5ZM463.5 106.5H458.5V108.5H463.5V106.5ZM458.5 90.5H463.5V92.5H458.5V90.5ZM463.5 74.5H458.5V76.5H463.5V74.5ZM458.5 58.5H463.5V60.5H458.5V58.5ZM463.5 110.5H458.5V112.5H463.5V110.5ZM458.5 94.5H463.5V96.5H458.5V94.5ZM463.5 78.5H458.5V80.5H463.5V78.5ZM458.5 62.5H463.5V64.5H458.5V62.5ZM463.5 102.5H458.5V104.5H463.5V102.5ZM458.5 86.5H463.5V88.5H458.5V86.5ZM463.5 70.5H458.5V72.5H463.5V70.5ZM458.5 54.5H463.5V56.5H458.5V54.5ZM470.5 125.5H465.5V133.5H470.5V125.5ZM465.5 118.5H470.5V123.5H465.5V118.5ZM470.5 49.5H465.5V53.5H470.5V49.5ZM465.5 114.5H470.5V116.5H465.5V114.5ZM470.5 98.5H465.5V100.5H470.5V98.5ZM465.5 82.5H470.5V84.5H465.5V82.5ZM470.5 66.5H465.5V68.5H470.5V66.5ZM465.5 106.5H470.5V108.5H465.5V106.5ZM470.5 90.5H465.5V92.5H470.5V90.5ZM465.5 74.5H470.5V76.5H465.5V74.5ZM470.5 58.5H465.5V60.5H470.5V58.5ZM465.5 110.5H470.5V112.5H465.5V110.5ZM470.5 94.5H465.5V96.5H470.5V94.5ZM465.5 78.5H470.5V80.5H465.5V78.5ZM470.5 62.5H465.5V64.5H470.5V62.5ZM465.5 102.5H470.5V104.5H465.5V102.5ZM470.5 86.5H465.5V88.5H470.5V86.5ZM465.5 70.5H470.5V72.5H465.5V70.5ZM470.5 54.5H465.5V56.5H470.5V54.5Z" fill="url(#paint2_linear_4303_15382)"/>
<path opacity="0.5" fill-rule="evenodd" clip-rule="evenodd" d="M380.714 122.962C404.515 122.962 423.81 103.667 423.81 79.8659C423.81 56.0645 404.515 36.7696 380.714 36.7696C356.912 36.7696 337.617 56.0645 337.617 79.8659C337.617 103.667 356.912 122.962 380.714 122.962ZM380.714 123.732C404.94 123.732 424.58 104.092 424.58 79.8659C424.58 55.6394 404.94 36 380.714 36C356.487 36 336.848 55.6394 336.848 79.8659C336.848 104.092 356.487 123.732 380.714 123.732Z" fill="#217BF4"/>
<path opacity="0.5" fill-rule="evenodd" clip-rule="evenodd" d="M388.793 37.2137L382.251 76.0774L381.492 75.9496L388.034 37.0859L388.793 37.2137ZM402.601 42.3405L383.361 76.5867L382.691 76.2098L401.93 41.9636L402.601 42.3405Z" fill="#217BF4"/>
<path opacity="0.5" fill-rule="evenodd" clip-rule="evenodd" d="M388.406 122.739L381.864 83.8758L381.105 84.0035L387.647 122.867L388.406 122.739ZM402.214 117.613L382.975 83.3664L382.304 83.7433L401.543 117.99L402.214 117.613Z" fill="#217BF4"/>
<path opacity="0.5" fill-rule="evenodd" clip-rule="evenodd" d="M413.881 51.9619L384.291 77.9922L383.782 77.4144L413.373 51.384L413.881 51.9619ZM421.362 64.6502L384.831 79.0879L384.548 78.3722L421.079 63.9345L421.362 64.6502Z" fill="#217BF4"/>
<path opacity="0.5" fill-rule="evenodd" clip-rule="evenodd" d="M413.494 107.999L383.904 81.9687L383.396 82.5466L412.986 108.577L413.494 107.999ZM420.975 95.3107L384.444 80.8731L384.161 81.5888L420.692 96.0264L420.975 95.3107Z" fill="#217BF4"/>
<path opacity="0.5" fill-rule="evenodd" clip-rule="evenodd" d="M424.199 80.2539L384.566 80.6387L384.559 79.8692L424.192 79.4844L424.199 80.2539Z" fill="#217BF4"/>
<path opacity="0.5" fill-rule="evenodd" clip-rule="evenodd" d="M372.434 36.8309L378.975 75.6945L379.734 75.5668L373.193 36.7031L372.434 36.8309ZM358.626 41.9577L377.865 76.2039L378.536 75.827L359.297 41.5808L358.626 41.9577Z" fill="#217BF4"/>
<path opacity="0.5" fill-rule="evenodd" clip-rule="evenodd" d="M372.821 122.357L379.362 83.493L380.121 83.6207L373.58 122.484L372.821 122.357ZM359.012 117.23L378.252 82.9836L378.923 83.3605L359.683 117.607L359.012 117.23Z" fill="#217BF4"/>
<path opacity="0.5" fill-rule="evenodd" clip-rule="evenodd" d="M347.346 51.5712L376.936 77.6016L377.444 77.0238L347.854 50.9934L347.346 51.5712ZM339.865 64.2596L376.396 78.6973L376.679 77.9815L340.148 63.5439L339.865 64.2596Z" fill="#217BF4"/>
<path opacity="0.5" fill-rule="evenodd" clip-rule="evenodd" d="M347.728 107.608L377.319 81.5781L377.827 82.1559L348.237 108.186L347.728 107.608ZM340.248 94.9201L376.779 80.4824L377.061 81.1981L340.53 95.6358L340.248 94.9201Z" fill="#217BF4"/>
<path opacity="0.5" fill-rule="evenodd" clip-rule="evenodd" d="M337.023 79.8633L376.657 80.2481L376.664 79.4785L337.031 79.0938L337.023 79.8633Z" fill="#217BF4"/>
<path opacity="0.5" fill-rule="evenodd" clip-rule="evenodd" d="M380.717 112.961C398.568 112.961 413.039 98.4898 413.039 80.6387C413.039 62.7876 398.568 48.3165 380.717 48.3165C362.866 48.3165 348.395 62.7876 348.395 80.6387C348.395 98.4898 362.866 112.961 380.717 112.961ZM380.717 113.731C398.993 113.731 413.809 98.9148 413.809 80.6387C413.809 62.3626 398.993 47.5469 380.717 47.5469C362.441 47.5469 347.625 62.3626 347.625 80.6387C347.625 98.9148 362.441 113.731 380.717 113.731Z" fill="#217BF4"/>
<path opacity="0.5" fill-rule="evenodd" clip-rule="evenodd" d="M380.716 96.795C389.641 96.795 396.877 89.5594 396.877 80.6338C396.877 71.7083 389.641 64.4727 380.716 64.4727C371.79 64.4727 364.555 71.7083 364.555 80.6338C364.555 89.5594 371.79 96.795 380.716 96.795ZM380.716 97.5645C390.066 97.5645 397.647 89.9844 397.647 80.6338C397.647 71.2833 390.066 63.7031 380.716 63.7031C371.365 63.7031 363.785 71.2833 363.785 80.6338C363.785 89.9844 371.365 97.5645 380.716 97.5645Z" fill="#217BF4"/>
<path fill-rule="evenodd" clip-rule="evenodd" d="M388.41 45.2349C390.961 45.2349 393.028 43.1676 393.028 40.6175C393.028 38.0673 390.961 36 388.41 36C385.86 36 383.793 38.0673 383.793 40.6175C383.793 43.1676 385.86 45.2349 388.41 45.2349ZM387.25 37.847C386.995 37.847 386.788 38.0537 386.788 38.3087V43.8497C386.788 44.1047 386.995 44.3114 387.25 44.3114H389.558C389.814 44.3114 390.02 44.1047 390.02 43.8497V38.3087C390.02 38.0537 389.814 37.847 389.558 37.847H387.25ZM386.557 38.0779V40.8483C386.557 40.9758 386.454 41.0792 386.326 41.0792H384.479C384.352 41.0792 384.248 40.9761 384.255 40.8488C384.314 39.7744 384.787 38.0188 386.326 37.8587C386.453 37.8456 386.557 37.9504 386.557 38.0779ZM390.251 40.8483V38.0779C390.251 37.9504 390.356 37.8456 390.483 37.8587C392.021 38.0188 392.495 39.7744 392.553 40.8488C392.56 40.9761 392.457 41.0792 392.329 41.0792H390.482C390.355 41.0792 390.251 40.9758 390.251 40.8483Z" fill="#217BF4"/>
<path fill-rule="evenodd" clip-rule="evenodd" d="M402.262 126.04C404.812 126.04 406.879 123.972 406.879 121.422C406.879 118.872 404.812 116.805 402.262 116.805C399.712 116.805 397.645 118.872 397.645 121.422C397.645 123.972 399.712 126.04 402.262 126.04ZM401.101 118.652C400.846 118.652 400.64 118.858 400.64 119.113V124.654C400.64 124.909 400.846 125.116 401.101 125.116H403.41C403.665 125.116 403.872 124.909 403.872 124.654V119.113C403.872 118.858 403.665 118.652 403.41 118.652H401.101ZM400.409 118.883V121.653C400.409 121.781 400.305 121.884 400.178 121.884H398.331C398.203 121.884 398.1 121.781 398.107 121.653C398.165 120.579 398.639 118.823 400.178 118.663C400.304 118.65 400.409 118.755 400.409 118.883ZM404.103 121.653V118.883C404.103 118.755 404.207 118.65 404.334 118.663C405.873 118.823 406.346 120.579 406.405 121.653C406.412 121.781 406.308 121.884 406.181 121.884H404.334C404.206 121.884 404.103 121.781 404.103 121.653Z" fill="#217BF4"/>
<path fill-rule="evenodd" clip-rule="evenodd" d="M388.41 131.43C390.961 131.43 393.028 129.363 393.028 126.813C393.028 124.263 390.961 122.195 388.41 122.195C385.86 122.195 383.793 124.263 383.793 126.813C383.793 129.363 385.86 131.43 388.41 131.43ZM387.25 124.042C386.995 124.042 386.788 124.249 386.788 124.504V130.045C386.788 130.3 386.995 130.507 387.25 130.507H389.558C389.814 130.507 390.02 130.3 390.02 130.045V124.504C390.02 124.249 389.814 124.042 389.558 124.042H387.25ZM386.557 124.273V127.044C386.557 127.171 386.454 127.275 386.326 127.275H384.479C384.352 127.275 384.248 127.171 384.255 127.044C384.314 125.97 384.787 124.214 386.326 124.054C386.453 124.041 386.557 124.146 386.557 124.273ZM390.251 127.044V124.273C390.251 124.146 390.356 124.041 390.483 124.054C392.021 124.214 392.495 125.97 392.553 127.044C392.56 127.171 392.457 127.275 392.329 127.275H390.482C390.355 127.275 390.251 127.171 390.251 127.044Z" fill="#217BF4"/>
<path fill-rule="evenodd" clip-rule="evenodd" d="M402.262 50.6256C404.812 50.6256 406.879 48.5582 406.879 46.0081C406.879 43.4579 404.812 41.3906 402.262 41.3906C399.712 41.3906 397.645 43.4579 397.645 46.0081C397.645 48.5582 399.712 50.6256 402.262 50.6256ZM401.101 43.2376C400.846 43.2376 400.64 43.4443 400.64 43.6994V49.2403C400.64 49.4953 400.846 49.7021 401.101 49.7021H403.41C403.665 49.7021 403.872 49.4953 403.872 49.2403V43.6994C403.872 43.4443 403.665 43.2376 403.41 43.2376H401.101ZM400.409 43.4685V46.239C400.409 46.3665 400.305 46.4698 400.178 46.4698H398.331C398.203 46.4698 398.1 46.3667 398.107 46.2394C398.165 45.165 398.639 43.4094 400.178 43.2494C400.304 43.2362 400.409 43.341 400.409 43.4685ZM404.103 46.239V43.4685C404.103 43.341 404.207 43.2362 404.334 43.2494C405.873 43.4094 406.346 45.165 406.405 46.2394C406.412 46.3667 406.308 46.4698 406.181 46.4698H404.334C404.206 46.4698 404.103 46.3665 404.103 46.239Z" fill="#217BF4"/>
<path fill-rule="evenodd" clip-rule="evenodd" d="M413.805 116.04C416.355 116.04 418.422 113.972 418.422 111.422C418.422 108.872 416.355 106.805 413.805 106.805C411.255 106.805 409.188 108.872 409.188 111.422C409.188 113.972 411.255 116.04 413.805 116.04ZM412.644 108.652C412.389 108.652 412.183 108.858 412.183 109.113V114.654C412.183 114.909 412.389 115.116 412.644 115.116H414.953C415.208 115.116 415.415 114.909 415.415 114.654V109.113C415.415 108.858 415.208 108.652 414.953 108.652H412.644ZM411.952 108.883V111.653C411.952 111.781 411.848 111.884 411.721 111.884H409.874C409.746 111.884 409.643 111.781 409.65 111.653C409.708 110.579 410.182 108.823 411.721 108.663C411.847 108.65 411.952 108.755 411.952 108.883ZM415.646 111.653V108.883C415.646 108.755 415.75 108.65 415.877 108.663C417.416 108.823 417.889 110.579 417.948 111.653C417.955 111.781 417.851 111.884 417.724 111.884H415.877C415.749 111.884 415.646 111.781 415.646 111.653Z" fill="#217BF4"/>
<path fill-rule="evenodd" clip-rule="evenodd" d="M413.805 59.8599C416.355 59.8599 418.422 57.7926 418.422 55.2425C418.422 52.6923 416.355 50.625 413.805 50.625C411.255 50.625 409.188 52.6923 409.188 55.2425C409.188 57.7926 411.255 59.8599 413.805 59.8599ZM412.644 52.472C412.389 52.472 412.183 52.6787 412.183 52.9337V58.4747C412.183 58.7297 412.389 58.9364 412.644 58.9364H414.953C415.208 58.9364 415.415 58.7297 415.415 58.4747V52.9337C415.415 52.6787 415.208 52.472 414.953 52.472H412.644ZM411.952 52.7029V55.4733C411.952 55.6008 411.848 55.7042 411.721 55.7042H409.874C409.746 55.7042 409.643 55.6011 409.65 55.4738C409.708 54.3994 410.182 52.6438 411.721 52.4837C411.847 52.4706 411.952 52.5754 411.952 52.7029ZM415.646 55.4733V52.7029C415.646 52.5754 415.75 52.4706 415.877 52.4837C417.416 52.6438 417.889 54.3994 417.948 55.4738C417.955 55.6011 417.851 55.7042 417.724 55.7042H415.877C415.749 55.7042 415.646 55.6008 415.646 55.4733Z" fill="#217BF4"/>
<path fill-rule="evenodd" clip-rule="evenodd" d="M421.504 102.954C424.054 102.954 426.122 100.886 426.122 98.3362C426.122 95.7861 424.054 93.7188 421.504 93.7188C418.954 93.7188 416.887 95.7861 416.887 98.3362C416.887 100.886 418.954 102.954 421.504 102.954ZM420.344 95.5657C420.088 95.5657 419.882 95.7725 419.882 96.0275V101.568C419.882 101.823 420.088 102.03 420.344 102.03H422.652C422.907 102.03 423.114 101.823 423.114 101.568V96.0275C423.114 95.7725 422.907 95.5657 422.652 95.5657H420.344ZM419.651 95.7966V98.5671C419.651 98.6946 419.548 98.798 419.42 98.798H417.573C417.446 98.798 417.342 98.6948 417.349 98.5675C417.408 97.4932 417.881 95.7375 419.42 95.5775C419.547 95.5643 419.651 95.6691 419.651 95.7966ZM423.345 98.5671V95.7966C423.345 95.6691 423.449 95.5643 423.576 95.5775C425.115 95.7375 425.588 97.4932 425.647 98.5675C425.654 98.6948 425.55 98.798 425.423 98.798H423.576C423.448 98.798 423.345 98.6946 423.345 98.5671Z" fill="#217BF4"/>
<path fill-rule="evenodd" clip-rule="evenodd" d="M421.504 72.9381C424.054 72.9381 426.122 70.8707 426.122 68.3206C426.122 65.7704 424.054 63.7031 421.504 63.7031C418.954 63.7031 416.887 65.7704 416.887 68.3206C416.887 70.8707 418.954 72.9381 421.504 72.9381ZM420.344 65.5501C420.088 65.5501 419.882 65.7568 419.882 66.0119V71.5528C419.882 71.8078 420.088 72.0146 420.344 72.0146H422.652C422.907 72.0146 423.114 71.8078 423.114 71.5528V66.0119C423.114 65.7568 422.907 65.5501 422.652 65.5501H420.344ZM419.651 65.781V68.5515C419.651 68.679 419.548 68.7823 419.42 68.7823H417.573C417.446 68.7823 417.342 68.6792 417.349 68.5519C417.408 67.4775 417.881 65.7219 419.42 65.5619C419.547 65.5487 419.651 65.6535 419.651 65.781ZM423.345 68.5515V65.781C423.345 65.6535 423.449 65.5487 423.576 65.5619C425.115 65.7219 425.588 67.4775 425.647 68.5519C425.654 68.6792 425.55 68.7823 425.423 68.7823H423.576C423.448 68.7823 423.345 68.679 423.345 68.5515Z" fill="#217BF4"/>
<path fill-rule="evenodd" clip-rule="evenodd" d="M423.813 87.5631C426.363 87.5631 428.43 85.4957 428.43 82.9456C428.43 80.3954 426.363 78.3281 423.813 78.3281C421.263 78.3281 419.195 80.3954 419.195 82.9456C419.195 85.4957 421.263 87.5631 423.813 87.5631ZM422.652 80.1751C422.397 80.1751 422.19 80.3818 422.19 80.6369V86.1778C422.19 86.4328 422.397 86.6396 422.652 86.6396H424.961C425.216 86.6396 425.423 86.4328 425.423 86.1778V80.6369C425.423 80.3818 425.216 80.1751 424.961 80.1751H422.652ZM421.96 80.406V83.1765C421.96 83.304 421.856 83.4073 421.729 83.4073H419.882C419.754 83.4073 419.65 83.3042 419.657 83.1769C419.716 82.1025 420.19 80.3469 421.728 80.1869C421.855 80.1737 421.96 80.2785 421.96 80.406ZM425.654 83.1765V80.406C425.654 80.2785 425.758 80.1737 425.885 80.1869C427.424 80.3469 427.897 82.1025 427.956 83.1769C427.963 83.3042 427.859 83.4073 427.731 83.4073H425.884C425.757 83.4073 425.654 83.304 425.654 83.1765Z" fill="#217BF4"/>
<path fill-rule="evenodd" clip-rule="evenodd" d="M373.019 45.2349C370.469 45.2349 368.402 43.1676 368.402 40.6175C368.402 38.0673 370.469 36 373.019 36C375.569 36 377.637 38.0673 377.637 40.6175C377.637 43.1676 375.569 45.2349 373.019 45.2349ZM374.18 37.847C374.435 37.847 374.642 38.0537 374.642 38.3087V43.8497C374.642 44.1047 374.435 44.3114 374.18 44.3114H371.871C371.616 44.3114 371.409 44.1047 371.409 43.8497V38.3087C371.409 38.0537 371.616 37.847 371.871 37.847H374.18ZM374.872 38.0779V40.8483C374.872 40.9758 374.976 41.0792 375.103 41.0792H376.95C377.078 41.0792 377.182 40.9761 377.175 40.8488C377.116 39.7744 376.642 38.0188 375.104 37.8587C374.977 37.8456 374.872 37.9504 374.872 38.0779ZM371.178 40.8483V38.0779C371.178 37.9504 371.074 37.8456 370.947 37.8587C369.409 38.0188 368.935 39.7744 368.876 40.8488C368.869 40.9761 368.973 41.0792 369.101 41.0792H370.948C371.075 41.0792 371.178 40.9758 371.178 40.8483Z" fill="#217BF4"/>
<path fill-rule="evenodd" clip-rule="evenodd" d="M359.168 126.04C356.618 126.04 354.55 123.972 354.55 121.422C354.55 118.872 356.618 116.805 359.168 116.805C361.718 116.805 363.785 118.872 363.785 121.422C363.785 123.972 361.718 126.04 359.168 126.04ZM360.328 118.652C360.583 118.652 360.79 118.858 360.79 119.113V124.654C360.79 124.909 360.583 125.116 360.328 125.116H358.02C357.765 125.116 357.558 124.909 357.558 124.654V119.113C357.558 118.858 357.765 118.652 358.02 118.652H360.328ZM361.021 118.883V121.653C361.021 121.781 361.124 121.884 361.252 121.884H363.099C363.226 121.884 363.33 121.781 363.323 121.653C363.264 120.579 362.791 118.823 361.252 118.663C361.125 118.65 361.021 118.755 361.021 118.883ZM357.327 121.653V118.883C357.327 118.755 357.222 118.65 357.096 118.663C355.557 118.823 355.083 120.579 355.025 121.653C355.018 121.781 355.122 121.884 355.249 121.884H357.096C357.224 121.884 357.327 121.781 357.327 121.653Z" fill="#217BF4"/>
<path fill-rule="evenodd" clip-rule="evenodd" d="M373.019 131.43C370.469 131.43 368.402 129.363 368.402 126.813C368.402 124.263 370.469 122.195 373.019 122.195C375.569 122.195 377.637 124.263 377.637 126.813C377.637 129.363 375.569 131.43 373.019 131.43ZM374.18 124.042C374.435 124.042 374.642 124.249 374.642 124.504V130.045C374.642 130.3 374.435 130.507 374.18 130.507H371.871C371.616 130.507 371.409 130.3 371.409 130.045V124.504C371.409 124.249 371.616 124.042 371.871 124.042H374.18ZM374.872 124.273V127.044C374.872 127.171 374.976 127.275 375.103 127.275H376.95C377.078 127.275 377.182 127.171 377.175 127.044C377.116 125.97 376.642 124.214 375.104 124.054C374.977 124.041 374.872 124.146 374.872 124.273ZM371.178 127.044V124.273C371.178 124.146 371.074 124.041 370.947 124.054C369.409 124.214 368.935 125.97 368.876 127.044C368.869 127.171 368.973 127.275 369.101 127.275H370.948C371.075 127.275 371.178 127.171 371.178 127.044Z" fill="#217BF4"/>
<path fill-rule="evenodd" clip-rule="evenodd" d="M359.168 50.6256C356.618 50.6256 354.55 48.5582 354.55 46.0081C354.55 43.4579 356.618 41.3906 359.168 41.3906C361.718 41.3906 363.785 43.4579 363.785 46.0081C363.785 48.5582 361.718 50.6256 359.168 50.6256ZM360.328 43.2376C360.583 43.2376 360.79 43.4443 360.79 43.6994V49.2403C360.79 49.4953 360.583 49.7021 360.328 49.7021H358.02C357.765 49.7021 357.558 49.4953 357.558 49.2403V43.6994C357.558 43.4443 357.765 43.2376 358.02 43.2376H360.328ZM361.021 43.4685V46.239C361.021 46.3665 361.124 46.4698 361.252 46.4698H363.099C363.226 46.4698 363.33 46.3667 363.323 46.2394C363.264 45.165 362.791 43.4094 361.252 43.2494C361.125 43.2362 361.021 43.341 361.021 43.4685ZM357.327 46.239V43.4685C357.327 43.341 357.222 43.2362 357.096 43.2494C355.557 43.4094 355.083 45.165 355.025 46.2394C355.018 46.3667 355.122 46.4698 355.249 46.4698H357.096C357.224 46.4698 357.327 46.3665 357.327 46.239Z" fill="#217BF4"/>
<path fill-rule="evenodd" clip-rule="evenodd" d="M347.625 116.04C345.075 116.04 343.007 113.972 343.007 111.422C343.007 108.872 345.075 106.805 347.625 106.805C350.175 106.805 352.242 108.872 352.242 111.422C352.242 113.972 350.175 116.04 347.625 116.04ZM348.785 108.652C349.04 108.652 349.247 108.858 349.247 109.113V114.654C349.247 114.909 349.04 115.116 348.785 115.116H346.477C346.222 115.116 346.015 114.909 346.015 114.654V109.113C346.015 108.858 346.222 108.652 346.477 108.652H348.785ZM349.478 108.883V111.653C349.478 111.781 349.581 111.884 349.709 111.884H351.556C351.683 111.884 351.787 111.781 351.78 111.653C351.721 110.579 351.248 108.823 349.709 108.663C349.582 108.65 349.478 108.755 349.478 108.883ZM345.784 111.653V108.883C345.784 108.755 345.679 108.65 345.553 108.663C344.014 108.823 343.541 110.579 343.482 111.653C343.475 111.781 343.579 111.884 343.706 111.884H345.553C345.681 111.884 345.784 111.781 345.784 111.653Z" fill="#217BF4"/>
<path fill-rule="evenodd" clip-rule="evenodd" d="M347.625 59.8599C345.075 59.8599 343.007 57.7926 343.007 55.2425C343.007 52.6923 345.075 50.625 347.625 50.625C350.175 50.625 352.242 52.6923 352.242 55.2425C352.242 57.7926 350.175 59.8599 347.625 59.8599ZM348.785 52.472C349.04 52.472 349.247 52.6787 349.247 52.9337V58.4747C349.247 58.7297 349.04 58.9364 348.785 58.9364H346.477C346.222 58.9364 346.015 58.7297 346.015 58.4747V52.9337C346.015 52.6787 346.222 52.472 346.477 52.472H348.785ZM349.478 52.7029V55.4733C349.478 55.6008 349.581 55.7042 349.709 55.7042H351.556C351.683 55.7042 351.787 55.6011 351.78 55.4738C351.721 54.3994 351.248 52.6438 349.709 52.4837C349.582 52.4706 349.478 52.5754 349.478 52.7029ZM345.784 55.4733V52.7029C345.784 52.5754 345.679 52.4706 345.553 52.4837C344.014 52.6438 343.541 54.3994 343.482 55.4738C343.475 55.6011 343.579 55.7042 343.706 55.7042H345.553C345.681 55.7042 345.784 55.6008 345.784 55.4733Z" fill="#217BF4"/>
<path fill-rule="evenodd" clip-rule="evenodd" d="M339.926 102.954C337.375 102.954 335.308 100.886 335.308 98.3362C335.308 95.7861 337.375 93.7188 339.926 93.7188C342.476 93.7188 344.543 95.7861 344.543 98.3362C344.543 100.886 342.476 102.954 339.926 102.954ZM341.086 95.5657C341.341 95.5657 341.548 95.7725 341.548 96.0275V101.568C341.548 101.823 341.341 102.03 341.086 102.03H338.777C338.522 102.03 338.316 101.823 338.316 101.568V96.0275C338.316 95.7725 338.522 95.5657 338.777 95.5657H341.086ZM341.779 95.7966V98.5671C341.779 98.6946 341.882 98.798 342.01 98.798H343.857C343.984 98.798 344.088 98.6948 344.081 98.5675C344.022 97.4932 343.549 95.7375 342.01 95.5775C341.883 95.5643 341.779 95.6691 341.779 95.7966ZM338.085 98.5671V95.7966C338.085 95.6691 337.98 95.5643 337.853 95.5775C336.315 95.7375 335.841 97.4932 335.782 98.5675C335.776 98.6948 335.879 98.798 336.007 98.798H337.854C337.981 98.798 338.085 98.6946 338.085 98.5671Z" fill="#217BF4"/>
<path fill-rule="evenodd" clip-rule="evenodd" d="M339.926 72.9381C337.375 72.9381 335.308 70.8707 335.308 68.3206C335.308 65.7704 337.375 63.7031 339.926 63.7031C342.476 63.7031 344.543 65.7704 344.543 68.3206C344.543 70.8707 342.476 72.9381 339.926 72.9381ZM341.086 65.5501C341.341 65.5501 341.548 65.7568 341.548 66.0119V71.5528C341.548 71.8078 341.341 72.0146 341.086 72.0146H338.777C338.522 72.0146 338.316 71.8078 338.316 71.5528V66.0119C338.316 65.7568 338.522 65.5501 338.777 65.5501H341.086ZM341.779 65.781V68.5515C341.779 68.679 341.882 68.7823 342.01 68.7823H343.857C343.984 68.7823 344.088 68.6792 344.081 68.5519C344.022 67.4775 343.549 65.7219 342.01 65.5619C341.883 65.5487 341.779 65.6535 341.779 65.781ZM338.085 68.5515V65.781C338.085 65.6535 337.98 65.5487 337.853 65.5619C336.315 65.7219 335.841 67.4775 335.782 68.5519C335.776 68.6792 335.879 68.7823 336.007 68.7823H337.854C337.981 68.7823 338.085 68.679 338.085 68.5515Z" fill="#217BF4"/>
<path fill-rule="evenodd" clip-rule="evenodd" d="M337.617 87.5631C335.067 87.5631 332.999 85.4957 332.999 82.9456C332.999 80.3954 335.067 78.3281 337.617 78.3281C340.167 78.3281 342.234 80.3954 342.234 82.9456C342.234 85.4957 340.167 87.5631 337.617 87.5631ZM338.778 80.1751C339.033 80.1751 339.239 80.3818 339.239 80.6369V86.1778C339.239 86.4328 339.033 86.6396 338.778 86.6396H336.469C336.214 86.6396 336.007 86.4328 336.007 86.1778V80.6369C336.007 80.3818 336.214 80.1751 336.469 80.1751H338.778ZM339.47 80.406V83.1765C339.47 83.304 339.573 83.4073 339.701 83.4073H341.548C341.675 83.4073 341.779 83.3042 341.772 83.1769C341.713 82.1025 341.24 80.3469 339.701 80.1869C339.575 80.1737 339.47 80.2785 339.47 80.406ZM335.776 83.1765V80.406C335.776 80.2785 335.672 80.1737 335.545 80.1869C334.006 80.3469 333.533 82.1025 333.474 83.1769C333.467 83.3042 333.571 83.4073 333.698 83.4073H335.545C335.673 83.4073 335.776 83.304 335.776 83.1765Z" fill="#217BF4"/>
<path fill-rule="evenodd" clip-rule="evenodd" d="M380.715 82.9458C382.415 82.9458 383.793 81.5676 383.793 79.8675C383.793 78.1674 382.415 76.7892 380.715 76.7892C379.015 76.7892 377.637 78.1674 377.637 79.8675C377.637 81.5676 379.015 82.9458 380.715 82.9458ZM380.715 84.4849C383.265 84.4849 385.333 82.4176 385.333 79.8675C385.333 77.3173 383.265 75.25 380.715 75.25C378.165 75.25 376.098 77.3173 376.098 79.8675C376.098 82.4176 378.165 84.4849 380.715 84.4849Z" fill="#217BF4"/>
<path fill-rule="evenodd" clip-rule="evenodd" d="M359.996 134.119L377.064 81.9884L379.258 82.7068L362.19 134.837L359.996 134.119Z" fill="url(#paint3_linear_4303_15382)"/>
<path fill-rule="evenodd" clip-rule="evenodd" d="M401.321 134.486L384.253 82.3556L382.059 83.074L399.127 135.205L401.321 134.486Z" fill="url(#paint4_linear_4303_15382)"/>
<path fill-rule="evenodd" clip-rule="evenodd" d="M197.5 137.5V43H196V41.5H201V37H200V35.5H209V29H208V28H207V27H222V28H221V29H220V35.5H229V37H228V41.5H233V43H231.5L232 125H234H235.5H237.5L238 43H236.5V41.5H241.5V37H240.5V35.5H249.5V29H248.5V28H247.5V27H262.5V28H261.5V29H260.5V35.5H269.5V37H268.5V41.5H273.5V43H272V137.5H235.5H234H197.5ZM213 29H211V123H213V29ZM216 29H218V123H216V29ZM256.5 29H258.5V123H256.5V29ZM253.5 29H251.5V123H253.5V29Z" fill="url(#paint5_linear_4303_15382)"/>
<path fill-rule="evenodd" clip-rule="evenodd" d="M514.359 101.169C513.999 99.2393 512.199 97.999 512.199 97.999C512.354 96.4853 511.957 95.6619 511.626 94.9714C511.444 94.5931 511.282 94.2547 511.239 93.8644C511.239 93.8185 511.238 93.7732 511.235 93.7287V93.4554C511.216 93.4009 511.195 93.346 511.171 93.2908C511.03 92.7022 510.693 92.2502 510.41 91.8711C510.318 91.7477 510.231 91.6318 510.159 91.5216C509.799 91.1081 508.719 90.0056 508.719 90.0056C508.359 87.1114 505.839 85.7332 505.839 85.7332L503.56 78.8424C503.56 78.8424 503.92 79.118 504.279 78.8424C504.558 78.6285 504.405 78.2489 504.21 77.7677C504.154 77.6287 504.094 77.4809 504.04 77.3263C503.8 76.7751 503.92 76.2238 503.92 76.2238H503.8C503.636 76.975 503.807 77.5342 503.932 77.9451C503.991 78.1374 504.04 78.2972 504.04 78.429C504.04 78.8424 503.44 78.429 503.44 78.429L502.24 74.57C502.48 74.4323 502.6 74.1566 502.6 74.1566L502.84 74.4323C503.44 76.086 504.52 75.6725 504.52 75.6725C504.639 76.2238 505.239 78.7046 505.72 79.2559C506.199 79.6693 506.439 80.2205 506.439 80.4961C506.439 80.7718 506.68 80.7718 506.68 80.7718C506.68 80.7718 506.799 80.3584 506.08 79.118C505.239 77.8777 504.76 75.5348 504.76 75.5348C505.36 74.9835 504.879 73.6054 504.879 73.6054V73.054C505.061 73.054 505.037 72.6612 505.014 72.2908C505.007 72.1706 505 72.0529 505 71.9515C505 71.5512 504.549 71.1509 504.521 71.1259H504.522C504.522 71.1108 504.521 71.0962 504.519 71.0819C504.507 70.8348 504.387 70.7112 504.16 70.7112C503.92 70.7112 503.92 70.2977 503.92 70.2977C503.92 70.0205 503.677 69.8477 503.359 69.6217C503.045 69.3986 502.658 69.1234 502.36 68.6439C501.76 67.6791 500.8 67.6791 500.8 67.6791C500.8 67.6791 500.56 67.4035 500.32 67.5414C499.96 67.6791 499.72 67.2657 499.72 67.2657C499.601 66.9901 499.48 67.1279 499.48 67.1279C499.465 67.093 499.454 67.0468 499.445 66.9928C499.499 66.9903 499.551 66.9888 499.601 66.9888C499.507 66.7738 499.56 66.1399 499.587 65.8058C499.595 65.7114 499.601 65.641 499.601 65.6107C499.601 65.4728 499.481 65.335 499.481 65.335H499.477C499.477 65.3331 499.477 65.3314 499.477 65.3297L499.471 65.3144C499.545 65.1891 499.601 65.0607 499.601 65.0607C499.72 65.1985 499.96 64.6472 499.96 64.3716C499.96 64.0959 499.84 64.0959 499.84 64.0959V63.9581C499.84 63.8203 499.901 63.7514 499.96 63.6824C500.013 63.6215 500.066 63.5605 500.078 63.4517C500.082 63.5128 500.082 63.55 500.082 63.55C500.082 63.5248 500.086 63.4812 500.091 63.4257C500.103 63.2879 500.123 63.0774 500.103 62.8987C500.12 62.4844 500.117 61.9811 499.96 61.8909C499.84 61.753 499.72 62.0286 499.72 62.0286C499.601 60.9261 498.52 61.2018 498.52 61.2018V60.9261C498.52 60.5127 498.281 60.6505 498.281 60.6505C498.281 60.6505 498.281 60.5127 498.16 60.3749C498.041 60.3749 498.041 60.7884 498.041 60.7884C497.8 60.7884 497.92 61.3396 497.92 61.3396C497.8 61.6153 497.681 61.6153 497.681 61.6153C496.361 61.2018 496.721 63.4068 496.84 63.5447C496.84 63.6824 496.96 63.5447 496.96 63.5447V64.0959V64.3716C497.081 64.6472 497.321 64.6472 497.321 64.6472C497.321 64.9228 497.56 65.0607 497.56 65.0607V65.4741C497.381 65.4741 497.403 65.7066 497.426 65.9393C497.433 66.0167 497.441 66.0943 497.441 66.1632C497.441 66.4388 497.321 66.4389 497.321 66.4389C496.902 66.3587 496.687 66.4647 496.532 66.5407C496.421 66.5953 496.341 66.6344 496.24 66.5766C496.209 66.5403 496.178 66.4848 496.139 66.4177C496.032 66.2303 495.874 65.9527 495.521 65.7497C495.494 65.7395 495.467 65.7308 495.441 65.7232C495.32 65.6294 495.197 65.5612 495.104 65.5095C495.082 65.4972 495.061 65.4859 495.043 65.4754C494.923 65.4754 494.803 65.3375 494.682 65.1997C494.443 64.7862 494.083 64.6485 494.083 64.6485C494.083 64.3478 493.893 64.3386 493.788 64.356C493.766 64.3509 493.744 64.3492 493.723 64.3495C493.721 64.2271 493.697 63.6536 493.483 63.4081C493.286 63.295 493.009 62.2537 492.848 61.6554C492.813 61.5246 492.785 61.4149 492.763 61.3408C492.67 61.0198 492.504 61.0311 492.435 61.0522C492.428 61.0497 492.421 61.0477 492.414 61.0462C492.636 60.6434 492.403 60.3761 492.403 60.3761C492.164 59.9626 492.043 59.4114 492.043 59.2736C492.043 59.1981 491.971 59.2053 491.906 59.2272C491.885 59.2047 491.842 59.2087 491.799 59.2213C491.796 59.1958 491.791 59.1673 491.785 59.1357C491.757 58.9807 491.715 58.7511 491.803 58.4466C491.803 58.0332 491.443 57.482 491.443 57.482V56.3794C491.443 55.8282 491.443 55.6903 491.323 55.5525C491.279 55.5525 491.252 55.5707 491.235 55.5939C491.225 55.5793 491.214 55.5653 491.201 55.5513H491.198C491.174 55.2453 491.069 55.139 490.964 55.139C490.941 55.139 490.922 55.1441 490.907 55.1525C490.885 55.1424 490.863 55.1379 490.841 55.1379C490.831 55.1379 490.822 55.1387 490.814 55.1404C490.784 55.0711 490.724 55.0013 490.604 55.0013C490.582 55.0013 490.563 55.0035 490.546 55.0078C490.527 55.0028 490.505 55 490.481 55C490.255 55 490.349 55.2463 490.36 55.2733L490.359 55.274C490.217 55.112 490.203 55.3923 490.188 55.6725C490.179 55.86 490.169 56.0474 490.121 56.1025C490.002 56.2404 490.121 56.7917 490.121 56.7917C490.121 57.4807 490.241 57.8942 490.602 58.4454C490.962 58.9967 490.961 59.6858 490.961 59.6858C490.961 59.6858 490.602 59.8236 490.361 59.9615C490.121 60.0992 490.241 60.5127 490.241 60.5127C490.361 61.064 490.361 62.1665 490.361 62.4421C490.361 62.5173 490.414 62.5208 490.492 62.486C490.555 62.5937 490.92 62.2874 491.101 62.1244C491.458 63.8498 491.921 64.6472 491.921 64.6472C491.801 64.7851 491.921 65.0607 491.921 65.0607C491.681 64.9228 491.562 64.6472 491.441 64.2338C491.321 63.8203 491.081 63.9581 491.081 63.9581C490.481 64.7851 490.602 65.612 490.602 65.612C490.602 65.7497 490.361 65.8876 490.361 65.8876H489.881C489.642 65.8876 489.761 66.5766 489.761 66.5766L489.642 66.7145C489.521 66.7145 489.402 66.7834 489.281 66.8522C489.161 66.9212 489.042 66.9901 488.921 66.9901C488.792 66.9156 488.803 67.0423 488.82 67.2615C488.835 67.448 488.856 67.7014 488.801 67.9548C488.725 68.3058 488.843 68.3775 488.97 68.4543C489.043 68.4983 489.117 68.5438 489.161 68.6439C489.214 68.7647 489.29 68.8856 489.358 68.9948C489.445 69.1347 489.521 69.2556 489.521 69.333C489.642 69.4708 489.521 69.8843 489.521 69.8843L489.281 70.0221V70.2977C489.281 70.2977 489.042 70.2977 489.042 70.4356C489.042 70.4953 489.087 70.5032 489.157 70.5156C489.242 70.5302 489.363 70.5512 489.486 70.6738L489.399 70.7241V70.9997C489.399 70.9997 489.159 70.9997 489.159 71.1376C489.137 71.1376 489.127 71.1376 489.127 71.1384C489.127 71.1391 489.133 71.1403 489.145 71.1427L489.16 71.1455C488.201 71.3589 488.201 72.5615 488.201 74.0188C488.201 74.8743 487.97 75.2518 487.709 75.6788C487.55 75.9398 487.378 76.2191 487.242 76.6373C486.882 77.7398 487.842 78.2911 487.842 78.2911C487.767 78.8934 487.785 79.3346 487.81 79.9164C487.825 80.2665 487.842 80.6675 487.842 81.1853C487.842 81.6072 487.954 81.9904 488.11 82.319C488.344 82.9748 488.788 83.4612 489.015 83.68C488.847 84.7884 489.117 86.1646 489.426 86.8039C489.494 86.9897 489.566 87.1436 489.638 87.2536C489.783 87.421 489.907 87.6391 490.009 87.8619C490.164 88.2708 490.241 88.6274 490.241 88.6274L490.294 88.6567C490.337 88.8092 490.357 88.9074 490.357 88.9074L490.474 88.9731L489.524 89.1778L488.564 90.2804L486.285 92.8989H484.365L483.165 93.7258L481.845 94.2771L479.925 95.5174L479.325 96.3442L478.365 96.7577V98.2738L477.886 99.1007L477.405 101.444C477.405 101.444 475.845 102.133 476.086 103.649C476.326 105.027 476.205 106.267 475.726 108.197C475.133 110.103 475.711 110.933 476.188 111.617L476.205 111.642C476.686 112.331 476.565 113.434 476.565 113.434C474.102 115.91 473.834 120.201 473.732 121.822C473.715 122.095 473.703 122.292 473.685 122.392C473.65 122.599 473.625 122.994 473.594 123.475C473.522 124.591 473.421 126.169 473.086 126.94C472.606 128.042 474.286 129.971 474.286 129.971L473.446 132.452L473.806 133.831L473.446 137L526 136.724L525.4 122.943L525.04 120.325L524.56 118.395L523.48 117.706L523.12 116.328L521.801 114.674V113.158L521.441 111.918L519.76 109.85V108.472V107.783V106.818L519.281 106.129L518.441 105.578L517.483 104.6L517.594 104.343C517.539 104.286 517.484 104.232 517.427 104.18L517.479 104.063C517.124 103.746 516.705 103.534 516.289 103.323C515.438 102.891 514.6 102.465 514.359 101.169ZM510.818 102.296L510.396 101.724C510.396 101.724 509.436 100.898 509.195 100.208C509.195 100.208 508.609 100.657 507.878 100.745L507.882 100.754L509.201 101.306L510.818 102.296ZM490.599 71.4132C490.811 71.7788 491.305 72.0367 491.416 72.0914C491.373 72.2463 491.321 72.365 491.321 72.365C490.991 72.1284 490.775 71.8919 490.59 71.6888C490.507 71.5989 490.431 71.5155 490.353 71.4416C490.517 71.3192 490.599 71.4132 490.599 71.4132ZM501.522 72.2284C501.522 72.4545 501.522 72.6806 501.39 72.7545L501.4 72.7784C501.4 72.7784 501.52 72.9162 501.64 72.7784C501.665 72.7503 501.699 72.7223 501.736 72.6919C501.882 72.5731 502.071 72.4187 501.88 72.0899C501.852 72.0798 501.522 71.9642 501.522 72.2284ZM494.938 65.6082C495.059 65.6248 495.163 65.6537 495.241 65.681L495.221 65.6777C495.123 65.6611 495.027 65.645 494.938 65.6082ZM501.402 74.02C501.547 74.438 501.472 74.2475 501.391 74.0329C501.279 74.1702 501.16 74.3353 501.16 74.4323V74.8457L502 74.7079C502 74.7079 501.88 74.0188 501.76 73.881C501.64 73.7431 501.52 73.881 501.52 73.881C501.487 73.9188 501.445 73.9672 501.402 74.02ZM496.121 74.9835C496 74.9835 495.881 74.9835 495.761 74.1566C495.64 73.3297 495.04 71.9515 494.801 71.5381C494.68 71.2624 494.441 70.2977 494.441 69.4708C494.441 69.4708 494.921 70.1599 495.161 70.4356C495.29 70.5842 495.385 70.8933 495.482 71.2113C495.565 71.4829 495.65 71.7611 495.761 71.9515V72.7784C495.761 72.839 495.755 72.9195 495.748 73.0098C495.725 73.3304 495.693 73.7734 495.881 73.881C495.881 73.881 495.761 74.4323 496 74.57C496.361 74.57 496.24 74.9835 496.121 74.9835ZM502.48 77.1886C502.36 76.9129 502 76.3617 501.64 76.3617C501.361 76.3617 501.226 75.9475 501.124 75.633C501.094 75.5417 501.067 75.4589 501.04 75.3969L502 75.2592L502.815 77.4006C502.804 77.3928 502.788 77.3885 502.768 77.383C502.708 77.367 502.613 77.3409 502.48 77.1886ZM502.96 83.9416C502.96 83.9416 502.719 83.666 502.96 83.5282C503.113 83.4399 503.119 83.4082 503.135 83.3244C503.144 83.2774 503.157 83.2138 503.2 83.1147C503.2 83.0687 503.227 83.0994 503.271 83.1504C503.359 83.2526 503.52 83.4363 503.679 83.2526C503.8 82.9769 503.56 81.7365 502.719 81.5987C502.719 81.5987 503.679 80.7718 503.56 79.6692L505.239 85.182C505.239 85.2358 505.002 85.0793 504.668 84.8605C504.149 84.519 503.398 84.0256 502.96 83.9416Z" fill="url(#paint6_linear_4303_15382)"/>
<path fill-rule="evenodd" clip-rule="evenodd" d="M914.533 136.523L949.527 136.792V124.714C949.527 122.262 951.516 120.273 953.968 120.273C956.421 120.273 958.409 122.262 958.409 124.714V136.831H994.467L990.07 101.479L995 95.4718H989.541V90.8208H982.321V88.689C983.496 86.0405 986.759 80.4334 990.421 79.1931V77.8366C988.719 78.5472 984.083 80.0071 979.152 80.1621V78.8027H979.154V78.0276L979.858 77.2524H978.098L978.802 78.0276V78.418H976.687C976.569 76.8911 976.765 74.3511 977.743 71.7104V76.8584H977.392V77.246H980.562V76.8584H980.208V71.4426H979.517L979.154 71.0431V70.2679H978.802V71.0431L978.439 71.4426H977.844C978.828 68.916 980.537 66.3256 983.379 64.4649V63.3021H982.498C981.677 64.7233 977.638 67.4493 968.059 66.9841L967.179 60.3952C967.765 60.1368 969.08 59.2712 969.644 57.8758L969.291 57.4883C968.763 58.328 967.425 60.0076 966.298 60.0076H955.556C955.146 59.6201 954.641 58.651 955.909 57.8758V57.1007H955.38C955.263 56.8423 955.205 56.248 955.909 55.9379L954.5 54L953.091 55.9379C953.795 56.248 953.737 56.8423 953.62 57.1007H953.091V57.8758C954.359 58.651 953.854 59.6201 953.444 60.0076H942.702C941.575 60.0076 940.237 58.328 939.709 57.4883L939.356 57.8758C939.92 59.2712 941.235 60.1368 941.821 60.3952L940.941 66.9841C931.362 67.4493 927.323 64.7233 926.502 63.3021H925.621V64.4649C928.463 66.3256 930.172 68.916 931.156 71.4426H930.561L930.198 71.0431V70.2679H929.846V71.0431L929.483 71.4426H928.792V76.8584H928.438V77.246H931.608V76.8584H931.257V71.7104C932.235 74.3511 932.431 76.8911 932.313 78.418H930.198V78.0276L930.902 77.2524H929.142L929.846 78.0276V78.8027H929.848V80.1621C924.917 80.0071 920.281 78.5472 918.579 77.8366V79.1931C922.241 80.4334 925.504 86.0405 926.679 88.689V90.8208H919.459V95.4718H914L918.93 101.479L914.533 136.523ZM954.5 71.4478H954.147H952.739H950.978V75.5623H954.5H958.022V71.4478L956.261 71.4524V71.4478H954.853V71.456L954.5 71.457V71.4478ZM933.726 71.4478H933.717V75.5623H940.413V71.4478H938.656H937.247H936.891H935.482H935.135H933.726ZM943.939 71.4478H942.531V71.4565L942.243 71.457V75.5623H949.218V71.4478L947.453 71.4501V71.4478H946.044V71.452L945.697 71.4524V71.4478H944.288V71.4543L943.939 71.4547V71.4478ZM921.569 90.8192L920.689 90.044V84.8117L920.336 83.4551H920.689L921.041 84.6178H921.393L921.569 84.2302V82.6799H922.274V84.2302L922.45 84.6178H922.801L923.154 83.4551H923.506L923.154 84.8117V90.044L922.45 90.8192H921.569ZM975.274 71.4478H975.283V75.5623H968.587V71.4478H970.353H971.76H972.109H973.518H973.865H975.274ZM965.061 71.4478H966.469V71.457H966.757V75.5623H959.829V75.3236H959.782V71.4478H961.19V71.457H963.303V71.4478H964.712V71.457H965.061V71.4478ZM987.426 90.8192L988.307 90.044V84.8117L988.66 83.4551H988.307L987.955 84.6178H987.602L987.426 84.2302V82.6799H986.722V84.2302L986.546 84.6178H986.194L985.842 83.4551H985.49L985.842 84.8117V90.044L986.546 90.8192H987.426ZM933.897 119.5H931.055V125.664H933.897V119.5ZM931.055 107.555H933.897V113.719H931.055V107.555ZM966.936 119.5H964.094V125.664H966.936V119.5ZM961.605 107.555H964.448V111.793H961.605V107.555ZM943.491 119.5H940.648V125.664H943.491V119.5ZM942.778 107.554H945.62V111.792H942.778V107.554ZM976.53 119.5H973.688V125.664H976.53V119.5ZM973.688 107.555H976.53V113.719H973.688V107.555ZM937.448 86.3672H928.922V90.9903H937.448V86.3672ZM950.238 86.3672H958.765V90.9903H950.238V86.3672ZM969.421 86.3672H960.895V90.9903H969.421V86.3672ZM939.578 86.3672H948.104V90.9903H939.578V86.3672ZM980.077 86.3672H971.551V90.9903H980.077V86.3672Z" fill="url(#paint7_linear_4303_15382)"/>
<path fill-rule="evenodd" clip-rule="evenodd" d="M594.581 17.6719V9C561.017 11.2516 511.517 41.3963 529.979 122.957L509 116.386V136.972H534.17L543.398 120.062L542.696 114.728H531.932C532.52 120.666 533.41 126.983 534.64 133.709L533.325 135.878C523.431 81.7734 534.017 51.6552 549.165 34.1258C564.32 16.5881 583.944 12.5582 591.735 11.7201L591.82 11.7109H594.479V13.8889L591.991 13.8798C588.693 14.2408 583.13 15.2112 576.688 17.6719H594.581ZM594.581 19.2985H572.807C568.944 21.0648 564.882 23.3783 560.882 26.4052L561.011 26.3516H594.581V19.2985ZM594.581 27.9782H558.889C556.404 30.0231 553.96 32.3579 551.621 35.0234H594.581V27.9782ZM594.581 36.6501H550.235C548.437 38.8193 546.687 41.1604 545.023 43.7031H594.581V36.6501ZM594.581 45.3298H543.988C542.628 47.5272 541.334 49.8698 540.126 52.375H594.581V45.3298ZM594.581 54.0016H539.365C538.355 56.225 537.413 58.5723 536.553 61.0547H594.581V54.0016ZM594.581 62.6813H536.008C535.282 64.9204 534.621 67.2663 534.036 69.7266H594.581V62.6813ZM594.581 71.3532H533.664C533.169 73.6087 532.735 75.9579 532.371 78.4062H562.04L594.581 73.6982V71.3532ZM558.492 78.9195L554.368 79.4907L532.146 79.9997C531.841 82.2741 531.595 84.6321 531.413 87.0781H539.056L538.365 81.8314L558.492 78.9195ZM539.27 88.7048H531.302C531.161 90.9802 531.076 93.3301 531.048 95.7578H540.198L539.27 88.7048ZM540.412 97.3845H531.039C531.038 99.6647 531.088 102.012 531.193 104.43H541.34L540.412 97.3845ZM541.554 106.056H531.271C531.391 108.343 531.559 110.69 531.778 113.102H542.482L541.554 106.056Z" fill="url(#paint8_linear_4303_15382)"/>
<path fill-rule="evenodd" clip-rule="evenodd" d="M557.816 100.086H608.801L609.158 103.219H556.521L556.047 104.303H609.282L610.095 111.423L610.02 110.812H553.275L552.801 111.897H610.149L610.891 118.398H549.943L549.469 119.483H611.015L611.757 125.992H546.63L546.156 127.077H611.881L612.996 136.846H541.875L557.816 100.086Z" fill="url(#paint9_linear_4303_15382)"/>
<path fill-rule="evenodd" clip-rule="evenodd" d="M540.566 82.7473L605.667 75.1562L606.503 82.7422H540.629V83.2463L540.566 82.7473ZM540.769 84.3688L545.169 119.618H547.8L551.922 110.392H544.072L543.871 108.766H552.649L555.797 101.72H542.987L542.785 100.094H556.523L557.006 99.0137H608.297L606.683 84.3688H540.769ZM541.683 91.4141H607.458L607.632 93.0407H541.89L541.683 91.4141Z" fill="url(#paint10_linear_4303_15382)"/>
<path fill-rule="evenodd" clip-rule="evenodd" d="M96 134.5H107.5L107.987 115.5L106 113.5H96V109H126H197.5V113.5H176.5L174 115L174.5 134.5H197.5V137H96V134.5ZM112 115.5L113.5 113.5H159.5L161.5 115.5L160.5 134.5H112.5L112 115.5Z" fill="url(#paint11_linear_4303_15382)"/>
<path fill-rule="evenodd" clip-rule="evenodd" d="M117 90V109H116V90H117Z" fill="url(#paint12_linear_4303_15382)"/>
<path fill-rule="evenodd" clip-rule="evenodd" d="M122 90C119.391 90 117.49 91.5626 116.89 92.3123L116.109 91.6877C116.843 90.7707 119.008 89 122 89V90Z" fill="url(#paint13_linear_4303_15382)"/>
<path fill-rule="evenodd" clip-rule="evenodd" d="M148 90V109H147V90H148Z" fill="url(#paint14_linear_4303_15382)"/>
<path fill-rule="evenodd" clip-rule="evenodd" d="M153 90C150.391 90 148.49 91.5626 147.89 92.3123L147.109 91.6877C147.843 90.7707 150.008 89 153 89V90Z" fill="url(#paint15_linear_4303_15382)"/>
<path fill-rule="evenodd" clip-rule="evenodd" d="M189 90V109H188V90H189Z" fill="url(#paint16_linear_4303_15382)"/>
<path fill-rule="evenodd" clip-rule="evenodd" d="M194 90C191.391 90 189.49 91.5626 188.89 92.3123L188.109 91.6877C188.843 90.7707 191.008 89 194 89V90Z" fill="url(#paint17_linear_4303_15382)"/>
<path fill-rule="evenodd" clip-rule="evenodd" d="M159.5 110L160 98H156.5V96H159.5L162 93H167V90H169V93H174L176.5 96H179.5V98H176L176.5 110H159.5ZM165 100H161V109H165V100ZM166 100H170V109H166V100ZM175 100H171V109H175V100Z" fill="url(#paint18_linear_4303_15382)"/>
<path fill-rule="evenodd" clip-rule="evenodd" d="M-5 134.5H6.5L6.98718 115.5L5 113.5H-5V109H25H96.5V113.5H75.5L73 115L73.5 134.5H96.5V137H-5V134.5ZM11 115.5L12.5 113.5H58.5L60.5 115.5L59.5 134.5H11.5L11 115.5Z" fill="url(#paint19_linear_4303_15382)"/>
<path fill-rule="evenodd" clip-rule="evenodd" d="M26 90V109H25V90H26Z" fill="url(#paint20_linear_4303_15382)"/>
<path fill-rule="evenodd" clip-rule="evenodd" d="M30.9998 90C28.3915 90 26.49 91.5626 25.8902 92.3123L25.1094 91.6877C25.8429 90.7707 28.0082 89 30.9998 89V90Z" fill="url(#paint21_linear_4303_15382)"/>
<path fill-rule="evenodd" clip-rule="evenodd" d="M47 90V109H46V90H47Z" fill="url(#paint22_linear_4303_15382)"/>
<path fill-rule="evenodd" clip-rule="evenodd" d="M51.9998 90C49.3915 90 47.49 91.5626 46.8902 92.3123L46.1094 91.6877C46.8429 90.7707 49.0082 89 51.9998 89V90Z" fill="url(#paint23_linear_4303_15382)"/>
<path fill-rule="evenodd" clip-rule="evenodd" d="M88 90V109H87V90H88Z" fill="url(#paint24_linear_4303_15382)"/>
<path fill-rule="evenodd" clip-rule="evenodd" d="M92.9998 90C90.3915 90 88.49 91.5626 87.8902 92.3123L87.1094 91.6877C87.8429 90.7707 90.0082 89 92.9998 89V90Z" fill="url(#paint25_linear_4303_15382)"/>
<path fill-rule="evenodd" clip-rule="evenodd" d="M58.5 110L59 98H55.5V96H58.5L61 93H66V90H68V93H73L75.5 96H78.5V98H75L75.5 110H58.5ZM64 100H60V109H64V100ZM65 100H69V109H65V100ZM74 100H70V109H74V100Z" fill="url(#paint26_linear_4303_15382)"/>
<path opacity="0.2" d="M561.781 129.645V137H252.999V135.5V134V132.914H256.259V120.656L271.163 115.344L286.066 120.656V132.914H292.121V123.925H306.093V132.914H311.682V121.882L331.243 132.914H338.694V117.387H373.159V123.925H384.802V114.118H405.294V131.688H411.349V125.151H416.006V116.57L443.484 118.613V129.645H451.402V114.935H457.457V110.032H488.195V135.366H494.25V103.086H499.373V99H526.851V121.065H533.371V126.376H538.029V122.699H554.795V129.645H561.781Z" fill="#217BF4"/>
<path opacity="0.2" d="M-80 129.065V137H253V104.376L228.782 115.839V132.591H225.522V119.366L210.618 113.634L195.715 119.366V132.591H189.66V122.892H175.688V132.591H170.099V120.688L150.538 132.591H143.087V115.839H108.622V122.892H96.979V112.312H76.487V131.269H70.432V124.215H65.775V114.957L38.297 117.161V129.065H30.379V113.194H24.324V107.903H-6.414V135.237H-12.4685V100.409H-17.5916V96H-45.0699V119.806H-51.5902V125.538H-56.2476V121.57H-73.014V129.065H-80Z" fill="#217BF4"/>
<path fill-rule="evenodd" clip-rule="evenodd" d="M132.5 136.972V133.164V129.758H130H127H123.5V126.777V122.053H120.187V31.8919H99.1104V125.945H95.4454V112.972H89.0312V57.1889H70.2455V112.972H65.2055V125.945H58.7914V112.972H54.2097V101.945H48.7114V70.8104H32.6757V108.432H28.5524V28L4.26915 31.8919V108.432H-0.770844V43.5674L-4.43668 37.7296H-21.8466V70.8104H-25.9707V78.5941H-30.5524V94.8101H-41.5481V66.9185H-61.7081V112.972H-78.2021V75.3509H-99.7362V112.972H-108.9V101.945H-112.107V90.2697H-125.394V101.945H-133.183V70.8104H-150.593V78.5941H-154.717V104.54H-160.673V75.3509H-179V136.972H132.5ZM26.5554 33.5469H6.4375V34.4703H26.5554V33.5469ZM101.777 34.4688H117.522V35.3922H101.777V34.4688ZM-20.6797 42.7812H-15.4315V43.7047H-20.6797V42.7812ZM-20.6797 72.3281H-15.4315V73.2515H-20.6797V72.3281ZM-15.4315 57.5547H-20.6797V58.4781H-15.4315V57.5547ZM-20.6797 88.0315H-15.4315V88.9549H-20.6797V88.0315ZM-15.4315 50.1717H-20.6797V51.0951H-15.4315V50.1717ZM-20.6797 80.6405H-15.4315V81.5639H-20.6797V80.6405ZM-15.4315 64.9375H-20.6797V65.8609H-15.4315V64.9375ZM-20.6797 95.4141H-15.4315V96.3375H-20.6797V95.4141ZM-15.4315 102.805H-20.6797V103.728H-15.4315V102.805ZM-20.6797 46.4766H-15.4315V47.4H-20.6797V46.4766ZM-15.4315 76.9453H-20.6797V77.8687H-15.4315V76.9453ZM-20.6797 61.25H-15.4315V62.1734H-20.6797V61.25ZM-15.4315 91.7266H-20.6797V92.65H-15.4315V91.7266ZM-20.6797 53.8672H-15.4315V54.7906H-20.6797V53.8672ZM-15.4315 84.3359H-20.6797V85.2594H-15.4315V84.3359ZM-20.6797 68.6406H-15.4315V69.564H-20.6797V68.6406ZM-15.4315 99.1094H-20.6797V100.033H-15.4315V99.1094ZM-20.6797 106.5H-15.4315V107.423H-20.6797V106.5ZM-21.5559 72.3281H-25.0547V74.175H-21.5559V72.3281ZM-25.0547 76.0236H-21.5559V77.8704H-25.0547V76.0236ZM-21.5535 79.7188H-29.4258V81.5656H-21.5535V79.7188ZM-29.4258 83.4141H-21.5535V85.2609H-29.4258V83.4141ZM-21.5535 87.1094H-29.4258V88.9562H-21.5535V87.1094ZM-14.5586 42.7812H-9.31044V43.7047H-14.5586V42.7812ZM-9.31044 72.3281H-14.5586V73.2515H-9.31044V72.3281ZM-14.5586 57.5547H-9.31044V58.4781H-14.5586V57.5547ZM-9.31044 88.0315H-14.5586V88.9549H-9.31044V88.0315ZM-14.5586 50.1717H-9.31044V51.0951H-14.5586V50.1717ZM-9.31044 80.6405H-14.5586V81.5639H-9.31044V80.6405ZM-14.5586 64.9375H-9.31044V65.8609H-14.5586V64.9375ZM-9.31044 95.4141H-14.5586V96.3375H-9.31044V95.4141ZM-14.5586 102.805H-9.31044V103.728H-14.5586V102.805ZM-9.31044 46.4766H-14.5586V47.4H-9.31044V46.4766ZM-14.5586 76.9453H-9.31044V77.8687H-14.5586V76.9453ZM-9.31044 61.25H-14.5586V62.1734H-9.31044V61.25ZM-14.5586 91.7266H-9.31044V92.65H-14.5586V91.7266ZM-9.31044 53.8672H-14.5586V54.7906H-9.31044V53.8672ZM-14.5586 84.3359H-9.31044V85.2594H-14.5586V84.3359ZM-9.31044 68.6406H-14.5586V69.564H-9.31044V68.6406ZM-14.5586 99.1094H-9.31044V100.033H-14.5586V99.1094ZM-9.31044 106.5H-14.5586V107.423H-9.31044V106.5ZM-8.43359 42.7812H-3.18544V43.7047H-8.43359V42.7812ZM-3.18544 72.3281H-8.43359V73.2515H-3.18544V72.3281ZM-8.43359 57.5547H-3.18544V58.4781H-8.43359V57.5547ZM-3.18544 88.0315H-8.43359V88.9549H-3.18544V88.0315ZM-8.43359 50.1717H-3.18544V51.0951H-8.43359V50.1717ZM-3.18544 80.6405H-8.43359V81.5639H-3.18544V80.6405ZM-8.43359 64.9375H-3.18544V65.8609H-8.43359V64.9375ZM-3.18544 95.4141H-8.43359V96.3375H-3.18544V95.4141ZM-8.43359 102.805H-3.18544V103.728H-8.43359V102.805ZM-3.18544 46.4766H-8.43359V47.4H-3.18544V46.4766ZM-8.43359 76.9453H-3.18544V77.8687H-8.43359V76.9453ZM-3.18544 61.25H-8.43359V62.1734H-3.18544V61.25ZM-8.43359 91.7266H-3.18544V92.65H-8.43359V91.7266ZM-3.18544 53.8672H-8.43359V54.7906H-3.18544V53.8672ZM-8.43359 84.3359H-3.18544V85.2594H-8.43359V84.3359ZM-3.18544 68.6406H-8.43359V69.564H-3.18544V68.6406ZM-8.43359 99.1094H-3.18544V100.033H-8.43359V99.1094ZM-3.18544 106.5H-8.43359V107.423H-3.18544V106.5ZM79.0366 59.4062H72.0391V60.3297H79.0366V59.4062ZM34.4258 73.2578H37.0499V75.1047H34.4258V73.2578ZM37.0499 91.7266H34.4258V93.5734H37.0499V91.7266ZM34.4258 100.961H37.0499V102.808H34.4258V100.961ZM37.0499 82.4922H34.4258V84.339H37.0499V82.4922ZM34.4258 77.875H37.0499V79.7219H34.4258V77.875ZM37.0499 87.1094H34.4258V88.9562H37.0499V87.1094ZM34.4258 96.3438H37.0499V98.1906H34.4258V96.3438ZM42.2995 73.2578H38.8008V75.1047H42.2995V73.2578ZM-59.168 69.5547H-55.6692V71.4015H-59.168V69.5547ZM-55.6692 91.7266H-59.168V93.5734H-55.6692V91.7266ZM-59.168 102.805H-55.6692V104.652H-59.168V102.805ZM-55.6692 80.6405H-59.168V82.4873H-55.6692V80.6405ZM-59.168 75.1016H-55.6692V76.9484H-59.168V75.1016ZM-55.6692 97.2656H-59.168V99.1125H-55.6692V97.2656ZM-59.168 108.344H-55.6692V110.191H-59.168V108.344ZM-55.6692 86.1797H-59.168V88.0265H-55.6692V86.1797ZM-53.918 69.5547H-49.5445V71.4015H-53.918V69.5547ZM-49.5445 91.7266H-53.918V93.5734H-49.5445V91.7266ZM-53.918 102.805H-49.5445V104.652H-53.918V102.805ZM-49.5445 80.6405H-53.918V82.4873H-49.5445V80.6405ZM-53.918 75.1016H-49.5445V76.9484H-53.918V75.1016ZM-49.5445 97.2656H-53.918V99.1125H-49.5445V97.2656ZM-53.918 108.344H-49.5445V110.191H-53.918V108.344ZM-49.5445 86.1797H-53.918V88.0265H-49.5445V86.1797ZM-47.7969 69.5547H-44.2981V71.4015H-47.7969V69.5547ZM-44.2981 91.7266H-47.7969V93.5734H-44.2981V91.7266ZM-47.7969 102.805H-44.2981V104.652H-47.7969V102.805ZM-44.2981 80.6405H-47.7969V82.4873H-44.2981V80.6405ZM-47.7969 75.1016H-44.2981V76.9484H-47.7969V75.1016ZM-44.2981 97.2656H-47.7969V99.1125H-44.2981V97.2656ZM-47.7969 108.344H-44.2981V110.191H-47.7969V108.344ZM-44.2981 86.1797H-47.7969V88.0265H-44.2981V86.1797ZM38.8008 91.7266H42.2995V93.5734H38.8008V91.7266ZM42.2995 100.961H38.8008V102.808H42.2995V100.961ZM38.8008 82.4922H42.2995V84.339H38.8008V82.4922ZM42.2995 77.875H38.8008V79.7219H42.2995V77.875ZM38.8008 87.1094H42.2995V88.9562H38.8008V87.1094ZM42.2995 96.3438H38.8008V98.1906H42.2995V96.3438ZM44.0469 73.2578H46.671V75.1047H44.0469V73.2578ZM46.671 91.7266H44.0469V93.5734H46.671V91.7266ZM44.0469 100.961H46.671V102.808H44.0469V100.961ZM46.671 82.4922H44.0469V84.339H46.671V82.4922ZM44.0469 77.875H46.671V79.7219H44.0469V77.875ZM46.671 87.1094H44.0469V88.9562H46.671V87.1094ZM44.0469 96.3438H46.671V98.1906H44.0469V96.3438ZM-89.7798 78.7969H-96.7773V79.7203H-89.7798V78.7969ZM-148.387 73.2578H-143.139V74.1812H-148.387V73.2578ZM87.7827 59.4062H80.7852V60.3297H87.7827V59.4062ZM-88.0312 78.7969H-81.0337V79.7203H-88.0312V78.7969ZM-136.139 73.2578H-141.387V74.1812H-136.139V73.2578ZM-176.375 78.7969H-163.255V79.7203H-176.375V78.7969ZM6.4375 52.0156H26.5554V52.9391H6.4375V52.0156ZM26.5554 70.4844H6.4375V71.4078H26.5554V70.4844ZM6.4375 88.9531H26.5554V89.8765H6.4375V88.9531ZM26.5554 42.7812H6.4375V43.7047H26.5554V42.7812ZM6.4375 61.25H26.5554V62.1734H6.4375V61.25ZM26.5554 79.7188H6.4375V80.6422H26.5554V79.7188ZM6.4375 98.1875H26.5554V99.1109H6.4375V98.1875ZM26.5554 38.1641H6.4375V39.0875H26.5554V38.1641ZM6.4375 56.6328H26.5554V57.5562H6.4375V56.6328ZM26.5554 75.1016H6.4375V76.025H26.5554V75.1016ZM6.4375 93.5703H26.5554V94.4937H6.4375V93.5703ZM26.5554 47.3984H6.4375V48.3219H26.5554V47.3984ZM6.4375 65.8672H26.5554V66.7906H6.4375V65.8672ZM26.5554 84.3359H6.4375V85.2594H26.5554V84.3359ZM6.4375 102.805H26.5554V103.728H6.4375V102.805ZM117.522 64.0234H101.777V64.9469H117.522V64.0234ZM72.0391 88.9531H79.0366V89.8765H72.0391V88.9531ZM-89.7798 108.344H-96.7773V109.267H-89.7798V108.344ZM-148.387 102.805H-143.139V103.728H-148.387V102.805ZM87.7827 88.9531H80.7852V89.8765H87.7827V88.9531ZM-88.0312 108.344H-81.0337V109.267H-88.0312V108.344ZM-136.139 102.805H-141.387V103.728H-136.139V102.805ZM-176.375 108.344H-163.255V109.267H-176.375V108.344ZM117.522 104.648H101.777V105.572H117.522V104.648ZM101.777 49.25H117.522V50.1734H101.777V49.25ZM79.0366 74.1797H72.0391V75.1031H79.0366V74.1797ZM-96.7773 93.5703H-89.7798V94.4937H-96.7773V93.5703ZM-143.139 88.0315H-148.387V88.9549H-143.139V88.0315ZM80.7852 74.1797H87.7827V75.1031H80.7852V74.1797ZM-81.0337 93.5703H-88.0312V94.4937H-81.0337V93.5703ZM-141.387 88.0315H-136.139V88.9549H-141.387V88.0315ZM-163.255 93.5703H-176.375V94.4937H-163.255V93.5703ZM101.777 78.7969H117.522V79.7203H101.777V78.7969ZM79.0366 103.727H72.0391V104.65H79.0366V103.727ZM80.7852 103.727H87.7827V104.65H80.7852V103.727ZM117.522 119.422H101.777V120.345H117.522V119.422ZM101.777 41.8594H117.522V42.7828H101.777V41.8594ZM79.0366 66.7891H72.0391V67.7125H79.0366V66.7891ZM-96.7773 86.1797H-89.7798V87.1031H-96.7773V86.1797ZM-143.139 80.6405H-148.387V81.5639H-143.139V80.6405ZM80.7852 66.7891H87.7827V67.7125H80.7852V66.7891ZM-81.0337 86.1797H-88.0312V87.1031H-81.0337V86.1797ZM-141.387 80.6405H-136.139V81.5639H-141.387V80.6405ZM-163.255 86.1797H-176.375V87.1031H-163.255V86.1797ZM101.777 71.4062H117.522V72.3297H101.777V71.4062ZM79.0366 96.3438H72.0391V97.2672H79.0366V96.3438ZM-96.7773 115.734H-89.7798V116.658H-96.7773V115.734ZM-143.139 110.188H-148.387V111.111H-143.139V110.188ZM80.7852 96.3438H87.7827V97.2672H80.7852V96.3438ZM-81.0337 115.734H-88.0312V116.658H-81.0337V115.734ZM-141.387 110.188H-136.139V111.111H-141.387V110.188ZM117.522 112.039H101.777V112.962H117.522V112.039ZM101.777 56.6328H117.522V57.5562H101.777V56.6328ZM79.0366 81.5625H72.0391V82.4859H79.0366V81.5625ZM-96.7773 100.961H-89.7798V101.884H-96.7773V100.961ZM-143.139 95.4141H-148.387V96.3375H-143.139V95.4141ZM80.7852 81.5625H87.7827V82.4859H80.7852V81.5625ZM-81.0337 100.961H-88.0312V101.884H-81.0337V100.961ZM-141.387 95.4141H-136.139V96.3375H-141.387V95.4141ZM-163.255 100.961H-176.375V101.884H-163.255V100.961ZM101.777 97.2656H117.522V98.189H101.777V97.2656ZM79.0366 122.195H72.0391V123.119H79.0366V122.195ZM80.7852 122.195H87.7827V123.119H80.7852V122.195ZM117.522 86.1797H101.777V87.1031H117.522V86.1797ZM79.0366 111.117H72.0391V112.041H79.0366V111.117ZM80.7852 111.117H87.7827V112.041H80.7852V111.117ZM117.522 38.1641H101.777V39.0875H117.522V38.1641ZM72.0391 63.0938H79.0366V64.0172H72.0391V63.0938ZM-89.7798 82.4922H-96.7773V83.4156H-89.7798V82.4922ZM-148.387 76.9453H-143.139V77.8687H-148.387V76.9453ZM87.7827 63.0938H80.7852V64.0172H87.7827V63.0938ZM-88.0312 82.4922H-81.0337V83.4156H-88.0312V82.4922ZM-136.139 76.9453H-141.387V77.8687H-136.139V76.9453ZM-176.375 82.4922H-163.255V83.4156H-176.375V82.4922ZM117.522 67.7109H101.777V68.6344H117.522V67.7109ZM72.0391 92.6484H79.0366V93.5718H72.0391V92.6484ZM-89.7798 112.039H-96.7773V112.962H-89.7798V112.039ZM-148.387 106.5H-143.139V107.423H-148.387V106.5ZM87.7827 92.6484H80.7852V93.5718H87.7827V92.6484ZM-88.0312 112.039H-81.0337V112.962H-88.0312V112.039ZM-136.139 106.5H-141.387V107.423H-136.139V106.5ZM101.777 108.344H117.522V109.267H101.777V108.344ZM117.522 52.9375H101.777V53.8609H117.522V52.9375ZM72.0391 77.875H79.0366V78.7984H72.0391V77.875ZM-89.7798 97.2656H-96.7773V98.189H-89.7798V97.2656ZM-148.387 91.7266H-143.139V92.65H-148.387V91.7266ZM87.7827 77.875H80.7852V78.7984H87.7827V77.875ZM-88.0312 97.2656H-81.0337V98.189H-88.0312V97.2656ZM-136.139 91.7266H-141.387V92.65H-136.139V91.7266ZM-176.375 97.2656H-163.255V98.189H-176.375V97.2656ZM117.522 93.5703H101.777V94.4937H117.522V93.5703ZM72.0391 118.5H79.0366V119.423H72.0391V118.5ZM87.7827 118.5H80.7852V119.423H87.7827V118.5ZM101.777 82.4922H117.522V83.4156H101.777V82.4922ZM72.0391 107.422H79.0366V108.345H72.0391V107.422ZM87.7827 107.422H80.7852V108.345H87.7827V107.422ZM101.777 45.5469H117.522V46.4703H101.777V45.5469ZM79.0366 70.4844H72.0391V71.4078H79.0366V70.4844ZM-96.7773 89.875H-89.7798V90.7984H-96.7773V89.875ZM-143.139 84.3359H-148.387V85.2594H-143.139V84.3359ZM80.7852 70.4844H87.7827V71.4078H80.7852V70.4844ZM-81.0337 89.875H-88.0312V90.7984H-81.0337V89.875ZM-141.387 84.3359H-136.139V85.2594H-141.387V84.3359ZM-163.255 89.875H-176.375V90.7984H-163.255V89.875ZM101.777 75.1016H117.522V76.025H101.777V75.1016ZM79.0366 100.031H72.0391V100.955H79.0366V100.031ZM-96.7773 119.422H-89.7798V120.345H-96.7773V119.422ZM-143.139 113.883H-148.387V114.806H-143.139V113.883ZM80.7852 100.031H87.7827V100.955H80.7852V100.031ZM-81.0337 119.422H-88.0312V120.345H-81.0337V119.422ZM-141.387 113.883H-136.139V114.806H-141.387V113.883ZM117.522 115.734H101.777V116.658H117.522V115.734ZM101.777 60.3203H117.522V61.2437H101.777V60.3203ZM79.0366 85.2578H72.0391V86.1812H79.0366V85.2578ZM-96.7773 104.648H-89.7798V105.572H-96.7773V104.648ZM-143.139 99.1094H-148.387V100.033H-143.139V99.1094ZM80.7852 85.2578H87.7827V86.1812H80.7852V85.2578ZM-81.0337 104.648H-88.0312V105.572H-81.0337V104.648ZM-141.387 99.1094H-136.139V100.033H-141.387V99.1094ZM-163.255 104.648H-176.375V105.572H-163.255V104.648ZM101.777 100.961H117.522V101.884H101.777V100.961ZM117.522 89.875H101.777V90.7984H117.522V89.875ZM79.0366 114.805H72.0391V115.728H79.0366V114.805ZM80.7852 114.805H87.7827V115.728H80.7852V114.805Z" fill="url(#paint27_linear_4303_15382)"/>
<rect x="260.457" y="135.305" width="0.749228" height="2.07646" fill="#217BF4"/>
<path d="M260.864 135.536C268.13 135.536 266.153 127.807 261.484 124.193C261.195 123.934 260.535 123.937 260.241 124.194C254.914 127.922 254.05 135.536 260.864 135.536Z" fill="#217BF4"/>
<rect x="287.457" y="135.305" width="0.749228" height="2.07646" fill="#217BF4"/>
<path d="M287.864 135.536C295.13 135.536 293.153 127.807 288.484 124.193C288.195 123.934 287.535 123.937 287.241 124.194C281.914 127.922 281.05 135.536 287.864 135.536Z" fill="#217BF4"/>
<rect x="573.457" y="135.305" width="0.749228" height="2.07646" fill="#217BF4"/>
<path d="M573.864 135.536C581.13 135.536 579.153 127.807 574.484 124.193C574.195 123.934 573.535 123.937 573.241 124.194C567.914 127.922 567.05 135.536 573.864 135.536Z" fill="#217BF4"/>
<rect x="314.457" y="135.305" width="0.749228" height="2.07646" fill="#217BF4"/>
<path d="M314.864 135.536C322.13 135.536 320.153 127.807 315.484 124.193C315.195 123.934 314.535 123.937 314.241 124.194C308.914 127.922 308.05 135.536 314.864 135.536Z" fill="#217BF4"/>
<rect x="600.457" y="135.305" width="0.749228" height="2.07646" fill="#217BF4"/>
<path d="M600.864 135.536C608.13 135.536 606.153 127.807 601.484 124.193C601.195 123.934 600.535 123.937 600.241 124.194C594.914 127.922 594.05 135.536 600.864 135.536Z" fill="#217BF4"/>
<rect x="428.457" y="135.305" width="0.749228" height="2.07646" fill="#217BF4"/>
<path d="M428.864 135.536C436.13 135.536 434.153 127.807 429.484 124.193C429.195 123.934 428.535 123.937 428.241 124.194C422.914 127.922 422.05 135.536 428.864 135.536Z" fill="#217BF4"/>
<rect x="341.457" y="135.305" width="0.749228" height="2.07646" fill="#217BF4"/>
<path d="M341.864 135.536C349.13 135.536 347.153 127.807 342.484 124.193C342.195 123.934 341.535 123.937 341.241 124.194C335.914 127.922 335.05 135.536 341.864 135.536Z" fill="#217BF4"/>
<rect x="627.457" y="135.305" width="0.749228" height="2.07646" fill="#217BF4"/>
<path d="M627.864 135.536C635.13 135.536 633.153 127.807 628.484 124.193C628.195 123.934 627.535 123.937 627.241 124.194C621.914 127.922 621.05 135.536 627.864 135.536Z" fill="#217BF4"/>
<rect x="411.457" y="135.305" width="0.749228" height="2.07646" fill="#217BF4"/>
<path d="M411.864 135.536C419.13 135.536 417.153 127.807 412.484 124.193C412.195 123.934 411.535 123.937 411.241 124.194C405.914 127.922 405.05 135.536 411.864 135.536Z" fill="#217BF4"/>
<rect x="272.23" y="135.188" width="0.542664" height="1.50397" fill="#217BF4"/>
<path d="M272.524 135.355C277.786 135.355 276.354 129.757 272.972 127.14C272.763 126.952 272.285 126.954 272.072 127.14C268.214 129.841 267.588 135.355 272.524 135.355Z" fill="#217BF4"/>
<rect x="299.23" y="135.188" width="0.542664" height="1.50397" fill="#217BF4"/>
<path d="M299.524 135.355C304.786 135.355 303.354 129.757 299.972 127.14C299.763 126.952 299.285 126.954 299.072 127.14C295.214 129.841 294.588 135.355 299.524 135.355Z" fill="#217BF4"/>
<rect x="585.23" y="135.188" width="0.542664" height="1.50397" fill="#217BF4"/>
<path d="M585.524 135.355C590.786 135.355 589.354 129.757 585.972 127.14C585.763 126.952 585.285 126.954 585.072 127.14C581.214 129.841 580.588 135.355 585.524 135.355Z" fill="#217BF4"/>
<rect x="326.23" y="135.188" width="0.542664" height="1.50397" fill="#217BF4"/>
<path d="M326.524 135.355C331.786 135.355 330.354 129.757 326.972 127.14C326.763 126.952 326.285 126.954 326.072 127.14C322.214 129.841 321.588 135.355 326.524 135.355Z" fill="#217BF4"/>
<rect x="612.23" y="135.188" width="0.542664" height="1.50397" fill="#217BF4"/>
<path d="M612.524 135.355C617.786 135.355 616.354 129.757 612.972 127.14C612.763 126.952 612.285 126.954 612.072 127.14C608.214 129.841 607.588 135.355 612.524 135.355Z" fill="#217BF4"/>
<rect x="440.23" y="135.188" width="0.542664" height="1.50397" fill="#217BF4"/>
<path d="M440.524 135.355C445.786 135.355 444.354 129.757 440.972 127.14C440.763 126.952 440.285 126.954 440.072 127.14C436.214 129.841 435.588 135.355 440.524 135.355Z" fill="#217BF4"/>
<rect x="475.23" y="135.352" width="0.542664" height="1.50397" fill="#217BF4"/>
<path d="M475.524 135.355C480.786 135.355 479.354 129.757 475.972 127.14C475.763 126.952 475.285 126.954 475.072 127.14C471.214 129.841 470.588 135.355 475.524 135.355Z" fill="#217BF4"/>
<rect x="537.23" y="135.352" width="0.542664" height="1.50397" fill="#217BF4"/>
<path d="M537.524 135.355C542.786 135.355 541.354 129.757 537.972 127.14C537.763 126.952 537.285 126.954 537.072 127.14C533.214 129.841 532.588 135.355 537.524 135.355Z" fill="#217BF4"/>
<rect x="655.23" y="135.352" width="0.542664" height="1.50397" fill="#217BF4"/>
<path d="M655.524 135.355C660.786 135.355 659.354 129.757 655.972 127.14C655.763 126.952 655.285 126.954 655.072 127.14C651.214 129.841 650.588 135.355 655.524 135.355Z" fill="#217BF4"/>
<rect x="353.23" y="135.188" width="0.542664" height="1.50397" fill="#217BF4"/>
<path d="M353.524 135.355C358.786 135.355 357.354 129.757 353.972 127.14C353.763 126.952 353.285 126.954 353.072 127.14C349.214 129.841 348.588 135.355 353.524 135.355Z" fill="#217BF4"/>
<rect x="639.23" y="135.188" width="0.542664" height="1.50397" fill="#217BF4"/>
<path d="M639.524 135.355C644.786 135.355 643.354 129.757 639.972 127.14C639.763 126.952 639.285 126.954 639.072 127.14C635.214 129.841 634.588 135.355 639.524 135.355Z" fill="#217BF4"/>
<path d="M374.682 136.57C378.191 136.57 377.236 132.838 374.981 131.093C374.842 130.968 374.523 130.97 374.382 131.094C371.809 132.894 371.392 136.57 374.682 136.57Z" fill="#217BF4"/>
<path d="M393.682 136.57C397.191 136.57 396.236 132.838 393.981 131.093C393.842 130.968 393.523 130.97 393.382 131.094C390.809 132.894 390.392 136.57 393.682 136.57Z" fill="#217BF4"/>
<path d="M365.35 136.57C368.859 136.57 367.904 132.838 365.649 131.093C365.51 130.968 365.191 130.97 365.05 131.094C362.477 132.894 362.06 136.57 365.35 136.57Z" fill="#217BF4"/>
<path d="M384.35 136.57C387.859 136.57 386.904 132.838 384.649 131.093C384.51 130.968 384.191 130.97 384.05 131.094C381.477 132.894 381.06 136.57 384.35 136.57Z" fill="#217BF4"/>
<rect width="0.749228" height="2.69722" transform="matrix(-1 0 0 1 888.207 134.68)" fill="#217BF4"/>
<path d="M887.8 134.985C880.534 134.985 882.511 124.945 887.18 120.25C887.469 119.915 888.129 119.918 888.423 120.252C893.75 125.095 894.614 134.985 887.8 134.985Z" fill="#217BF4"/>
<rect x="938.176" y="135.453" width="0.533685" height="1.92127" fill="#217BF4"/>
<path d="M938.464 135.674C943.64 135.674 942.231 128.522 938.905 125.178C938.7 124.939 938.229 124.942 938.02 125.179C934.226 128.629 933.61 135.674 938.464 135.674Z" fill="#217BF4"/>
<rect x="982.176" y="135.453" width="0.533685" height="1.92127" fill="#217BF4"/>
<path d="M982.464 135.674C987.64 135.674 986.231 128.522 982.905 125.178C982.7 124.939 982.229 124.942 982.02 125.179C978.226 128.629 977.61 135.674 982.464 135.674Z" fill="#217BF4"/>
<rect x="925.176" y="135.453" width="0.533685" height="1.92127" fill="#217BF4"/>
<path d="M925.464 135.674C930.64 135.674 929.231 128.522 925.905 125.178C925.7 124.939 925.229 124.942 925.02 125.179C921.226 128.629 920.61 135.674 925.464 135.674Z" fill="#217BF4"/>
<rect x="969.176" y="135.453" width="0.533685" height="1.92127" fill="#217BF4"/>
<path d="M969.464 135.674C974.64 135.674 973.231 128.522 969.905 125.178C969.7 124.939 969.229 124.942 969.02 125.179C965.226 128.629 964.61 135.674 969.464 135.674Z" fill="#217BF4"/>
<rect width="0.964736" height="3.47305" transform="matrix(-1 0 0 1 901.926 133.906)" fill="#217BF4"/>
<path d="M901.399 134.295C892.043 134.295 894.589 121.367 900.602 115.322C900.973 114.89 901.824 114.894 902.201 115.324C909.06 121.56 910.173 134.295 901.399 134.295Z" fill="#217BF4"/>
<path d="M487.107 129.651C490.841 134 487.998 135.65 483.825 136C479.732 135.668 477.343 134 480.349 129.651C479.844 128 480.344 127 481.443 125.975C482.345 117.286 485.241 116.083 486.335 125.975C487.344 127 487.336 127.977 487.107 129.651Z" fill="#217BF4"/>
<rect x="483.836" y="135.977" width="0.542664" height="1.50397" fill="#217BF4"/>
<path d="M549.107 129.651C552.841 134 549.998 135.65 545.825 136C541.732 135.668 539.343 134 542.349 129.651C541.844 128 542.344 127 543.443 125.975C544.345 117.286 547.241 116.083 548.335 125.975C549.344 127 549.336 127.977 549.107 129.651Z" fill="#217BF4"/>
<rect x="545.836" y="135.977" width="0.542664" height="1.50397" fill="#217BF4"/>
<path fill-rule="evenodd" clip-rule="evenodd" d="M757.723 88.3106V81.5078H772.558V88.3106H757.723ZM810.747 88.4828V81.68H826.132V88.4828H810.747Z" fill="url(#paint28_linear_4303_15382)"/>
<path d="M666.923 136.878V131.798L665.549 130.076V128.612H670.289V127.837L665 127.923V130.42L666.099 131.97V137.481H914.39V132.401L915.97 131.196V127.665L911.917 127.578V128.44L915.352 128.526V130.506L913.634 131.884V136.878H880.941L836.022 136.792H709.026L666.923 136.878Z" fill="url(#paint29_linear_4303_15382)"/>
<path fill-rule="evenodd" clip-rule="evenodd" d="M670.287 127.84L670.355 99.5086L667.402 97.5281V96.0642H669.256V94.5142L665.273 92.103V90.3809H669.256V84.7836H673.583V82.3724H676.125C676.125 82.3724 676.064 81.0315 676.262 80.3919C676.405 79.9289 676.497 79.6621 676.743 79.2724C677.062 78.7654 677.498 78.153 678.46 77.8947C679.301 77.6688 681.192 77.5087 682.985 77.3569H682.986C683.243 77.3351 683.499 77.3134 683.749 77.2918C685.74 77.1197 685.122 71.9529 685.122 71.9529H691.922C691.922 71.9529 691.441 76.6891 692.403 77.2918C693.119 77.7411 693.95 77.7121 695.209 77.6681L695.224 77.6676L695.353 77.6631L695.372 77.6624C695.76 77.6492 696.187 77.6363 696.661 77.6363C696.839 77.6363 697.004 77.6359 697.158 77.6355C698.851 77.6311 699.204 77.6301 699.958 78.2391C700.478 78.6595 700.601 78.9293 700.777 79.3148C700.819 79.4076 700.865 79.507 700.92 79.6168C701.201 80.1831 701.332 82.3724 701.332 82.3724H701.881L701.95 84.7836H704.285V86.4197H754.63V77.6363H772.488V72.728H776.952C776.952 72.728 777.167 70.2512 777.982 69.1973C778.667 68.3121 778.998 68.0359 779.906 67.5612C780.709 67.1414 781.54 67.1258 782.343 67.1108C783.443 67.0901 784.489 67.0704 785.332 66.0113C786.685 64.3093 786.293 60.1556 786.293 60.1556H790.689V45H791.17V47.4111C791.17 47.4111 792.87 48.6412 794.054 49.1334C795.223 49.6189 796.527 50.5112 796.527 50.5112L795.978 54.9889C795.978 54.9889 794.799 53.1244 793.642 52.8362C792.689 52.5986 791.17 52.4917 791.17 52.4917V60.1556H794.604C794.604 60.1556 794.223 64.2027 795.497 65.9251C796.4 67.1463 797.654 67.1418 798.937 67.1372C799.703 67.1344 800.479 67.1316 801.197 67.3891C802.316 67.7899 802.84 68.1751 803.67 69.1973C804.543 70.2724 805.044 72.728 805.044 72.728H808.959V76.7752H826.954V86.0752H876.749V84.8697H879.909V82.1141H882.794C882.794 82.1141 882.654 80.2988 883 79.2724C883.362 78.1972 883.558 77.9035 884.305 77.2058C884.664 76.8698 885.919 76.7543 887.163 76.64C888.502 76.5169 889.827 76.395 890.005 76.0002C890.666 74.5366 890.005 71.6946 890.005 71.6946H896.05C896.05 71.6946 895.526 74.304 896.05 75.7419C896.349 76.5637 897.921 76.5305 899.56 76.4958C900.789 76.4699 902.055 76.4431 902.849 76.7752C903.966 77.2421 904.356 77.7322 905.047 78.9279C905.65 79.9717 905.734 82.1141 905.734 82.1141H908.138V84.8697H911.915V90.8114H916.998L911.915 94.1697V95.892H914.8V97.9586L911.16 99.6809L911.915 127.581V128.442H873.178L867.889 125.687L824.55 125.945V100.886H822.352V125.945H817.476L817.269 101.059H815.278V125.945H810.126V101.059H808.203V125.945H802.983V101.059H800.991V125.945H801.816V127.236H806.898V132.059H810.813V127.236H813.08V132.059H819.33V129.303L836.02 136.795H709.024L745.358 136.623L751.333 134.125L759.713 130.595L762.529 129.475V131.973H768.573V127.409H770.771V131.973H774.892V126.892H779.7V125.945H780.798V100.973H778.807V125.945H773.449V100.973H771.595V125.945H766.306L766.1 100.973H764.452V125.945H759.163V100.973H757.24L757.171 125.945H713.626L710.879 127.495L708.749 128.528L670.287 128.614V127.84ZM674.27 83.1475V84.7836H700.92V83.1475H674.27ZM669.943 85.9892V90.3809H703.461V85.9892H669.943ZM669.943 94.5142V96.0642H703.117V94.5142H669.943ZM670.973 97.7865H701.95V98.992H670.973V97.7865ZM671.729 102.178H673.789V127.495H671.729V102.178ZM678.185 102.178H680.314V127.495H678.185V102.178ZM693.158 102.178H695.356V127.495H693.158V102.178ZM699.889 102.178H702.018V127.495H699.889V102.178ZM704.285 87.1086H754.012V90.3809H704.285V87.1086ZM705.247 93.9114V95.8058L753.05 95.6337V93.9114H705.247ZM751.951 97.0114H706.139V98.4754H751.951V97.0114ZM754.905 92.7059H774.686V93.9114H754.905V92.7059ZM754.012 95.6337V97.1836H775.853V95.6337H754.012ZM777.914 91.5003V97.1836H781.623V91.5003H777.914ZM782.172 90.3809H755.454V78.4975H774.48V77.2918H807.448V78.3252H826.267V90.3809H799.48V88.8308H807.036V80.9086H774.823V88.8308H782.172V90.3809ZM773.449 73.589V76.1725H808.203V73.589H773.449ZM800.373 91.5003V97.1836H803.67V91.5003H800.373ZM782.928 125.601H798.794V102.264C798.794 102.264 797.214 96.3226 790.552 96.3226C783.889 96.3226 782.928 103.47 782.928 103.47V125.601ZM775.579 81.5975H805.799V83.2336H775.579V81.5975ZM806.623 92.7059H826.679V93.9114H806.623V92.7059ZM805.525 95.6337H827.915V97.1836H805.525V95.6337ZM826.954 91.0697V87.453H876.749V91.0697H826.954ZM828.671 93.9114V95.6337H875.994V93.9114H828.671ZM829.358 98.4754V96.7531H875.238V98.4754H829.358ZM880.87 83.0613V84.8697H907.108V83.0613H880.87ZM910.885 90.8114V86.2475H877.917V91.0697L910.885 90.8114ZM877.917 94.7726H910.885V96.0642H877.917V94.7726ZM879.222 98.9059V97.7003H910.061V98.9059H879.222ZM879.222 102.523H881.557V127.581H879.222V102.523ZM888.22 127.581V102.523H885.953V127.581H888.22ZM903.33 102.523V127.581H901.201V102.523H903.33ZM909.649 102.523H907.794V127.581H909.649V102.523ZM864.936 102.523V124.395H862.326V102.523H864.936ZM858.342 102.523H855.732V124.395H858.342V102.523ZM851.405 124.395V102.523H848.727V124.395H851.405ZM843.301 124.395V102.523H840.759V124.395H843.301ZM834.921 102.523V124.395H832.105V102.523H834.921ZM746.663 124.395V102.178H749.754V124.395H746.663ZM738.97 102.178V124.395H741.786V102.178H738.97ZM731.552 124.395V102.178H734.3L734.506 124.395H731.552ZM724.272 102.178V124.395H727.019V102.178H724.272ZM717.129 124.395V102.178H719.601V124.395H717.129ZM681.413 126.289H691.716V104.675C691.716 104.675 691.166 100.198 686.565 100.198C681.963 100.198 681.413 104.675 681.413 104.675V126.289ZM900.033 126.375H889.593V105.278C889.593 105.278 889.86 100.284 894.676 100.111C899.492 99.9392 900.033 105.278 900.033 105.278V126.375Z" fill="url(#paint30_linear_4303_15382)"/>
<rect x="664" y="134" width="251" height="2" fill="#217BF4" fill-opacity="0.7"/>
<rect x="692.457" y="134.68" width="0.749228" height="2.69722" fill="#217BF4"/>
<path d="M692.864 134.985C700.13 134.985 698.153 124.945 693.484 120.25C693.195 119.915 692.535 119.918 692.241 120.252C686.914 125.095 686.05 134.985 692.864 134.985Z" fill="#217BF4"/>
<rect x="677.738" y="133.906" width="0.964736" height="3.47305" fill="#217BF4"/>
<path d="M678.265 134.295C687.621 134.295 685.075 121.367 679.062 115.322C678.691 114.89 677.84 114.894 677.463 115.324C670.604 121.56 669.491 134.295 678.265 134.295Z" fill="#217BF4"/>
<path d="M667.107 129.651C670.841 134 667.998 135.65 663.825 136C659.732 135.668 657.343 134 660.349 129.651C659.844 128 660.344 127 661.443 125.975C662.345 117.286 665.241 116.083 666.335 125.975C667.344 127 667.336 127.977 667.107 129.651Z" fill="#217BF4"/>
<rect x="663.836" y="135.977" width="0.542664" height="1.50397" fill="#217BF4"/>
<path d="M314.785 109C314.785 107.895 313.89 107 312.785 107V107C311.681 107 310.785 107.895 310.785 109V116.635H314.785V109Z" fill="#227CF4" fill-opacity="0.5"/>
<path d="M320.785 109C320.785 107.895 319.89 107 318.785 107V107C317.681 107 316.785 107.895 316.785 109V116.635H320.785V109Z" fill="#227CF4" fill-opacity="0.5"/>
</g>
<defs>
<linearGradient id="paint0_linear_4303_15382" x1="637" y1="30" x2="637" y2="136.65" gradientUnits="userSpaceOnUse">
<stop stop-color="#217BF4"/>
<stop offset="1" stop-color="#217BF4" stop-opacity="0.5"/>
</linearGradient>
<linearGradient id="paint1_linear_4303_15382" x1="312.188" y1="82" x2="312.188" y2="136.503" gradientUnits="userSpaceOnUse">
<stop stop-color="#217BF4"/>
<stop offset="1" stop-color="#217BF4" stop-opacity="0.4"/>
</linearGradient>
<linearGradient id="paint2_linear_4303_15382" x1="429.25" y1="13" x2="429.25" y2="137.5" gradientUnits="userSpaceOnUse">
<stop stop-color="#227BF4"/>
<stop offset="1" stop-color="#227BF4" stop-opacity="0.4"/>
</linearGradient>
<linearGradient id="paint3_linear_4303_15382" x1="374.206" y1="81.5022" x2="365.047" y2="135.324" gradientUnits="userSpaceOnUse">
<stop stop-color="#217BF4"/>
<stop offset="0.5" stop-color="#217BF4"/>
<stop offset="1" stop-color="#227CF5" stop-opacity="0"/>
</linearGradient>
<linearGradient id="paint4_linear_4303_15382" x1="387.11" y1="81.8694" x2="396.269" y2="135.691" gradientUnits="userSpaceOnUse">
<stop stop-color="#217BF4"/>
<stop offset="0.5" stop-color="#217BF4"/>
<stop offset="1" stop-color="#227CF5" stop-opacity="0"/>
</linearGradient>
<linearGradient id="paint5_linear_4303_15382" x1="234.75" y1="27" x2="234.75" y2="137.5" gradientUnits="userSpaceOnUse">
<stop stop-color="#217BF4"/>
<stop offset="1" stop-color="#227CF4" stop-opacity="0.2"/>
</linearGradient>
<linearGradient id="paint6_linear_4303_15382" x1="499.5" y1="55" x2="499.5" y2="137" gradientUnits="userSpaceOnUse">
<stop stop-color="#217BF4"/>
<stop offset="1" stop-color="#217BF4" stop-opacity="0.5"/>
</linearGradient>
<linearGradient id="paint7_linear_4303_15382" x1="954.5" y1="54" x2="954.5" y2="136.831" gradientUnits="userSpaceOnUse">
<stop stop-color="#217BF4"/>
<stop offset="1" stop-color="#217BF4" stop-opacity="0.5"/>
</linearGradient>
<linearGradient id="paint8_linear_4303_15382" x1="549.397" y1="8.99923" x2="549.397" y2="136.972" gradientUnits="userSpaceOnUse">
<stop stop-color="#217BF4"/>
<stop offset="1" stop-color="#217BF4" stop-opacity="0.3"/>
</linearGradient>
<linearGradient id="paint9_linear_4303_15382" x1="575.475" y1="100.086" x2="575.475" y2="136.846" gradientUnits="userSpaceOnUse">
<stop stop-color="#217BF4"/>
<stop offset="1" stop-color="#217BF4" stop-opacity="0.3"/>
</linearGradient>
<linearGradient id="paint10_linear_4303_15382" x1="590.279" y1="75.1561" x2="590.279" y2="106.955" gradientUnits="userSpaceOnUse">
<stop stop-color="#217BF4"/>
<stop offset="1" stop-color="#217BF4" stop-opacity="0.3"/>
</linearGradient>
<linearGradient id="paint11_linear_4303_15382" x1="146.75" y1="109" x2="146.75" y2="137" gradientUnits="userSpaceOnUse">
<stop stop-color="#217BF4"/>
<stop offset="1" stop-color="#217BF4" stop-opacity="0.2"/>
</linearGradient>
<linearGradient id="paint12_linear_4303_15382" x1="116.5" y1="90" x2="116.5" y2="109" gradientUnits="userSpaceOnUse">
<stop stop-color="#217BF4"/>
<stop offset="1" stop-color="#217BF4" stop-opacity="0.2"/>
</linearGradient>
<linearGradient id="paint13_linear_4303_15382" x1="119.055" y1="89" x2="119.055" y2="92.3123" gradientUnits="userSpaceOnUse">
<stop stop-color="#217BF4"/>
<stop offset="1" stop-color="#217BF4" stop-opacity="0.2"/>
</linearGradient>
<linearGradient id="paint14_linear_4303_15382" x1="147.5" y1="90" x2="147.5" y2="109" gradientUnits="userSpaceOnUse">
<stop stop-color="#217BF4"/>
<stop offset="1" stop-color="#217BF4" stop-opacity="0.2"/>
</linearGradient>
<linearGradient id="paint15_linear_4303_15382" x1="150.055" y1="89" x2="150.055" y2="92.3123" gradientUnits="userSpaceOnUse">
<stop stop-color="#217BF4"/>
<stop offset="1" stop-color="#217BF4" stop-opacity="0.2"/>
</linearGradient>
<linearGradient id="paint16_linear_4303_15382" x1="188.5" y1="90" x2="188.5" y2="109" gradientUnits="userSpaceOnUse">
<stop stop-color="#217BF4"/>
<stop offset="1" stop-color="#217BF4" stop-opacity="0.2"/>
</linearGradient>
<linearGradient id="paint17_linear_4303_15382" x1="191.055" y1="89" x2="191.055" y2="92.3123" gradientUnits="userSpaceOnUse">
<stop stop-color="#217BF4"/>
<stop offset="1" stop-color="#217BF4" stop-opacity="0.2"/>
</linearGradient>
<linearGradient id="paint18_linear_4303_15382" x1="168" y1="90" x2="168" y2="110" gradientUnits="userSpaceOnUse">
<stop stop-color="#217BF4"/>
<stop offset="1" stop-color="#217BF4" stop-opacity="0.2"/>
</linearGradient>
<linearGradient id="paint19_linear_4303_15382" x1="45.75" y1="109" x2="45.75" y2="137" gradientUnits="userSpaceOnUse">
<stop stop-color="#217BF4"/>
<stop offset="1" stop-color="#217BF4" stop-opacity="0.2"/>
</linearGradient>
<linearGradient id="paint20_linear_4303_15382" x1="25.5" y1="90" x2="25.5" y2="109" gradientUnits="userSpaceOnUse">
<stop stop-color="#217BF4"/>
<stop offset="1" stop-color="#217BF4" stop-opacity="0.2"/>
</linearGradient>
<linearGradient id="paint21_linear_4303_15382" x1="28.0546" y1="89" x2="28.0546" y2="92.3123" gradientUnits="userSpaceOnUse">
<stop stop-color="#217BF4"/>
<stop offset="1" stop-color="#217BF4" stop-opacity="0.2"/>
</linearGradient>
<linearGradient id="paint22_linear_4303_15382" x1="46.5" y1="90" x2="46.5" y2="109" gradientUnits="userSpaceOnUse">
<stop stop-color="#217BF4"/>
<stop offset="1" stop-color="#217BF4" stop-opacity="0.2"/>
</linearGradient>
<linearGradient id="paint23_linear_4303_15382" x1="49.0546" y1="89" x2="49.0546" y2="92.3123" gradientUnits="userSpaceOnUse">
<stop stop-color="#217BF4"/>
<stop offset="1" stop-color="#217BF4" stop-opacity="0.2"/>
</linearGradient>
<linearGradient id="paint24_linear_4303_15382" x1="87.5" y1="90" x2="87.5" y2="109" gradientUnits="userSpaceOnUse">
<stop stop-color="#217BF4"/>
<stop offset="1" stop-color="#217BF4" stop-opacity="0.2"/>
</linearGradient>
<linearGradient id="paint25_linear_4303_15382" x1="90.0546" y1="89" x2="90.0546" y2="92.3123" gradientUnits="userSpaceOnUse">
<stop stop-color="#217BF4"/>
<stop offset="1" stop-color="#217BF4" stop-opacity="0.2"/>
</linearGradient>
<linearGradient id="paint26_linear_4303_15382" x1="67" y1="90" x2="67" y2="110" gradientUnits="userSpaceOnUse">
<stop stop-color="#217BF4"/>
<stop offset="1" stop-color="#217BF4" stop-opacity="0.2"/>
</linearGradient>
<linearGradient id="paint27_linear_4303_15382" x1="-22.8673" y1="28" x2="-22.8673" y2="136.972" gradientUnits="userSpaceOnUse">
<stop stop-color="#217BF4"/>
<stop offset="1" stop-color="#217BF4" stop-opacity="0.1"/>
<stop offset="1.0001" stop-color="#217BF4" stop-opacity="0.2"/>
</linearGradient>
<linearGradient id="paint28_linear_4303_15382" x1="791" y1="44.9965" x2="791" y2="137.48" gradientUnits="userSpaceOnUse">
<stop stop-color="#217BF4"/>
<stop offset="1" stop-color="#217BF4" stop-opacity="0.5"/>
</linearGradient>
<linearGradient id="paint29_linear_4303_15382" x1="791" y1="44.9975" x2="791" y2="137.481" gradientUnits="userSpaceOnUse">
<stop stop-color="#217BF4"/>
<stop offset="1" stop-color="#217BF4" stop-opacity="0.5"/>
</linearGradient>
<linearGradient id="paint30_linear_4303_15382" x1="790.998" y1="45" x2="790.998" y2="137.484" gradientUnits="userSpaceOnUse">
<stop stop-color="#217BF4"/>
<stop offset="1" stop-color="#217BF4" stop-opacity="0.5"/>
</linearGradient>
<clipPath id="clip0_4303_15382">
<rect width="995" height="136" fill="white"/>
</clipPath>
</defs>
</svg>
