<svg width="40" height="40" viewBox="0 0 40 40" fill="none" xmlns="http://www.w3.org/2000/svg">
<circle cx="20" cy="20" r="20" fill="#F3F6FA"/>
<path d="M31.2439 18.9795C31.4609 18.8682 31.7231 18.9568 31.8316 19.1702C31.9422 19.3858 31.858 19.6495 31.6422 19.7563C31.642 19.7564 31.6418 19.7565 31.6417 19.7566L10.7571 30.3506C10.6924 30.3856 10.6232 30.3995 10.5588 30.3995C10.3993 30.3995 10.2454 30.3113 10.1684 30.1602M31.2439 18.9795L10.2574 30.1147M31.2439 18.9795C31.2438 18.9795 31.2438 18.9795 31.2438 18.9795L27.5702 20.8417V13.3315C28.0352 13.317 28.4084 12.9347 28.4084 12.4663C28.4084 11.9887 28.0204 11.6007 27.5428 11.6007H14.455C13.9774 11.6007 13.5894 11.9887 13.5894 12.4663C13.5894 12.9347 13.9626 13.317 14.4276 13.3315V27.5079M31.2439 18.9795L10.3596 29.5723M10.1684 30.1602C10.1684 30.1602 10.1683 30.1601 10.1683 30.1601L10.2574 30.1147M10.1684 30.1602C10.1684 30.1603 10.1684 30.1603 10.1684 30.1603L10.2574 30.1147M10.1684 30.1602C10.057 29.9431 10.1458 29.6806 10.3596 29.5723L10.4048 29.6615M10.2574 30.1147C10.1716 29.9475 10.2398 29.7451 10.4048 29.6615M10.4048 29.6615L10.3596 29.5723M10.4048 29.6615L10.3596 29.5723M10.3596 29.5723L14.4276 27.5079M14.4276 27.5079V27.5693H14.5276L14.4824 27.4801L14.4276 27.5079ZM15.3008 20.1849H26.697V20.8539H15.3008V20.1849ZM26.697 13.3319V19.3095H15.3008V13.3319H26.697ZM15.3008 21.7271H25.8267L15.3008 27.0676V21.7271Z" fill="#0A093D" stroke="#0A093D" stroke-width="0.2"/>
<path opacity="0.4" d="M17.5307 18.3292H24.4695C24.6565 18.3292 24.8061 18.1774 24.8061 17.9926V14.6398C24.8061 14.4528 24.6543 14.3032 24.4695 14.3032H17.5307C17.3437 14.3032 17.1941 14.455 17.1941 14.6398V17.9926C17.1941 18.1796 17.3437 18.3292 17.5307 18.3292ZM17.8673 17.656V15.2272L24.1329 17.084V17.656H17.8673Z" fill="#0A093D"/>
</svg>
