<svg width="40" height="40" viewBox="0 0 40 40" fill="none" xmlns="http://www.w3.org/2000/svg">
<path d="M17.5859 9.10555C17.5859 8.78163 17.8486 8.51904 18.1726 8.51904C18.4965 8.51904 18.759 8.78163 18.759 9.10555V26.8182C18.759 27.1421 18.4965 27.4047 18.1726 27.4047C17.8486 27.4047 17.5859 27.1421 17.5859 26.8182V9.10555Z" fill="white"/>
<path d="M24.0357 19.0763C23.7118 19.0763 23.4492 18.8137 23.4492 18.4898C23.4492 18.1658 23.7118 17.9033 24.0357 17.9033H26.3818C26.7057 17.9033 26.9683 18.1658 26.9683 18.4898C26.9683 18.8137 26.7057 19.0763 26.3818 19.0763H24.0357Z" fill="white"/>
<path d="M24.0357 12.0382C23.7118 12.0382 23.4492 11.7756 23.4492 11.4517C23.4492 11.1278 23.7118 10.8652 24.0357 10.8652H26.3818C26.7057 10.8652 26.9683 11.1278 26.9683 11.4517C26.9683 11.7756 26.7057 12.0382 26.3818 12.0382H24.0357Z" fill="white"/>
<path d="M24.0357 22.5954C23.7118 22.5954 23.4492 22.3328 23.4492 22.0089C23.4492 21.685 23.7118 21.4224 24.0357 21.4224H27.5548C27.8787 21.4224 28.1413 21.685 28.1413 22.0089C28.1413 22.3328 27.8787 22.5954 27.5548 22.5954H24.0357Z" fill="white"/>
<path d="M24.0357 15.5573C23.7118 15.5573 23.4492 15.2947 23.4492 14.9708C23.4492 14.6469 23.7118 14.3843 24.0357 14.3843H27.5548C27.8787 14.3843 28.1413 14.6469 28.1413 14.9708C28.1413 15.2947 27.8787 15.5573 27.5548 15.5573H24.0357Z" fill="white"/>
<path d="M24.0357 8.51921C23.7118 8.51921 23.4492 8.25662 23.4492 7.9327C23.4492 7.60878 23.7118 7.34619 24.0357 7.34619H27.5548C27.8787 7.34619 28.1413 7.60878 28.1413 7.9327C28.1413 8.25662 27.8787 8.51921 27.5548 8.51921H24.0357Z" fill="white"/>
<path d="M21.1034 28.5776C21.1034 30.1972 19.7905 31.5101 18.1709 31.5101C16.5513 31.5101 15.2383 30.1972 15.2383 28.5776C15.2383 26.958 16.5513 25.645 18.1709 25.645C19.7905 25.645 21.1034 26.958 21.1034 28.5776Z" fill="white"/>
<path fill-rule="evenodd" clip-rule="evenodd" d="M18.2016 5C17.6601 5 17.0312 5.12092 16.5112 5.37012C16.041 5.59546 15.4911 5.94052 15.0893 6.40548C14.6958 6.86072 14.44 7.38605 14.2477 7.92326C14.0547 8.46241 14.0606 9.03777 14.0653 9.49579L14.0654 9.50424C14.066 9.56569 14.0666 9.62542 14.0667 9.68221V23.4752V23.651C12.9562 24.6254 12.0746 25.9244 11.8311 27.4626C11.5896 28.9879 11.8916 30.5511 12.6838 31.8721C13.4762 33.1933 14.7078 34.1868 16.1593 34.6721C17.6109 35.1576 19.1858 35.1026 20.6008 34.517C22.0156 33.9314 23.1766 32.8546 23.8772 31.4816C24.5778 30.1087 24.773 28.5282 24.4286 27.0233C24.1102 25.632 23.331 24.4791 22.2775 23.5979V23.5924L22.2776 9.69208C22.2776 9.62979 22.2785 9.5644 22.2792 9.49643C22.284 9.03831 22.29 8.46266 22.0969 7.92326C21.9046 7.38605 21.6488 6.86072 21.2553 6.40548C20.849 5.93535 20.2734 5.59078 19.813 5.37012C19.3054 5.12684 18.7575 5 18.2016 5ZM21.1045 23.4165V9.51611L21.1056 9.46849C21.1081 8.9919 21.1098 8.64629 20.9925 8.31863C20.8282 7.85962 20.6334 7.47976 20.3678 7.17252C20.1152 6.88018 19.7067 6.61993 19.306 6.42793C18.9527 6.25857 18.5777 6.17302 18.2016 6.17302C17.8111 6.17302 17.3592 6.26449 17.0181 6.42793C16.6273 6.61524 16.2339 6.87501 15.9767 7.17252C15.7112 7.47976 15.5164 7.85962 15.352 8.31863C15.2347 8.64629 15.2365 8.99189 15.239 9.46848L15.2395 9.57471L15.2397 9.67339V9.69208V23.4165V23.651V23.9737C15.2397 24.0248 15.1061 24.2096 14.8387 24.4504L14.8417 24.4539C13.8515 25.3099 13.1271 26.4031 12.9318 27.6368C12.7311 28.9047 12.9824 30.2032 13.6395 31.2989C14.2966 32.3946 15.3157 33.215 16.5127 33.6152C17.7095 34.0156 19.0076 33.9703 20.1746 33.4873C21.3419 33.0043 22.3033 32.1143 22.8846 30.9751C23.466 29.8357 23.6286 28.5226 23.3424 27.2719C23.0606 26.0408 22.2193 25.1174 21.3395 24.2963L21.3415 24.2932C21.1835 24.1312 21.1045 24.013 21.1045 23.9737V23.5924V23.4165Z" fill="white"/>
</svg>
