<svg width="40" height="40" viewBox="0 0 40 40" fill="none" xmlns="http://www.w3.org/2000/svg">
<path d="M25.7747 18.1899C25.7747 22.4491 22.3414 25.9019 18.1061 25.9019C13.8708 25.9019 10.4375 22.4491 10.4375 18.1899C10.4375 13.9308 13.8708 10.478 18.1061 10.478C22.3414 10.478 25.7747 13.9308 25.7747 18.1899Z" fill="#FFE500"/>
<path d="M29.7102 10.1728C30.3089 9.82512 31.0746 10.0314 31.4203 10.6336C31.766 11.2358 31.5609 12.0058 30.9621 12.3534L28.5734 13.7403C27.9746 14.088 27.209 13.8816 26.8633 13.2795C26.5175 12.6773 26.7227 11.9073 27.3215 11.5596L29.7102 10.1728Z" fill="#FFE500"/>
<path d="M20.7685 4.21618C20.9475 3.54454 21.634 3.14596 22.3018 3.32593C22.9697 3.50589 23.3661 4.19625 23.1871 4.86789L22.4732 7.54713C22.2943 8.21877 21.6078 8.61735 20.9399 8.43738C20.2721 8.25742 19.8757 7.56706 20.0547 6.89542L20.7685 4.21618Z" fill="#FFE500"/>
<path d="M10.13 6.63635C9.78506 6.02539 9.99791 5.24887 10.6054 4.90196C11.213 4.55504 11.9851 4.76909 12.3301 5.38006L13.7062 7.81726C14.0512 8.42822 13.8383 9.20474 13.2308 9.55165C12.6233 9.89857 11.8511 9.68452 11.5061 9.07355L10.13 6.63635Z" fill="#FFE500"/>
<path d="M6.9184 26.1757C6.34788 26.5899 5.55148 26.4606 5.1396 25.8868C4.72772 25.3131 4.85633 24.5122 5.42686 24.098L7.70275 22.4457C8.27327 22.0315 9.06967 22.1608 9.48155 22.7345C9.89343 23.3083 9.76482 24.1092 9.19429 24.5234L6.9184 26.1757Z" fill="#FFE500"/>
<path d="M4.22981 15.6222C3.55013 15.4391 3.14677 14.7365 3.32889 14.053C3.51101 13.3695 4.20965 12.9638 4.88933 13.147L7.60069 13.8776C8.28037 14.0607 8.68373 14.7633 8.50161 15.4468C8.31949 16.1304 7.62085 16.536 6.94117 16.3529L4.22981 15.6222Z" fill="#FFE500"/>
<path d="M22.6904 28.7605C22.3386 28.1477 22.5474 27.3641 23.1568 27.0102C23.7662 26.6564 24.5454 26.8664 24.8972 27.4792L26.3007 29.9239C26.6526 30.5367 26.4438 31.3203 25.8344 31.6742C25.225 32.028 24.4458 31.818 24.0939 31.2052L22.6904 28.7605Z" fill="#FFE500"/>
<path d="M28.3977 22.633C27.718 22.4498 27.3148 21.7473 27.4969 21.0637C27.679 20.3802 28.3776 19.9746 29.0573 20.1577L31.7687 20.8883C32.4484 21.0715 32.8517 21.7741 32.6696 22.4576C32.4875 23.1411 31.7888 23.5467 31.1092 23.3636L28.3977 22.633Z" fill="#FFE500"/>
<path d="M13.7022 28.8746C13.8646 28.2653 14.4873 27.9037 15.0932 28.067C15.6991 28.2303 16.0587 28.8566 15.8963 29.4659L15.2487 31.8965C15.0864 32.5058 14.4636 32.8674 13.8577 32.7042C13.2518 32.5409 12.8922 31.9146 13.0546 31.3053L13.7022 28.8746Z" fill="#FFE500"/>
<path d="M17 34.4362C17 35.872 18.2549 36.7438 18.8824 37.0002H32.2943C32.7649 37.0002 33.7061 36.5899 33.7061 34.9489C33.7061 33.3078 32.2943 33.0685 31.5884 33.154C31.0237 30.0771 28.5296 30.3336 27.3531 30.8465C26.7884 28.1799 24.6079 27.6841 23.5883 27.7696C20.0118 28.1799 19.4314 30.8465 19.5883 32.1285C18.7255 32.2994 17 33.0003 17 34.4362Z" fill="white"/>
<path d="M32.5313 32.3846C32.0607 29.8205 30.1783 29.3075 28.5312 29.5641C28.9078 28.3334 30.2567 28.2821 30.8842 28.5384C30.8842 28.0256 31.8254 27 33.2371 27C35.3548 27 36.0608 29.0512 35.8255 29.8205C36.2961 29.8205 37.0019 30.3333 37.0019 31.1025C37.0019 31.9133 36.4529 32.2991 36.0607 32.3846H32.5313Z" fill="white"/>
</svg>
