<svg width="20" height="20" viewBox="0 0 20 20" fill="none" xmlns="http://www.w3.org/2000/svg">
<g clip-path="url(#clip0_1700_8999)">
<path fill-rule="evenodd" clip-rule="evenodd" d="M10 16.6286C13.6609 16.6286 16.6286 13.6609 16.6286 10C16.6286 6.33914 13.6609 3.37143 10 3.37143C6.33914 3.37143 3.37143 6.33914 3.37143 10C3.37143 13.6609 6.33914 16.6286 10 16.6286ZM10 18C14.4183 18 18 14.4183 18 10C18 5.58172 14.4183 2 10 2C5.58172 2 2 5.58172 2 10C2 14.4183 5.58172 18 10 18Z" fill="white"/>
<path d="M12.3467 10.5773C12.6989 10.7167 12.8714 11.1151 12.7321 11.4672L12.6783 11.6033C12.539 11.9554 12.1406 12.128 11.7884 11.9887L9.19725 10.9636C8.8451 10.8243 8.67256 10.4258 8.81188 10.0737L8.86571 9.93761C9.00503 9.58546 9.40344 9.41292 9.75559 9.55224L12.3467 10.5773Z" fill="white"/>
<path d="M11.0652 6.23557C11.2687 5.91616 11.6925 5.82217 12.0119 6.02563L12.1349 6.10394C12.4543 6.30741 12.5483 6.73128 12.3448 7.05069L10.0471 10.6578C9.84361 10.9772 9.41973 11.0712 9.10032 10.8678L8.97738 10.7894C8.65797 10.586 8.56398 10.1621 8.76745 9.84269L11.0652 6.23557Z" fill="white"/>
</g>
<defs>
<clipPath id="clip0_1700_8999">
<rect width="20" height="20" fill="white"/>
</clipPath>
</defs>
</svg>
