<svg width="20" height="20" viewBox="0 0 20 20" fill="none" xmlns="http://www.w3.org/2000/svg">
<mask id="mask0_1836_4650" style="mask-type:luminance" maskUnits="userSpaceOnUse" x="0" y="0" width="20" height="20">
<path d="M20 0H0V20H20V0Z" fill="white"/>
</mask>
<g mask="url(#mask0_1836_4650)">
<path fill-rule="evenodd" clip-rule="evenodd" d="M17.8733 17.3104C17.8733 17.6208 17.6217 17.8724 17.3113 17.8724H12.248V5.49951H17.3095C17.6199 5.49951 17.8715 5.75111 17.8715 6.06151L17.8733 17.3104ZM15.6217 7.74931H14.4977V8.87511H15.6217V7.74931ZM15.6217 11.123H14.4977V12.2489H15.6217V11.123ZM15.6217 14.4986H14.4977V15.6244H15.6217V14.4986Z" fill="#0CE9E9"/>
<path fill-rule="evenodd" clip-rule="evenodd" d="M12.2489 4.3737H17.8742C18.495 4.3737 18.9982 4.877 19 5.4995V17.8742C19 18.4968 18.4968 19 17.8742 19H2.1258C1.5032 19 1 18.4968 1 17.8742V2.1258C1 1.5032 1.5032 1 2.124 1H11.123C11.7456 1 12.2489 1.5032 12.2489 2.1258V4.3737ZM6.0634 17.8724H7.1873V15.6244H6.0634V17.8724ZM8.3113 17.8724H11.1249V2.6878C11.1249 2.3774 10.8733 2.1258 10.5629 2.1258H2.6878C2.3774 2.1258 2.1258 2.3774 2.1258 2.6878V17.3104C2.1258 17.6208 2.3774 17.8724 2.6878 17.8724H4.9376V15.0606C4.9376 14.7502 5.1892 14.4986 5.4995 14.4986H7.7493C8.0597 14.4986 8.3113 14.7502 8.3113 15.0606V17.8724ZM17.3122 17.8724C17.6226 17.8724 17.8742 17.6208 17.8742 17.3104L17.8724 6.0615C17.8724 5.7511 17.6208 5.4995 17.3104 5.4995H12.2489V17.8724H17.3122Z" fill="#0CE9E9"/>
<path d="M7.75 4.37354H8.8758V5.49934H7.75V4.37354Z" fill="#0CE9E9"/>
<path d="M7.75 7.74951H8.8758V8.87531H7.75V7.74951Z" fill="#0CE9E9"/>
<path d="M7.75 11.123H8.8758V12.2489H7.75V11.123Z" fill="#0CE9E9"/>
<path d="M4.37495 11.123H5.49885V12.2489H4.37305L4.37495 11.123Z" fill="#0CE9E9"/>
<path d="M4.37495 7.74951H5.49885V8.87531H4.37305L4.37495 7.74951Z" fill="#0CE9E9"/>
<path d="M4.37495 4.37354H5.49885V5.49934H4.37305L4.37495 4.37354Z" fill="#0CE9E9"/>
</g>
</svg>
