<svg width="40" height="40" viewBox="0 0 40 40" fill="none" xmlns="http://www.w3.org/2000/svg">
<path d="M21.6268 34.804C21.6714 35.8433 20.8409 36.7102 19.8006 36.7102C18.7604 36.7102 17.9299 35.8433 17.9744 34.804L18.5571 21.2074C18.5857 20.5413 19.134 20.0161 19.8006 20.0161C20.4673 20.0161 21.0156 20.5413 21.0441 21.2074L21.6268 34.804Z" fill="white"/>
<path d="M22.1719 19.4728C23.5635 18.449 23.4714 16.7948 23.2513 16.0957L32.6202 20.8757C32.9064 21.3714 32.5649 21.7338 32.3583 21.8531L22.1719 19.4728Z" fill="white"/>
<path d="M16.5981 17.1128C16.7604 18.6947 17.3671 19.4529 18.7983 19.8929L9.60392 25.0005C9.03288 24.9614 8.9227 24.4758 8.93899 24.2378L16.5981 17.1128Z" fill="white"/>
<path d="M17.6152 13.8152C18.9013 12.6617 20.5019 13.0895 21.1414 13.4475L18.3735 3.30045C17.9466 2.91915 17.5222 3.17955 17.3633 3.35741L17.6152 13.8152Z" fill="white"/>
<path d="M20.9566 18.7978C19.8159 19.4563 18.3573 19.0655 17.6988 17.9248C17.0402 16.7842 17.431 15.3256 18.5717 14.667C19.7124 14.0085 21.1709 14.3993 21.8295 15.54C22.4881 16.6806 22.0972 18.1392 20.9566 18.7978Z" fill="white"/>
</svg>
