<svg width="20" height="20" viewBox="0 0 20 20" fill="none" xmlns="http://www.w3.org/2000/svg">
<g clip-path="url(#clip0_1689_8987)">
<path d="M6.69642 1.07623C6.47194 1.16008 6.29236 1.29729 6.15019 1.51835C6.00053 1.73941 5.95564 1.92235 5.9706 2.22726C6.00802 2.7761 6.41956 3.20297 6.95083 3.25633C7.16782 3.2792 7.90112 3.19535 8.47728 3.08863C8.67932 3.05052 8.85142 3.02002 8.86638 3.02002C8.88135 3.02002 8.88883 3.24108 8.88883 3.50788V3.98049L8.53715 4.00336C8.14805 4.02623 7.97595 4.07196 7.68413 4.21679C7.28006 4.42261 6.93586 4.82661 6.79369 5.27635L6.71887 5.50504H5.01283C3.53127 5.50504 3.29182 5.51266 3.20203 5.55839C3 5.65749 3 5.6956 3 7.38785C3 8.70658 3.00748 8.93527 3.05238 9.03436C3.15713 9.26304 3.14965 9.26304 5.02779 9.26304H6.71138L6.79369 9.4841C6.98824 10.0253 7.38482 10.4446 7.92357 10.6504C8.11064 10.7266 8.18546 10.7266 9.16569 10.7419C9.84661 10.7495 10.2731 10.7419 10.4003 10.7114C11.0064 10.5818 11.5826 10.0329 11.7622 9.4155L11.8071 9.26304L12.1662 9.27829C12.458 9.28591 12.5628 9.30878 12.6825 9.36976C12.907 9.49173 13.0941 9.68229 13.1988 9.89573L13.2961 10.0939L13.3111 11.0696L13.326 12.053L13.4383 12.1521L13.5505 12.2512H15.1219C16.4762 12.2512 16.7082 12.2435 16.798 12.1978C16.9925 12.0987 17 12.0225 17 10.7266C17 9.14108 16.9551 8.7447 16.6782 8.05103C16.4837 7.56317 16.2368 7.19728 15.8103 6.75517C15.3164 6.23682 14.86 5.93953 14.2688 5.73372C13.7525 5.5584 13.5879 5.53553 12.675 5.51266L11.8071 5.49741L11.7247 5.26873C11.5901 4.86473 11.3356 4.53695 10.984 4.30064C10.7071 4.1177 10.4003 4.02623 9.97381 4.00336L9.62213 3.98049V3.49263C9.62213 3.22584 9.63709 3.00478 9.65206 3.00478C9.66702 3.00478 9.80171 3.02765 9.95136 3.05052C10.535 3.16486 11.0363 3.22584 11.3805 3.22584C11.6873 3.22584 11.7696 3.21822 11.9118 3.14961C12.3757 2.92855 12.6451 2.41021 12.5478 1.92235C12.4506 1.42687 12.0615 1.0686 11.5676 1.01525C11.2908 0.984755 9.97381 1.16008 9.45751 1.29729C9.30037 1.34302 9.24051 1.3354 8.79904 1.24393C8.24532 1.12959 7.30999 1 7.0481 1C6.95831 1.00762 6.80118 1.03811 6.69642 1.07623ZM7.91609 1.85375C8.17798 1.89186 8.58204 1.96046 8.79904 2.01382C9.28541 2.12054 9.28541 2.12054 9.74933 2.01382C10.2357 1.90711 11.0588 1.78514 11.3805 1.77752C11.6275 1.7699 11.635 1.77752 11.7322 1.88424C11.9118 2.08243 11.852 2.37209 11.605 2.47119C11.5152 2.5093 11.4254 2.5093 11.186 2.48643C10.5724 2.42545 9.79423 2.28824 9.45751 2.18915C9.28541 2.14341 9.25548 2.14341 9.00855 2.20439C8.62694 2.30349 8.05077 2.40258 7.50454 2.47119C6.96579 2.53217 6.83859 2.5093 6.74131 2.31873C6.67397 2.18152 6.67397 2.09005 6.74131 1.96046C6.86104 1.73178 6.97328 1.72416 7.91609 1.85375ZM6.68894 7.36498V8.49315H5.22234H3.76323V7.36498V6.24444H5.22982H6.69642V7.36498H6.68894ZM13.3335 6.28255C14.6729 6.45025 15.7728 7.41072 16.147 8.75994C16.2218 9.01912 16.2293 9.11821 16.2368 10.2769L16.2443 11.5118L15.1443 11.5041L14.0444 11.4965L14.0294 10.7266C14.0144 10.0177 13.9995 9.93384 13.9321 9.74328C13.775 9.33927 13.5355 9.02674 13.1913 8.80568C12.922 8.63036 12.6077 8.53126 12.1962 8.50839L11.8594 8.48553V7.36498V6.24444H12.4356C12.7648 6.24444 13.1614 6.25969 13.3335 6.28255Z" fill="white"/>
<path d="M14.9797 13.8028C14.7627 13.8943 13.7152 15.739 13.4533 16.4936C13.1914 17.2407 13.3335 17.8962 13.8648 18.445C14.7552 19.3598 16.2518 19.1082 16.798 17.9496C17.0599 17.3931 17.0524 17.0043 16.783 16.2954C16.4987 15.5636 15.5259 13.9095 15.3314 13.818C15.2266 13.7647 15.092 13.7647 14.9797 13.8028Z" fill="white"/>
</g>
<defs>
<clipPath id="clip0_1689_8987">
<rect width="20" height="20" fill="white"/>
</clipPath>
</defs>
</svg>
