<svg width="20" height="20" viewBox="0 0 20 20" fill="none" xmlns="http://www.w3.org/2000/svg">
<path fill-rule="evenodd" clip-rule="evenodd" d="M4.18685 4.64414C3.55253 5.44023 3.2912 6.41366 3.26583 7.03939V17.8743C3.26583 17.8745 3.26583 17.8748 3.26583 17.875C3.26583 17.8752 3.26583 17.8755 3.26583 17.8757V17.9875H3.26023C3.20339 18.556 2.72037 19 2.13291 19C1.54546 19 1.06243 18.556 1.00559 17.9875H1V17.875V6.99979L1.00064 6.98085C1.03607 5.93709 1.4329 4.47428 2.40995 3.24804C3.42323 1.97634 5.03328 1 7.34432 1C9.55915 1 11.1635 2.0484 12.1676 3.35499C12.972 4.40165 13.421 5.64972 13.5086 6.72663C16.4098 7.23179 18.6629 9.56411 18.9744 12.4609C18.9896 12.5194 18.9976 12.5807 18.9976 12.6438C19.0127 13.0374 18.6679 13.3751 18.2612 13.3751C18.246 13.3751 18.2308 13.3746 18.2158 13.3737V13.375H6.43383V13.3731C6.41586 13.3744 6.39771 13.3751 6.3794 13.3751C5.9727 13.3751 5.643 13.0477 5.643 12.6438C5.643 12.5559 5.65863 12.4716 5.68727 12.3936C6.02937 9.50074 8.3096 7.18411 11.2279 6.7128C11.1419 6.12559 10.8724 5.3784 10.3664 4.72001C9.72785 3.8891 8.75481 3.25 7.34432 3.25C5.75813 3.25 4.7908 3.88616 4.18685 4.64414ZM10.0641 14.5C10.0641 15.7426 11.0786 16.75 12.33 16.75C13.5813 16.75 14.5958 15.7426 14.5958 14.5H10.0641Z" fill="#FFA42D"/>
</svg>
