<svg width="40" height="40" viewBox="0 0 40 40" fill="none" xmlns="http://www.w3.org/2000/svg">
<path d="M29.5121 27.9322H23.4494C22.8663 27.9322 22.3271 28.1143 21.898 28.4357L16.4295 32.4322C16.4185 32.4429 16.4185 32.4429 16.4075 32.4536C15.9674 32.7965 15.4063 33 14.8011 33C13.3707 33 12.2044 31.8643 12.2044 30.4715V28.7893C12.2044 28.3286 11.8193 27.9429 11.3352 27.9429H10.4659C8.55142 27.9429 7 26.4322 7 24.5679V9.38574C7 7.52146 8.55142 6.01074 10.4549 6.01074H25.1769C25.65 6.01074 26.0461 6.38574 26.0461 6.85717C26.0461 7.3286 25.661 7.7036 25.1769 7.7036H10.895C9.69573 7.7036 8.72747 8.64646 8.72747 9.81431V24.1393C8.72747 25.3072 9.69573 26.25 10.895 26.25H11.7643C12.9636 26.25 13.9319 27.1929 13.9319 28.3607V30.4715C13.9319 30.9322 14.317 31.3179 14.8011 31.3179C14.9882 31.3179 15.1532 31.2643 15.2962 31.1679L20.8087 27.1393C21.5459 26.5822 22.4592 26.2607 23.4604 26.2607H29.0939C30.2933 26.2607 31.2615 25.3179 31.2615 24.15V10.2215C31.2615 9.76074 31.6466 9.37503 32.1308 9.37503C32.6149 9.37503 33 9.75003 33 10.2215V24.5465C32.967 26.4215 31.4156 27.9322 29.5121 27.9322Z" fill="white"/>
<path d="M27.7734 6.84643C27.7734 7.31786 28.1695 7.69286 28.6427 7.69286C29.1158 7.69286 29.5119 7.31786 29.5119 6.84643C29.5119 6.375 29.1268 6 28.6427 6C28.1585 6 27.7734 6.375 27.7734 6.84643Z" fill="#21B3FF"/>
<path d="M31 6.84643C31 7.31786 31.3961 7.69286 31.8692 7.69286C32.3424 7.69286 32.7385 7.31786 32.7385 6.84643C32.7385 6.375 32.3534 6 31.8692 6C31.3851 6 31 6.375 31 6.84643Z" fill="#E4D256"/>
<path d="M17.3869 15.2781C17.3869 13.8852 18.5532 12.7495 19.9836 12.7495C21.414 12.7495 22.5803 13.8852 22.5583 15.2674C22.5583 16.3281 21.8981 17.2281 20.9519 17.6031C19.8626 18.0531 19.0924 19.1031 19.0924 20.3245C19.0924 20.796 19.4885 21.171 19.9616 21.171C20.3797 21.171 20.7318 20.871 20.8088 20.4852C20.8198 20.4424 20.8308 20.3888 20.8308 20.3245C20.8308 19.7995 21.1719 19.3388 21.6451 19.1567C23.2075 18.5245 24.2968 17.0245 24.2968 15.2781C24.2968 12.9531 22.3602 11.0674 19.9726 11.0674C17.585 11.0674 15.6484 12.9531 15.6484 15.2781C15.6484 15.7495 16.0445 16.1245 16.5177 16.1245C17.0018 16.1245 17.3869 15.7388 17.3869 15.2781Z" fill="#C54647"/>
<path d="M20.8528 23.721C20.8528 23.2495 20.4567 22.8745 19.9836 22.8745C19.5105 22.8745 19.1144 23.2495 19.1144 23.721C19.1144 24.1924 19.5105 24.5674 19.9836 24.5674C20.4677 24.5674 20.8528 24.1817 20.8528 23.721Z" fill="#C54647"/>
</svg>
