<svg width="40" height="40" viewBox="0 0 40 40" fill="none" xmlns="http://www.w3.org/2000/svg">
<path d="M31.3614 15.5164C31.3614 8.24358 25.2403 4 17.6742 4C10.1212 4 4 8.24358 4 15.5164C4 21.7578 8.51864 25.7663 14.5742 26.7848L17.1619 29.3701C17.4377 29.6443 17.8975 29.6443 18.1733 29.3701L20.761 26.7848C26.8428 25.7794 31.3614 21.7578 31.3614 15.5164ZM17.6873 27.5813L15.2703 25.1657L15.2966 25.1526C9.8322 24.33 5.70763 20.7654 5.70763 15.9343C5.70763 9.34039 11.0669 5.69743 17.6742 5.69743C24.2814 5.69743 29.6407 9.34039 29.6407 15.9343C29.6407 20.8438 25.5292 24.3561 20.0648 25.1396L20.0911 25.1657L17.6873 27.5813ZM32.9114 17.71C32.8064 18.389 32.6356 19.068 32.4123 19.7208C33.0822 20.6479 33.4894 21.7578 33.4894 23.0243C33.4894 26.4584 30.5733 28.7172 27.3157 29.2265L25.8051 30.7933L24.3076 29.2134H24.3208C23.664 29.0959 23.0203 28.9 22.4161 28.652C21.9826 28.7042 21.5492 28.7434 21.1025 28.7434C20.4983 28.7434 19.8941 28.6911 19.3161 28.5867C20.3013 29.4354 21.5492 30.0621 22.9284 30.4147L25.4242 32.8433C25.6343 33.0522 25.9758 33.0522 26.186 32.8433L28.603 30.48C32.3072 29.6312 35 26.9676 35 22.959C35 20.7915 34.2119 19.0158 32.9114 17.71Z" fill="white"/>
<path d="M32.9117 17.71C32.8067 18.3889 32.6359 19.0679 32.4126 19.7208C33.0825 20.6478 33.4897 21.7577 33.4897 23.0242C33.4897 26.4583 30.5736 28.7172 27.316 29.2264L25.8054 30.7933L24.3079 29.2133H24.3211C23.6643 29.0958 23.0206 28.9 22.4164 28.6519C21.9829 28.7041 21.5495 28.7433 21.1028 28.7433C20.4986 28.7433 19.8944 28.6911 19.3164 28.5866C20.3016 29.4353 21.5495 30.0621 22.9287 30.4146L25.4245 32.8432C25.6346 33.0521 25.9762 33.0521 26.1863 32.8432L28.6033 30.4799C32.3075 29.6312 35.0003 26.9675 35.0003 22.9589C35.0003 20.7915 34.2122 19.0157 32.9117 17.71Z" fill="#C54647"/>
<path d="M9.5293 15.9468C9.5293 15.0067 10.3437 14.2363 11.3289 14.2363C12.314 14.2363 13.1285 14.9936 13.1285 15.9468C13.1285 16.9 12.314 17.6573 11.3289 17.6573C10.3306 17.6573 9.5293 16.8869 9.5293 15.9468Z" fill="#C54647"/>
<path d="M15.8086 15.9468C15.8086 15.0067 16.623 14.2363 17.6082 14.2363C18.6065 14.2363 19.4077 14.9936 19.4077 15.9468C19.4077 16.9 18.5933 17.6573 17.6082 17.6573C16.6099 17.6573 15.8086 16.8869 15.8086 15.9468Z" fill="#21B3FF"/>
<path d="M25.687 15.9341C25.687 16.8873 24.8726 17.6446 23.8875 17.6446C22.9023 17.6446 22.101 16.8873 22.0879 15.9341C22.0879 14.994 22.9023 14.2236 23.8875 14.2236C24.8858 14.2236 25.687 14.994 25.687 15.9341Z" fill="#E4D256"/>
</svg>
