<svg width="40" height="40" viewBox="0 0 40 40" fill="none" xmlns="http://www.w3.org/2000/svg">
<path d="M28.0921 30.4981H11.3777H11.085C10.848 30.4981 10.6389 30.5744 10.4716 30.727C10.3043 30.8796 10.2207 31.0703 10.2207 31.2738C10.2207 31.49 10.3043 31.6808 10.4716 31.8334C10.6389 31.986 10.8341 32.0623 11.085 32.0623H11.3777H28.0921H28.8309C29.0679 32.0623 29.277 31.986 29.4443 31.8334C29.6115 31.6808 29.6952 31.5027 29.6952 31.2738C29.6952 31.0576 29.6115 30.8669 29.4443 30.7143C29.277 30.5617 29.0818 30.4854 28.8309 30.4854L28.0921 30.4981Z" fill="#21B3FF"/>
<path d="M32.7615 8.76431C32.5942 8.6117 32.3991 8.5354 32.1481 8.5354C31.9112 8.5354 31.7021 8.6117 31.5487 8.76431C31.3814 8.91691 31.2978 9.09496 31.2978 9.32387V10.3412V10.6337V32.66C31.2978 32.8762 31.2142 33.067 31.0469 33.2196C30.8796 33.3722 30.6844 33.4485 30.4335 33.4485H23.5749H12.1997H9.57894C9.34196 33.4485 9.13285 33.3722 8.96557 33.2196C8.79829 33.067 8.71465 32.8889 8.71465 32.66V32.393V30.0021C8.71465 29.7859 8.78435 29.5952 8.95163 29.4426C9.11891 29.29 9.31408 29.2136 9.565 29.2136H11.3912H17.2182H19.588H21.4142H27.2412C27.9521 29.2136 28.5516 28.9847 29.0674 28.5269C29.5692 28.0691 29.8201 27.5223 29.8201 26.861V25.691V22.677V13.5969V7.86138V7.35269C29.8201 6.70411 29.5692 6.15727 29.0674 5.68673C28.5655 5.22891 27.9661 5 27.2412 5H25.4011H24.6204H17.2321H15.3641H9.57894C8.86799 5 8.26856 5.22891 7.75277 5.68673C7.25092 6.14455 7 6.69139 7 7.33997V7.63247V9.73082V26.4031V29.9894V32.3802V32.6473C7 33.2959 7.25092 33.8427 7.75277 34.3133C8.25462 34.7711 8.85405 35 9.57894 35H10.8336H12.1997H23.5749H30.4335H30.4893C31.1723 34.9873 31.7718 34.7584 32.2457 34.3133C32.7476 33.8554 32.9985 33.3086 32.9985 32.6473V10.6337V10.3412V9.31115C33.0124 9.09496 32.9288 8.91691 32.7615 8.76431ZM8.72859 26.4159V9.74354V7.33997C8.72859 7.12378 8.81223 6.93302 8.97951 6.79313C9.14679 6.64053 9.34196 6.56422 9.59288 6.56422H15.3781H17.2461H24.6204H27.2412C27.4782 6.56422 27.6873 6.64053 27.8406 6.79313C28.0079 6.94574 28.0915 7.12378 28.0915 7.35269V7.86138V13.6096V22.7024V26.8737C28.0915 27.0899 28.0079 27.2806 27.8406 27.4205C27.6733 27.5731 27.4782 27.6494 27.2273 27.6494H21.4002H19.5741H17.2042H11.3772H9.565C9.27225 27.6494 8.99345 27.6876 8.72859 27.7766V26.4159Z" fill="white"/>
<path d="M15.8203 10.75H21.2455" stroke="#C54647" stroke-width="1.5" stroke-linecap="round" stroke-linejoin="round"/>
<path fill-rule="evenodd" clip-rule="evenodd" d="M16.4659 14.0693L16.4971 14.0693H20.566L20.5971 14.0693C21.3858 14.0693 22.022 14.0693 22.5377 14.1102C23.0685 14.1523 23.5353 14.2413 23.9691 14.4548C24.7115 14.8202 25.3122 15.4209 25.6776 16.1633C25.8912 16.5971 25.9801 17.064 26.0222 17.5948C26.0631 18.1104 26.0631 18.7466 26.0631 19.5353V19.5664V19.5975C26.0631 20.3862 26.0631 21.0224 26.0222 21.5381C25.9801 22.0689 25.8912 22.5357 25.6776 22.9695C25.3122 23.7119 24.7115 24.3126 23.9691 24.678C23.5353 24.8916 23.0685 24.9805 22.5377 25.0226C22.022 25.0635 21.3858 25.0635 20.5971 25.0635H20.566H16.4971H16.466C15.6773 25.0635 15.0411 25.0635 14.5254 25.0226C13.9946 24.9805 13.5278 24.8916 13.094 24.678C12.3516 24.3126 11.7509 23.7119 11.3855 22.9695C11.1719 22.5357 11.083 22.0689 11.0409 21.5381C11 21.0224 11 20.3863 11 19.5976L11 19.5664L11 19.5353C11 18.7466 11 18.1104 11.0409 17.5948C11.083 17.064 11.1719 16.5971 11.3855 16.1633C11.7509 15.4209 12.3516 14.8202 13.094 14.4548C13.5278 14.2413 13.9946 14.1523 14.5254 14.1102C15.0411 14.0693 15.6772 14.0693 16.4659 14.0693ZM14.644 15.6055C14.2031 15.6405 13.9491 15.7058 13.7564 15.8006C13.3109 16.0199 12.9505 16.3803 12.7313 16.8257C12.6364 17.0184 12.5712 17.2724 12.5362 17.7134C12.5006 18.1627 12.5 18.7393 12.5 19.5664C12.5 20.3935 12.5006 20.9701 12.5362 21.4194C12.5712 21.8604 12.6364 22.1144 12.7313 22.3071C12.9505 22.7525 13.3109 23.113 13.7564 23.3322C13.9491 23.4271 14.2031 23.4923 14.6441 23.5273C15.0934 23.5629 15.67 23.5635 16.4971 23.5635H20.566C21.3931 23.5635 21.9697 23.5629 22.419 23.5273C22.86 23.4923 23.114 23.4271 23.3067 23.3322C23.7521 23.113 24.1126 22.7525 24.3318 22.3071C24.4267 22.1144 24.4919 21.8604 24.5269 21.4194C24.5625 20.9701 24.5631 20.3935 24.5631 19.5664C24.5631 18.7393 24.5625 18.1627 24.5269 17.7134C24.4919 17.2724 24.4267 17.0184 24.3318 16.8257C24.1126 16.3803 23.7521 16.0199 23.3067 15.8006C23.114 15.7058 22.86 15.6405 22.419 15.6055C21.9697 15.5699 21.3931 15.5693 20.566 15.5693H16.4971C15.67 15.5693 15.0934 15.5699 14.644 15.6055Z" fill="#E4D256"/>
<path d="M20.3002 20.0793C20.1844 20.273 19.9339 20.44 19.4328 20.7741C18.8266 21.1782 18.5235 21.3803 18.276 21.4052C17.8716 21.4459 17.4828 21.2378 17.2923 20.8788C17.1758 20.659 17.1758 20.2947 17.1758 19.5661C17.1758 18.8376 17.1758 18.4733 17.2923 18.2535C17.4828 17.8944 17.8716 17.6863 18.276 17.7271C18.5235 17.752 18.8266 17.9541 19.4328 18.3582C19.9339 18.6923 20.1844 18.8593 20.3002 19.053C20.4892 19.369 20.4892 19.7633 20.3002 20.0793Z" stroke="#C54647" stroke-width="1.5" stroke-linecap="round" stroke-linejoin="round"/>
<path d="M14.4629 12.7852H22.6007" stroke="#21B3FF" stroke-width="1.5" stroke-linecap="round" stroke-linejoin="round"/>
</svg>
