<svg width="40" height="40" viewBox="0 0 40 40" fill="none" xmlns="http://www.w3.org/2000/svg">
<path fill-rule="evenodd" clip-rule="evenodd" d="M14.0833 1.66699C14.0833 1.25278 13.7475 0.916992 13.3333 0.916992C12.9191 0.916992 12.5833 1.25278 12.5833 1.66699V4.25037C10.9143 4.25098 9.57472 4.26044 8.51098 4.40346C7.33856 4.56109 6.38961 4.8932 5.64124 5.64157C4.89288 6.38993 4.56076 7.33888 4.40314 8.5113C4.24997 9.65052 4.24998 11.1061 4.25 12.9439L4.25 13.0003V27.0003L4.25 27.0567C4.24998 28.8945 4.24997 30.3501 4.40314 31.4893C4.56076 32.6618 4.89288 33.6107 5.64124 34.3591C6.38961 35.1074 7.33856 35.4396 8.51098 35.5972C9.65019 35.7504 11.1058 35.7503 12.9436 35.7503H13H27H27.0564C28.8942 35.7503 30.3498 35.7504 31.489 35.5972C32.6614 35.4396 33.6104 35.1074 34.3588 34.3591C35.1071 33.6107 35.4392 32.6618 35.5969 31.4893C35.75 30.3502 35.75 28.8946 35.75 27.0569V27.0567V27.0003V13.0003V12.9439V12.9438C35.75 11.1061 35.75 9.65049 35.5969 8.5113C35.4392 7.33888 35.1071 6.38993 34.3588 5.64157C33.6104 4.8932 32.6614 4.56109 31.489 4.40346C30.4253 4.26044 29.0857 4.25098 27.4167 4.25037V1.66699C27.4167 1.25278 27.0809 0.916992 26.6667 0.916992C26.2525 0.916992 25.9167 1.25278 25.9167 1.66699V4.25033H20.75V1.66699C20.75 1.25278 20.4142 0.916992 20 0.916992C19.5858 0.916992 19.25 1.25278 19.25 1.66699V4.25033H14.0833V1.66699ZM11.6667 14.2503C11.2525 14.2503 10.9167 14.5861 10.9167 15.0003C10.9167 15.4145 11.2525 15.7503 11.6667 15.7503H28.3333C28.7475 15.7503 29.0833 15.4145 29.0833 15.0003C29.0833 14.5861 28.7475 14.2503 28.3333 14.2503H11.6667ZM10.9167 21.667C10.9167 21.2528 11.2525 20.917 11.6667 20.917H21.6667C22.0809 20.917 22.4167 21.2528 22.4167 21.667C22.4167 22.0812 22.0809 22.417 21.6667 22.417H11.6667C11.2525 22.417 10.9167 22.0812 10.9167 21.667ZM11.6667 27.5837C11.2525 27.5837 10.9167 27.9194 10.9167 28.3337C10.9167 28.7479 11.2525 29.0837 11.6667 29.0837H15C15.4142 29.0837 15.75 28.7479 15.75 28.3337C15.75 27.9194 15.4142 27.5837 15 27.5837H11.6667Z" fill="#461E80"/>
</svg>
