<svg width="40" height="40" viewBox="0 0 40 40" fill="none" xmlns="http://www.w3.org/2000/svg">
<path fill-rule="evenodd" clip-rule="evenodd" d="M20 3.62109C19.4817 3.62109 19.007 3.88486 18.0574 4.41238L7.05743 10.5235V10.5235C6.4682 10.8508 6.49132 11.6371 7.08056 11.9644L19.223 18.7102C19.5066 18.8677 19.6484 18.9465 19.7985 18.9774C19.9315 19.0047 20.0685 19.0047 20.2015 18.9774C20.3516 18.9465 20.4934 18.8677 20.777 18.7102L32.9194 11.9644C33.5087 11.6371 33.5318 10.8508 32.9426 10.5235V10.5235L21.9426 4.41238C20.993 3.88486 20.5183 3.62109 20 3.62109ZM35 14.0201C35 13.8845 35 14.2235 35 14.2231C34.9993 13.5184 34.1314 13.0078 33.5152 13.3494C33.5148 13.3496 33.7672 13.2094 33.6662 13.2655L21.573 19.9839C21.2734 20.1503 21.1237 20.2335 21.0146 20.3519C20.9182 20.4566 20.8451 20.5807 20.8005 20.7158C20.75 20.8686 20.75 21.0399 20.75 21.3826V34.862C20.75 35.5014 21.3836 35.8978 21.9426 35.5873V35.5873L32.9426 29.4762C33.9458 28.9188 34.4475 28.6401 34.7237 28.1706C35 27.7011 35 27.1273 35 25.9796V14.0201V14.0201ZM18.0574 35.5873C18.6164 35.8978 19.25 35.5014 19.25 34.862V21.3826C19.25 21.0399 19.25 20.8686 19.1995 20.7158C19.1549 20.5807 19.0818 20.4566 18.9854 20.3519C18.8763 20.2335 18.7266 20.1503 18.427 19.9839L6.33378 13.2655C6.23281 13.2094 6.48524 13.3496 6.48484 13.3494C5.86856 13.0078 5.00065 13.5184 5 14.2231C5 14.2235 5 13.8845 5 14.0201V14.0201V25.9796C5 27.1273 5 27.7011 5.27626 28.1706C5.55252 28.6401 6.05415 28.9188 7.05743 29.4762L18.0574 35.5873V35.5873Z" fill="#461E80"/>
</svg>
