<svg width="40" height="40" viewBox="0 0 40 40" fill="none" xmlns="http://www.w3.org/2000/svg">
<path fill-rule="evenodd" clip-rule="evenodd" d="M10.9451 7.58301L11 7.58301H29L29.0549 7.58301C30.4225 7.58299 31.5248 7.58297 32.3918 7.69953C33.2919 7.82055 34.0497 8.07944 34.6517 8.68136C35.2536 9.28327 35.5125 10.0411 35.6335 10.9413C35.75 11.8082 35.75 12.9105 35.75 14.2781V14.333V14.9997V21.6663C35.75 22.0806 35.4142 22.4163 35 22.4163C34.5858 22.4163 34.25 22.0806 34.25 21.6663V15.7497H5.75V25.6663C5.75 27.1018 5.75159 28.1029 5.85315 28.8582C5.9518 29.592 6.13225 29.9806 6.40901 30.2573C6.68577 30.5341 7.07435 30.7145 7.80812 30.8132C8.56347 30.9147 9.56458 30.9163 11 30.9163H20C20.4142 30.9163 20.75 31.2521 20.75 31.6663C20.75 32.0806 20.4142 32.4163 20 32.4163H11H10.9451C9.57754 32.4164 8.47522 32.4164 7.60825 32.2998C6.70814 32.1788 5.95027 31.9199 5.34835 31.318C4.74643 30.7161 4.48754 29.9582 4.36652 29.0581C4.24996 28.1911 4.24998 27.0888 4.25 25.7212L4.25 25.6663V14.9997V14.333L4.25 14.2781C4.24998 12.9105 4.24996 11.8082 4.36652 10.9413C4.48754 10.0412 4.74643 9.28328 5.34835 8.68136C5.95027 8.07944 6.70814 7.82055 7.60825 7.69953C8.47522 7.58297 9.57754 7.58299 10.9451 7.58301ZM33.8637 27.8027C33.5708 27.5098 33.0959 27.5098 32.803 27.8027C32.5101 28.0956 32.5101 28.5704 32.803 28.8633L34.856 30.9163H26.6667C26.2525 30.9163 25.9167 31.2521 25.9167 31.6663C25.9167 32.0806 26.2525 32.4163 26.6667 32.4163H34.856L32.803 34.4693C32.5101 34.7622 32.5101 35.2371 32.803 35.53C33.0959 35.8229 33.5708 35.8229 33.8637 35.53L37.197 32.1967C37.3377 32.056 37.4167 31.8653 37.4167 31.6663C37.4167 31.4674 37.3377 31.2767 37.197 31.136L33.8637 27.8027ZM11.6667 20.9163C11.2525 20.9163 10.9167 21.2521 10.9167 21.6663C10.9167 22.0806 11.2525 22.4163 11.6667 22.4163H16.6667C17.0809 22.4163 17.4167 22.0806 17.4167 21.6663C17.4167 21.2521 17.0809 20.9163 16.6667 20.9163H11.6667Z" fill="#461E80"/>
</svg>
