<svg width="40" height="40" viewBox="0 0 40 40" fill="none" xmlns="http://www.w3.org/2000/svg">
<path fill-rule="evenodd" clip-rule="evenodd" d="M3.33398 15.333C3.33398 9.67616 3.33398 6.84773 5.09134 5.09037C6.8487 3.33301 9.67713 3.33301 15.334 3.33301H24.6673C30.3242 3.33301 33.1526 3.33301 34.91 5.09037C36.6673 6.84773 36.6673 9.67615 36.6673 15.333V24.6663C36.6673 30.3232 36.6673 33.1516 34.91 34.909C33.1526 36.6663 30.3242 36.6663 24.6673 36.6663H15.334C9.67713 36.6663 6.8487 36.6663 5.09134 34.909C3.33398 33.1516 3.33398 30.3232 3.33398 24.6663V15.333ZM21.1118 19.9997H18.8895C17.4421 19.9997 16.7183 19.9997 16.1312 20.1848C14.8865 20.5772 13.9116 21.5522 13.5191 22.7969C13.334 23.384 13.334 24.1078 13.334 25.5552C13.334 26.279 13.334 26.6408 13.4265 26.9344C13.6228 27.5567 14.1102 28.0442 14.7326 28.2404C15.0262 28.333 15.388 28.333 16.1118 28.333H23.8895C24.6133 28.333 24.9751 28.333 25.2687 28.2404C25.8911 28.0442 26.3785 27.5567 26.5748 26.9344C26.6673 26.6408 26.6673 26.279 26.6673 25.5552C26.6673 24.1078 26.6673 23.384 26.4822 22.7969C26.0897 21.5522 25.1148 20.5772 23.8701 20.1848C23.283 19.9997 22.5592 19.9997 21.1118 19.9997ZM20.0007 16.6663C21.8416 16.6663 23.334 15.174 23.334 13.333C23.334 11.4921 21.8416 9.99967 20.0007 9.99967C18.1597 9.99967 16.6673 11.4921 16.6673 13.333C16.6673 15.174 18.1597 16.6663 20.0007 16.6663Z" fill="#461E80"/>
</svg>
