<svg width="40" height="40" viewBox="0 0 40 40" fill="none" xmlns="http://www.w3.org/2000/svg">
<path fill-rule="evenodd" clip-rule="evenodd" d="M2.46345 5.75C3.49618 5.75 4.20892 5.75109 4.76227 5.81317C5.29679 5.87314 5.60793 5.98365 5.85555 6.1571C6.10318 6.33054 6.31337 6.58518 6.55239 7.06703C6.79984 7.56585 7.04444 8.2353 7.39737 9.20585L11.1916 19.6401L11.2064 19.6807C11.541 20.6008 11.8134 21.3499 12.1026 21.9329C12.2186 22.1668 12.3418 22.3837 12.4796 22.5832H9.99935C7.74419 22.5832 5.91602 24.4114 5.91602 26.6666C5.91602 28.9217 7.74419 30.7499 9.99935 30.7499H11.8369C11.2613 31.4537 10.916 32.3531 10.916 33.3332C10.916 35.5884 12.7442 37.4166 14.9993 37.4166C17.2545 37.4166 19.0827 35.5884 19.0827 33.3332C19.0827 32.3531 18.7374 31.4537 18.1618 30.7499H25.1702C24.5947 31.4537 24.2493 32.3531 24.2493 33.3332C24.2493 35.5884 26.0775 37.4166 28.3327 37.4166C30.5878 37.4166 32.416 35.5884 32.416 33.3332C32.416 32.3531 32.0707 31.4537 31.4951 30.7499H34.9993C35.4136 30.7499 35.7493 30.4141 35.7493 29.9999C35.7493 29.5857 35.4136 29.2499 34.9993 29.2499H28.3327H14.9993H9.99935C8.57261 29.2499 7.41602 28.0933 7.41602 26.6666C7.41602 25.2398 8.57261 24.0832 9.99935 24.0832H17.1635C17.2706 24.0833 17.3801 24.0833 17.4919 24.0833H17.492H17.492H17.492H17.5352H27.508H27.5509H27.551H27.551H27.551C28.5202 24.0834 29.3093 24.0834 29.9501 24.0119C30.6191 23.9374 31.1985 23.779 31.723 23.4156C32.2475 23.0521 32.5992 22.5652 32.9039 21.965C33.1958 21.39 33.4729 20.6511 33.8131 19.7437L33.8132 19.7435L33.8132 19.7435L33.8282 19.7034L35.3416 15.6678L35.3634 15.6098C35.8052 14.4316 36.1664 13.4684 36.3337 12.6929C36.5072 11.8887 36.5121 11.1145 36.0403 10.4336C35.5685 9.75277 34.8418 9.48556 34.0279 9.36562C33.243 9.24994 32.2144 9.24997 30.956 9.25H30.956L30.894 9.25H9.16602C9.1143 9.25 9.06381 9.25523 9.01505 9.2652L8.80706 8.69324L8.79228 8.6526C8.4577 7.73246 8.18533 6.98341 7.89614 6.40044C7.59429 5.79194 7.24342 5.29785 6.7161 4.9285C6.18877 4.55915 5.60453 4.39826 4.92951 4.32253C4.2828 4.24997 3.48576 4.24998 2.50667 4.25L2.46345 4.25H1.66602C1.2518 4.25 0.916016 4.58579 0.916016 5C0.916016 5.41421 1.2518 5.75 1.66602 5.75H2.46345ZM28.3327 30.7499C26.9059 30.7499 25.7493 31.9065 25.7493 33.3332C25.7493 34.76 26.9059 35.9166 28.3327 35.9166C29.7594 35.9166 30.916 34.76 30.916 33.3332C30.916 31.9065 29.7594 30.7499 28.3327 30.7499ZM14.9993 30.7499C13.5726 30.7499 12.416 31.9065 12.416 33.3332C12.416 34.76 13.5726 35.9166 14.9993 35.9166C16.4261 35.9166 17.5827 34.76 17.5827 33.3332C17.5827 31.9065 16.4261 30.7499 14.9993 30.7499Z" fill="#461E80"/>
</svg>
