<svg width="40" height="40" viewBox="0 0 40 40" fill="none" xmlns="http://www.w3.org/2000/svg">
<path fill-rule="evenodd" clip-rule="evenodd" d="M13.334 4.25C9.23787 4.25 5.91732 7.57055 5.91732 11.6667C5.91732 15.7628 9.23787 19.0833 13.334 19.0833C17.4301 19.0833 20.7507 15.7628 20.7507 11.6667C20.7507 7.57055 17.4301 4.25 13.334 4.25ZM22.584 5C22.584 4.58579 22.9198 4.25 23.334 4.25C27.4301 4.25 30.7507 7.57055 30.7507 11.6667C30.7507 15.7628 27.4301 19.0833 23.334 19.0833C22.9198 19.0833 22.584 18.7475 22.584 18.3333C22.584 17.9191 22.9198 17.5833 23.334 17.5833C26.6017 17.5833 29.2507 14.9344 29.2507 11.6667C29.2507 8.39898 26.6017 5.75 23.334 5.75C22.9198 5.75 22.584 5.41421 22.584 5ZM10.0007 24.25H9.96386C8.74888 24.25 7.7861 24.25 7.01308 24.32C6.22196 24.3918 5.55626 24.5415 4.95899 24.8864C4.23689 25.3033 3.63726 25.9029 3.22036 26.625C2.87553 27.2223 2.72574 27.888 2.65403 28.6791C2.58397 29.4521 2.58398 30.4149 2.58399 31.6299L2.58399 31.6667L2.58398 31.7006C2.58397 32.2948 2.58396 32.7907 2.62054 33.1943C2.65875 33.6159 2.74155 34.0098 2.95242 34.375C3.19378 34.7931 3.54093 35.1402 3.95899 35.3816C4.32421 35.5924 4.71811 35.6752 5.13968 35.7134C5.54329 35.75 6.0392 35.75 6.63341 35.75H6.66732H20.0007H20.0346C20.6288 35.75 21.1247 35.75 21.5283 35.7134C21.9499 35.6752 22.3438 35.5924 22.709 35.3816C23.127 35.1402 23.4742 34.7931 23.7156 34.375C23.9264 34.0098 24.0092 33.6159 24.0474 33.1943C24.084 32.7907 24.084 32.2948 24.084 31.7006V31.7006V31.7005V31.7005V31.6667V31.6299C24.084 30.4149 24.084 29.4521 24.0139 28.6791C23.9422 27.888 23.7924 27.2223 23.4476 26.625C23.0307 25.9029 22.4311 25.3033 21.709 24.8864C21.1117 24.5415 20.446 24.3918 19.6549 24.32C18.8819 24.25 17.9191 24.25 16.7041 24.25H16.6673H10.0007ZM30.0007 25.75C31.2606 25.75 32.1554 25.7507 32.8528 25.8139C33.5399 25.8762 33.9614 25.9944 34.2923 26.1854C34.7864 26.4707 35.1967 26.8809 35.4819 27.375C35.673 27.7059 35.7911 28.1274 35.8534 28.8145C35.9166 29.5119 35.9173 30.4067 35.9173 31.6667C35.9173 32.3035 35.9166 32.7311 35.8869 33.0589C35.8581 33.3764 35.8069 33.5261 35.7499 33.625C35.6401 33.815 35.4823 33.9728 35.2923 34.0825C35.1934 34.1396 35.0438 34.1908 34.7262 34.2196C34.3984 34.2493 33.9709 34.25 33.334 34.25H26.6673C26.2531 34.25 25.9173 34.5858 25.9173 35C25.9173 35.4142 26.2531 35.75 26.6673 35.75H33.334H33.3679C33.9621 35.75 34.458 35.75 34.8616 35.7134C35.2832 35.6752 35.6771 35.5924 36.0423 35.3816C36.4604 35.1402 36.8075 34.7931 37.0489 34.375C37.2598 34.0098 37.3426 33.6159 37.3808 33.1943C37.4173 32.7908 37.4173 32.2949 37.4173 31.7009V31.7006V31.6667V31.6299C37.4173 30.4149 37.4173 29.4521 37.3473 28.6791C37.2756 27.888 37.1258 27.2223 36.7809 26.625C36.364 25.9029 35.7644 25.3033 35.0423 24.8864C34.445 24.5415 33.7793 24.3918 32.9882 24.32C32.2152 24.25 31.2524 24.25 30.0374 24.25H30.0007H26.6673C26.2531 24.25 25.9173 24.5858 25.9173 25C25.9173 25.4142 26.2531 25.75 26.6673 25.75H30.0007Z" fill="#461E80"/>
</svg>
