<svg width="40" height="40" viewBox="0 0 40 40" fill="none" xmlns="http://www.w3.org/2000/svg">
<path fill-rule="evenodd" clip-rule="evenodd" d="M8.94735 7.58301L8.99935 7.58301H30.9993L31.0514 7.58301C31.9498 7.58298 32.699 7.58296 33.2938 7.66292C33.9216 7.74733 34.4884 7.933 34.9439 8.38847C35.3994 8.84394 35.585 9.41074 35.6694 10.0385C35.7494 10.6333 35.7494 11.3825 35.7493 12.281V12.333V12.5969C36.0718 12.6079 36.3645 12.6276 36.6272 12.6629C37.255 12.7473 37.8218 12.933 38.2772 13.3885C38.7327 13.8439 38.9184 14.4107 39.0028 15.0385C39.0827 15.6333 39.0827 16.3824 39.0827 17.2809V17.281L39.0827 17.333V29.333L39.0827 29.385V29.3852C39.0827 30.2836 39.0827 31.0327 39.0028 31.6275C38.9184 32.2553 38.7327 32.8221 38.2772 33.2776C37.8218 33.733 37.255 33.9187 36.6272 34.0031C36.0324 34.0831 35.2832 34.083 34.3847 34.083H34.3847H34.3327H31.666H28.9993H28.9474H28.9473H28.8569H5.66602C4.71993 34.083 3.83844 33.8064 3.09801 33.3297C2.52016 33.3182 2.18592 33.2671 1.95891 33.0401C1.7319 32.8131 1.68084 32.4789 1.66935 31.901C1.19261 31.1606 0.916016 30.2791 0.916016 29.333C0.916016 28.3665 1.69952 27.583 2.66602 27.583H4.24935V12.333L4.24935 12.281C4.24932 11.3825 4.24929 10.6333 4.32926 10.0385C4.41367 9.41074 4.59934 8.84394 5.05481 8.38847C5.51028 7.933 6.07708 7.74733 6.70487 7.66292C7.29965 7.58296 8.04887 7.58298 8.94735 7.58301ZM34.2493 12.333V12.583H28.9993L28.9473 12.583C28.0489 12.583 27.2997 12.583 26.7049 12.6629C26.0771 12.7473 25.5103 12.933 25.0548 13.3885C24.5993 13.8439 24.4137 14.4107 24.3293 15.0385C24.2493 15.6333 24.2493 16.3825 24.2493 17.2809V17.281V17.281L24.2493 17.333V27.583H5.74935V12.333C5.74935 11.369 5.75094 10.7214 5.81588 10.2384C5.87793 9.77694 5.98515 9.57944 6.11547 9.44913C6.24578 9.31881 6.44328 9.21159 6.90474 9.14955C7.38778 9.0846 8.03534 9.08301 8.99935 9.08301H30.9993C31.9634 9.08301 32.6109 9.0846 33.094 9.14955C33.5554 9.21159 33.7529 9.31881 33.8832 9.44913C34.0135 9.57944 34.1208 9.77694 34.1828 10.2384C34.2478 10.7214 34.2493 11.369 34.2493 12.333ZM26.9047 32.5165C27.3878 32.5814 28.0353 32.583 28.9993 32.583H31.666H34.3327C35.2967 32.583 35.9443 32.5814 36.4273 32.5165C36.8887 32.4544 37.0862 32.3472 37.2166 32.2169C37.3469 32.0866 37.4541 31.8891 37.5161 31.4276C37.5811 30.9446 37.5827 30.297 37.5827 29.333V17.333C37.5827 16.369 37.5811 15.7214 37.5161 15.2384C37.4541 14.7769 37.3469 14.5794 37.2166 14.4491C37.0862 14.3188 36.8887 14.2116 36.4273 14.1495C35.9443 14.0846 35.2967 14.083 34.3327 14.083H28.9993C28.0353 14.083 27.3878 14.0846 26.9047 14.1495C26.4433 14.2116 26.2458 14.3188 26.1155 14.4491C25.9851 14.5794 25.8779 14.7769 25.8159 15.2384C25.7509 15.7214 25.7493 16.369 25.7493 17.333L25.7493 28.333L25.7493 29.333C25.7493 30.297 25.7509 30.9446 25.8159 31.4276C25.8779 31.8891 25.9851 32.0866 26.1155 32.2169C26.2458 32.3472 26.4433 32.4544 26.9047 32.5165ZM31.666 19.9997C32.5865 19.9997 33.3327 19.2535 33.3327 18.333C33.3327 17.4125 32.5865 16.6663 31.666 16.6663C30.7455 16.6663 29.9993 17.4125 29.9993 18.333C29.9993 19.2535 30.7455 19.9997 31.666 19.9997Z" fill="#461E80"/>
</svg>
