<svg width="40" height="40" viewBox="0 0 40 40" fill="none" xmlns="http://www.w3.org/2000/svg">
<path fill-rule="evenodd" clip-rule="evenodd" d="M15.5041 4.25L15.553 4.25H20.0006H24.4481L24.497 4.25C25.9867 4.24999 27.1727 4.24998 28.1202 4.36466C29.0984 4.48305 29.9077 4.73162 30.6043 5.28767C31.3009 5.84372 31.7226 6.57779 32.0548 7.50538C32.3767 8.40393 32.6395 9.56043 32.9696 11.013L32.9805 11.0608L35.0768 20.2847L35.0946 20.3628C35.4044 21.7259 35.582 22.507 35.6147 23.3083C35.6474 24.1095 35.5341 24.9025 35.3363 26.2863L35.325 26.3656L35.0576 28.2374L35.0503 28.2887C34.8226 29.8826 34.6416 31.1494 34.3711 32.1361C34.0922 33.1537 33.6955 33.9652 32.9769 34.5884C32.2583 35.2116 31.3989 35.4896 30.3521 35.6218C29.3371 35.75 28.0574 35.75 26.4473 35.75H26.3955H13.6056H13.5538C11.9437 35.75 10.664 35.75 9.64901 35.6218C8.60218 35.4896 7.74276 35.2116 7.02419 34.5884C6.30562 33.9652 5.90891 33.1537 5.62996 32.1361C5.35949 31.1494 5.17853 29.8826 4.95084 28.2887L4.94352 28.2374L4.67612 26.3656L4.66479 26.2863C4.46705 24.9025 4.35374 24.1095 4.38644 23.3083C4.41914 22.507 4.59669 21.7259 4.90654 20.3628L4.9243 20.2847L7.02063 11.0608L7.03148 11.0131C7.36161 9.56045 7.62444 8.40394 7.94627 7.50538C8.2785 6.57779 8.70024 5.84372 9.39684 5.28767C10.0934 4.73162 10.9027 4.48305 11.8809 4.36466C12.8284 4.24998 14.0144 4.24999 15.5041 4.25ZM12.0611 5.85379C11.2344 5.95386 10.7307 6.14221 10.3326 6.45998C9.93451 6.77776 9.63923 7.22716 9.35843 8.01116C9.07075 8.81436 8.82679 9.88205 8.48333 11.3933L6.387 20.6171V20.6171C6.05336 22.0851 7.14652 23.3333 8.65199 23.3333H11.1931C12.241 23.3333 12.765 23.3333 13.2071 23.57C13.6493 23.8066 13.94 24.2426 14.5213 25.1145L15.4797 26.5521C16.061 27.4241 16.3516 27.86 16.7938 28.0967C17.236 28.3333 17.7599 28.3333 18.8079 28.3333H21.1931C22.241 28.3333 22.765 28.3333 23.2071 28.0967C23.6493 27.86 23.94 27.4241 24.5213 26.5521L25.4797 25.1145C26.061 24.2426 26.3516 23.8066 26.7938 23.57C27.236 23.3333 27.7599 23.3333 28.8079 23.3333H31.3491C32.8546 23.3333 33.9477 22.0851 33.6141 20.6171V20.6171L31.5178 11.3932C31.1743 9.88205 30.9303 8.81436 30.6427 8.01116C30.3619 7.22716 30.0666 6.77776 29.6685 6.45998C29.2704 6.14221 28.7667 5.95386 27.94 5.85379C27.093 5.75128 25.9978 5.75 24.4481 5.75H20.0006H15.553C14.0033 5.75 12.9081 5.75128 12.0611 5.85379ZM16.6672 10.9167C16.253 10.9167 15.9172 11.2525 15.9172 11.6667C15.9172 12.0809 16.253 12.4167 16.6672 12.4167H23.3339C23.7481 12.4167 24.0839 12.0809 24.0839 11.6667C24.0839 11.2525 23.7481 10.9167 23.3339 10.9167H16.6672ZM13.3339 15.9167C12.9197 15.9167 12.5839 16.2525 12.5839 16.6667C12.5839 17.0809 12.9197 17.4167 13.3339 17.4167H26.6672C27.0814 17.4167 27.4172 17.0809 27.4172 16.6667C27.4172 16.2525 27.0814 15.9167 26.6672 15.9167H13.3339Z" fill="#461E80"/>
</svg>
