<svg width="41" height="40" viewBox="0 0 41 40" fill="none" xmlns="http://www.w3.org/2000/svg">
<path fill-rule="evenodd" clip-rule="evenodd" d="M8.33398 17.6169C8.33398 17.0775 7.62546 16.7695 7.2441 17.1509L3.86431 20.5307C3.57142 20.8236 3.09655 20.8236 2.80365 20.5307C2.51076 20.2378 2.51076 19.7629 2.80365 19.47L16.6419 5.63178L16.6787 5.59501L16.6787 5.59499C17.314 4.95966 17.8437 4.42987 18.3208 4.06584C18.8244 3.68161 19.3565 3.41211 20.0007 3.41211C20.6448 3.41211 21.1769 3.68161 21.6805 4.06584C22.1576 4.42987 22.6873 4.95966 23.3226 5.595L23.3594 5.63178L37.1977 19.47C37.4905 19.7629 37.4905 20.2378 37.1977 20.5307C36.9048 20.8236 36.4299 20.8236 36.137 20.5307L32.7572 17.1509C32.3758 16.7695 31.6673 17.0775 31.6673 17.6169V17.6169V29.0004C31.6673 31.8289 31.6673 33.2431 30.7886 34.1218C29.91 35.0004 28.4957 35.0004 25.6673 35.0004H14.334C11.5056 35.0004 10.0913 35.0004 9.21266 34.1218C8.33398 33.2431 8.33398 31.8289 8.33398 29.0004V17.6169V17.6169Z" fill="#461E80"/>
<path fill-rule="evenodd" clip-rule="evenodd" d="M21.7644 25.5713C21.7644 25.032 21.056 24.7241 20.6747 25.1054L19.2803 26.4997C18.9874 26.7926 18.5126 26.7926 18.2197 26.4997C17.9268 26.2069 17.9268 25.732 18.2197 25.4391L25.4391 18.2197L25.4759 18.1829C26.1112 17.5476 26.6409 17.0178 27.118 16.6537C27.6216 16.2695 28.1537 16 28.7978 16C29.442 16 29.9741 16.2695 30.4777 16.6537C30.9548 17.0178 31.4845 17.5476 32.1198 18.1829L32.1566 18.2197L39.376 25.4391C39.6689 25.732 39.6689 26.2069 39.376 26.4997C39.0831 26.7926 38.6083 26.7926 38.3154 26.4997L36.921 25.1054C36.5397 24.7241 35.8313 25.032 35.8313 25.5713V25.5713V29.0123C35.8313 31.8407 35.8313 33.2549 34.9527 34.1336C34.074 35.0123 32.6598 35.0123 29.8313 35.0123H27.7644C24.9359 35.0123 23.5217 35.0123 22.643 34.1336C21.7644 33.2549 21.7644 31.8407 21.7644 29.0123V25.5713V25.5713Z" fill="white"/>
<path d="M19.2803 26.4997L18.9268 26.1462L18.9268 26.1462L19.2803 26.4997ZM18.2197 26.4997L17.8661 26.8533L17.8661 26.8533L18.2197 26.4997ZM18.2197 25.4391L17.8661 25.0855L17.8661 25.0855L18.2197 25.4391ZM25.4391 18.2197L25.7926 18.5732L25.7927 18.5732L25.4391 18.2197ZM25.4759 18.1829L25.8294 18.5364L25.8294 18.5364L25.4759 18.1829ZM27.118 16.6537L27.4213 17.0512L27.4213 17.0512L27.118 16.6537ZM30.4777 16.6537L30.7809 16.2562L30.7809 16.2562L30.4777 16.6537ZM32.1198 18.1829L31.7663 18.5364L31.7663 18.5364L32.1198 18.1829ZM32.1566 18.2197L31.803 18.5732L31.8031 18.5732L32.1566 18.2197ZM39.376 25.4391L39.7296 25.0855L39.7296 25.0855L39.376 25.4391ZM39.376 26.4997L39.7296 26.8533L39.7296 26.8533L39.376 26.4997ZM38.3154 26.4997L37.9618 26.8533L37.9618 26.8533L38.3154 26.4997ZM34.9527 34.1336L35.3062 34.4872L35.3062 34.4872L34.9527 34.1336ZM36.921 25.1054L36.5675 25.459L36.921 25.1054ZM20.6747 25.1054L20.3211 24.7519L20.6747 25.1054ZM20.3211 24.7519L18.9268 26.1462L19.6339 26.8533L21.0282 25.459L20.3211 24.7519ZM18.9268 26.1462C18.8291 26.2438 18.6709 26.2438 18.5732 26.1462L17.8661 26.8533C18.3543 27.3415 19.1457 27.3415 19.6339 26.8533L18.9268 26.1462ZM18.5732 26.1462C18.4756 26.0486 18.4756 25.8903 18.5732 25.7926L17.8661 25.0855C17.378 25.5737 17.378 26.3651 17.8661 26.8533L18.5732 26.1462ZM18.5732 25.7926L25.7926 18.5732L25.0855 17.8661L17.8661 25.0855L18.5732 25.7926ZM25.7927 18.5732L25.8294 18.5364L25.1223 17.8293L25.0855 17.8661L25.7927 18.5732ZM25.8294 18.5364C26.4736 17.8922 26.9768 17.3904 27.4213 17.0512L26.8147 16.2562C26.305 16.6452 25.7487 17.2029 25.1223 17.8294L25.8294 18.5364ZM27.4213 17.0512C27.8807 16.7008 28.3072 16.5 28.7978 16.5V15.5C28.0003 15.5 27.3626 15.8382 26.8147 16.2562L27.4213 17.0512ZM28.7978 16.5C29.2885 16.5 29.715 16.7008 30.1744 17.0512L30.7809 16.2562C30.2331 15.8382 29.5954 15.5 28.7978 15.5V16.5ZM30.1744 17.0512C30.6188 17.3904 31.1221 17.8922 31.7663 18.5364L32.4734 17.8294C31.847 17.2029 31.2907 16.6452 30.7809 16.2562L30.1744 17.0512ZM31.7663 18.5364L31.803 18.5732L32.5102 17.8661L32.4734 17.8293L31.7663 18.5364ZM31.8031 18.5732L39.0225 25.7926L39.7296 25.0855L32.5102 17.8661L31.8031 18.5732ZM39.0225 25.7926C39.1201 25.8903 39.1201 26.0486 39.0225 26.1462L39.7296 26.8533C40.2177 26.3651 40.2177 25.5737 39.7296 25.0855L39.0225 25.7926ZM39.0225 26.1462C38.9248 26.2438 38.7665 26.2438 38.6689 26.1462L37.9618 26.8533C38.45 27.3415 39.2414 27.3415 39.7296 26.8533L39.0225 26.1462ZM38.6689 26.1462L37.2746 24.7519L36.5675 25.459L37.9618 26.8533L38.6689 26.1462ZM36.3313 29.0123V25.5713H35.3313V29.0123H36.3313ZM35.3062 34.4872C35.8539 33.9394 36.0998 33.2431 36.217 32.3707C36.3324 31.5127 36.3313 30.4124 36.3313 29.0123H35.3313C35.3313 30.4406 35.3303 31.4616 35.226 32.2375C35.1236 32.999 34.9301 33.4491 34.5991 33.7801L35.3062 34.4872ZM29.8313 35.5123C31.2314 35.5123 32.3318 35.5133 33.1898 35.398C34.0622 35.2807 34.7585 35.0349 35.3062 34.4872L34.5991 33.7801C34.2682 34.111 33.818 34.3045 33.0565 34.4069C32.2806 34.5112 31.2597 34.5123 29.8313 34.5123V35.5123ZM27.7644 35.5123H29.8313V34.5123H27.7644V35.5123ZM22.2895 34.4872C22.8372 35.0349 23.5335 35.2807 24.4059 35.398C25.2639 35.5133 26.3643 35.5123 27.7644 35.5123V34.5123C26.336 34.5123 25.315 34.5112 24.5392 34.4069C23.7777 34.3045 23.3275 34.111 22.9966 33.7801L22.2895 34.4872ZM21.2644 29.0123C21.2644 30.4124 21.2633 31.5127 21.3786 32.3707C21.4959 33.2431 21.7418 33.9394 22.2895 34.4872L22.9966 33.7801C22.6656 33.4491 22.4721 32.999 22.3697 32.2375C22.2654 31.4616 22.2644 30.4406 22.2644 29.0123H21.2644ZM21.2644 25.5713V29.0123H22.2644V25.5713H21.2644ZM37.2746 24.7519C36.9095 24.3868 36.4066 24.3742 36.0355 24.5339C35.6656 24.6931 35.3313 25.0633 35.3313 25.5713H36.3313C36.3313 25.54 36.3513 25.4866 36.4308 25.4524C36.4672 25.4368 36.5001 25.4339 36.5225 25.4369C36.5411 25.4395 36.5543 25.4458 36.5675 25.459L37.2746 24.7519ZM21.0282 25.459C21.0414 25.4458 21.0546 25.4395 21.0732 25.437C21.0956 25.4339 21.1285 25.4368 21.1648 25.4524C21.2444 25.4866 21.2644 25.54 21.2644 25.5713H22.2644C22.2644 25.0633 21.9301 24.6931 21.5601 24.5339C21.1891 24.3742 20.6862 24.3868 20.3211 24.7519L21.0282 25.459Z" fill="#461E80"/>
</svg>
