<svg width="40" height="40" viewBox="0 0 40 40" fill="none" xmlns="http://www.w3.org/2000/svg">
<path fill-rule="evenodd" clip-rule="evenodd" d="M9.33398 4.25L9.27911 4.25C7.91152 4.24998 6.8092 4.24997 5.94223 4.36653C5.04213 4.48754 4.28425 4.74644 3.68233 5.34835C3.08042 5.95027 2.82152 6.70814 2.70051 7.60825C2.58395 8.47522 2.58396 9.57754 2.58398 10.9451L2.58399 11L2.58399 29L2.58399 29.0549C2.58397 30.4225 2.58395 31.5248 2.70051 32.3918C2.82153 33.2919 3.08042 34.0497 3.68234 34.6517C4.28426 35.2536 5.04213 35.5125 5.94224 35.6335C6.80921 35.75 7.91153 35.75 9.27913 35.75H9.33399H20.6673H20.7222H20.7223C22.0899 35.75 23.1921 35.75 24.0591 35.6335C24.9592 35.5125 25.7171 35.2536 26.319 34.6517C26.9209 34.0497 27.1798 33.2919 27.3008 32.3918C27.4165 31.5308 27.4173 30.4378 27.4173 29.0833L32.6673 29.0833H32.7193C33.6178 29.0834 34.367 29.0834 34.9618 29.0034C35.5896 28.919 36.1564 28.7333 36.6119 28.2779C37.0673 27.8224 37.253 27.2556 37.3374 26.6278C37.4174 26.033 37.4174 25.2838 37.4173 24.3853V24.3333L37.4173 15.6667L37.4173 15.6147V15.6145C37.4173 14.7161 37.4174 13.9669 37.3374 13.3722C37.253 12.7444 37.0673 12.1776 36.6119 11.7221C36.1564 11.2667 35.5896 11.081 34.9618 10.9966C34.367 10.9166 33.6178 10.9166 32.7193 10.9167L32.6673 10.9167L27.4173 10.9167C27.4173 9.56224 27.4165 8.46919 27.3008 7.60825C27.1798 6.70814 26.9209 5.95027 26.319 5.34835C25.717 4.74643 24.9592 4.48754 24.0591 4.36652C23.1921 4.24996 22.0898 4.24998 20.7222 4.25L20.6673 4.25L9.33398 4.25ZM27.4173 12.4167L32.6673 12.4167C33.6313 12.4167 34.2789 12.4183 34.7619 12.4832C35.2234 12.5452 35.4209 12.6525 35.5512 12.7828C35.6815 12.9131 35.7887 13.1106 35.8508 13.5721C35.9157 14.0551 35.9173 14.7027 35.9173 15.6667V15.9212C35.89 15.9182 35.8622 15.9167 35.834 15.9167L27.4173 15.9167V12.4167ZM35.834 17.4167C35.8622 17.4167 35.89 17.4151 35.9173 17.4121L35.9173 24.3333C35.9173 25.2973 35.9157 25.9449 35.8508 26.4279C35.7887 26.8894 35.6815 27.0869 35.5512 27.2172C35.4209 27.3475 35.2234 27.4548 34.7619 27.5168C34.2789 27.5817 33.6313 27.5833 32.6673 27.5833L27.4173 27.5833L27.4173 17.4167L35.834 17.4167ZM8.33398 13C8.33398 11.5858 8.33398 10.8787 8.77332 10.4393C9.21266 10 9.91976 10 11.334 10L18.6673 9.99999C20.0815 9.99999 20.7886 9.99999 21.228 10.4393C21.6673 10.8787 21.6673 11.5858 21.6673 13V13.6667C21.6673 15.0809 21.6673 15.788 21.228 16.2273C20.7886 16.6667 20.0815 16.6667 18.6673 16.6667L11.334 16.6667C9.91976 16.6667 9.21266 16.6667 8.77332 16.2273C8.33398 15.788 8.33398 15.0809 8.33398 13.6667V13ZM10.0006 25C10.9211 25 11.6673 24.2538 11.6673 23.3333C11.6673 22.4129 10.9211 21.6667 10.0006 21.6667C9.08017 21.6667 8.33398 22.4129 8.33398 23.3333C8.33398 24.2538 9.08017 25 10.0006 25ZM11.6673 28.3333C11.6673 29.2538 10.9211 30 10.0006 30C9.08017 30 8.33398 29.2538 8.33398 28.3333C8.33398 27.4129 9.08017 26.6667 10.0006 26.6667C10.9211 26.6667 11.6673 27.4129 11.6673 28.3333ZM15.0006 25C15.9211 25 16.6673 24.2538 16.6673 23.3333C16.6673 22.4129 15.9211 21.6667 15.0006 21.6667C14.0802 21.6667 13.334 22.4129 13.334 23.3333C13.334 24.2538 14.0802 25 15.0006 25ZM16.6673 28.3333C16.6673 29.2538 15.9211 30 15.0006 30C14.0802 30 13.334 29.2538 13.334 28.3333C13.334 27.4129 14.0802 26.6667 15.0006 26.6667C15.9211 26.6667 16.6673 27.4129 16.6673 28.3333ZM20.0006 25C20.9211 25 21.6673 24.2538 21.6673 23.3333C21.6673 22.4129 20.9211 21.6667 20.0006 21.6667C19.0802 21.6667 18.334 22.4129 18.334 23.3333C18.334 24.2538 19.0802 25 20.0006 25ZM21.6673 28.3333C21.6673 29.2538 20.9211 30 20.0006 30C19.0802 30 18.334 29.2538 18.334 28.3333C18.334 27.4129 19.0802 26.6667 20.0006 26.6667C20.9211 26.6667 21.6673 27.4129 21.6673 28.3333Z" fill="#461E80"/>
</svg>
