<svg width="40" height="40" viewBox="0 0 40 40" fill="none" xmlns="http://www.w3.org/2000/svg">
<path fill-rule="evenodd" clip-rule="evenodd" d="M4.21266 4.21169C3.33398 5.09037 3.33398 6.50458 3.33398 9.33301V20.6663C3.33398 23.4948 3.33398 24.909 4.21266 25.7877C5.09134 26.6663 6.50556 26.6663 9.33399 26.6663H12.6371C12.6028 26.7523 12.584 26.846 12.584 26.9441V30.6663L12.584 30.7212V30.7213C12.584 32.0888 12.5839 33.1911 12.7005 34.0581C12.8215 34.9582 13.0804 35.7161 13.6823 36.318C14.2843 36.9199 15.0421 37.1788 15.9422 37.2998C16.8092 37.4164 17.9115 37.4164 19.2791 37.4163H19.334H30.6673H30.7222C32.0898 37.4164 33.1921 37.4164 34.0591 37.2998C34.9592 37.1788 35.7171 36.9199 36.319 36.318C36.9209 35.7161 37.1798 34.9582 37.3008 34.0581C37.4174 33.1911 37.4173 32.0888 37.4173 30.7212V30.6663V19.333V19.2781C37.4173 17.9105 37.4174 16.8082 37.3008 15.9413C37.1798 15.0411 36.9209 14.2833 36.319 13.6814C35.7171 13.0794 34.9592 12.8205 34.0591 12.6995C33.1921 12.583 32.0898 12.583 30.7222 12.583H30.7222L30.6673 12.583H26.9451C26.847 12.583 26.7532 12.6019 26.6673 12.6361V9.33301C26.6673 6.50458 26.6673 5.09037 25.7886 4.21169C24.91 3.33301 23.4957 3.33301 20.6673 3.33301H9.33399C6.50556 3.33301 5.09134 3.33301 4.21266 4.21169ZM26.6673 14.0299V20.6663C26.6673 23.4948 26.6673 24.909 25.7886 25.7877C24.91 26.6663 23.4957 26.6663 20.6673 26.6663H14.0309C14.0651 26.7523 14.084 26.846 14.084 26.9441V30.6663C14.084 32.1018 14.0856 33.1029 14.1871 33.8582C14.2858 34.592 14.4662 34.9806 14.743 35.2573C15.0198 35.5341 15.4083 35.7145 16.1421 35.8132C16.8975 35.9147 17.8986 35.9163 19.334 35.9163H30.6673C32.1027 35.9163 33.1038 35.9147 33.8592 35.8132C34.593 35.7145 34.9815 35.5341 35.2583 35.2573C35.5351 34.9806 35.7155 34.592 35.8142 33.8582C35.9157 33.1029 35.9173 32.1018 35.9173 30.6663V19.333C35.9173 17.8976 35.9157 16.8965 35.8142 16.1411C35.7155 15.4074 35.5351 15.0188 35.2583 14.742C34.9815 14.4653 34.593 14.2848 33.8592 14.1862C33.1038 14.0846 32.1027 14.083 30.6673 14.083H26.9451C26.847 14.083 26.7532 14.0642 26.6673 14.0299Z" fill="#461E80"/>
</svg>
