<svg width="40" height="40" viewBox="0 0 40 40" fill="none" xmlns="http://www.w3.org/2000/svg">
<path fill-rule="evenodd" clip-rule="evenodd" d="M9.27911 7.58301L9.33399 7.58301H27.334L27.3889 7.58301C28.7565 7.58299 29.8588 7.58297 30.7257 7.69953C31.6258 7.82055 32.3837 8.07944 32.9856 8.68136C33.5876 9.28327 33.8464 10.0411 33.9675 10.9413C34.084 11.8082 34.084 12.9105 34.084 14.2781V14.333V14.9997V21.6663C34.084 22.0806 33.7482 22.4163 33.334 22.4163C32.9198 22.4163 32.584 22.0806 32.584 21.6663V15.7497H4.08399V25.6663C4.08399 27.1018 4.08558 28.1029 4.18713 28.8582C4.28579 29.592 4.46623 29.9806 4.743 30.2573C5.01976 30.5341 5.40833 30.7145 6.14211 30.8132C6.89746 30.9147 7.89857 30.9163 9.33399 30.9163H23.334C23.7482 30.9163 24.084 31.2521 24.084 31.6663C24.084 32.0806 23.7482 32.4163 23.334 32.4163H9.33399H9.27912C7.91152 32.4164 6.8092 32.4164 5.94223 32.2998C5.04213 32.1788 4.28425 31.9199 3.68234 31.318C3.08042 30.7161 2.82152 29.9582 2.70051 29.0581C2.58395 28.1911 2.58396 27.0888 2.58398 25.7212L2.58399 25.6663V14.9997V14.333L2.58398 14.2781C2.58396 12.9105 2.58395 11.8082 2.70051 10.9413C2.82152 10.0412 3.08042 9.28328 3.68234 8.68136C4.28425 8.07944 5.04213 7.82055 5.94223 7.69953C6.8092 7.58297 7.91152 7.58299 9.27911 7.58301ZM34.084 27.4996C34.084 27.0854 33.7482 26.7496 33.334 26.7496C32.9198 26.7496 32.584 27.0854 32.584 27.4996V30.9163H29.1673C28.7531 30.9163 28.4173 31.2521 28.4173 31.6663C28.4173 32.0806 28.7531 32.4163 29.1673 32.4163H32.584V35.833C32.584 36.2472 32.9198 36.583 33.334 36.583C33.7482 36.583 34.084 36.2472 34.084 35.833V32.4163H37.5007C37.9149 32.4163 38.2507 32.0806 38.2507 31.6663C38.2507 31.2521 37.9149 30.9163 37.5007 30.9163H34.084V27.4996ZM10.0007 20.9163C9.58644 20.9163 9.25065 21.2521 9.25065 21.6663C9.25065 22.0806 9.58644 22.4163 10.0007 22.4163H15.0007C15.4149 22.4163 15.7507 22.0806 15.7507 21.6663C15.7507 21.2521 15.4149 20.9163 15.0007 20.9163H10.0007Z" fill="#461E80"/>
</svg>
