<svg width="40" height="40" viewBox="0 0 40 40" fill="none" xmlns="http://www.w3.org/2000/svg">
<path fill-rule="evenodd" clip-rule="evenodd" d="M8.86431 3.86334C9.15721 3.57044 9.15721 3.09557 8.86431 2.80268C8.57142 2.50978 8.09655 2.50978 7.80365 2.80268L2.80365 7.80268C2.51076 8.09557 2.51076 8.57044 2.80365 8.86334C3.09655 9.15623 3.57142 9.15623 3.86431 8.86334L8.86431 3.86334ZM20.0007 4.24967C11.3022 4.24967 4.25065 11.3012 4.25065 19.9997C4.25065 28.6982 11.3022 35.7497 20.0007 35.7497C28.6991 35.7497 35.7507 28.6982 35.7507 19.9997C35.7507 11.3012 28.6991 4.24967 20.0007 4.24967ZM31.137 2.80268C30.8441 3.09557 30.8441 3.57044 31.137 3.86334L36.137 8.86334C36.4299 9.15623 36.9048 9.15623 37.1976 8.86334C37.4905 8.57044 37.4905 8.09557 37.1976 7.80268L32.1976 2.80268C31.9048 2.50978 31.4299 2.50978 31.137 2.80268ZM27.1976 14.4693C27.4905 14.7622 27.4905 15.2371 27.1976 15.53L18.8643 23.8633C18.7237 24.004 18.5329 24.083 18.334 24.083C18.1351 24.083 17.9443 24.004 17.8037 23.8633L14.4703 20.53C14.1774 20.2371 14.1774 19.7622 14.4703 19.4693C14.7632 19.1765 15.2381 19.1765 15.531 19.4693L18.334 22.2723L26.137 14.4693C26.4299 14.1765 26.9048 14.1765 27.1976 14.4693Z" fill="#461E80"/>
</svg>
