<?xml version="1.0" encoding="utf-8"?>
<!-- Generator: Adobe Illustrator 19.0.0, SVG Export Plug-In . SVG Version: 6.00 Build 0)  -->
<svg version="1.1" xmlns="http://www.w3.org/2000/svg" xmlns:xlink="http://www.w3.org/1999/xlink" x="0px" y="0px"
	 viewBox="0 0 3484.5 2000" style="enable-background:new 0 0 3484.5 2000;" xml:space="preserve">
<style type="text/css">
	.st0{fill:#FFFFFF;}
	.st1{fill:#9EDFF6;}
	.st2{fill:url(#SVGID_1_);}
	.st3{fill:#5CBF5C;}
	.st4{fill:#D38E5F;}
	.st5{fill:#F7B284;}
	.st6{fill:#184655;}
	.st7{fill:#492D20;}
	.st8{fill:#439B67;}
	.st9{fill:#50BC80;}
	.st10{fill:#DD9868;}
	.st11{fill:#3C698E;}
	.st12{fill:#DD9A58;}
	.st13{fill:#F7A491;}
	.st14{fill:#355389;}
	.st15{fill:#466EB6;}
	.st16{fill:#CE3232;}
	.st17{fill:#EF3F3F;}
	.st18{fill:#F4B876;}
	.st19{fill:#0F2C44;}
	.st20{fill:#13375B;}
	.st21{fill:#20110C;}
	.st22{fill:#232B38;}
	.st23{fill:#575570;}
	.st24{fill:#D8328D;}
	.st25{fill:#F94BAB;}
	.st26{fill:#271798;}
	.st27{fill:#001653;}
	.st28{opacity:0.18;fill:#001653;}
	.st29{opacity:0.65;fill:#F26E5A;}
	.st30{fill:#FF7446;}
	.st31{fill:#422F7F;}
	.st32{fill:#9CB9BD;}
	.st33{fill:#021753;}
	.st34{fill:#EBCE9A;}
	.st35{fill:#FAE0B2;}
	.st36{fill:#EBC98D;}
	.st37{fill:#F7CC7F;}
	.st38{fill:#DB9044;}
	.st39{fill:#F99662;}
	.st40{fill:#F26E5A;}
	.st41{fill:#4987AA;}
	.st42{fill:#CAD4ED;}
	.st43{fill:#F7F077;}
	.st44{fill:#7B7B84;}
	.st45{fill:#EDE6D9;}
	.st46{fill:#F7BC39;}
	.st47{fill:#E5A930;}
	.st48{fill:#B9B9C1;}
	.st49{fill:#9898A0;}
	.st50{fill:#282828;}
	.st51{fill:#3F66A0;}
	.st52{fill:#FAFAFA;}
	.st53{fill:#FFAB91;}
	.st54{fill:#151B1E;}
	.st55{fill:url(#SVGID_2_);}
	.st56{fill:#EEEBD4;}
	.st57{fill:#D6D5CA;}
	.st58{fill:#D4C4C1;}
	.st59{fill-rule:evenodd;clip-rule:evenodd;fill:#EBECEF;}
	.st60{fill-rule:evenodd;clip-rule:evenodd;fill:#ABACAE;}
	.st61{fill-rule:evenodd;clip-rule:evenodd;fill:#454035;}
	.st62{fill-rule:evenodd;clip-rule:evenodd;fill:#58595B;}
	.st63{fill-rule:evenodd;clip-rule:evenodd;fill:#404041;}
	.st64{fill-rule:evenodd;clip-rule:evenodd;fill:#6C8BC6;}
	.st65{fill-rule:evenodd;clip-rule:evenodd;fill:#6481B9;}
	.st66{fill-rule:evenodd;clip-rule:evenodd;fill:#485E87;}
	.st67{fill-rule:evenodd;clip-rule:evenodd;fill:#504D6B;}
	.st68{fill-rule:evenodd;clip-rule:evenodd;fill:#44535B;}
	.st69{fill-rule:evenodd;clip-rule:evenodd;fill:#38454E;}
	.st70{fill-rule:evenodd;clip-rule:evenodd;fill:#FBD2C0;}
	.st71{fill-rule:evenodd;clip-rule:evenodd;fill:#DBB4A5;}
	.st72{fill-rule:evenodd;clip-rule:evenodd;fill:#414142;}
	.st73{fill-rule:evenodd;clip-rule:evenodd;fill:url(#XMLID_2_);}
	.st74{fill-rule:evenodd;clip-rule:evenodd;fill:url(#XMLID_3_);}
	.st75{fill-rule:evenodd;clip-rule:evenodd;fill:url(#XMLID_4_);}
	.st76{fill-rule:evenodd;clip-rule:evenodd;fill:#7E5F59;}
	.st77{fill-rule:evenodd;clip-rule:evenodd;fill:#FDA55A;}
	.st78{fill-rule:evenodd;clip-rule:evenodd;fill:#A24A49;}
	.st79{fill-rule:evenodd;clip-rule:evenodd;fill:#7E6E7C;}
	.st80{fill-rule:evenodd;clip-rule:evenodd;fill:#FFFFFF;}
	.st81{fill-rule:evenodd;clip-rule:evenodd;fill:#583933;}
	.st82{fill-rule:evenodd;clip-rule:evenodd;fill:#D77F34;}
	.st83{fill-rule:evenodd;clip-rule:evenodd;fill:#7C2423;}
	.st84{fill-rule:evenodd;clip-rule:evenodd;fill:#584856;}
	.st85{fill:#7C3B8C;}
	.st86{font-family:'Bauhaus93';}
	.st87{font-size:38.0404px;}
</style>
<g id="Layer_1">
	<g>
		<g>
			<rect x="2.1" class="st0" width="3484.5" height="2000"/>
			<g>
				<path class="st1" d="M341.8,1842c0,0-187.4-647.3,167.6-1029c227.4-244.4,598.3-171.8,598.3-171.8S1614.2-97.9,2109.5,217
					c665.8,423.3,650.9,2.1,1001.5,247.6c418.4,292.9,0,1417.6,0,1417.6L341.8,1842z"/>
				<linearGradient id="SVGID_1_" gradientUnits="userSpaceOnUse" x1="358.0458" y1="1155.9955" x2="3199.6389" y2="1155.9955">
					<stop  offset="0" style="stop-color:#BCE3F1"/>
					<stop  offset="1" style="stop-color:#D0F7FF"/>
				</linearGradient>
				<path class="st2" d="M3073.5,717.5c-292.3-345.4-512,125.1-939.2-182.4c-611.8-440.4-656.6,714.4-863,681.3
					C977,1169.3,942.2,920,601.5,1128.7c-85.1,52.1-199,185.7-230.6,342c-33.1,164,7.8,355.2,7.8,355.2l2707.6,51.3
					C3160.4,1697.2,3305.6,991.9,3073.5,717.5z"/>
				<path class="st3" d="M3142.1,1887.3H326.5c-30.2,0-54.6-24.5-54.6-54.6v-6.8h2924.8v6.8
					C3196.7,1862.8,3172.2,1887.3,3142.1,1887.3z"/>
			</g>
		</g>
		<g>
			<g>
				<path class="st4" d="M2906.1,836.1l-6.5-29.4c0,0-21.2,13.4-33.5,32.6c-12.4,19.2-18.2,70.4-21.8,72.3
					c-3.5,1.9-42.6-58.3-49.5-67.8c-8.5-11.7-11.6-25.2-16.9-35.5c-5.3-10.2-23.9-13.7-31-12.4c-7.1,1.3,9.7,31.2,9.7,31.2
					s42.4,73.6,56.5,113.9c14.1,40.3,58.2,59.5,65.3,53.8C2885.5,989,2906.1,836.1,2906.1,836.1z"/>
				<path class="st5" d="M2777.5,813.9c0,0-1.8-7.7-6.5-9.3c-4.8-1.6-13-0.2-13.6,0c-0.5,0.2-9.7-4.8-9.7-4.8l7.6,14.1
					c0,0,14.8,17.4,19.7,10.9C2779.9,818.3,2777.5,813.9,2777.5,813.9z"/>
				<path class="st5" d="M2745.1,800.5c0,0-5.3,27.2-4,32.9c1.4,5.7,4.8,2.6,5.4,1.4c2.6-5.1,4.5-22.5,4.5-22.5L2745.1,800.5z"/>
				<path class="st5" d="M2756.6,823.1c0,0-2.5,16.9-5.2,18.8c-1.7,1.3-3.9,0.5-4.6-2.9c-0.7-3.4,3.4-24.2,3.4-24.2L2756.6,823.1z"
					/>
				<path class="st6" d="M2767.8,853.7l8.9-4.3l-37.7-77.3l0,0c-4.9,2.4-6.9,8.3-4.5,13.2L2767.8,853.7z"/>
				<path class="st7" d="M2866.8,715c-5.3-24.2-10.5-48.5,3.5-75c11.3-21.5,30.9-33.8,53.6-36.5c64.3-7.6,50.5,52.4,140.4,65.4
					c27.9,4,53.8,7.9,77.2,21.8c42.1,25.1,58,65.3,30.1,130.8c-68.3,160.4-236.1,24.2-256.8-7.4
					C2899.3,790.6,2870.2,730.6,2866.8,715z"/>
				<path class="st5" d="M3123.8,1728.3c0,0,4.6,46.5,16.3,55c11.8,8.5,27.5,40.1,19.6,57.2c-2.5,5.3-7.4,8.4-12.9,10.1
					c-16.5,5.1-34.1-3.5-41.2-19.3c-3.9-8.8-7.4-20.6-8.1-35.4c-1.8-37.8-13.5-57-13.5-57L3123.8,1728.3z"/>
				<path class="st5" d="M2943,1747.3c0,0-3.7,46.9-0.7,62.1c1.6,8.2,10.6,25,6.5,32.6c-4.1,7.7-8.8,9.6-8.8,9.6l-106.7,1.7
					c-5.8,0.1-2-3.6,2.7-7.1c7.7-5.6,13.9-9.4,38.4-21.2c1.6-0.8,7.4-4.5,9.5-5.7c5.3-3.2,10.7-8.3,15.3-13.5
					c7.7-8.5,8.3-49.8,8.3-49.8L2943,1747.3z"/>
				<path class="st8" d="M2859.6,1124c0,0-13.4,76.1-4.6,126c8.8,49.9,51.2,512.6,51.2,512.6l47.1,2.6c0,0,9.9-193.3,8.1-220.1
					c-1.8-26.9-15.7-71.9-15.7-71.9l4.7-156l-59.4-205L2859.6,1124z"/>
				<path class="st9" d="M2997.9,1108c0,0,37.1,55.7,45.9,101.7c8.8,46.1-6.5,187.7,10.5,248c9.2,32.7,44,83.2,49.3,125.4
					c5.3,42.2,26.1,152.9,26.1,152.9l-47,9.3l-109.3-276.3l-85.8-249.7l-22-128.6L2997.9,1108z"/>
				<path class="st0" d="M2967.9,791.3c0,0,32.5,3.7,51.9,24.8c19.4,21.1-31.4,190.9-34.9,217.7c-3.5,26.9,28.9,89.6,28.9,89.6
					s-121.3,22.4-154.2,0.7c0,0-3.5-193.3,0-212.5c3.5-19.2,32.9-97.3,40-105C2906.7,798.9,2967.9,791.3,2967.9,791.3z"/>
				<path class="st5" d="M3013.8,832c-3.1-9.5-13.9-14-23-10.1c-12.5,5.4-29.8,15.7-38.3,33.3c-14.1,29.4-63.5,130.5-78.8,134.4
					c-15.3,3.8-77.7-105-77.7-105s1.8-19.2-3.5-30.1c-5.3-10.9-21.2-22.4-23.5-18.6c-2.4,3.8,8.8,13.4,8.8,15.4
					c0,1.9-4.7,3.2-11.2-0.6c-6.5-3.8-10-11.6-10-11.6s-10.6,19.3,0.6,36.6c11.2,17.3,15.9,24.3,15.9,24.3s72.4,160.6,98.8,162.5
					C2896.6,1064.4,3038.6,906.9,3013.8,832z"/>
				<path class="st5" d="M2951.6,725.8c0,0,0.3,1.4,0.7,3.9c2.2,11.8,10.6,50.8,16.3,61.6c6.9,13-23.5,54.4-52.8,49.3
					c-8.7-1.5,7.4-38,6.6-41.9c-1.5-7.4-3.5-17.5-5.5-27.9c-1.2-5.8-2.3-11.8-3.4-17.3c-3.1-15.8-5.7-28.8-5.7-28.8L2951.6,725.8z"
					/>
				<path class="st10" d="M2952.3,729.7c-0.5-2.5-0.7-3.9-0.7-3.9l-43.9-1.1c0,0,2.6,12.9,5.7,28.8c1.1,5.5,2.3,11.4,3.4,17.2
					c6.8-1,13.9-4.3,21-10.5c7.7-6.8,12.8-14.9,15.9-23.6C2953.1,733.9,2952.7,731.5,2952.3,729.7z"/>
				<path class="st5" d="M2925.2,621.5c0,0,17.9,2.5,30.9,19.2c13,16.7,26.9,68.5-5.3,96.6c-32.2,28.1-64-3.7-68.7-37.5
					C2877.3,666.1,2878.3,620.3,2925.2,621.5z"/>
				<path class="st5" d="M2871.7,688.3c3.8,7.5,10.3,11.6,14.4,9.2c4.1-2.4,4.3-10.3,0.5-17.8c-3.8-7.5-10.3-11.6-14.4-9.2
					C2868.1,672.9,2867.9,680.9,2871.7,688.3z"/>
				<path class="st7" d="M2919.8,620.7c0,0,27.6,49.2,47.4,51.5c19.8,2.3,22.4,28.4,22.4,28.4s-7.1-60.3-26.6-71.9
					C2943.3,617.2,2919.8,620.7,2919.8,620.7z"/>
				<path class="st5" d="M2960.7,684c-1.6,8.7,1.6,16.8,7.2,17.9c5.6,1.1,11.4-5,13-13.7c1.6-8.7-1.6-16.8-7.2-17.9
					C2968.1,669.1,2962.3,675.2,2960.7,684z"/>
				<path class="st11" d="M3102.5,1823c25.6,4.7,42.7-10.3,51.6-21.5c6.5,12.7,10.5,28.5,5.7,39c-4.2,9.2-15.7,11.7-25.4,12.1
					c-10.3,0.4-19.9-5-25-13.9C3107,1834.5,3104.5,1829.3,3102.5,1823z"/>
				<path class="st11" d="M2883.9,1819.4c28.2,7.2,49.1,2.3,60.8-2.4c3,8.5,7,19.2,4.9,25.4c-2.6,7.5-6.3,9.2-9.5,9.3
					c-25.8,0.7-94.4,1.6-114.1,1.9c-2.7,0-4.3-3.2-2.5-5.3C2828.3,1842.5,2881.8,1820.7,2883.9,1819.4z"/>
			</g>
			<g>
				<path class="st12" d="M2302.7,1129.8c19.9-5.7,20.4-2.2,22.9-3c3-0.9,27-33.5,27-33.5s71.5-95.3,75.1-100.6l22.5-123.4l67.7-0.5
					c0,0-28.3,133.2-31.1,139.8s-116,123-125.6,133.6c0,0-6.2,17.2-10.5,27.9c-4.3,10.6-13.4,18.4-15.1,21.2
					c-0.3,0.4-6.5,9.3-17.4,17.9c-9.4,7.4-4.4-4.1-4.4-4.1s14.5-17.1,12.8-18.1c-1.3-0.8-8.6,9-18.9,17.4c-2.6,2.1-5.3,4.3-7.7,6.2
					c-6.4,5-11.8,2.4-6.1-4c2-2.3,5.5-5.9,8.3-8.1c3.1-2.4,5-5.7,7.3-8.1c4.5-4.8,7.8-8.3,7.5-8.4c-0.4-0.1-0.3-1.8-3.2,0.4
					c-3.5,2.6-9.4,9.9-14.9,13.4c-3.1,2-9.3,6.4-9.3,6.4s-10.8,5-11.4,4.4c-3.1-3,3.1-8.5,7.7-10.6c2.1-2.9,8.7-7.4,8.7-7.4
					s11-12.3,9.1-14c-0.8-0.7-8.6,5.9-17.4,11.2c-8.2,4.9-17.4,8.5-18.8,6.9c-2.4-2.6,6-9,6-9s6.2-4.2,8.1-5.7
					c2.3-1.8,8.5-7.8,8.5-7.8s20.7-21.9,18.7-23.4c-2-1.5-8.4-3.5-10.2-2.6c-1.8,0.9-4.1,4.3-5.9,5.2c-1.8,0.9-5.1,0.4-6.6-1.7
					c-1.5-2.2,5.2-9.9,5.2-9.9S2297,1131.5,2302.7,1129.8z"/>
				<path class="st13" d="M2415.1,1748.8c0,0,2.4,42.6,2.4,42.7c0.9,5.4,4.4,18.8,4.4,23.7c0,18.5-82.1-15.7-63.7-23.8
					c1.7-0.7,10.4-6.3,10.9-12.6c0.8-9.7,3-29.3,3-29.3L2415.1,1748.8z"/>
				<path class="st6" d="M2358.4,1791.1c0,0,19.3,5.6,29.2,7.1c9.9,1.4,22.9-10.5,29.9-7.3c7.7,3.5,6.9,38.3,6.9,38.3
					s-102.9,6.1-132-3.3C2280.9,1822.2,2319,1804.2,2358.4,1791.1z"/>
				<path class="st13" d="M2596,1752.8c0,0,2.4,42.6,2.4,42.7c0.9,5.4,4.4,18.8,4.4,23.7c0,18.5-82.1-15.7-63.7-23.8
					c1.7-0.7,13-10.5,13.5-16.8c0.8-9.7,0.4-25.1,0.4-25.1L2596,1752.8z"/>
				<path class="st6" d="M2539.3,1795.1c0,0,19.3,5.6,29.2,7.1c9.9,1.4,22.9-10.5,29.9-7.3c7.7,3.5,8,35.3,8,35.3s-110,8-135.9,0.5
					C2458.8,1827.4,2499.9,1808.3,2539.3,1795.1z"/>
				<path class="st14" d="M2465.9,1138.4l-34.7,15l-73,348.7l3,261.4l58.5,1.4c0,0,27.2-228.7,27.2-246.4
					c0-17.7,126.1-310.2,126.1-310.2L2465.9,1138.4z"/>
				<path class="st15" d="M2492.7,1157.6c0,0,25.6,268.7,25.6,314c0,45.3,20.7,298.8,20.7,298.8l58.7-0.3c0,0,4.2-77.3,10.5-190.9
					c1-17.8-1.3-53.7,0-72.2c9.1-132.6,27.2-257.4,18.6-306.8c-1.4-8-4-28.8-9.1-34C2579.3,1126.3,2492.7,1157.6,2492.7,1157.6z"/>
				<path class="st16" d="M2421.1,945.5l71-4.8c0,0,3.5-63.5,3.5-93.7c0-36.7,11.2-90.9,6.8-89.9c-12.3,2.9-33.5,14.2-43.3,27.9
					C2425,832.5,2421.1,945.5,2421.1,945.5z"/>
				<path class="st17" d="M2589.4,755.7c0,0,40.5,5.6,51.1,13.5c12,8.8,25.3,28.5,25.3,28.5s-49.7,235-49.8,274.5
					c-0.1,30.6,10.8,105.7,10.8,105.7s-150.2,9.5-207.1-13c0,0,18-89.3,18-112.8s21.5-236.8,26.4-251.7c4.4-13.5,12.5-37.8,40-43.8
					C2531.5,750.8,2589.4,755.7,2589.4,755.7z"/>
				<path class="st18" d="M2578.3,692.5l10,65.6c0,0-36.6,78.1-58.5,71.4c-18.3-5.7-7.1-74.8-7.1-74.8s10-37.1,7-55.7
					C2526.8,680.4,2578.3,692.5,2578.3,692.5z"/>
				<path class="st12" d="M2529.8,698.9c-3-18.6,48.5-6.5,48.5-6.5l0.8,5.4c-1.5,3.6-3.3,6.8-5.6,9.1c-11.5,12.3-29.5,19.7-45,20.2
					C2530.1,717.3,2531,706.5,2529.8,698.9z"/>
				<g>
					<path class="st18" d="M2586.7,599.6c1.5-0.5,11.7,74.7-7.7,95.4c-19.4,20.7-57.1,27.5-70.7,11.2c-15-18-14.2-98.9,15.9-120.2
						C2554.4,564.7,2586.7,599.6,2586.7,599.6z"/>
					<path class="st19" d="M2535.7,545.8c23.3,4.7,38.4,18.8,43.9,24.9c10.6,1.2,24.9,7,39.8,31.4c18.2,30,4.8,63.2-16.5,79.6
						c-21.2,16.3-21,35.2-21,35.2l-3.3-9.8c-2.5-7.4-3.5-15.2-2.7-23c0.5-4.6,1.5-9.7,3.4-13.8c5.1-10.9-11-18.1-15.5-27.2
						c-3.5-7-3.6-22.9-9.1-34.5l-6.5-8.8c0,0-15.1-11.6-29.8-8.4C2503.8,594.7,2505.9,539.7,2535.7,545.8z"/>
					
						<ellipse transform="matrix(-0.9999 -1.695154e-002 1.695154e-002 -0.9999 5137.7153 1356.8776)" class="st18" cx="2574.6" cy="656.7" rx="9.7" ry="16.6"/>
				</g>
				<path class="st20" d="M2486.1,994.8l-1,5.6c-0.5,2.9-3.2,4.8-6.1,4.3l-116.1-20.1c-2.9-0.5-4.8-3.2-4.3-6.1l1-5.6
					c0.5-2.9,3.2-4.8,6.1-4.3l116.1,20.1C2484.7,989.2,2486.6,991.9,2486.1,994.8z"/>
				<path class="st18" d="M2650.7,786c-13.6-0.4-25.7,89.5-17,98.3c8.6,8.9,10.3,119.5,10.3,119.5l-128.5-3.2l0,0
					c-2.5-1.7-29.4-19.8-33.3-23.7c-4-4.1-23.7-2.1-28.9,3.6c-5.2,5.7,11.5,1,16.2,4.1c4.6,3.1-3.5,10.9-3.5,10.9s-32.6,4.7-38.9-2
					c-6.3-6.7-23.3-18.1-25.6-11.4c-1.2,3.5,7.6,14,12.5,18.4c-6.2-4.6-13.5-9.5-16-8.6c-4.6,1.6-2.7,7.4-0.2,9.2
					c2.5,1.7,28.4,21.5,32.4,22.9c3.9,1.4,64.1,2.8,74.5,5.1c0,0,169.5,38.6,179.1,36.2c8.5-2.1,16.9-56.4,16.9-97.9
					C2700.6,925.9,2693.3,787.2,2650.7,786z"/>
				<path class="st17" d="M2633,765.5c0,0,23.7,5.5,48.2,33c22.3,25,36.3,165.2,36.3,165.2l-76.9,12.4l-6.1-67.8l-20.5-31
					L2633,765.5z"/>
			</g>
			<g>
				<g>
					<path class="st21" d="M1026,642.2c0,0-41.1-9.1-48.5,57.3c-7.4,66.3,5.1,69.7-13.2,101.7c-18.3,32-38.9,8-42.9,98.9
						c-4,90.9,204.5,201.3,259.4,147.4c178.5-175.5-33.3-246.9-24.7-300.7c8.6-53.7-15.9-99.4-48.5-118.8
						C1074.9,608.5,1033.4,608.4,1026,642.2z"/>
					<path class="st5" d="M1237.7,1769.7c0,0-1.1,17.3,7.7,27.1c8.8,9.8,41.6,15,46,26.2c4.4,11.2-33,11.9-45.6,8.5
						c-12.6-3.4-45.3-6.1-53.5-6.6c-8.2-0.4,10.5-54.8,12.2-56.3C1206.2,1767.1,1237.7,1769.7,1237.7,1769.7z"/>
					<path class="st5" d="M1046.2,1759c0,0,8.1,36.5,7.3,50.6c-0.8,14.1-17.9,36-31.1,35.2c-13.2-0.7-24.1-9.5-20.9-26.7
						c3.2-17.2,13.2-57.9,13.2-57.9L1046.2,1759z"/>
					<path class="st22" d="M1003.9,857.6c0,0,4.8-39.8,39.8-42.3c35-2.4,74.8-2.4,91.7,38.6c16.9,41,60.4,364.6-39.8,388.7
						C995.5,1266.8,970.1,883,1003.9,857.6z"/>
					<path class="st15" d="M949.8,1132.3l209.6,2.1c34.9,12.9,88.8,243.8,92.9,303.3c4,59.5-4.7,336.3-4.7,336.3l-50.8-5.5
						c-27.7-43.5-40.2-272.4-48.3-300.9c-11.2-39.3-63.7-159.7-63.7-159.7l-27-11.8c0,0,6.3,181.5,4,223.3
						c-2.3,41.8,0.3,244.4,0.3,244.4l-50.9-2.8c-39.9-71.5-68.3-401.4-67.4-418.7c0.9-17.3-16.7-45.6-20.3-95.1
						C920.5,1208.4,949.8,1132.3,949.8,1132.3z"/>
					<rect x="1037.6" y="1135.3" class="st0" width="90.3" height="9.6"/>
					<path class="st23" d="M1074.6,1148.7h17.3c3.2,0,5.9-2.6,5.9-5.9v-4.1c0-3.2-2.6-5.9-5.9-5.9h-17.3c-3.2,0-5.9,2.6-5.9,5.9v4.1
						C1068.8,1146.1,1071.4,1148.7,1074.6,1148.7z"/>
					<path class="st24" d="M899.1,1178.8c-0.1,34.9,93.8,37.3,138.4,17.3l-4.9-151.2l-15.3-215.3c0,0-56.4,11.2-75.6,24.2
						c0,0-6.2,223.9-11.7,269.4C924.6,1168.7,899.2,1162.9,899.1,1178.8z"/>
					<path class="st25" d="M1159.8,834.8c0,0,22,178.3,22,224.7c0,46.4,8.8,126.6,8.8,126.6s-47.5,18.2-80.7,10
						c0,0,31.5-178.8,31.5-190.5c0-11.7-31.9-183.1-31.9-183.1S1139.8,824,1159.8,834.8z"/>
					<polygon class="st26" points="1189.2,1782.1 1250.8,1786.1 1250.9,1770.2 1186.8,1766.7 					"/>
					<polygon class="st26" points="1002.9,1771.8 1064,1775.8 1064.3,1760 1000.2,1756.5 					"/>
					<path class="st27" d="M1195.7,1793.4c4.9,6.1,20.7,18.7,67.1,13.2c12.1,4.9,25.7,9.5,28.5,16.5c4.4,11.2-33,11.9-45.6,8.5
						c-12.6-3.4-45.3-6.1-53.5-6.6C1187.8,1824.7,1191.3,1808.4,1195.7,1793.4z"/>
					<path class="st27" d="M1053.6,1809.6c-0.8,14.1-17.9,36-31.1,35.2c-13.2-0.7-24.1-9.5-20.9-26.7c1.1-5.8,2.9-14.2,4.9-22.9
						c1.7,10.7,6.7,28.9,20.7,22.6c15.2-6.8,22-22.6,24.6-28.8C1053,1796.9,1053.8,1804.6,1053.6,1809.6z"/>
					<path class="st28" d="M1185.2,1127.7c-17.8-0.9-40.5-2-62.8-3.2c1.3-7.7,2.7-15.7,4-23.6l57.1,3
						C1184,1111.8,1184.5,1119.9,1185.2,1127.7z"/>
					<path class="st28" d="M1035.2,1120.6c-0.1,0-0.2,0-0.3,0c-13.8,0-67.8,14.7-87.3,14.7c-7.5,0-13.7-2.2-18.5-4.8
						c0-0.2,0.1-0.3,0.1-0.5c0.4-2.1,0.7-4.4,1-6.8c0.1-1.2,0.3-2.5,0.4-3.8c0.7-6.7,1.2-14.4,1.7-21.6h102.2L1035.2,1120.6z"/>
					<path class="st24" d="M1159.4,835.1c0,0,16.7,3.5,40.2,82.3c23.5,78.8,7.9,180.1-8.3,190.6c-16.2,10.5-173.9,6.6-173.9,6.6
						l-0.6-56.8c0,0,119.4-18.6,131.2-33.1c2.9-3.6-2.1-18.8-1-36.2C1150,935.3,1159.4,835.1,1159.4,835.1z"/>
					<path class="st5" d="M1153.5,1016.4c0,0,16.3-11.2,22.4-18.7c6.1-7.5,18.4-17.6,18.9-12.3c0.5,5.4-5.1,13.1-5.1,13.1
						s22.3-15.6,25.2-13.2c3,2.4,5.9,19.1,3.8,37.5c-2.1,18.4-54.3,31.8-54.3,31.8L1153.5,1016.4z"/>
					<path class="st25" d="M945.1,1123.5c56.8,9.5,176.8-32.8,225.5-48l-18.2-63.1c0,0-143.3,39.6-162.1,31.2
						c-9.3-4.2-33.1-48.3-41.8-93.2c-8.9-45.9-6.7-96.6-6.7-96.6s-41.2,53.8-29.6,167.8C921.1,1108.6,920.1,1119.3,945.1,1123.5z"/>
					<path class="st5" d="M959.5,994c0,0,13.4,11.4,23.9,19.9c10.5,8.5,26.9,31.5,26.9,31.5s-19.5,4.6-26.3,5.3
						c-6.8,0.7-29.3-11.8-37.1-11c-7.8,0.8-5.5-10.8,4-8.8c9.6,2,19,3,19,3s-22.4-14.7-32.9-23.2c-10.5-8.5-2-15,6.6-8
						c8.6,7,17.8,10.9,17.8,10.9s-30.2-25.5-25.8-30.8C940.1,977.3,959.5,994,959.5,994z"/>
					<path class="st5" d="M1083,760.2c0,0,3.2,45,7.4,54.9c1.2,2.8,3.2,4.9,5.5,6.4c11.9,8-9.3,108.3-20.1,106
						c-11.6-2.4-40.4-64.6-49.7-84.8c-2.7-6-0.3-13.2,5.7-15.9c0,0,0,0,0.1,0c10-4.4,2.6-87,2.6-87L1083,760.2z"/>
					<path class="st29" d="M1041.2,736.6c0,0-2.4,1.3-2.1,4.8c0.5,6.9,4.2,15.6,7.3,21.8c14.4,28.7,35.1,42.6,49.4,44.6
						c-3.6-14.5-6.1-50.8-6.1-50.8L1041.2,736.6z"/>
					<path class="st5" d="M1033,704.5c0,0,7.4-32.5,31.8-42.2c24.4-9.7,46.7-2.4,55.2,29.4c8.5,31.8-3.8,82.4-18.6,97.9
						C1086.5,805.1,1034.8,779.1,1033,704.5z"/>
					<path class="st5" d="M1040.3,714.7c0,0-12.2-18.9-19.7-8c-7.5,11-0.9,37.1,13.3,38.5C1048.1,746.6,1040.3,714.7,1040.3,714.7z"
						/>
				</g>
				<g>
					<path class="st30" d="M501.3,1752.6c0,0-0.1,1.5-0.1,3.9c0,7.3,1.3,23.4,11.3,35.2c13.4,15.8,13.5,35.5-0.7,38.8
						c-14.2,3.4-47.9-1.1-47.9-1.1s-7.6-15-2.4-55.2c5.2-40.2,8.2-84.2,8.2-84.2l38.5-6.8L501.3,1752.6z"/>
					<path class="st31" d="M508.8,1769.7c0,0,14.3,22,17.6,31.1c3.3,9.2,2.6,32,0,34.3c-23.1,20.7-66.8,2.1-66.8,2.1
						s-3-15.2-4.5-33.7c-1.5-18.6-0.7-35.9,4.5-35.9c5.2,0,6.1,9.8,17.9,7C489.4,1771.7,496.7,1766.9,508.8,1769.7z"/>
					<path class="st0" d="M456,1812.7c8.9,3.9,21,8.5,32.2,10.4c12,1.9,28.1-4.1,40.3-10.2c0.6,9.7-0.3,20.7-2,22.2
						c-23.1,20.7-66.8,2.1-66.8,2.1S457.6,1826.8,456,1812.7z"/>
					<path class="st30" d="M612.3,1726.1c-5,17.8-0.1,37.4,12.7,49.2c4.4,4.1,9.5,7.9,15.4,10.7c22.4,11.1,51.4,8.6,55.5,31.4
						c4,22.8-142.1-6.4-142.1-6.4s10.1-55.5,10.8-64.8c0.7-9.3-0.9-43.4-0.9-43.4l56.4-4.6L612.3,1726.1z"/>
					<path class="st31" d="M559.7,1771.8c0,0-1.8,8.8-5.9,23.8c-4.1,14.9-1.5,29-1.5,29s136.8,7.4,142.4,2.4
						c5.5-4.9,2.7-22.8,1.3-24.4c-1.4-1.6-18.8-6.9-27.7-13.1c-8.9-6.2-39.3-29.8-49.6-28.9c-10.3,1-15,9.6-34.5,10.5
						C564.7,1772.1,564.6,1767.5,559.7,1771.8z"/>
					<path class="st0" d="M694.7,1827c-5.5,4.9-142.4-2.4-142.4-2.4s-1.7-9.2-0.1-20.7c71.4,15,143.8-1.3,143.8-1.3
						C697.4,1804.2,700.2,1822.1,694.7,1827z"/>
					<path class="st32" d="M552.2,1803.8c48.8,11.1,102.9,8.7,143.8-1.3c-74.5,12.8-134.6,2.9-130.4,3.4
						C565.4,1805.9,551.3,1803.7,552.2,1803.8z"/>
					<path class="st31" d="M444.8,1180.4l12.9,562.1l61.5-8.8c0,0,19.5-451,30.9-464.4c11.4-13.4,16,0.8,16,0.8
						s49.1,187.6,39.9,225.1c-9.1,37.4-49.9,237.9-49.9,237.9l59,2.7c0,0,67.3-153.7,67.3-260.7s-41.6-284.7-41.6-284.7
						L444.8,1180.4z"/>
					<rect x="553.7" y="1718.9" class="st33" width="71" height="16.5"/>
					<rect x="452.2" y="1721.6" class="st33" width="71.7" height="20.9"/>
					<g>
						<path class="st33" d="M470.9,1729.8c0.1,0,0.3,0,0.4-0.1c1-0.3,1.6-1.4,1.4-2.5c-11.4-59.5-12.1-446.3-12.1-450.2
							c0-1.2-0.8-2.1-1.8-2.1h0c-1,0-1.8,1-1.8,2.1c0,15.9,0.7,391.1,12.2,451.1C469.3,1729.1,470,1729.8,470.9,1729.8z"/>
					</g>
					<g>
						<path class="st33" d="M566.1,1729.8c0.7,0,1.4-0.5,1.7-1.4c2.8-8.8,67.6-216.4,63.9-245.1c-3.6-28.3-45-206.2-46.8-213.8
							c-0.3-1.1-1.3-1.8-2.2-1.5c-1,0.3-1.5,1.5-1.3,2.6c0.4,1.8,43.1,185.3,46.7,213.3c3.5,27.6-63.1,240.8-63.7,243
							c-0.3,1.1,0.1,2.3,1.1,2.7C565.7,1729.7,565.9,1729.8,566.1,1729.8z"/>
					</g>
					<polygon class="st34" points="629.9,786.8 715.8,900.1 614.6,937 					"/>
					<path class="st35" d="M406.4,750.2c13-13,43.4-22.6,63.2-27.8c11.4-2.9,23.2-3.6,34.8-2l44.6,6c0,0,57.9,37.2,79.6,58.9
						c21.7,21.7,41.3,157.6,41.3,157.6l-9.8,51.8l11.3,228c-5,0-154.4,18.3-237.4-6.6c0,0,0-121.6-2.3-195.4
						C421.9,964.6,389.1,767.5,406.4,750.2z"/>
					<path class="st36" d="M407.3,749.4c6.8-6.4,17.4-11.5,26-15.1c0,0,0,0,0,0s16.4-9,31.4,52.5c14.9,61.6-4,136.4,2.6,143.1
						c6.6,6.6,152-0.9,152-0.9s-84.9,48.8-126.4,84.4c-16.6,14.3-60.7,21.8-60.8,21.3c-0.1-4.8-0.3-9.5-0.4-14
						C427,993.6,387.3,768,407.3,749.4z"/>
					<path class="st37" d="M774.1,879.1l-73,137.9c-1.7,3.2-5.1,5.2-8.8,5l-86.7-5.1c-6.2-0.4-10.3-6.7-8.2-12.6l44.7-125.9
						c1.3-3.6,4.5-6,8.2-6.2l115-6.9C772.6,864.7,777.5,872.6,774.1,879.1z"/>
					<path class="st38" d="M590.5,1003.5l45.3-124.7c1.3-3.5,4.6-5.9,8.3-6.2l4.5-0.3c-2.6,0.9-4.7,3-5.7,5.7L597.6,1004
						c-1.9,5.4,1.4,11.1,6.7,12.4l-5.5-0.3C592.5,1015.7,588.4,1009.4,590.5,1003.5z"/>
					<path class="st39" d="M427.1,918l6.9,24.8c0,0,146.7-37.9,164-46.1c13.9-6.7,69.3-21.5,90-20.1c3.4,0.2,3.8,5,0.5,5.8
						c-13,3.1-38.8,9.7-38.8,12.2c0,3.4,26,8.5,24.1,12.7c-3.8,8.5-16.5,13.4-18.9,21.4c-2.4,7.9-28.8,1.7-37.8,1.7
						c-9,0-176.4,101.6-227.1,77.5c-50.6-24.1-20-131.1-20-131.1L427.1,918z"/>
					<path class="st39" d="M702.3,971.1c3.4-3.4,3.2-11.6,7.1-15.5c3.9-3.9,8.1,4,9.1-4.8c1-8.8-5.2-22.4,0.9-21.7
						c6,0.7,14.3,25.5,14.3,25.5c4.3,10.1-15.2,47.9-25.5,45.3c-10.3-2.6-14.3-14.8-14.3-20.5C693.8,973.6,698.9,974.4,702.3,971.1z
						"/>
					<path class="st0" d="M549.1,726.5C549.1,726.5,549.1,726.5,549.1,726.5c0.1,0,0.1,0.1,0.2,0.1c0,0,0.1,0,0.1,0.1
						c0.1,0,0.1,0.1,0.2,0.1c0,0,0.1,0.1,0.1,0.1c0.1,0.1,0.2,0.1,0.3,0.2c0,0,0.1,0.1,0.1,0.1c0.1,0.1,0.3,0.2,0.4,0.3
						c0,0,0,0,0.1,0c0,0,0.1,0,0.1,0.1c0,0,0.1,0,0.1,0.1c0.1,0,0.1,0.1,0.2,0.1c0,0,0.1,0.1,0.1,0.1c0.3,0.2,0.6,0.4,0.9,0.6
						c0.1,0,0.1,0.1,0.2,0.1c5.5,3.6,17.3,11.4,30.3,20.5v0c0,0,5.4,21.8,2.8,35.7c-2.6,14-8,18.3-15.8,15.2
						c-7.8-3.1-22.3-23.8-25.6-22.6c-3.3,1.2-25.8,29.3-36.6,24.9c-7.3-3-29.2-50.9-40.1-79.3c0.8-0.2,1.6-0.4,2.3-0.6
						c11.4-3,23.2-3.6,34.8-2L549.1,726.5L549.1,726.5L549.1,726.5z"/>
					<path class="st39" d="M572.4,691.2c-3.5,18.3-5.1,38-2,49.5c0,0-7.2,31.3-25.2,32.8c-18,1.5-52.2-53.9-52.2-53.9l37.5-59
						L572.4,691.2z"/>
					<path class="st40" d="M568.9,719.9c-21.6-3.8-41.9-20.3-47.5-44.9l9.1-14.4l41.9,30.5C570.6,700.9,569.2,710.9,568.9,719.9z"/>
					<path class="st39" d="M610.8,580.5c0,0,17.7,110.8-13.9,123.6c-31.6,12.8-74.3-7.7-77.5-45.3
						C516.2,621.2,524.3,544.5,610.8,580.5z"/>
					<path class="st26" d="M578.8,557.8c0,0,60.2-17.8,63.8-0.2c3.6,17.6-16.3,30.7-30.1,31.8c-13.8,1.2-49.1-0.6-59.8,12.1
						c-10.7,12.7-29.9,71.4-29.9,71.4l-10.8,17c0,0-4.4-30.9-20-49.8c-15.6-18.9-6.8-51.5,8.1-73.7C515,544.1,565.2,559,578.8,557.8
						z"/>
					<path class="st39" d="M540.4,632.1c0,0-5.7-15.5-14.2-13.3c-19.3,5-5.1,39.3,1.2,40.2C540.3,661,545.5,650.8,540.4,632.1z"/>
					<path class="st35" d="M460.8,797.8c0.6,36.8-19.3,145.2-19.3,145.2s-77.2-1.6-83.4-7.8c-6.2-6.2,13.7-169.8,47.8-192.8
						C446.6,715.1,460.2,762.3,460.8,797.8z"/>
				</g>
			</g>
		</g>
	</g>
	<g>
		<g>
			<path class="st41" d="M1973.4,1230.2c-1.1,0-1.9-0.9-1.9-2c0-1.1,0.9-1.9,2-1.9c2.5,0.1,5,0.1,7.6,0.1l0.1,1.9v-1.9
				c1.1,0,1.8,0.9,1.8,1.9c0,1.1-1,1.9-2,1.9C1978.4,1230.3,1975.9,1230.3,1973.4,1230.2z M1998.5,1227.8c-0.1-1.1,0.7-2,1.8-2.1
				c2.5-0.2,5.1-0.4,7.6-0.7c1.1-0.1,2,0.7,2.1,1.7c0.1,1.1-0.7,2-1.7,2.1c-2.6,0.3-5.1,0.5-7.7,0.7c0,0-0.1,0-0.1,0
				C1999.4,1229.6,1998.6,1228.8,1998.5,1227.8z M1954,1228.9c-2.6-0.3-5.2-0.6-7.7-0.9c-1.1-0.1-1.8-1.1-1.7-2.2
				c0.1-1.1,1.1-1.8,2.2-1.7c2.5,0.3,5.1,0.6,7.6,0.9c1.1,0.1,1.8,1.1,1.7,2.1c-0.1,1-0.9,1.7-1.9,1.7
				C1954.1,1228.9,1954.1,1228.9,1954,1228.9z M2025.3,1224.6c-0.2-1.1,0.5-2.1,1.6-2.3c2.5-0.5,5-1,7.5-1.5c1-0.2,2.1,0.4,2.3,1.5
				c0.2,1-0.4,2.1-1.5,2.3c-2.5,0.5-5.1,1-7.6,1.5c-0.1,0-0.2,0-0.4,0C2026.2,1226.2,2025.4,1225.5,2025.3,1224.6z M1927.1,1224.7
				c-2.5-0.5-5.1-1.1-7.6-1.7c-1-0.3-1.7-1.3-1.4-2.3c0.2-1,1.3-1.7,2.3-1.4c2.5,0.6,5,1.2,7.5,1.7c1,0.2,1.7,1.2,1.5,2.3
				c-0.2,0.9-1,1.5-1.9,1.5C1927.4,1224.7,1927.3,1224.7,1927.1,1224.7z M2051.5,1218.6c-0.3-1,0.3-2.1,1.3-2.4
				c2.4-0.7,4.9-1.5,7.3-2.3c1-0.3,2.1,0.2,2.4,1.2c0.3,1-0.2,2.1-1.2,2.4c-2.5,0.8-4.9,1.6-7.4,2.3c-0.2,0.1-0.4,0.1-0.5,0.1
				C2052.6,1219.9,2051.8,1219.4,2051.5,1218.6z M1900.9,1217.7c-2.5-0.8-4.9-1.6-7.4-2.5c-1-0.4-1.5-1.5-1.2-2.5
				c0.4-1,1.5-1.5,2.5-1.2c2.4,0.9,4.8,1.7,7.2,2.5c1,0.3,1.6,1.4,1.2,2.4c-0.3,0.8-1,1.3-1.8,1.3
				C1901.3,1217.8,1901.1,1217.7,1900.9,1217.7z M2077.1,1209.8c-0.4-1,0.1-2.1,1.1-2.5c2.4-1,4.7-2,7-3c1-0.4,2.1,0,2.6,1
				c0.4,1,0,2.1-1,2.6c-2.4,1.1-4.7,2.1-7.1,3.1c-0.2,0.1-0.5,0.1-0.7,0.1C2078.1,1211,2077.4,1210.6,2077.1,1209.8z M1875.5,1207.9
				c-2.4-1.1-4.7-2.1-7.1-3.3c-1-0.5-1.4-1.6-0.9-2.6c0.5-1,1.6-1.4,2.6-0.9c2.3,1.1,4.6,2.2,6.9,3.2c1,0.4,1.4,1.6,1,2.6
				c-0.3,0.7-1,1.1-1.8,1.1C1876,1208.1,1875.7,1208,1875.5,1207.9z M2101.5,1198.5c-0.5-0.9-0.2-2.1,0.8-2.6
				c2.2-1.2,4.5-2.5,6.7-3.7c0.9-0.5,2.1-0.2,2.6,0.7c0.5,0.9,0.2,2.1-0.7,2.6c-2.2,1.3-4.5,2.6-6.8,3.8c-0.3,0.2-0.6,0.2-0.9,0.2
				C2102.6,1199.5,2101.9,1199.1,2101.5,1198.5z M1851.2,1195.6c-2.2-1.3-4.5-2.6-6.7-4c-0.9-0.6-1.2-1.8-0.6-2.7
				c0.6-0.9,1.8-1.2,2.7-0.6c2.2,1.3,4.4,2.6,6.6,3.9c0.9,0.5,1.2,1.7,0.7,2.6c-0.4,0.6-1,1-1.7,1
				C1851.9,1195.9,1851.5,1195.8,1851.2,1195.6z M2124.7,1184.6c-0.6-0.9-0.4-2.1,0.5-2.7c2.1-1.4,4.2-2.9,6.3-4.4
				c0.9-0.6,2.1-0.4,2.7,0.4c0.6,0.9,0.4,2.1-0.4,2.7c-2.1,1.5-4.2,3-6.4,4.5c-0.3,0.2-0.7,0.3-1.1,0.3
				C2125.7,1185.5,2125.1,1185.2,2124.7,1184.6z M1828.4,1180.8c-2.1-1.5-4.2-3.1-6.2-4.7c-0.8-0.7-1-1.9-0.3-2.7
				c0.7-0.8,1.9-1,2.7-0.4c2,1.6,4.1,3.1,6.1,4.6c0.9,0.6,1.1,1.8,0.4,2.7c-0.4,0.5-1,0.8-1.6,0.8
				C1829.2,1181.2,1828.8,1181.1,1828.4,1180.8z M2146.3,1168.4c-0.7-0.8-0.6-2,0.2-2.7c1.9-1.7,3.9-3.3,5.8-5
				c0.8-0.7,2-0.6,2.7,0.1c0.7,0.8,0.7,2-0.1,2.7c-1.9,1.7-3.9,3.4-5.9,5.1c-0.4,0.3-0.8,0.5-1.3,0.5
				C2147.2,1169.1,2146.7,1168.9,2146.3,1168.4z M1807.3,1163.7c-1.9-1.7-3.8-3.5-5.7-5.3c-0.8-0.7-0.8-2-0.1-2.7
				c0.7-0.8,2-0.8,2.7-0.1c1.8,1.8,3.7,3.5,5.6,5.2c0.8,0.7,0.9,1.9,0.1,2.7c-0.4,0.4-0.9,0.6-1.4,0.6
				C1808.1,1164.2,1807.7,1164.1,1807.3,1163.7z M2166.1,1150.1c-0.8-0.7-0.8-2-0.1-2.7c1.8-1.8,3.5-3.7,5.2-5.6
				c0.7-0.8,1.9-0.9,2.7-0.1c0.8,0.7,0.9,1.9,0.1,2.7c-1.7,1.9-3.5,3.8-5.3,5.7c-0.4,0.4-0.9,0.6-1.4,0.6
				C2166.9,1150.6,2166.4,1150.4,2166.1,1150.1z M1788.1,1144.5c-1.7-1.9-3.4-3.9-5.1-5.8c-0.7-0.8-0.6-2,0.2-2.7
				c0.8-0.7,2-0.6,2.7,0.2c1.7,1.9,3.3,3.9,5,5.8c0.7,0.8,0.7,2-0.1,2.7c-0.4,0.3-0.8,0.5-1.3,0.5
				C1789,1145.2,1788.5,1145,1788.1,1144.5z M2183.8,1129.7c-0.8-0.7-1-1.9-0.3-2.7c1.6-2,3.1-4.1,4.6-6.1c0.6-0.9,1.8-1.1,2.7-0.4
				c0.9,0.6,1.1,1.8,0.4,2.7c-1.5,2.1-3.1,4.2-4.7,6.2c-0.4,0.5-1,0.8-1.5,0.8C2184.6,1130.1,2184.2,1130,2183.8,1129.7z
				 M1771,1123.4c-1.5-2.1-3-4.2-4.5-6.3c-0.6-0.9-0.4-2.1,0.5-2.7c0.9-0.6,2.1-0.4,2.7,0.5c1.4,2.1,2.9,4.2,4.4,6.2
				c0.6,0.9,0.4,2.1-0.4,2.7c-0.3,0.2-0.7,0.4-1.1,0.4C1771.9,1124.2,1771.3,1124,1771,1123.4z M2199.3,1107.7
				c-0.9-0.6-1.2-1.8-0.6-2.7c1.3-2.1,2.6-4.3,3.9-6.5c0,0,0.1-0.1,0.1-0.1c0.5-0.9,1.7-1.2,2.6-0.7c0.9,0.5,1.2,1.8,0.7,2.7
				c-1.3,2.2-2.6,4.4-3.9,6.6c-0.4,0.6-1,0.9-1.6,0.9C2200,1107.9,2199.7,1107.8,2199.3,1107.7z M1752.4,1093.9
				c-0.5-0.9-0.2-2.1,0.8-2.6c0.9-0.5,2.1-0.2,2.6,0.8c1.2,2.2,2.4,4.3,3.6,6.5l-1.6,1.2l-1.8,0.7
				C1754.8,1098.3,1753.6,1096.1,1752.4,1093.9z M1757.8,1099.7L1757.8,1099.7L1757.8,1099.7z M2212.5,1084.1
				c-1-0.5-1.4-1.6-0.9-2.6c1.1-2.3,2.2-4.6,3.2-6.9c0.4-1,1.6-1.4,2.6-1c1,0.4,1.4,1.6,1,2.6c-1.1,2.4-2.1,4.7-3.3,7
				c-0.3,0.7-1,1.1-1.7,1.1C2213,1084.3,2212.8,1084.2,2212.5,1084.1z M1743.8,1076.5c-1.1-2.4-2.1-4.8-3.1-7.1
				c-0.4-1,0.1-2.1,1.1-2.5c1-0.4,2.1,0.1,2.5,1.1c1,2.4,2,4.7,3,7c0.4,1,0,2.1-1,2.6c-0.3,0.1-0.5,0.2-0.8,0.2
				C1744.8,1077.6,1744.1,1077.2,1743.8,1076.5z M1734,1051.1c-0.8-2.5-1.6-4.9-2.3-7.4c-0.3-1,0.3-2.1,1.3-2.4
				c1-0.3,2.1,0.3,2.4,1.3c0.7,2.4,1.5,4.9,2.3,7.3c0.3,1-0.2,2.1-1.2,2.4c-0.2,0.1-0.4,0.1-0.6,0.1
				C1735,1052.4,1734.3,1051.9,1734,1051.1z M1726.9,1024.8c-0.5-2.5-1-5.1-1.5-7.6c-0.2-1.1,0.5-2.1,1.6-2.3
				c1.1-0.2,2.1,0.5,2.3,1.6c0.5,2.5,1,5,1.5,7.5c0.2,1-0.4,2.1-1.5,2.3c-0.1,0-0.3,0-0.4,0
				C1727.9,1026.4,1727.1,1025.7,1726.9,1024.8z M1722.7,998c-0.3-2.6-0.5-5.2-0.7-7.7c-0.1-1.1,0.7-2,1.8-2.1
				c1.1-0.1,2,0.7,2.1,1.8c0.2,2.5,0.4,5.1,0.7,7.6c0.1,1.1-0.7,2-1.7,2.1c-0.1,0-0.1,0-0.2,0C1723.6,999.7,1722.8,999,1722.7,998z
				 M1721.2,970.6c0-2.5,0-5,0.1-7.5c0-1.1,0.9-1.9,2-1.9c1.1,0,1.9,0.9,1.9,2c-0.1,2.5-0.1,4.9-0.1,7.4v0.3c0,1.1-0.9,1.8-1.9,1.8
				C1722.1,972.6,1721.2,971.6,1721.2,970.6z M1724.3,945.8c-1.1-0.1-1.8-1.1-1.7-2.1c0.3-2.6,0.6-5.1,0.9-7.7
				c0.1-1.1,1.1-1.8,2.2-1.7c1.1,0.1,1.8,1.1,1.7,2.2c-0.3,2.5-0.6,5.1-0.9,7.6c-0.1,1-0.9,1.7-1.9,1.7
				C1724.5,945.8,1724.4,945.8,1724.3,945.8z M2232.8,924.8c-0.5-2.5-1-5-1.5-7.5c-0.2-1,0.4-2.1,1.5-2.3c1-0.2,2.1,0.4,2.3,1.5
				c0.5,2.5,1,5.1,1.5,7.6c0.2,1.1-0.5,2.1-1.6,2.3c-0.1,0-0.2,0-0.3,0C2233.7,926.4,2232.9,925.7,2232.8,924.8z M1728.3,919.1
				c-1-0.2-1.7-1.2-1.5-2.3c0.5-2.5,1.1-5.1,1.7-7.6c0.2-1,1.3-1.7,2.3-1.4c1,0.3,1.7,1.3,1.4,2.3c-0.6,2.5-1.2,5-1.7,7.5
				c-0.2,0.9-1,1.5-1.9,1.5C1728.6,919.2,1728.5,919.2,1728.3,919.1z M2226.6,898.7c-0.7-2.4-1.5-4.9-2.3-7.3
				c-0.3-1,0.2-2.1,1.2-2.4c1-0.3,2.1,0.2,2.4,1.2c0.8,2.5,1.6,4.9,2.3,7.4c0.3,1-0.3,2.1-1.3,2.4c-0.2,0.1-0.4,0.1-0.5,0.1
				C2227.6,900.1,2226.8,899.6,2226.6,898.7z M1735.1,893c-1-0.3-1.6-1.4-1.2-2.4c0.8-2.5,1.6-4.9,2.5-7.4c0.4-1,1.5-1.5,2.5-1.2
				c1,0.4,1.5,1.5,1.2,2.5c-0.9,2.4-1.7,4.8-2.5,7.2c-0.3,0.8-1,1.3-1.8,1.3C1735.5,893.1,1735.3,893.1,1735.1,893z M2217.7,873.5
				c-1-2.4-2-4.7-3-7c-0.4-1,0-2.1,1-2.6c1-0.4,2.1,0,2.6,1c1.1,2.4,2.1,4.8,3.1,7.1c0.4,1-0.1,2.1-1.1,2.5
				c-0.2,0.1-0.5,0.1-0.7,0.1C2218.8,874.7,2218,874.2,2217.7,873.5z M1744.5,867.8c-1-0.4-1.4-1.6-1-2.6c1.1-2.4,2.1-4.7,3.3-7.1
				c0.5-1,1.6-1.4,2.6-0.9c1,0.5,1.4,1.6,0.9,2.6c-1.1,2.3-2.2,4.6-3.2,6.9c-0.3,0.7-1,1.1-1.8,1.1
				C1745.1,867.9,1744.8,867.9,1744.5,867.8z M2206.3,849.2c-1.2-2.2-2.4-4.4-3.7-6.6c0,0-0.1-0.1-0.1-0.1l3.4-1.9
				c1.3,2.2,2.5,4.5,3.8,6.7c0.5,0.9,0.2,2.1-0.8,2.6c-0.3,0.2-0.6,0.2-0.9,0.2C2207.3,850.3,2206.6,849.9,2206.3,849.2z
				 M1757.5,841.9l-1.5-1.2c1.2-2.2,2.5-4.3,3.8-6.4c0.6-0.9,1.8-1.2,2.7-0.6c0.9,0.6,1.2,1.8,0.6,2.7c-1.3,2.1-2.5,4.2-3.8,6.3
				l-0.2,0.3L1757.5,841.9z M2192.4,826.4c-1.4-2.1-2.9-4.2-4.4-6.2c-0.6-0.9-0.4-2.1,0.4-2.7c0.9-0.6,2.1-0.4,2.7,0.4
				c1.5,2.1,3,4.2,4.5,6.3c0.6,0.9,0.4,2.1-0.5,2.7c-0.3,0.2-0.7,0.3-1.1,0.3C2193.4,827.2,2192.7,826.9,2192.4,826.4z
				 M1771.1,820.8c-0.9-0.6-1.1-1.8-0.4-2.7c1.5-2.1,3.1-4.2,4.7-6.2c0.7-0.8,1.9-1,2.7-0.3c0.8,0.7,1,1.9,0.3,2.7
				c-1.6,2-3.1,4.1-4.6,6.1c-0.4,0.5-1,0.8-1.6,0.8C1771.8,821.2,1771.4,821.1,1771.1,820.8z M1850.1,748.4
				c-0.5-0.9-0.2-2.1,0.7-2.6c2.2-1.3,4.5-2.6,6.8-3.8c0.9-0.5,2.1-0.2,2.6,0.8c0.5,0.9,0.2,2.1-0.8,2.6c-2.2,1.2-4.5,2.5-6.7,3.7
				c-0.3,0.2-0.6,0.3-1,0.3C1851.1,749.4,1850.5,749,1850.1,748.4z M1874.1,735.9c-0.4-1,0-2.1,1-2.6c2.4-1.1,4.7-2.1,7.1-3.1
				c1-0.4,2.1,0.1,2.5,1.1c0.4,1-0.1,2.1-1.1,2.5c-2.4,1-4.7,2-7,3c-0.3,0.1-0.5,0.2-0.8,0.2
				C1875.1,737.1,1874.4,736.7,1874.1,735.9z M2067.3,729.7c-2.4-0.9-4.8-1.7-7.2-2.5c-1-0.3-1.6-1.4-1.2-2.4c0.3-1,1.4-1.6,2.4-1.2
				c2.5,0.8,4.9,1.6,7.4,2.5c1,0.4,1.5,1.5,1.2,2.5c-0.3,0.8-1,1.3-1.8,1.3C2067.8,729.8,2067.5,729.8,2067.3,729.7z M1899.2,726.1
				c-0.3-1,0.2-2.1,1.2-2.4c2.5-0.8,4.9-1.6,7.4-2.3c1-0.3,2.1,0.3,2.4,1.3c0.3,1-0.3,2.1-1.3,2.4c-2.4,0.7-4.9,1.5-7.3,2.3
				c-0.2,0.1-0.4,0.1-0.6,0.1C1900.2,727.4,1899.4,726.9,1899.2,726.1z M2041.7,722c-2.5-0.6-5-1.2-7.5-1.7c-1-0.2-1.7-1.3-1.5-2.3
				c0.2-1,1.2-1.7,2.3-1.5c2.5,0.5,5.1,1.1,7.6,1.7c1,0.3,1.7,1.3,1.4,2.3c-0.2,0.9-1,1.5-1.9,1.5C2042,722,2041.8,722,2041.7,722z
				 M1925.2,718.8c-0.2-1,0.4-2.1,1.5-2.3c2.5-0.5,5.1-1,7.6-1.5c1-0.2,2.1,0.5,2.3,1.6c0.2,1.1-0.5,2.1-1.6,2.3
				c-2.5,0.5-5,1-7.5,1.5c-0.1,0-0.3,0-0.4,0C1926.1,720.4,1925.3,719.8,1925.2,718.8z M2015.4,717c-2.5-0.3-5.1-0.6-7.6-0.9
				c-1.1-0.1-1.8-1.1-1.7-2.1c0.1-1.1,1-1.9,2.1-1.7c2.6,0.3,5.2,0.6,7.7,0.9c1.1,0.1,1.8,1.1,1.7,2.2c-0.1,1-1,1.7-1.9,1.7
				C2015.5,717,2015.5,717,2015.4,717z M1951.7,714.4c-0.1-1.1,0.7-2,1.7-2.1c2.6-0.3,5.1-0.5,7.7-0.7c1-0.1,2,0.7,2.1,1.8
				c0.1,1.1-0.7,2-1.8,2.1c-2.5,0.2-5.1,0.4-7.6,0.7c-0.1,0-0.1,0-0.2,0C1952.7,716.1,1951.8,715.4,1951.7,714.4z M1988.7,714.8
				c-2.6-0.1-5.1-0.1-7.7-0.1h-0.4c-1.1,0-1.9-0.9-1.9-1.9c0-1.1,0.9-1.9,1.9-1.9h0.4c2.6,0,5.2,0,7.8,0.1c1.1,0,1.9,0.9,1.9,2
				C1990.6,714,1989.8,714.8,1988.7,714.8C1988.7,714.8,1988.7,714.8,1988.7,714.8z"/>
		</g>
		<g>
			<g>
				<path class="st41" d="M2198.3,1005.4c0-41.8,16.9-74.6,38.5-74.6c21.6,0,38.5,32.8,38.5,74.6s-16.9,74.6-38.5,74.6
					C2215.2,1080,2198.3,1047.3,2198.3,1005.4z M2203.5,1005.4c0,37.6,15.2,69.3,33.2,69.3c18,0,33.2-31.8,33.2-69.3
					c0-37.6-15.2-69.3-33.2-69.3C2218.8,936.1,2203.5,967.9,2203.5,1005.4z"/>
			</g>
			<g>
				<path class="st41" d="M2254,1061.8c-14.8-4.9-30.6-15.3-44.4-29.2c-13.9-13.9-24.2-29.7-29.2-44.4c-5.2-15.4-3.9-28,3.7-35.5
					c15.3-15.3,50.4-4,80,25.5c13.9,13.9,24.2,29.7,29.2,44.4c5.2,15.4,3.9,28-3.7,35.5c-4.5,4.5-10.8,6.8-18.4,6.8
					C2265.9,1064.9,2260.2,1063.9,2254,1061.8z M2187.7,956.4c-6,6-6.9,16.7-2.4,30.1c4.7,14,14.6,29.1,27.9,42.4l0,0
					c13.3,13.3,28.4,23.2,42.4,27.9c13.4,4.5,24.1,3.6,30.1-2.4c6-6,6.9-16.7,2.4-30.1c-4.7-14-14.6-29.1-27.9-42.4
					c-19.3-19.3-42-30.7-57.9-30.7C2196.3,951.2,2191.2,952.9,2187.7,956.4z"/>
			</g>
			<g>
				<path class="st41" d="M2184,1058.2c-7.5-7.5-8.8-20.1-3.7-35.5c5-14.8,15.3-30.6,29.2-44.4l0,0c13.9-13.9,29.7-24.2,44.4-29.2
					c15.4-5.2,28-3.9,35.5,3.7c7.5,7.5,8.8,20.1,3.7,35.5c-5,14.8-15.3,30.6-29.2,44.4c-20.6,20.6-44,32.3-61.4,32.3
					C2195.1,1065,2188.6,1062.8,2184,1058.2z M2255.7,954c-14,4.7-29.1,14.6-42.4,27.9l0,0c-13.3,13.3-23.2,28.4-27.9,42.4
					c-4.5,13.4-3.6,24.1,2.4,30.1c12.7,12.7,45.9,1,72.5-25.5c13.3-13.3,23.2-28.4,27.9-42.4c4.5-13.4,3.6-24.1-2.4-30.1
					c-3.5-3.5-8.5-5.2-14.7-5.2C2266.5,951.2,2261.3,952.1,2255.7,954z"/>
			</g>
			<g>
				<path class="st41" d="M2224,1006c0-7.8,6.3-14.1,14.1-14.1c7.8,0,14.1,6.3,14.1,14.1c0,7.8-6.3,14.1-14.1,14.1
					C2230.3,1020.1,2224,1013.8,2224,1006z M2229.2,1006c0,4.9,3.9,8.8,8.8,8.8c4.9,0,8.8-3.9,8.8-8.8c0-4.9-3.9-8.8-8.8-8.8
					C2233.2,997.2,2229.2,1001.2,2229.2,1006z"/>
			</g>
			<g>
				<path class="st41" d="M2278.9,1037.4c0-7.8,6.3-14.1,14.1-14.1c7.8,0,14.1,6.3,14.1,14.1c0,7.8-6.3,14.1-14.1,14.1
					C2285.2,1051.5,2278.9,1045.2,2278.9,1037.4z M2284.2,1037.4c0,4.9,3.9,8.8,8.8,8.8c4.9,0,8.8-3.9,8.8-8.8
					c0-4.9-3.9-8.8-8.8-8.8C2288.1,1028.6,2284.2,1032.6,2284.2,1037.4z"/>
			</g>
			<g>
				<path class="st41" d="M2166.6,1028.9c0-7.8,6.3-14.1,14.1-14.1c7.7,0,14.1,6.3,14.1,14.1c0,7.8-6.3,14.1-14.1,14.1
					C2173,1043,2166.6,1036.7,2166.6,1028.9z M2171.9,1028.9c0,4.9,3.9,8.8,8.8,8.8c4.9,0,8.8-3.9,8.8-8.8c0-4.9-3.9-8.8-8.8-8.8
					C2175.9,1020.1,2171.9,1024.1,2171.9,1028.9z"/>
			</g>
			<g>
				<path class="st41" d="M2224,933.5c0-7.8,6.3-14.1,14.1-14.1c7.8,0,14.1,6.3,14.1,14.1s-6.3,14.1-14.1,14.1
					C2230.3,947.5,2224,941.2,2224,933.5z M2229.2,933.5c0,4.9,3.9,8.8,8.8,8.8c4.9,0,8.8-3.9,8.8-8.8c0-4.9-3.9-8.8-8.8-8.8
					C2233.2,924.7,2229.2,928.6,2229.2,933.5z"/>
			</g>
		</g>
		<g>
			<g>
				<polygon class="st41" points="2201.3,771.6 2232.4,753.2 2129,701.9 2036.7,753.3 2065.5,771 2068.9,765.4 2049.7,753.6 
					2129.2,709.3 2218.7,753.7 2198,765.9 				"/>
			</g>
			<g>
				<path class="st41" d="M2058.6,794.9v-25.7l8.7-4.8l65.5,40.2l66.8-39.6l6.5,3.2v28.7l-73.4,43.4L2058.6,794.9z M2199.5,772.7
					l-66.8,39.6l-65.6-40.2l-2,1.1v18.1l67.6,41.5l66.7-39.5V772.7z"/>
			</g>
			<g>
				<path class="st41" d="M2086.9,847.7c1.8,0,3.3-1.5,3.3-3.3v-62.1l43.7-24.5c1.6-0.9,2.1-2.9,1.3-4.5c-0.9-1.6-2.9-2.1-4.5-1.3
					l-47.1,26.4v66C2083.6,846.2,2085.1,847.7,2086.9,847.7z"/>
			</g>
			<g>
				<path class="st41" d="M2077.7,841.1h18.5v47.1h-18.5V841.1z M2089.6,847.7h-5.4v34h5.4V847.7z"/>
			</g>
		</g>
		<g>
			<g>
				<path class="st41" d="M1876.1,839h-117.7V690h117.7V839z M1763.4,834h107.7V695h-107.7V834z"/>
			</g>
			<g>
				<g>
					<path class="st41" d="M1863,713.4h-69.5c-1.4,0-2.5-1.1-2.5-2.5c0-1.4,1.1-2.5,2.5-2.5h69.5c1.4,0,2.5,1.1,2.5,2.5
						C1865.5,712.3,1864.4,713.4,1863,713.4z"/>
				</g>
				<g>
					<path class="st41" d="M1863,721.9h-69.5c-1.4,0-2.5-1.1-2.5-2.5c0-1.4,1.1-2.5,2.5-2.5h69.5c1.4,0,2.5,1.1,2.5,2.5
						C1865.5,720.8,1864.4,721.9,1863,721.9z"/>
				</g>
				<g>
					<path class="st41" d="M1863,730.4h-69.5c-1.4,0-2.5-1.1-2.5-2.5s1.1-2.5,2.5-2.5h69.5c1.4,0,2.5,1.1,2.5,2.5
						S1864.4,730.4,1863,730.4z"/>
				</g>
				<g>
					<path class="st41" d="M1831.3,738.9h-37.9c-1.4,0-2.5-1.1-2.5-2.5c0-1.4,1.1-2.5,2.5-2.5h37.9c1.4,0,2.5,1.1,2.5,2.5
						C1833.8,737.7,1832.7,738.9,1831.3,738.9z"/>
				</g>
			</g>
			<g>
				<g>
					<path class="st41" d="M1863,750.9h-69.5c-1.4,0-2.5-1.1-2.5-2.5c0-1.4,1.1-2.5,2.5-2.5h69.5c1.4,0,2.5,1.1,2.5,2.5
						C1865.5,749.8,1864.4,750.9,1863,750.9z"/>
				</g>
				<g>
					<path class="st41" d="M1863,759.4h-69.5c-1.4,0-2.5-1.1-2.5-2.5s1.1-2.5,2.5-2.5h69.5c1.4,0,2.5,1.1,2.5,2.5
						S1864.4,759.4,1863,759.4z"/>
				</g>
				<g>
					<path class="st41" d="M1863,767.9h-69.5c-1.4,0-2.5-1.1-2.5-2.5c0-1.4,1.1-2.5,2.5-2.5h69.5c1.4,0,2.5,1.1,2.5,2.5
						C1865.5,766.8,1864.4,767.9,1863,767.9z"/>
				</g>
				<g>
					<path class="st41" d="M1831.3,776.4h-37.9c-1.4,0-2.5-1.1-2.5-2.5c0-1.4,1.1-2.5,2.5-2.5h37.9c1.4,0,2.5,1.1,2.5,2.5
						C1833.8,775.3,1832.7,776.4,1831.3,776.4z"/>
				</g>
			</g>
			<g>
				<g>
					<path class="st41" d="M1863,788.5h-69.5c-1.4,0-2.5-1.1-2.5-2.5s1.1-2.5,2.5-2.5h69.5c1.4,0,2.5,1.1,2.5,2.5
						S1864.4,788.5,1863,788.5z"/>
				</g>
				<g>
					<path class="st41" d="M1863,796.9h-69.5c-1.4,0-2.5-1.1-2.5-2.5s1.1-2.5,2.5-2.5h69.5c1.4,0,2.5,1.1,2.5,2.5
						S1864.4,796.9,1863,796.9z"/>
				</g>
				<g>
					<path class="st41" d="M1863,805.4h-69.5c-1.4,0-2.5-1.1-2.5-2.5c0-1.4,1.1-2.5,2.5-2.5h69.5c1.4,0,2.5,1.1,2.5,2.5
						C1865.5,804.3,1864.4,805.4,1863,805.4z"/>
				</g>
				<g>
					<path class="st41" d="M1831.3,813.9h-37.9c-1.4,0-2.5-1.1-2.5-2.5c0-1.4,1.1-2.5,2.5-2.5h37.9c1.4,0,2.5,1.1,2.5,2.5
						C1833.8,812.8,1832.7,813.9,1831.3,813.9z"/>
				</g>
			</g>
			<g>
				<path class="st41" d="M1776.3,731.9l-8.1-7.7c-1-1-1-2.5-0.1-3.5c1-1,2.5-1,3.5-0.1l3.6,3.4l7.1-12c0.7-1.2,2.2-1.6,3.4-0.9
					c1.2,0.7,1.6,2.2,0.9,3.4L1776.3,731.9z"/>
			</g>
			<g>
				<path class="st41" d="M1776.3,769.4l-8.1-7.7c-1-1-1-2.5-0.1-3.5c1-1,2.5-1,3.5-0.1l3.6,3.4l7.1-12c0.7-1.2,2.2-1.6,3.4-0.9
					c1.2,0.7,1.6,2.2,0.9,3.4L1776.3,769.4z"/>
			</g>
			<g>
				<path class="st41" d="M1776.3,806.9l-8.1-7.7c-1-1-1-2.5-0.1-3.5c1-1,2.5-1,3.5-0.1l3.6,3.4l7.1-12c0.7-1.2,2.2-1.6,3.4-0.9
					c1.2,0.7,1.6,2.2,0.9,3.4L1776.3,806.9z"/>
			</g>
		</g>
	</g>
	<g>
		<g>
			<circle class="st42" cx="718.5" cy="279.6" r="126.6"/>
			<g>
				<g>
					<g>
						<path class="st43" d="M696.7,314.8v20h43.4v-20c14.8-7.8,25-23.4,25-41.3c0-25.8-20.9-46.7-46.7-46.7
							c-25.8,0-46.7,20.9-46.7,46.7C671.8,291.4,681.9,306.9,696.7,314.8z"/>
					</g>
					<path class="st44" d="M685.9,339.7c0-6.4,5.3-11.7,11.7-11.7h41.6c6.4,0,11.7,5.3,11.7,11.7v24.1c0,6.4-5.3,11.7-11.7,11.7
						h-41.6c-6.4,0-11.7-5.3-11.7-11.7V339.7z"/>
				</g>
				<g>
					<path class="st43" d="M677,197.8c-2.5-3.7-8.3,0.2-5.8,3.9c5.1,7.5,10.2,15,15.3,22.5c2.5,3.7,8.3-0.2,5.8-3.9
						C687.2,212.8,682.1,205.3,677,197.8z"/>
					<path class="st43" d="M670.5,237.8c-8.2-3.8-16.4-7.6-24.7-11.5c-4.1-1.9-7,4.4-2.9,6.3c8.2,3.8,16.4,7.6,24.7,11.5
						C671.6,246,674.6,239.7,670.5,237.8z"/>
					<path class="st43" d="M715,187c0,9.1,0,18.1,0,27.2c0,4.5,7,4.5,7,0c0-9.1,0-18.1,0-27.2C721.9,182.5,715,182.5,715,187z"/>
					<path class="st43" d="M759.9,197.8c-5.1,7.5-10.2,15-15.3,22.5c-2.5,3.7,3.2,7.6,5.8,3.9c5.1-7.5,10.2-15,15.3-22.5
						C768.2,198,762.5,194.1,759.9,197.8z"/>
					<path class="st43" d="M791.1,226.3c-8.2,3.8-16.4,7.6-24.7,11.5c-4.1,1.9-1.1,8.2,2.9,6.3c8.2-3.8,16.4-7.6,24.7-11.5
						C798.1,230.8,795.2,224.4,791.1,226.3z"/>
				</g>
			</g>
		</g>
		<g>
			<circle class="st42" cx="421.7" cy="279.6" r="101.3"/>
			<g>
				<g>
					<rect x="378.8" y="274.9" class="st43" width="15.5" height="68.4"/>
					<rect x="401" y="265" class="st43" width="15.5" height="78.3"/>
					<rect x="423.1" y="256.1" class="st43" width="15.5" height="87.2"/>
					<rect x="445.3" y="248.7" class="st43" width="15.5" height="94.5"/>
				</g>
				<path class="st44" d="M465.3,215.9c-7.9,0-15.7,0-23.6,0c-3.6,0-3.6,5.5,0,5.5c3.7,0,7.5,0,11.2,0c-27.9,12-55.8,24-83.7,35.9
					c-3.3,1.4-0.4,6.2,2.8,4.8c28.2-12.1,56.3-24.2,84.5-36.3c-2.6,3.5-5.1,7-7.7,10.5c-2.1,2.9,2.7,5.6,4.8,2.8
					c4.7-6.4,9.3-12.7,14-19.1C468.9,218.3,467.2,215.9,465.3,215.9z"/>
			</g>
		</g>
		<g>
			<circle class="st42" cx="162" cy="279.6" r="101.3"/>
			<path class="st45" d="M180.4,238.8c-16.3-16.3-42.9-16.3-59.2,0c-16.3,16.3-16.3,42.9,0,59.2c14.2,14.2,36.2,16.1,52.4,5.5
				l26.5,26.5c3.4,3.4,8.9,3.4,12.3,0c3.4-3.4,3.4-8.9,0-12.3l-26.5-26.5C196.5,275,194.6,253,180.4,238.8z M170.1,287.7
				c-10.7,10.7-28,10.7-38.7,0c-10.7-10.7-10.7-28,0-38.7c10.7-10.7,28-10.7,38.7,0C180.8,259.7,180.8,277.1,170.1,287.7z"/>
		</g>
		<g>
			<circle class="st42" cx="1015.2" cy="279.6" r="101.3"/>
			<g>
				<g>
					<g>
						<g>
							<g>
								<polygon class="st46" points="960.5,260 1015.2,299.3 960.5,338.7 								"/>
								<polygon class="st46" points="1070,260 1015.2,299.3 1070,338.7 								"/>
								<polygon class="st47" points="960.5,338.7 1015.2,299.3 1070,338.7 								"/>
								<polyline class="st47" points="1070,260 1015.2,299.3 960.5,260 								"/>
							</g>
							<g>
								<polygon class="st0" points="1052.7,220.5 1015.2,220.5 1015.2,220.5 977.8,220.5 977.8,272.4 1015.2,299.3 1015.2,299.3 
									1015.2,299.3 1015.2,299.3 1015.2,299.3 1052.7,272.4 								"/>
								<g>
									<g>
										<rect x="986.4" y="232.5" class="st48" width="58.7" height="3.9"/>
										<rect x="986.4" y="244.3" class="st48" width="58.7" height="3.9"/>
									</g>
									<g>
										<rect x="986.4" y="256.1" class="st48" width="58.7" height="3.9"/>
										<rect x="986.4" y="267.9" class="st48" width="58.7" height="3.9"/>
									</g>
								</g>
							</g>
						</g>
					</g>
				</g>
			</g>
		</g>
		<g>
			<circle class="st42" cx="1274.9" cy="279.6" r="101.3"/>
			<g>
				<path class="st45" d="M1231,228.5h52c12.2,0,22.2,10,22.2,22.2v26.4c0,12.2-10,22.2-22.2,22.2h-30.2l-24.8,14.2v-14.4
					c-10.8-1.5-19.2-10.8-19.2-22v-26.4C1208.8,238.5,1218.8,228.5,1231,228.5z"/>
				<path class="st49" d="M1322.3,258.7h-44c-10.3,0-18.8,8.4-18.8,18.8v22.4c0,10.3,8.4,18.8,18.8,18.8h25.6l20.9,12v-12.2
					c9.1-1.2,16.2-9.1,16.2-18.6v-22.4C1341.1,267.2,1332.6,258.7,1322.3,258.7z"/>
			</g>
		</g>
	</g>
</g>
<g id="Layer_3">
	<g>
		<path class="st50" d="M1553.6,1278h-200.3c-5.3,0-9.5-4.3-9.5-9.5V1160c0-5.3,4.3-9.5,9.5-9.5h200.3c5.3,0,9.5,4.3,9.5,9.5v108.4
			C1563.1,1273.7,1558.9,1278,1553.6,1278z"/>
		<path class="st50" d="M1653.6,1497.7h-240.2c-15.8,0-28.7-12.8-28.7-28.7l0,0c0-15.8,12.8-28.7,28.7-28.7h240.2
			c15.8,0,28.7,12.8,28.7,28.7l0,0C1682.3,1484.8,1669.4,1497.7,1653.6,1497.7z"/>
		<path class="st50" d="M1449,1459c-51.9-63.2-66.5-150-40.6-227.1c6.1-18-22.4-25.8-28.4-7.8c-29.5,87.7-10.3,184.7,48.2,255.8
			C1440.2,1494.5,1460.9,1473.5,1449,1459z"/>
		<path class="st50" d="M1513.2,1471.6v331.3c0,19,29.5,19,29.5,0v-331.3C1542.7,1452.6,1513.2,1452.5,1513.2,1471.6z"/>
		<path class="st50" d="M1604.9,1797.2h-152c-19,0-19,29.5,0,29.5h152C1623.9,1826.7,1623.9,1797.2,1604.9,1797.2z"/>
	</g>
	<g>
		<g>
			<path class="st51" d="M1698.3,1373.2c-35.2-10.8-71.1-19.6-107.3-26.3c0,0-103.9-8.8-119.8-16.6l-6.5,28.9
				c-9.6,42.4,19.5,83.8,62.6,89.3c29.6,3.8,58.1,7.1,67.5,9.4c27.2,6.4,55.1,8,82.8,7.7C1689.2,1436.3,1696.1,1405,1698.3,1373.2z"
				/>
			<path class="st4" d="M1677.4,1465.7c6.1-0.1,12.3-0.2,18.4-0.4c35.1-1.3,69.9-4.5,104.2-9.8c11-1.7,23.6-4.8,26.9-14
				c2.3-6.5-1.3-14.1-7-19.3c-5.7-5.2-11.7-6.5-19-9.9c-33.1-15.3-67.5-28.2-102.5-39C1696.1,1405,1689.2,1436.3,1677.4,1465.7z"/>
		</g>
		<g>
			<path class="st52" d="M1722.6,1742.3c18.8,16,37.6,32.1,56.3,48.1c6.3,5.4,12.8,10.9,17.1,18c2.2,3.5,3.8,7.6,4.4,11.7
				c1,6.4-4.7,11.9-11,11c-44.1-6.5-86.1-27.4-119.3-57.2c1.3-6.7,3.8-14.8,6.3-21.1c2.6-6.3,6.5-12.3,12.1-16.3
				c7.2-5.1,17.1-6.3,25.3-3L1722.6,1742.3z"/>
			<path class="st4" d="M1823.9,1427.7c-25.1,8.5-73,26-89.5,70.6c-24.3,65.8-43,247.5-43,247.5c14.7,13.4,30.1,6.1,30.1,6.1
				s57.6-179.6,82.2-251.2C1811.9,1476.8,1834.6,1447.6,1823.9,1427.7z"/>
		</g>
	</g>
	<g>
		<path class="st4" d="M1595.4,1073.8L1595.4,1073.8c14.2-15.6,36-21.8,56.3-16l1.2,0.3l33.5,126.9l160.9,35.5l-7.4,28.1
			l-191.1-15.9L1595.4,1073.8z"/>
		<g>
			<path class="st53" d="M1847.2,1220.6l46.1-22.5l2.2,29.1l-15.7,14.2c-6.2,5.6-14.3,8.5-22.7,8.1l-17.3-0.8L1847.2,1220.6z"/>
			<path class="st53" d="M1893.3,1198.1l18.7-1.4l18,8.3l-1.7,0.9c-3.4,1.8-7.4,1.9-10.9,0.3l-6.8-3.2l-16.9,4.9L1893.3,1198.1z"/>
			<path class="st53" d="M1891.8,1206.4l21.6,1l18.9,12l-2,0.8c-4.1,1.5-8.6,1.1-12.3-1.3l-7.1-4.6l-19.7,3L1891.8,1206.4z"/>
			<path class="st53" d="M1889.9,1212.5l21,5.1l16.2,15.4l-2.1,0.4c-4.3,0.7-8.7-0.6-11.8-3.6l-6.1-5.9l-19.9-0.9L1889.9,1212.5z"/>
			<path class="st53" d="M1889.2,1217l17.1,10l10.2,17.8l-2-0.2c-3.9-0.5-7.4-2.8-9.4-6.3l-3.8-6.7l-17.2-6L1889.2,1217z"/>
		</g>
	</g>
	<path class="st54" d="M1513.7,964.8c-0.1,0.2-0.1,0.5-0.2,0.7c7.8,1.2,15.7,2.1,23.5,2.9c30.5,3.4,60.9,6.6,91.6,8
		c20.8,1,18.1,1.2,38.9,0.9c-9.2-65.7,16-106,19-118.9c8.1-34.3-14.3-58.9-41.6-67.6c-32.7-10.5-66-10.7-95.1,11.4
		c-30.2,23-47,65.4-41.7,105.2C1510.9,926.6,1518.2,946,1513.7,964.8z"/>
	<g>
		<g>
			<path class="st15" d="M1666,1377.3c-35.2-10.8-71.1-19.6-107.3-26.3c0,0-103.9-8.8-119.8-16.6l-6.5,28.9
				c-9.6,42.4,19.5,83.8,62.6,89.3c29.6,3.8,58.1,7.1,67.5,9.4c27.2,6.4,55.1,8,82.8,7.7C1656.9,1440.3,1663.8,1409.1,1666,1377.3z"
				/>
			<path class="st5" d="M1645.2,1469.8c6.1-0.1,12.3-0.2,18.4-0.4c35.1-1.3,69.9-4.5,104.2-9.8c11-1.7,23.6-4.8,26.9-14
				c2.3-6.5-1.3-14.1-7-19.3c-5.7-5.2-11.7-6.5-19-9.9c-33.1-15.3-67.5-28.2-102.5-39C1663.8,1409.1,1656.9,1440.3,1645.2,1469.8z"
				/>
		</g>
		<g>
			<path class="st52" d="M1690.3,1746.3c18.8,16,37.6,32.1,56.3,48.1c6.3,5.4,12.8,10.9,17.1,18c2.2,3.5,3.8,7.6,4.4,11.7
				c1,6.4-4.7,11.9-11,11c-44.1-6.5-86.1-27.4-119.3-57.2c1.3-6.7,3.8-14.8,6.3-21.1c2.6-6.3,6.5-12.3,12.1-16.3
				c7.2-5.1,17.1-6.3,25.3-3L1690.3,1746.3z"/>
			<path class="st5" d="M1791.7,1431.8c-25.1,8.5-73,26-89.5,70.6c-24.3,65.8-43,247.5-43,247.5c14.7,13.4,30.1,6.1,30.1,6.1
				s57.6-179.6,82.2-251.2C1779.6,1480.8,1802.3,1451.6,1791.7,1431.8z"/>
		</g>
	</g>
	<linearGradient id="SVGID_2_" gradientUnits="userSpaceOnUse" x1="1547.3464" y1="1371.1189" x2="1547.3464" y2="916.4207">
		<stop  offset="0" style="stop-color:#FDD835"/>
		<stop  offset="1" style="stop-color:#FDA735"/>
	</linearGradient>
	<path class="st55" d="M1560.9,969.3c33.2-3.2,33.6,2.9,55.9,22.9c19.1,17.1,50.7,63.9,50.8,98.3c0,25-22.6,33.8-22.6,33.8
		c-19.8,63-25.7,167.3-10.1,231.3c-57.1,32.1-181.2,25.3-207.8-1.4c15.8-89.6,74.1-133.5,77.7-187.7
		C1508.4,1114.5,1482.5,976.8,1560.9,969.3z"/>
	<g>
		<g>
			<path class="st39" d="M1609.3,986.4c6.8-19,13.6-38,20.4-56.9l-45.7-10.4l-20.4,52.2c-10,27.6,55.6,76.8,55.6,76.8
				C1624.2,1048.6,1612.8,997.5,1609.3,986.4z"/>
			<path class="st40" d="M1584,919.1l-7.5,19.2c11.6,12.7,23.9,24.9,37.3,35.6c5.3-14.8,10.6-29.6,15.9-44.4L1584,919.1z"/>
		</g>
		<g>
			<path class="st5" d="M1650.1,836.5L1650.1,836.5c-16.7,31.5-49.9,55.7-86.4,66.5c0,0,0,0,0,0c2.1,6.1,9.3,11.7,15.7,10.3
				c0.7,4.3,30.8,36.9,66.2,40.8c2.5,0.3,4.9-1.4,5.6-3.8c7.7-25.2,8-83.9,6.4-104.8C1657.3,841.1,1654.3,837.5,1650.1,836.5z"/>
		</g>
	</g>
	<g>
		<path class="st5" d="M1512,1073.8L1512,1073.8c14.2-15.6,36-21.8,56.3-16l1.2,0.3l33.5,126.9l160.9,35.5l-7.4,28.1l-191.1-15.9
			L1512,1073.8z"/>
		<path class="st5" d="M1834.7,1218.9c3.7,2.3,8.2,2.8,12.3,1.3l2-0.8l-18.9-12l-15.5-0.7l12.8-3.7l6.8,3.2
			c3.5,1.6,7.5,1.5,10.9-0.3l1.7-0.9l-18-8.3l-18.7,1.4l-46.1,22.5l-7.4,28.1l17.3,0.8c8.3,0.4,16.5-2.5,22.7-8.1l13.9-12.5l7.6,2.7
			l3.8,6.7c2,3.5,5.4,5.8,9.4,6.3l2,0.2l-10.2-17.8l-5.7-3.4l6.6,0.3l6.1,5.9c3.1,3,7.5,4.3,11.8,3.6l2.1-0.4l-16.2-15.4l-8.5-2.1
			l8.5-1.3L1834.7,1218.9z"/>
	</g>
	<g>
		<path class="st56" d="M1829,1295.9h233.5l34.8-143.1c3.2-13.2-6.8-25.8-20.3-25.8h-190.5c-9.6,0-18,6.6-20.3,15.9L1829,1295.9z"/>
		<path class="st57" d="M1838.9,1295.9l37.2-153c2.3-9.4,10.7-15.9,20.3-15.9H2087c7,0,13.1,3.4,16.8,8.5l-160.4,160.4H1838.9z"/>
		<path class="st58" d="M2103.8,1135.6c3.5,4.7,5,11,3.5,17.3l-34.8,143.1h-129L2103.8,1135.6z"/>
		<path class="st57" d="M1732.9,1295.9h201.4l-11.8,11.8h-201.4C1721.1,1301.2,1726.4,1295.9,1732.9,1295.9z"/>
		<path class="st58" d="M2072.4,1295.9c0,6.5-5.2,11.8-11.7,11.8h-138.1l11.8-11.8H2072.4z"/>
		<path class="st56" d="M1721.1,1307.7h106c6.5,0,11.7-5.3,11.7-11.8h-106C1726.4,1295.9,1721.1,1301.2,1721.1,1307.7z"/>
	</g>
	<rect x="1685.2" y="1306" class="st50" width="760.9" height="10.3"/>
	<g>
		<rect x="1726.8" y="1316.3" class="st50" width="8.6" height="529.9"/>
		<rect x="1896" y="1316.3" class="st50" width="8.6" height="529.9"/>
	</g>
	<g>
		<rect x="2217.1" y="1316.3" class="st50" width="8.6" height="529.9"/>
		<rect x="2386.3" y="1316.3" class="st50" width="8.6" height="529.9"/>
	</g>
</g>
<g id="Layer_2">
	<g id="XMLID_29_">
		<rect id="XMLID_53_" x="2121.4" y="1251.1" class="st59" width="11.8" height="21.9"/>
		<rect id="XMLID_52_" x="2118.4" y="1251.1" class="st59" width="2.1" height="21.9"/>
		<path id="XMLID_51_" class="st60" d="M2133.3,1199.4l-4.9,0.5l-1.1-11.9c0-0.4,0.1-0.7,0.3-1l0.8-0.5l2.5-0.2
			c0.7-0.1,1.3,0.5,1.4,1.2L2133.3,1199.4z"/>
		<path id="XMLID_50_" class="st61" d="M2137.9,1205.5l-12.9,1.2l-1-10.6c0-0.5,0.1-0.9,0.4-1.3c0.3-0.4,0.7-0.6,1.1-0.6l9.7-0.9
			c0.4,0,0.8,0.1,1.2,0.4c0.3,0.3,0.5,0.7,0.6,1.2L2137.9,1205.5z"/>
		<polygon id="XMLID_49_" class="st62" points="2134.1,1303.4 2124.3,1199.6 2137.2,1198.4 2147,1302.2 		"/>
		<polygon id="XMLID_48_" class="st63" points="2140.4,1302.8 2130.2,1199.1 2137.2,1198.4 2147,1302.2 		"/>
		<polygon id="XMLID_47_" class="st60" points="2137.3,1199.1 2137.1,1197.5 2122.9,1198.8 2122.6,1198.8 2121.9,1199.3 
			2121.6,1200.1 2124.2,1227.8 2125.6,1227.7 2126.9,1227.3 2126.3,1220.9 2124.8,1219.2 2123.2,1201.6 2123.4,1200.7 
			2124.1,1200.3 		"/>
		<polygon id="XMLID_46_" class="st64" points="2113.6,1203.6 2119.7,1203 2129.1,1296.4 2123,1297 		"/>
		<polygon id="XMLID_45_" class="st65" points="2116.6,1203.3 2119.7,1203 2129.1,1296.4 2126,1296.7 		"/>
		<path id="XMLID_44_" class="st66" d="M2112.5,1180.3c0-0.7,3.5-1.2,3.6-0.4l4.9,29.9l-6.7,0.7l2.1,20.4l-0.5,0.1
			c-0.2-0.2-0.2-0.1-0.9-4c-0.7-4-2.8-16.6-2.8-18.4C2112.1,1198.9,2112.7,1191.4,2112.5,1180.3z"/>
		<polygon id="XMLID_43_" class="st67" points="2113.7,1208.9 2121.3,1208.1 2121.5,1209.8 2113.9,1210.6 		"/>
		<polygon id="XMLID_42_" class="st68" points="2153.6,1206 2136.2,1278.9 2129.1,1277.2 2146.5,1204.3 2150.4,1203.8 		"/>
		<polygon id="XMLID_41_" class="st69" points="2153.6,1206 2136.2,1278.9 2132.6,1278 2150.6,1203 		"/>
		<path id="XMLID_40_" class="st70" d="M2146.5,1204.3l7.7-16.5l-0.6,18.2c-0.5,0.6-1.1,1.6-1.7,1.5c-1.1-0.2,0-2.8-1.6-3.2
			c-1.5-0.4-1.8,2.4-2.9,2.2C2146.6,1206.2,2146.5,1204.3,2146.5,1204.3z"/>
		<path id="XMLID_39_" class="st71" d="M2154.2,1187.8l-0.6,18.2c-0.5,0.6-1.1,1.6-1.7,1.5c-1.1-0.2,0-2.8-1.6-3.2l-0.1,0
			L2154.2,1187.8z"/>
		<polygon id="XMLID_38_" class="st72" points="2151.9,1192.8 2154.2,1187.8 2154.1,1193.4 		"/>
		<polygon id="XMLID_37_" class="st68" points="2166,1214 2137.5,1283.3 2130.7,1280.5 2159.2,1211.3 2163.2,1211.3 		"/>
		<polygon id="XMLID_36_" class="st69" points="2166,1214 2137.5,1283.3 2134.1,1281.9 2163.4,1210.6 		"/>
		<path id="XMLID_35_" class="st70" d="M2159.2,1211.3l10.2-15.1l-3.4,17.8c-0.5,0.5-1.3,1.4-1.9,1.2c-1.1-0.4,0.4-2.8-1.1-3.4
			c-1.4-0.6-2.2,2.1-3.2,1.7C2158.9,1213.1,2159.2,1211.3,2159.2,1211.3z"/>
		<path id="XMLID_34_" class="st71" d="M2169.4,1196.1l-3.4,17.8c-0.5,0.5-1.3,1.4-1.9,1.2c-1.1-0.4,0.4-2.8-1.1-3.4l-0.1,0
			L2169.4,1196.1z"/>
		<polygon id="XMLID_33_" class="st72" points="2166.3,1200.7 2169.4,1196.1 2168.4,1201.6 		"/>
		<linearGradient id="XMLID_2_" gradientUnits="userSpaceOnUse" x1="2110.6262" y1="1268.1143" x2="2165.5188" y2="1268.1143">
			<stop  offset="0" style="stop-color:#37474F"/>
			<stop  offset="1" style="stop-color:#37274F"/>
		</linearGradient>
		<path id="XMLID_32_" class="st73" d="M2165.5,1232.8v65.5c0,2.8-2,5.2-4.5,5.2h-45.9c-2.5,0-4.5-2.3-4.5-5.2v-65.5H2165.5z"/>
		<linearGradient id="XMLID_3_" gradientUnits="userSpaceOnUse" x1="2138.0713" y1="1227.5731" x2="2138.0713" y2="1340.1136">
			<stop  offset="0" style="stop-color:#FF5252"/>
			<stop  offset="1" style="stop-color:#FF52AE"/>
		</linearGradient>
		<rect id="XMLID_31_" x="2110.6" y="1232.8" class="st74" width="54.9" height="25.9"/>
		<linearGradient id="XMLID_4_" gradientUnits="userSpaceOnUse" x1="2138.0725" y1="1227.5725" x2="2138.0725" y2="1340.1141">
			<stop  offset="0" style="stop-color:#FF5252"/>
			<stop  offset="1" style="stop-color:#FF52AE"/>
		</linearGradient>
		<rect id="XMLID_30_" x="2107.8" y="1295" class="st75" width="60.6" height="9.7"/>
	</g>
	<g>
		<g>
			<rect x="2185.7" y="1274.5" class="st76" width="125.5" height="30.7"/>
			<rect x="2181" y="1259" class="st77" width="125.5" height="15.6"/>
			<rect x="2199.9" y="1238.2" class="st78" width="125.5" height="20.8"/>
			<rect x="2195.2" y="1227.8" class="st79" width="125.5" height="10.4"/>
		</g>
		<g>
			<rect x="2185.7" y="1278.1" class="st80" width="125.5" height="24"/>
			<rect x="2181" y="1260.5" class="st80" width="125.5" height="12.5"/>
			<rect x="2199.9" y="1240.3" class="st80" width="125.5" height="16.6"/>
			<rect x="2195.2" y="1229.1" class="st80" width="125.5" height="7.8"/>
		</g>
		<g>
			<rect x="2246.2" y="1274.5" class="st81" width="125.5" height="30.7"/>
			<rect x="2241.5" y="1259" class="st82" width="125.5" height="15.6"/>
			<rect x="2260.4" y="1238.2" class="st83" width="125.5" height="20.8"/>
			<rect x="2255.7" y="1227.8" class="st84" width="125.5" height="10.4"/>
		</g>
	</g>
</g>
<g id="Layer_4">
	<path class="st85" d="M2024.8,1213c-1.3-1.8-3.7-5-5.5-7.4c-2.6-3.5-12.5-17.7-12.5-18.3s-0.4-8.8-0.4-8.8s1.1-0.5,1.8-2.9
		c0.8-2.4-0.4-3.5-1.9-4.4s0.2-4,0.2-5.6c0-1.6-2.8-2.1-4.1-2.6c-1.3-0.5-0.6-2.6-0.1-5.9s-2.2-3.3-3.8-3.8
		c-1.6-0.5-0.8-1.2-1.8-3.1s-4.5-1.5-6.3-1.3c-1.8,0.2-2.4-1.2-3.4-2c-1.1-0.8-3.1-1.7-4.5-0.8c-1.5,0.9-2.4,2.3-3.6,2.4
		c-1.2,0.1-1.8,1.2-2.6,2.3c-0.8,1.1-2.4,0.5-3.8,0.9c-1.4,0.4-3.4,3.9-5.1,4c-1.7,0.1-2.9,1.5-3.8,2.9c-0.9,1.4-2.5,3.5-2.5,3.5
		c-1.2,1.6,1.5,6.9-2.1,6.1c-1.7-0.4-4.3,11.1-5.3,13.2c-1,2.1,2.8,4.1,4,6.3c1.2,2.2-8.4,12.3-8.4,12.3c-3.3,3.2-5.9,6.9-5.4,10.1
		c-1.2-1-2.1-1.9-2.7-2.5c-4.3-4.5-7.3-8.5-7.3-8.5s8.8,23.4,35.4,30.9s48.5-6.1,57.1-13.1s11.6-17.5,11.6-17.5
		S2033.9,1206.3,2024.8,1213z M2006.1,1177.1c-1.9,2-5.4,0-4.1-1.8c0,0,1.3-3.4,3.4-3.4C2007.6,1171.9,2008.1,1175.1,2006.1,1177.1z
		 M2004.2,1164.5c2.2,0.7,0,4.6-2.9,7.4s-5.4,1.4-5.4,1.4s-2.8-2-0.3-4C1998.2,1167.1,2002,1163.8,2004.2,1164.5z M1997.6,1154.5
		c0,0,3.8,1,3.7,3.2c-0.1,2.2-5,10.5-8.4,11.4c-3.4,0.9-5.4-2.3-3.5-4.3c1.9-1.9,5.5-6.1,6.3-7.1
		C1996.5,1156.6,1997.1,1154.6,1997.6,1154.5z M1988.9,1154.8c1.3-1.4,2-3.6,1.8-4.4c-0.2-0.8,2.5-1.6,4.4-0.5
		c1.8,1.1-0.1,6.2-2.6,8.6c-2.4,2.3-3.8,0.2-3.8,0.2S1987.6,1156.2,1988.9,1154.8z M1984.6,1148c1.8-0.6,3.5,1.3,3.5,2.7
		s-1.2,2.5-4.2-0.1C1983.9,1150.6,1982.8,1148.6,1984.6,1148z M1979.1,1150.7c0,0,0.7-0.5,3.7,1c3,1.5,3.5,4.1,1.5,4.1
		C1982.4,1155.7,1977.2,1152.7,1979.1,1150.7z M1962.6,1162.2c0,0,8.2-5.1,9.6-7c1.5-1.9,3.8-3.8,6.8-1.9c3,1.9,7.1,5,8.4,5.5
		s2.7,4.1-1.3,4.1s-8.8-4.1-9.9-4c-1.1,0.2,0.1,5.4-2.6,5.6c-2.6,0.2-7.2-2.3-7.2-1.1s6.8,7.6,6.2,11.4c-0.6,3.8-2.3,6.8-6.4,4.9
		c-4.2-1.9-4-6.3-4.5-10.2S1962.6,1162.2,1962.6,1162.2z M1954.4,1181.1c0.5-1.4,3.6-10.7,4.7-10.7c0,0,1.5-0.3,1.4,1.7
		c-0.2,2-0.9,6,0.4,6.2c1.3,0.3,3.4,1.4,4.4,4.3c1,2.9,2.5,5.2,6.9,2.2c4.4-3,3.7-8.6,3.3-11.3c-0.4-2.7-2.4-6.6,0.3-8.2
		c2.7-1.6,6.7-1.8,6.7-1.8s0.4,3.1,2.1,3.2s2.5-0.2,2.5-0.2s3.7,5.2,5.5,7.1c1.8,1.9,2.6,2.4,4.3,2.5c1.7,0.1,2,0.1,2,0.1
		s1,3.1,2.7,3.6s3.2,0.3,3.2,0.3s0.3,7.4,2.4,11.6s15.9,22,15.9,22s-8.5,5.8-13.1,7.2c-4.6,1.3-6.7,1.7-6.7,1.7s-17.1-22-19-23
		c-1.9-1-13.4-1.7-17.8-4.8C1962.2,1191.7,1953.9,1182.5,1954.4,1181.1z M1944.5,1210.5c0,0,9.2-12.8,11.6-14c0,0,2.3-5.2,3.9-4.3
		c1.6,0.9,3.5,5.4,6,5.7c2.5,0.3,9.2,1.4,9.2,5.7c0,4.1-7.8,17.2-8.8,18.9c-6.8-2.2-12.5-5.3-16.9-8.1
		C1946.2,1212,1944.5,1210.5,1944.5,1210.5z M1968.5,1223.2c1.1-2.1,4.3-7.8,7.8-13.6c4.4-7.3,8.7-5.5,10.6-4.6
		c1.6,0.8,11.6,15,14.4,19c-1.2,0.3-2.5,0.6-3.7,0.8C1986.9,1226.9,1977,1225.7,1968.5,1223.2z"/>
	<text transform="matrix(1 0 0 1 1932.9785 1281.8018)" class="st85 st86 st87">AMJILT</text>
</g>
<g id="Layer_5">
</g>
</svg>
