<svg width="83" height="83" viewBox="0 0 83 83" fill="none" xmlns="http://www.w3.org/2000/svg">
<circle cx="41.5" cy="41.5" r="41.5" fill="#9FA4E5" fill-opacity="0.4"/>
<circle cx="41.5" cy="41.5" r="40.5" stroke="white" stroke-opacity="0.6" stroke-width="2"/>
<path d="M42.9519 22.0962C38.7006 22.3431 35.3217 23.0678 32.6487 24.3035C30.9592 25.0808 30.4954 25.3981 29.1215 26.7223C26.7821 28.9476 25.7055 31.1368 25.1305 34.7749C24.8891 36.2761 25.1305 55.4439 25.1305 77.5C27.3231 78.4656 28.5708 78.9234 30.8451 79.5V61.6922C30.8822 36.8106 30.5296 35.3747 30.8451 34.4031C31.8105 31.348 34.3769 29.8299 37.9041 29.0354C40.2987 28.5057 42.8794 28.2933 48.8202 28.1703L54.3153 28.0645L54.9652 27.5881C55.8005 26.9879 56.2272 26.1221 56.2272 25.0628C56.2272 23.6853 55.2988 22.5374 53.8507 22.1487C53.237 21.9897 45.4396 21.9372 42.9519 22.0962Z" fill="white"/>
<path d="M42.6758 30.2364C42.6758 31.914 44.4764 34.1565 46.2771 34.7395C48.3191 35.4102 50.6767 34.9338 52.1248 33.5916C53.0902 32.6913 53.8142 31.331 53.8142 30.3955V29.742H48.245H42.6758V30.2364Z" fill="white"/>
<path d="M40.9664 35.0916C38.9434 36.2043 38.7012 36.4158 38.8873 36.893C39.0727 37.3341 39.5373 37.1931 41.5604 36.0985C43.7696 34.8801 44.0661 34.6505 43.9179 34.2618C43.7136 33.7666 43.0085 33.979 40.9664 35.0916Z" fill="white"/>
<path d="M52.2897 34.192C52.1043 34.6331 52.3828 34.8627 54.4618 36.0106C56.634 37.211 57.209 37.3528 57.3021 36.6994C57.3581 36.3812 56.9866 36.1164 55.2411 35.1456C53.1439 33.9977 52.4569 33.7681 52.2897 34.192Z" fill="white"/>
<path d="M44.9561 35.9574C44.8449 36.0812 44.232 37.052 43.601 38.1114C42.6916 39.5946 42.4684 40.0891 42.6175 40.3186C43.0442 40.9541 43.3786 40.7253 44.3992 39.065C46.0327 36.3986 46.0697 36.3453 45.7172 36.0279C45.3646 35.6926 45.1974 35.6746 44.9561 35.9574Z" fill="white"/>
<path d="M50.5244 35.8692C50.0787 36.0283 50.283 36.6465 51.4527 38.5709C52.6224 40.5133 52.8448 40.7602 53.3465 40.5839C53.8102 40.4076 53.662 39.9304 52.5483 38.0765C51.1002 35.7102 51.0631 35.6577 50.5244 35.8692Z" fill="white"/>
<path d="M47.7043 36.6976C47.556 36.8567 47.5 37.7397 47.537 39.3821L47.5931 41.8369H48.0568H48.5206L48.5766 39.2943C48.6137 37.3699 48.5585 36.7164 48.3913 36.5926C48.0568 36.3975 47.9456 36.4155 47.7043 36.6976Z" fill="white"/>
</svg>
