<svg width="83" height="83" viewBox="0 0 83 83" fill="none" xmlns="http://www.w3.org/2000/svg">
<g clip-path="url(#clip0_2540_8576)">
<path d="M41.5 83C64.4198 83 83 64.4198 83 41.5C83 18.5802 64.4198 0 41.5 0C18.5802 0 0 18.5802 0 41.5C0 64.4198 18.5802 83 41.5 83Z" fill="#9FA4E5" fill-opacity="0.4"/>
<path d="M41.5 82C63.8675 82 82 63.8675 82 41.5C82 19.1325 63.8675 1 41.5 1C19.1325 1 1 19.1325 1 41.5C1 63.8675 19.1325 82 41.5 82Z" stroke="white" stroke-opacity="0.6" stroke-width="2"/>
<path d="M51.5 59.25C52.4283 59.25 53.3185 58.8681 53.9749 58.1883C54.6313 57.5084 55 56.5864 55 55.625V33.875L44.5 23H30.5C29.5717 23 28.6815 23.3819 28.0251 24.0617C27.3687 24.7416 27 25.6636 27 26.625V55.625C27 56.5864 27.3687 57.5084 28.0251 58.1883C28.6815 58.8681 29.5717 59.25 30.5 59.25H51.5ZM42.75 26.625L51.5 35.6875H42.75V26.625ZM32.25 33.875H37.5V37.5H32.25V33.875ZM32.25 41.125H49.75V44.75H32.25V41.125ZM32.25 48.375H49.75V52H32.25V48.375Z" fill="white"/>
</g>
<defs>
<clipPath id="clip0_2540_8576">
<rect width="83" height="83" fill="white"/>
</clipPath>
</defs>
</svg>
