<svg width="83" height="83" viewBox="0 0 83 83" fill="none" xmlns="http://www.w3.org/2000/svg">
<g clip-path="url(#clip0_2540_8576)">
<path d="M41.5 83C64.4198 83 83 64.4198 83 41.5C83 18.5802 64.4198 0 41.5 0C18.5802 0 0 18.5802 0 41.5C0 64.4198 18.5802 83 41.5 83Z" fill="#9FA4E5" fill-opacity="0.4"/>
<path d="M41.5 82C63.8675 82 82 63.8675 82 41.5C82 19.1325 63.8675 1 41.5 1C19.1325 1 1 19.1325 1 41.5C1 63.8675 19.1325 82 41.5 82Z" stroke="white" stroke-opacity="0.6" stroke-width="2"/>
<path d="M40.334 44.3005C40.334 43.5825 40.8811 43.0005 41.556 43.0005C42.2309 43.0005 42.778 43.5825 42.778 44.3005V57.7009C42.778 58.4189 42.2309 59.0009 41.556 59.0009C40.8811 59.0009 40.334 58.4189 40.334 57.7009V44.3005Z" fill="white"/>
<path d="M41.6642 41.4672C41.6642 45.7751 38.3815 49.2674 34.3321 49.2674C30.2827 49.2674 27 45.7751 27 41.4672C27 37.1593 30.2827 33.667 34.3321 33.667C38.3815 33.667 41.6642 37.1593 41.6642 41.4672Z" fill="#ECF0F3"/>
<path d="M54.9981 41.4672C54.9981 45.7751 51.7155 49.2674 47.6661 49.2674C43.6167 49.2674 40.334 45.7751 40.334 41.4672C40.334 37.1593 43.6167 33.667 47.6661 33.667C51.7155 33.667 54.9981 37.1593 54.9981 41.4672Z" fill="#ECF0F3"/>
<path d="M51.7979 34.0003C51.7979 40.0756 47.1264 45.0006 41.3638 45.0006C35.6012 45.0006 30.9297 40.0756 30.9297 34.0003C30.9297 27.925 35.6012 23 41.3638 23C47.1264 23 51.7979 27.925 51.7979 34.0003Z" fill="white"/>
</g>
<defs>
<clipPath id="clip0_2540_8576">
<rect width="83" height="83" fill="white"/>
</clipPath>
</defs>
</svg>
