<svg width="83" height="83" viewBox="0 0 83 83" fill="none" xmlns="http://www.w3.org/2000/svg">
<circle cx="41.5" cy="41.5" r="41.5" fill="#9FA4E5" fill-opacity="0.4"/>
<circle cx="41.5" cy="41.5" r="40.5" stroke="white" stroke-opacity="0.6" stroke-width="2"/>
<path d="M40.5573 21.0216C40.4386 21.0385 39.981 21.0893 39.5743 21.14C33.3207 21.8679 27.6773 25.8794 24.8471 31.6683C24.1014 33.1747 24.0675 33.6487 24.6267 33.9703C24.8979 34.1395 25.1182 34.1395 25.4063 33.9872C25.5927 33.8856 25.7622 33.6148 26.2198 32.6669C27.2197 30.6188 28.1857 29.2139 29.677 27.7244C32.3547 25.067 35.7103 23.3912 39.5404 22.7988C40.7267 22.6126 43.218 22.6126 44.3874 22.7988C48.2344 23.4082 51.59 25.067 54.2507 27.7244C56.5217 29.9926 58.1825 32.9547 58.8943 36.0522C59.301 37.8126 59.4536 40.4531 59.2163 42.078C58.7587 45.4294 57.5554 48.2731 55.5218 50.8459C53.2339 53.7572 49.7597 55.9746 46.0821 56.8717C45.5737 56.9902 45.0991 57.0917 45.0314 57.0917C44.9466 57.0917 45.0144 56.9902 45.2008 56.7871C45.3534 56.6347 45.5228 56.4147 45.5737 56.3301C45.6754 56.11 45.6754 55.7207 45.5737 55.5007C45.455 55.2637 40.8962 50.6936 40.642 50.5581C40.3708 50.4227 39.998 50.4227 39.7268 50.5581C39.4726 50.6936 37.2525 52.9278 37.1339 53.1648C37.083 53.2664 37.0491 53.4526 37.0491 53.6049C37.0491 53.9265 36.9814 53.9604 36.2357 54.0111C34.6935 54.1296 32.7784 53.1817 30.8973 51.3537C28.9653 49.4918 27.9484 47.6468 27.9315 46.0219C27.9315 45.0401 27.9823 44.8878 28.3382 44.8878C28.4907 44.8878 28.711 44.837 28.8297 44.7862C29.0839 44.6508 31.287 42.4165 31.4226 42.1796C31.5413 41.9426 31.5243 41.5702 31.4057 41.3163C31.2701 41.0624 26.6943 36.5092 26.457 36.3907C26.2367 36.2892 25.8469 36.2892 25.6266 36.3907C25.3894 36.5092 23.1523 38.7266 23.0167 38.9805C22.8812 39.2344 22.8812 39.5898 22.9998 39.8607C23.0845 40.0468 23.0506 40.0976 22.5083 40.69C22.1016 41.1301 21.8304 41.5025 21.5932 41.9595C21.1186 42.9243 21 43.4998 21 44.837C21 46.1065 21.1864 47.0375 21.6609 48.2392C23.0676 51.7599 26.4232 55.7376 30.2533 58.412C33.558 60.714 36.8288 61.5265 39.354 60.6632C40.1505 60.3924 40.7098 60.0539 41.3707 59.4276C41.93 58.9029 41.9469 58.8859 42.1672 58.9875C42.6079 59.1737 44.9975 58.8859 46.6414 58.4797C52.3018 57.041 57.0301 53.0633 59.4197 47.6976C60.0806 46.225 60.589 44.4308 60.8602 42.6535C61.0466 41.401 61.0466 38.6589 60.8602 37.4233C60.1992 33.1409 58.3859 29.5017 55.4201 26.5565C52.4543 23.6113 48.8445 21.834 44.6416 21.1908C43.8789 21.0554 41.0487 20.9538 40.5573 21.0216ZM27.8467 40.013L29.6093 41.7733L28.9992 42.3827L28.389 42.992L26.6096 41.2148L24.8301 39.4375L25.4233 38.8451C25.7453 38.5235 26.0334 38.2526 26.0503 38.2526C26.0673 38.2526 26.8638 39.0482 27.8467 40.013ZM26.5248 44.2784C26.3384 44.8032 26.3215 44.9724 26.3215 45.9542C26.3215 46.7836 26.3554 47.1729 26.474 47.5622C26.6774 48.3239 27.3722 49.6949 27.9484 50.4904C28.5585 51.3706 30.4058 53.2325 31.3379 53.9096C32.1683 54.5359 33.3038 55.1452 34.202 55.433C34.8121 55.6361 34.9816 55.653 35.9984 55.653C37.0322 55.653 37.1847 55.6361 37.727 55.4499L38.3202 55.2468L39.5574 56.4824L40.7945 57.718L40.3539 58.1581C39.5235 59.0044 38.5744 59.343 37.1678 59.343C35.0663 59.326 32.6428 58.2427 29.999 56.1439C29.1347 55.4668 26.5757 52.9109 25.8978 52.0477C23.7794 49.3902 22.7117 46.9867 22.6947 44.8539C22.6947 43.466 22.9998 42.6197 23.8302 41.7395L24.3047 41.2486L25.5419 42.4842L26.779 43.7199L26.5248 44.2784ZM42.0147 54.1635L43.7772 55.9238L43.1671 56.5332L42.557 57.1425L40.7776 55.3653L38.9981 53.588L39.5913 52.9956C39.9133 52.674 40.2014 52.4031 40.2183 52.4031C40.2353 52.4031 41.0487 53.1987 42.0147 54.1635Z" fill="white"/>
<path d="M38.1168 33.0897C37.2356 33.259 36.4729 33.6652 35.8967 34.3254C35.3375 34.9517 35.0324 35.798 34.9138 36.9828L34.8629 37.5583H35.8459H36.8288V37.2029C36.8288 36.3735 37.1847 35.4425 37.6254 35.104C38.1338 34.7316 38.9134 34.6301 39.5913 34.8332C40.6589 35.1548 41.1335 36.6274 40.5403 37.8291C40.2353 38.4385 39.7099 38.9294 38.388 39.8265C37.7609 40.2496 36.9644 40.8082 36.6424 41.0621C35.4222 42.0438 34.7952 43.1271 34.6596 44.5489L34.5918 45.1414H38.693H42.7943V44.2781V43.4149H39.8963C38.3033 43.4149 36.9983 43.3979 36.9983 43.3472C36.9983 43.2117 37.3711 42.7209 37.7779 42.3146C38.0151 42.0777 38.8625 41.4514 39.6421 40.9098C41.6927 39.5218 42.3028 38.8955 42.6248 37.7784C42.7943 37.2367 42.8282 36.2381 42.6926 35.6626C42.5062 34.8501 41.8791 34.0038 41.1504 33.5806C40.4217 33.1405 39.0659 32.9374 38.1168 33.0897Z" fill="white"/>
<path d="M49.2682 33.1414C49.2004 33.2261 48.031 34.8679 46.6753 36.7975L44.2009 40.3182V41.3169V42.3156H46.743H49.2852V43.7204V45.1253H50.2173H51.1494V43.7204V42.3156L51.912 42.2986L52.6746 42.2817L52.6916 41.4692L52.7085 40.6737H51.912H51.1663V36.8483V33.0229H50.285C49.5394 33.0229 49.3699 33.0399 49.2682 33.1414ZM49.2852 38.1009V40.6737H47.5565C46.3024 40.6737 45.8279 40.6568 45.8618 40.5891C45.8957 40.4875 49.2343 35.5281 49.2682 35.5111C49.2852 35.5111 49.2852 36.6791 49.2852 38.1009Z" fill="white"/>
</svg>
