<svg width="83" height="83" viewBox="0 0 83 83" fill="none" xmlns="http://www.w3.org/2000/svg">
<g clip-path="url(#clip0_2540_8576)">
<path d="M41.5 83C64.4198 83 83 64.4198 83 41.5C83 18.5802 64.4198 0 41.5 0C18.5802 0 0 18.5802 0 41.5C0 64.4198 18.5802 83 41.5 83Z" fill="#9FA4E5" fill-opacity="0.4"/>
<path d="M41.5 82C63.8675 82 82 63.8675 82 41.5C82 19.1325 63.8675 1 41.5 1C19.1325 1 1 19.1325 1 41.5C1 63.8675 19.1325 82 41.5 82Z" stroke="white" stroke-opacity="0.6" stroke-width="2"/>
<path d="M52.5732 23H29.4199C28.0869 23 27 24.1241 27 25.5053V52.4759C27 53.5559 27.6699 54.4853 28.6064 54.838V56.5865C28.6064 57.92 29.6455 59 30.9375 59C32.2227 59 33.2686 57.92 33.2686 56.5865V54.9886H48.7314V56.5865C48.7314 57.92 49.7705 59 51.0625 59C52.3477 59 53.3936 57.92 53.3936 56.5865V54.838C54.3301 54.4853 55 53.5633 55 52.4833V25.5053C54.9966 24.1314 53.9062 23 52.5732 23ZM29.1738 24.9212H52.8159V27.1473H29.1738V24.9212ZM29.1738 28.94H52.8159V41.4959H29.1738V28.94ZM31.5322 51.238C30.2744 51.238 29.249 50.18 29.249 48.8759C29.249 47.5718 30.2676 46.5139 31.5322 46.5139C32.7969 46.5139 33.8154 47.5718 33.8154 48.8759C33.8154 50.18 32.7969 51.238 31.5322 51.238ZM50.5703 51.238C49.3125 51.238 48.2871 50.18 48.2871 48.8759C48.2871 47.5718 49.3057 46.5139 50.5703 46.5139C51.835 46.5139 52.8535 47.5718 52.8535 48.8759C52.8535 50.18 51.835 51.238 50.5703 51.238Z" fill="white"/>
</g>
<defs>
<clipPath id="clip0_2540_8576">
<rect width="83" height="83" fill="white"/>
</clipPath>
</defs>
</svg>
