<svg width="83" height="83" viewBox="0 0 83 83" fill="none" xmlns="http://www.w3.org/2000/svg">
<circle cx="41.5" cy="41.5" r="41.5" fill="#9FA4E5" fill-opacity="0.4"/>
<circle cx="41.5" cy="41.5" r="40.5" stroke="white" stroke-opacity="0.6" stroke-width="2"/>
<path d="M27.8698 29.2912C27.6174 29.5629 27.598 29.6406 27.5592 31.3876C27.5204 32.5522 27.5592 33.3481 27.6562 33.6392C27.8892 34.3769 27.928 34.3963 33.0137 34.3963C37.1288 34.3963 37.4977 34.4157 37.6724 34.5904C37.9829 34.9398 37.9635 35.4251 37.6335 35.7551C37.42 35.9686 37.2647 35.988 33.0913 35.988H28.7821L28.7239 36.3374C28.7044 36.5315 28.6268 37.6185 28.5492 38.7249C28.0639 46.5864 26.2587 53.7685 23.6964 58.0972L22.9976 59.2813L21.3865 59.3395L19.7754 59.3977L19.3871 59.8054C18.9601 60.2906 18.8824 60.7953 19.1736 61.3582C19.5424 62.057 17.8343 61.9988 41.904 61.9988C65.9737 61.9988 64.2655 62.057 64.6343 61.3194C64.9255 60.7565 64.8479 60.2518 64.4208 59.7665L64.0326 59.3589L62.6156 59.3201L61.1986 59.2813V49.8669V40.4525H54.4047H47.6108L47.6691 40.8019C47.7079 40.996 47.7855 41.6366 47.8632 42.1995L47.999 43.2477H49.7655H51.5513V45.053V46.8582H50.1537C48.892 46.8582 48.7561 46.8776 48.7561 47.0523C48.7561 47.1688 48.9308 47.8287 49.1055 48.5469L49.4743 49.8475L50.5225 49.8863L51.5513 49.9251V51.7109V53.5162H51.2213C51.0466 53.5162 50.8913 53.5744 50.8913 53.6326C50.8913 53.8073 51.9395 55.8843 52.483 56.7384C52.7353 57.1655 53.2594 57.9225 53.6671 58.4272L54.3853 59.3589H53.2206H52.056L51.3766 58.3107C48.0185 53.2444 45.9803 45.5188 45.4368 35.8327L45.3786 34.4739L45.7862 34.3963C46.6209 34.241 46.6403 34.1439 46.6403 31.6981V29.4659L46.3491 29.2329C46.0385 29 45.9803 29 37.09 29H28.1221L27.8698 29.2912ZM58.1704 45.053V46.8582H56.3652H54.56V45.053V43.2477H56.3652H58.1704V45.053ZM58.1704 51.6721V53.4774H56.3652H54.56V51.6721V49.8669H56.3652H58.1704V51.6721Z" fill="white"/>
<path d="M57 23.9196C57 23.9196 56.8844 24.3155 56.5199 24.9093C56.3421 25.2015 56.102 25.5503 55.773 25.9274C55.4619 26.295 55.0618 26.6626 54.555 27.0208C54.2971 27.1905 54.0304 27.3601 53.7192 27.5015C53.4258 27.6712 53.0791 27.7843 52.7146 27.8692C51.9944 28.0765 51.132 28.0294 50.314 27.7843C49.9228 27.5958 49.5049 27.445 49.1582 27.1905C48.8292 26.9077 48.4558 26.7003 48.1802 26.3421C47.9134 26.0028 47.5756 25.6257 47.4333 25.2958L46.9888 24.2589C46.9977 24.2684 46.9443 24.1741 46.9621 24.2118L46.9532 24.2024L46.9443 24.1835L46.9354 24.1552L46.9087 24.0987L46.8554 23.9761L46.7487 23.7311L46.5264 23.2503C46.3664 22.9298 46.1175 22.713 45.8952 22.4585C45.6729 22.204 45.3617 22.0909 45.0861 21.9401C44.8016 21.8175 44.4815 21.827 44.2059 21.7893C43.6102 21.8553 43.1301 22.0155 42.6678 22.1757C42.5522 22.2134 42.4366 22.2417 42.321 22.27L42.321 22.27C42.2143 22.3077 42.0987 22.3548 41.9832 22.3831C41.752 22.4397 41.5297 22.5245 41.3163 22.6093C40.8807 22.7696 40.4717 22.9487 40.0983 23.1089C39.716 23.2786 39.3781 23.4294 39.1025 23.5425C38.5423 23.797 38.1689 23.929 38.1689 23.929L38 23.7593C38 23.7593 38.0356 23.6557 38.0978 23.4766C38.1689 23.2975 38.2756 23.0335 38.4623 22.7413C38.6402 22.4397 38.8802 22.1003 39.2092 21.7421C39.5381 21.3839 39.9471 21.0257 40.4628 20.7053C40.7117 20.5544 40.9874 20.3942 41.3074 20.2811C41.4675 20.2245 41.6186 20.1585 41.7875 20.1114C41.9565 20.0737 42.1343 20.0454 42.3121 20.0266C43.0323 19.9135 43.8414 20.1774 44.526 20.5167C44.8549 20.7524 45.1928 20.9315 45.4862 21.1766C45.7529 21.4405 46.0908 21.6102 46.3486 21.893C46.6065 22.1569 46.9265 22.3737 47.1844 22.6565L47.5933 23.0618L47.8067 23.2598L47.9134 23.3634L47.9668 23.4106L47.9934 23.4389L48.0112 23.4483L48.0201 23.4577C48.0468 23.4954 47.9934 23.4106 48.0023 23.42L48.8203 24.1552C48.9537 24.3061 49.0781 24.3626 49.2026 24.438C49.3271 24.5134 49.4338 24.5983 49.5405 24.6737C49.7361 24.8434 50.0206 24.9282 50.234 25.0602C50.474 25.1733 50.7141 25.1921 50.9275 25.277C51.3898 25.2958 51.8166 25.3524 52.2789 25.2864C52.3945 25.2675 52.5101 25.2675 52.6256 25.2581L52.6257 25.2581C52.7412 25.2298 52.8568 25.2015 52.9724 25.1827C53.2036 25.1544 53.4258 25.0884 53.6481 25.013C54.0927 24.8999 54.5105 24.7302 54.8928 24.5794C55.284 24.4192 55.6219 24.2684 55.8975 24.1552C56.4843 23.9007 56.8222 23.7499 56.8222 23.7499L57 23.9196Z" fill="white"/>
</svg>
