<svg width="83" height="83" viewBox="0 0 83 83" fill="none" xmlns="http://www.w3.org/2000/svg">
<circle cx="41.5" cy="41.5" r="41.5" fill="#9FA4E5" fill-opacity="0.4"/>
<circle cx="41.5" cy="41.5" r="40.5" stroke="white" stroke-opacity="0.6" stroke-width="2"/>
<path fill-rule="evenodd" clip-rule="evenodd" d="M57.6233 57.2453C57.6233 57.935 57.0921 58.4941 56.4369 58.4941H45.7476V30.999H56.433C57.0883 30.999 57.6194 31.5581 57.6194 32.2478L57.6233 57.2453ZM52.8699 35.9985H50.4971V38.5003H52.8699V35.9985ZM52.8699 43.4957H50.4971V45.9974H52.8699V43.4957ZM52.8699 50.9969H50.4971V53.4987H52.8699V50.9969Z" fill="white"/>
<path fill-rule="evenodd" clip-rule="evenodd" d="M45.7476 28.4972H57.6233C58.9338 28.4972 59.9961 29.6154 60 30.999V58.4982C60 59.8817 58.9377 61 57.6233 61H24.3767C23.0623 61 22 59.8817 22 58.4982V23.5018C22 22.1183 23.0623 21 24.3728 21H43.3709C44.6852 21 45.7476 22.1183 45.7476 23.5018V28.4972ZM32.6893 58.4941H35.0621V53.4987H32.6893V58.4941ZM37.435 58.4941H43.3748V24.7506C43.3748 24.0609 42.8436 23.5018 42.1883 23.5018H25.5631C24.9079 23.5018 24.3767 24.0609 24.3767 24.7506V57.2453C24.3767 57.935 24.9079 58.4941 25.5631 58.4941H30.3126V52.2458C30.3126 51.5561 30.8438 50.9969 31.499 50.9969H36.2485C36.9038 50.9969 37.435 51.5561 37.435 52.2458V58.4941ZM56.4369 58.4941C57.0921 58.4941 57.6233 57.935 57.6233 57.2453L57.6194 32.2478C57.6194 31.5581 57.0883 30.999 56.433 30.999H45.7476V58.4941H56.4369Z" fill="white"/>
<path d="M36.2485 28.4972H38.6252V30.999H36.2485V28.4972Z" fill="white"/>
<path d="M36.2485 35.9985H38.6252V38.5003H36.2485V35.9985Z" fill="white"/>
<path d="M36.2485 43.4957H38.6252V45.9974H36.2485V43.4957Z" fill="white"/>
<path d="M29.1262 43.4957H31.499V45.9974H29.1223L29.1262 43.4957Z" fill="white"/>
<path d="M29.1262 35.9985H31.499V38.5003H29.1223L29.1262 35.9985Z" fill="white"/>
<path d="M29.1262 28.4972H31.499V30.999H29.1223L29.1262 28.4972Z" fill="white"/>
</svg>
