<svg width="83" height="83" viewBox="0 0 83 83" fill="none" xmlns="http://www.w3.org/2000/svg">
<circle cx="41.5" cy="41.5" r="41.5" fill="#9FA4E5" fill-opacity="0.4"/>
<circle cx="41.5" cy="41.5" r="40.5" stroke="white" stroke-opacity="0.6" stroke-width="2"/>
<path d="M23.1864 24.5603L23.1864 24.5603L23.1847 24.5583C23.0047 24.3352 22.8979 24.1368 22.9 23.924C22.9021 23.7118 23.0122 23.5106 23.1989 23.2812L23.199 23.281C23.3961 23.0398 23.6911 22.9 24.0026 22.9H41H57.9974C58.3089 22.9 58.6039 23.0398 58.801 23.281L58.7236 23.3443L58.8011 23.2812C58.9875 23.5104 59.0973 23.7116 59.0994 23.9238C59.1015 24.1366 58.9951 24.3351 58.8153 24.5582L58.8153 24.5582L58.8137 24.5602C58.7425 24.6439 58.6767 24.7152 58.5968 24.7714C58.5152 24.8288 58.4237 24.8673 58.3038 24.8943C58.072 24.9467 57.7148 24.9598 57.0797 24.9796L57.0795 24.9796L56.6848 24.9911C56.1981 25.0053 55.811 25.4039 55.811 25.8907V41V56.1092C55.811 56.5961 56.1981 56.9947 56.6848 57.0089L57.0795 57.0204L57.0797 57.0204C57.7149 57.0402 58.072 57.0535 58.3038 57.1059C58.4237 57.133 58.5152 57.1714 58.5968 57.2288C58.6767 57.285 58.7424 57.3561 58.8136 57.4397L58.8153 57.4417C58.9953 57.6647 59.1021 57.8631 59.1 58.0759C59.0979 58.2881 58.9878 58.4893 58.8011 58.7188L58.801 58.719C58.6039 58.9601 58.3089 59.1 57.9974 59.1H41H24.0026C23.6911 59.1 23.3961 58.9601 23.199 58.719L23.199 58.719L23.1989 58.7188C23.0125 58.4896 22.9027 58.2884 22.9006 58.0762C22.8985 57.8634 23.0049 57.6649 23.1847 57.4418L23.1847 57.4418L23.1863 57.4398C23.2575 57.356 23.3233 57.2848 23.4032 57.2286C23.4848 57.1711 23.5763 57.1327 23.6962 57.1056C23.928 57.0533 24.2852 57.0402 24.9203 57.0204L24.9205 57.0204L25.3152 57.0089C25.8019 56.9947 26.189 56.5961 26.189 56.1092V41V25.8907C26.189 25.4039 25.8019 25.0053 25.3152 24.9911L24.9205 24.9796L24.9203 24.9796C24.2851 24.9598 23.928 24.9465 23.6962 24.8941C23.5763 24.867 23.4848 24.8285 23.4032 24.7711C23.3233 24.715 23.2576 24.6438 23.1864 24.5603ZM58.8994 23.9257C58.898 23.7839 58.8251 23.6277 58.6461 23.4076C58.487 23.2129 58.2488 23.1 57.9974 23.1H41H24.0026C23.7512 23.1 23.5131 23.2128 23.354 23.4074C23.1745 23.6281 23.1014 23.7842 23.1 23.926C23.0986 24.0669 23.1679 24.2188 23.3395 24.4316C23.4087 24.5128 23.4606 24.567 23.5182 24.6075C23.5742 24.6469 23.6403 24.6764 23.7403 24.699C23.9484 24.7461 24.281 24.7596 24.9265 24.7797L25.3211 24.7912C25.9158 24.8085 26.389 25.2957 26.389 25.8907V41V56.1092C26.389 56.7043 25.9158 57.1914 25.3211 57.2088L24.9265 57.2203C24.9265 57.2203 24.9265 57.2203 24.9264 57.2203C24.2809 57.2404 23.9484 57.2537 23.7403 57.3007C23.6402 57.3233 23.5742 57.3527 23.5182 57.3921C23.4607 57.4326 23.4087 57.487 23.3396 57.5683C23.1683 57.7811 23.0992 57.9332 23.1006 58.0742C23.102 58.2161 23.1749 58.3723 23.3539 58.5925C23.5131 58.7871 23.7512 58.9 24.0026 58.9H41H57.9974C58.2488 58.9 58.4869 58.7871 58.646 58.5925C58.8256 58.3719 58.8986 58.2157 58.9 58.074C58.9014 57.9331 58.8321 57.7812 58.6605 57.5684C58.5913 57.4872 58.5394 57.4329 58.4818 57.3924C58.4258 57.3531 58.3597 57.3236 58.2597 57.301C58.0516 57.2539 57.719 57.2404 57.0735 57.2203L56.6789 57.2088C56.0842 57.1914 55.611 56.7043 55.611 56.1092V41V25.8907C55.611 25.2957 56.0842 24.8085 56.6789 24.7912L57.0735 24.7797C57.719 24.7596 58.0516 24.7462 58.2597 24.6992C58.3598 24.6767 58.4258 24.6472 58.4818 24.6078C58.5393 24.5673 58.5913 24.513 58.6604 24.4317C58.8317 24.2189 58.9008 24.0668 58.8994 23.9257ZM40.2348 28.454C40.2659 28.5161 40.3062 28.564 40.3646 28.6191C40.6909 28.9257 41.2515 28.9292 41.6093 28.6169C41.6767 28.5566 41.7216 28.5089 41.7557 28.4492C41.7899 28.3894 41.8169 28.3107 41.8368 28.1847C41.8774 27.928 41.8847 27.5039 41.8847 26.7063V25.9854C41.8847 25.3779 42.3772 24.8854 42.9847 24.8854H47.827H52.6693C53.2768 24.8854 53.7693 25.3779 53.7693 25.9854V41V56.0138C53.7693 56.6213 53.2768 57.1138 52.6693 57.1138H47.982H43.2609C42.6681 57.1138 42.1819 56.644 42.1616 56.0515L42.1384 55.3761L42.1384 55.3756C42.1243 54.8962 42.105 54.5229 42.0702 54.2317C42.0352 53.9393 41.9853 53.7386 41.915 53.5997C41.8471 53.4656 41.7601 53.3886 41.6415 53.342C41.5171 53.2931 41.3527 53.2755 41.1265 53.2755C40.918 53.2755 40.769 53.2932 40.658 53.3409C40.5532 53.386 40.4752 53.4611 40.4156 53.5963C40.3537 53.7363 40.3125 53.9388 40.2877 54.2335C40.2629 54.5268 40.2549 54.9029 40.2549 55.3857V56.0138C40.2549 56.6213 39.7625 57.1138 39.1549 57.1138H34.2425H29.33C28.7225 57.1138 28.23 56.6213 28.23 56.0138V41V25.9854C28.23 25.3779 28.7225 24.8854 29.33 24.8854H34.1723H39.0146C39.6221 24.8854 40.1146 25.3779 40.1146 25.9854V26.7063C40.1146 27.4833 40.1219 27.9119 40.1595 28.1763C40.178 28.3067 40.2031 28.3907 40.2348 28.454Z" fill="white" stroke="white" stroke-width="0.2"/>
<path fill-rule="evenodd" clip-rule="evenodd" d="M37.1128 34.5155C38.822 33.2303 40.3775 32.1229 40.5637 32.0595C40.7499 31.996 41.0547 31.9835 41.2391 32.0211C41.6792 32.0978 47.7343 36.6147 47.9372 36.9966C48.2754 37.658 47.1757 38.4721 46.3641 38.1543C46.1437 38.0783 45.1125 37.3785 44.0805 36.6022L43.7671 36.3684C43.1075 35.8766 42.1693 36.3473 42.1693 37.1701V41.4501C42.1693 44.886 42.2202 47.7108 42.2878 47.7108C42.3546 47.7108 43.2856 47.0487 44.3677 46.2472C46.4818 44.6819 46.82 44.555 47.5982 45.0129C47.852 45.1781 47.9706 45.3942 47.9706 45.6618C47.9706 46.0179 47.5815 46.3615 44.8587 48.4482C43.1504 49.7591 41.5773 50.8791 41.3744 50.9425C41.1206 51.0192 40.85 51.0192 40.6129 50.9425C40.3933 50.8784 38.8202 49.7591 37.1119 48.4482C34.3891 46.3615 34 46.0179 34 45.6618C34 45.3948 34.1186 45.1788 34.3724 45.0129C35.1506 44.555 35.4888 44.6819 37.6029 46.2472C38.6858 47.0493 39.616 47.7108 39.6836 47.7108C39.7512 47.7108 39.8022 44.8986 39.8022 41.4501V37.1837C39.8022 36.3609 38.8638 35.8902 38.2042 36.3822L37.8066 36.6788C35.9464 38.0532 35.5915 38.2441 34.8976 38.1675C34.4409 38.1292 34.0009 37.6838 34.0009 37.2768C34.0009 36.9332 34.4067 36.5638 37.1128 34.5155Z" fill="#635F9B"/>
</svg>
