<svg width="83" height="83" viewBox="0 0 83 83" fill="none" xmlns="http://www.w3.org/2000/svg">
<g clip-path="url(#clip0_2540_8576)">
<path d="M41.5 83C64.4198 83 83 64.4198 83 41.5C83 18.5802 64.4198 0 41.5 0C18.5802 0 0 18.5802 0 41.5C0 64.4198 18.5802 83 41.5 83Z" fill="#9FA4E5" fill-opacity="0.4"/>
<path d="M41.5 82C63.8675 82 82 63.8675 82 41.5C82 19.1325 63.8675 1 41.5 1C19.1325 1 1 19.1325 1 41.5C1 63.8675 19.1325 82 41.5 82Z" stroke="white" stroke-opacity="0.6" stroke-width="2"/>
<path d="M54.6 31.7368H49.5V28.3684C49.5 26.5107 47.9751 25 46.1 25H35.9C34.0249 25 32.5 26.5107 32.5 28.3684V31.7368H27.4C25.5249 31.7368 24 33.2476 24 35.1053V41.8421H32.5V38.4737H35.9V41.8421H46.1V38.4737H49.5V41.8421H58V35.1053C58 33.2476 56.4751 31.7368 54.6 31.7368ZM35.9 28.3684H46.1V31.7368H35.9V28.3684ZM49.5 46.8947H46.1V43.5263H35.9V46.8947H32.5V43.5263H24V53.6316C24 55.4893 25.5249 57 27.4 57H54.6C56.4751 57 58 55.4893 58 53.6316V43.5263H49.5V46.8947Z" fill="white"/>
</g>
<defs>
<clipPath id="clip0_2540_8576">
<rect width="83" height="83" fill="white"/>
</clipPath>
</defs>
</svg>
