<svg width="83" height="83" viewBox="0 0 83 83" fill="none" xmlns="http://www.w3.org/2000/svg">
<circle cx="41.5" cy="41.5" r="41.5" fill="#9FA4E5" fill-opacity="0.4"/>
<circle cx="41.5" cy="41.5" r="40.5" stroke="white" stroke-opacity="0.6" stroke-width="2"/>
<path d="M36.1884 23.1225C35.6705 23.3837 35.6513 23.4755 35.6513 25.4739V27.225H30.2272H24.7964L24.5179 27.3874C24.1943 27.571 24 27.9171 24 28.3053C24 28.7219 24.2525 29.1458 24.5825 29.2869C24.6863 29.3291 30.4404 29.3574 40.4797 29.3574C54.6875 29.3574 56.2344 29.3435 56.4156 29.2443C56.7328 29.0676 56.9075 28.7359 56.9139 28.3123C56.9139 27.9097 56.7974 27.6768 56.4674 27.4087C56.2927 27.2603 56.228 27.2603 50.7972 27.2393L45.3017 27.2254L45.2822 25.4599C45.2626 23.5251 45.2627 23.5321 44.8161 23.1721C44.6414 23.0237 44.5636 23.0237 40.5507 23.0097C36.6221 22.9884 36.4473 22.9954 36.1884 23.1225Z" fill="white"/>
<path d="M40.0849 31.4191C39.826 31.5462 39.6125 31.8074 39.5347 32.1042C39.4892 32.2526 39.47 34.258 39.47 37.4495L39.4764 42.5478L39.1592 43.1338C38.473 44.3765 38.0652 45.4429 37.8062 46.6503C37.7284 47.0386 37.6961 47.4978 37.6961 48.4437C37.6961 49.5663 37.7156 49.8066 37.8645 50.5056C38.3824 52.8923 39.5667 54.8693 41.5086 56.5782L41.7676 56.8041L35.7996 56.8111H29.8257V44.6799C29.8257 36.03 29.8061 32.4782 29.7546 32.2732C29.6576 31.8989 29.3209 31.5602 28.9845 31.4966C28.6286 31.4331 28.1689 31.6803 28.0006 32.0263C27.8905 32.2592 27.8841 32.8385 27.8841 45.2379V58.2022L28.0265 58.4351C28.1107 58.5622 28.2595 58.7386 28.3565 58.8164L28.5377 58.9648H40.4604H52.383L52.6161 58.8025C52.9787 58.5622 53.0626 58.2941 53.0626 57.4257V56.6913L53.6647 56.1264C54.6227 55.2227 55.5419 53.9443 56.105 52.7229C56.4222 52.0308 56.7976 50.7106 56.9205 49.8562C57.0498 48.9312 57.0175 47.2719 56.8495 46.4314C56.3898 44.1366 55.2379 42.0534 53.5936 40.5425L53.0629 40.0554V36.1222V32.1891L52.9141 31.9488C52.5127 31.285 51.6261 31.3133 51.2698 31.9984C51.121 32.2739 51.121 32.2949 51.121 35.4654V38.6569L50.7391 38.4946C49.8589 38.1133 48.4995 37.8168 47.6516 37.8168H47.2374V35.0628C47.2374 32.0194 47.231 31.9701 46.8428 31.6663C46.5451 31.4334 46.0013 31.4261 45.71 31.6524C45.2958 31.9771 45.2958 31.9841 45.2958 35.2678C45.2958 37.5909 45.2763 38.2477 45.2181 38.2686C43.7358 38.7418 42.7003 39.2289 41.9299 39.8221L41.5089 40.1469L41.4702 38.6782C41.4507 37.8734 41.4248 36.0513 41.4184 34.6323C41.412 32.0763 41.412 32.048 41.2695 31.8148C40.991 31.3769 40.5058 31.2145 40.0849 31.4191ZM49.1858 40.1682C50.7391 40.6061 51.9042 41.3474 52.9595 42.5478C54.3512 44.1436 55.0826 46.135 55.0762 48.3732C55.0762 50.7315 54.3385 52.6807 52.8107 54.347C49.2312 58.2731 43.2374 57.4117 40.6483 52.6098C39.2306 49.9759 39.2825 46.5159 40.7776 43.9103C41.9558 41.8697 43.8263 40.4925 46.04 40.0407C46.8424 39.8787 48.383 39.9423 49.1858 40.1682Z" fill="white"/>
<path fill-rule="evenodd" clip-rule="evenodd" d="M49.1858 40.1682C50.7391 40.6061 51.9042 41.3474 52.9595 42.5478C54.3512 44.1436 55.0826 46.135 55.0762 48.3732C55.0762 50.7315 54.3385 52.6807 52.8107 54.347C49.2312 58.2731 43.2374 57.4117 40.6483 52.6098C39.2306 49.9759 39.2825 46.5159 40.7776 43.9103C41.9558 41.8697 43.8263 40.4925 46.04 40.0407C46.8424 39.8787 48.383 39.9423 49.1858 40.1682ZM48.7587 47.6313C50.1828 46.0847 51.4384 44.7645 51.5422 44.7079C51.9499 44.4747 52.4416 44.637 52.7524 45.0962C52.908 45.3221 52.9271 45.8236 52.7978 46.0987C52.746 46.2049 51.3219 47.8006 49.6325 49.6436C46.7326 52.8141 46.5514 52.9978 46.2925 53.04C45.9302 53.0966 45.6002 52.9695 45.3799 52.687C45.2766 52.5599 44.5839 51.8326 43.8266 51.063C42.3702 49.58 42.2019 49.3332 42.2924 48.874C42.3507 48.5562 42.5382 48.2528 42.7585 48.1044C43.011 47.949 43.5289 47.942 43.7424 48.1044C43.833 48.168 44.3896 48.726 44.9786 49.3402C45.5742 49.9544 46.079 50.4558 46.1113 50.4558C46.1436 50.4558 47.3347 49.1848 48.7587 47.6313Z" fill="white"/>
<path d="M34.1625 31.617C34.046 31.7088 33.8841 31.8712 33.813 31.977L33.677 32.1746V43.0631V53.9516L33.8258 54.2058C34.2013 54.8696 35.1202 54.8556 35.4893 54.1845C35.6186 53.9516 35.6186 53.8245 35.6186 43.0771V32.2029L35.4697 31.9487C35.198 31.4686 34.5767 31.3132 34.1625 31.617Z" fill="white"/>
</svg>
