<svg width="83" height="83" viewBox="0 0 83 83" fill="none" xmlns="http://www.w3.org/2000/svg">
<circle cx="41.5" cy="41.5" r="41.5" fill="#9FA4E5" fill-opacity="0.4"/>
<circle cx="41.5" cy="41.5" r="40.5" stroke="white" stroke-opacity="0.6" stroke-width="2"/>
<path d="M24.9744 22.0471C24.5675 22.1149 23.9741 22.3353 23.4486 22.6065C22.4484 23.1151 21.6855 24.0476 21.1938 25.3191L21.0243 25.7768L21.0073 41.7298C20.9904 59.4629 20.9565 58.2761 21.5159 59.412C21.9058 60.2088 22.7705 61.0734 23.5673 61.4634C24.6862 62.0228 23.3299 61.9889 43.1313 61.9889H61V44.3745V26.7431H45.7421L30.4842 26.7262L30.4333 26.2515C30.2299 24.2341 28.6871 22.5218 26.7206 22.1149C26.212 21.9962 25.4152 21.9623 24.9744 22.0471ZM59.6607 44.3575L59.6437 60.6326L42.6905 60.6496C31.8065 60.6496 25.5508 60.6496 25.2287 60.5987C23.8046 60.3783 22.6518 59.2255 22.4144 57.7845C22.1941 56.4961 22.8044 55.1398 23.9233 54.4278C25.839 53.1902 28.4328 54.1904 29.0432 56.4113C29.111 56.6317 29.1449 56.9029 29.1449 57.0216V57.242H29.8061H30.4672V56.7843C30.4672 56.5469 30.4672 50.0369 30.4672 42.3571C30.4672 34.6603 30.4842 28.3028 30.5011 28.2181C30.535 28.0994 31.2979 28.0824 45.1148 28.0824H59.6776L59.6607 44.3575Z" fill="white"/>
<path d="M42.9915 35.0451C42.8224 35.1205 42.7379 35.3184 42.8036 35.4975C42.8412 35.6106 43.3202 35.9971 43.6113 36.1479C43.9213 36.3175 44.2781 35.8934 44.0809 35.6106C44.0152 35.5069 43.339 35.0451 43.2075 35.0074C43.1699 34.9885 43.0666 35.0074 42.9915 35.0451Z" fill="white"/>
<path d="M41.3219 36.1115C40.9744 36.3969 40.9164 36.473 40.9164 36.6633C40.9164 36.8155 41.1068 37.0344 41.2309 37.0344C41.3219 37.0344 41.7688 36.7109 41.9923 36.492C42.133 36.3493 42.1412 36.0924 42.0088 35.9497C41.8516 35.7784 41.6943 35.8165 41.3219 36.1115Z" fill="white"/>
<path d="M44.9212 36.3655C44.7884 36.3938 44.6462 36.5823 44.6462 36.7238C44.6462 36.8935 44.741 37.0066 45.1204 37.2706C45.5187 37.5535 45.642 37.5912 45.8222 37.4969C45.9645 37.4215 46.0024 37.3555 46.0024 37.1481C46.0024 36.9878 45.9171 36.8935 45.4808 36.5918C45.1678 36.3655 45.073 36.3372 44.9212 36.3655Z" fill="white"/>
<path d="M39.3323 37.4794C39.1259 37.6313 38.9383 37.8022 38.9101 37.8687C38.8069 38.0965 39.004 38.3908 39.2479 38.3908C39.3886 38.3908 40.111 37.8877 40.1955 37.7263C40.3268 37.4984 40.1392 37.2041 39.8671 37.2041C39.7451 37.2041 39.6325 37.2611 39.3323 37.4794Z" fill="white"/>
<path d="M46.8159 37.7238C46.458 37.8357 46.4054 38.2182 46.7106 38.4141C47.1737 38.7126 47.5211 38.8991 47.6263 38.8991C47.7947 38.8991 48.0368 38.6752 48.0368 38.526C48.0368 38.3488 47.9526 38.2648 47.5 37.9849C47.0685 37.7331 46.9422 37.6864 46.8159 37.7238Z" fill="white"/>
<path d="M37.479 38.8197C37.0832 39.1066 37.0172 39.1831 37.0172 39.3839C37.0172 39.5752 37.1963 39.7473 37.4036 39.7473C37.4885 39.7473 38.0257 39.403 38.2519 39.2022C38.497 38.9823 38.3461 38.5615 38.0257 38.5615C37.8843 38.552 37.7712 38.6094 37.479 38.8197Z" fill="white"/>
<path d="M48.5991 39.0098C48.3184 39.0522 48.181 39.2754 48.3059 39.491C48.3956 39.6423 49.162 40.287 49.2879 40.311C49.4595 40.3437 49.7112 40.267 49.7949 40.1391C49.9305 39.9251 49.8601 39.7967 49.2979 39.3251C48.9283 39.0246 48.8306 38.9772 48.5991 39.0098Z" fill="white"/>
<path d="M36.1591 39.9677C36.0207 40.0635 36.012 40.1061 36.0033 40.6811C35.9947 41.3413 35.9947 41.3626 36.1072 41.4904C36.2456 41.6608 36.4186 41.6502 36.5657 41.4691C36.6781 41.3307 36.6781 41.32 36.6781 40.7557C36.6781 40.2445 36.6695 40.1806 36.5916 40.0635C36.4878 39.9144 36.3061 39.8718 36.1591 39.9677Z" fill="white"/>
<path d="M49.4961 41.0463C49.4017 41.1518 49.3931 41.1805 49.3931 41.6982C49.3931 42.2255 49.3931 42.2446 49.4961 42.3501C49.642 42.5035 49.848 42.4939 49.9768 42.3309C50.0626 42.2159 50.0712 42.168 50.0712 41.7078C50.0712 41.1997 50.0712 41.1997 49.9596 41.0655C49.8051 40.893 49.6334 40.893 49.4961 41.0463Z" fill="white"/>
<path d="M38.8865 41.1893C38.7133 41.3034 38.6652 41.5108 38.7614 41.7079C38.8672 41.9153 39.0212 41.9672 39.56 41.9465C40.0122 41.9361 40.0411 41.9257 40.1373 41.8013C40.272 41.6249 40.272 41.4279 40.1373 41.2516C40.0314 41.1271 40.0218 41.1167 39.5215 41.1063C39.0981 41.096 39.0115 41.1063 38.8865 41.1893Z" fill="white"/>
<path d="M41.321 41.1666C41.1218 41.2726 41.0693 41.4633 41.0903 42.0461C41.1008 42.5441 41.1113 42.5758 41.2371 42.6818C41.3106 42.7454 41.4364 42.7984 41.5098 42.7984C41.5833 42.7984 41.7091 42.7454 41.7825 42.6818C41.9084 42.5652 41.9189 42.5441 41.9294 42.0461C41.9504 41.4527 41.8979 41.2726 41.6881 41.1666C41.5413 41.0818 41.4784 41.0818 41.321 41.1666Z" fill="white"/>
<path d="M45.2155 41.1523C44.9764 41.2556 44.9094 41.586 45.0816 41.8028C45.1868 41.9267 45.1964 41.9371 45.6939 41.9474C46.1243 41.9577 46.2104 41.9474 46.3348 41.8648C46.5835 41.6996 46.5644 41.3072 46.3061 41.1627C46.1722 41.0904 45.359 41.0801 45.2155 41.1523Z" fill="white"/>
<path d="M47.595 41.166C47.4101 41.2603 47.3587 41.4176 47.3587 41.984C47.3587 42.4978 47.3587 42.5083 47.4922 42.6552C47.7182 42.8859 48.0161 42.8334 48.1394 42.5293C48.2215 42.33 48.2318 41.6169 48.1496 41.3967C48.0983 41.2498 47.9031 41.103 47.7696 41.103C47.7388 41.103 47.6669 41.1345 47.595 41.166Z" fill="white"/>
<path d="M37.992 42.0666C37.8755 42.1728 37.8649 42.2018 37.8649 42.7136C37.8649 43.2254 37.8649 43.2544 37.992 43.3606C38.0662 43.4378 38.1615 43.4765 38.2887 43.4765C38.4158 43.4765 38.5006 43.4378 38.5854 43.3606C38.7019 43.2544 38.7125 43.2254 38.7125 42.7136C38.7125 42.2018 38.7125 42.1728 38.5854 42.0666C38.5112 41.9893 38.4158 41.9507 38.2887 41.9507C38.1615 41.9507 38.0662 41.9893 37.992 42.0666Z" fill="white"/>
<path d="M44.2647 42.0666C44.1482 42.1728 44.1376 42.2018 44.1376 42.7136C44.1376 43.2254 44.1376 43.2544 44.2647 43.3606C44.3389 43.4378 44.4343 43.4765 44.5614 43.4765C44.6886 43.4765 44.7733 43.4378 44.8581 43.3606C44.9746 43.2544 44.9852 43.2254 44.9852 42.7136C44.9852 42.2018 44.9852 42.1728 44.8581 42.0666C44.7839 41.9893 44.6886 41.9507 44.5614 41.9507C44.4343 41.9507 44.3389 41.9893 44.2647 42.0666Z" fill="white"/>
<path d="M36.1567 42.3405C36.0053 42.447 35.9884 42.5749 36.0053 43.3419C36.0137 43.7041 36.0221 43.768 36.1062 43.8639C36.2408 44.0344 36.409 44.0237 36.5604 43.8426L36.6781 43.6935L36.6613 43.1075C36.6529 42.5962 36.6361 42.511 36.5688 42.4151C36.4679 42.2766 36.2912 42.2553 36.1567 42.3405Z" fill="white"/>
<path d="M49.4974 43.4161C49.4018 43.5212 49.3931 43.5499 49.3931 44.0659C49.3931 44.4195 49.4105 44.6298 49.4452 44.6775C49.5843 44.8782 49.8538 44.8878 49.993 44.6871C50.0625 44.5915 50.0712 44.5055 50.0712 44.0659C50.0712 43.569 50.0712 43.5594 49.9582 43.4352C49.8104 43.2727 49.6365 43.2632 49.4974 43.4161Z" fill="white"/>
<path d="M41.3227 43.5309C41.1524 43.6262 41.0779 43.7956 41.0673 44.0814V44.3355H40.7693C40.5138 44.3355 40.45 44.3567 40.3542 44.4626C40.1626 44.6531 40.2158 45.0025 40.4606 45.119C40.5245 45.1507 40.8225 45.1719 41.1098 45.1719C41.61 45.1719 41.6526 45.1613 41.7803 45.0554C41.908 44.939 41.9187 44.9178 41.9293 44.4202C41.9506 43.8273 41.8974 43.6473 41.6845 43.5415C41.5355 43.4568 41.4717 43.4568 41.3227 43.5309Z" fill="white"/>
<path d="M47.5746 43.5397C47.4061 43.624 47.3429 43.7819 47.3429 44.0978V44.34H47.0481C46.7954 44.34 46.7322 44.3611 46.6374 44.4664C46.4689 44.6349 46.4689 44.8981 46.6374 45.0455C46.7638 45.1614 46.8059 45.1719 47.3219 45.1719C47.6272 45.1719 47.9221 45.1508 47.9747 45.1192C48.1327 45.035 48.2064 44.7717 48.2064 44.3295C48.2064 43.803 48.1432 43.624 47.9326 43.5397C47.7431 43.4555 47.7431 43.4555 47.5746 43.5397Z" fill="white"/>
<path d="M37.9925 44.3093C37.8223 44.5024 37.8223 44.8115 37.9925 45.0175C38.1201 45.172 38.1414 45.172 38.7051 45.172C39.2475 45.172 39.29 45.1591 39.4177 45.0303C39.5985 44.8501 39.6091 44.5282 39.4389 44.3093C39.3219 44.1677 39.3007 44.1548 38.7157 44.1548C38.1414 44.1677 38.0989 44.1677 37.9925 44.3093Z" fill="white"/>
<path d="M44.266 44.2964C44.1804 44.3865 44.1376 44.5024 44.1376 44.6569C44.1376 44.8115 44.1804 44.9145 44.266 45.0175C44.3838 45.1591 44.4159 45.172 44.9832 45.172C45.5505 45.172 45.5827 45.172 45.7004 45.0175C45.8824 44.8115 45.8717 44.4509 45.7004 44.2835C45.5827 44.1677 45.5077 44.1548 44.9832 44.1548C44.4052 44.1548 44.3731 44.1548 44.266 44.2964Z" fill="white"/>
<path d="M36.2302 44.698C36.032 44.8036 35.9803 45.0463 36.0062 45.9117C36.0148 46.3338 36.3335 46.5027 36.5661 46.2178C36.6781 46.0806 36.6781 46.0594 36.6781 45.5634C36.6781 44.9513 36.6437 44.8247 36.4628 44.7297C36.3852 44.6875 36.3163 44.6558 36.3163 44.6664C36.3163 44.6558 36.2732 44.6769 36.2302 44.698Z" fill="white"/>
<path d="M49.451 45.7152C49.312 45.7723 49.2372 45.8864 49.2372 46.1051V46.2857H48.9484C48.6169 46.2857 48.4245 46.3903 48.3817 46.59C48.3496 46.7326 48.4565 46.9609 48.5742 47.0084C48.6169 47.0179 48.9805 47.0369 49.3655 47.0369H50.0712V46.4854C50.0712 45.9339 50.0712 45.9339 49.9322 45.8103C49.7825 45.6772 49.6435 45.6487 49.451 45.7152Z" fill="white"/>
<path d="M36.8217 46.4746C36.6396 46.6304 36.6289 46.8034 36.8003 46.9332C36.9182 47.0284 36.9503 47.037 37.5288 47.037C38.0967 47.037 38.1502 47.037 38.236 46.9418C38.2895 46.8899 38.3538 46.8207 38.3645 46.7861C38.4074 46.6909 38.2895 46.4573 38.161 46.4054C38.0967 46.3795 37.8074 46.3622 37.5074 46.3622C36.9717 46.3535 36.961 46.3535 36.8217 46.4746Z" fill="white"/>
<path d="M39.1947 46.4791C39.0132 46.6336 39.0025 46.8053 39.1733 46.934C39.2908 47.0284 39.3228 47.037 39.8993 47.037C40.4865 47.037 40.5078 47.037 40.6252 46.934C40.7961 46.7881 40.7854 46.5821 40.6039 46.4533C40.4758 46.3675 40.4224 46.3589 39.91 46.3589C39.3548 46.3589 39.3442 46.3589 39.1947 46.4791Z" fill="white"/>
<path d="M41.5677 46.4791C41.3867 46.6336 41.3761 46.8053 41.5464 46.934C41.6634 47.0284 41.6954 47.037 42.2488 47.037C42.5681 47.037 42.8767 47.0284 42.9193 47.0113C43.047 46.9683 43.1534 46.7623 43.1108 46.6336C43.047 46.4104 42.898 46.3589 42.2701 46.3589C41.7167 46.3589 41.706 46.3589 41.5677 46.4791Z" fill="white"/>
<path d="M43.9269 46.4791C43.764 46.6336 43.7545 46.8053 43.9077 46.934C44.0131 47.0284 44.0418 47.037 44.5399 47.037C44.8272 47.037 45.105 47.0284 45.1433 47.0113C45.2583 46.9683 45.354 46.7623 45.3157 46.6336C45.2583 46.4104 45.1242 46.3589 44.559 46.3589C44.061 46.3589 44.0514 46.3589 43.9269 46.4791Z" fill="white"/>
<path d="M46.2944 46.4706C46.2285 46.5307 46.172 46.6251 46.172 46.6766C46.172 46.7881 46.285 46.9769 46.3698 47.0113C46.464 47.0456 47.4058 47.0456 47.5 47.0113C47.5848 46.9769 47.6978 46.7967 47.6978 46.6766C47.6978 46.6251 47.6413 46.5392 47.5753 46.4706C47.4529 46.359 47.4435 46.359 46.9443 46.359C46.4451 46.359 46.4169 46.3504 46.2944 46.4706Z" fill="white"/>
<path d="M43.0635 53.2582C42.6566 53.4955 42.5718 54.038 42.9109 54.3432L43.1143 54.5297H45.064H46.9966L47.2001 54.3432C47.5391 54.038 47.4713 53.4786 47.0814 53.2751C46.7932 53.1395 43.3178 53.1226 43.0635 53.2582Z" fill="white"/>
<path d="M48.8106 55.9028V58.6323L53.2184 58.6153L57.6093 58.5984L57.6263 55.8859L57.6432 53.1733H53.2354H48.8276V55.9028H48.8106Z" fill="white"/>
<path d="M41.7072 55.2756C41.6055 55.3095 41.4699 55.479 41.4021 55.6316C41.2834 55.8859 41.2834 55.9198 41.4021 56.1741C41.6055 56.5979 41.792 56.6318 44.5554 56.5979L46.9797 56.581L47.1831 56.3945C47.3187 56.2589 47.3865 56.1232 47.3865 55.9537C47.3865 55.2417 47.3357 55.2247 44.3689 55.2247C43.0126 55.2078 41.8089 55.2417 41.7072 55.2756Z" fill="white"/>
<path d="M39.6728 57.3098C39.5711 57.3437 39.4355 57.5132 39.3677 57.6658C39.249 57.9201 39.249 57.954 39.3677 58.2083C39.4694 58.4117 39.5711 58.5134 39.7915 58.5643C39.995 58.6321 41.1817 58.6491 43.5382 58.6321L46.9797 58.6152L47.1831 58.4287C47.3866 58.2422 47.4544 57.9031 47.3357 57.598C47.2001 57.2589 47.0306 57.242 43.3347 57.2589C41.436 57.242 39.7746 57.2759 39.6728 57.3098Z" fill="white"/>
</svg>
