<svg width="83" height="83" viewBox="0 0 83 83" fill="none" xmlns="http://www.w3.org/2000/svg">
<g clip-path="url(#clip0_2540_8576)">
<path d="M41.5 83C64.4198 83 83 64.4198 83 41.5C83 18.5802 64.4198 0 41.5 0C18.5802 0 0 18.5802 0 41.5C0 64.4198 18.5802 83 41.5 83Z" fill="#9FA4E5" fill-opacity="0.4"/>
<path d="M41.5 82C63.8675 82 82 63.8675 82 41.5C82 19.1325 63.8675 1 41.5 1C19.1325 1 1 19.1325 1 41.5C1 63.8675 19.1325 82 41.5 82Z" stroke="white" stroke-opacity="0.6" stroke-width="2"/>
<path fill-rule="evenodd" clip-rule="evenodd" d="M54.9986 29.7475H44.998V25.2516C44.998 24.0064 44.1034 23 42.9965 23H26.9982C25.8946 23 25 24.0064 25 25.2516V56.7484C25 57.9936 25.8946 59 27.0014 59H54.9986C56.1054 59 57 57.9936 57 56.7484V31.9991C56.9967 30.7539 56.1021 29.7475 54.9986 29.7475ZM42.9998 56.7447H37.9979V51.1212C37.9979 50.5005 37.5506 49.9972 36.9988 49.9972H32.9992C32.4474 49.9972 32.0001 50.5005 32.0001 51.1212V56.7447H28.0005C27.4487 56.7447 27.0014 56.2415 27.0014 55.6208V26.3756C27.0014 25.7548 27.4487 25.2516 28.0005 25.2516H42.0007C42.5525 25.2516 42.9998 25.7548 42.9998 26.3756V56.7447ZM32.9992 29.7475H39.0002V31.9991H32.9992H32.0001H30.9978L31.001 29.7475H32.0001H32.9992ZM39.0002 36.4986H32.9992H31.6897H31.001L30.9978 38.7502H31.6897H32.9992H39.0002V36.4986ZM37.9995 43.2461H39.0002V45.4977H37.9995H36.9988H30.9978L31.001 43.2461H36.9988H37.9995Z" fill="white"/>
</g>
<defs>
<clipPath id="clip0_2540_8576">
<rect width="83" height="83" fill="white"/>
</clipPath>
</defs>
</svg>
