<svg width="20" height="20" viewBox="0 0 20 20" fill="none" xmlns="http://www.w3.org/2000/svg">
<g clip-path="url(#clip0_1331_6242)">
<path d="M9.64999 5.1H9.95407C12.0871 5.1 13.1536 5.1 13.5585 5.4831C13.9085 5.81425 14.0636 6.3021 13.9691 6.77455C13.8598 7.32112 12.9891 7.937 11.2476 9.16877L8.4024 11.1812C6.66093 12.413 5.79019 13.0289 5.68088 13.5755C5.5864 14.0479 5.74149 14.5358 6.09145 14.8669C6.49631 15.25 7.56285 15.25 9.69591 15.25H10.35M7.19999 5.1C7.19999 6.2598 6.2598 7.2 5.1 7.2C3.9402 7.2 3 6.2598 3 5.1C3 3.9402 3.9402 3 5.1 3C6.2598 3 7.19999 3.9402 7.19999 5.1ZM17 14.9C17 16.0598 16.0598 17 14.9 17C13.7402 17 12.8 16.0598 12.8 14.9C12.8 13.7402 13.7402 12.8 14.9 12.8C16.0598 12.8 17 13.7402 17 14.9Z" stroke="white" stroke-width="2" stroke-linecap="round" stroke-linejoin="round"/>
</g>
<defs>
<clipPath id="clip0_1331_6242">
<rect width="20" height="20" fill="white"/>
</clipPath>
</defs>
</svg>
