<svg width="20" height="20" viewBox="0 0 20 20" fill="none" xmlns="http://www.w3.org/2000/svg">
<path d="M10.0001 1.66663C5.40508 1.66663 1.66675 5.40496 1.66675 9.99996C1.66675 14.595 5.40508 18.3333 10.0001 18.3333C14.5951 18.3333 18.3334 14.595 18.3334 9.99996C18.3334 5.40496 14.5951 1.66663 10.0001 1.66663ZM16.6092 9.16663H14.3059C14.2031 7.34266 13.6928 5.56493 12.8126 3.96413C13.8328 4.44083 14.7158 5.16779 15.3796 6.07738C16.0434 6.98698 16.4664 8.04967 16.6092 9.16663V9.16663ZM10.4417 3.35579C11.3042 4.49246 12.4642 6.50579 12.6309 9.16663H7.52508C7.64091 7.00329 8.35341 4.97663 9.56758 3.35496C9.71091 3.34663 9.85425 3.33329 10.0001 3.33329C10.1492 3.33329 10.2951 3.34663 10.4417 3.35579ZM7.24008 3.93913C6.42008 5.51496 5.94675 7.30163 5.85841 9.16663H3.39091C3.53489 8.03982 3.96394 6.96838 4.63749 6.05364C5.31104 5.1389 6.20682 4.41112 7.24008 3.93913V3.93913ZM3.39091 10.8333H5.86925C5.98258 12.8158 6.42341 14.565 7.16591 16.025C6.15107 15.5466 5.27319 14.8201 4.61338 13.9127C3.95357 13.0053 3.53313 11.9462 3.39091 10.8333V10.8333ZM9.54175 16.6441C8.37425 15.2291 7.68508 13.2466 7.53425 10.8333H12.6284C12.4551 13.1441 11.6976 15.1633 10.4592 16.6433C10.3076 16.6533 10.1559 16.6666 10.0001 16.6666C9.84508 16.6666 9.69425 16.6533 9.54175 16.6441ZM12.8842 16.0008C13.6801 14.5058 14.1659 12.75 14.2934 10.8333H16.6084C16.4678 11.9369 16.0534 12.9877 15.4029 13.8903C14.7525 14.7928 13.8867 15.5183 12.8842 16.0008V16.0008Z" fill="white"/>
</svg>
