<svg width="38" height="38" viewBox="0 0 38 38" fill="none" xmlns="http://www.w3.org/2000/svg">
<path d="M17.7039 7.12339C16.5927 7.41327 15.8358 7.86419 15.0467 8.70162C13.6778 10.151 13.243 12.2446 13.8871 14.2093C13.9677 14.467 14.4186 15.3689 14.8695 16.2063C16.2062 18.6542 17.1724 20.7799 18.0743 23.2761C18.2998 23.8881 18.5413 24.4517 18.6218 24.5323C18.7829 24.7094 19.1855 24.7255 19.3465 24.5645C19.411 24.5001 19.6686 23.8881 19.9263 23.1956C20.9087 20.5223 21.9877 18.1871 23.1472 16.1258C23.8236 14.934 24.049 14.4348 24.194 13.9033C24.9831 10.924 23.2599 7.9125 20.345 7.1556C19.6203 6.96234 18.332 6.94624 17.7039 7.12339ZM19.9585 10.3926C20.4255 10.618 20.8443 11.0368 21.0858 11.5038C21.3274 12.003 21.3274 12.9371 21.0858 13.4041C20.6349 14.2415 19.9424 14.6925 19.0406 14.6925C17.0758 14.6925 16.0451 12.3251 17.414 10.9079C18.0582 10.2154 19.1211 9.98997 19.9585 10.3926Z" fill="#101828"/>
<path d="M7.49409 19.6367C6.96265 19.7816 6.4312 20.0554 6.0769 20.3775C5.77092 20.6512 2.96875 23.8721 2.96875 23.9526C2.96875 23.9688 3.5324 24.2586 4.22489 24.5646L5.48104 25.1444L10.0064 23.0669C12.5026 21.9235 14.5478 20.9572 14.5478 20.9089C14.5639 20.8767 14.3868 20.5546 14.1613 20.2003L13.7426 19.5561L10.8116 19.54C8.49257 19.54 7.80008 19.5561 7.49409 19.6367Z" fill="#217BF4"/>
<path d="M23.7111 20.4902C23.2119 21.4726 22.616 22.7609 22.3583 23.4373L22.2134 23.8077L22.5999 24.001C22.8253 24.1137 23.0508 24.1781 23.1152 24.162C23.3729 24.0976 31.9888 20.1037 31.9888 20.0554C31.9888 20.0232 31.7955 19.9104 31.5539 19.7816L31.103 19.5722L27.6567 19.5561L24.2103 19.54L23.7111 20.4902Z" fill="#217BF4"/>
<path d="M28.961 23.115C26.7708 24.1295 24.9671 24.967 24.9349 25.0153C24.9027 25.0475 27.3828 26.2231 30.4587 27.6403C34.662 29.5728 36.1114 30.217 36.3207 30.217C36.7072 30.217 37.3514 29.8788 37.593 29.5728C38.0117 29.0253 38.1244 28.1878 37.8506 27.6564C37.7218 27.4309 33.0354 21.2952 32.971 21.2952C32.9549 21.2791 31.1512 22.1004 28.961 23.115Z" fill="#E84A06"/>
<path d="M11.1497 24.1618C8.99172 25.1603 7.25244 25.9655 7.25244 25.9816C7.36517 26.0622 13.1628 28.6872 13.2433 28.6872C13.3399 28.6872 17.4626 26.8191 17.5432 26.7385C17.5593 26.7224 17.511 26.658 17.4304 26.6097C17.1406 26.4487 16.6896 25.9816 16.4964 25.6757C16.3998 25.4985 16.1099 24.806 15.8683 24.1457C15.3208 22.648 15.1919 22.3581 15.1275 22.3581C15.0953 22.342 13.3077 23.1634 11.1497 24.1618Z" fill="#E84A06"/>
<path d="M1.13268 26.2875C0.66565 26.8995 0.214726 27.5436 0.134203 27.7208C-0.0268408 28.0912 -0.0429451 28.5743 0.0858903 29.0252C0.214726 29.444 0.77838 30.0076 1.18099 30.1203C1.40645 30.1848 2.63039 30.217 5.78686 30.217H10.0867L10.7631 29.8949C11.1335 29.7177 11.4234 29.5567 11.3912 29.5245C11.3429 29.4762 2.93637 25.595 2.22778 25.289L1.98621 25.1924L1.13268 26.2875Z" fill="#217BF4"/>
<path d="M19.0087 27.6889C16.8507 28.6874 15.0792 29.5249 15.0631 29.541C15.047 29.5571 15.3369 29.7181 15.7073 29.8953L16.3998 30.2012L24.4198 30.1851L32.4398 30.169L27.8501 28.0432C25.3217 26.8676 23.1637 25.9014 23.0831 25.8853C23.0026 25.8853 21.1667 26.6744 19.0087 27.6889Z" fill="#217BF4"/>
</svg>
