<svg width="40" height="40" viewBox="0 0 40 40" fill="none" xmlns="http://www.w3.org/2000/svg">
<path d="M16.2471 5.03331C15.9084 5.08348 15.4318 5.234 15.0304 5.44723C14.6541 5.63538 14.1649 6.11201 8.63344 11.6435L2.63787 17.6391L2.39955 18.1283C2.08597 18.768 1.96054 19.3324 2.01071 19.9846C2.11106 21.5023 3.08942 22.8319 4.46915 23.2834C5.17156 23.5092 5.49768 23.7475 5.63566 24.0987C5.67329 24.2116 5.69837 25.4283 5.69837 27.7362C5.69837 30.4832 5.71091 31.2985 5.77363 31.5995C6.02449 32.7911 6.73944 33.7193 7.8056 34.2335C8.48293 34.5597 8.88431 34.6098 10.7407 34.6098C11.6438 34.6098 12.5218 34.5847 12.6974 34.5471C13.6381 34.3715 14.3907 33.7193 14.7921 32.7409C14.9175 32.4399 14.9175 32.3521 14.9426 29.1912C14.9677 26.0178 14.9802 25.9426 15.0931 25.7795C15.3941 25.3907 15.3941 25.3781 16.799 25.3781C18.1912 25.3781 18.2038 25.3781 18.5048 25.7795C18.6177 25.93 18.6303 26.0178 18.6553 29.1536C18.6804 31.5619 18.7055 32.4273 18.7557 32.6029C19.0693 33.5813 19.9222 34.359 20.9005 34.5346C21.4148 34.6349 24.4126 34.6098 24.9394 34.4969C26.0307 34.2712 27.009 33.5311 27.4731 32.5653C27.887 31.7249 27.8996 30.2115 27.8996 30.2115C27.8996 30.2115 27.8996 29.6761 27.8996 28.6895C27.8996 27.7029 26.0432 27.5775 26.0432 28.6895C26.0432 29.8015 26.0432 29.7098 26.0432 29.7098V31.3737L25.9052 31.6622C25.7171 32.026 25.3659 32.3772 25.0021 32.5653C24.7136 32.7033 24.7011 32.7033 22.9074 32.7033C21.1765 32.7033 21.1012 32.7033 20.9507 32.5778C20.8629 32.5151 20.7375 32.3897 20.6748 32.3019C20.5493 32.1514 20.5493 32.0636 20.5243 28.6895L20.4992 25.2402L20.2859 24.8012C20.0225 24.2744 19.6964 23.9482 19.1571 23.6974L18.7682 23.5092H16.799H14.8673L14.4785 23.6974C13.8764 23.9859 13.4249 24.4876 13.1991 25.1273C13.1615 25.2402 13.1239 26.507 13.0988 28.7271C13.0737 32.0761 13.0737 32.1514 12.9483 32.3019C12.8855 32.3897 12.7601 32.5151 12.6723 32.5778C12.5218 32.6907 12.4465 32.7033 10.7156 32.7033C8.90939 32.7033 8.90939 32.7033 8.6209 32.5528C8.24461 32.3772 7.90595 32.026 7.73034 31.6622L7.57983 31.3737L7.55474 27.5857L7.51711 23.8228L7.3666 23.4465C7.19099 22.9824 6.76453 22.3803 6.45095 22.1295C6.12483 21.8661 5.63566 21.6654 5.37225 21.6654C5.07122 21.6654 4.59458 21.4271 4.35626 21.1511C4.25592 21.0382 4.1054 20.7999 4.0176 20.6243C3.89217 20.3609 3.86709 20.2229 3.86709 19.7839C3.86709 19.3449 3.89217 19.2195 4.00506 19.0063C4.19321 18.63 15.5447 7.27852 15.946 7.05274C16.2094 6.90223 16.2972 6.88968 16.7864 6.88968C17.2505 6.88968 17.3759 6.91477 17.6017 7.02766C17.7648 7.11546 18.4923 7.78024 19.571 8.87148C21.4023 10.7028 21.465 10.7404 21.8789 10.6024C22.1799 10.5021 22.3054 10.2888 22.343 9.7495C22.3806 9.26032 22.4559 9.08472 22.7695 8.85894C22.92 8.74605 23.0078 8.73351 24.1868 8.73351C25.5791 8.73351 25.5916 8.73351 25.8927 9.13489C26.0056 9.28541 26.0181 9.38575 26.0432 11.8818C26.0808 14.6162 26.0808 14.6664 26.3693 15.3186C26.6703 15.9959 27.3477 16.736 28.765 17.9276C29.618 18.6551 29.7058 18.7554 29.7559 19.069C29.781 19.2446 29.8563 19.37 30.0068 19.5331C30.6089 20.1226 31.5747 19.7087 31.5747 18.8558C31.5747 18.3666 31.374 18.1032 29.7309 16.4475C28.5894 15.2935 28.1504 14.8043 28.0375 14.5911L27.8996 14.3026L27.8745 11.4679L27.8494 8.63317L27.6613 8.24433C27.448 7.79278 27.0341 7.34123 26.6202 7.14054C26.131 6.88968 25.7923 6.85205 23.9736 6.87714C22.0545 6.90223 21.9918 6.91477 21.3521 7.39141L20.9758 7.6799L19.9598 6.67645C19.0316 5.76081 18.8937 5.64792 18.4547 5.42215C17.7648 5.0584 17.0122 4.93297 16.2471 5.03331Z" fill="#461E80"/>
<path fill-rule="evenodd" clip-rule="evenodd" d="M32 27.6001H31.9725H31.9725C31.5245 27.6001 31.1485 27.6001 30.8494 27.6403C30.5327 27.6829 30.2432 27.777 30.01 28.0102C29.7769 28.2433 29.6827 28.5329 29.6402 28.8495C29.5999 29.1486 29.6 29.5247 29.6 29.9727L29.6 30.0001V31.6001H29.1111C28.8288 31.6001 28.6 31.8289 28.6 32.1112C28.6 32.823 29.177 33.4001 29.8889 33.4001H35C35.2209 33.4001 35.4 33.221 35.4 33.0001C35.4 32.7792 35.2209 32.6001 35 32.6001H29.8889C29.7269 32.6001 29.5834 32.5214 29.4944 32.4001H30H34.9394C35.1603 32.4001 35.3394 32.221 35.3394 32.0001C35.3394 31.7792 35.1603 31.6001 34.9394 31.6001H30.4V30.0001C30.4 29.5174 30.4008 29.1956 30.433 28.9561C30.4637 28.7282 30.516 28.6356 30.5757 28.5758C30.6355 28.5161 30.728 28.4638 30.956 28.4331C31.1955 28.4009 31.5173 28.4001 32 28.4001H36C36.3313 28.4001 36.6 28.6687 36.6 29.0001L37 29.0001L37.4 29.0001C37.4 28.2269 36.7732 27.6001 36 27.6001H32Z" fill="#C54647"/>
<path d="M24.16 26C23.984 26 23.848 25.9547 23.752 25.864C23.6613 25.768 23.616 25.632 23.616 25.456V20.904C23.616 20.728 23.6613 20.5947 23.752 20.504C23.848 20.408 23.984 20.36 24.16 20.36H27.016C27.1493 20.36 27.2507 20.3947 27.32 20.464C27.3947 20.5333 27.432 20.632 27.432 20.76C27.432 20.8933 27.3947 20.9973 27.32 21.072C27.2507 21.1413 27.1493 21.176 27.016 21.176H24.6V22.728H26.84C26.9787 22.728 27.0827 22.7627 27.152 22.832C27.2213 22.9013 27.256 23.0027 27.256 23.136C27.256 23.2693 27.2213 23.3707 27.152 23.44C27.0827 23.5093 26.9787 23.544 26.84 23.544H24.6V25.184H27.016C27.1493 25.184 27.2507 25.2187 27.32 25.288C27.3947 25.3573 27.432 25.4587 27.432 25.592C27.432 25.7253 27.3947 25.8267 27.32 25.896C27.2507 25.9653 27.1493 26 27.016 26H24.16Z" fill="#C54647"/>
<path d="M28.9014 26.064C28.7361 26.064 28.6081 26.0187 28.5174 25.928C28.4321 25.832 28.3894 25.7013 28.3894 25.536V20.88C28.3894 20.7093 28.4348 20.5813 28.5254 20.496C28.6161 20.4053 28.7441 20.36 28.9094 20.36H30.8374C31.4561 20.36 31.9334 20.5093 32.2694 20.808C32.6054 21.1013 32.7734 21.5147 32.7734 22.048C32.7734 22.3947 32.6961 22.6933 32.5414 22.944C32.3921 23.1947 32.1734 23.3867 31.8854 23.52C31.5974 23.6533 31.2481 23.72 30.8374 23.72L30.9094 23.6H31.1734C31.3921 23.6 31.5814 23.6533 31.7414 23.76C31.9068 23.8667 32.0508 24.0347 32.1734 24.264L32.7734 25.376C32.8374 25.488 32.8668 25.5973 32.8614 25.704C32.8561 25.8107 32.8161 25.8987 32.7414 25.968C32.6668 26.032 32.5574 26.064 32.4134 26.064C32.2694 26.064 32.1521 26.0347 32.0614 25.976C31.9708 25.912 31.8908 25.816 31.8214 25.688L31.0134 24.2C30.9174 24.0187 30.8028 23.8987 30.6694 23.84C30.5414 23.776 30.3761 23.744 30.1734 23.744H29.4134V25.536C29.4134 25.7013 29.3708 25.832 29.2854 25.928C29.2001 26.0187 29.0721 26.064 28.9014 26.064ZM29.4134 22.984H30.6614C31.0294 22.984 31.3068 22.9093 31.4934 22.76C31.6854 22.6053 31.7814 22.376 31.7814 22.072C31.7814 21.7733 31.6854 21.5493 31.4934 21.4C31.3068 21.2453 31.0294 21.168 30.6614 21.168H29.4134V22.984Z" fill="#21B3FF"/>
<path d="M34.3858 26.064C34.2205 26.064 34.0925 26.0187 34.0018 25.928C33.9165 25.832 33.8738 25.7013 33.8738 25.536V20.88C33.8738 20.7093 33.9191 20.5813 34.0098 20.496C34.1005 20.4053 34.2285 20.36 34.3938 20.36H36.3218C36.9405 20.36 37.4178 20.5147 37.7538 20.824C38.0898 21.1333 38.2578 21.5653 38.2578 22.12C38.2578 22.6747 38.0898 23.1093 37.7538 23.424C37.4178 23.7333 36.9405 23.888 36.3218 23.888H34.8978V25.536C34.8978 25.7013 34.8551 25.832 34.7698 25.928C34.6845 26.0187 34.5565 26.064 34.3858 26.064ZM34.8978 23.08H36.1618C36.5245 23.08 36.7991 23 36.9858 22.84C37.1725 22.6747 37.2658 22.4347 37.2658 22.12C37.2658 21.8053 37.1725 21.568 36.9858 21.408C36.7991 21.248 36.5245 21.168 36.1618 21.168H34.8978V23.08Z" fill="#E4D256"/>
<path d="M35 30C35 29.5286 35 29.2929 35.1464 29.1464C35.2929 29 35.5286 29 36 29H37C37.4714 29 37.7071 29 37.8536 29.1464C38 29.2929 38 29.5286 38 30V33C38 33.4714 38 33.7071 37.8536 33.8536C37.7071 34 37.4714 34 37 34H36C35.5286 34 35.2929 34 35.1464 33.8536C35 33.7071 35 33.4714 35 33V30Z" stroke="#C54647" stroke-width="0.8" stroke-linecap="round" stroke-linejoin="round"/>
<circle cx="36.3636" cy="30.3636" r="0.363636" fill="#C54647"/>
</svg>
