<svg width="40" height="40" viewBox="0 0 40 40" fill="none" xmlns="http://www.w3.org/2000/svg">
<path fill-rule="evenodd" clip-rule="evenodd" d="M9.74993 6.91651L9.6841 6.9165C8.79761 6.91645 8.0338 6.91641 7.42214 6.99865C6.76662 7.08678 6.13827 7.28552 5.62861 7.79519C5.11894 8.30485 4.9202 8.9332 4.83207 9.58871C4.74983 10.2004 4.74987 10.9642 4.74992 11.8507L4.74993 11.9165V25.9165H3.11104L3.10587 25.9165H3.10581C3.08793 25.9165 3.05224 25.9164 3.01783 25.9179C2.24081 25.9519 1.61861 26.5741 1.58469 27.3511C1.58318 27.3855 1.58323 27.4213 1.58325 27.4391L1.58326 27.4443L1.58326 27.47C1.58325 27.6516 1.58324 27.7752 1.58802 27.8846C1.7011 30.4747 3.77511 32.5487 6.36516 32.6617C6.47457 32.6665 6.59818 32.6665 6.77977 32.6665L6.80548 32.6665H33.1944L33.2201 32.6665C33.4017 32.6665 33.5253 32.6665 33.6347 32.6617C36.2248 32.5487 38.2988 30.4747 38.4118 27.8846C38.4166 27.7752 38.4166 27.6516 38.4166 27.47V27.4443L38.4166 27.4391C38.4166 27.4212 38.4167 27.3855 38.4152 27.3511C38.3812 26.5741 37.759 25.9519 36.982 25.9179C36.9476 25.9164 36.9119 25.9165 36.8941 25.9165H36.894L36.8888 25.9165H35.2499V11.9165L35.2499 11.8507C35.25 10.9642 35.25 10.2004 35.1678 9.58872C35.0797 8.9332 34.8809 8.30485 34.3712 7.79519C33.8616 7.28552 33.2332 7.08678 32.5777 6.99865C31.9661 6.91641 31.2022 6.91645 30.3158 6.9165L30.2499 6.91651H9.74993ZM33.2499 25.9165V11.9165C33.2499 10.9454 33.2478 10.3177 33.1856 9.85521C33.1273 9.42147 33.0332 9.28552 32.957 9.2094C32.8809 9.13328 32.745 9.03913 32.3112 8.98081C31.8487 8.91863 31.221 8.91651 30.2499 8.91651H9.74993C8.77885 8.91651 8.15114 8.91863 7.68863 8.98081C7.25489 9.03913 7.11894 9.13328 7.04282 9.2094C6.9667 9.28552 6.87255 9.42147 6.81423 9.85521C6.75205 10.3177 6.74993 10.9454 6.74993 11.9165V25.9165H33.2499ZM5.74993 27.9165H3.59366C3.71811 29.4146 4.93829 30.5975 6.4524 30.6637C6.5123 30.6663 6.58859 30.6665 6.80548 30.6665H33.1944C33.4113 30.6665 33.4876 30.6663 33.5475 30.6637C35.0616 30.5975 36.2817 29.4146 36.4062 27.9165H34.2499H5.74993Z" fill="#461E80"/>
<path d="M21.5 16.6667C21.5 15.578 21.5 15.0337 21.7063 14.6154C21.901 14.2206 22.2206 13.901 22.6154 13.7063C23.0337 13.5 23.578 13.5 24.6667 13.5H26.5C28.3856 13.5 29.3284 13.5 29.9142 14.0858C30.5 14.6716 30.5 15.6144 30.5 17.5V18.5C30.5 20.3856 30.5 21.3284 29.9142 21.9142C29.3284 22.5 28.3856 22.5 26.5 22.5H25.5C23.6144 22.5 22.6716 22.5 22.0858 21.9142C21.5 21.3284 21.5 20.3856 21.5 18.5V16.6667V16.6667Z" stroke="#C54647" stroke-linecap="round" stroke-linejoin="round"/>
<path d="M24 12.5L24 14" stroke="#C54647" stroke-linecap="round" stroke-linejoin="round"/>
<path d="M28 12.5L28 14" stroke="#C54647" stroke-linecap="round" stroke-linejoin="round"/>
<path d="M29 20H28" stroke="#461E80" stroke-linecap="round" stroke-linejoin="round"/>
<path d="M29 20H28" stroke="#461E80" stroke-linecap="round" stroke-linejoin="round"/>
<path d="M29 20H28" stroke="#BBAE50" stroke-linecap="round" stroke-linejoin="round"/>
<path d="M28 16H23" stroke="#461E80" stroke-linecap="round" stroke-linejoin="round"/>
<path d="M28 16H23" stroke="#461E80" stroke-linecap="round" stroke-linejoin="round"/>
<path d="M28 16H23" stroke="#21B3FF" stroke-linecap="round" stroke-linejoin="round"/>
<path d="M10 14.9165L13.2083 14.9165M16.4167 14.9165L18.25 14.9165" stroke="#C54647" stroke-linecap="round"/>
<path d="M10 21.3335L13.2083 21.3335M16.4167 21.3335L18.25 21.3335" stroke="#BBAE50" stroke-linecap="round"/>
<path d="M10 18.125L11.8333 18.125M15.0417 18.125L18.25 18.125" stroke="#21B3FF" stroke-linecap="round"/>
<rect x="14.5833" y="14" width="1.83333" height="1.83333" rx="0.916666" stroke="#C54647"/>
<rect x="14.5833" y="20.4165" width="1.83333" height="1.83333" rx="0.916666" stroke="#BBAE50"/>
<rect x="11.8333" y="17.2085" width="1.83333" height="1.83333" rx="0.916666" stroke="#21B3FF"/>
</svg>
