<svg width="40" height="40" viewBox="0 0 40 40" fill="none" xmlns="http://www.w3.org/2000/svg">
<g clip-path="url(#clip0_826_10024)">
<path fill-rule="evenodd" clip-rule="evenodd" d="M31.75 27.6001H31.7225H31.7225C31.2745 27.6001 30.8985 27.6001 30.5994 27.6403C30.2827 27.6829 29.9932 27.777 29.76 28.0101C29.5269 28.2433 29.4327 28.5329 29.3902 28.8495C29.3499 29.1486 29.35 29.5247 29.35 29.9726V29.9727V30.0001V30.7918V30.8156V30.8156C29.35 31.2062 29.35 31.5343 29.3811 31.7979C29.414 32.0757 29.4861 32.3335 29.6678 32.5549C29.7259 32.6258 29.7909 32.6908 29.8618 32.749C30.0832 32.9307 30.341 33.0028 30.6188 33.0356C30.8825 33.0668 31.2105 33.0668 31.6012 33.0668H31.6012L31.625 33.0668C31.8459 33.0668 32.025 32.8877 32.025 32.6668C32.025 32.4459 31.8459 32.2668 31.625 32.2668C31.2042 32.2668 30.9239 32.2661 30.7128 32.2412C30.5105 32.2172 30.4246 32.1759 30.3693 32.1306C30.339 32.1056 30.3111 32.0778 30.2862 32.0474C30.2409 31.9922 30.1995 31.9063 30.1756 31.704C30.1506 31.4929 30.15 31.2125 30.15 30.7918V30.0001C30.15 29.5174 30.1508 29.1956 30.183 28.9561C30.2137 28.7282 30.266 28.6356 30.3257 28.5758C30.3855 28.5161 30.478 28.4638 30.706 28.4331C30.9455 28.4009 31.2673 28.4001 31.75 28.4001H35.25C35.7327 28.4001 36.0545 28.4009 36.2939 28.4331C36.5219 28.4638 36.6145 28.5161 36.6742 28.5758C36.734 28.6356 36.7863 28.7282 36.8169 28.9561C36.8491 29.1956 36.85 29.5174 36.85 30.0001V30.7918C36.85 31.2125 36.8493 31.4929 36.8244 31.704C36.8005 31.9063 36.7591 31.9922 36.7138 32.0474C36.6889 32.0778 36.661 32.1056 36.6306 32.1306C36.5754 32.1759 36.4895 32.2172 36.2872 32.2412C36.0761 32.2661 35.7957 32.2668 35.375 32.2668V33.0668L35.3988 33.0668H35.3988C35.7894 33.0668 36.1175 33.0668 36.3811 33.0356C36.6589 33.0028 36.9168 32.9307 37.1381 32.749C37.209 32.6908 37.274 32.6258 37.3322 32.5549C37.5139 32.3335 37.586 32.0757 37.6188 31.7979C37.65 31.5343 37.65 31.2062 37.65 30.8156V30.8155L37.65 30.7918V30.0001L37.65 29.9727C37.65 29.5247 37.65 29.1486 37.6098 28.8495C37.5672 28.5329 37.4731 28.2433 37.2399 28.0101C37.0068 27.777 36.7172 27.6829 36.4005 27.6403C36.1015 27.6001 35.7254 27.6001 35.2774 27.6001H35.2774H35.25H31.75ZM31.625 34.0001L33.5 32.3334L35.375 34.0001H31.625Z" fill="#C54647"/>
<path d="M28.56 26.08C28.3253 26.08 28.0907 26.0613 27.856 26.024C27.6213 25.992 27.4 25.9413 27.192 25.872C26.984 25.7973 26.7973 25.7067 26.632 25.6C26.536 25.536 26.4693 25.4587 26.432 25.368C26.3947 25.2773 26.3813 25.1893 26.392 25.104C26.408 25.0133 26.4427 24.936 26.496 24.872C26.5547 24.8027 26.6267 24.76 26.712 24.744C26.7973 24.728 26.8907 24.752 26.992 24.816C27.2267 24.9547 27.4747 25.056 27.736 25.12C27.9973 25.184 28.272 25.216 28.56 25.216C28.9813 25.216 29.288 25.1467 29.48 25.008C29.672 24.864 29.768 24.68 29.768 24.456C29.768 24.2693 29.6987 24.1227 29.56 24.016C29.4267 23.9093 29.1947 23.8213 28.864 23.752L27.984 23.568C27.4773 23.4613 27.0987 23.2827 26.848 23.032C26.6027 22.776 26.48 22.44 26.48 22.024C26.48 21.7627 26.5333 21.5253 26.64 21.312C26.7467 21.0987 26.896 20.9147 27.088 20.76C27.2853 20.6053 27.5173 20.488 27.784 20.408C28.056 20.3227 28.3547 20.28 28.68 20.28C29 20.28 29.304 20.32 29.592 20.4C29.88 20.48 30.1387 20.5973 30.368 20.752C30.4533 20.8107 30.5093 20.8827 30.536 20.968C30.568 21.0533 30.576 21.1387 30.56 21.224C30.544 21.304 30.5067 21.3733 30.448 21.432C30.3893 21.4907 30.3147 21.5253 30.224 21.536C30.1387 21.5467 30.04 21.52 29.928 21.456C29.7307 21.344 29.5307 21.264 29.328 21.216C29.1253 21.168 28.9067 21.144 28.672 21.144C28.4267 21.144 28.216 21.1787 28.04 21.248C27.864 21.3173 27.728 21.416 27.632 21.544C27.5413 21.6667 27.496 21.8133 27.496 21.984C27.496 22.176 27.56 22.3307 27.688 22.448C27.816 22.56 28.0347 22.648 28.344 22.712L29.216 22.896C29.744 23.008 30.136 23.184 30.392 23.424C30.6533 23.664 30.784 23.984 30.784 24.384C30.784 24.64 30.7307 24.872 30.624 25.08C30.5227 25.288 30.3733 25.4667 30.176 25.616C29.984 25.7653 29.752 25.88 29.48 25.96C29.208 26.04 28.9013 26.08 28.56 26.08Z" fill="#C54647"/>
<path d="M32.1749 26.064C32.0095 26.064 31.8815 26.0187 31.7909 25.928C31.7055 25.832 31.6629 25.7013 31.6629 25.536V20.824C31.6629 20.6533 31.7055 20.5227 31.7909 20.432C31.8815 20.3413 32.0095 20.296 32.1749 20.296C32.3402 20.296 32.4655 20.3413 32.5509 20.432C32.6415 20.5227 32.6869 20.6533 32.6869 20.824V25.536C32.6869 25.7013 32.6442 25.832 32.5589 25.928C32.4735 26.0187 32.3455 26.064 32.1749 26.064Z" fill="#21B3FF"/>
<path d="M35.8647 26.08C35.63 26.08 35.3954 26.0613 35.1607 26.024C34.926 25.992 34.7047 25.9413 34.4967 25.872C34.2887 25.7973 34.102 25.7067 33.9367 25.6C33.8407 25.536 33.774 25.4587 33.7367 25.368C33.6994 25.2773 33.686 25.1893 33.6967 25.104C33.7127 25.0133 33.7474 24.936 33.8007 24.872C33.8594 24.8027 33.9314 24.76 34.0167 24.744C34.102 24.728 34.1954 24.752 34.2967 24.816C34.5314 24.9547 34.7794 25.056 35.0407 25.12C35.302 25.184 35.5767 25.216 35.8647 25.216C36.286 25.216 36.5927 25.1467 36.7847 25.008C36.9767 24.864 37.0727 24.68 37.0727 24.456C37.0727 24.2693 37.0034 24.1227 36.8647 24.016C36.7314 23.9093 36.4994 23.8213 36.1687 23.752L35.2887 23.568C34.782 23.4613 34.4034 23.2827 34.1527 23.032C33.9074 22.776 33.7847 22.44 33.7847 22.024C33.7847 21.7627 33.838 21.5253 33.9447 21.312C34.0514 21.0987 34.2007 20.9147 34.3927 20.76C34.59 20.6053 34.822 20.488 35.0887 20.408C35.3607 20.3227 35.6594 20.28 35.9847 20.28C36.3047 20.28 36.6087 20.32 36.8967 20.4C37.1847 20.48 37.4434 20.5973 37.6727 20.752C37.758 20.8107 37.814 20.8827 37.8407 20.968C37.8727 21.0533 37.8807 21.1387 37.8647 21.224C37.8487 21.304 37.8114 21.3733 37.7527 21.432C37.694 21.4907 37.6194 21.5253 37.5287 21.536C37.4434 21.5467 37.3447 21.52 37.2327 21.456C37.0354 21.344 36.8354 21.264 36.6327 21.216C36.43 21.168 36.2114 21.144 35.9767 21.144C35.7314 21.144 35.5207 21.1787 35.3447 21.248C35.1687 21.3173 35.0327 21.416 34.9367 21.544C34.846 21.6667 34.8007 21.8133 34.8007 21.984C34.8007 22.176 34.8647 22.3307 34.9927 22.448C35.1207 22.56 35.3394 22.648 35.6487 22.712L36.5207 22.896C37.0487 23.008 37.4407 23.184 37.6967 23.424C37.958 23.664 38.0887 23.984 38.0887 24.384C38.0887 24.64 38.0354 24.872 37.9287 25.08C37.8274 25.288 37.678 25.4667 37.4807 25.616C37.2887 25.7653 37.0567 25.88 36.7847 25.96C36.5127 26.04 36.206 26.08 35.8647 26.08Z" fill="#E4D256"/>
<path d="M15.2471 4.03331C14.9084 4.08348 14.4318 4.234 14.0304 4.44723C13.6541 4.63538 13.1649 5.11201 7.63344 10.6435L1.63787 16.6391L1.39955 17.1283C1.08597 17.768 0.960543 18.3324 1.01071 18.9846C1.11106 20.5023 2.08942 21.8319 3.46915 22.2834C4.17156 22.5092 4.49768 22.7475 4.63566 23.0987C4.67329 23.2116 4.69837 24.4283 4.69837 26.7362C4.69837 29.4832 4.71091 30.2985 4.77363 30.5995C5.02449 31.7911 5.73944 32.7193 6.8056 33.2335C7.48293 33.5597 7.88431 33.6098 9.74068 33.6098C10.6438 33.6098 11.5218 33.5847 11.6974 33.5471C12.6381 33.3715 13.3907 32.7193 13.7921 31.7409C13.9175 31.4399 13.9175 31.3521 13.9426 28.1912C13.9677 25.0178 13.9802 24.9426 14.0931 24.7795C14.3941 24.3907 14.3941 24.3781 15.799 24.3781C17.1912 24.3781 17.2038 24.3781 17.5048 24.7795C17.6177 24.93 17.6303 25.0178 17.6553 28.1536C17.6804 30.5619 17.7055 31.4273 17.7557 31.6029C18.0693 32.5813 18.9222 33.359 19.9005 33.5346C20.4148 33.6349 23.4126 33.6098 23.9394 33.4969C25.0307 33.2712 26.009 32.5311 26.4731 31.5653C26.887 30.7249 26.8996 29.2115 26.8996 29.2115C26.8996 29.2115 26.8996 28.6761 26.8996 27.6895C26.8996 26.7029 25.0432 26.5775 25.0432 27.6895C25.0432 28.8015 25.0432 28.7098 25.0432 28.7098V30.3737L24.9052 30.6622C24.7171 31.026 24.3659 31.3772 24.0021 31.5653C23.7136 31.7033 23.7011 31.7033 21.9074 31.7033C20.1765 31.7033 20.1012 31.7033 19.9507 31.5778C19.8629 31.5151 19.7375 31.3897 19.6748 31.3019C19.5493 31.1514 19.5493 31.0636 19.5243 27.6895L19.4992 24.2402L19.2859 23.8012C19.0225 23.2744 18.6964 22.9482 18.1571 22.6974L17.7682 22.5092H15.799H13.8673L13.4785 22.6974C12.8764 22.9859 12.4249 23.4876 12.1991 24.1273C12.1615 24.2402 12.1239 25.507 12.0988 27.7271C12.0737 31.0761 12.0737 31.1514 11.9483 31.3019C11.8855 31.3897 11.7601 31.5151 11.6723 31.5778C11.5218 31.6907 11.4465 31.7033 9.71559 31.7033C7.90939 31.7033 7.90939 31.7033 7.6209 31.5528C7.24461 31.3772 6.90595 31.026 6.73034 30.6622L6.57983 30.3737L6.55474 26.5857L6.51711 22.8228L6.3666 22.4465C6.19099 21.9824 5.76453 21.3803 5.45095 21.1295C5.12483 20.8661 4.63566 20.6654 4.37225 20.6654C4.07122 20.6654 3.59458 20.4271 3.35626 20.1511C3.25592 20.0382 3.1054 19.7999 3.0176 19.6243C2.89217 19.3609 2.86709 19.2229 2.86709 18.7839C2.86709 18.3449 2.89217 18.2195 3.00506 18.0063C3.19321 17.63 14.5447 6.27852 14.946 6.05274C15.2094 5.90223 15.2972 5.88968 15.7864 5.88968C16.2505 5.88968 16.3759 5.91477 16.6017 6.02766C16.7648 6.11546 17.4923 6.78024 18.571 7.87148C20.4023 9.70277 20.465 9.7404 20.8789 9.60243C21.1799 9.50208 21.3054 9.28885 21.343 8.7495C21.3806 8.26032 21.4559 8.08472 21.7695 7.85894C21.92 7.74605 22.0078 7.73351 23.1868 7.73351C24.5791 7.73351 24.5916 7.73351 24.8927 8.13489C25.0056 8.28541 25.0181 8.38575 25.0432 10.8818C25.0808 13.6162 25.0808 13.6664 25.3693 14.3186C25.6703 14.9959 26.3477 15.736 27.765 16.9276C28.618 17.6551 28.7058 17.7554 28.7559 18.069C28.781 18.2446 28.8563 18.37 29.0068 18.5331C29.6089 19.1226 30.5747 18.7087 30.5747 17.8558C30.5747 17.3666 30.374 17.1032 28.7309 15.4475C27.5894 14.2935 27.1504 13.8043 27.0375 13.5911L26.8996 13.3026L26.8745 10.4679L26.8494 7.63317L26.6613 7.24433C26.448 6.79278 26.0341 6.34123 25.6202 6.14054C25.131 5.88968 24.7923 5.85205 22.9736 5.87714C21.0545 5.90223 20.9918 5.91477 20.3521 6.39141L19.9758 6.6799L18.9598 5.67645C18.0316 4.76081 17.8937 4.64792 17.4547 4.42215C16.7648 4.0584 16.0122 3.93297 15.2471 4.03331Z" fill="#461E80"/>
</g>
<defs>
<clipPath id="clip0_826_10024">
<rect width="40" height="40" fill="white"/>
</clipPath>
</defs>
</svg>
