<svg width="16" height="16" viewBox="0 0 16 16" fill="none" xmlns="http://www.w3.org/2000/svg">
<g clip-path="url(#clip0_312_4167)">
<path d="M2 0C1.44687 0 1 0.446875 1 1V3C1 3.55313 1.44687 4 2 4H4.5V5H2.71875C1.73125 5 0.890625 5.72187 0.740625 6.7L0.034375 11.3781C0.0125 11.525 0 11.675 0 11.825V14C0 15.1031 0.896875 16 2 16H14C15.1031 16 16 15.1031 16 14V11.825C16 11.675 15.9875 11.525 15.9656 11.375L15.2563 6.7C15.1094 5.72187 14.2688 5 13.2812 5H6.5V4H9C9.55313 4 10 3.55313 10 3V1C10 0.446875 9.55313 0 9 0H2ZM3 1.5H8C8.275 1.5 8.5 1.725 8.5 2C8.5 2.275 8.275 2.5 8 2.5H3C2.725 2.5 2.5 2.275 2.5 2C2.5 1.725 2.725 1.5 3 1.5ZM2 13.5C2 13.225 2.225 13 2.5 13H13.5C13.775 13 14 13.225 14 13.5C14 13.775 13.775 14 13.5 14H2.5C2.225 14 2 13.775 2 13.5ZM3.5 8.25C3.30109 8.25 3.11032 8.17098 2.96967 8.03033C2.82902 7.88968 2.75 7.69891 2.75 7.5C2.75 7.30109 2.82902 7.11032 2.96967 6.96967C3.11032 6.82902 3.30109 6.75 3.5 6.75C3.69891 6.75 3.88968 6.82902 4.03033 6.96967C4.17098 7.11032 4.25 7.30109 4.25 7.5C4.25 7.69891 4.17098 7.88968 4.03033 8.03033C3.88968 8.17098 3.69891 8.25 3.5 8.25ZM7.25 7.5C7.25 7.69891 7.17098 7.88968 7.03033 8.03033C6.88968 8.17098 6.69891 8.25 6.5 8.25C6.30109 8.25 6.11032 8.17098 5.96967 8.03033C5.82902 7.88968 5.75 7.69891 5.75 7.5C5.75 7.30109 5.82902 7.11032 5.96967 6.96967C6.11032 6.82902 6.30109 6.75 6.5 6.75C6.69891 6.75 6.88968 6.82902 7.03033 6.96967C7.17098 7.11032 7.25 7.30109 7.25 7.5ZM5 10.75C4.80109 10.75 4.61032 10.671 4.46967 10.5303C4.32902 10.3897 4.25 10.1989 4.25 10C4.25 9.80109 4.32902 9.61032 4.46967 9.46967C4.61032 9.32902 4.80109 9.25 5 9.25C5.19891 9.25 5.38968 9.32902 5.53033 9.46967C5.67098 9.61032 5.75 9.80109 5.75 10C5.75 10.1989 5.67098 10.3897 5.53033 10.5303C5.38968 10.671 5.19891 10.75 5 10.75ZM10.25 7.5C10.25 7.69891 10.171 7.88968 10.0303 8.03033C9.88968 8.17098 9.69891 8.25 9.5 8.25C9.30109 8.25 9.11032 8.17098 8.96967 8.03033C8.82902 7.88968 8.75 7.69891 8.75 7.5C8.75 7.30109 8.82902 7.11032 8.96967 6.96967C9.11032 6.82902 9.30109 6.75 9.5 6.75C9.69891 6.75 9.88968 6.82902 10.0303 6.96967C10.171 7.11032 10.25 7.30109 10.25 7.5ZM8 10.75C7.80109 10.75 7.61032 10.671 7.46967 10.5303C7.32902 10.3897 7.25 10.1989 7.25 10C7.25 9.80109 7.32902 9.61032 7.46967 9.46967C7.61032 9.32902 7.80109 9.25 8 9.25C8.19891 9.25 8.38968 9.32902 8.53033 9.46967C8.67098 9.61032 8.75 9.80109 8.75 10C8.75 10.1989 8.67098 10.3897 8.53033 10.5303C8.38968 10.671 8.19891 10.75 8 10.75ZM13.25 7.5C13.25 7.59849 13.2306 7.69602 13.1929 7.78701C13.1552 7.87801 13.1 7.96069 13.0303 8.03033C12.9607 8.09997 12.878 8.15522 12.787 8.19291C12.696 8.2306 12.5985 8.25 12.5 8.25C12.4015 8.25 12.304 8.2306 12.213 8.19291C12.122 8.15522 12.0393 8.09997 11.9697 8.03033C11.9 7.96069 11.8448 7.87801 11.8071 7.78701C11.7694 7.69602 11.75 7.59849 11.75 7.5C11.75 7.40151 11.7694 7.30398 11.8071 7.21299C11.8448 7.12199 11.9 7.03931 11.9697 6.96967C12.0393 6.90003 12.122 6.84478 12.213 6.80709C12.304 6.7694 12.4015 6.75 12.5 6.75C12.5985 6.75 12.696 6.7694 12.787 6.80709C12.878 6.84478 12.9607 6.90003 13.0303 6.96967C13.1 7.03931 13.1552 7.12199 13.1929 7.21299C13.2306 7.30398 13.25 7.40151 13.25 7.5ZM11 10.75C10.8011 10.75 10.6103 10.671 10.4697 10.5303C10.329 10.3897 10.25 10.1989 10.25 10C10.25 9.80109 10.329 9.61032 10.4697 9.46967C10.6103 9.32902 10.8011 9.25 11 9.25C11.1989 9.25 11.3897 9.32902 11.5303 9.46967C11.671 9.61032 11.75 9.80109 11.75 10C11.75 10.1989 11.671 10.3897 11.5303 10.5303C11.3897 10.671 11.1989 10.75 11 10.75Z" fill="white"/>
</g>
<defs>
<clipPath id="clip0_312_4167">
<rect width="16" height="16" fill="white"/>
</clipPath>
</defs>
</svg>
