<svg width="17" height="18" viewBox="0 0 17 18" fill="none" xmlns="http://www.w3.org/2000/svg">
<path fill-rule="evenodd" clip-rule="evenodd" d="M9 4.75C9.41421 4.75 9.75 5.08579 9.75 5.5V9.68934L12.0303 11.9697C12.3232 12.2626 12.3232 12.7374 12.0303 13.0303C11.7374 13.3232 11.2626 13.3232 10.9697 13.0303L8.25 10.3107V5.5C8.25 5.08579 8.58579 4.75 9 4.75Z" fill="#2C3B63"/>
<path fill-rule="evenodd" clip-rule="evenodd" d="M4.10129 1.74984C5.86454 0.558473 8.00152 0.0505003 10.1123 0.321001C12.223 0.591502 14.1628 1.62193 15.5687 3.21944C15.8423 3.53039 15.8121 4.0043 15.5011 4.27795C15.1902 4.55159 14.7163 4.52135 14.4426 4.2104C13.2778 2.88675 11.6705 2.03296 9.92159 1.80883C8.17269 1.5847 6.40205 2.0056 4.94107 2.99273C3.4801 3.97987 2.42893 5.46559 1.9843 7.17181C1.53968 8.87804 1.73208 10.6878 2.5255 12.2624C3.31892 13.837 4.65897 15.0685 6.29483 15.7264C7.9307 16.3843 9.75025 16.4235 11.4129 15.8367C13.0756 15.2499 14.4675 14.0772 15.328 12.5383C15.5301 12.1767 15.9871 12.0475 16.3486 12.2497C16.7102 12.4518 16.8394 12.9088 16.6372 13.2703C15.5987 15.1277 13.9189 16.543 11.9122 17.2512C9.90547 17.9594 7.70946 17.9121 5.73514 17.1181C3.76082 16.3241 2.14352 14.8378 1.18595 12.9374C0.228376 11.037 -0.00383446 8.8528 0.532778 6.79356C1.06939 4.73432 2.33805 2.94122 4.10129 1.74984Z" fill="#2C3B63"/>
</svg>
