<svg width="16" height="20" viewBox="0 0 16 20" fill="none" xmlns="http://www.w3.org/2000/svg">
<path fill-rule="evenodd" clip-rule="evenodd" d="M8 0.25C5.37665 0.25 3.25 2.37665 3.25 5C3.25 7.62335 5.37665 9.75 8 9.75C10.6234 9.75 12.75 7.62335 12.75 5C12.75 2.37665 10.6234 0.25 8 0.25ZM13 19.75C14.5188 19.75 15.75 18.5188 15.75 17C15.75 14.3766 13.6234 12.25 11 12.25H5C2.37665 12.25 0.25 14.3766 0.25 17C0.25 18.5188 1.48122 19.75 3 19.75H13Z" fill="#1F1F1F"/>
<path fill-rule="evenodd" clip-rule="evenodd" d="M8 0.25C5.37665 0.25 3.25 2.37665 3.25 5C3.25 7.62335 5.37665 9.75 8 9.75C10.6234 9.75 12.75 7.62335 12.75 5C12.75 2.37665 10.6234 0.25 8 0.25ZM13 19.75C14.5188 19.75 15.75 18.5188 15.75 17C15.75 14.3766 13.6234 12.25 11 12.25H5C2.37665 12.25 0.25 14.3766 0.25 17C0.25 18.5188 1.48122 19.75 3 19.75H13Z" fill="#260000" fill-opacity="0.12"/>
</svg>
