<svg width="16" height="22" viewBox="0 0 16 22" fill="none" xmlns="http://www.w3.org/2000/svg">
<path fill-rule="evenodd" clip-rule="evenodd" d="M7.97475 0.25H8H8.02525C8.46971 0.249992 8.84075 0.249986 9.14536 0.27077C9.46247 0.292405 9.76199 0.339048 10.0524 0.459331C10.7262 0.73844 11.2616 1.27379 11.5407 1.94762C11.661 2.23801 11.7076 2.53754 11.7292 2.85464C11.75 3.15925 11.75 3.53028 11.75 3.97474V4V7.21604C14.1352 8.53736 15.75 11.0801 15.75 14C15.75 18.2802 12.2802 21.75 8 21.75C3.71979 21.75 0.25 18.2802 0.25 14C0.25 11.0801 1.86476 8.53736 4.25 7.21604V4L4.25 3.97475C4.24999 3.53029 4.24999 3.15925 4.27077 2.85464C4.29241 2.53754 4.33905 2.23801 4.45933 1.94762C4.73844 1.27379 5.27379 0.73844 5.94762 0.459331C6.23801 0.339048 6.53754 0.292405 6.85464 0.27077C7.15925 0.249986 7.53029 0.249992 7.97475 0.25ZM10.25 4V6.58166C9.53792 6.36597 8.7825 6.25 8 6.25C7.2175 6.25 6.46208 6.36597 5.75 6.58166V4C5.75 3.5238 5.75041 3.20421 5.76729 2.95674C5.78372 2.71602 5.81319 2.5988 5.84515 2.52165C5.97202 2.21536 6.21536 1.97202 6.52165 1.84515C6.5988 1.81319 6.71601 1.78372 6.95674 1.76729C7.20421 1.75041 7.5238 1.75 8 1.75C8.4762 1.75 8.79579 1.75041 9.04326 1.76729C9.28399 1.78372 9.4012 1.81319 9.47835 1.84515C9.78464 1.97202 10.028 2.21536 10.1549 2.52165C10.1868 2.5988 10.2163 2.71602 10.2327 2.95674C10.2496 3.20421 10.25 3.5238 10.25 4ZM8 7.75C4.54822 7.75 1.75 10.5482 1.75 14C1.75 17.4518 4.54822 20.25 8 20.25C11.4518 20.25 14.25 17.4518 14.25 14C14.25 10.5482 11.4518 7.75 8 7.75ZM8.75 13C8.75 12.5858 8.41421 12.25 8 12.25C7.58579 12.25 7.25 12.5858 7.25 13V15C7.25 15.4142 7.58579 15.75 8 15.75C8.41421 15.75 8.75 15.4142 8.75 15V13Z" fill="#103067"/>
</svg>
