<svg width="73" height="72" viewBox="0 0 73 72" fill="none" xmlns="http://www.w3.org/2000/svg">
<path d="M71.9858 27.5372C72.4308 29.3591 72.7354 31.235 72.8876 33.1532L72.3891 33.1927C72.4626 34.1188 72.5 35.0551 72.5 36C72.5 36.9449 72.4626 37.8811 72.3891 38.8073L72.8876 38.8468C72.7354 40.765 72.4308 42.6409 71.9858 44.4628L71.5001 44.3442C71.0521 46.178 70.4598 47.9563 69.7356 49.6669L70.196 49.8618C69.4523 51.6183 68.5716 53.3043 67.567 54.9067L67.1433 54.6411C66.1474 56.2298 65.0278 57.7354 63.7978 59.1447L64.1745 59.4735C62.9273 60.9026 61.5682 62.2341 60.1107 63.4546L59.7897 63.0713C58.3585 64.2698 56.831 65.3599 55.2203 66.3288L55.478 66.7573C53.8605 67.7302 52.1603 68.5826 50.3901 69.3016L50.2019 68.8383C48.4826 69.5367 46.6963 70.1076 44.8553 70.5391L44.9693 71.0259C43.1445 71.4535 41.2666 71.746 39.3471 71.8921L39.3092 71.3935C38.3823 71.4641 37.4454 71.5 36.5 71.5C35.5546 71.5 34.6177 71.4641 33.6908 71.3935L33.6529 71.8921C31.7334 71.746 29.8555 71.4535 28.0307 71.0259L28.1447 70.5391C26.3037 70.1076 24.5174 69.5367 22.7981 68.8383L22.6099 69.3016C20.8397 68.5826 19.1395 67.7302 17.522 66.7573L17.7797 66.3288C16.169 65.3599 14.6415 64.2698 13.2103 63.0713L12.8893 63.4546C11.4318 62.2341 10.0727 60.9026 8.82546 59.4735L9.20217 59.1447C7.97222 57.7354 6.85265 56.2298 5.85665 54.6411L5.43302 54.9067C4.4284 53.3043 3.54767 51.6183 2.804 49.8618L3.26444 49.6669C2.54022 47.9563 1.94789 46.178 1.49994 44.3442L1.01422 44.4628C0.569162 42.6409 0.264594 40.765 0.112452 38.8468L0.610887 38.8073C0.537428 37.8812 0.5 36.9449 0.5 36C0.5 35.0551 0.537428 34.1189 0.610887 33.1927L0.112452 33.1532C0.264594 31.235 0.569162 29.3591 1.01422 27.5372L1.49994 27.6558C1.94789 25.822 2.54022 24.0437 3.26444 22.3331L2.804 22.1382C3.54767 20.3817 4.4284 18.6957 5.43302 17.0933L5.85665 17.3589C6.85265 15.7702 7.97222 14.2646 9.20218 12.8553L8.82546 12.5265C10.0727 11.0974 11.4318 9.76595 12.8893 8.54538L13.2103 8.92872C14.6415 7.73019 16.169 6.64006 17.7797 5.6712L17.522 5.24274C19.1395 4.26977 20.8397 3.41744 22.6099 2.69842L22.7981 3.16166C24.5174 2.46328 26.3037 1.89239 28.1447 1.46094L28.0307 0.974125C29.8555 0.546483 31.7334 0.253973 33.6529 0.107906L33.6908 0.606465C34.6177 0.535929 35.5546 0.5 36.5 0.5C37.4454 0.5 38.3823 0.535929 39.3092 0.606465L39.3471 0.107906C41.2666 0.253973 43.1445 0.546484 44.9693 0.974126L44.8553 1.46094C46.6963 1.89239 48.4826 2.46328 50.2019 3.16166L50.3901 2.69842C52.1603 3.41745 53.8605 4.26978 55.478 5.24274L55.2203 5.6712C56.831 6.64006 58.3585 7.73019 59.7897 8.92873L60.1107 8.54539C61.5682 9.76595 62.9273 11.0974 64.1745 12.5265L63.7978 12.8553C65.0278 14.2646 66.1474 15.7702 67.1433 17.3589L67.567 17.0933C68.5716 18.6957 69.4523 20.3817 70.196 22.1382L69.7356 22.3331C70.4598 24.0437 71.0521 25.822 71.5001 27.6558L71.9858 27.5372Z" stroke="#363C51" stroke-dasharray="6 6"/>
<ellipse cx="36" cy="36.5" rx="27" ry="26.5" fill="#D2DAF5"/>
<path d="M26.2266 25.0529C25.7613 25.1692 25.3384 25.5076 25.1269 25.9728L25 26.2478V35.9337V45.6196L25.1269 45.8946C25.2961 46.2435 25.5922 46.5502 25.9517 46.7194L26.2266 46.8463L28.9865 46.8568L31.7463 46.8674L31.8415 46.6559C31.979 46.3493 32.3491 45.81 32.6346 45.4716C33.121 44.9218 33.8189 44.3825 34.6437 43.9384L35.0137 43.7374H31.556H28.0982V42.955V42.1725H32.4654C34.8657 42.1725 36.8325 42.1619 36.8325 42.1513C36.8325 42.1407 36.7691 41.9821 36.695 41.8024C36.621 41.612 36.4941 41.2737 36.4201 41.041L36.2826 40.6181H32.1904H28.0982V39.8356V39.0531H32.0318H35.9654L35.9337 38.7253C35.9126 38.5455 35.902 38.1966 35.902 37.9428V37.4987H32.0001H28.0982V36.7162V35.9337H32.201H36.3038L36.4836 35.5742C36.695 35.1512 36.896 34.8551 37.1497 34.5696L37.3401 34.3687H32.7192H28.0982V33.5862V32.8037L35.2147 32.8249C41.6438 32.8355 42.3522 32.846 42.6483 32.9201C42.9338 32.9941 43.3779 33.1315 43.6317 33.2267C43.7057 33.2584 43.7163 33.195 43.7163 32.275V31.2811L40.5758 28.1405L37.4458 25H31.9261C28.8913 25.0106 26.3323 25.0317 26.2266 25.0529ZM40.3431 31.2388C39.2328 31.2388 38.4609 31.2282 38.3552 31.1965C38.0803 31.1224 37.7842 30.8898 37.6361 30.6255L37.4987 30.3928L37.4775 28.4683L37.467 26.5438L39.8144 28.8913L42.1619 31.2388H40.3431Z" fill="#2F55D4"/>
<path d="M40.3431 31.2388C39.2328 31.2388 38.4609 31.2282 38.3552 31.1965C38.0803 31.1224 37.7842 30.8898 37.6361 30.6255L37.4987 30.3928L37.4775 28.4683L37.467 26.5438L39.8144 28.8913L42.1619 31.2388H40.3431Z" fill="white"/>
<path d="M36.9949 34.5187H32.7192H28.0982H27.9482V34.3687V33.5862V32.8037V32.6533L28.0987 32.6537L35.2149 32.6749C38.4291 32.6802 40.2145 32.6855 41.2333 32.6987C42.2432 32.7118 42.5156 32.7323 42.6847 32.7745L42.6859 32.7749C42.9323 32.8387 43.2941 32.9488 43.5564 33.0402C43.5642 32.9087 43.5663 32.677 43.5663 32.275V31.3432L40.4697 28.2466L40.4695 28.2464L37.3835 25.15H31.9263C30.4092 25.1553 29.0112 25.1632 27.9793 25.1725C27.4633 25.1771 27.0391 25.182 26.7375 25.1872C26.5867 25.1897 26.467 25.1923 26.382 25.1949C26.3394 25.1962 26.3062 25.1975 26.2825 25.1987C26.2663 25.1996 26.2579 25.2002 26.2548 25.2005C25.8362 25.3078 25.4544 25.6148 25.2634 26.0349L25.2631 26.0357L25.2631 26.0357L25.15 26.2807V35.9337V45.5867L25.2619 45.8291C25.2621 45.8295 25.2623 45.83 25.2625 45.8304C25.4177 46.1498 25.6892 46.4299 26.015 46.5834C26.0152 46.5835 26.0154 46.5836 26.0155 46.5836L26.2598 46.6964L28.987 46.7068L31.6495 46.717L31.7046 46.5946L31.7047 46.5944L31.8415 46.6559C31.979 46.3493 32.3491 45.81 32.6346 45.4716L36.9949 34.5187ZM36.9949 34.5187C36.7514 34.8004 36.5543 35.0974 36.3494 35.5071L36.2111 35.7837H32.201H28.0982H27.9482V35.9337V36.7162V37.4987V37.6487H28.0982H32.0001H35.752V37.9428C35.752 38.1967 35.7624 38.5518 35.7845 38.7412L35.8002 38.9031H32.0318H28.0982H27.9482V39.0531V39.8356V40.6181V40.7681H28.0982H32.1904H36.1737L36.2772 41.0865C36.2772 41.0867 36.2773 41.0869 36.2774 41.0871C36.3529 41.3244 36.4811 41.666 36.5552 41.8567L36.5552 41.8567L36.5563 41.8595C36.5779 41.9118 36.5985 41.9621 36.6168 42.0074M36.9949 34.5187L36.6168 42.0074M36.6168 42.0074C36.5782 42.008 36.5345 42.0085 36.486 42.0091C36.2646 42.0116 35.9441 42.0139 35.5483 42.0159C34.7569 42.0198 33.6653 42.0225 32.4654 42.0225H28.0982H27.9482V42.1725V42.955V43.7374V43.8874H28.0982H31.556H34.425L36.6168 42.0074ZM38.4403 31.0581C38.4118 31.0553 38.4 31.053 38.3982 31.0527L38.3942 31.0516C38.1599 30.9886 37.8962 30.7828 37.767 30.5522L37.7671 30.5522L37.7653 30.5492L37.6482 30.3511L37.6275 28.4675L37.6275 28.4667L37.619 26.908L39.7084 28.9974L41.7998 31.0888H40.3431C39.7882 31.0888 39.3188 31.0861 38.9753 31.0795C38.8034 31.0762 38.6642 31.072 38.5621 31.0667C38.5109 31.064 38.4704 31.0611 38.4403 31.0581ZM37.3487 30.3945L37.3491 30.4346L37.3695 30.4691L37.5062 30.7003C37.673 30.9971 37.9998 31.2554 38.3142 31.3408C38.3426 31.349 38.3785 31.3535 38.4106 31.3567C38.4473 31.3603 38.4931 31.3635 38.5465 31.3663C38.6535 31.3718 38.7965 31.3762 38.9696 31.3795C39.316 31.3861 39.7878 31.3888 40.3431 31.3888H42.1619H42.524L42.268 31.1327L39.9205 28.7852L37.573 26.4378L37.315 26.1797L37.317 26.5447L37.3275 28.4692L37.3275 28.47L37.3487 30.3945ZM43.6908 33.0888L43.6908 33.0888C43.6918 33.0892 43.6919 33.0893 43.6908 33.0888Z" stroke="#363C51" stroke-width="0.3"/>
<path d="M38.3358 36.5091L38.3361 36.5083C38.7503 35.6889 39.6136 35.0863 40.691 34.927C41.3402 34.8315 42.0736 34.8916 42.6146 35.075L42.6156 35.0754C43.5324 35.384 44.2633 36.1218 44.5741 37.0431C44.7506 37.5825 44.7884 37.957 44.7306 38.594C44.6449 39.4691 44.4417 40.2829 44.1571 40.9563C43.8699 41.6359 43.5133 42.1414 43.1412 42.4365L43.1412 42.4364L43.1377 42.4392L42.8628 42.6613L42.677 42.8114V43.0503V43.4415V43.8328V44.2061L43.0349 44.3122L43.8907 44.5657C43.8908 44.5657 43.891 44.5658 43.8911 44.5658C46.5782 45.3667 48.1409 46.2592 48.8069 47.199L48.808 47.2005C49.038 47.5225 49.2636 48.0041 49.3534 48.3623C49.4046 48.5724 49.4371 48.7894 49.4496 48.9717C49.4559 49.063 49.4568 49.1398 49.4538 49.1988C49.4513 49.2493 49.4466 49.2731 49.446 49.2772L49.4434 49.286C49.4426 49.2879 49.4391 49.2951 49.4308 49.3071C49.4177 49.3259 49.3977 49.3491 49.371 49.3732C49.326 49.4136 49.2813 49.4394 49.2499 49.4525C49.2197 49.4542 49.1756 49.456 49.1166 49.4579C48.9931 49.4618 48.8169 49.4655 48.5939 49.469C48.1486 49.4759 47.5251 49.4817 46.7818 49.4863C45.2957 49.4955 43.3357 49.5001 41.3754 49.5001C39.4152 49.5001 37.4558 49.4955 35.971 49.4863C35.2284 49.4817 34.6057 49.4759 34.1614 49.469C33.9389 49.4655 33.7633 49.4618 33.6404 49.4579C33.5826 49.4561 33.5393 49.4543 33.5095 49.4526C33.4804 49.4401 33.4382 49.4155 33.3941 49.3753C33.3674 49.351 33.346 49.3264 33.3306 49.3046C33.3231 49.2939 33.3179 49.285 33.3144 49.2783C33.3141 49.2777 33.3138 49.2771 33.3135 49.2766C33.3077 49.2432 33.3007 49.1573 33.317 48.9957C33.335 48.8183 33.377 48.5867 33.4475 48.2994C33.6157 47.6323 33.9201 47.0991 34.4186 46.6283C34.927 46.1481 35.6547 45.7166 36.6939 45.2896C37.2976 45.0441 38.5361 44.6275 39.2909 44.4207L39.2914 44.4206L39.7143 44.3043L40.0818 44.2032V43.8222V43.5155V43.2089V42.9908L39.922 42.8425L39.6259 42.5676L39.6259 42.5675L39.6235 42.5654C38.861 41.8663 38.201 40.345 38.0171 38.5998C37.9295 37.7421 38.0291 37.1134 38.3358 36.5091ZM49.2782 49.4506C49.2847 49.4498 49.2861 49.4498 49.2801 49.4504L49.2782 49.4506ZM33.4788 49.4505C33.4725 49.4499 33.4741 49.4498 33.4812 49.4507C33.48 49.4506 33.4793 49.4505 33.4788 49.4505Z" fill="white" stroke="#363C51"/>
</svg>
