<svg width="73" height="72" viewBox="0 0 73 72" fill="none" xmlns="http://www.w3.org/2000/svg">
<path d="M71.9858 27.5372C72.4308 29.3591 72.7354 31.235 72.8876 33.1532L72.3891 33.1927C72.4626 34.1188 72.5 35.0551 72.5 36C72.5 36.9449 72.4626 37.8811 72.3891 38.8073L72.8876 38.8468C72.7354 40.765 72.4308 42.6409 71.9858 44.4628L71.5001 44.3442C71.0521 46.178 70.4598 47.9563 69.7356 49.6669L70.196 49.8618C69.4523 51.6183 68.5716 53.3043 67.567 54.9067L67.1433 54.6411C66.1474 56.2298 65.0278 57.7354 63.7978 59.1447L64.1745 59.4735C62.9273 60.9026 61.5682 62.2341 60.1107 63.4546L59.7897 63.0713C58.3585 64.2698 56.831 65.3599 55.2203 66.3288L55.478 66.7573C53.8605 67.7302 52.1603 68.5826 50.3901 69.3016L50.2019 68.8383C48.4826 69.5367 46.6963 70.1076 44.8553 70.5391L44.9693 71.0259C43.1445 71.4535 41.2666 71.746 39.3471 71.8921L39.3092 71.3935C38.3823 71.4641 37.4454 71.5 36.5 71.5C35.5546 71.5 34.6177 71.4641 33.6908 71.3935L33.6529 71.8921C31.7334 71.746 29.8555 71.4535 28.0307 71.0259L28.1447 70.5391C26.3037 70.1076 24.5174 69.5367 22.7981 68.8383L22.6099 69.3016C20.8397 68.5826 19.1395 67.7302 17.522 66.7573L17.7797 66.3288C16.169 65.3599 14.6415 64.2698 13.2103 63.0713L12.8893 63.4546C11.4318 62.2341 10.0727 60.9026 8.82546 59.4735L9.20217 59.1447C7.97222 57.7354 6.85265 56.2298 5.85665 54.6411L5.43302 54.9067C4.4284 53.3043 3.54767 51.6183 2.804 49.8618L3.26444 49.6669C2.54022 47.9563 1.94789 46.178 1.49994 44.3442L1.01422 44.4628C0.569162 42.6409 0.264594 40.765 0.112452 38.8468L0.610887 38.8073C0.537428 37.8812 0.5 36.9449 0.5 36C0.5 35.0551 0.537428 34.1189 0.610887 33.1927L0.112452 33.1532C0.264594 31.235 0.569162 29.3591 1.01422 27.5372L1.49994 27.6558C1.94789 25.822 2.54022 24.0437 3.26444 22.3331L2.804 22.1382C3.54767 20.3817 4.4284 18.6957 5.43302 17.0933L5.85665 17.3589C6.85265 15.7702 7.97222 14.2646 9.20218 12.8553L8.82546 12.5265C10.0727 11.0974 11.4318 9.76595 12.8893 8.54538L13.2103 8.92872C14.6415 7.73019 16.169 6.64006 17.7797 5.6712L17.522 5.24274C19.1395 4.26977 20.8397 3.41744 22.6099 2.69842L22.7981 3.16166C24.5174 2.46328 26.3037 1.89239 28.1447 1.46094L28.0307 0.974125C29.8555 0.546483 31.7334 0.253973 33.6529 0.107906L33.6908 0.606465C34.6177 0.535929 35.5546 0.5 36.5 0.5C37.4454 0.5 38.3823 0.535929 39.3092 0.606465L39.3471 0.107906C41.2666 0.253973 43.1445 0.546484 44.9693 0.974126L44.8553 1.46094C46.6963 1.89239 48.4826 2.46328 50.2019 3.16166L50.3901 2.69842C52.1603 3.41745 53.8605 4.26978 55.478 5.24274L55.2203 5.6712C56.831 6.64006 58.3585 7.73019 59.7897 8.92873L60.1107 8.54539C61.5682 9.76595 62.9273 11.0974 64.1745 12.5265L63.7978 12.8553C65.0278 14.2646 66.1474 15.7702 67.1433 17.3589L67.567 17.0933C68.5716 18.6957 69.4523 20.3817 70.196 22.1382L69.7356 22.3331C70.4598 24.0437 71.0521 25.822 71.5001 27.6558L71.9858 27.5372Z" stroke="#363C51" stroke-dasharray="6 6"/>
<ellipse cx="36" cy="36.5" rx="27" ry="26.5" fill="#D2DAF5"/>
<path d="M20 25.6484V25.6484C20 26.0515 20.2084 26.426 20.551 26.6385L27.4985 30.9481C31.6143 33.5134 35.0253 35.6135 35.0675 35.6135C35.1944 35.6135 50.0505 26.3531 50.0787 26.2545C50.0928 26.2122 50.0928 25.9021 50.0787 25.5779V25.5779C50.0709 25.2565 49.808 25 49.4865 25H35.0253H20.6484C20.2903 25 20 25.2903 20 25.6484V25.6484Z" fill="#2F55D4"/>
<path d="M20 36.4241V43.015C20 44.1195 20.8954 45.015 22 45.015H28.8011H36.5407C37.127 45.015 37.6022 44.5397 37.6022 43.9535V43.9535C37.6022 42.7505 37.7149 42.0853 38.0951 41.0521C38.9681 38.6744 40.8551 36.7638 43.2067 35.8863C44.3051 35.4759 44.8261 35.3909 46.2906 35.3909C47.5158 35.3909 47.6988 35.4051 48.3043 35.5749C48.8535 35.7306 49.3605 35.9146 49.9378 36.1694C49.9941 36.1977 50.0223 35.3485 50.0223 32.065C50.0223 29.7864 50.0082 27.9182 49.9941 27.9182C49.9801 27.9182 46.6145 30.027 42.5167 32.617L36.1415 36.6459C35.4933 37.0555 34.6679 37.0585 34.0168 36.6535L31.9413 35.3626C27.4211 32.532 20.7886 28.3569 20.3661 28.088V28.088C20.2142 27.9764 20 28.0849 20 28.2734V36.4241Z" fill="#2F55D4"/>
<path d="M45.5541 36.9384C45.4555 36.9525 45.1877 36.9948 44.9621 37.0371C42.7915 37.4176 40.8323 38.9399 39.8738 40.9978C39.0141 42.8301 39.0141 45.0853 39.8738 46.9177C40.2403 47.707 40.5786 48.2003 41.227 48.8628C42.1431 49.8353 43.2989 50.4978 44.6239 50.8361C45.4837 51.0475 47.0482 51.0616 47.908 50.8361C49.2329 50.4978 50.2619 49.9199 51.2344 48.9473C52.1365 48.0453 52.6862 47.1432 53.0808 45.8464C53.25 45.2826 53.2641 45.1417 53.2641 43.9859C53.2641 42.9147 53.25 42.661 53.1231 42.2099C52.7567 40.9132 52.1788 39.8984 51.2767 38.9963C49.98 37.6995 48.359 36.9948 46.5267 36.9243C46.0897 36.9243 45.6528 36.9243 45.5541 36.9384ZM48.1194 38.3479C50.7129 39.2359 52.362 41.6461 52.1788 44.3383C52.1224 45.184 51.9673 45.7337 51.5727 46.5653C50.8257 48.1157 49.4162 49.2715 47.7248 49.7226C46.9354 49.934 45.5964 49.934 44.8212 49.7226C42.5801 49.1306 40.9169 47.3546 40.4517 45.0853C40.2967 44.3242 40.3531 43.112 40.5504 42.3932C41.1565 40.3071 42.8056 38.7285 44.948 38.1929C45.244 38.1224 45.6528 38.0942 46.3998 38.1083C47.3724 38.1224 47.4992 38.1365 48.1194 38.3479Z" fill="#363C51"/>
<path d="M48.1194 38.3479C50.7129 39.2359 52.362 41.6461 52.1788 44.3383C52.1224 45.184 51.9673 45.7337 51.5727 46.5653C50.8257 48.1157 49.4162 49.2715 47.7248 49.7226C46.9354 49.934 45.5964 49.934 44.8212 49.7226C42.5801 49.1306 40.9169 47.3546 40.4517 45.0853C40.2967 44.3242 40.3531 43.112 40.5504 42.3932C41.1565 40.3071 42.8056 38.7285 44.948 38.1929C45.244 38.1224 45.6528 38.0942 46.3998 38.1083C47.3724 38.1224 47.4992 38.1365 48.1194 38.3479Z" fill="white"/>
<path d="M45.9672 40.8072C45.4575 40.8819 45.0319 41.1672 44.8236 41.5754C44.6729 41.8696 44.6286 42.1724 44.6685 42.5587C44.7482 43.3094 45.0364 43.9986 45.4087 44.3366L45.5328 44.4507V44.578V44.7053L45.3555 44.7536C45.0319 44.8414 44.5045 45.017 44.2429 45.1224C43.3476 45.4867 42.9176 45.8862 42.758 46.5139C42.696 46.7641 42.6782 46.9397 42.7048 47.0319C42.7359 47.1241 42.8422 47.2207 42.9442 47.247C43.0506 47.2778 49.5177 47.2778 49.6285 47.247C49.7304 47.2207 49.8412 47.1241 49.8678 47.0319C49.8944 46.9485 49.8811 46.7378 49.8324 46.5403C49.7881 46.3647 49.6817 46.1408 49.5709 45.9872C49.2473 45.535 48.5292 45.1487 47.3989 44.8151L47.0399 44.7097V44.5473V44.3849L47.1551 44.2927C47.5408 43.9898 47.8244 43.3182 47.8998 42.5544C47.9264 42.2646 47.9087 42.0803 47.8244 41.8257C47.6737 41.3823 47.3191 41.0267 46.8714 40.8775C46.6099 40.7897 46.2686 40.7633 45.9672 40.8072Z" fill="#363C51"/>
</svg>
