<svg width="73" height="72" viewBox="0 0 73 72" fill="none" xmlns="http://www.w3.org/2000/svg">
<path d="M71.9858 27.5372C72.4308 29.3591 72.7354 31.235 72.8876 33.1532L72.3891 33.1927C72.4626 34.1188 72.5 35.0551 72.5 36C72.5 36.9449 72.4626 37.8811 72.3891 38.8073L72.8876 38.8468C72.7354 40.765 72.4308 42.6409 71.9858 44.4628L71.5001 44.3442C71.0521 46.178 70.4598 47.9563 69.7356 49.6669L70.196 49.8618C69.4523 51.6183 68.5716 53.3043 67.567 54.9067L67.1433 54.6411C66.1474 56.2298 65.0278 57.7354 63.7978 59.1447L64.1745 59.4735C62.9273 60.9026 61.5682 62.2341 60.1107 63.4546L59.7897 63.0713C58.3585 64.2698 56.831 65.3599 55.2203 66.3288L55.478 66.7573C53.8605 67.7302 52.1603 68.5826 50.3901 69.3016L50.2019 68.8383C48.4826 69.5367 46.6963 70.1076 44.8553 70.5391L44.9693 71.0259C43.1445 71.4535 41.2666 71.746 39.3471 71.8921L39.3092 71.3935C38.3823 71.4641 37.4454 71.5 36.5 71.5C35.5546 71.5 34.6177 71.4641 33.6908 71.3935L33.6529 71.8921C31.7334 71.746 29.8555 71.4535 28.0307 71.0259L28.1447 70.5391C26.3037 70.1076 24.5174 69.5367 22.7981 68.8383L22.6099 69.3016C20.8397 68.5826 19.1395 67.7302 17.522 66.7573L17.7797 66.3288C16.169 65.3599 14.6415 64.2698 13.2103 63.0713L12.8893 63.4546C11.4318 62.2341 10.0727 60.9026 8.82546 59.4735L9.20217 59.1447C7.97222 57.7354 6.85265 56.2298 5.85665 54.6411L5.43302 54.9067C4.4284 53.3043 3.54767 51.6183 2.804 49.8618L3.26444 49.6669C2.54022 47.9563 1.94789 46.178 1.49994 44.3442L1.01422 44.4628C0.569162 42.6409 0.264594 40.765 0.112452 38.8468L0.610887 38.8073C0.537428 37.8812 0.5 36.9449 0.5 36C0.5 35.0551 0.537428 34.1189 0.610887 33.1927L0.112452 33.1532C0.264594 31.235 0.569162 29.3591 1.01422 27.5372L1.49994 27.6558C1.94789 25.822 2.54022 24.0437 3.26444 22.3331L2.804 22.1382C3.54767 20.3817 4.4284 18.6957 5.43302 17.0933L5.85665 17.3589C6.85265 15.7702 7.97222 14.2646 9.20218 12.8553L8.82546 12.5265C10.0727 11.0974 11.4318 9.76595 12.8893 8.54538L13.2103 8.92872C14.6415 7.73019 16.169 6.64006 17.7797 5.6712L17.522 5.24274C19.1395 4.26977 20.8397 3.41744 22.6099 2.69842L22.7981 3.16166C24.5174 2.46328 26.3037 1.89239 28.1447 1.46094L28.0307 0.974125C29.8555 0.546483 31.7334 0.253973 33.6529 0.107906L33.6908 0.606465C34.6177 0.535929 35.5546 0.5 36.5 0.5C37.4454 0.5 38.3823 0.535929 39.3092 0.606465L39.3471 0.107906C41.2666 0.253973 43.1445 0.546484 44.9693 0.974126L44.8553 1.46094C46.6963 1.89239 48.4826 2.46328 50.2019 3.16166L50.3901 2.69842C52.1603 3.41745 53.8605 4.26978 55.478 5.24274L55.2203 5.6712C56.831 6.64006 58.3585 7.73019 59.7897 8.92873L60.1107 8.54539C61.5682 9.76595 62.9273 11.0974 64.1745 12.5265L63.7978 12.8553C65.0278 14.2646 66.1474 15.7702 67.1433 17.3589L67.567 17.0933C68.5716 18.6957 69.4523 20.3817 70.196 22.1382L69.7356 22.3331C70.4598 24.0437 71.0521 25.822 71.5001 27.6558L71.9858 27.5372Z" stroke="#363C51" stroke-dasharray="6 6"/>
<ellipse cx="36" cy="36.5" rx="27" ry="26.5" fill="#D2DAF5"/>
<path d="M25.9863 24.0672C25.329 24.2262 24.6187 24.7775 24.3006 25.3924C23.9826 26.0179 23.9932 25.3712 24.0038 35.6122L24.0144 44.8885L24.131 45.1853C24.4597 46.0229 25.0958 46.6165 25.8909 46.8286C26.1983 46.9134 26.4952 46.924 31.1704 46.924C36.5454 46.924 36.3227 46.9346 36.4499 46.6589C36.5454 46.4469 36.5136 46.2561 36.3651 46.0865L36.2273 45.9274L31.2234 45.9062L26.2195 45.885L25.9651 45.7684C25.6576 45.6306 25.2972 45.2701 25.1488 44.9415L25.0428 44.7083L25.0322 36.9692L25.0216 29.2301H35.464H45.9065V32.9194C45.9065 37.0222 45.8959 36.842 46.2351 36.9798C46.4471 37.0752 46.691 37.001 46.8394 36.8208C46.9348 36.6936 46.9348 36.6299 46.9348 31.4564C46.9348 26.5055 46.9348 26.1981 46.8394 25.8906C46.6274 25.0955 46.0337 24.47 45.1962 24.1308L44.8993 24.0142L35.5806 24.0036C27.6613 23.993 26.2301 24.0036 25.9863 24.0672ZM44.9311 25.1379C45.2492 25.2864 45.6202 25.6468 45.758 25.9543C45.8641 26.1875 45.8747 26.2829 45.8853 27.1734L45.9065 28.1382H35.4534H25.0216L25.0428 27.1946C25.0534 26.3041 25.064 26.2405 25.1806 25.9861C25.4138 25.4984 25.7531 25.2122 26.2513 25.0743C26.4315 25.0213 28.467 25.0107 35.5912 25.0213L44.7085 25.0319L44.9311 25.1379Z" fill="#363C51"/>
<path fill-rule="evenodd" clip-rule="evenodd" d="M44.9311 25.1379C45.2492 25.2864 45.6202 25.6468 45.758 25.9543C45.8641 26.1875 45.8747 26.2829 45.8853 27.1734L45.9065 28.1382H35.4534H25.0216L25.0428 27.1946C25.0534 26.3041 25.064 26.2405 25.1806 25.9861C25.4138 25.4984 25.7531 25.2122 26.2513 25.0743C26.4315 25.0213 28.467 25.0107 35.5912 25.0213L44.7085 25.0319L44.9311 25.1379ZM26.1029 26.5904C26.1029 26.4207 26.1241 26.3465 26.2407 26.2299C26.3573 26.1133 26.4315 26.0921 26.6012 26.0921C27.0888 26.0921 27.3009 26.6116 26.9616 26.9508C26.6224 27.2901 26.1029 27.078 26.1029 26.5904ZM28.2232 26.7811C28.1278 26.5585 28.1702 26.3677 28.361 26.2087C28.7533 25.88 29.3469 26.2617 29.1773 26.7387C29.1137 26.9402 28.8911 27.1098 28.7003 27.1098C28.5094 27.1098 28.2974 26.972 28.2232 26.7811ZM30.4177 26.9508C30.1845 26.707 30.2057 26.3889 30.4707 26.1769C30.5343 26.1239 30.6615 26.0921 30.7782 26.0921C31.287 26.0921 31.4779 26.7812 31.0326 27.0356C30.81 27.1734 30.6085 27.1416 30.4177 26.9508Z" fill="white"/>
<path d="M28.361 26.2087C28.1702 26.3677 28.1278 26.5585 28.2232 26.7811C28.2974 26.972 28.5094 27.1098 28.7003 27.1098C28.8911 27.1098 29.1137 26.9402 29.1773 26.7387C29.3469 26.2617 28.7533 25.88 28.361 26.2087Z" fill="#363C51"/>
<path d="M26.2407 26.2299C26.1241 26.3465 26.1029 26.4207 26.1029 26.5904C26.1029 27.078 26.6224 27.2901 26.9616 26.9508C27.3009 26.6116 27.0888 26.0921 26.6012 26.0921C26.4315 26.0921 26.3573 26.1133 26.2407 26.2299Z" fill="#363C51"/>
<path d="M30.4707 26.1769C30.2057 26.3889 30.1845 26.707 30.4177 26.9508C30.6085 27.1416 30.81 27.1734 31.0326 27.0356C31.4779 26.7812 31.287 26.0921 30.7782 26.0921C30.6615 26.0921 30.5343 26.1239 30.4707 26.1769Z" fill="#363C51"/>
<path d="M42.6307 37.5843C41.7826 37.6797 40.8073 38.0507 40.0758 38.5384C38.3795 39.6728 37.3724 41.7931 37.5844 43.7861C37.7328 45.2173 38.2311 46.2669 39.2276 47.274C39.9379 47.9949 40.5846 48.4084 41.4221 48.6946C43.5212 49.3943 45.79 48.8749 47.3378 47.3164C48.8962 45.7686 49.4157 43.4999 48.716 41.4008C48.4297 40.5633 48.0163 39.9166 47.2954 39.2063C46.3094 38.231 45.2493 37.7221 43.8817 37.5737C43.3622 37.5207 43.1608 37.5207 42.6307 37.5843ZM44.2633 38.6974C46.8607 39.2381 48.4933 41.8885 47.8254 44.4858C47.6028 45.3446 47.0409 46.2351 46.3306 46.85C44.1891 48.684 40.9133 48.207 39.3549 45.8322C38.5703 44.6237 38.3901 43.0652 38.8778 41.6871C39.4291 40.1604 40.7755 39.0049 42.3763 38.6762C42.8639 38.5808 43.7439 38.5914 44.2633 38.6974Z" fill="#363C51"/>
<path d="M44.2633 38.6974C46.8607 39.2381 48.4933 41.8885 47.8254 44.4858C47.6028 45.3446 47.0409 46.2351 46.3306 46.85C44.1891 48.684 40.9133 48.207 39.3549 45.8322C38.5703 44.6237 38.3901 43.0652 38.8778 41.6871C39.4291 40.1604 40.7755 39.0049 42.3763 38.6762C42.8639 38.5808 43.7439 38.5914 44.2633 38.6974Z" fill="#2F55D4"/>
<path d="M42.8 40.0694C41.8936 40.2627 41.1604 40.9238 41.0179 41.6866C40.9364 42.0934 41.1401 42.3883 41.4965 42.3883C41.7409 42.3883 41.9038 42.2459 41.9853 41.951C42.1075 41.5238 42.3315 41.2899 42.7796 41.1272C43.3091 40.9339 43.8794 40.9644 44.3988 41.2187C45.0709 41.5543 45.2033 42.2053 44.6635 42.5816C44.4191 42.7545 44.1849 42.8358 43.6554 42.9477C43.3295 43.0189 43.2277 43.0698 43.1258 43.1816C42.9935 43.324 42.9935 43.3342 42.9935 43.9648C42.9935 44.6869 43.0444 44.8394 43.3091 44.9513C43.4313 45.0123 43.5026 45.0123 43.6248 44.9716C43.8896 44.8801 43.9507 44.7784 43.9812 44.3309L44.0016 43.9241L44.4293 43.7817C45.1829 43.5173 45.58 43.2223 45.8244 42.7443C46.0994 42.1951 46.0485 41.5848 45.6921 41.0458C45.1422 40.2423 43.9201 39.8253 42.8 40.0694Z" fill="white"/>
<path d="M43.3093 46.0444C43.1546 46.1068 43 46.3254 43 46.4815C43 46.9395 43.5155 47.1685 43.8557 46.8563C43.9794 46.7418 44 46.6793 44 46.5024C44 46.1276 43.6701 45.8986 43.3093 46.0444Z" fill="white"/>
</svg>
