<svg width="319" height="254" viewBox="0 0 319 254" fill="none" xmlns="http://www.w3.org/2000/svg">
<path fill-rule="evenodd" clip-rule="evenodd" d="M143.813 6.73097C144.775 6.73097 147.179 5.19245 149.198 3.36546C153.621 -0.76931 156.506 -0.865473 161.891 2.98083C165.929 5.86556 166.122 5.96171 168.718 4.42319C170.16 3.55778 172.372 2.88467 173.622 2.88467C176.314 2.88467 182.468 8.75025 183.911 12.6927C184.68 14.6159 185.545 15.3851 187.276 15.3851C188.526 15.3851 190.545 16.2505 191.796 17.2122C193.911 18.943 194.104 19.8084 194.104 27.3087V35.5782H196.892C200.353 35.5782 204.2 38.9437 204.2 42.0208C204.2 43.2708 203.527 45.7709 202.758 47.694C201.411 50.9634 201.411 51.0596 204.489 53.752C206.988 56.0597 207.565 57.2136 207.469 60.483C207.373 62.5985 206.508 65.7717 205.546 67.5025C204.008 70.1949 203.815 72.1181 204.2 80.8681L204.681 90.9647L222.854 116.447C225.949 120.762 228.878 124.855 231.453 128.454C237.2 136.486 241.184 142.054 241.317 142.121C242.663 143.852 260.548 127.889 269.587 116.831L272.76 112.985L269.107 119.716C253.241 149.429 222.086 172.699 188.334 180.007C175.449 182.796 146.986 183.468 135.447 181.257C121.12 178.564 103.235 170.872 88.3302 161.063C79.9645 155.487 66.3102 142.313 59.483 133.178C55.5405 127.986 48.4249 115.581 48.4249 114.042C48.4249 113.658 52.175 117.697 56.6944 123.082C61.2138 128.37 65.4448 132.697 66.1179 132.697C67.7526 132.697 99.3883 93.5609 99.3883 91.6383C99.3883 90.7729 97.6575 88.2725 95.542 85.9647C89.7726 79.7143 89.7726 78.4645 95.1574 62.5023C99.2922 50.1941 100.158 48.5594 102.273 48.0787C104.485 47.5979 104.677 46.9248 105.158 41.7323C105.542 36.7321 106.216 35.0974 109.87 30.2895C115.735 22.5008 117.274 21.1546 120.158 21.1546C121.986 21.1546 123.812 19.9045 126.505 16.8275C129.582 13.2697 130.928 12.5004 133.62 12.5004C136.024 12.5004 137.563 11.7312 139.486 9.61566C140.832 7.98103 142.852 6.73097 143.813 6.73097ZM160.929 12.5004C163.429 12.5004 164.103 9.61566 162.179 7.50022C161.218 6.4425 159.775 5.19245 159.006 4.80782C157.179 3.84625 154.198 5.38477 154.198 7.21175C154.198 8.94258 158.813 12.5004 160.929 12.5004ZM177.757 19.8084C180.353 15.289 180.834 11.8273 179.006 9.32719C177.661 7.59635 173.911 6.63481 171.218 7.40409C169.968 7.69256 169.775 8.46177 170.16 10.1926C170.641 12.0196 169.872 13.9427 167.179 17.7891C162.949 23.9432 162.949 27.2125 166.987 27.6933C170.449 28.0779 174.679 25.0009 177.757 19.8084ZM158.622 20.0007C160.641 17.9814 159.583 16.3467 154.198 12.6927C149.39 9.61566 146.121 8.84645 145.063 10.5773C144.005 12.3081 146.313 14.9044 151.794 18.1737C156.602 21.0584 157.371 21.2508 158.622 20.0007ZM164.775 32.2127C164.775 30.6742 159.294 26.1548 149.198 19.3276C145.159 16.6352 140.64 14.4236 139.294 14.4236C137.947 14.4236 135.351 15.7698 133.332 17.5968C131.313 19.4237 125.543 23.847 120.543 27.4048C115.543 31.0588 110.927 34.7128 110.254 35.4821C109.485 36.5398 109.1 41.3476 109.004 50.1941V63.2715L114.485 68.1756C120.735 73.753 123.139 74.2333 127.274 70.3872C133.524 64.9062 131.794 56.4444 121.986 43.8478C116.216 36.3475 116.312 32.8858 122.177 37.5014C124.87 39.6168 130.928 40.0976 134.005 38.4629C136.024 37.4052 137.852 32.6935 137.852 28.2702C137.852 23.6547 139.197 23.5585 142.082 27.9818C144.967 32.3089 152.564 36.5398 157.564 36.5398C160.929 36.5398 164.775 34.232 164.775 32.2127ZM189.873 32.2127C192.276 28.4626 192.18 23.9432 189.777 21.3469C187.18 18.5583 184.199 18.6545 183.142 21.443C182.661 22.5969 179.006 27.5972 174.968 32.5973C170.929 37.5014 167.372 42.5977 167.083 43.8478C166.314 46.9248 168.141 49.0403 171.699 49.0403C174.007 49.0403 175.93 47.694 181.314 42.0208C184.968 38.2706 188.815 33.7512 189.873 32.2127ZM158.045 44.617C154.486 44.2324 152.275 42.1169 152.275 39.2322C152.275 37.886 151.506 37.5014 148.332 37.5014C144.871 37.5014 143.717 38.1744 139.005 42.6939L133.62 47.8864L136.217 54.2328C139.582 62.5985 139.582 67.4064 136.024 73.5604C131.794 80.8681 126.505 86.5417 124.005 86.5417C120.639 86.5417 117.37 83.4644 114.004 77.118C111.12 71.8296 108.139 69.2333 104.581 69.2333C103.427 69.2333 103.235 67.8871 103.812 60.483C104.773 48.3672 103.138 49.3287 97.6575 64.2332C95.2879 70.6095 93.9028 73.8394 94.3671 76.7769C94.939 80.3957 98.3175 83.5709 106.119 91.6383C114.774 100.677 117.37 102.696 124.485 106.254C133.524 110.869 140.928 113.081 151.506 114.428C157.852 115.196 158.622 115.581 162.756 119.62C165.16 122.024 173.911 133.274 182.084 144.525C195.354 162.602 197.277 164.91 199.392 164.525C206.508 163.564 235.067 149.429 237.278 145.871C237.951 144.813 234.393 139.14 223.72 123.947C201.796 92.6955 200.353 90.3877 200.353 86.5417C200.353 84.7149 200.065 80.8681 199.777 78.0801C199.2 74.0414 198.815 73.0794 197.277 73.0794C194.296 73.0794 189.968 70.3872 188.238 67.4064C186.988 65.1947 185.545 64.3293 182.661 63.8485C177.372 62.9831 175.641 62.0215 173.911 58.656C172.853 56.6367 171.699 55.7713 170.064 55.7713C166.795 55.7713 162.852 52.0211 162.083 48.1748C161.506 45.2901 160.929 44.9055 158.045 44.617ZM187.565 57.2136C197.084 50.9634 202.758 43.7516 200.45 40.963C199.681 40.0976 198.623 39.4245 198.046 39.4245C193.911 39.4245 180.16 50.9634 180.16 54.4251C180.16 57.9829 184.103 59.4253 187.565 57.2136ZM205.162 60.9638C205.162 60.1946 204.296 58.7522 203.238 57.6944C200.834 55.2905 200.258 55.2905 197.084 57.7906C192.853 61.1561 194.104 67.3102 199.008 67.3102C201.219 67.3102 205.162 63.2715 205.162 60.9638ZM111.312 106.735C109.389 104.62 107.177 102.023 106.408 100.965C104.485 98.1765 101.6 98.5616 99.5807 101.927C99.2204 102.567 98.627 103.607 97.9321 104.826C96.9574 106.534 95.7832 108.593 94.7728 110.389C93.0419 113.466 87.4648 121.158 82.4647 127.409C74.772 137.024 73.6181 138.948 74.5797 140.198C78.5222 145.006 107.754 161.256 114.966 162.698C116.889 163.083 125.543 150.006 132.562 136.159C136.409 128.563 137.082 126.639 136.505 123.659C135.159 116.831 126.89 110.581 118.812 110.581C115.447 110.581 114.389 110.004 111.312 106.735ZM177.661 147.602C170.064 137.505 162.756 128.37 161.602 127.12C159.199 124.716 153.813 123.659 150.833 124.909C147.371 126.447 143.044 131.928 133.043 147.409C127.658 155.871 123.043 163.275 122.851 163.948C122.274 165.487 123.235 165.776 134.967 167.987C150.159 170.68 184.103 169.814 190.449 166.449C191.219 166.064 186.699 159.429 177.661 147.602ZM175.658 254C169.311 254 164.426 252.211 161.003 248.634C157.618 245.057 155.926 240.019 155.926 233.518C155.926 227.018 157.618 221.979 161.003 218.402C164.426 214.825 169.311 213.037 175.658 213.037C181.966 213.037 186.831 214.825 190.254 218.402C193.678 221.979 195.389 227.018 195.389 233.518C195.389 240.019 193.678 245.057 190.254 248.634C186.831 252.211 181.966 254 175.658 254ZM175.658 248.577C179.696 248.577 182.773 247.307 184.889 244.769C187.004 242.192 188.062 238.442 188.062 233.518C188.062 228.595 187.004 224.864 184.889 222.326C182.773 219.787 179.696 218.518 175.658 218.518C171.619 218.518 168.523 219.787 166.369 222.326C164.253 224.864 163.196 228.595 163.196 233.518C163.196 238.442 164.253 242.192 166.369 244.769C168.523 247.307 171.619 248.577 175.658 248.577ZM14.3082 253.134C13.539 253.134 12.9813 252.961 12.6351 252.615C12.2889 252.269 12.1158 251.75 12.1158 251.057V219.556H2.01931C1.25005 219.556 0.711565 219.402 0.403861 219.095C0.13462 218.787 0 218.268 0 217.537V215.979C0 215.248 0.13462 214.729 0.403861 214.421C0.711565 214.075 1.25005 213.902 2.01931 213.902H29.5973C30.3665 213.902 30.905 214.075 31.2127 214.421C31.5204 214.729 31.6743 215.248 31.6743 215.979V217.537C31.6743 218.268 31.5204 218.787 31.2127 219.095C30.905 219.402 30.3665 219.556 29.5973 219.556H19.5007V251.057C19.5007 251.75 19.3277 252.269 18.9815 252.615C18.6738 252.961 18.1161 253.134 17.3083 253.134H14.3082ZM28.7846 253.134C28.1307 253.134 27.8038 252.846 27.8038 252.269C27.8038 252.038 27.8615 251.788 27.9769 251.519L43.2082 215.402C43.439 214.825 43.689 214.441 43.9582 214.248C44.2275 214.018 44.6121 213.902 45.1121 213.902H48.2853C48.8238 213.902 49.2084 214.018 49.4392 214.248C49.7085 214.441 49.9585 214.825 50.1893 215.402L65.4206 251.519C65.536 251.788 65.5937 252.038 65.5937 252.269C65.5937 252.846 65.2667 253.134 64.6129 253.134H59.5935C59.0934 253.134 58.728 253.077 58.4973 252.961C58.3049 252.808 58.1126 252.519 57.9203 252.096L54.6317 244.019H38.708L35.4772 252.096C35.2848 252.519 35.0733 252.808 34.8425 252.961C34.6502 253.077 34.304 253.134 33.804 253.134H28.7846ZM52.7855 238.653L46.6699 223.537L40.5543 238.653H52.7855ZM74.3862 252.615C74.7324 252.961 75.2901 253.134 76.0594 253.134H79.0595C79.8672 253.134 80.4249 252.961 80.7326 252.615C81.0788 252.269 81.2519 251.75 81.2519 251.057V219.556H91.3484C92.1177 219.556 92.6561 219.402 92.9639 219.095C93.2716 218.787 93.4254 218.268 93.4254 217.537V215.979C93.4254 215.248 93.2716 214.729 92.9639 214.421C92.6561 214.075 92.1177 213.902 91.3484 213.902H63.7704C63.0012 213.902 62.4627 214.075 62.155 214.421C61.8858 214.729 61.7511 215.248 61.7511 215.979V217.537C61.7511 218.268 61.8858 218.787 62.155 219.095C62.4627 219.402 63.0012 219.556 63.7704 219.556H73.867V251.057C73.867 251.75 74.0401 252.269 74.3862 252.615ZM90.5357 253.134C89.8819 253.134 89.5549 252.846 89.5549 252.269C89.5549 252.038 89.6126 251.788 89.728 251.519L104.959 215.402C105.19 214.825 105.44 214.441 105.709 214.248C105.979 214.018 106.363 213.902 106.863 213.902H110.036C110.575 213.902 110.96 214.018 111.19 214.248C111.46 214.441 111.71 214.825 111.94 215.402L127.172 251.519C127.287 251.788 127.345 252.038 127.345 252.269C127.345 252.846 127.018 253.134 126.364 253.134H121.345C120.845 253.134 120.479 253.077 120.248 252.961C120.056 252.808 119.864 252.519 119.671 252.096L116.383 244.019H100.459L97.2283 252.096C97.036 252.519 96.8244 252.808 96.5936 252.961C96.4013 253.077 96.0552 253.134 95.5551 253.134H90.5357ZM114.537 238.653L108.421 223.537L102.305 238.653H114.537ZM136.137 252.615C136.484 252.961 137.041 253.134 137.81 253.134H140.811C141.618 253.134 142.176 252.961 142.484 252.615C142.83 252.269 143.003 251.75 143.003 251.057V219.556H153.1C153.869 219.556 154.407 219.402 154.715 219.095C155.023 218.787 155.177 218.268 155.177 217.537V215.979C155.177 215.248 155.023 214.729 154.715 214.421C154.407 214.075 153.869 213.902 153.1 213.902H125.522C124.752 213.902 124.214 214.075 123.906 214.421C123.637 214.729 123.502 215.248 123.502 215.979V217.537C123.502 218.268 123.637 218.787 123.906 219.095C124.214 219.402 124.752 219.556 125.522 219.556H135.618V251.057C135.618 251.75 135.791 252.269 136.137 252.615ZM201.489 252.615C201.835 252.961 202.392 253.134 203.162 253.134H206.219C207.027 253.134 207.585 252.961 207.893 252.615C208.239 252.269 208.412 251.75 208.412 251.057V225.672L227.451 252.038C227.797 252.5 228.105 252.808 228.374 252.961C228.643 253.077 229.047 253.134 229.586 253.134H232.297C233.105 253.134 233.663 252.961 233.971 252.615C234.317 252.269 234.49 251.75 234.49 251.057V216.037C234.49 215.306 234.317 214.768 233.971 214.421C233.624 214.075 233.067 213.902 232.297 213.902H229.24C228.47 213.902 227.913 214.075 227.566 214.421C227.259 214.768 227.105 215.306 227.105 216.037V241.48L208.066 215.056C207.758 214.595 207.45 214.287 207.143 214.133C206.835 213.979 206.412 213.902 205.873 213.902H203.219C202.412 213.902 201.835 214.075 201.489 214.421C201.181 214.768 201.027 215.306 201.027 216.037V251.057C201.027 251.75 201.181 252.269 201.489 252.615ZM260.697 254C254.158 254 249.1 252.231 245.523 248.692C241.946 245.153 240.158 240.096 240.158 233.518C240.158 226.98 241.946 221.941 245.523 218.402C249.139 214.825 254.197 213.037 260.697 213.037C263.313 213.037 265.755 213.306 268.024 213.845C270.294 214.383 272.178 215.152 273.678 216.152C274.024 216.383 274.198 216.633 274.198 216.902C274.198 217.095 274.121 217.325 273.967 217.595L272.294 220.479C272.063 220.826 271.832 220.999 271.601 220.999C271.486 220.999 271.236 220.902 270.851 220.71C268.236 219.249 265.12 218.518 261.505 218.518C257.12 218.518 253.678 219.768 251.177 222.268C248.677 224.73 247.427 228.48 247.427 233.518C247.427 238.595 248.639 242.365 251.062 244.826C253.485 247.288 256.812 248.519 261.043 248.519C262.582 248.519 264.082 248.404 265.543 248.173C267.005 247.904 268.197 247.538 269.12 247.077V236.403H261.505C260.736 236.403 260.197 236.249 259.889 235.942C259.582 235.595 259.428 235.057 259.428 234.326V232.826C259.428 232.095 259.582 231.595 259.889 231.326C260.197 231.018 260.736 230.864 261.505 230.864H273.678C274.525 230.864 275.121 231.076 275.467 231.499C275.852 231.884 276.044 232.499 276.044 233.345V248.577C276.044 249.154 275.986 249.596 275.871 249.904C275.755 250.173 275.505 250.423 275.121 250.654C271.582 252.884 266.774 254 260.697 254ZM280.555 252.269C280.555 252.846 280.882 253.134 281.536 253.134H286.555C287.055 253.134 287.402 253.077 287.594 252.961C287.825 252.808 288.036 252.519 288.229 252.096L291.459 244.019H307.383L310.672 252.096C310.864 252.519 311.056 252.808 311.249 252.961C311.479 253.077 311.845 253.134 312.345 253.134H317.364C318.018 253.134 318.345 252.846 318.345 252.269C318.345 252.038 318.287 251.788 318.172 251.519L302.941 215.402C302.71 214.825 302.46 214.441 302.191 214.248C301.96 214.018 301.575 213.902 301.037 213.902H297.864C297.364 213.902 296.979 214.018 296.71 214.248C296.44 214.441 296.19 214.825 295.96 215.402L280.728 251.519C280.613 251.788 280.555 252.038 280.555 252.269ZM299.421 223.537L305.537 238.653H293.306L299.421 223.537Z" fill="url(#paint0_linear_19_14)"/>
<defs>
<linearGradient id="paint0_linear_19_14" x1="318" y1="157" x2="3.11538e-06" y2="157" gradientUnits="userSpaceOnUse">
<stop stop-color="#F54C85"/>
<stop offset="1" stop-color="#F5460A"/>
</linearGradient>
</defs>
</svg>
