<svg width="1689" height="891" viewBox="0 0 1689 891" fill="none" xmlns="http://www.w3.org/2000/svg">
<g clip-path="url(#clip0_842_8953)">
<mask id="mask0_842_8953" style="mask-type:luminance" maskUnits="userSpaceOnUse" x="0" y="0" width="1689" height="891">
<path d="M1689 0H0V891H1689V0Z" fill="white"/>
</mask>
<g mask="url(#mask0_842_8953)">
<path d="M27.7391 645.691H0V688.07H21.5748V759.73C21.5748 802.263 53.937 816.492 70.1182 818.29H92.4635C106.641 818.29 124.055 811.098 130.99 807.502V758.189L129.449 759.73C127.6 762.195 123.028 763.325 120.973 763.582H105.562C96.3162 763.582 92.4635 754.85 91.693 750.483V688.07H131.76V645.691H91.693V581.737H59.3307L27.7391 645.691Z" fill="#21B3FF"/>
<path d="M376.018 645.691H348.279V688.07H369.854V759.73C369.854 802.263 402.216 816.492 418.397 818.29H440.743C454.92 818.29 472.334 811.098 479.269 807.502V758.189L477.728 759.73C475.879 762.195 471.307 763.325 469.252 763.582H453.842C444.595 763.582 440.743 754.85 439.972 750.483V688.07H480.04V645.691H439.972V581.737H407.61L376.018 645.691Z" fill="#21B3FF"/>
<path d="M724.298 645.691H696.559V688.07H718.134V759.73C718.134 802.263 750.496 816.492 766.678 818.29H789.023C803.201 818.29 820.615 811.098 827.549 807.502V758.189L826.008 759.73C824.159 762.195 819.587 763.325 817.532 763.582H802.122C792.876 763.582 789.023 754.85 788.252 750.483V688.07H828.32V645.691H788.252V581.737H755.89L724.298 645.691Z" fill="#FE4E25"/>
<path fill-rule="evenodd" clip-rule="evenodd" d="M268.144 782.845C264.035 793.633 248.881 815.362 221.142 815.978H202.649C183.386 813.667 138.695 797.485 129.449 736.614V716.58C130.733 706.82 137 683.601 151.794 668.807C170.287 650.314 185.698 644.921 191.862 643.38C198.026 641.839 212.666 641.839 217.289 641.839C221.912 641.839 232.7 644.15 238.864 648.003C245.028 651.855 260.439 662.643 268.144 679.595V641.839H339.033V813.667H268.144V782.845ZM269.686 728.908C269.686 748.058 254.162 763.582 235.012 763.582C215.862 763.582 200.338 748.058 200.338 728.908C200.338 709.758 215.862 694.234 235.012 694.234C254.162 694.234 269.686 709.758 269.686 728.908Z" fill="#21B3FF"/>
<path fill-rule="evenodd" clip-rule="evenodd" d="M616.423 782.845C612.315 793.633 597.161 815.362 569.422 815.978H550.928C531.666 813.667 486.975 797.485 477.729 736.614V716.58C479.013 706.82 485.28 683.601 500.074 668.807C518.567 650.314 533.978 644.921 540.141 643.38C546.305 641.839 560.945 641.839 565.568 641.839C570.193 641.839 580.98 644.15 587.144 648.003C593.307 651.855 608.719 662.643 616.423 679.595V641.839H687.312V813.667H616.423V782.845ZM617.965 728.908C617.965 748.058 602.441 763.582 583.291 763.582C564.141 763.582 548.617 748.058 548.617 728.908C548.617 709.758 564.141 694.234 583.291 694.234C602.441 694.234 617.965 709.758 617.965 728.908Z" fill="#21B3FF"/>
<path fill-rule="evenodd" clip-rule="evenodd" d="M1618.11 782.845C1614 793.633 1598.85 815.362 1571.11 815.978H1552.62C1533.35 813.667 1488.66 797.485 1479.42 736.614V716.58C1480.7 706.82 1486.97 683.601 1501.76 668.807C1520.25 650.314 1535.66 644.921 1541.83 643.38C1547.99 641.839 1562.63 641.839 1567.26 641.839C1571.88 641.839 1582.67 644.15 1588.83 648.003C1595 651.855 1610.41 662.643 1618.11 679.595V641.839H1689V813.667H1618.11V782.845ZM1619.65 728.908C1619.65 748.058 1604.13 763.582 1584.98 763.582C1565.83 763.582 1550.31 748.058 1550.31 728.908C1550.31 709.758 1565.83 694.234 1584.98 694.234C1604.13 694.234 1619.65 709.758 1619.65 728.908Z" fill="#FE4E25"/>
<path fill-rule="evenodd" clip-rule="evenodd" d="M1037.13 728.908C1037.13 778.698 992.63 819.06 937.734 819.06C882.838 819.06 838.336 778.698 838.336 728.908C838.336 679.118 882.838 638.756 937.734 638.756C992.63 638.756 1037.13 679.118 1037.13 728.908ZM970.868 728.908C970.868 749.76 956.034 766.664 937.735 766.664C919.436 766.664 904.602 749.76 904.602 728.908C904.602 708.056 919.436 691.152 937.735 691.152C956.034 691.152 970.868 708.056 970.868 728.908Z" fill="#FE4E25"/>
<path d="M1047.92 814.437V645.691V644.921H1116.5V646.462V681.136L1118.81 677.283C1125.74 656.479 1148.86 644.15 1162.73 642.609H1195.86C1236.55 653.088 1247.23 694.235 1247.49 713.498V814.437H1175.83C1176.08 784.387 1176.44 721.665 1175.83 711.186C1175.21 700.707 1164.27 693.978 1158.88 691.923H1145.01C1127.75 696.238 1120.35 715.296 1118.81 724.285V814.437H1047.92Z" fill="#FE4E25"/>
<path fill-rule="evenodd" clip-rule="evenodd" d="M1396.29 682.677V641.839H1466.41H1467.18V785.928C1467.18 820.601 1448.22 890.103 1372.4 890.72C1371.5 890.72 1370.32 890.73 1368.93 890.743C1358.33 890.836 1335.2 891.041 1327.71 887.637C1329.56 870.378 1332.08 848.084 1333.1 839.094C1337.98 839.608 1349.44 840.635 1356.22 840.635C1364.7 840.635 1401.68 840.635 1400.91 785.928C1400.35 786.617 1399.76 787.373 1399.13 788.18C1392.02 797.294 1379.81 812.959 1341.58 813.667C1299.97 814.437 1256.82 779.763 1259.13 726.597C1261.45 673.43 1296.12 641.839 1337.73 641.839C1379.34 641.839 1390.89 668.807 1392.44 673.43C1393.67 677.129 1395.52 681.136 1396.29 682.677ZM1396.2 728.908C1396.2 749.76 1381.37 766.664 1363.07 766.664C1344.77 766.664 1329.94 749.76 1329.94 728.908C1329.94 708.056 1344.77 691.152 1363.07 691.152C1381.37 691.152 1396.2 708.056 1396.2 728.908Z" fill="#FE4E25"/>
<path d="M1123.24 581.737V532.423H1128.92V550.627H1129.4C1129.82 549.985 1130.4 549.166 1131.14 548.171C1131.89 547.16 1132.97 546.261 1134.36 545.474C1135.78 544.672 1137.69 544.27 1140.09 544.27C1143.21 544.27 1145.95 545.049 1148.33 546.606C1150.71 548.163 1152.56 550.37 1153.89 553.228C1155.22 556.085 1155.89 559.456 1155.89 563.341C1155.89 567.258 1155.22 570.653 1153.89 573.526C1152.56 576.384 1150.71 578.599 1148.35 580.172C1145.99 581.729 1143.27 582.508 1140.19 582.508C1137.81 582.508 1135.91 582.115 1134.48 581.328C1133.06 580.525 1131.96 579.618 1131.18 578.607C1130.41 577.58 1129.82 576.729 1129.4 576.055H1128.73V581.737H1123.24ZM1128.83 563.245C1128.83 566.038 1129.23 568.502 1130.05 570.637C1130.87 572.756 1132.07 574.417 1133.64 575.621C1135.21 576.809 1137.14 577.403 1139.42 577.403C1141.8 577.403 1143.78 576.777 1145.37 575.525C1146.97 574.257 1148.18 572.555 1148.98 570.42C1149.8 568.269 1150.21 565.877 1150.21 563.245C1150.21 560.644 1149.81 558.3 1149 556.214C1148.22 554.111 1147.02 552.449 1145.42 551.229C1143.83 549.993 1141.83 549.375 1139.42 549.375C1137.11 549.375 1135.17 549.961 1133.59 551.133C1132.02 552.289 1130.83 553.91 1130.03 555.997C1129.23 558.068 1128.83 560.484 1128.83 563.245Z" fill="#21B3FF"/>
<path d="M1187.89 566.616V544.752H1193.57V581.737H1187.89V575.477H1187.51C1186.64 577.355 1185.29 578.952 1183.46 580.269C1181.63 581.569 1179.32 582.219 1176.53 582.219C1174.21 582.219 1172.16 581.713 1170.36 580.702C1168.56 579.675 1167.15 578.134 1166.12 576.079C1165.1 574.008 1164.58 571.399 1164.58 568.253V544.752H1170.27V567.868C1170.27 570.565 1171.02 572.716 1172.53 574.321C1174.05 575.926 1176 576.729 1178.36 576.729C1179.77 576.729 1181.21 576.368 1182.67 575.645C1184.14 574.923 1185.38 573.815 1186.37 572.322C1187.39 570.83 1187.89 568.927 1187.89 566.616Z" fill="#21B3FF"/>
<path d="M1230.18 553.035L1225.08 554.48C1224.75 553.629 1224.28 552.802 1223.65 552C1223.04 551.181 1222.21 550.507 1221.15 549.977C1220.09 549.447 1218.73 549.182 1217.08 549.182C1214.82 549.182 1212.93 549.704 1211.42 550.748C1209.93 551.775 1209.18 553.083 1209.18 554.673C1209.18 556.085 1209.7 557.201 1210.72 558.019C1211.75 558.838 1213.36 559.52 1215.54 560.066L1221.03 561.415C1224.34 562.217 1226.8 563.445 1228.42 565.099C1230.04 566.736 1230.85 568.847 1230.85 571.432C1230.85 573.55 1230.24 575.445 1229.02 577.114C1227.82 578.784 1226.13 580.1 1223.97 581.063C1221.8 582.026 1219.28 582.508 1216.41 582.508C1212.63 582.508 1209.51 581.689 1207.04 580.052C1204.57 578.414 1203 576.023 1202.34 572.876L1207.74 571.528C1208.25 573.518 1209.22 575.011 1210.65 576.007C1212.1 577.002 1213.98 577.499 1216.31 577.499C1218.96 577.499 1221.06 576.938 1222.62 575.814C1224.19 574.674 1224.98 573.31 1224.98 571.72C1224.98 570.436 1224.53 569.361 1223.63 568.494C1222.73 567.611 1221.35 566.953 1219.49 566.519L1213.32 565.075C1209.94 564.272 1207.45 563.028 1205.86 561.342C1204.29 559.641 1203.5 557.514 1203.5 554.961C1203.5 552.875 1204.09 551.029 1205.26 549.423C1206.45 547.818 1208.06 546.558 1210.1 545.643C1212.15 544.728 1214.48 544.27 1217.08 544.27C1220.74 544.27 1223.61 545.073 1225.7 546.678C1227.8 548.284 1229.3 550.402 1230.18 553.035Z" fill="#21B3FF"/>
<path d="M1239.41 581.737V544.752H1245.09V581.737H1239.41ZM1242.3 538.588C1241.19 538.588 1240.23 538.21 1239.43 537.456C1238.65 536.702 1238.25 535.795 1238.25 534.735C1238.25 533.676 1238.65 532.769 1239.43 532.014C1240.23 531.26 1241.19 530.882 1242.3 530.882C1243.41 530.882 1244.35 531.26 1245.14 532.014C1245.94 532.769 1246.34 533.676 1246.34 534.735C1246.34 535.795 1245.94 536.702 1245.14 537.456C1244.35 538.21 1243.41 538.588 1242.3 538.588Z" fill="#21B3FF"/>
<path d="M1261.18 559.488V581.737H1255.5V544.752H1260.99V550.531H1261.47C1262.34 548.653 1263.65 547.144 1265.42 546.004C1267.19 544.848 1269.46 544.27 1272.26 544.27C1274.76 544.27 1276.95 544.784 1278.83 545.811C1280.71 546.823 1282.17 548.364 1283.21 550.435C1284.26 552.489 1284.78 555.09 1284.78 558.236V581.737H1279.1V558.621C1279.1 555.716 1278.34 553.452 1276.83 551.831C1275.32 550.194 1273.25 549.375 1270.62 549.375C1268.81 549.375 1267.19 549.768 1265.76 550.555C1264.34 551.342 1263.23 552.489 1262.41 553.998C1261.59 555.507 1261.18 557.337 1261.18 559.488Z" fill="#21B3FF"/>
<path d="M1310.67 582.508C1307.11 582.508 1304.03 581.721 1301.45 580.148C1298.88 578.559 1296.9 576.344 1295.5 573.502C1294.12 570.645 1293.43 567.322 1293.43 563.534C1293.43 559.745 1294.12 556.406 1295.5 553.517C1296.9 550.611 1298.84 548.348 1301.33 546.726C1303.83 545.089 1306.75 544.27 1310.09 544.27C1312.02 544.27 1313.92 544.591 1315.8 545.234C1317.68 545.876 1319.39 546.919 1320.93 548.364C1322.47 549.792 1323.7 551.687 1324.61 554.046C1325.53 556.406 1325.98 559.312 1325.98 562.763V565.171H1297.47V560.259H1320.21C1320.21 558.172 1319.79 556.31 1318.95 554.673C1318.13 553.035 1316.96 551.743 1315.44 550.796C1313.93 549.849 1312.15 549.375 1310.09 549.375C1307.83 549.375 1305.87 549.937 1304.22 551.061C1302.58 552.168 1301.32 553.613 1300.44 555.395C1299.55 557.177 1299.11 559.087 1299.11 561.126V564.4C1299.11 567.194 1299.59 569.561 1300.56 571.504C1301.54 573.43 1302.89 574.899 1304.63 575.91C1306.36 576.905 1308.37 577.403 1310.67 577.403C1312.16 577.403 1313.51 577.194 1314.72 576.777C1315.94 576.344 1316.99 575.702 1317.87 574.851C1318.75 573.984 1319.43 572.908 1319.92 571.624L1325.41 573.165C1324.83 575.027 1323.86 576.665 1322.49 578.077C1321.13 579.474 1319.44 580.565 1317.44 581.352C1315.43 582.123 1313.17 582.508 1310.67 582.508Z" fill="#21B3FF"/>
<path d="M1360.83 553.035L1355.72 554.48C1355.4 553.629 1354.93 552.802 1354.3 552C1353.69 551.181 1352.86 550.507 1351.8 549.977C1350.74 549.447 1349.38 549.182 1347.73 549.182C1345.46 549.182 1343.58 549.704 1342.07 550.748C1340.58 551.775 1339.83 553.083 1339.83 554.673C1339.83 556.085 1340.34 557.201 1341.37 558.019C1342.4 558.838 1344 559.52 1346.19 560.066L1351.68 561.415C1354.98 562.217 1357.45 563.445 1359.07 565.099C1360.69 566.736 1361.5 568.847 1361.5 571.432C1361.5 573.55 1360.89 575.445 1359.67 577.114C1358.47 578.784 1356.78 580.1 1354.61 581.063C1352.45 582.026 1349.93 582.508 1347.05 582.508C1343.28 582.508 1340.16 581.689 1337.69 580.052C1335.21 578.414 1333.65 576.023 1332.99 572.876L1338.39 571.528C1338.9 573.518 1339.87 575.011 1341.3 576.007C1342.74 577.002 1344.63 577.499 1346.96 577.499C1349.61 577.499 1351.71 576.938 1353.27 575.814C1354.84 574.674 1355.63 573.31 1355.63 571.72C1355.63 570.436 1355.18 569.361 1354.28 568.494C1353.38 567.611 1352 566.953 1350.14 566.519L1343.97 565.075C1340.58 564.272 1338.1 563.028 1336.51 561.342C1334.93 559.641 1334.15 557.514 1334.15 554.961C1334.15 552.875 1334.73 551.029 1335.9 549.423C1337.09 547.818 1338.71 546.558 1340.74 545.643C1342.8 544.728 1345.13 544.27 1347.73 544.27C1351.39 544.27 1354.26 545.073 1356.35 546.678C1358.45 548.284 1359.94 550.402 1360.83 553.035Z" fill="#21B3FF"/>
<path d="M1396.25 553.035L1391.15 554.48C1390.83 553.629 1390.35 552.802 1389.73 552C1389.12 551.181 1388.28 550.507 1387.22 549.977C1386.16 549.447 1384.81 549.182 1383.15 549.182C1380.89 549.182 1379 549.704 1377.5 550.748C1376 551.775 1375.26 553.083 1375.26 554.673C1375.26 556.085 1375.77 557.201 1376.8 558.019C1377.82 558.838 1379.43 559.52 1381.61 560.066L1387.1 561.415C1390.41 562.217 1392.87 563.445 1394.5 565.099C1396.12 566.736 1396.93 568.847 1396.93 571.432C1396.93 573.55 1396.32 575.445 1395.1 577.114C1393.89 578.784 1392.21 580.1 1390.04 581.063C1387.87 582.026 1385.35 582.508 1382.48 582.508C1378.71 582.508 1375.59 581.689 1373.11 580.052C1370.64 578.414 1369.08 576.023 1368.42 572.876L1373.81 571.528C1374.33 573.518 1375.3 575.011 1376.72 576.007C1378.17 577.002 1380.06 577.499 1382.38 577.499C1385.03 577.499 1387.14 576.938 1388.69 575.814C1390.27 574.674 1391.05 573.31 1391.05 571.72C1391.05 570.436 1390.6 569.361 1389.7 568.494C1388.8 567.611 1387.42 566.953 1385.56 566.519L1379.4 565.075C1376.01 564.272 1373.52 563.028 1371.93 561.342C1370.36 559.641 1369.57 557.514 1369.57 554.961C1369.57 552.875 1370.16 551.029 1371.33 549.423C1372.52 547.818 1374.13 546.558 1376.17 545.643C1378.23 544.728 1380.55 544.27 1383.15 544.27C1386.81 544.27 1389.69 545.073 1391.77 546.678C1393.88 548.284 1395.37 550.402 1396.25 553.035Z" fill="#21B3FF"/>
<path d="M1424.55 595.607V544.752H1430.04V550.627H1430.72C1431.13 549.985 1431.71 549.166 1432.45 548.171C1433.2 547.16 1434.28 546.261 1435.68 545.474C1437.09 544.672 1439 544.27 1441.41 544.27C1444.52 544.27 1447.27 545.049 1449.64 546.606C1452.02 548.163 1453.87 550.37 1455.2 553.228C1456.54 556.085 1457.2 559.456 1457.2 563.341C1457.2 567.258 1456.54 570.653 1455.2 573.526C1453.87 576.384 1452.03 578.599 1449.67 580.172C1447.31 581.729 1444.59 582.508 1441.5 582.508C1439.13 582.508 1437.23 582.115 1435.8 581.328C1434.37 580.525 1433.27 579.618 1432.5 578.607C1431.73 577.58 1431.13 576.729 1430.72 576.055H1430.23V595.607H1424.55ZM1430.14 563.245C1430.14 566.038 1430.55 568.502 1431.37 570.637C1432.18 572.756 1433.38 574.417 1434.95 575.621C1436.53 576.809 1438.45 577.403 1440.73 577.403C1443.11 577.403 1445.09 576.777 1446.68 575.525C1448.29 574.257 1449.49 572.555 1450.29 570.42C1451.11 568.269 1451.52 565.877 1451.52 563.245C1451.52 560.644 1451.12 558.3 1450.32 556.214C1449.53 554.111 1448.33 552.449 1446.73 551.229C1445.14 549.993 1443.14 549.375 1440.73 549.375C1438.42 549.375 1436.48 549.961 1434.91 551.133C1433.33 552.289 1432.14 553.91 1431.34 555.997C1430.54 558.068 1430.14 560.484 1430.14 563.245Z" fill="#21B3FF"/>
<path d="M1465.87 581.737V544.752H1471.36V550.338H1471.75C1472.42 548.508 1473.64 547.023 1475.41 545.884C1477.17 544.744 1479.16 544.174 1481.38 544.174C1481.8 544.174 1482.32 544.182 1482.94 544.198C1483.57 544.214 1484.04 544.238 1484.36 544.27V550.049C1484.17 550.001 1483.73 549.929 1483.04 549.833C1482.37 549.72 1481.65 549.664 1480.9 549.664C1479.1 549.664 1477.49 550.041 1476.08 550.796C1474.68 551.534 1473.58 552.562 1472.76 553.878C1471.96 555.178 1471.55 556.663 1471.55 558.333V581.737H1465.87Z" fill="#21B3FF"/>
<path d="M1505 582.508C1501.66 582.508 1498.73 581.713 1496.21 580.124C1493.71 578.535 1491.75 576.312 1490.34 573.454C1488.94 570.597 1488.24 567.258 1488.24 563.437C1488.24 559.585 1488.94 556.222 1490.34 553.348C1491.75 550.475 1493.71 548.243 1496.21 546.654C1498.73 545.065 1501.66 544.27 1505 544.27C1508.34 544.27 1511.26 545.065 1513.76 546.654C1516.29 548.243 1518.24 550.475 1519.64 553.348C1521.05 556.222 1521.76 559.585 1521.76 563.437C1521.76 567.258 1521.05 570.597 1519.64 573.454C1518.24 576.312 1516.29 578.535 1513.76 580.124C1511.26 581.713 1508.34 582.508 1505 582.508ZM1505 577.403C1507.54 577.403 1509.62 576.753 1511.26 575.453C1512.9 574.152 1514.11 572.443 1514.9 570.324C1515.68 568.205 1516.08 565.909 1516.08 563.437C1516.08 560.965 1515.68 558.662 1514.9 556.527C1514.11 554.392 1512.9 552.666 1511.26 551.35C1509.62 550.033 1507.54 549.375 1505 549.375C1502.46 549.375 1500.38 550.033 1498.74 551.35C1497.1 552.666 1495.89 554.392 1495.1 556.527C1494.32 558.662 1493.92 560.965 1493.92 563.437C1493.92 565.909 1494.32 568.205 1495.1 570.324C1495.89 572.443 1497.1 574.152 1498.74 575.453C1500.38 576.753 1502.46 577.403 1505 577.403Z" fill="#21B3FF"/>
<path d="M1545.36 596.377C1542.62 596.377 1540.26 596.024 1538.28 595.318C1536.31 594.628 1534.66 593.713 1533.35 592.573C1532.05 591.449 1531.01 590.245 1530.24 588.961L1534.77 585.783C1535.28 586.457 1535.93 587.227 1536.72 588.094C1537.5 588.977 1538.58 589.74 1539.94 590.382C1541.33 591.04 1543.13 591.369 1545.36 591.369C1548.35 591.369 1550.81 590.647 1552.75 589.202C1554.7 587.757 1555.67 585.494 1555.67 582.412V574.899H1555.19C1554.77 575.573 1554.18 576.408 1553.4 577.403C1552.65 578.382 1551.56 579.257 1550.13 580.028C1548.72 580.782 1546.81 581.159 1544.4 581.159C1541.41 581.159 1538.73 580.453 1536.36 579.04C1534 577.628 1532.13 575.573 1530.75 572.876C1529.38 570.179 1528.7 566.905 1528.7 563.052C1528.7 559.264 1529.37 555.965 1530.7 553.156C1532.03 550.33 1533.88 548.147 1536.26 546.606C1538.64 545.049 1541.38 544.27 1544.5 544.27C1546.9 544.27 1548.81 544.672 1550.23 545.474C1551.66 546.261 1552.75 547.16 1553.5 548.171C1554.27 549.166 1554.87 549.985 1555.28 550.627H1555.86V544.752H1561.35V582.797C1561.35 585.975 1560.63 588.56 1559.18 590.55C1557.76 592.557 1555.83 594.026 1553.4 594.957C1551 595.904 1548.32 596.377 1545.36 596.377ZM1545.17 576.055C1547.45 576.055 1549.38 575.533 1550.95 574.49C1552.52 573.446 1553.72 571.945 1554.54 569.987C1555.36 568.028 1555.76 565.685 1555.76 562.956C1555.76 560.291 1555.36 557.939 1554.56 555.901C1553.76 553.862 1552.57 552.265 1551 551.109C1549.42 549.953 1547.48 549.375 1545.17 549.375C1542.76 549.375 1540.76 549.985 1539.15 551.205C1537.56 552.425 1536.36 554.063 1535.56 556.117C1534.78 558.172 1534.38 560.451 1534.38 562.956C1534.38 565.524 1534.78 567.796 1535.59 569.77C1536.41 571.728 1537.61 573.27 1539.2 574.393C1540.8 575.501 1542.79 576.055 1545.17 576.055Z" fill="#21B3FF"/>
<path d="M1571.75 581.737V544.752H1577.24V550.338H1577.63C1578.3 548.508 1579.52 547.023 1581.29 545.884C1583.05 544.744 1585.04 544.174 1587.26 544.174C1587.68 544.174 1588.2 544.182 1588.83 544.198C1589.45 544.214 1589.92 544.238 1590.25 544.27V550.049C1590.05 550.001 1589.61 549.929 1588.92 549.833C1588.25 549.72 1587.53 549.664 1586.78 549.664C1584.98 549.664 1583.38 550.041 1581.96 550.796C1580.57 551.534 1579.46 552.562 1578.64 553.878C1577.84 555.178 1577.44 556.663 1577.44 558.333V581.737H1571.75Z" fill="#21B3FF"/>
<path d="M1607.87 582.604C1605.52 582.604 1603.39 582.163 1601.48 581.28C1599.57 580.381 1598.06 579.089 1596.93 577.403C1595.81 575.702 1595.25 573.647 1595.25 571.239C1595.25 569.12 1595.67 567.402 1596.5 566.086C1597.34 564.754 1598.45 563.71 1599.85 562.956C1601.24 562.201 1602.78 561.639 1604.47 561.27C1606.17 560.885 1607.88 560.58 1609.6 560.355C1611.85 560.066 1613.67 559.849 1615.07 559.705C1616.48 559.544 1617.51 559.28 1618.15 558.91C1618.81 558.541 1619.13 557.899 1619.13 556.984V556.791C1619.13 554.416 1618.48 552.57 1617.18 551.253C1615.9 549.937 1613.95 549.279 1611.33 549.279C1608.62 549.279 1606.49 549.873 1604.95 551.061C1603.41 552.249 1602.33 553.517 1601.7 554.865L1596.31 552.939C1597.27 550.691 1598.56 548.942 1600.16 547.69C1601.78 546.421 1603.55 545.539 1605.46 545.041C1607.38 544.527 1609.28 544.27 1611.14 544.27C1612.33 544.27 1613.69 544.415 1615.23 544.704C1616.79 544.977 1618.29 545.547 1619.74 546.413C1621.2 547.28 1622.41 548.589 1623.37 550.338C1624.34 552.088 1624.82 554.432 1624.82 557.369V581.737H1619.13V576.729H1618.85C1618.46 577.532 1617.82 578.39 1616.92 579.305C1616.02 580.22 1614.82 580.999 1613.33 581.641C1611.84 582.283 1610.02 582.604 1607.87 582.604ZM1608.73 577.499C1610.98 577.499 1612.87 577.058 1614.42 576.175C1615.97 575.292 1617.14 574.152 1617.93 572.756C1618.73 571.359 1619.13 569.89 1619.13 568.349V563.148C1618.89 563.437 1618.36 563.702 1617.55 563.943C1616.74 564.168 1615.81 564.368 1614.75 564.545C1613.71 564.705 1612.69 564.85 1611.69 564.978C1610.71 565.091 1609.92 565.187 1609.31 565.267C1607.83 565.46 1606.45 565.773 1605.17 566.206C1603.9 566.624 1602.87 567.258 1602.09 568.109C1601.32 568.943 1600.93 570.083 1600.93 571.528C1600.93 573.502 1601.66 574.995 1603.12 576.007C1604.6 577.002 1606.47 577.499 1608.73 577.499Z" fill="#21B3FF"/>
<path d="M1635.19 581.737V544.752H1640.68V550.531H1641.16C1641.93 548.556 1643.18 547.023 1644.89 545.932C1646.61 544.824 1648.67 544.27 1651.08 544.27C1653.52 544.27 1655.55 544.824 1657.17 545.932C1658.81 547.023 1660.09 548.556 1661 550.531H1661.39C1662.33 548.621 1663.76 547.104 1665.65 545.98C1667.54 544.84 1669.81 544.27 1672.46 544.27C1675.77 544.27 1678.48 545.306 1680.58 547.377C1682.68 549.431 1683.73 552.634 1683.73 556.984V581.737H1678.05V556.984C1678.05 554.255 1677.3 552.305 1675.81 551.133C1674.32 549.961 1672.56 549.375 1670.54 549.375C1667.94 549.375 1665.92 550.162 1664.49 551.735C1663.06 553.292 1662.35 555.266 1662.35 557.658V581.737H1656.57V556.406C1656.57 554.303 1655.89 552.61 1654.52 551.326C1653.16 550.025 1651.4 549.375 1649.25 549.375C1647.77 549.375 1646.39 549.768 1645.11 550.555C1643.84 551.342 1642.81 552.433 1642.03 553.83C1641.26 555.21 1640.87 556.808 1640.87 558.621V581.737H1635.19Z" fill="#21B3FF"/>
<path fill-rule="evenodd" clip-rule="evenodd" d="M857.004 15.5396C859.727 15.5396 866.531 11.1871 872.247 6.01859C884.766 -5.67858 892.932 -5.95062 908.175 4.93049C919.606 13.0913 920.152 13.3633 927.5 9.0109C931.583 6.56265 937.842 4.65845 941.382 4.65845C949.002 4.65845 966.421 21.2521 970.504 32.4053C972.682 37.8459 975.132 40.022 980.031 40.022C983.569 40.022 989.284 42.4702 992.824 45.1906C998.811 50.0871 999.356 52.5354 999.356 73.7535V97.1477H1007.25C1017.05 97.1477 1027.94 106.669 1027.94 115.374C1027.94 118.91 1026.03 125.983 1023.85 131.423C1020.04 140.672 1020.04 140.944 1028.75 148.561C1035.83 155.09 1037.46 158.354 1037.19 167.603C1036.92 173.588 1034.47 182.564 1031.74 187.461C1027.39 195.078 1026.85 200.518 1027.94 225.272L1029.3 253.835L1080.74 325.924C1089.5 338.13 1097.79 349.712 1105.08 359.893C1121.34 382.613 1132.62 398.365 1133 398.555C1136.81 403.451 1187.43 358.293 1213.02 327.011L1222 316.131L1211.66 335.172C1166.75 419.228 1078.56 485.06 983.026 505.733C946.553 513.622 865.986 515.526 833.324 509.269C792.77 501.653 742.144 479.89 699.956 452.143C676.276 436.366 637.626 399.098 618.301 373.256C607.141 358.567 587 323.475 587 319.121C587 318.034 597.615 329.459 610.408 344.693C623.2 359.654 635.176 371.895 637.082 371.895C641.709 371.895 731.256 261.18 731.256 255.74C731.256 253.292 726.357 246.219 720.369 239.69C704.038 222.008 704.038 218.472 719.281 173.316C730.984 138.496 733.434 133.871 739.422 132.511C745.682 131.151 746.227 129.247 747.587 114.558C748.676 100.412 750.581 95.7877 760.924 82.1863C777.527 60.1521 781.882 56.3436 790.047 56.3436C795.22 56.3436 800.391 52.8073 808.011 44.1024C816.722 34.0374 820.533 31.8612 828.153 31.8612C834.957 31.8612 839.313 29.6851 844.756 23.7003C848.567 19.076 854.283 15.5396 857.004 15.5396ZM905.454 31.8612C912.529 31.8612 914.436 23.7003 908.991 17.7158C906.27 14.7235 902.188 11.1871 900.009 10.099C894.839 7.37873 886.4 11.7312 886.4 16.8997C886.4 21.7962 899.464 31.8612 905.454 31.8612ZM953.085 52.5354C960.434 39.75 961.795 29.957 956.623 22.8843C952.813 17.9878 942.198 15.2675 934.576 17.4438C931.038 18.2599 930.493 20.436 931.583 25.3325C932.943 30.5012 930.767 35.9416 923.144 46.8228C911.169 64.2325 911.17 73.4813 922.601 74.8416C932.4 75.9296 944.374 67.2249 953.085 52.5354ZM898.921 53.0793C904.637 47.3667 901.642 42.7424 886.4 32.4053C872.792 23.7003 863.536 21.5243 860.544 26.4207C857.549 31.3172 864.081 38.662 879.596 47.9108C893.205 56.0717 895.382 56.6158 898.921 53.0793ZM916.34 87.6269C916.34 83.2743 900.826 70.4892 872.247 51.1752C860.815 43.5585 848.022 37.3018 844.213 37.3018C840.402 37.3018 833.053 41.1102 827.337 46.2787C821.621 51.4471 805.29 63.9605 791.137 74.0255C776.983 84.3626 763.918 94.6995 762.013 96.8758C759.836 99.8681 758.747 113.469 758.475 138.496V175.492L773.989 189.365C791.68 205.143 798.486 206.502 810.189 195.622C827.882 180.116 822.983 156.178 795.22 120.542C778.888 99.324 779.161 89.531 795.763 102.588C803.385 108.573 820.533 109.933 829.241 105.309C834.957 102.316 840.13 88.9869 840.13 76.4737C840.13 63.4164 843.939 63.1444 852.105 75.6576C860.27 87.8989 881.774 99.8681 895.927 99.8681C905.454 99.8681 916.34 93.3395 916.34 87.6269ZM987.38 87.6269C994.184 77.0178 993.912 64.2325 987.108 56.8877C979.759 48.9989 971.32 49.271 968.328 57.1597C966.966 60.424 956.623 74.5696 945.191 88.715C933.759 102.588 923.689 117.006 922.873 120.542C920.695 129.247 925.867 135.232 935.937 135.232C942.47 135.232 947.914 131.423 963.155 115.374C973.499 104.765 984.385 91.9793 987.38 87.6269ZM897.288 122.718C887.216 121.63 880.957 115.646 880.957 107.485C880.957 103.676 878.779 102.588 869.797 102.588C859.999 102.588 856.732 104.492 843.396 117.278L828.153 131.967L835.502 149.921C845.029 173.587 845.029 187.189 834.957 204.599C822.983 225.272 808.011 241.322 800.936 241.322C791.409 241.322 782.155 232.617 772.628 214.663C764.463 199.702 756.025 192.357 745.954 192.357C742.688 192.357 742.144 188.549 743.777 167.603C746.499 133.328 741.872 136.048 726.357 178.212C719.65 196.251 715.729 205.388 717.043 213.698C718.662 223.936 728.225 232.919 750.309 255.74C774.806 281.31 782.155 287.023 802.295 297.087C827.882 310.145 848.838 316.402 878.779 320.211C896.743 322.386 898.921 323.475 910.624 334.9C917.428 341.7 942.198 373.528 965.333 405.355C1002.89 456.497 1008.34 463.025 1014.33 461.936C1034.47 459.216 1115.31 419.228 1121.56 409.164C1123.47 406.171 1113.4 390.121 1083.19 347.142C1021.13 258.731 1017.05 252.203 1017.05 241.322C1017.05 236.154 1016.23 225.272 1015.41 217.385C1013.78 205.959 1012.69 203.238 1008.34 203.238C999.899 203.238 987.651 195.622 982.752 187.189C979.214 180.932 975.132 178.484 966.966 177.124C951.997 174.676 947.098 171.955 942.198 162.434C939.204 156.722 935.937 154.273 931.31 154.273C922.056 154.273 910.896 143.664 908.72 132.783C907.087 124.623 905.454 123.535 897.288 122.718ZM980.847 158.354C1007.79 140.672 1023.85 120.27 1017.32 112.381C1015.14 109.933 1012.15 108.029 1010.51 108.029C998.811 108.029 959.889 140.672 959.889 150.465C959.889 160.53 971.049 164.611 980.847 158.354ZM1030.66 168.963C1030.66 166.787 1028.21 162.706 1025.21 159.714C1018.41 152.913 1016.78 152.913 1007.79 159.986C995.817 169.507 999.356 186.917 1013.24 186.917C1019.5 186.917 1030.66 175.492 1030.66 168.963ZM765.007 298.448C759.563 292.464 753.303 285.119 751.126 282.126C745.682 274.237 737.517 275.326 731.801 284.846C730.781 286.658 729.101 289.602 727.134 293.048C724.375 297.881 721.051 303.704 718.192 308.786C713.292 317.489 697.506 339.252 683.353 356.935C661.578 384.137 658.312 389.578 661.034 393.114C672.193 406.716 754.936 452.688 775.35 456.768C780.794 457.855 805.29 420.86 825.159 381.688C836.047 360.199 837.952 354.758 836.319 346.326C832.508 327.011 809.101 309.328 786.237 309.328C776.711 309.328 773.717 307.696 765.007 298.448ZM952.813 414.06C931.31 385.498 910.624 359.654 907.358 356.119C900.554 349.317 885.312 346.326 876.875 349.861C867.076 354.213 854.828 369.719 826.52 413.516C811.277 437.453 798.213 458.4 797.67 460.304C796.037 464.657 798.758 465.474 831.965 471.729C874.968 479.347 971.049 476.899 989.013 467.377C991.191 466.29 978.398 447.52 952.813 414.06Z" fill="#FE4E25"/>
</g>
</g>
<defs>
<clipPath id="clip0_842_8953">
<rect width="1689" height="891" fill="white"/>
</clipPath>
</defs>
</svg>
