<svg width="312" height="254" viewBox="0 0 312 254" fill="none" xmlns="http://www.w3.org/2000/svg">
<g clip-path="url(#clip0_2_39)">
<path d="M140.4 4.66665C137.6 7.19998 134.267 9.33332 132.933 9.33332C131.6 9.33332 128.8 11.0667 126.933 13.3333C124.267 16.2667 122.133 17.3333 118.8 17.3333C115.067 17.3333 113.2 18.4 108.933 23.3333C105.2 27.6 102.667 29.3333 100.133 29.3333C96.1333 29.3333 94 31.2 85.8667 42C80.8 48.6667 79.8667 50.9333 79.3333 57.8667C78.6667 65.0667 78.4 66 75.3333 66.6667C72.4 67.3333 71.2 69.6 65.4667 86.6667C58 108.8 58 110.533 66 119.2C68.9333 122.4 71.3333 125.867 71.3333 127.067C71.3333 129.733 27.4667 184 25.2 184C24.2667 184 18.4 178 12.1333 170.667C5.86663 163.2 0.666626 157.6 0.666626 158.133C0.666626 160.267 10.5333 177.467 16 184.667C25.4667 197.333 44.4 215.6 56 223.333C76.6667 236.933 101.467 247.6 121.333 251.333C137.333 254.4 176.8 253.467 194.667 249.6C241.467 239.467 284.667 207.2 306.667 166L311.733 156.667L307.333 162C294.8 177.333 270 199.467 268.133 197.067C267.867 196.933 256.4 180.8 242.533 161.467L217.333 126.133L216.667 112.133C216.133 100 216.4 97.3333 218.533 93.6C219.867 91.2 221.067 86.8 221.2 83.8667C221.333 79.3333 220.533 77.7333 217.067 74.5333C212.8 70.8 212.8 70.6667 214.667 66.1333C215.733 63.4667 216.667 60 216.667 58.2667C216.667 54 211.333 49.3333 206.533 49.3333H202.667V37.8667C202.667 27.4667 202.4 26.2667 199.467 23.8667C197.733 22.5333 194.933 21.3333 193.2 21.3333C190.8 21.3333 189.6 20.2667 188.533 17.6C186.533 12.1333 178 3.99998 174.267 3.99998C172.533 3.99998 169.467 4.93332 167.467 6.13332C163.867 8.26665 163.6 8.13332 158 4.13332C150.533 -1.20002 146.533 -1.06668 140.4 4.66665ZM158.4 10.4C161.067 13.3333 160.133 17.3333 156.667 17.3333C153.733 17.3333 147.333 12.4 147.333 9.99997C147.333 7.46665 151.467 5.33332 154 6.66665C155.067 7.19998 157.067 8.93332 158.4 10.4ZM181.733 12.9333C184.267 16.4 183.6 21.2 180 27.4667C175.733 34.6667 169.867 38.9333 165.067 38.4C159.467 37.7333 159.467 33.2 165.333 24.6667C169.067 19.3333 170.133 16.6667 169.467 14.1333C168.933 11.7333 169.2 10.6667 170.933 10.2667C174.667 9.19998 179.867 10.5333 181.733 12.9333ZM147.333 17.6C154.8 22.6667 156.267 24.9333 153.467 27.7333C151.733 29.4667 150.667 29.2 144 25.2C136.4 20.6667 133.2 17.0667 134.667 14.6667C136.133 12.2667 140.667 13.3333 147.333 17.6ZM140.4 26.8C154.4 36.2667 162 42.5333 162 44.6667C162 47.4667 156.667 50.6667 152 50.6667C145.067 50.6667 134.533 44.8 130.533 38.8C126.533 32.6667 124.667 32.8 124.667 39.2C124.667 45.3333 122.133 51.8667 119.333 53.3333C115.067 55.6 106.667 54.9333 102.933 52C94.8 45.6 94.6667 50.4 102.667 60.8C116.267 78.2667 118.667 90 110 97.6C104.267 102.933 100.933 102.267 92.2667 94.5333L84.6667 87.7333V69.6C84.8 57.3333 85.3333 50.6667 86.4 49.2C87.3333 48.1333 93.7333 43.0667 100.667 38C107.6 33.0667 115.6 26.9333 118.4 24.4C121.2 21.8667 124.8 20 126.667 20C128.533 20 134.8 23.0667 140.4 26.8ZM196.667 29.6C200 33.2 200.133 39.4667 196.8 44.6667C195.333 46.8 190 53.0667 184.933 58.2667C177.467 66.1333 174.8 68 171.6 68C166.667 68 164.133 65.0667 165.2 60.8C165.6 59.0667 170.533 52 176.133 45.2C181.733 38.2667 186.8 31.3333 187.467 29.7333C188.933 25.8667 193.067 25.7333 196.667 29.6ZM144.667 54.4C144.667 58.4 147.733 61.3333 152.667 61.8667C156.667 62.2667 157.467 62.8 158.267 66.8C159.333 72.1333 164.8 77.3333 169.333 77.3333C171.6 77.3333 173.2 78.5333 174.667 81.3333C177.067 86 179.467 87.3333 186.8 88.5333C190.8 89.2 192.8 90.4 194.533 93.4667C196.933 97.6 202.933 101.333 207.067 101.333C209.2 101.333 209.733 102.667 210.533 108.267C210.933 112.133 211.333 117.467 211.333 120C211.333 125.333 213.333 128.533 243.733 171.867C258.533 192.933 263.467 200.8 262.533 202.267C259.467 207.2 219.867 226.8 210 228.133C207.067 228.667 204.4 225.467 186 200.4C174.667 184.8 162.533 169.2 159.2 165.867C153.467 160.267 152.4 159.733 143.6 158.667C128.933 156.8 118.667 153.733 106.133 147.333C96.2667 142.4 92.6667 139.6 80.6667 127.067C61.0667 106.8 61.6 108.8 68.9333 89.0667C76.5333 68.4 78.8 67.0667 77.4667 83.8667C76.6667 94.1333 76.9333 96 78.5333 96C83.4667 96 87.6 99.6 91.6 106.933C96.2667 115.733 100.8 120 105.467 120C108.933 120 116.267 112.133 122.133 102C127.067 93.4667 127.067 86.8 122.4 75.2L118.8 66.4L126.267 59.2C132.8 52.9333 134.4 52 139.2 52C143.6 52 144.667 52.5333 144.667 54.4ZM211.467 56.8C214.667 60.6667 206.8 70.6667 193.6 79.3333C188.8 82.4 183.333 80.4 183.333 75.4667C183.333 70.6667 202.4 54.6667 208.133 54.6667C208.933 54.6667 210.4 55.6 211.467 56.8ZM215.333 80C216.8 81.4667 218 83.4667 218 84.5333C218 87.7333 212.533 93.3333 209.467 93.3333C202.667 93.3333 200.933 84.8 206.8 80.1333C211.2 76.6667 212 76.6667 215.333 80ZM81.0667 140C82.1333 141.467 85.2 145.067 87.8667 148C92.1333 152.533 93.6 153.333 98.2667 153.333C109.467 153.333 120.933 162 122.8 171.467C123.6 175.6 122.667 178.267 117.333 188.8C107.6 208 95.6 226.133 92.9333 225.6C82.9333 223.6 42.4 201.067 36.9333 194.4C35.6 192.667 37.2 190 47.8667 176.667C54.8 168 62.5333 157.333 64.9333 153.067C67.3333 148.8 70.4 143.467 71.6 141.333C74.4 136.667 78.4 136.133 81.0667 140ZM157.6 176.267C159.2 178 169.333 190.667 179.867 204.667C192.4 221.067 198.667 230.267 197.6 230.8C188.8 235.467 141.733 236.667 120.667 232.933C104.4 229.867 103.067 229.467 103.867 227.333C104.133 226.4 110.533 216.133 118 204.4C131.867 182.933 137.867 175.333 142.667 173.2C146.8 171.467 154.267 172.933 157.6 176.267Z" fill="url(#paint0_linear_2_39)"/>
</g>
<defs>
<linearGradient id="paint0_linear_2_39" x1="312" y1="99.5" x2="0.999995" y2="99.5" gradientUnits="userSpaceOnUse">
<stop stop-color="#F54C85"/>
<stop offset="1" stop-color="#F5460B"/>
</linearGradient>
<clipPath id="clip0_2_39">
<rect width="312" height="254" fill="white"/>
</clipPath>
</defs>
</svg>
