<svg width="1053" height="254" viewBox="0 0 1053 254" fill="none" xmlns="http://www.w3.org/2000/svg">
<path fill-rule="evenodd" clip-rule="evenodd" d="M132.932 9.33344C134.266 9.33344 137.599 7.2001 140.399 4.66677C146.532 -1.06656 150.532 -1.1999 157.999 4.13344C163.599 8.13344 163.866 8.26677 167.466 6.13344C169.466 4.93344 172.532 4.0001 174.266 4.0001C177.999 4.0001 186.532 12.1334 188.532 17.6001C189.599 20.2668 190.799 21.3334 193.199 21.3334C194.932 21.3334 197.732 22.5334 199.466 23.8668C202.399 26.2668 202.666 27.4668 202.666 37.8668V49.3334H206.532C211.332 49.3334 216.666 54.0001 216.666 58.2668C216.666 60.0001 215.732 63.4668 214.666 66.1334C212.799 70.6668 212.799 70.8001 217.066 74.5334C220.532 77.7334 221.332 79.3334 221.199 83.8668C221.066 86.8001 219.866 91.2001 218.532 93.6001C216.399 97.3334 216.132 100 216.666 112.133L217.332 126.133L242.532 161.467C246.823 167.45 250.885 173.127 254.456 178.117C262.424 189.253 267.948 196.974 268.132 197.067C269.999 199.467 294.799 177.333 307.332 162L311.732 156.667L306.666 166C284.666 207.2 241.466 239.467 194.666 249.6C176.799 253.467 137.332 254.4 121.332 251.333C101.466 247.6 76.6661 236.933 55.9994 223.333C44.3994 215.6 25.4661 197.333 15.9994 184.667C10.5327 177.467 0.666016 160.267 0.666016 158.133C0.666016 157.6 5.86602 163.2 12.1327 170.667C18.3994 178 24.2661 184 25.1994 184C27.4661 184 71.3327 129.733 71.3327 127.067C71.3327 125.867 68.9327 122.4 65.9994 119.2C57.9994 110.533 57.9994 108.8 65.4661 86.6668C71.1994 69.6001 72.3994 67.3334 75.3327 66.6668C78.3994 66.0001 78.6661 65.0668 79.3327 57.8668C79.8661 50.9334 80.7994 48.6668 85.8661 42.0001C93.9994 31.2001 96.1327 29.3334 100.132 29.3334C102.666 29.3334 105.199 27.6001 108.932 23.3334C113.199 18.4001 115.066 17.3334 118.799 17.3334C122.132 17.3334 124.266 16.2668 126.932 13.3334C128.799 11.0668 131.599 9.33344 132.932 9.33344ZM156.666 17.3334C160.132 17.3334 161.066 13.3334 158.399 10.4001C157.066 8.93344 155.066 7.2001 153.999 6.66677C151.466 5.33344 147.332 7.46677 147.332 10.0001C147.332 12.4001 153.732 17.3334 156.666 17.3334ZM179.999 27.4668C183.599 21.2001 184.266 16.4001 181.732 12.9334C179.866 10.5334 174.666 9.2001 170.932 10.2668C169.199 10.6668 168.932 11.7334 169.466 14.1334C170.132 16.6668 169.066 19.3334 165.332 24.6668C159.466 33.2001 159.466 37.7334 165.066 38.4001C169.866 38.9334 175.732 34.6668 179.999 27.4668ZM153.466 27.7334C156.266 24.9334 154.799 22.6668 147.332 17.6001C140.666 13.3334 136.132 12.2668 134.666 14.6668C133.199 17.0668 136.399 20.6668 143.999 25.2001C150.666 29.2001 151.732 29.4668 153.466 27.7334ZM161.999 44.6668C161.999 42.5334 154.399 36.2668 140.399 26.8001C134.799 23.0668 128.532 20.0001 126.666 20.0001C124.799 20.0001 121.199 21.8668 118.399 24.4001C115.599 26.9334 107.599 33.0668 100.666 38.0001C93.7327 43.0668 87.3327 48.1334 86.3994 49.2001C85.3327 50.6668 84.7994 57.3334 84.6661 69.6001V87.7334L92.2661 94.5334C100.932 102.267 104.266 102.933 109.999 97.6001C118.666 90.0001 116.266 78.2668 102.666 60.8001C94.6661 50.4001 94.7994 45.6001 102.932 52.0001C106.666 54.9334 115.066 55.6001 119.332 53.3334C122.132 51.8668 124.666 45.3334 124.666 39.2001C124.666 32.8001 126.532 32.6668 130.532 38.8001C134.532 44.8001 145.066 50.6668 151.999 50.6668C156.666 50.6668 161.999 47.4668 161.999 44.6668ZM196.799 44.6668C200.132 39.4668 199.999 33.2001 196.666 29.6001C193.066 25.7334 188.932 25.8668 187.466 29.7334C186.799 31.3334 181.732 38.2668 176.132 45.2001C170.532 52.0001 165.599 59.0668 165.199 60.8001C164.132 65.0668 166.666 68.0001 171.599 68.0001C174.799 68.0001 177.466 66.1334 184.932 58.2668C189.999 53.0668 195.332 46.8001 196.799 44.6668ZM152.666 61.8668C147.732 61.3334 144.666 58.4001 144.666 54.4001C144.666 52.5334 143.599 52.0001 139.199 52.0001C134.399 52.0001 132.799 52.9334 126.266 59.2001L118.799 66.4001L122.399 75.2001C127.066 86.8001 127.066 93.4668 122.132 102C116.266 112.133 108.932 120 105.466 120C100.799 120 96.2661 115.733 91.5994 106.933C87.5994 99.6001 83.4661 96.0001 78.5327 96.0001C76.9327 96.0001 76.6661 94.1334 77.4661 83.8668C78.7994 67.0668 76.5327 68.4001 68.9327 89.0668C65.647 97.9083 63.7264 102.387 64.3702 106.46C65.1632 111.478 69.8479 115.881 80.6661 127.067C92.6661 139.6 96.2661 142.4 106.132 147.333C118.666 153.733 128.932 156.8 143.599 158.667C152.399 159.733 153.466 160.267 159.199 165.867C162.532 169.2 174.666 184.8 185.999 200.4C204.399 225.467 207.066 228.667 209.999 228.133C219.866 226.8 259.466 207.2 262.532 202.267C263.466 200.8 258.532 192.933 243.732 171.867C213.332 128.533 211.332 125.333 211.332 120C211.332 117.467 210.932 112.133 210.532 108.267C209.732 102.667 209.199 101.333 207.066 101.333C202.932 101.333 196.932 97.6001 194.532 93.4668C192.799 90.4001 190.799 89.2001 186.799 88.5334C179.466 87.3334 177.066 86.0001 174.666 81.3334C173.199 78.5334 171.599 77.3334 169.332 77.3334C164.799 77.3334 159.332 72.1334 158.266 66.8001C157.466 62.8001 156.666 62.2668 152.666 61.8668ZM193.599 79.3334C206.799 70.6668 214.666 60.6668 211.466 56.8001C210.399 55.6001 208.932 54.6668 208.132 54.6668C202.399 54.6668 183.332 70.6668 183.332 75.4668C183.332 80.4001 188.799 82.4001 193.599 79.3334ZM217.999 84.5334C217.999 83.4668 216.799 81.4668 215.332 80.0001C211.999 76.6668 211.199 76.6668 206.799 80.1334C200.932 84.8001 202.666 93.3334 209.466 93.3334C212.532 93.3334 217.999 87.7334 217.999 84.5334ZM87.8661 148C85.1994 145.067 82.1327 141.467 81.0661 140C78.3994 136.133 74.3994 136.667 71.5994 141.333C71.0999 142.221 70.2769 143.664 69.3132 145.353C67.9618 147.722 66.3336 150.576 64.9327 153.067C62.5327 157.333 54.7994 168 47.8661 176.667C37.1994 190 35.5994 192.667 36.9327 194.4C42.3994 201.067 82.9327 223.6 92.9327 225.6C95.5994 226.133 107.599 208 117.332 188.8C122.666 178.267 123.599 175.6 122.799 171.467C120.932 162 109.466 153.333 98.2661 153.333C93.5994 153.333 92.1327 152.533 87.8661 148ZM179.866 204.667C169.332 190.667 159.199 178 157.599 176.267C154.266 172.933 146.799 171.467 142.666 173.2C137.866 175.333 131.866 182.933 117.999 204.4C110.532 216.133 104.132 226.4 103.866 227.333C103.066 229.467 104.399 229.867 120.666 232.933C141.732 236.667 188.799 235.467 197.599 230.8C198.666 230.267 192.399 221.067 179.866 204.667Z" fill="#FE4E25"/>
<path d="M814.514 69.3367V48.6465H816.888V56.2842H817.089C817.264 56.0149 817.507 55.6712 817.816 55.2538C818.13 54.8296 818.581 54.4524 819.162 54.1222C819.756 53.7857 820.554 53.6171 821.557 53.6171C822.861 53.6171 824.007 53.9439 825.002 54.5972C825.996 55.2504 826.77 56.1764 827.326 57.3755C827.882 58.5742 828.162 59.9885 828.162 61.6185C828.162 63.2619 827.882 64.6863 827.326 65.8917C826.77 67.0908 825.996 68.0201 825.01 68.6801C824.023 69.3334 822.886 69.6602 821.599 69.6602C820.604 69.6602 819.81 69.4953 819.212 69.1651C818.619 68.8282 818.159 68.4477 817.833 68.0235C817.511 67.5926 817.264 67.2356 817.089 66.9528H816.809V69.3367H814.514ZM816.851 61.5782C816.851 62.75 817.018 63.7839 817.361 64.6796C817.703 65.5687 818.205 66.2655 818.861 66.7707C819.517 67.2691 820.324 67.5184 821.277 67.5184C822.272 67.5184 823.1 67.2557 823.764 66.7304C824.433 66.1984 824.939 65.4843 825.273 64.5886C825.616 63.6861 825.787 62.6825 825.787 61.5782C825.787 60.4869 825.62 59.5035 825.282 58.6283C824.956 57.7459 824.454 57.0486 823.785 56.5368C823.121 56.0182 822.285 55.7589 821.277 55.7589C820.312 55.7589 819.501 56.0048 818.84 56.4965C818.184 56.9815 817.687 57.6616 817.352 58.5372C817.018 59.4062 816.851 60.4198 816.851 61.5782Z" fill="#21B3FF"/>
<path d="M841.537 62.9926V53.8193H843.911V69.3367H841.537V66.7103H841.378C841.014 67.4982 840.45 68.1682 839.685 68.7208C838.92 69.2662 837.954 69.5389 836.788 69.5389C835.818 69.5389 834.961 69.3267 834.209 68.9025C833.457 68.4716 832.867 67.825 832.437 66.9628C832.01 66.0939 831.793 64.9993 831.793 63.6794V53.8193H834.171V63.5178C834.171 64.6494 834.485 65.5519 835.116 66.2253C835.752 66.8987 836.567 67.2356 837.553 67.2356C838.142 67.2356 838.744 67.0841 839.355 66.7808C839.969 66.4778 840.487 66.013 840.901 65.3866C841.328 64.7606 841.537 63.9622 841.537 62.9926Z" fill="#21B3FF"/>
<path d="M859.213 57.2946L857.081 57.9009C856.943 57.5438 856.747 57.1968 856.483 56.8604C856.228 56.5167 855.881 56.234 855.438 56.0116C854.995 55.7892 854.427 55.678 853.737 55.678C852.792 55.678 852.002 55.897 851.371 56.3351C850.748 56.766 850.435 57.3147 850.435 57.9818C850.435 58.5743 850.652 59.0425 851.079 59.3857C851.509 59.7293 852.182 60.0154 853.093 60.2445L855.388 60.8105C856.772 61.147 857.8 61.6622 858.477 62.3562C859.154 63.043 859.493 63.9287 859.493 65.0133C859.493 65.9019 859.238 66.697 858.728 67.3972C858.226 68.0979 857.52 68.65 856.617 69.054C855.71 69.4581 854.657 69.6603 853.457 69.6603C851.877 69.6603 850.573 69.3167 849.54 68.6299C848.508 67.9426 847.852 66.9394 847.576 65.6191L849.833 65.0535C850.046 65.8885 850.452 66.5149 851.049 66.9327C851.655 67.3502 852.441 67.5587 853.415 67.5587C854.523 67.5587 855.401 67.3234 856.053 66.8518C856.709 66.3735 857.039 65.8012 857.039 65.1341C857.039 64.5954 856.851 64.1444 856.475 63.7806C856.099 63.4101 855.522 63.134 854.744 62.9519L852.165 62.3461C850.752 62.0092 849.712 61.4873 849.047 60.7799C848.391 60.0662 848.061 59.1738 848.061 58.1027C848.061 57.2275 848.307 56.453 848.796 55.7791C849.294 55.1058 849.967 54.5771 850.819 54.1932C851.676 53.8093 852.65 53.6172 853.737 53.6172C855.267 53.6172 856.467 53.9541 857.34 54.6275C858.218 55.3013 858.845 56.1899 859.213 57.2946Z" fill="#21B3FF"/>
<path d="M863.073 69.3367V53.8193H865.447V69.3367H863.073ZM864.281 51.2331C863.817 51.2331 863.416 51.0745 863.081 50.7582C862.755 50.4418 862.588 50.0613 862.588 49.6166C862.588 49.1722 862.755 48.7917 863.081 48.4749C863.416 48.1586 863.817 48 864.281 48C864.745 48 865.138 48.1586 865.468 48.4749C865.802 48.7917 865.97 49.1722 865.97 49.6166C865.97 50.0613 865.802 50.4418 865.468 50.7582C865.138 51.0745 864.745 51.2331 864.281 51.2331Z" fill="#21B3FF"/>
<path d="M872.173 60.002V69.3368H869.799V53.8194H872.093V56.244H872.294C872.658 55.4561 873.205 54.823 873.945 54.3447C874.685 53.8597 875.634 53.6172 876.804 53.6172C877.849 53.6172 878.765 53.8328 879.55 54.2637C880.336 54.6883 880.947 55.3348 881.381 56.2037C881.82 57.0655 882.038 58.1568 882.038 59.4767V69.3368H879.663V59.6383C879.663 58.4194 879.346 57.4696 878.714 56.7895C878.083 56.1026 877.218 55.759 876.119 55.759C875.362 55.759 874.685 55.9239 874.087 56.2541C873.494 56.5843 873.03 57.0655 872.687 57.6986C872.344 58.3318 872.173 59.0995 872.173 60.002Z" fill="#21B3FF"/>
<path d="M892.859 69.6603C891.37 69.6603 890.083 69.3301 889.005 68.6701C887.93 68.0035 887.103 67.0741 886.517 65.8817C885.941 64.6831 885.652 63.2889 885.652 61.6996C885.652 60.1099 885.941 58.709 886.517 57.4968C887.103 56.2776 887.914 55.3281 888.954 54.6476C889.999 53.9608 891.22 53.6172 892.616 53.6172C893.423 53.6172 894.217 53.7518 895.003 54.0216C895.789 54.291 896.503 54.7286 897.147 55.3348C897.791 55.934 898.305 56.729 898.685 57.7188C899.07 58.709 899.258 59.9282 899.258 61.3761V62.3864H887.341V60.3255H896.846C896.846 59.4499 896.671 58.6687 896.32 57.9818C895.977 57.2946 895.488 56.7525 894.852 56.3552C894.221 55.9579 893.477 55.759 892.616 55.759C891.671 55.759 890.852 55.9948 890.162 56.4664C889.477 56.9308 888.95 57.5371 888.582 58.2848C888.21 59.0324 888.026 59.8338 888.026 60.6893V62.0629C888.026 63.2352 888.227 64.2283 888.633 65.0435C889.042 65.8515 889.606 66.4679 890.334 66.892C891.057 67.3095 891.897 67.5185 892.859 67.5185C893.481 67.5185 894.046 67.4308 894.551 67.2558C895.061 67.0741 895.5 66.8048 895.868 66.4477C896.236 66.084 896.52 65.6325 896.725 65.0938L899.02 65.7403C898.777 66.5216 898.372 67.2088 897.799 67.8012C897.231 68.3874 896.524 68.8451 895.688 69.1753C894.848 69.4988 893.904 69.6603 892.859 69.6603Z" fill="#21B3FF"/>
<path d="M913.825 57.2946L911.689 57.9009C911.556 57.5438 911.359 57.1968 911.096 56.8604C910.841 56.5167 910.494 56.234 910.051 56.0116C909.608 55.7892 909.038 55.678 908.349 55.678C907.4 55.678 906.615 55.897 905.984 56.3351C905.361 56.766 905.047 57.3147 905.047 57.9818C905.047 58.5743 905.26 59.0425 905.69 59.3857C906.121 59.7293 906.79 60.0154 907.706 60.2445L910 60.8105C911.379 61.147 912.412 61.6622 913.09 62.3562C913.767 63.043 914.104 63.9287 914.104 65.0133C914.104 65.9019 913.85 66.697 913.34 67.3972C912.839 68.0979 912.131 68.65 911.224 69.054C910.321 69.4581 909.269 69.6603 908.065 69.6603C906.489 69.6603 905.185 69.3167 904.153 68.6299C903.116 67.9426 902.463 66.9394 902.188 65.6191L904.445 65.0535C904.659 65.8885 905.063 66.5149 905.661 66.9327C906.263 67.3502 907.054 67.5587 908.028 67.5587C909.135 67.5587 910.012 67.3234 910.664 66.8518C911.321 66.3735 911.651 65.8012 911.651 65.1341C911.651 64.5954 911.463 64.1444 911.086 63.7806C910.71 63.4101 910.134 63.134 909.357 62.9519L906.778 62.3461C905.361 62.0092 904.323 61.4873 903.659 60.7799C902.998 60.0662 902.672 59.1738 902.672 58.1027C902.672 57.2275 902.916 56.453 903.405 55.7791C903.902 55.1058 904.578 54.5771 905.427 54.1932C906.288 53.8093 907.262 53.6172 908.349 53.6172C909.878 53.6172 911.079 53.9541 911.953 54.6275C912.83 55.3013 913.453 56.1899 913.825 57.2946Z" fill="#21B3FF"/>
<path d="M928.631 57.2946L926.499 57.9009C926.365 57.5438 926.165 57.1968 925.905 56.8604C925.651 56.5167 925.299 56.234 924.856 56.0116C924.413 55.7892 923.849 55.678 923.155 55.678C922.21 55.678 921.42 55.897 920.793 56.3351C920.166 56.766 919.857 57.3147 919.857 57.9818C919.857 58.5743 920.07 59.0425 920.501 59.3857C920.927 59.7293 921.6 60.0154 922.511 60.2445L924.806 60.8105C926.19 61.147 927.218 61.6622 927.899 62.3562C928.577 63.043 928.915 63.9287 928.915 65.0133C928.915 65.9019 928.66 66.697 928.15 67.3972C927.644 68.0979 926.942 68.65 926.035 69.054C925.128 69.4581 924.075 69.6603 922.875 69.6603C921.299 69.6603 919.995 69.3167 918.958 68.6299C917.926 67.9426 917.274 66.9394 916.998 65.6191L919.251 65.0535C919.468 65.8885 919.874 66.5149 920.467 66.9327C921.073 67.3502 921.863 67.5587 922.833 67.5587C923.941 67.5587 924.823 67.3234 925.471 66.8518C926.131 66.3735 926.457 65.8012 926.457 65.1341C926.457 64.5954 926.269 64.1444 925.893 63.7806C925.517 63.4101 924.94 63.134 924.162 62.9519L921.588 62.3461C920.171 62.0092 919.13 61.4873 918.465 60.7799C917.809 60.0662 917.479 59.1738 917.479 58.1027C917.479 57.2275 917.725 56.453 918.214 55.7791C918.712 55.1058 919.385 54.5771 920.237 54.1932C921.099 53.8093 922.068 53.6172 923.155 53.6172C924.685 53.6172 925.889 53.9541 926.758 54.6275C927.64 55.3013 928.263 56.1899 928.631 57.2946Z" fill="#21B3FF"/>
<path d="M940.461 75.1561V53.8194H942.756V56.2843H943.04C943.212 56.015 943.454 55.6713 943.763 55.2539C944.077 54.8297 944.528 54.4525 945.114 54.1223C945.703 53.7858 946.501 53.6172 947.509 53.6172C948.809 53.6172 949.958 53.944 950.949 54.5973C951.944 55.2505 952.717 56.1765 953.273 57.3756C953.833 58.5743 954.109 59.9886 954.109 61.6186C954.109 63.262 953.833 64.6864 953.273 65.8918C952.717 67.0909 951.948 68.0202 950.961 68.6802C949.975 69.3335 948.838 69.6603 947.546 69.6603C946.556 69.6603 945.761 69.4954 945.164 69.1652C944.566 68.8283 944.106 68.4478 943.784 68.0236C943.462 67.5927 943.212 67.2357 943.04 66.9529H942.835V75.1561H940.461ZM942.798 61.5783C942.798 62.7501 942.969 63.784 943.312 64.6797C943.651 65.5688 944.152 66.2656 944.808 66.7708C945.469 67.2692 946.271 67.5185 947.224 67.5185C948.219 67.5185 949.047 67.2558 949.712 66.7305C950.385 66.1985 950.886 65.4844 951.221 64.5887C951.563 63.6862 951.735 62.6826 951.735 61.5783C951.735 60.487 951.567 59.5036 951.233 58.6284C950.903 57.746 950.401 57.0487 949.732 56.5369C949.068 56.0183 948.232 55.759 947.224 55.759C946.259 55.759 945.448 56.0049 944.792 56.4966C944.131 56.9816 943.634 57.6617 943.299 58.5373C942.965 59.4063 942.798 60.4199 942.798 61.5783Z" fill="#21B3FF"/>
<path d="M957.732 69.3368V53.8194H960.027V56.1631H960.19C960.47 55.3953 960.98 54.7722 961.72 54.2943C962.455 53.816 963.287 53.5769 964.215 53.5769C964.391 53.5769 964.608 53.5802 964.867 53.587C965.13 53.5937 965.327 53.6037 965.461 53.6172V56.0418C965.381 56.0217 965.197 55.9915 964.909 55.9512C964.629 55.9038 964.328 55.8803 964.014 55.8803C963.262 55.8803 962.589 56.0385 962 56.3552C961.414 56.6649 960.955 57.0962 960.612 57.6483C960.278 58.1937 960.106 58.8168 960.106 59.5174V69.3368H957.732Z" fill="#21B3FF"/>
<path d="M974.087 69.6603C972.691 69.6603 971.466 69.3268 970.413 68.6601C969.368 67.9934 968.549 67.0607 967.959 65.8616C967.374 64.6629 967.082 63.262 967.082 61.6589C967.082 60.0427 967.374 58.6318 967.959 57.4259C968.549 56.2205 969.368 55.2841 970.413 54.6174C971.466 53.9507 972.691 53.6172 974.087 53.6172C975.483 53.6172 976.704 53.9507 977.749 54.6174C978.806 55.2841 979.622 56.2205 980.207 57.4259C980.796 58.6318 981.093 60.0427 981.093 61.6589C981.093 63.262 980.796 64.6629 980.207 65.8616C979.622 67.0607 978.806 67.9934 977.749 68.6601C976.704 69.3268 975.483 69.6603 974.087 69.6603ZM974.087 67.5185C975.149 67.5185 976.018 67.2457 976.704 66.7003C977.389 66.1545 977.895 65.4374 978.225 64.5484C978.551 63.6593 978.719 62.696 978.719 61.6589C978.719 60.6217 978.551 59.6555 978.225 58.7597C977.895 57.8639 977.389 57.1398 976.704 56.5876C976.018 56.0351 975.149 55.759 974.087 55.759C973.026 55.759 972.156 56.0351 971.471 56.5876C970.785 57.1398 970.279 57.8639 969.949 58.7597C969.623 59.6555 969.456 60.6217 969.456 61.6589C969.456 62.696 969.623 63.6593 969.949 64.5484C970.279 65.4374 970.785 66.1545 971.471 66.7003C972.156 67.2457 973.026 67.5185 974.087 67.5185Z" fill="#21B3FF"/>
<path d="M990.958 75.4792C989.812 75.4792 988.826 75.3311 987.998 75.0349C987.175 74.7454 986.485 74.3615 985.937 73.8832C985.394 73.4116 984.959 72.9064 984.638 72.3677L986.531 71.0344C986.744 71.3172 987.016 71.6402 987.346 72.004C987.672 72.3744 988.124 72.6946 988.692 72.9639C989.273 73.24 990.026 73.378 990.958 73.378C992.207 73.378 993.236 73.0751 994.047 72.4688C994.862 71.8626 995.267 70.9131 995.267 69.62V66.4679H995.067C994.891 66.7506 994.644 67.101 994.318 67.5185C994.005 67.9292 993.549 68.2963 992.952 68.6198C992.362 68.9361 991.564 69.0943 990.556 69.0943C989.307 69.0943 988.186 68.7981 987.196 68.2053C986.209 67.6128 985.428 66.7506 984.851 65.6191C984.278 64.4875 983.994 63.1139 983.994 61.4973C983.994 59.908 984.274 58.5239 984.83 57.3454C985.386 56.1597 986.159 55.2438 987.154 54.5973C988.149 53.944 989.294 53.6172 990.598 53.6172C991.601 53.6172 992.4 53.7858 992.993 54.1223C993.591 54.4525 994.047 54.8297 994.36 55.2539C994.682 55.6713 994.933 56.015 995.104 56.2843H995.347V53.8194H997.641V69.7816C997.641 71.1149 997.341 72.1995 996.734 73.0344C996.141 73.8765 995.334 74.4928 994.318 74.8834C993.315 75.2807 992.195 75.4792 990.958 75.4792ZM990.878 66.9529C991.831 66.9529 992.638 66.7339 993.294 66.2963C993.951 65.8582 994.452 65.2285 994.795 64.407C995.138 63.5851 995.305 62.602 995.305 61.4571C995.305 60.3389 995.138 59.3521 994.803 58.4971C994.469 57.6416 993.971 56.9715 993.315 56.4865C992.655 56.0015 991.844 55.759 990.878 55.759C989.871 55.759 989.035 56.015 988.362 56.5268C987.697 57.0387 987.196 57.7259 986.861 58.5877C986.535 59.4499 986.368 60.4061 986.368 61.4571C986.368 62.5345 986.535 63.4877 986.874 64.316C987.217 65.1375 987.718 65.7844 988.383 66.2556C989.052 66.7204 989.883 66.9529 990.878 66.9529Z" fill="#21B3FF"/>
<path d="M1001.99 69.3368V53.8194H1004.28V56.1631H1004.45C1004.73 55.3953 1005.24 54.7722 1005.98 54.2943C1006.71 53.816 1007.54 53.5769 1008.47 53.5769C1008.65 53.5769 1008.87 53.5802 1009.13 53.587C1009.39 53.5937 1009.58 53.6037 1009.72 53.6172V56.0418C1009.64 56.0217 1009.46 55.9915 1009.17 55.9512C1008.89 55.9038 1008.59 55.8803 1008.27 55.8803C1007.52 55.8803 1006.85 56.0385 1006.26 56.3552C1005.68 56.6649 1005.21 57.0962 1004.87 57.6483C1004.54 58.1937 1004.37 58.8168 1004.37 59.5174V69.3368H1001.99Z" fill="#21B3FF"/>
<path d="M1017.09 69.7006C1016.11 69.7006 1015.22 69.5156 1014.42 69.1451C1013.62 68.7679 1012.99 68.2258 1012.51 67.5185C1012.05 66.8048 1011.81 65.9426 1011.81 64.9323C1011.81 64.0432 1011.99 63.3224 1012.34 62.7703C1012.69 62.2114 1013.15 61.7734 1013.74 61.4571C1014.32 61.1403 1014.96 60.9045 1015.67 60.7497C1016.38 60.5882 1017.09 60.4602 1017.81 60.3658C1018.75 60.2445 1019.51 60.1535 1020.1 60.0931C1020.69 60.0255 1021.12 59.9147 1021.38 59.7595C1021.66 59.6047 1021.79 59.3354 1021.79 58.9515V58.8705C1021.79 57.874 1021.52 57.0995 1020.98 56.5469C1020.44 55.9948 1019.63 55.7187 1018.53 55.7187C1017.4 55.7187 1016.51 55.9679 1015.87 56.4664C1015.22 56.9648 1014.77 57.4968 1014.51 58.0624L1012.26 57.2543C1012.66 56.3112 1013.2 55.5773 1013.87 55.0521C1014.54 54.5196 1015.28 54.1496 1016.08 53.9407C1016.88 53.725 1017.68 53.6172 1018.45 53.6172C1018.95 53.6172 1019.52 53.678 1020.16 53.7992C1020.82 53.9138 1021.44 54.153 1022.05 54.5163C1022.66 54.88 1023.17 55.4292 1023.57 56.1631C1023.97 56.8973 1024.17 57.8807 1024.17 59.113V69.3368H1021.79V67.2357H1021.68C1021.51 67.5726 1021.25 67.9326 1020.87 68.3164C1020.49 68.7003 1019.99 69.0272 1019.37 69.2965C1018.75 69.5659 1017.99 69.7006 1017.09 69.7006ZM1017.45 67.5587C1018.39 67.5587 1019.18 67.3737 1019.83 67.0032C1020.47 66.6328 1020.96 66.1544 1021.29 65.5687C1021.63 64.9826 1021.79 64.3663 1021.79 63.7198V61.5376C1021.69 61.6589 1021.47 61.7701 1021.13 61.8712C1020.8 61.9656 1020.41 62.0495 1019.96 62.1237C1019.53 62.1909 1019.1 62.2517 1018.68 62.3054C1018.27 62.3528 1017.94 62.3931 1017.69 62.4267C1017.07 62.5077 1016.49 62.639 1015.96 62.8206C1015.43 62.996 1015 63.262 1014.67 63.6191C1014.35 63.969 1014.19 64.4473 1014.19 65.0535C1014.19 65.8818 1014.49 66.5082 1015.1 66.9327C1015.72 67.3502 1016.5 67.5587 1017.45 67.5587Z" fill="#21B3FF"/>
<path d="M1028.51 69.3368V53.8194H1030.8V56.244H1031C1031.32 55.4154 1031.85 54.7722 1032.56 54.3145C1033.28 53.8496 1034.14 53.6172 1035.15 53.6172C1036.17 53.6172 1037.02 53.8496 1037.7 54.3145C1038.38 54.7722 1038.92 55.4154 1039.3 56.244H1039.46C1039.85 55.4427 1040.45 54.8062 1041.24 54.3346C1042.03 53.8563 1042.98 53.6172 1044.09 53.6172C1045.47 53.6172 1046.6 54.0518 1047.48 54.9207C1048.36 55.7825 1048.8 57.1264 1048.8 58.9515V69.3368H1046.42V58.9515C1046.42 57.8065 1046.11 56.9883 1045.49 56.4966C1044.86 56.0049 1044.13 55.759 1043.28 55.759C1042.2 55.759 1041.35 56.0892 1040.75 56.7492C1040.16 57.4024 1039.86 58.2307 1039.86 59.2342V69.3368H1037.44V58.7089C1037.44 57.8266 1037.16 57.1163 1036.59 56.5776C1036.02 56.0317 1035.28 55.759 1034.38 55.759C1033.77 55.759 1033.19 55.9239 1032.65 56.2541C1032.12 56.5843 1031.69 57.042 1031.37 57.6282C1031.04 58.2072 1030.88 58.8776 1030.88 59.6383V69.3368H1028.51Z" fill="#21B3FF"/>
<path d="M356.595 96.1693H345V113.95H354.018V144.015C354.018 161.861 367.546 167.831 374.309 168.585H383.65C389.576 168.585 396.855 165.567 399.754 164.059V143.369L399.11 144.015C398.337 145.05 396.426 145.524 395.567 145.632H389.125C385.26 145.632 383.65 141.968 383.328 140.136V113.95H400.076V96.1693H383.328V69.3367H369.8L356.595 96.1693Z" fill="#21B3FF"/>
<path d="M502.175 96.1693H490.58V113.95H499.599V144.015C499.599 161.861 513.126 167.831 519.889 168.585H529.23C535.156 168.585 542.435 165.567 545.334 164.059V143.369L544.69 144.015C543.917 145.05 542.006 145.524 541.147 145.632H534.705C530.84 145.632 529.23 141.968 528.908 140.136V113.95H545.656V96.1693H528.908V69.3367H515.38L502.175 96.1693Z" fill="#21B3FF"/>
<path d="M647.755 96.1693H636.16V113.95H645.179V144.015C645.179 161.861 658.706 167.831 665.47 168.585H674.81C680.737 168.585 688.016 165.567 690.914 164.059V143.369L690.27 144.015C689.497 145.05 687.586 145.524 686.727 145.632H680.286C676.421 145.632 674.81 141.968 674.488 140.136V113.95H691.236V96.1693H674.488V69.3367H660.961L647.755 96.1693Z" fill="#FE4E25"/>
<path fill-rule="evenodd" clip-rule="evenodd" d="M457.083 153.714C455.365 158.24 449.031 167.356 437.436 167.615H429.706C421.654 166.645 402.973 159.856 399.109 134.317V125.911C399.645 121.817 402.265 112.075 408.449 105.868C416.179 98.109 422.621 95.8463 425.197 95.1998C427.774 94.5532 433.893 94.5532 435.826 94.5532C437.758 94.5532 442.267 95.5228 444.844 97.1394C447.42 98.7555 453.862 103.282 457.083 110.394V94.5532H486.714V166.645H457.083V153.714ZM457.727 131.084C457.727 139.118 451.238 145.632 443.233 145.632C435.229 145.632 428.74 139.118 428.74 131.084C428.74 123.049 435.229 116.536 443.233 116.536C451.238 116.536 457.727 123.049 457.727 131.084Z" fill="#21B3FF"/>
<path fill-rule="evenodd" clip-rule="evenodd" d="M602.663 153.714C600.946 158.24 594.611 167.356 583.016 167.615H575.286C567.234 166.645 548.554 159.856 544.689 134.317V125.911C545.225 121.817 547.845 112.075 554.029 105.868C561.759 98.109 568.201 95.8463 570.777 95.1998C573.354 94.5532 579.473 94.5532 581.406 94.5532C583.339 94.5532 587.848 95.5228 590.424 97.1394C593.001 98.7555 599.442 103.282 602.663 110.394V94.5532H632.295V166.645H602.663V153.714ZM603.308 131.084C603.308 139.118 596.819 145.632 588.814 145.632C580.809 145.632 574.32 139.118 574.32 131.084C574.32 123.049 580.809 116.536 588.814 116.536C596.819 116.536 603.308 123.049 603.308 131.084Z" fill="#21B3FF"/>
<path fill-rule="evenodd" clip-rule="evenodd" d="M1021.37 153.714C1019.65 158.24 1013.32 167.356 1001.72 167.615H993.993C985.938 166.645 967.258 159.856 963.396 134.317V125.911C963.931 121.817 966.552 112.075 972.734 105.868C980.464 98.109 986.904 95.8463 989.483 95.1998C992.058 94.5532 998.178 94.5532 1000.11 94.5532C1002.04 94.5532 1006.55 95.5228 1009.13 97.1394C1011.71 98.7555 1018.15 103.282 1021.37 110.394V94.5532H1051V166.645H1021.37V153.714ZM1022.01 131.084C1022.01 139.118 1015.52 145.632 1007.52 145.632C999.514 145.632 993.025 139.118 993.025 131.084C993.025 123.049 999.514 116.536 1007.52 116.536C1015.52 116.536 1022.01 123.049 1022.01 131.084Z" fill="#FE4E25"/>
<path fill-rule="evenodd" clip-rule="evenodd" d="M778.521 131.084C778.521 151.974 759.919 168.908 736.973 168.908C714.026 168.908 695.424 151.974 695.424 131.084C695.424 110.194 714.026 93.2598 736.973 93.2598C759.919 93.2598 778.521 110.194 778.521 131.084ZM750.82 131.084C750.82 139.832 744.62 146.925 736.971 146.925C729.322 146.925 723.121 139.832 723.121 131.084C723.121 122.335 729.322 115.243 736.971 115.243C744.62 115.243 750.82 122.335 750.82 131.084Z" fill="#FE4E25"/>
<path d="M783.029 166.968V95.8462H811.696V111.041L812.661 109.424C815.558 100.695 825.222 95.5227 831.02 94.8762H844.868C861.876 99.2728 866.341 116.536 866.449 124.618V166.968H836.496C836.6 154.361 836.751 128.045 836.496 123.648C836.236 119.252 831.663 116.429 829.41 115.566H823.613C816.398 117.377 813.305 125.373 812.661 129.144V166.968H783.029Z" fill="#FE4E25"/>
<path fill-rule="evenodd" clip-rule="evenodd" d="M928.648 111.687V94.5532H958.28V155.007C958.28 169.555 950.354 198.715 918.661 198.974C918.287 198.974 917.794 198.979 917.211 198.984C912.782 199.023 903.113 199.109 899.981 197.68C900.754 190.439 901.807 181.085 902.234 177.313C904.273 177.529 909.064 177.96 911.898 177.96C915.442 177.96 930.9 177.96 930.578 155.007C930.343 155.296 930.096 155.613 929.833 155.952C926.862 159.776 921.757 166.348 905.778 166.645C888.385 166.968 870.348 152.421 871.315 130.114C872.284 107.807 886.776 94.5532 904.169 94.5532C921.561 94.5532 926.39 105.868 927.038 107.807C927.552 109.359 928.325 111.041 928.648 111.687ZM928.611 131.084C928.611 139.832 922.41 146.925 914.762 146.925C907.113 146.925 900.912 139.832 900.912 131.084C900.912 122.335 907.113 115.243 914.762 115.243C922.41 115.243 928.611 122.335 928.611 131.084Z" fill="#FE4E25"/>
</svg>
