<svg width="40" height="40" viewBox="0 0 40 40" fill="none" xmlns="http://www.w3.org/2000/svg">
<path d="M12 19V28" stroke="#C54647" stroke-width="1.5" stroke-linecap="round" stroke-linejoin="round"/>
<path d="M28 19V28" stroke="#BBAE50" stroke-width="1.5" stroke-linecap="round" stroke-linejoin="round"/>
<path d="M26 19V28" stroke="#BBAE50" stroke-width="1.5" stroke-linecap="round" stroke-linejoin="round"/>
<path d="M24 19V28" stroke="#BBAE50" stroke-width="1.5" stroke-linecap="round" stroke-linejoin="round"/>
<path d="M21 19V28" stroke="#21B3FF" stroke-width="1.5" stroke-linecap="round" stroke-linejoin="round"/>
<path d="M19 19V28" stroke="#21B3FF" stroke-width="1.5" stroke-linecap="round" stroke-linejoin="round"/>
<path d="M17 19V28" stroke="#21B3FF" stroke-width="1.5" stroke-linecap="round" stroke-linejoin="round"/>
<path d="M14 19V28" stroke="#C54647" stroke-width="1.5" stroke-linecap="round" stroke-linejoin="round"/>
<path fill-rule="evenodd" clip-rule="evenodd" d="M9.3336 4.09961L9.26917 4.09961C7.90977 4.09958 6.79889 4.09956 5.92186 4.21747C5.00512 4.34072 4.21031 4.60746 3.57588 5.24189C2.94145 5.87633 2.67471 6.67113 2.55146 7.58787C2.43354 8.46491 2.43357 9.57578 2.43359 10.9352L2.4336 10.9996V13.3329C2.4336 13.83 2.83654 14.2329 3.3336 14.2329C3.83065 14.2329 4.2336 13.83 4.2336 13.3329V10.9996C4.2336 9.55996 4.23551 8.57075 4.3354 7.82772C4.43182 7.11058 4.60442 6.75893 4.84867 6.51469C5.09292 6.27044 5.44456 6.09784 6.1617 6.00142C6.90474 5.90152 7.89394 5.89961 9.3336 5.89961H11.6669C12.164 5.89961 12.5669 5.49667 12.5669 4.99961C12.5669 4.50255 12.164 4.09961 11.6669 4.09961H9.3336ZM30.6669 5.89961C32.1066 5.89961 33.0958 5.90152 33.8388 6.00142C34.556 6.09784 34.9076 6.27044 35.1519 6.51469C35.3961 6.75893 35.5687 7.11058 35.6651 7.82772C35.765 8.57075 35.7669 9.55995 35.7669 10.9996V13.3329C35.7669 13.83 36.1699 14.2329 36.6669 14.2329C37.164 14.2329 37.5669 13.83 37.5669 13.3329V10.9996V10.9352C37.567 9.57579 37.567 8.46491 37.4491 7.58787C37.3258 6.67113 37.0591 5.87633 36.4246 5.24189C35.7902 4.60746 34.9954 4.34072 34.0787 4.21747C33.2016 4.09956 32.0908 4.09958 30.7314 4.09961L30.6669 4.09961H28.3336C27.8365 4.09961 27.4336 4.50255 27.4336 4.99961C27.4336 5.49667 27.8365 5.89961 28.3336 5.89961H30.6669ZM4.2336 26.6663C4.2336 26.1692 3.83065 25.7663 3.3336 25.7663C2.83654 25.7663 2.4336 26.1692 2.4336 26.6663V28.9996L2.43359 29.064C2.43357 30.4234 2.43354 31.5343 2.55146 32.4113C2.67471 33.3281 2.94145 34.1229 3.57588 34.7573C4.21031 35.3918 5.00512 35.6585 5.92186 35.7817C6.79889 35.8997 7.90977 35.8996 9.26917 35.8996H9.3336H11.6669C12.164 35.8996 12.5669 35.4967 12.5669 34.9996C12.5669 34.5026 12.164 34.0996 11.6669 34.0996H9.3336C7.89394 34.0996 6.90474 34.0977 6.1617 33.9978C5.44456 33.9014 5.09292 33.7288 4.84867 33.4845C4.60442 33.2403 4.43182 32.8886 4.3354 32.1715C4.23551 31.4285 4.2336 30.4393 4.2336 28.9996V26.6663ZM37.5669 26.6663C37.5669 26.1692 37.164 25.7663 36.6669 25.7663C36.1699 25.7663 35.7669 26.1692 35.7669 26.6663V28.9996C35.7669 30.4393 35.765 31.4285 35.6651 32.1715C35.5687 32.8886 35.3961 33.2403 35.1519 33.4845C34.9076 33.7288 34.556 33.9014 33.8388 33.9978C33.0958 34.0977 32.1066 34.0996 30.6669 34.0996H28.3336C27.8365 34.0996 27.4336 34.5026 27.4336 34.9996C27.4336 35.4967 27.8365 35.8996 28.3336 35.8996H30.6669H30.7314C32.0908 35.8996 33.2016 35.8997 34.0787 35.7817C34.9954 35.6585 35.7902 35.3918 36.4246 34.7573C37.0591 34.1229 37.3258 33.3281 37.4491 32.4113C37.567 31.5343 37.567 30.4234 37.5669 29.064V28.9996V26.6663ZM13.9483 10.9163L14.0003 10.9163H26.0003L26.0523 10.9163C26.9507 10.9162 27.7 10.9162 28.2947 10.9962C28.9225 11.0806 29.4893 11.2663 29.9448 11.7217C30.4003 12.1772 30.5859 12.744 30.6703 13.3718C30.7503 13.9666 30.7503 14.7158 30.7503 15.6142V15.6143V15.6663V18.3329V24.3329V24.3849V24.385C30.7503 25.2834 30.7503 26.0326 30.6703 26.6274C30.5859 27.2552 30.4003 27.822 29.9448 28.2775C29.4893 28.733 28.9225 28.9186 28.2947 29.003C27.7 29.083 26.9507 29.083 26.0523 29.0829H26.0003H14.0003H13.9483C13.0498 29.083 12.3006 29.083 11.7058 29.003C11.078 28.9186 10.5112 28.733 10.0557 28.2775C9.60025 27.822 9.41458 27.2552 9.33017 26.6274C9.25021 26.0326 9.25023 25.2834 9.25026 24.3849L9.25026 24.3329V18.3329V15.6663L9.25026 15.6143C9.25023 14.7158 9.25021 13.9666 9.33017 13.3718C9.41458 12.744 9.60025 12.1772 10.0557 11.7217C10.5112 11.2663 11.078 11.0806 11.7058 10.9962C12.3006 10.9162 13.0498 10.9162 13.9483 10.9163ZM29.2503 15.6663V17.5829H10.7503V15.6663C10.7503 14.7023 10.7519 14.0547 10.8168 13.5717C10.8788 13.1102 10.9861 12.9127 11.1164 12.7824C11.2467 12.6521 11.4442 12.5449 11.9057 12.4828C12.3887 12.4179 13.0362 12.4163 14.0003 12.4163H26.0003C26.9643 12.4163 27.6118 12.4179 28.0949 12.4828C28.5563 12.5449 28.7538 12.6521 28.8841 12.7824C29.0145 12.9127 29.1217 13.1102 29.1837 13.5717C29.2487 14.0547 29.2503 14.7023 29.2503 15.6663ZM29.2503 19.0829H10.7503V24.3329C10.7503 25.297 10.7519 25.9445 10.8168 26.4276C10.8788 26.889 10.9861 27.0865 11.1164 27.2168C11.2467 27.3471 11.4442 27.4544 11.9057 27.5164C12.3887 27.5814 13.0362 27.5829 14.0003 27.5829H26.0003C26.9643 27.5829 27.6118 27.5814 28.0949 27.5164C28.5563 27.4544 28.7538 27.3471 28.8841 27.2168C29.0145 27.0865 29.1217 26.889 29.1837 26.4276C29.2487 25.9445 29.2503 25.297 29.2503 24.3329V19.0829Z" fill="#461E80"/>
</svg>
