<svg width="40" height="40" viewBox="0 0 40 40" fill="none" xmlns="http://www.w3.org/2000/svg">
<g clip-path="url(#clip0_845_20237)">
<path fill-rule="evenodd" clip-rule="evenodd" d="M11.0592 6.54199C11.081 6.542 11.103 6.542 11.125 6.542H27.875L27.9408 6.54199C28.8273 6.54194 29.5911 6.5419 30.2028 6.62414C30.8583 6.71227 31.4867 6.91101 31.9963 7.42068C32.506 7.93034 32.7047 8.55869 32.7929 9.21421C32.8751 9.82587 32.8751 10.5897 32.875 11.4762L32.875 11.542V12.667C32.875 13.2193 32.4273 13.667 31.875 13.667C31.3227 13.667 30.875 13.2193 30.875 12.667V11.542C30.875 10.5709 30.8729 9.94321 30.8107 9.4807C30.7524 9.04696 30.6582 8.91101 30.5821 8.83489C30.506 8.75877 30.37 8.66462 29.9363 8.6063C29.4738 8.54412 28.8461 8.542 27.875 8.542H11.125C10.1539 8.542 9.52622 8.54412 9.06371 8.6063C8.62997 8.66462 8.49402 8.75877 8.4179 8.83489C8.34177 8.91101 8.24763 9.04696 8.18931 9.4807C8.12713 9.94321 8.125 10.5709 8.125 11.542V28.042C8.125 28.5943 7.67729 29.042 7.125 29.042C6.57272 29.042 6.125 28.5943 6.125 28.042V11.542C6.125 11.52 6.125 11.498 6.125 11.4762C6.12495 10.5897 6.12491 9.82587 6.20715 9.21421C6.29528 8.55869 6.49402 7.93034 7.00368 7.42068C7.51335 6.91101 8.1417 6.71227 8.79721 6.62414C9.40887 6.5419 10.1727 6.54194 11.0592 6.54199Z" fill="#461E80"/>
<path d="M24.2 32H5.55555C3.59187 32 2 30.4081 2 28.4444V28.4444C2 28.199 2.19898 28 2.44444 28H22.8" stroke="#461E80" stroke-width="2" stroke-linecap="round" stroke-linejoin="round"/>
<path d="M25.5121 13.042C24.8509 13.1538 24.3593 13.4242 23.8677 13.965C23.4608 14.4033 23.2404 14.8135 23.0963 15.3916L23.0116 15.7273L23.0031 21.993C22.9946 28.9021 22.9861 28.6037 23.232 29.1632C23.4608 29.676 23.9779 30.1608 24.4695 30.3193L24.6729 30.3846L24.6814 32.2028C24.6899 34.0117 24.6899 34.021 24.7831 34.2168C24.9103 34.4965 25.1476 34.7576 25.4019 34.8881L25.6223 35H29.6486H33.6748L33.8868 34.8881C34.175 34.7389 34.353 34.5618 34.4971 34.2821L34.6073 34.0583L34.6157 32.2214L34.6242 30.3846L34.7853 30.3287C35.4718 30.1329 36.0737 29.4336 36.2432 28.6503C36.328 28.2494 36.328 16.0909 36.2432 15.6061C36.0059 14.2634 34.9887 13.2098 33.7511 13.042C33.3782 12.986 25.8512 12.986 25.5121 13.042ZM33.8952 13.9557C34.2343 14.049 34.5564 14.2354 34.8192 14.5058C35.1074 14.7855 35.2769 15.0839 35.404 15.5035L35.5057 15.8298L35.4973 22.1888L35.4888 28.5478L35.3956 28.7343C35.2684 29.0047 35.065 29.2284 34.8361 29.3683L34.6327 29.4895L29.7333 29.4988C24.8509 29.5082 24.834 29.5082 24.6221 29.4149C24.3593 29.303 24.0626 29.014 23.9355 28.7063L23.8338 28.4918V22.1329C23.8338 16.0256 23.8338 15.7552 23.9101 15.5315C24.1644 14.7016 24.7747 14.1049 25.5206 13.9371C25.6053 13.9184 27.4701 13.8998 29.6655 13.8998C33.0476 13.8904 33.6833 13.9091 33.8952 13.9557ZM27.1735 32.2681V34.1142H26.4615H25.7494L25.6138 33.965L25.4782 33.8159V32.1096V30.4033H26.3174H27.1565L27.1735 32.2681ZM33.8613 32.0536C33.8613 33.4802 33.8529 33.7133 33.802 33.8438C33.6748 34.1329 33.802 34.1235 30.7505 34.1235H27.9957V32.2774V30.4312H30.9285H33.8613V32.0536Z" fill="#C54647"/>
<path d="M25.5054 14.9253C25.124 15.0651 24.8443 15.4008 24.7256 15.8204C24.6747 16.0069 24.6663 16.2679 24.6747 17.219C24.6917 18.3099 24.6917 18.4031 24.768 18.5896C24.8866 18.8787 25.107 19.1211 25.3613 19.2609L25.5817 19.3821H29.6504H33.719L33.897 19.2889C34.1513 19.1584 34.3887 18.9066 34.5073 18.6549L34.609 18.4311L34.6175 17.191C34.6345 15.7085 34.6175 15.6525 34.2785 15.2609C34.1174 15.0838 33.9987 14.9905 33.8292 14.9253C33.6088 14.832 33.5834 14.832 29.6419 14.832C25.9716 14.8414 25.6919 14.8507 25.5054 14.9253ZM33.6597 15.8111C33.8377 15.9509 33.8631 16.1001 33.8631 17.1164C33.8631 18.1327 33.8377 18.2912 33.6597 18.4218C33.5749 18.487 33.2104 18.487 29.6843 18.487C26.7599 18.487 25.7767 18.4777 25.7004 18.4311C25.4969 18.3285 25.4885 18.2353 25.4885 17.0978C25.4885 15.9789 25.5054 15.9043 25.6919 15.7924C25.7682 15.7458 26.5226 15.7365 29.6758 15.7365C33.2189 15.7458 33.5834 15.7458 33.6597 15.8111Z" fill="#21B3FF"/>
<path d="M25.7345 21.3126C25.4717 21.4431 25.4378 21.8627 25.6751 22.0678C25.7684 22.1424 25.8277 22.1517 26.3024 22.1517C26.9974 22.1517 27.1331 22.0771 27.1331 21.7042C27.1331 21.5923 27.0992 21.5084 27.0229 21.4151L26.9127 21.2753L26.3871 21.2659C25.9887 21.2566 25.8277 21.2659 25.7345 21.3126Z" fill="#BBAE50"/>
<path d="M29.1058 21.2941C28.9024 21.3874 28.7922 21.723 28.8939 21.9468C28.9787 22.1146 29.1313 22.1613 29.6907 22.1613C30.1993 22.1613 30.2247 22.1613 30.3349 22.0494C30.4875 21.9095 30.5214 21.7417 30.4451 21.5366C30.3603 21.3035 30.2078 21.2568 29.6483 21.2568C29.394 21.2568 29.1482 21.2755 29.1058 21.2941Z" fill="#BBAE50"/>
<path d="M32.4301 21.2938C32.2945 21.3498 32.1758 21.5456 32.1758 21.7134C32.1758 21.8253 32.2097 21.8999 32.3114 22.0118L32.447 22.1609H33.0065H33.5659L33.7015 22.0118C33.9134 21.7787 33.8711 21.471 33.5998 21.3218C33.4642 21.2472 32.5742 21.2285 32.4301 21.2938Z" fill="#BBAE50"/>
<path d="M25.7308 24.0719C25.5783 24.1465 25.4765 24.3889 25.5104 24.5754C25.5274 24.6407 25.5867 24.7433 25.6545 24.8085C25.7647 24.9111 25.7902 24.9204 26.2987 24.9204C26.9938 24.9204 27.1379 24.8458 27.1379 24.4729C27.1379 24.361 27.104 24.2771 27.0277 24.1838L26.9175 24.044L26.392 24.0346C25.9851 24.0067 25.8241 24.0253 25.7308 24.0719Z" fill="#BBAE50"/>
<path d="M29.0635 24.0721C28.9278 24.1467 28.8516 24.2866 28.8516 24.4824C28.8516 24.8273 29.0041 24.9113 29.6653 24.9113C30.2332 24.9113 30.3265 24.874 30.4366 24.6409C30.496 24.4917 30.5045 24.4637 30.4536 24.3145C30.3688 24.0628 30.2163 24.0068 29.6568 24.0068C29.3178 24.0068 29.1567 24.0255 29.0635 24.0721Z" fill="#BBAE50"/>
<path d="M32.4301 24.0536C32.2945 24.1095 32.1758 24.3053 32.1758 24.4731C32.1758 24.585 32.2097 24.6596 32.3114 24.7715L32.447 24.9207H33.0065H33.5659L33.7015 24.7715C33.9134 24.5384 33.8711 24.2307 33.5998 24.0815C33.4642 23.9976 32.5742 23.979 32.4301 24.0536Z" fill="#BBAE50"/>
<path d="M25.7334 26.8225C25.5809 26.8971 25.4707 27.1396 25.5131 27.3074C25.5215 27.3633 25.5893 27.4659 25.6487 27.5312L25.7589 27.6524H26.2929C26.9964 27.6524 27.132 27.5778 27.132 27.2048C27.132 27.0929 27.0981 27.009 27.0218 26.9158L26.9117 26.7759L26.3861 26.7666C25.9877 26.7666 25.8267 26.7759 25.7334 26.8225Z" fill="#BBAE50"/>
<path d="M29.0719 26.8231C28.9109 26.9163 28.86 27.0096 28.8516 27.2054C28.8516 27.5876 28.9872 27.6622 29.6653 27.6622C30.2332 27.6622 30.3265 27.6249 30.4366 27.3918C30.496 27.2427 30.5045 27.2147 30.4536 27.0655C30.3688 26.8138 30.2163 26.7578 29.6568 26.7578C29.3093 26.7578 29.1567 26.7765 29.0719 26.8231Z" fill="#BBAE50"/>
<path d="M32.4291 26.8045C32.2172 26.8978 32.1239 27.2055 32.2341 27.4479C32.3274 27.6344 32.446 27.6717 33.0224 27.6717H33.5564L33.692 27.5225C33.904 27.2894 33.8616 26.9817 33.5903 26.8325C33.4632 26.7486 32.5732 26.7299 32.4291 26.8045Z" fill="#BBAE50"/>
<path d="M37.3871 17.6573C37.1836 17.7785 37.1921 17.5454 37.1836 23.0746C37.1836 28.6224 37.1752 28.4079 37.3786 28.5291C37.5312 28.613 37.7261 28.5851 37.8618 28.4452L37.9889 28.324V23.0839V17.8438L37.8618 17.7226C37.7177 17.5827 37.5481 17.5548 37.3871 17.6573Z" fill="#21B3FF"/>
<path d="M11 12H15L13 15L11 12Z" fill="#C54647"/>
<path d="M15.2 11L10.8 11C10.4509 11 10.2764 11 10.2211 11.1106C10.1658 11.2211 10.2706 11.3607 10.48 11.64L12.68 14.5733C12.8267 14.7689 12.9 14.8667 13 14.8667C13.1 14.8667 13.1733 14.7689 13.32 14.5733L15.52 11.64C15.7294 11.3607 15.8342 11.2211 15.7789 11.1106C15.7236 11 15.5491 11 15.2 11Z" stroke="#461E80" stroke-width="0.5" stroke-linecap="round" stroke-linejoin="round"/>
<path d="M12.9974 15L12.9974 17M12.9974 17L11.6641 17M12.9974 17L14.3307 17" stroke="#461E80" stroke-width="0.5" stroke-linecap="round" stroke-linejoin="round"/>
<path d="M11 20H15L13 23L11 20Z" fill="#BBAE50"/>
<path d="M15.2 19L10.8 19C10.4509 19 10.2764 19 10.2211 19.1106C10.1658 19.2211 10.2706 19.3607 10.48 19.64L12.68 22.5733C12.8267 22.7689 12.9 22.8667 13 22.8667C13.1 22.8667 13.1733 22.7689 13.32 22.5733L15.52 19.64C15.7294 19.3607 15.8342 19.2211 15.7789 19.1106C15.7236 19 15.5491 19 15.2 19Z" stroke="#461E80" stroke-width="0.5" stroke-linecap="round" stroke-linejoin="round"/>
<path d="M12.9974 23L12.9974 25M12.9974 25L11.6641 25M12.9974 25L14.3307 25" stroke="#461E80" stroke-width="0.5" stroke-linecap="round" stroke-linejoin="round"/>
<path d="M17 16H21L19 19L17 16Z" fill="#21B3FF"/>
<path d="M21.2 15L16.8 15C16.4509 15 16.2764 15 16.2211 15.1106C16.1658 15.2211 16.2706 15.3607 16.48 15.64L18.68 18.5733C18.8267 18.7689 18.9 18.8667 19 18.8667C19.1 18.8667 19.1733 18.7689 19.32 18.5733L21.52 15.64C21.7294 15.3607 21.8342 15.2211 21.7789 15.1106C21.7236 15 21.5491 15 21.2 15Z" stroke="#461E80" stroke-width="0.5" stroke-linecap="round" stroke-linejoin="round"/>
<path d="M18.9974 19L18.9974 21M18.9974 21L17.6641 21M18.9974 21L20.3307 21" stroke="#461E80" stroke-width="0.5" stroke-linecap="round" stroke-linejoin="round"/>
</g>
<defs>
<clipPath id="clip0_845_20237">
<rect width="40" height="40" fill="white"/>
</clipPath>
</defs>
</svg>
