<svg width="40" height="40" viewBox="0 0 40 40" fill="none" xmlns="http://www.w3.org/2000/svg">
<path fill-rule="evenodd" clip-rule="evenodd" d="M5.44809 4.21819C5.16954 4.05902 4.82731 4.06016 4.54983 4.22119C4.27235 4.38222 4.10156 4.67879 4.10156 4.99961V28.9996L4.10156 29.064C4.10153 30.4234 4.10151 31.5343 4.21942 32.4113C4.34268 33.3281 4.60942 34.1229 5.24385 34.7573C5.87828 35.3918 6.67308 35.6585 7.58982 35.7817C8.46686 35.8997 9.57774 35.8996 10.9371 35.8996H11.0016H31.6625C31.6644 35.8996 31.6663 35.8996 31.6682 35.8996C34.0062 35.8996 35.9016 34.0043 35.9016 31.6663V19.9996C35.9016 19.5026 35.4986 19.0996 35.0016 19.0996H29.2349V4.99961C29.2349 4.67879 29.0641 4.38222 28.7866 4.22119C28.5091 4.06016 28.1669 4.05902 27.8884 4.21819L22.5016 7.29637L17.1148 4.21819C16.8381 4.06008 16.4984 4.06008 16.2217 4.21819L10.8349 7.29637L5.44809 4.21819ZM27.4349 19.9996V6.55047L22.9481 9.11436C22.6714 9.27247 22.3317 9.27247 22.055 9.11436L16.6682 6.03619L11.2814 9.11436C11.0047 9.27247 10.6651 9.27247 10.3884 9.11436L5.90156 6.55047V28.9996C5.90156 30.4393 5.90348 31.4285 6.00337 32.1715C6.09979 32.8886 6.27239 33.2403 6.51664 33.4845C6.76089 33.7288 7.11253 33.9014 7.82967 33.9978C8.5727 34.0977 9.56191 34.0996 11.0016 34.0996H28.2037C27.7193 33.4112 27.4349 32.572 27.4349 31.6663V19.9996ZM31.6639 34.0996C30.322 34.0973 29.2349 33.0087 29.2349 31.6663V20.8996H34.1016V31.6663C34.1016 33.0094 33.0133 34.0984 31.6705 34.0996C31.6697 34.0996 31.669 34.0996 31.6682 34.0996" fill="#461E80"/>
<path fill-rule="evenodd" clip-rule="evenodd" d="M22.3941 23.8806C22.644 24.0983 22.6701 24.4773 22.4524 24.7272L22.4256 24.7579C24.2132 24.9685 25.6 26.4888 25.6 28.333C25.6 30.3212 23.9882 31.933 22 31.933C20.0118 31.933 18.4 30.3212 18.4 28.333C18.4 27.5938 18.6234 26.905 19.0066 26.3326C19.1909 26.0572 19.5636 25.9834 19.8389 26.1677C20.1143 26.3521 20.1881 26.7247 20.0038 27.0001C19.7487 27.3811 19.6 27.8388 19.6 28.333C19.6 29.6585 20.6745 30.733 22 30.733C23.3255 30.733 24.4 29.6585 24.4 28.333C24.4 27.246 23.6773 26.3277 22.6862 26.0325C22.8014 26.232 22.7958 26.489 22.6512 26.6869C22.4557 26.9545 22.0803 27.013 21.8127 26.8175L20.6461 25.9653C20.5104 25.8661 20.4224 25.7146 20.4037 25.5476C20.385 25.3806 20.4372 25.2133 20.5476 25.0866L21.5476 23.9389C21.7653 23.689 22.1443 23.663 22.3941 23.8806Z" fill="#C54647"/>
<path d="M9 13H18" stroke="#C54647" stroke-width="2" stroke-linecap="round" stroke-linejoin="round"/>
<path d="M9 17H19" stroke="#21B3FF" stroke-width="2" stroke-linecap="round" stroke-linejoin="round"/>
<path d="M9 21H19" stroke="#E4D256" stroke-width="2" stroke-linecap="round" stroke-linejoin="round"/>
</svg>
