<svg width="40" height="40" viewBox="0 0 40 40" fill="none" xmlns="http://www.w3.org/2000/svg">
<path d="M36.3333 13.3333V11C36.3333 8.17157 36.3333 6.75736 35.4547 5.87868C34.576 5 33.1618 5 30.3333 5H28M36.3333 26.6667V29C36.3333 31.8284 36.3333 33.2426 35.4547 34.1213C34.576 35 33.1618 35 30.3333 35H28M3 26.6667V29C3 31.8284 3 33.2426 3.87868 34.1213C4.75736 35 6.17157 35 9 35H11.3333M3 13.3333V11C3 8.17157 3 6.75736 3.87868 5.87868C4.75736 5 6.17157 5 9 5H11.3333" stroke="#461E80" stroke-width="1.8" stroke-linecap="round" stroke-linejoin="round"/>
<path fill-rule="evenodd" clip-rule="evenodd" d="M10.1688 16C7.86645 16 6 17.8664 6 20.1688C6 22.4712 7.86645 24.3377 10.1688 24.3377H29.5046C31.807 24.3377 33.6735 22.4712 33.6735 20.1688C33.6735 17.8664 31.807 16 29.5046 16H10.1688Z" fill="#C54647"/>
<path d="M28.4601 18C27.107 18 26 19.0812 26 20.4027C26 21.7242 27.107 22.8055 28.4601 22.8055C29.8132 22.8055 30.9202 21.7242 30.9202 20.4027C30.9202 19.0812 29.8132 18 28.4601 18Z" fill="#BBAE50" stroke="#21B3FF" stroke-width="1.5"/>
</svg>
