<svg width="40" height="40" viewBox="0 0 40 40" fill="none" xmlns="http://www.w3.org/2000/svg">
<path d="M36.3333 13.3333V11C36.3333 8.17157 36.3333 6.75736 35.4547 5.87868C34.576 5 33.1618 5 30.3333 5H28M36.3333 26.6667V29C36.3333 31.8284 36.3333 33.2426 35.4547 34.1213C34.576 35 33.1618 35 30.3333 35H28M3 26.6667V29C3 31.8284 3 33.2426 3.87868 34.1213C4.75736 35 6.17157 35 9 35H11.3333M3 13.3333V11C3 8.17157 3 6.75736 3.87868 5.87868C4.75736 5 6.17157 5 9 5H11.3333" stroke="#461E80" stroke-width="1.8" stroke-linecap="round" stroke-linejoin="round"/>
<path d="M11.1281 18.5977C9.77502 18.5977 8.66797 19.6789 8.66797 21.0004C8.66797 22.3219 9.77502 23.4031 11.1281 23.4031C12.4811 23.4031 13.5882 22.3219 13.5882 21.0004C13.5882 19.6789 12.4811 18.5977 11.1281 18.5977Z" stroke="#C54647" stroke-width="1.5"/>
<path d="M19.7414 18.5977C18.3883 18.5977 17.2812 19.6789 17.2812 21.0004C17.2812 22.3219 18.3883 23.4031 19.7414 23.4031C21.0944 23.4031 22.2015 22.3219 22.2015 21.0004C22.2015 19.6789 21.0944 18.5977 19.7414 18.5977Z" stroke="#21B3FF" stroke-width="1.5"/>
<path fill-rule="evenodd" clip-rule="evenodd" d="M25.3633 21.0004C25.3633 19.2481 26.8229 17.8477 28.5734 17.8477C30.3239 17.8477 31.7835 19.2481 31.7835 21.0004C31.7835 22.7527 30.3239 24.1531 28.5734 24.1531C26.8229 24.1531 25.3633 22.7527 25.3633 21.0004ZM28.5734 19.3477C27.6178 19.3477 26.8633 20.1097 26.8633 21.0004C26.8633 21.8911 27.6178 22.6531 28.5734 22.6531C29.529 22.6531 30.2835 21.8911 30.2835 21.0004C30.2835 20.1097 29.529 19.3477 28.5734 19.3477Z" fill="#E4D256"/>
</svg>
