<svg xmlns="http://www.w3.org/2000/svg" version="1.1" xmlns:xlink="http://www.w3.org/1999/xlink"
     xmlns:svgjs="http://svgjs.com/svgjs" width="24" height="24" x="0" y="0" viewBox="0 0 426.667 426.667"
     style="enable-background:new 0 0 24 24" xml:space="preserve" class=""><g><path d="M277.333 0v149.333h149.333V0H277.333zM384 106.667h-64v-64h64v64zM0 192h85.333v42.667H0zM128 192h64v42.667h-64zM192 149.333h42.667V192H192zM149.333 85.333V0H0v149.333h192v-64h-42.667zm-42.666 21.334h-64v-64h64v64zM192 0h42.667v85.333H192zM298.667 234.667h42.666v64H384V192H234.667v42.667H256v42.666h42.667zM213.333 277.333H256v64h-42.667zM384 298.667h42.667v42.667H384z" fill="#000000" data-original="#000000" class=""></path><path
  d="M298.667 341.333H256V384h-42.667v42.667h85.334V384h42.666v42.667h64V384H384v-42.667h-42.667zM149.333 341.333v-64H0v149.333h149.333V384h64v-42.667h-64zM106.667 384h-64v-64h64v64z"
  fill="#000000" data-original="#000000" class=""></path></g></svg>
